<svg xmlns="http://www.w3.org/2000/svg" width="84" height="84" viewBox="0 0 84 84">
  <g id="avatar" transform="translate(-284 -11041.34)">
    <circle id="Elipse_4242" data-name="Elipse 4242" cx="42" cy="42" r="42" transform="translate(284 11041.34)" fill="#fe7062"/>
    <g id="Grupo_61273" data-name="Grupo 61273" transform="translate(296.186 11053.652)">
      <g id="Grupo_61265" data-name="Grupo 61265" transform="translate(29.56 19.214)">
        <path id="Trazado_140379" data-name="Trazado 140379" d="M1424.36,1622.688l9.846-5.908,9.058,16.147s.393,3.543-.393,5.12-5.909,9.058-5.909,9.058Z" transform="translate(-1414.909 -1616.78)" fill="#fff"/>
        <path id="Trazado_140380" data-name="Trazado 140380" d="M1374.719,1730.25v18.9l-7.089-9.451Z" transform="translate(-1367.63 -1711.346)" fill="#fff"/>
        <path id="Trazado_140381" data-name="Trazado 140381" d="M1405.19,1751.52l10.633.393s5.12,5.908,2.757,8.663-3.545,2.362-13.39,2.362A32.226,32.226,0,0,1,1405.19,1751.52Z" transform="translate(-1398.495 -1729.072)" fill="#fff"/>
      </g>
      <g id="Grupo_61266" data-name="Grupo 61266" transform="translate(0 22.417)">
        <path id="Trazado_140382" data-name="Trazado 140382" d="M1220.4,1747.675l.065,11.607-18.5-.068s-3.249-1.418-4.2-2.9-4.781-9.708-4.781-9.708Z" transform="translate(-1192.517 -1728.184)" fill="#fff"/>
        <path id="Trazado_140383" data-name="Trazado 140383" d="M1216.36,1646.954l-16.26-9.411,11.742-1.533Z" transform="translate(-1198.451 -1636.01)" fill="#fff"/>
        <path id="Trazado_140384" data-name="Trazado 140384" d="M1205.263,1660.556l-5.756,9.163s-7.689,1.564-8.857-1.887-.226-4.3,4.788-12.962A31.48,31.48,0,0,1,1205.263,1660.556Z" transform="translate(-1190.2 -1651.728)" fill="#fff"/>
      </g>
      <g id="Grupo_61267" data-name="Grupo 61267" transform="translate(9.378)">
        <path id="Trazado_140385" data-name="Trazado 140385" d="M1256.653,1525.446l-10.163-5.6,9.08-16.122s2.832-2.144,4.578-2.257,10.807.56,10.807.56Z" transform="translate(-1246.49 -1501.453)" fill="#fff"/>
        <path id="Trazado_140386" data-name="Trazado 140386" d="M1381.49,1570.166l16.145-9.606-4.387,11Z" transform="translate(-1358.999 -1550.713)" fill="#fff"/>
        <path id="Trazado_140387" data-name="Trazado 140387" d="M1374.913,1527.691l-5.193-9.5s2.384-7.475,5.968-6.812,3.86,1.9,8.98,10.5A31.308,31.308,0,0,1,1374.913,1527.691Z" transform="translate(-1349.19 -1509.693)" fill="#fff"/>
      </g>
    </g>
  </g>
</svg>
