<svg xmlns="http://www.w3.org/2000/svg" width="334.307" height="334.424" viewBox="0 0 334.307 334.424">
  <g id="img14" transform="translate(-22.381 -16.395)">
    <path id="Trazado_143635" data-name="Trazado 143635" d="M66.529,88.585a1.771,1.771,0,0,1-1.039-.346,1.74,1.74,0,0,1-.362-2.432,168.14,168.14,0,0,1,12.3-14.839,1.74,1.74,0,0,1,2.551,2.362A162.622,162.622,0,0,0,67.891,87.86a1.748,1.748,0,0,1-1.362.724ZM92.507,60.709a1.74,1.74,0,0,1-1.126-3.07A169.625,169.625,0,0,1,106.771,46a1.748,1.748,0,1,1,1.944,2.9A163.945,163.945,0,0,0,93.633,60.3a1.724,1.724,0,0,1-1.126.409ZM124.2,39.51a1.748,1.748,0,0,1-.787-3.3,166.893,166.893,0,0,1,17.641-7.817,1.748,1.748,0,0,1,1.228,3.267A163.26,163.26,0,0,0,125,39.313a1.7,1.7,0,0,1-.8.2Zm35.692-13.383a1.74,1.74,0,0,1-.417-3.432,167.291,167.291,0,0,1,18.972-3.542,1.742,1.742,0,1,1,.441,3.456,163.735,163.735,0,0,0-18.57,3.472,1.952,1.952,0,0,1-.417.024ZM216.8,22.191a2.119,2.119,0,0,1-.315,0,166.837,166.837,0,0,0-16.98-.874h-1.771a1.748,1.748,0,0,1,0-3.487h1.8a170.035,170.035,0,0,1,17.421.905h.181a1.74,1.74,0,0,1-.307,3.456Z" transform="translate(-10.156 -1.435)" fill="#3b50a8"/>
    <path id="Trazado_143636" data-name="Trazado 143636" d="M191.2,391.274c-4.66,0-9.376-.2-14.028-.583a1.742,1.742,0,0,1,.291-3.472,166.629,166.629,0,0,0,18.893.488h.055a1.748,1.748,0,0,1,.055,3.487Q193.842,391.282,191.2,391.274Zm-32.787-3.243a1.715,1.715,0,0,1-.346,0,167.621,167.621,0,0,1-18.673-4.857,1.76,1.76,0,1,1,1.071-3.353,164.177,164.177,0,0,0,18.287,4.723,1.74,1.74,0,0,1-.339,3.448ZM122.127,376.3a1.82,1.82,0,0,1-.724-.158,166.718,166.718,0,0,1-17.059-9.045,1.74,1.74,0,1,1,1.8-2.976,164.465,164.465,0,0,0,16.7,8.848,1.748,1.748,0,0,1-.724,3.33ZM89.513,356.519a1.692,1.692,0,0,1-1.063-.37,167.189,167.189,0,0,1-14.532-12.706,1.748,1.748,0,0,1,2.448-2.488A164.054,164.054,0,0,0,90.591,353.4a1.748,1.748,0,0,1-1.078,3.149Zm-27.206-26.71a1.724,1.724,0,0,1-1.354-.646A167.826,167.826,0,0,1,49.7,313.482a1.743,1.743,0,0,1,2.944-1.866,162.25,162.25,0,0,0,11.021,15.351,1.74,1.74,0,0,1-1.354,2.842Zm-20.4-32.2a1.74,1.74,0,0,1-1.574-.984,168.772,168.772,0,0,1-7.368-17.822,1.743,1.743,0,0,1,3.291-1.149,165.137,165.137,0,0,0,7.219,17.453,1.74,1.74,0,0,1-1.574,2.5ZM29.4,261.6a1.74,1.74,0,0,1-1.7-1.362,165.5,165.5,0,0,1-3.07-19.051,1.741,1.741,0,1,1,3.464-.354A163.689,163.689,0,0,0,31.1,259.479a1.74,1.74,0,0,1-1.323,2.078A1.574,1.574,0,0,1,29.4,261.6Zm-3.865-37.92h0a1.74,1.74,0,0,1-1.716-1.771c.063-4.991.362-10.061.882-15.075.142-1.393.307-2.787.48-4.172a1.748,1.748,0,0,1,3.464.441c-.173,1.362-.331,2.724-.472,4.093-.512,4.9-.787,9.872-.874,14.76a1.74,1.74,0,0,1-1.763,1.724Z" transform="translate(-1.438 -40.456)" fill="#3b50a8"/>
    <path id="Trazado_143637" data-name="Trazado 143637" d="M424.631,266.313a1.74,1.74,0,0,1-1.614-2.4,163.84,163.84,0,0,0,6.046-17.9,1.748,1.748,0,0,1,3.361.929,167.417,167.417,0,0,1-6.18,18.279A1.74,1.74,0,0,1,424.631,266.313Zm10.092-36.779a1.532,1.532,0,0,1-.268,0A1.748,1.748,0,0,1,433,227.543c.417-2.692.787-5.44,1.047-8.163.37-3.535.622-7.085.787-10.651a1.708,1.708,0,0,1,1.811-1.677,1.74,1.74,0,0,1,1.669,1.811c-.142,3.605-.4,7.266-.787,10.879-.291,2.779-.653,5.581-1.071,8.337A1.747,1.747,0,0,1,434.723,229.534Zm1.472-38.1a1.748,1.748,0,0,1-1.74-1.614,162.529,162.529,0,0,0-2.535-18.72,1.748,1.748,0,0,1,3.424-.669,167.784,167.784,0,0,1,2.582,19.121,1.748,1.748,0,0,1-1.574,1.874Zm-7.3-37.424a1.74,1.74,0,0,1-1.661-1.212,163.173,163.173,0,0,0-6.778-17.634,1.74,1.74,0,1,1,3.149-1.441,168.559,168.559,0,0,1,6.927,18.011,1.74,1.74,0,0,1-1.661,2.275Zm-15.744-34.74a1.748,1.748,0,0,1-1.5-.85,166.947,166.947,0,0,0-10.635-15.626,1.741,1.741,0,0,1,2.763-2.118,168.349,168.349,0,0,1,10.864,15.949,1.748,1.748,0,0,1-.6,2.362,1.708,1.708,0,0,1-.866.283Z" transform="translate(-81.627 -18.919)" fill="#3b50a8"/>
    <path id="Trazado_143638" data-name="Trazado 143638" d="M400.473,208.5h0a12.6,12.6,0,0,1-17.854,0L351.43,177.314l17.854-17.854,31.189,31.189a12.6,12.6,0,0,1,0,17.854Z" transform="translate(-71.15 -31.572)" fill="#ffa08d"/>
    <path id="Trazado_143639" data-name="Trazado 143639" d="M391.075,213.472a14.3,14.3,0,0,1-10.155-4.2l-31.189-31.189a1.732,1.732,0,0,1,0-2.464l17.854-17.854a1.732,1.732,0,0,1,2.464,0l31.189,31.189a14.39,14.39,0,0,1,0,20.318h0A14.319,14.319,0,0,1,391.075,213.472Zm-37.652-36.621,29.961,29.914a10.882,10.882,0,0,0,15.39-15.39l-29.961-29.961ZM400,208.032Z" transform="translate(-70.679 -31.101)" fill="#3b50a8"/>
    <rect id="Rectángulo_37733" data-name="Rectángulo 37733" width="11.194" height="18.334" transform="translate(272.294 127.819) rotate(-45)" fill="#fff"/>
    <path id="Trazado_143640" data-name="Trazado 143640" d="M353.774,171.463a1.74,1.74,0,0,1-1.228-.512l-12.965-12.965a1.732,1.732,0,0,1,0-2.464l7.872-7.911a1.732,1.732,0,0,1,2.464,0l12.965,12.965a1.732,1.732,0,0,1,0,2.464l-7.872,7.911A1.748,1.748,0,0,1,353.774,171.463Zm-10.5-14.705,10.5,10.493,5.447-5.447-10.493-10.5Z" transform="translate(-68.519 -28.942)" fill="#3b50a8"/>
    <circle id="Elipse_4589" data-name="Elipse 4589" cx="62.245" cy="62.245" r="62.245" transform="translate(175.683 23.291)" fill="#ffa08d"/>
    <path id="Trazado_143641" data-name="Trazado 143641" d="M280.336,152.343A64,64,0,1,1,325.624,43.118h0a63.985,63.985,0,0,1-45.241,109.226Zm0-124.482a60.5,60.5,0,1,0,42.8,17.72h0a60.1,60.1,0,0,0-42.8-17.72Z" transform="translate(-42.408 -2.823)" fill="#3b50a8"/>
    <circle id="Elipse_4590" data-name="Elipse 4590" cx="48.146" cy="48.146" r="48.146" transform="translate(189.782 37.39)" fill="#fff"/>
    <path id="Trazado_143642" data-name="Trazado 143642" d="M284.145,142.035A49.878,49.878,0,1,1,319.42,56.9h0a49.878,49.878,0,0,1-35.275,85.137Zm0-96.252a19.22,19.22,0,1,1,0,.008Z" transform="translate(-46.218 -6.638)" fill="#3b50a8"/>
    <path id="Trazado_143643" data-name="Trazado 143643" d="M315.958,124.743h-49.2A1.74,1.74,0,0,1,265.01,123V73.763A1.74,1.74,0,0,1,266.758,72h49.2a1.74,1.74,0,0,1,1.74,1.74v49.2a1.74,1.74,0,0,1-1.74,1.8ZM268.5,121.256h45.713V75.511H268.5Z" transform="translate(-52.761 -12.962)" fill="#3b50a8"/>
    <path id="Trazado_143644" data-name="Trazado 143644" d="M304.6,113.524a1.724,1.724,0,0,1-1.236-.512L265.522,75.006a1.742,1.742,0,0,1,2.464-2.464l37.849,38.038a1.74,1.74,0,0,1-1.236,2.968Z" transform="translate(-52.761 -12.969)" fill="#3b50a8"/>
    <path id="Trazado_143645" data-name="Trazado 143645" d="M266.529,130.9a1.74,1.74,0,0,1-1.236-2.968l17.9-17.909a1.748,1.748,0,0,1,2.472,2.464l-17.925,17.893A1.708,1.708,0,0,1,266.529,130.9Z" transform="translate(-52.713 -20.956)" fill="#3b50a8"/>
    <path id="Trazado_143646" data-name="Trazado 143646" d="M303.272,93.966a1.748,1.748,0,0,1-1.228-2.976l18.468-18.468a1.742,1.742,0,0,1,2.464,2.464L304.508,93.454a1.748,1.748,0,0,1-1.236.512Z" transform="translate(-60.534 -12.964)" fill="#3b50a8"/>
    <path id="Trazado_143647" data-name="Trazado 143647" d="M106.972,327.181c-6.022,2.283-10.092,6.66-10.092,11.667,0,7.376,8.817,13.383,19.68,13.383s19.68-5.983,19.68-13.383c0-5.361-4.652-9.982-11.367-12.107Z" transform="translate(-16.985 -67.168)" fill="#ffa08d"/>
    <path id="Trazado_143648" data-name="Trazado 143648" d="M116.1,353.478c-11.808,0-21.428-6.778-21.428-15.107,0-5.573,4.3-10.667,11.218-13.3a1.743,1.743,0,1,1,1.236,3.259c-5.51,2.1-8.966,5.951-8.966,10.037,0,6.408,8.045,11.619,17.941,11.619s17.941-5.211,17.941-11.619c0-4.385-3.983-8.494-10.147-10.454a1.74,1.74,0,1,1,1.055-3.314c7.644,2.424,12.6,7.833,12.6,13.768C137.526,346.7,127.914,353.478,116.1,353.478Z" transform="translate(-16.515 -66.692)" fill="#3b50a8"/>
    <path id="Trazado_143649" data-name="Trazado 143649" d="M39.42,165.986c0,48.972,64.646,123.419,64.646,123.419s64.646-74.447,64.646-123.419a64.646,64.646,0,0,0-129.292,0Z" transform="translate(-4.758 -19.205)" fill="#ffa08d"/>
    <path id="Trazado_143650" data-name="Trazado 143650" d="M103.593,290.672a1.724,1.724,0,0,1-1.315-.6c-2.661-3.054-65.079-75.5-65.079-124.56a66.391,66.391,0,1,1,132.783,0c0,49.059-62.422,121.506-65.075,124.56A1.724,1.724,0,0,1,103.593,290.672Zm0-188.057a62.977,62.977,0,0,0-62.906,62.9c0,43.919,53.735,109.808,62.906,120.727,9.163-10.919,62.9-76.816,62.9-120.727a62.977,62.977,0,0,0-62.9-62.9Z" transform="translate(-4.286 -18.733)" fill="#3b50a8"/>
    <path id="Trazado_143651" data-name="Trazado 143651" d="M56.53,169.055a50.559,50.559,0,1,1,0,.008Z" transform="translate(-8.399 -22.857)" fill="#fff"/>
    <path id="Trazado_143652" data-name="Trazado 143652" d="M106.614,220.879a52.294,52.294,0,1,1,52.294-52.294A52.294,52.294,0,0,1,106.614,220.879Zm0-101.1a48.807,48.807,0,1,0,48.807,48.807,48.807,48.807,0,0,0-48.807-48.807Z" transform="translate(-7.929 -22.386)" fill="#3b50a8"/>
    <path id="Trazado_143653" data-name="Trazado 143653" d="M122.82,175.664l29.355-14.674V194.9L122.82,209.569V175.664Z" transform="translate(-22.505 -31.898)" fill="#91b3fa"/>
    <path id="Trazado_143654" data-name="Trazado 143654" d="M122.337,210.843a1.74,1.74,0,0,1-1.74-1.748V176.033a2.174,2.174,0,0,1,0-.4,1.748,1.748,0,0,1,.921-1.96l29.394-14.721a1.74,1.74,0,0,1,2.519,1.574V194.43a1.732,1.732,0,0,1-.96,1.574l-29.355,14.674a1.7,1.7,0,0,1-.779.165Zm1.716-34.574v30.009l25.868-12.934V163.335Z" transform="translate(-22.022 -31.425)" fill="#3b50a8"/>
    <path id="Trazado_143655" data-name="Trazado 143655" d="M113.6,209.681,85.53,195.645V161.96L113.6,176Z" transform="translate(-14.57 -32.104)" fill="#91b3fa"/>
    <path id="Trazado_143656" data-name="Trazado 143656" d="M113.124,210.954a1.748,1.748,0,0,1-.787-.189L84.28,196.737a1.732,1.732,0,0,1-.96-1.574V161.525a1.74,1.74,0,0,1,2.519-1.574L113.9,173.986a1.76,1.76,0,0,1-1.574,3.149L86.807,164.311V194.1l27.1,13.556a1.74,1.74,0,0,1-.787,3.3Z" transform="translate(-14.099 -31.638)" fill="#3b50a8"/>
    <path id="Trazado_143657" data-name="Trazado 143657" d="M144.387,158.086,115.3,146.86,86.22,158.086l28.812,14.571Z" transform="translate(-14.716 -28.891)" fill="#91b3fa"/>
    <path id="Trazado_143658" data-name="Trazado 143658" d="M114.569,173.943a1.756,1.756,0,0,1-.787-.189L84.97,159.183a1.74,1.74,0,0,1,.157-3.149l29.08-11.226a1.74,1.74,0,0,1,1.26,0l29.08,11.226a1.74,1.74,0,0,1,.15,3.188l-29.347,14.571a1.8,1.8,0,0,1-.779.15Zm-24.53-16.1,24.537,12.406L139.6,157.829l-24.766-9.565Z" transform="translate(-14.253 -28.43)" fill="#3b50a8"/>
    <rect id="Rectángulo_37734" data-name="Rectángulo 37734" width="160.859" height="110.422" rx="9.36" transform="translate(171.55 196.745)" fill="#fff"/>
    <path id="Trazado_143659" data-name="Trazado 143659" d="M366.33,358.629H220.208a9.116,9.116,0,0,1-9.108-9.108V253.828a9.116,9.116,0,0,1,9.108-9.108H366.33a9.124,9.124,0,0,1,9.116,9.108v95.693A9.124,9.124,0,0,1,366.33,358.629ZM220.208,248.207a5.621,5.621,0,0,0-5.621,5.621v95.693a5.629,5.629,0,0,0,5.621,5.621H366.33a5.636,5.636,0,0,0,5.629-5.621V253.828a5.629,5.629,0,0,0-5.629-5.621Z" transform="translate(-41.29 -49.715)" fill="#3b50a8"/>
    <path id="Trazado_143660" data-name="Trazado 143660" d="M371.987,367.939H212.53a1.74,1.74,0,1,1,0-3.479H372.019a1.74,1.74,0,0,1,0,3.479Z" transform="translate(-41.224 -75.194)" fill="#3b50a8"/>
    <path id="Trazado_143661" data-name="Trazado 143661" d="M340.97,409.126H326.407l-8.588-21.4H295.036l-8.588,21.4h-15a2.732,2.732,0,0,0-2.732,2.724v6.794h75.005v-6.817a2.724,2.724,0,0,0-2.755-2.7Z" transform="translate(-53.55 -80.146)" fill="#ffa08d"/>
    <path id="Trazado_143662" data-name="Trazado 143662" d="M343.255,419.945H268.25a1.74,1.74,0,0,1-1.74-1.748V411.38a4.471,4.471,0,0,1,4.471-4.464H284.8l8.155-20.31a1.748,1.748,0,0,1,1.574-1.086h22.766a1.748,1.748,0,0,1,1.614,1.086l8.155,20.31h13.383a4.464,4.464,0,0,1,4.471,4.464v6.794A1.74,1.74,0,0,1,343.255,419.945Zm-73.211-3.487h71.487V411.38a.984.984,0,0,0-.984-.984H325.937a1.748,1.748,0,0,1-1.614-1.086L316.167,389h-20.42l-8.155,20.31a1.748,1.748,0,0,1-1.614,1.086h-15a.984.984,0,0,0-.984.984Z" transform="translate(-53.08 -79.675)" fill="#3b50a8"/>
    <rect id="Rectángulo_37735" data-name="Rectángulo 37735" width="59.529" height="59.797" transform="translate(255.341 217.094)" fill="#57dbd8"/>
    <path id="Trazado_143663" data-name="Trazado 143663" d="M378.809,333.885H319.28a1.74,1.74,0,0,1-1.74-1.74V272.318a1.74,1.74,0,0,1,1.74-1.748h59.529a1.74,1.74,0,0,1,1.74,1.748v59.828A1.74,1.74,0,0,1,378.809,333.885Zm-57.758-3.527h56.042v-56.3H321.051Z" transform="translate(-63.939 -55.215)" fill="#3b50a8"/>
    <path id="Trazado_143664" data-name="Trazado 143664" d="M378.507,292.43a6.02,6.02,0,0,1-6.227-5.77V281.9a1.748,1.748,0,0,1,1.748-1.748h8.958a1.748,1.748,0,0,1,1.748,1.748v4.763A6.02,6.02,0,0,1,378.507,292.43Zm-2.74-8.793v3.023a2.787,2.787,0,0,0,5.51,0v-3.023Z" transform="translate(-75.587 -57.254)" fill="#3b50a8"/>
    <path id="Trazado_143665" data-name="Trazado 143665" d="M379.72,302.9a1.74,1.74,0,0,1-1.74-1.748V295.18a1.74,1.74,0,1,1,3.479,0v5.975a1.74,1.74,0,0,1-1.74,1.748Z" transform="translate(-76.8 -60.082)" fill="#3b50a8"/>
    <path id="Trazado_143666" data-name="Trazado 143666" d="M381.942,304.517h-5.983a1.748,1.748,0,0,1,0-3.487h5.983a1.748,1.748,0,0,1,0,3.487Z" transform="translate(-76.023 -61.697)" fill="#3b50a8"/>
    <path id="Trazado_143667" data-name="Trazado 143667" d="M360.739,300.44a1.74,1.74,0,0,1-1.74-1.748V283.736a1.748,1.748,0,1,1,3.487,0v14.957a1.74,1.74,0,0,1-1.747,1.748Z" transform="translate(-72.76 -57.62)" fill="#3b50a8"/>
    <path id="Trazado_143668" data-name="Trazado 143668" d="M355.052,288.979A1.748,1.748,0,0,1,353.824,286l4.833-4.841a1.756,1.756,0,0,1,1.228-.512h0a1.771,1.771,0,0,1,1.236.512L365.955,286a1.742,1.742,0,0,1-2.464,2.464l-3.605-3.605-3.6,3.605a1.747,1.747,0,0,1-1.236.512Z" transform="translate(-71.552 -57.36)" fill="#3b50a8"/>
    <path id="Trazado_143669" data-name="Trazado 143669" d="M256.792,296.561h-22.4a1.74,1.74,0,0,1-1.748-1.748v-22.4a1.74,1.74,0,0,1,1.748-1.74h22.4a1.748,1.748,0,0,1,0,3.487H236.127V293.05H255.02v-4.227a1.748,1.748,0,1,1,3.487,0v5.967a1.74,1.74,0,0,1-1.716,1.771Z" transform="translate(-45.873 -55.237)" fill="#3b50a8"/>
    <path id="Trazado_143670" data-name="Trazado 143670" d="M256.792,336.409h-22.4a1.74,1.74,0,0,1-1.748-1.748v-22.4a1.748,1.748,0,0,1,1.748-1.748h22.4a1.748,1.748,0,0,1,1.74,1.748v22.4a1.74,1.74,0,0,1-1.74,1.748Zm-20.664-3.472H255.02V314.045H236.127Z" transform="translate(-45.873 -63.714)" fill="#3b50a8"/>
    <path id="Trazado_143671" data-name="Trazado 143671" d="M249.122,291.823h0a1.772,1.772,0,0,1-1.236-.512l-4.944-4.952a1.742,1.742,0,1,1,2.464-2.464l3.716,3.716,14.43-14.43a1.742,1.742,0,0,1,2.464,2.464l-15.658,15.666A1.772,1.772,0,0,1,249.122,291.823Z" transform="translate(-47.957 -55.663)" fill="#3b50a8"/>
    <path id="Trazado_143672" data-name="Trazado 143672" d="M299.316,300.716H279.9a1.748,1.748,0,1,1,0-3.487h19.421a1.748,1.748,0,0,1,0,3.487Z" transform="translate(-55.532 -60.887)" fill="#3b50a8"/>
    <path id="Trazado_143673" data-name="Trazado 143673" d="M299.316,291.226H279.9a1.748,1.748,0,1,1,0-3.487h19.42a1.748,1.748,0,0,1,0,3.487Z" transform="translate(-55.532 -58.868)" fill="#3b50a8"/>
    <path id="Trazado_143674" data-name="Trazado 143674" d="M300.836,342.466H279.9a1.748,1.748,0,1,1,0-3.487h20.94a1.748,1.748,0,1,1,0,3.487Z" transform="translate(-55.532 -69.771)" fill="#3b50a8"/>
    <path id="Trazado_143675" data-name="Trazado 143675" d="M300.836,332.976H279.9a1.748,1.748,0,1,1,0-3.487h20.94a1.748,1.748,0,1,1,0,3.487Z" transform="translate(-55.532 -67.752)" fill="#3b50a8"/>
    <path id="Trazado_143676" data-name="Trazado 143676" d="M400.473,208.5h0a12.6,12.6,0,0,1-17.854,0L351.43,177.314l17.854-17.854,31.189,31.189a12.6,12.6,0,0,1,0,17.854Z" transform="translate(-71.15 -31.572)" fill="#ffa08d"/>
    <path id="Trazado_143677" data-name="Trazado 143677" d="M391.075,213.472a14.3,14.3,0,0,1-10.155-4.2l-31.189-31.189a1.732,1.732,0,0,1,0-2.464l17.854-17.854a1.732,1.732,0,0,1,2.464,0l31.189,31.189a14.39,14.39,0,0,1,0,20.318h0A14.319,14.319,0,0,1,391.075,213.472Zm-37.652-36.621,29.961,29.914a10.882,10.882,0,0,0,15.39-15.39l-29.961-29.961ZM400,208.032Z" transform="translate(-70.679 -31.101)" fill="#3b50a8"/>
    <rect id="Rectángulo_37736" data-name="Rectángulo 37736" width="11.194" height="18.334" transform="translate(272.294 127.819) rotate(-45)" fill="#fff"/>
    <path id="Trazado_143678" data-name="Trazado 143678" d="M353.774,171.463a1.74,1.74,0,0,1-1.228-.512l-12.965-12.965a1.732,1.732,0,0,1,0-2.464l7.872-7.911a1.732,1.732,0,0,1,2.464,0l12.965,12.965a1.732,1.732,0,0,1,0,2.464l-7.872,7.911A1.748,1.748,0,0,1,353.774,171.463Zm-10.5-14.705,10.5,10.493,5.447-5.447-10.493-10.5Z" transform="translate(-68.519 -28.942)" fill="#3b50a8"/>
    <circle id="Elipse_4591" data-name="Elipse 4591" cx="62.245" cy="62.245" r="62.245" transform="translate(175.683 23.291)" fill="#ffa08d"/>
    <path id="Trazado_143679" data-name="Trazado 143679" d="M280.336,152.343A64,64,0,1,1,325.624,43.118h0a63.985,63.985,0,0,1-45.241,109.226Zm0-124.482a60.5,60.5,0,1,0,42.8,17.72h0a60.1,60.1,0,0,0-42.8-17.72Z" transform="translate(-42.408 -2.823)" fill="#3b50a8"/>
    <circle id="Elipse_4592" data-name="Elipse 4592" cx="48.146" cy="48.146" r="48.146" transform="translate(189.782 37.39)" fill="#fff"/>
    <path id="Trazado_143680" data-name="Trazado 143680" d="M284.145,142.035A49.878,49.878,0,1,1,319.42,56.9h0a49.878,49.878,0,0,1-35.275,85.137Zm0-96.252a19.22,19.22,0,1,1,0,.008Z" transform="translate(-46.218 -6.638)" fill="#3b50a8"/>
    <path id="Trazado_143681" data-name="Trazado 143681" d="M315.958,124.743h-49.2A1.74,1.74,0,0,1,265.01,123V73.763A1.74,1.74,0,0,1,266.758,72h49.2a1.74,1.74,0,0,1,1.74,1.74v49.2a1.74,1.74,0,0,1-1.74,1.8ZM268.5,121.256h45.713V75.511H268.5Z" transform="translate(-52.761 -12.962)" fill="#3b50a8"/>
    <path id="Trazado_143682" data-name="Trazado 143682" d="M304.6,113.524a1.724,1.724,0,0,1-1.236-.512L265.522,75.006a1.742,1.742,0,0,1,2.464-2.464l37.849,38.038a1.74,1.74,0,0,1-1.236,2.968Z" transform="translate(-52.761 -12.969)" fill="#3b50a8"/>
    <path id="Trazado_143683" data-name="Trazado 143683" d="M266.529,130.9a1.74,1.74,0,0,1-1.236-2.968l17.9-17.909a1.748,1.748,0,0,1,2.472,2.464l-17.925,17.893A1.708,1.708,0,0,1,266.529,130.9Z" transform="translate(-52.713 -20.956)" fill="#3b50a8"/>
    <path id="Trazado_143684" data-name="Trazado 143684" d="M303.272,93.966a1.748,1.748,0,0,1-1.228-2.976l18.468-18.468a1.742,1.742,0,0,1,2.464,2.464L304.508,93.454a1.748,1.748,0,0,1-1.236.512Z" transform="translate(-60.534 -12.964)" fill="#3b50a8"/>
  </g>
</svg>
