<svg xmlns="http://www.w3.org/2000/svg" width="473" height="336" viewBox="0 0 473 336">
  <g id="img11" transform="translate(-908 -13293.34)">
    <rect id="Rectángulo_31205" data-name="Rectángulo 31205" width="473" height="336" rx="18" transform="translate(908 13293.34)" fill="#fff"/>
    <g id="ventajas-3-01" transform="translate(783.446 13176.637)">
      <path id="Trazado_140796" data-name="Trazado 140796" d="M258.7,660.734h-5.636V655.1a1.471,1.471,0,1,0-2.94,0v5.636h-5.636a1.471,1.471,0,0,0,0,2.94h5.636v5.636a1.471,1.471,0,1,0,2.94,0v-5.635H258.7a1.471,1.471,0,1,0,0-2.94Z" transform="translate(-90.765 -392.511)" fill="#c4d0fe"/>
      <path id="Trazado_140797" data-name="Trazado 140797" d="M207.073,754.429h-4.4v-4.4a1.148,1.148,0,1,0-2.3,0v4.4h-4.4a1.148,1.148,0,0,0,0,2.3h4.4v4.4a1.148,1.148,0,0,0,2.3,0v-4.4h4.4a1.148,1.148,0,0,0,0-2.3Z" transform="translate(-53.816 -465.498)" fill="#c4d0fe"/>
      <path id="Trazado_140799" data-name="Trazado 140799" d="M1126.155,361.54l8.952-10.634-6.778-8a34.727,34.727,0,0,0,2.5-6.793l10.273-1.747.021-13.9-10.212-1.752a35.923,35.923,0,0,0-2.5-6.9l6.661-7.809-8.926-10.695-8.849,5.167a35.678,35.678,0,0,0-6.441-3.748l.105-10.182-.4-.063-13.3-2.4-3.46,9.636a35.363,35.363,0,0,0-7.329,1.3l-6.558-7.936-11.969,6.938,3.588,9.671a35.776,35.776,0,0,0-4.724,5.671l-10.177-1.932-4.762,13.044,9.057,5.186a33.977,33.977,0,0,0-.026,7.238l-9.041,5.12,4.734,13.079,10.348-1.874a35.835,35.835,0,0,0,4.626,5.516l-3.651,9.838,12.03,6.973,3.441-4.134,3.279-3.965c1.11.321,2.255.579,3.4.789s2.424.363,3.63.468l3.513,9.922,13.7-2.38V359.811a35.776,35.776,0,0,0,6.188-3.565Zm-33.352-14.4a20.465,20.465,0,1,1,7.09-40.311,23,23,0,0,1,2.811.738,20.45,20.45,0,0,1-9.9,39.573Z" transform="translate(-710.106 -108.043)" fill="#c4d0fe"/>
      <path id="Trazado_140800" data-name="Trazado 140800" d="M673.513,486.835l11.318-15.649-10.184-10.4a50.279,50.279,0,0,0,2.747-9.671l14.054-3.41-1.405-19.31-14.288-1.429a51.065,51.065,0,0,0-4.179-9.353l8.451-11.505L666.565,392.2l-11.74,8.078a49.045,49.045,0,0,0-9.306-4.53l-1-14.086-.541-.047-18.7-1.963-3.8,13.7a50.263,50.263,0,0,0-10.039,2.555l-9.823-10.269-16,10.833,5.914,13.084a47.781,47.781,0,0,0-5.963,8.353l-14.225-1.588L566.07,434.9l13.082,6.282a49.331,49.331,0,0,0,.775,10.072l-12.035,8.041,7.891,17.663,14.117-3.584a50.56,50.56,0,0,0,7,7.177l-4.071,13.993,17.4,8.2,4.345-6.09,4.176-5.856a49.13,49.13,0,0,0,9.866,1l5.893,13.412,18.752-4.708-1.014-14.625a50.986,50.986,0,0,0,8.214-5.572ZM625.7,475.248a35.594,35.594,0,0,1-4.977-.925,33.6,33.6,0,0,1,11.906-65.949,32.31,32.31,0,0,1,4.685.883,33.6,33.6,0,0,1-11.622,65.991Z" transform="translate(-338.101 -182.752)" fill="#e3e9fe"/>
      <path id="Trazado_140801" data-name="Trazado 140801" d="M239.494,225.53l7.113-15.021-10.264-7.186a40.854,40.854,0,0,0,.808-8.624l11.383-5.137-4.216-16.115-12.351,1.061a43.2,43.2,0,0,0-5-7.261l5.354-11.06-13.585-9.671-8.685,8.695a42.79,42.79,0,0,0-8.57-2.373L198.434,141l-.468.03-16.124,1.3-1.052,12.194a43.009,43.009,0,0,0-8.09,3.748L162.691,151.1l-11.84,11.672,7.088,10.123a42.091,42.091,0,0,0-3.748,7.978l-12.285.911-1.555,16.572,12.046,3.237a41.565,41.565,0,0,0,2.16,8.383l-8.931,8.666,9.479,13.712,11.414-5.312a42.946,42.946,0,0,0,7.027,4.949l-1.255,12.482,16.061,4.45,2.724-5.832,2.6-5.584a41.745,41.745,0,0,0,4.186-.138,40.492,40.492,0,0,0,4.336-.564l7.085,10.409,15.133-6.91-3.279-12.21a42.849,42.849,0,0,0,6.1-6Zm-42.817-4.146a27.266,27.266,0,0,1-4.033,0,26.547,26.547,0,0,1-.276-52.889,27.819,27.819,0,0,1,3.776,0,26.547,26.547,0,0,1,.522,52.914Z" transform="translate(-12.096)" fill="#c4d0fe"/>
      <path id="Trazado_140802" data-name="Trazado 140802" d="M254.694,1120.86a49.518,49.518,0,0,0-99.034-.6Z" transform="translate(-23.82 -712.204)" fill="#2f3e97"/>
      <path id="Trazado_140803" data-name="Trazado 140803" d="M233.574,1268.433H128.7a4.05,4.05,0,1,1,0-8.1H233.574a4.05,4.05,0,1,1,0,8.1Z" transform="translate(0 -857.156)" fill="#7881b8"/>
      <path id="Trazado_140804" data-name="Trazado 140804" d="M641.262,287.49a57.724,57.724,0,0,0-9.343-8.217,50,50,0,0,0-10.18-5.657A34.052,34.052,0,0,0,609.03,271a28.541,28.541,0,0,0-7.338.953,43.119,43.119,0,0,0-13.117,5.968,43.9,43.9,0,0,0-12.85,13.419,34.721,34.721,0,0,0-3.3,6.989,20.21,20.21,0,0,0-1.145,6.263,11.458,11.458,0,0,0,.112,1.64l3.708-.534a8.026,8.026,0,0,1-.073-1.113,14.174,14.174,0,0,1,.4-3.193,27.691,27.691,0,0,1,2.853-7.027,39.964,39.964,0,0,1,24.36-18.79,24.769,24.769,0,0,1,6.387-.829,30.549,30.549,0,0,1,11.309,2.342,49.75,49.75,0,0,1,13.049,8.05c1.609,1.349,2.883,2.565,3.748,3.436.433.436.764.785.981,1.021l.234.267.056.066.014.014h0l.469-.41-.469.41h0l.469-.41-.469.41,2.829-2.459Z" transform="translate(-342.091 -99.55)" fill="#7881b8"/>
      <path id="Trazado_140805" data-name="Trazado 140805" d="M316.532,457.874a3.855,3.855,0,0,0-5.7,3.045c-1.323,14.955-6.387,55.442-24.154,90.025-22.252,43.349-14.8,56.112-16.768,65.174s32.335,25.062,47.112,5.167c10.662-14.356,17.117-86.763,19.888-125.984A39.533,39.533,0,0,0,316.532,457.874Z" transform="translate(-111.251 -242.289)" fill="#4d5bad"/>
      <path id="Trazado_140806" data-name="Trazado 140806" d="M290.667,959.688a31.032,31.032,0,0,0-17.314,8.107c-5.2,18.527-2.082,26.526-3.438,32.766-1.97,9.065,32.335,25.062,47.112,5.167,2.9-3.912,5.5-12.138,7.79-22.825A31.19,31.19,0,0,0,290.667,959.688Z" transform="translate(-111.251 -626.737)" fill="#2f3e97"/>
      <path id="Trazado_140807" data-name="Trazado 140807" d="M462.493,486.314h-.012a39.535,39.535,0,0,0-19.989-28.44,3.855,3.855,0,0,0-5.7,3.045c-.4,4.523-1.143,11.386-2.476,19.71a21.28,21.28,0,0,0,24.959,7.5c-.368,11.128-2.359,70.193-3.258,78.466C456.754,560.494,464.941,491.971,462.493,486.314Z" transform="translate(-237.211 -242.289)" fill="#2f3e97"/>
      <path id="Trazado_140808" data-name="Trazado 140808" d="M526.824,923.53l-.054.436C526.782,923.842,526.8,923.694,526.824,923.53Z" transform="translate(-308.006 -599.24)" fill="#2f3e97"/>
      <path id="Trazado_140809" data-name="Trazado 140809" d="M470.228,386.474a21.251,21.251,0,1,1-29.8,3.874A21.251,21.251,0,0,1,470.228,386.474Z" transform="translate(-238.506 -184.598)" fill="#4d5bad"/>
      <path id="Trazado_140810" data-name="Trazado 140810" d="M514.617,428.566a9.985,9.985,0,0,0-3.361-12.255l-2.108,4.656a5.019,5.019,0,0,1-3.839,8.524l-2.108,4.656A9.957,9.957,0,0,0,514.617,428.566Zm-6.753-13.784a9.957,9.957,0,0,0-8.034,17.836l2.108-4.659a5.017,5.017,0,0,1,3.818-8.521Z" transform="translate(-284.128 -209.444)" fill="#7881b8"/>
      <path id="Trazado_140811" data-name="Trazado 140811" d="M671.548,405.54s-37.305,8.826-59.351,3.926l-.857,24.4s21.8-1.319,61.035-15.693Z" transform="translate(-372.768 -202.578)" fill="#4d5bad"/>
      <path id="Trazado_140812" data-name="Trazado 140812" d="M619.5,455.718s23.053,1.576,54.774-9.458l.949,3.769s-30.564,11.212-48.073,13.475l-9.669,1.433Z" transform="translate(-377.469 -233.76)" fill="#2f3e97"/>
      <path id="Trazado_140813" data-name="Trazado 140813" d="M925.42,420.167a9.732,9.732,0,0,1,10.1,4.736c3.682,6.141,3.462,21.739,10.739,33.422s22.521,21.764,22.181,27.306c0,0-2.246,5.673,1.244,13.9,1.8,4.235-1.195,5.886-1.195,5.886A108,108,0,0,1,957.3,488.5c-10.252-19.492-22.68-47.747-34.4-55.114Z" transform="translate(-611.352 -213.672)" fill="#4d5bad"/>
      <path id="Trazado_140814" data-name="Trazado 140814" d="M898.376,475.13s-.508,13.07,15.693,36.071,19.258,23.109,19.258,23.109l5.753,9.962c6.242,9.238-1.092,2.986-2.977.853,0,0-11.711-11.9-19.523-22.39-11.693-15.693-20.65-30.965-24.39-44.035Z" transform="translate(-587.835 -255.868)" fill="#4d5bad"/>
      <path id="Trazado_140815" data-name="Trazado 140815" d="M1286.781,800.865a4.048,4.048,0,0,1-4.862,3.045c-2.221-.363-3.2-1.232-7.814-3.893l-6.385-3.179-9.165-.157-.384-6.622,11.529,1.372,7.69,4Z" transform="translate(-868.092 -497.032)" fill="#4d5bad"/>
      <path id="Trazado_140816" data-name="Trazado 140816" d="M1289.721,778.62a4.044,4.044,0,0,1-4.961,2.879c-2.207-.436-1.923-2.066-6.446-4.877l-6.207-2.541-10.461-.569-.166-6.631,12.782,1.874,7.416,3.776Z" transform="translate(-870.627 -479.282)" fill="#4d5bad"/>
      <path id="Trazado_140817" data-name="Trazado 140817" d="M1276.776,746.013s-1.623,3.645-6.137,1.689c-2.391-1.038-5.879-2.609-5.879-2.609l-9.5,3.748L1254,742.722l10.889-2.982Z" transform="translate(-864.899 -458.499)" fill="#4d5bad"/>
      <path id="Trazado_140818" data-name="Trazado 140818" d="M1150.618,863.135s1.127-4.394-4.216-6.523-6.02,1.23-8.355-1.935-.377-11.077-.377-11.077l-12.03,1.48a28.69,28.69,0,0,0,3.45,9.008,37.845,37.845,0,0,0,6.994,7.823S1148.187,862.615,1150.618,863.135Z" transform="translate(-766.604 -538.032)" fill="#4d5bad"/>
      <path id="Trazado_140819" data-name="Trazado 140819" d="M1158.216,744.032c-.56-1.436-5.532-2.555-12.463-1.64a39.936,39.936,0,0,0-8.174,1.965l-4.9-2.787L1125,765.154s.815,6.617,6.484,6.626,5.429-4.685,12.154-4.893,10.222,1.2,13.4-2.169S1163.488,757.6,1158.216,744.032Z" transform="translate(-766.114 -459.9)" fill="#2f3e97"/>
      <path id="Trazado_140820" data-name="Trazado 140820" d="M1124.279,734.261s-8.121-7.994-10.7-5.439.6,5.209,0,9.3-4.495,9.7-6.045,11.161c0,0-.469,5.415,3.879,5.375s7.348-9.074,7.629-14.485S1121.136,732.849,1124.279,734.261Z" transform="translate(-752.726 -449.752)" fill="#5765b5"/>
      <path id="Trazado_140821" data-name="Trazado 140821" d="M598.79,425.788l-3.214,20.469a4.25,4.25,0,0,1-8.4-1.319l3.214-20.469a4.25,4.25,0,1,1,8.4,1.319Z" transform="translate(-354.227 -214.323)" fill="#7881b8"/>
      <path id="Trazado_140822" data-name="Trazado 140822" d="M876.579,379.863a13.616,13.616,0,1,1-19.094,2.483,13.616,13.616,0,0,1,19.094-2.483Z" transform="translate(-559.093 -180.749)" fill="#7881b8"/>
      <path id="Trazado_140823" data-name="Trazado 140823" d="M866.692,360a9.02,9.02,0,1,0-15.309,8.369,12.65,12.65,0,0,1,2.042-3.982A12.367,12.367,0,0,1,866.692,360Z" transform="translate(-554.705 -162.568)" fill="#7881b8"/>
      <path id="Trazado_140824" data-name="Trazado 140824" d="M857.094,341.417a6.2,6.2,0,0,0-10.842-2.225,6.168,6.168,0,0,0,.436,7.917,8.606,8.606,0,0,1,1.391-2.7A8.409,8.409,0,0,1,857.094,341.417Z" transform="translate(-551.711 -149.979)" fill="#4d5bad"/>
      <path id="Trazado_140825" data-name="Trazado 140825" d="M469.6,407.178s5.516-17.333,21.28-10.838c0,0-7.292-5.516-14.581-1.38S469.6,407.178,469.6,407.178Z" transform="translate(-264.22 -193.299)" fill="#fff"/>
      <path id="Trazado_140826" data-name="Trazado 140826" d="M895.09,394.322s6.479-.2,9.718,5.265a13.724,13.724,0,0,1,1.405,10.73s4.45-5.265,2.227-11.339S898.938,392.3,895.09,394.322Z" transform="translate(-590.056 -193.189)" fill="#fff"/>
      <path id="Trazado_140827" data-name="Trazado 140827" d="M304.521,1002.248a31.19,31.19,0,1,1-34.872-27.011A31.19,31.19,0,0,1,304.521,1002.248Z" transform="translate(-90.233 -638.643)" fill="#4d5bad"/>
      <path id="Trazado_140828" data-name="Trazado 140828" d="M361.074,1069.533a14.653,14.653,0,0,0,9.275-16.178l-7.027,2.637a7.366,7.366,0,0,1-12.843,4.82l-7.027,2.637A14.611,14.611,0,0,0,361.074,1069.533Zm7.357-21.3a14.611,14.611,0,0,0-26.875,10.093l7.027-2.635a7.364,7.364,0,0,1,12.822-4.821Z" transform="translate(-166.01 -689.368)" fill="#7881b8"/>
      <path id="Trazado_140829" data-name="Trazado 140829" d="M338,1006.41s23.744-12.2,33.288,10.924c0,0-1.8-13.3-13.653-16.6S338,1006.41,338,1006.41Z" transform="translate(-163.451 -657.8)" fill="#fff"/>
      <path id="Trazado_140864" data-name="Trazado 140864" d="M1036.812,996.178H693.022a5.761,5.761,0,1,1,0-11.523h343.79a5.761,5.761,0,1,1,0,11.523Z" transform="translate(-489.329 -646.048)" fill="#4d5bad"/>
      <path id="Trazado_140865" data-name="Trazado 140865" d="M1827.359,641.322H1679.7c-3.87,0-7.027-4.043-7.027-8.983V513.375c0-4.942,3.167-8.985,7.027-8.985h147.662c3.869,0,7.027,4.043,7.027,8.985V632.327C1834.395,637.267,1831.228,641.322,1827.359,641.322Z" transform="translate(-1243.929 -278.274)" fill="#7d99ff"/>
      <path id="Trazado_140866" data-name="Trazado 140866" d="M1841.9,659.47H1705.036c-3.853,0-7.006-3.769-7.006-8.374V546.214c0-4.6,3.153-8.374,7.006-8.374H1841.9c3.855,0,7.008,3.769,7.008,8.374V651.1C1848.907,655.694,1845.755,659.47,1841.9,659.47Z" transform="translate(-1263.349 -303.889)" fill="#c2d3ff"/>
      <rect id="Rectángulo_36704" data-name="Rectángulo 36704" width="77.077" height="38.071" rx="19.036" transform="translate(502.115 246.477)" fill="#f7f9ff"/>
      <path id="Trazado_140867" data-name="Trazado 140867" d="M2016.67,622.39a1.64,1.64,0,0,1,1.64-1.64h59.4a1.64,1.64,0,1,1,0,3.279h-59.4A1.64,1.64,0,0,1,2016.67,622.39Z" transform="translate(-1507.355 -367.379)" fill="#ff5879"/>
      <path id="Trazado_140868" data-name="Trazado 140868" d="M2016.67,664.94a1.64,1.64,0,0,1,1.64-1.64h59.4a1.64,1.64,0,1,1,0,3.279h-59.4A1.64,1.64,0,0,1,2016.67,664.94Z" transform="translate(-1507.355 -399.963)" fill="#707fd1"/>
      <path id="Trazado_140869" data-name="Trazado 140869" d="M2016.67,706.27a1.64,1.64,0,0,1,1.64-1.64h59.4a1.64,1.64,0,1,1,0,3.279h-59.4A1.64,1.64,0,0,1,2016.67,706.27Z" transform="translate(-1507.355 -431.612)" fill="#4d5bad"/>
      <path id="Trazado_140870" data-name="Trazado 140870" d="M2084.247,634.812h-3.757l1.883-2.862Z" transform="translate(-1556.226 -375.956)" fill="#2f3e97"/>
      <path id="Trazado_140871" data-name="Trazado 140871" d="M2185.385,676.765h-3.755l1.881-2.865Z" transform="translate(-1633.676 -408.08)" fill="#2f3e97"/>
      <path id="Trazado_140872" data-name="Trazado 140872" d="M2048.407,717.775h-3.757l1.874-2.865Z" transform="translate(-1528.781 -439.485)" fill="#2f3e97"/>
      <path id="Trazado_140873" data-name="Trazado 140873" d="M2066.137,852.215v.469a3.937,3.937,0,0,1-1.424,2.972,5.255,5.255,0,0,1-3.436,1.232H1998.11a5.261,5.261,0,0,1-3.436-1.232,3.93,3.93,0,0,1-1.424-2.972v-.468a3.93,3.93,0,0,1,1.424-2.972A5.261,5.261,0,0,1,1998.11,848h63.164a5.256,5.256,0,0,1,3.436,1.232A3.937,3.937,0,0,1,2066.137,852.215Z" transform="translate(-1489.42 -541.4)" fill="#e0eaff"/>
      <path id="Trazado_140874" data-name="Trazado 140874" d="M2066.405,914.094v.365a3.942,3.942,0,0,1-1.424,2.972,5.266,5.266,0,0,1-3.436,1.23H1998.46a5.275,5.275,0,0,1-3.436-1.23,3.942,3.942,0,0,1-1.424-2.972v-.365a3.941,3.941,0,0,1,1.424-2.972,5.276,5.276,0,0,1,3.436-1.232H2061.5a5.556,5.556,0,0,1,1.874.309,5.012,5.012,0,0,1,1.595.909,4.212,4.212,0,0,1,1.063,1.368A3.7,3.7,0,0,1,2066.405,914.094Z" transform="translate(-1489.688 -588.794)" fill="#e0eaff"/>
      <path id="Trazado_140875" data-name="Trazado 140875" d="M2066.405,974.825v.419a3.947,3.947,0,0,1-1.424,2.975,5.266,5.266,0,0,1-3.436,1.23H1998.46a5.274,5.274,0,0,1-3.436-1.23,3.947,3.947,0,0,1-1.424-2.975v-.363a3.937,3.937,0,0,1,1.424-2.972,5.265,5.265,0,0,1,3.436-1.232H2061.5a5.277,5.277,0,0,1,3.443,1.2A3.945,3.945,0,0,1,2066.405,974.825Z" transform="translate(-1489.688 -635.344)" fill="#e0eaff"/>
      <path id="Trazado_140876" data-name="Trazado 140876" d="M1746.993,592.624a11.287,11.287,0,0,1,11.306-11.3V568.48a24.177,24.177,0,0,0-24.189,24.177h12.882Z" transform="translate(-1290.978 -327.352)" fill="#5d88fc"/>
      <path id="Trazado_140877" data-name="Trazado 140877" d="M1878.837,661.779a24.032,24.032,0,0,0,8.268-18.2,24.682,24.682,0,0,0-1.857-9.369l-11.494,6.074a11.224,11.224,0,0,1-2.495,10.976Z" transform="translate(-1396.004 -377.687)" fill="#707fd1"/>
      <path id="Trazado_140878" data-name="Trazado 140878" d="M1758.682,687.418a11.318,11.318,0,0,1-11.212-9.908l-12.85.775a24.2,24.2,0,0,0,15.883,20.584,25.256,25.256,0,0,0,6.324,1.363,18.842,18.842,0,0,0,1.888.061V687.411Z" transform="translate(-1291.368 -410.845)" fill="#4d5bad"/>
      <path id="Trazado_140879" data-name="Trazado 140879" d="M1848.112,711.62a11.333,11.333,0,0,1-5.722,1.761l.433,13.065c.649-.033,1.267-.063,1.918-.127a24.4,24.4,0,0,0,6.38-1.611,28.242,28.242,0,0,0,2.71-1.269c.7-.4,1.405-.8,2.08-1.267Z" transform="translate(-1373.896 -436.965)" fill="#9eb8fd"/>
      <path id="Trazado_140880" data-name="Trazado 140880" d="M1865.434,572.057A28.4,28.4,0,0,0,1846.2,558.31l-2.387,15.08a12.846,12.846,0,0,1,3.371,1.244,13.709,13.709,0,0,1,3.719,2.937,13.047,13.047,0,0,1,1.949,2.881Z" transform="translate(-1374.983 -319.565)" fill="#ff5475"/>
      <rect id="Rectángulo_36705" data-name="Rectángulo 36705" width="26.259" height="25.25" rx="12" transform="translate(374.509 313.281)" fill="#87a1fd"/>
      <path id="Trazado_140881" data-name="Trazado 140881" d="M1193.1,934.266l12.8-12.606,12.8,12.606a2.108,2.108,0,0,1-2.136,2.073h-21.315a2.108,2.108,0,0,1-2.153-2.073Z" transform="translate(-818.263 -597.808)" fill="#7794fd"/>
      <path id="Trazado_140882" data-name="Trazado 140882" d="M1191.7,879.17l13.117,10.571,13.117-10.571a2.7,2.7,0,0,0-2.747-2.642h-20.762A2.7,2.7,0,0,0,1191.7,879.17Z" transform="translate(-817.191 -563.247)" fill="#9db2fd"/>
      <path id="Trazado_140883" data-name="Trazado 140883" d="M1260.748,874.238a9.717,9.717,0,0,1-6.324-2.27c-2.314-1.907-1.581-4.3-.937-6.409.539-1.764,1.049-3.431.026-4.855a2.555,2.555,0,0,0-1.939-1.216c-1.766-.112-3.539,1.776-3.558,1.794l-.956,1.026.159-1.368a5.335,5.335,0,0,1,5.978-4.5,10.119,10.119,0,0,1,4.919,1.794c1.909,1.152,3.417,2.063,6.46.6a.468.468,0,0,1,.616.2.435.435,0,0,1-.206.593c-3.513,1.684-5.462.5-7.357-.644a9.134,9.134,0,0,0-4.476-1.658c-2.74-.148-4,1.206-4.563,2.321a5.008,5.008,0,0,1,3.045-1.031,3.457,3.457,0,0,1,2.637,1.593c1.272,1.768.675,3.72.1,5.608-.649,2.108-1.211,3.954.654,5.49a9.581,9.581,0,0,0,9.765,1.26.468.468,0,0,1,.6.234.433.433,0,0,1-.234.578A11.947,11.947,0,0,1,1260.748,874.238Z" transform="translate(-859.585 -547.854)" fill="#6586fd"/>
      <path id="Trazado_140884" data-name="Trazado 140884" d="M1234.7,889.13h0a.448.448,0,0,1-.454-.443l.15-24.943a4.679,4.679,0,0,1-3.059-.979,2.157,2.157,0,0,1-.6-1.874c.141-1.225.827-1.438,1.223-1.455,1.314-.052,3.1,2,3.345,3.179a.407.407,0,0,1,0,.2h.019l-.155,25.873a.45.45,0,0,1-.469.443Zm-2.682-28.81H1232c-.234,0-.318.37-.354.672a1.319,1.319,0,0,0,.349,1.157,3.852,3.852,0,0,0,2.433.714.384.384,0,0,1-.021-.073c-.2-.942-1.677-2.469-2.387-2.469Z" transform="translate(-847.061 -550.159)" fill="#6586fd"/>
      <rect id="Rectángulo_36706" data-name="Rectángulo 36706" width="26.259" height="25.25" rx="12" transform="translate(301.249 313.281)" fill="#87a1fd"/>
      <path id="Trazado_140885" data-name="Trazado 140885" d="M880.33,934.266l12.805-12.606,12.8,12.606a2.094,2.094,0,0,1-2.134,2.073H882.49a2.108,2.108,0,0,1-2.16-2.073Z" transform="translate(-578.753 -597.808)" fill="#7794fd"/>
      <path id="Trazado_140886" data-name="Trazado 140886" d="M878.93,879.17l13.133,10.571L905.18,879.17a2.7,2.7,0,0,0-2.75-2.642H881.677a2.7,2.7,0,0,0-2.747,2.642Z" transform="translate(-577.681 -563.247)" fill="#9db2fd"/>
      <path id="Trazado_140887" data-name="Trazado 140887" d="M947.978,874.238a9.717,9.717,0,0,1-6.324-2.27c-2.314-1.907-1.581-4.3-.937-6.409.539-1.764,1.049-3.431.026-4.855a2.551,2.551,0,0,0-1.939-1.216c-1.766-.112-3.539,1.776-3.558,1.794l-.956,1.026.159-1.368a5.335,5.335,0,0,1,5.978-4.5,10.118,10.118,0,0,1,4.919,1.794c1.907,1.152,3.415,2.063,6.458.6a.469.469,0,0,1,.616.2.436.436,0,0,1-.206.593c-3.513,1.684-5.462.5-7.357-.644a9.134,9.134,0,0,0-4.476-1.658c-2.74-.148-4,1.206-4.563,2.321a5.014,5.014,0,0,1,3.045-1.031A3.457,3.457,0,0,1,941.5,860.2c1.272,1.768.675,3.72.1,5.608-.649,2.108-1.211,3.954.653,5.49a9.581,9.581,0,0,0,9.765,1.26.468.468,0,0,1,.6.234.433.433,0,0,1-.234.578A11.945,11.945,0,0,1,947.978,874.238Z" transform="translate(-620.074 -547.854)" fill="#6586fd"/>
      <path id="Trazado_140888" data-name="Trazado 140888" d="M921.949,889.13h0a.447.447,0,0,1-.454-.443l.15-24.943a4.679,4.679,0,0,1-3.059-.979,2.157,2.157,0,0,1-.6-1.874c.141-1.225.827-1.438,1.225-1.455,1.312-.052,3.1,2,3.343,3.179a.41.41,0,0,1,0,.2h.019l-.155,25.873a.45.45,0,0,1-.469.443Zm-2.682-28.81h-.021c-.234,0-.318.37-.354.672a1.319,1.319,0,0,0,.349,1.157,3.857,3.857,0,0,0,2.434.714.367.367,0,0,1-.021-.073c-.2-.942-1.682-2.469-2.391-2.469Z" transform="translate(-607.566 -550.159)" fill="#6586fd"/>
      <path id="Trazado_140889" data-name="Trazado 140889" d="M1265.735,824.351l-9.453-4.481a17.178,17.178,0,0,1-2.2,3.837,6.753,6.753,0,0,1-3.155,2.518l9.617,2.181,1.951,6.245c-.365,1.7-2.93,4.326-2.918,5.563.047,4.059,1.85,4,1.85,4l7.226-9.706Z" transform="translate(-862.548 -519.86)" fill="#4d5bad"/>
      <path id="Trazado_140894" data-name="Trazado 140894" d="M1105.84,1255.316l1.429,9.156h6.87V1251.88Z" transform="translate(-751.442 -850.682)" fill="#ffafa1"/>
      <path id="Trazado_140895" data-name="Trazado 140895" d="M1000.879,1270.21v8.584l-6.294.574-1.145-8.3Z" transform="translate(-665.369 -864.718)" fill="#ffafa1"/>
      <path id="Trazado_140896" data-name="Trazado 140896" d="M1020.892,983.827s7.451,23.809,6.591,31.536-4.005,33.192-4.005,33.192l-10.018,4.579a5.935,5.935,0,0,1,0-4.291c.86-2.574-2.577-20.031.286-27.187l2-5.436-4.577-16.6s-2.291,13.449-4.008,17.169-9.444,29.189-10.587,32.052l-.574,2-8.87,2.288s-.572-2.288.571-3.719,2.291-22.32,4.579-27.185a45.585,45.585,0,0,0,3.148-8.873l2-31.478Z" transform="translate(-660.43 -643.923)" fill="#ff5475"/>
      <path id="Trazado_140897" data-name="Trazado 140897" d="M990.312,1320.61l-.052,1.731h18.15v-1.462Z" transform="translate(-662.934 -903.313)" fill="#fff"/>
      <path id="Trazado_140898" data-name="Trazado 140898" d="M991.409,1284.916l-1.1,7.425h13.475l-5.226-8.526s-3.026-2.2-4.685,1.925C993.873,1285.752,991.673,1282.99,991.409,1284.916Z" transform="translate(-662.973 -874.688)" fill="#5478ff"/>
      <path id="Trazado_140899" data-name="Trazado 140899" d="M1029,1312.938s1.925-3.3,5.5-2.75,3.577,2.75,3.577,2.75Z" transform="translate(-692.6 -895.284)" fill="#5478ff"/>
      <path id="Trazado_140900" data-name="Trazado 140900" d="M1016.494,1296.938h3.851a.234.234,0,0,0,0-.469h-3.851a.234.234,0,0,0,0,.469Z" transform="translate(-682.844 -884.827)" fill="#fff"/>
      <path id="Trazado_140901" data-name="Trazado 140901" d="M1018.844,1301.658h3.851a.234.234,0,0,0,0-.469h-3.851a.234.234,0,1,0,0,.469Z" transform="translate(-684.644 -888.442)" fill="#fff"/>
      <path id="Trazado_140902" data-name="Trazado 140902" d="M1022.364,1306.338h3.851a.234.234,0,1,0,0-.468h-3.851a.234.234,0,0,0,0,.468Z" transform="translate(-687.339 -892.026)" fill="#fff"/>
      <path id="Trazado_140903" data-name="Trazado 140903" d="M1107.64,1320.655v1.319h21.427v-1.583Z" transform="translate(-752.821 -903.145)" fill="#fff"/>
      <path id="Trazado_140904" data-name="Trazado 140904" d="M1107.551,1287.578s-.492-8.174,2.71-8.7,3.694,1.846,3.694,1.846-.492-1.054.738-2.635c1.429-1.836,2.464-.265,2.464-.265a3.57,3.57,0,0,0,.984,5.01c2.954,2.11,6.158,1.581,7.636,1.581a3.239,3.239,0,0,1,3.2,2.9v.265Z" transform="translate(-752.732 -870.068)" fill="#5478ff"/>
      <path id="Trazado_140905" data-name="Trazado 140905" d="M1141.544,1297.208l2.71.066a.234.234,0,0,0,0-.468l-2.71-.066a.234.234,0,1,0,0,.469Z" transform="translate(-778.604 -885.034)" fill="#fff"/>
      <path id="Trazado_140906" data-name="Trazado 140906" d="M1145.762,1301.839l2.71.066a.234.234,0,0,0,0-.468l-2.708-.066a.234.234,0,1,0,0,.468Z" transform="translate(-781.836 -888.58)" fill="#fff"/>
      <path id="Trazado_140907" data-name="Trazado 140907" d="M1152.045,1306.216l2.708.068a.234.234,0,1,0,0-.468l-2.708-.066a.234.234,0,0,0-.012.469Z" transform="translate(-786.641 -891.933)" fill="#fff"/>
      <path id="Trazado_140908" data-name="Trazado 140908" d="M1094.9,1100.2c.6-1.6-1.405-16.782-1.2-21.978a29.622,29.622,0,0,1,3-10.592c-.8-3.795-3.6-18.581-3.6-18.581l-2.4,2-.023.391,4.474,16.218-2,5.437c-2.862,7.156.571,24.61-.286,27.187a5.948,5.948,0,0,0,0,4.291l2.342-1.073h0A4.485,4.485,0,0,1,1094.9,1100.2Z" transform="translate(-739.833 -695.36)" fill="#d1385c"/>
      <path id="Trazado_140909" data-name="Trazado 140909" d="M1104.9,794.964l-.337-.07a3.068,3.068,0,0,1-2.385-3.612l1.04-5.087a3.071,3.071,0,0,1,3.614-2.394l.337.07a3.073,3.073,0,0,1,2.387,3.612l-1.042,5.087A3.071,3.071,0,0,1,1104.9,794.964Z" transform="translate(-748.592 -492.192)" fill="#ffbdb3"/>
      <path id="Trazado_140910" data-name="Trazado 140910" d="M1121.42,806.47l1.52,4.738,1.1-4.115,1.555-.059Z" transform="translate(-763.373 -509.599)" fill="#e07972"/>
      <path id="Trazado_140911" data-name="Trazado 140911" d="M1040.117,820.17s-6.43,6.123-7.964,18.368-5.511,20.511-4.9,22.655,4.544,10.648,19.851,2.382,6.479-38.2,6.479-38.2Z" transform="translate(-691.214 -520.09)" fill="#34a7b0"/>
      <path id="Trazado_140912" data-name="Trazado 140912" d="M1082.38,808.155l1.225-3.675,11.634,3.675-.483,4.781Z" transform="translate(-733.477 -508.075)" fill="#34a7b0"/>
      <path id="Trazado_140913" data-name="Trazado 140913" d="M1208.679,941.208a27.941,27.941,0,0,0,3.823.857,33.634,33.634,0,0,0,3.612.405c.108-.34-.675-1.091-2.607-1.206l3.148-.492s1.895-.6,1.45-1.031a2.289,2.289,0,0,0-1.7-.541l-1.127.014-3.279-.3,3.045-.152,1.914-.138c.895-.468.658-.721-.8-1-.546-.108-3.291.059-3.72-.066a10.285,10.285,0,0,0-3.949-.513l1.483-.684a6.435,6.435,0,0,0,2.427-.677c1.01-1.066.19-1.267-.1-1.281-3.183-.157-2.188-.124-5.549.813-.485.136-3.139-.382-4.436,1.729l.752,3.766A12.61,12.61,0,0,1,1208.679,941.208Z" transform="translate(-825.324 -607.514)" fill="#ffbdb3"/>
      <path id="Trazado_140914" data-name="Trazado 140914" d="M1193.48,942.217l3.064-1.047v4.771l-3.064.562Z" transform="translate(-818.554 -612.748)" fill="#5665c2"/>
      <path id="Trazado_140915" data-name="Trazado 140915" d="M1112.8,843.3s-4.284-4.9-7.964,1.836-2.448,27.555,0,28.473,13.777.918,20.207-2.754c0,0,.918-5.511-.614-5.511s-10.409-.611-10.409-.611Z" transform="translate(-748.894 -536.483)" fill="#69d1d0"/>
      <path id="Trazado_140916" data-name="Trazado 140916" d="M1091.936,747.691s3.368,2.45,8.573,0c0,0,2.143-7.348-3.982-14.991s-16.225,5.2-11.021,9.491S1091.936,747.691,1091.936,747.691Z" transform="translate(-734.767 -451.286)" fill="#ffbdb3"/>
      <path id="Trazado_140917" data-name="Trazado 140917" d="M1091.727,735.543s.918,7.348-2.757,8.877l-1.532.614s0-2.143-.916-3.061-3.982-2.757-3.982-5.511-1.225-4.9.918-6.43,4.286-3.982,5.509-3.982,4.9,0,5.818,1.53,3.061,0,3.061,0,.611,2.143-2.143,3.061-3.368.614-3.368.614a2.274,2.274,0,0,0,2.45.307s-.614,1.836-3.675,1.836Z" transform="translate(-733.333 -448.015)" fill="#511f1f"/>
      <path id="Trazado_140918" data-name="Trazado 140918" d="M1118.092,771.406s-1.532-.611-1.839.921,1.607,2.907,2.947,2.677Z" transform="translate(-759.391 -482.656)" fill="#ffbdb3"/>
      <path id="Trazado_140919" data-name="Trazado 140919" d="M1066.91,771.856l-6.472,5.591a.468.468,0,0,1-.646-.047l-.031-.033a.468.468,0,0,1,.049-.646l6.483-5.593a.468.468,0,0,1,.646.047l.028.035A.468.468,0,0,1,1066.91,771.856Z" transform="translate(-716.075 -482.452)" fill="#2f3e97"/>
      <path id="Trazado_140920" data-name="Trazado 140920" d="M1088.867,722.718s-4.9-7.041-11.946-.918c-6.535,5.682.164,11.112.164,11.112Z" transform="translate(-727.105 -442.845)" fill="#ff5475"/>
      <path id="Trazado_140921" data-name="Trazado 140921" d="M1124.055,724.253a9.077,9.077,0,0,0-1.874-1.363,4.572,4.572,0,0,0-.7,2.886A4.951,4.951,0,0,0,1124.055,724.253Z" transform="translate(-763.389 -445.595)" fill="#511f1f"/>
      <path id="Trazado_140922" data-name="Trazado 140922" d="M1128.93,753.918a3.578,3.578,0,0,1,1.244-2.363c1.171-.967,2.314-1.469,2.422-1.745a1.1,1.1,0,0,1,.012,1.588C1131.818,752.2,1130.118,752.485,1128.93,753.918Z" transform="translate(-769.124 -466.21)" fill="#5e1212"/>
      <path id="Trazado_140923" data-name="Trazado 140923" d="M1136.89,761.615a2.811,2.811,0,0,1,1.11-1.623c1.061-.7,1.48.262,1.48.262S1138.572,759.739,1136.89,761.615Z" transform="translate(-775.219 -473.811)" fill="#5e1212"/>
      <path id="Trazado_140924" data-name="Trazado 140924" d="M1144.038,761.686a.52.52,0,1,1-.287-.277A.523.523,0,0,1,1144.038,761.686Z" transform="translate(-779.927 -475.064)" fill="#5e1212"/>
      <path id="Trazado_140925" data-name="Trazado 140925" d="M1142.05,788.791a1.446,1.446,0,0,0,1.731.836c.377-.054,1.23-.312,1.171-.967Z" transform="translate(-779.171 -495.96)" fill="#fff"/>
      <path id="Trazado_140926" data-name="Trazado 140926" d="M1810.3,875.669h0a3.7,3.7,0,0,1-3.691-3.694V867.23a3.694,3.694,0,1,1,7.385,0v4.745A3.705,3.705,0,0,1,1810.3,875.669Z" transform="translate(-1346.493 -553.227)" fill="#ffbdb3"/>
      <path id="Trazado_140927" data-name="Trazado 140927" d="M1803.973,807.34s3.537,6.612,1.874,12.377-8.573,4.877-10.475,1.672a60.4,60.4,0,0,1-3.862-9.081Z" transform="translate(-1334.933 -510.265)" fill="#ffbdb3"/>
      <path id="Trazado_140928" data-name="Trazado 140928" d="M1828.507,810.908s4.331-.7,4.293-2.384l-1.192-3.1s-2.625,5.249-3.579,5.488S1828.507,810.908,1828.507,810.908Z" transform="translate(-1362.648 -508.795)" fill="#e07972"/>
      <path id="Trazado_140929" data-name="Trazado 140929" d="M1811.954,849.22s1.192,4.863-.234,6.2-2.406,1.848-5.01,1.431v-1.67Z" transform="translate(-1346.573 -542.335)" fill="#e07972"/>
      <path id="Trazado_140930" data-name="Trazado 140930" d="M1787.342,771.62s3.794,2.277,3.542,6.577-6.575,6.828-6.575,6.828-6.83,3.045-6.071-2.277a12.409,12.409,0,0,1,5.059-8.093s-2.024,2.53-1.771,3.542a21.465,21.465,0,0,1,3.279-3.045A7.915,7.915,0,0,0,1787.342,771.62Z" transform="translate(-1324.725 -482.912)" fill="#491212"/>
      <path id="Trazado_140931" data-name="Trazado 140931" d="M1773.44,813.457a5.518,5.518,0,0,1-2.277-4.047s-1.405,5,2.576,5.153Z" transform="translate(-1319.168 -511.85)" fill="#491212"/>
      <path id="Trazado_140932" data-name="Trazado 140932" d="M1780.05,815.708s-2.53,4.047,1.265,6.83a8.746,8.746,0,0,1,3.811,6.481s2.258,1.359,4.788-.918-.759-12.14-2.783-13.152S1781.82,813.178,1780.05,815.708Z" transform="translate(-1325.525 -515.365)" fill="#491212"/>
      <path id="Trazado_140933" data-name="Trazado 140933" d="M1813.04,796.835l3.045,2.783,1.012-.506-1.518-3.794s4.654-3.513,4.247-5.963a7.956,7.956,0,0,0-2.626-4.293s-.356,2.67-1.874,3.682-4.31.754-4.563,3.8A4.464,4.464,0,0,0,1813.04,796.835Z" transform="translate(-1349.664 -493.204)" fill="#491212"/>
      <path id="Trazado_140934" data-name="Trazado 140934" d="M1778.162,829a3.455,3.455,0,0,0,.3,4.511s-.759-2.024.506-3.279A11.819,11.819,0,0,1,1778.162,829Z" transform="translate(-1324.185 -526.852)" fill="#491212"/>
      <path id="Trazado_140935" data-name="Trazado 140935" d="M1824.869,839.339s-1.677-3.513-3.045-1.874,1.928,4.4,3.907,3.785Z" transform="translate(-1357.899 -533)" fill="#ffbdb3"/>
      <path id="Trazado_140936" data-name="Trazado 140936" d="M1847.073,824.94a4.508,4.508,0,0,0-1.293,2.326l1.551-1.551Z" transform="translate(-1376.492 -523.743)" fill="#491212"/>
      <path id="Trazado_140937" data-name="Trazado 140937" d="M1801.176,896.679s-1.387-2.181-5.153-2.38-6.357,1.227-7.045,2.7,6.448,11.976,6.448,11.976S1801.771,898.665,1801.176,896.679Z" transform="translate(-1332.958 -576.841)" fill="#ffbdb3"/>
      <path id="Trazado_140938" data-name="Trazado 140938" d="M1748.984,901.28s-6.966.061-9.238,6.193c-1.759,4.75-4.471,17.949-5.605,23.657a3.338,3.338,0,0,0,2.366,3.86,18.564,18.564,0,0,0,7.43.529c6.261-.789,8.76-1.244,8.76-1.244v-5l-9.542-1.818Z" transform="translate(-1290.952 -582.202)" fill="#f7f9ff"/>
      <path id="Trazado_140939" data-name="Trazado 140939" d="M1745.613,988.195a12.549,12.549,0,0,1-8.318-1.64,3.961,3.961,0,0,1-1.64-3.335c.068-2.576.937-7.729,1.354-12.85-1.171,5.05-2.281,10.514-2.909,13.681a3.338,3.338,0,0,0,2.366,3.86,18.563,18.563,0,0,0,7.43.529c2.024-.255,3.654-.468,4.935-.658C1747.89,987.9,1746.817,988.042,1745.613,988.195Z" transform="translate(-1290.922 -635.109)" fill="#e0e9ff"/>
      <path id="Trazado_140940" data-name="Trazado 140940" d="M1764.546,1076.938s-.035,13.182.258,23.423c.091,3.188.293,14.346.293,14.346-.878,10.833.677,28.559.878,32.792v3.806h6.172l3.67-36.5,2.174-22.352,1.171-.293s3.22,16.1,6.734,21.959c0,0-3.492,11.079-3.785,36.553l5.542.293,8.5-36.992-5.856-37.333Z" transform="translate(-1314.284 -716.488)" fill="#4d5bad"/>
      <path id="Trazado_140941" data-name="Trazado 140941" d="M1764.55,1081.552s1.143,2.288,10.871,0a74.681,74.681,0,0,0,14.876-4.863H1764.55Z" transform="translate(-1314.288 -716.526)" fill="#2f3e97"/>
      <path id="Trazado_140942" data-name="Trazado 140942" d="M1846.05,887.233s1-.775,7.545-.7c3.982.042,9.58-1.623,11.561-2.342a8.525,8.525,0,0,1,1.3-.34c2.293-.431,5.7-.349,6.34,1.537.785,2.291-.937,5.645-4.141,6.61a61.606,61.606,0,0,0-17.878,8.51Z" transform="translate(-1376.698 -568.689)" fill="#f7f9ff"/>
      <path id="Trazado_140943" data-name="Trazado 140943" d="M1775.678,926.483c.534-7.964,1.143-18.258,1.143-18.258l-7.343-10.435-4.919.518a24.842,24.842,0,0,1-4.394,0l-3.085-.094s-5.57,2.459-7,4.748.136,17.85.136,17.85-.08,3.567-.037,7.439l-4.717,42.433s12.63,10.634,36.113-1.33Z" transform="translate(-1299.669 -579.529)" fill="#f7f9ff"/>
      <path id="Trazado_140944" data-name="Trazado 140944" d="M1755.131,979.057l-1.473-51.764s-3.253-19.816,1.476-23.643c-1.752.925-4.176,2.389-5.052,3.79a1.861,1.861,0,0,0-.143.3l-.454,5.6c.059,5.254.733,11.946.733,11.946s-.08,3.567-.038,7.439l-4.72,42.447S1748.765,977.938,1755.131,979.057Z" transform="translate(-1299.669 -584.017)" fill="#e0e9ff"/>
      <path id="Trazado_140945" data-name="Trazado 140945" d="M1775.418,1396.735s-2.478-5.214-2.628-8.8l-6.465.258s-1.64,6.811-1.293,8.275C1765.422,1398.089,1776.173,1397.149,1775.418,1396.735Z" transform="translate(-1314.621 -954.865)" fill="#5478ff"/>
      <path id="Trazado_140946" data-name="Trazado 140946" d="M1765.72,1410.953h0a5.151,5.151,0,0,1,.731-1.829,4.037,4.037,0,0,1,1.171-1.2,4.129,4.129,0,0,1,2.01-.642h.258a3.355,3.355,0,0,1,2.026.682,6.457,6.457,0,0,1,1.834,2.373,10.245,10.245,0,0,1,.422,1.021c.044.129.077.234.1.307a.235.235,0,0,0,.023.08v.021h0l.452-.117a9.651,9.651,0,0,0-1.068-2.4,6.047,6.047,0,0,0-1.495-1.668,3.81,3.81,0,0,0-2.3-.773h-.291a4.616,4.616,0,0,0-2.288.754,4.848,4.848,0,0,0-1.693,2.108,5.228,5.228,0,0,0-.37,1.22l.469.066Z" transform="translate(-1314.816 -969.323)" fill="#91b6ff"/>
      <path id="Trazado_140947" data-name="Trazado 140947" d="M1774.934,1422.176a3.616,3.616,0,0,1,0,1.347c-.148.6-6.842,1.944-10.582,0l-.052-2.192S1769.851,1423.829,1774.934,1422.176Z" transform="translate(-1255.673 -980.442)" fill="#fff"/>
      <path id="Trazado_140948" data-name="Trazado 140948" d="M1834.451,1385.89c-2.244,11.072-1.225,9.549-1.225,9.549H1844.9l.6-3.141c-4.488-2.544-4.907-6.141-4.907-6.141Z" transform="translate(-1366.701 -953.303)" fill="#5478ff"/>
      <path id="Trazado_140949" data-name="Trazado 140949" d="M1866.491,1393.4h0a4.258,4.258,0,0,1-2.054-.937c-1.087-.855-2.342-2.476-3-5.6l-.469.1c.682,3.26,2.029,5,3.225,5.917a4.654,4.654,0,0,0,2.251,1l.035-.468Z" transform="translate(-1388.124 -954.045)" fill="#91b6ff"/>
      <path id="Trazado_140950" data-name="Trazado 140950" d="M1888.749,1416.46a4.156,4.156,0,0,0-3.279-2.994c-2.682-.45-2.844-.3-2.844-.3l-.766,3.141Z" transform="translate(-1404.121 -974.173)" fill="#fff"/>
      <path id="Trazado_140951" data-name="Trazado 140951" d="M1839.269,1414.145v-.019a4.962,4.962,0,0,0-.595-2.249,3.921,3.921,0,0,0-1.361-1.445,5.067,5.067,0,0,0-2.577-.7l-.016.469a4.584,4.584,0,0,1,2.342.639,3.617,3.617,0,0,1,1.5,1.965,4.5,4.5,0,0,1,.234,1.33v.019Z" transform="translate(-1368.022 -971.559)" fill="#91b6ff"/>
      <path id="Trazado_140952" data-name="Trazado 140952" d="M1831.965,1428h17.656a.675.675,0,0,0,0-1.347h-17.656a.675.675,0,1,0,0,1.347Z" transform="translate(-1306.941 -984.519)" fill="#fff"/>
      <path id="Trazado_140953" data-name="Trazado 140953" d="M1871.684,1406.289h1.494a.234.234,0,1,0,0-.469h-1.494a.234.234,0,1,0,0,.469Z" transform="translate(-1396.149 -968.565)" fill="#fff"/>
      <path id="Trazado_140954" data-name="Trazado 140954" d="M1868.484,1401.808h1.5a.234.234,0,1,0,0-.468h-1.5a.234.234,0,1,0,0,.468Z" transform="translate(-1393.699 -965.134)" fill="#fff"/>
      <path id="Trazado_140955" data-name="Trazado 140955" d="M1864.154,1396.749h1.5a.234.234,0,0,0,0-.469h-1.5a.234.234,0,0,0,0,.469Z" transform="translate(-1390.383 -961.259)" fill="#fff"/>
      <path id="Trazado_140956" data-name="Trazado 140956" d="M2006.25,774.625a10.127,10.127,0,0,0-1.811,1.553s-1.405,2.366-3.42,2.591a5.387,5.387,0,0,1-3.364-.672s-.9-1.122,0-3.366a13.894,13.894,0,0,1,2.916-4.261c.9-1.122,3.588-3.588,3.588-3.588l3.364-2.242a1.434,1.434,0,0,1,0,1.794,7.1,7.1,0,0,1-2.466,2.017l-1.347,2.244s5.125-3.31,6.418-3.045c0,0,.518,1.033-1.811,2.326l2.068-.258s.26,1.293-2.576,2.326l-2.326,1.035,2.576-.518,2.068.258s.258,1.035-1.551,1.293A9.31,9.31,0,0,0,2006.25,774.625Z" transform="translate(-1492.489 -477.566)" fill="#ffbdb3"/>
      <path id="Trazado_140957" data-name="Trazado 140957" d="M1933.742,836.838l-5.172-6.725L1944.6,812.79l5.169,2.586Z" transform="translate(-1439.89 -514.438)" fill="#f7f9ff"/>
      <path id="Trazado_140958" data-name="Trazado 140958" d="M1866.73,939.153l-3.5-8.3s9.5-4.436,14.22-5.209l-10.444,5.652Z" transform="translate(-1389.855 -600.856)" fill="#e0e9ff"/>
      <path id="Trazado_140959" data-name="Trazado 140959" d="M1850.239,852s-1.239.7-1.239,1.171.909.6.909.6A5.174,5.174,0,0,0,1850.239,852Z" transform="translate(-1378.958 -544.464)" fill="#e07972"/>
      <path id="Trazado_140960" data-name="Trazado 140960" d="M1849.36,852.945a1.171,1.171,0,0,0,1.047.082,3.471,3.471,0,0,0,.108-1.016A4.182,4.182,0,0,0,1849.36,852.945Z" transform="translate(-1379.233 -544.472)" fill="#fff"/>
      <path id="Trazado_140961" data-name="Trazado 140961" d="M2212.225,870.419h0a2.911,2.911,0,0,0,2.537-3.221l-.841-5.839a2.975,2.975,0,0,0-5.881.848l.841,5.837A2.9,2.9,0,0,0,2212.225,870.419Z" transform="translate(-1653.879 -549.79)" fill="#ffbdb3"/>
      <path id="Trazado_140962" data-name="Trazado 140962" d="M2226.987,1215.51s3.949,4.216,1.843,18.972-.792,24.233-.792,24.233h-2.9l-4.741-42.936Z" transform="translate(-1663.366 -822.83)" fill="#ffac9e"/>
      <path id="Trazado_140963" data-name="Trazado 140963" d="M2199.437,1215.51l6.559.19s1.089,9.03-1.019,23.254-2.108,19.755-2.108,19.755h-2.635S2198.645,1219.986,2199.437,1215.51Z" transform="translate(-1647.143 -822.83)" fill="#ffbdb3"/>
      <path id="Trazado_140964" data-name="Trazado 140964" d="M2197.323,1014.2s6.324,14.225,6.849,16.068,1.316,5.005-1.054,10.011-5.006,22.917-5.006,22.917-5,3.687-12.648-.527c0,0-6.645-39.748-2.928-48.192Z" transform="translate(-1633.505 -668.673)" fill="#6d8cff"/>
      <path id="Trazado_140965" data-name="Trazado 140965" d="M2120.59,910.879h14.192l-8.87-18.359H2111.72Z" transform="translate(-1580.141 -575.493)" fill="#fff"/>
      <path id="Trazado_140966" data-name="Trazado 140966" d="M2119.373,910.113v.234h14.564l-9.1-18.827H2110.13l9.1,18.827h.147v-.234l.211-.1-8.708-18.024h13.672l8.643,17.89h-13.817v.234l.211-.1Z" transform="translate(-1578.924 -574.728)" fill="#5478ff"/>
      <path id="Trazado_140967" data-name="Trazado 140967" d="M2137.969,903.256a3.937,3.937,0,0,0-.56-.447,2.4,2.4,0,0,0-1.284-.468,1.339,1.339,0,0,0-.6.138,3.209,3.209,0,0,0-.751.555,1.006,1.006,0,0,1-.218.157.548.548,0,0,1-.246.054,2.811,2.811,0,0,1-1-.288,5.857,5.857,0,0,0-2.221-.609,1.406,1.406,0,0,0-.635.131h0a2.452,2.452,0,0,0-.412.279,4.585,4.585,0,0,1-.621.45,1.579,1.579,0,0,1-.8.213,2.956,2.956,0,0,1-1.333-.452c-.2-.117-.377-.234-.5-.321-.063-.042-.11-.08-.146-.1l-.037-.03h0a.235.235,0,0,0-.293.368,6.4,6.4,0,0,0,.754.5,3.389,3.389,0,0,0,1.564.513,2.163,2.163,0,0,0,1.284-.436c.159-.112.3-.234.426-.328a1.952,1.952,0,0,1,.328-.234h0a.937.937,0,0,1,.424-.082,5.624,5.624,0,0,1,2.038.571,3.186,3.186,0,0,0,1.185.326,1.018,1.018,0,0,0,.452-.1,2.16,2.16,0,0,0,.468-.351,2.093,2.093,0,0,1,.513-.363.851.851,0,0,1,.391-.089,1.98,1.98,0,0,1,1.023.38,3.65,3.65,0,0,1,.359.272l.1.089.026.023h0a.234.234,0,1,0,.33-.333Z" transform="translate(-1591.247 -583.013)" fill="#5478ff"/>
      <path id="Trazado_140968" data-name="Trazado 140968" d="M2142.106,911.506a4.088,4.088,0,0,0-.56-.447,2.411,2.411,0,0,0-1.283-.469,1.337,1.337,0,0,0-.6.138h0a3.159,3.159,0,0,0-.752.555,1.119,1.119,0,0,1-.218.157.555.555,0,0,1-.246.054,2.809,2.809,0,0,1-1-.288,5.8,5.8,0,0,0-2.223-.607,1.359,1.359,0,0,0-.633.129h0a2.556,2.556,0,0,0-.41.279,4.442,4.442,0,0,1-.623.45,1.569,1.569,0,0,1-.794.213,2.947,2.947,0,0,1-1.333-.452,5.62,5.62,0,0,1-.5-.321l-.143-.1-.037-.03h0a.235.235,0,1,0-.293.368,6.527,6.527,0,0,0,.754.5,3.4,3.4,0,0,0,1.567.513,2.155,2.155,0,0,0,1.281-.436c.162-.112.3-.234.426-.328a2.058,2.058,0,0,1,.33-.234h0a.906.906,0,0,1,.422-.08,5.6,5.6,0,0,1,2.038.569,3.2,3.2,0,0,0,1.188.326,1,1,0,0,0,.45-.1,2.058,2.058,0,0,0,.469-.351,2.206,2.206,0,0,1,.506-.358h0a.842.842,0,0,1,.391-.089,1.981,1.981,0,0,1,1.023.379,3.351,3.351,0,0,1,.356.272l.1.089.024.023h0a.235.235,0,0,0,.333-.333Z" transform="translate(-1594.417 -589.331)" fill="#5478ff"/>
      <path id="Trazado_140969" data-name="Trazado 140969" d="M2157.556,919.756a3.919,3.919,0,0,0-.56-.447,2.4,2.4,0,0,0-1.283-.469,1.339,1.339,0,0,0-.6.138h0a3.169,3.169,0,0,0-.752.555.919.919,0,0,1-.218.157.556.556,0,0,1-.246.054,2.812,2.812,0,0,1-1-.288,5.8,5.8,0,0,0-2.223-.607,1.365,1.365,0,0,0-.632.129.235.235,0,0,0,.21.419.915.915,0,0,1,.422-.08,5.582,5.582,0,0,1,2.038.569,3.2,3.2,0,0,0,1.188.326,1.016,1.016,0,0,0,.452-.1,2.1,2.1,0,0,0,.469-.351,2.3,2.3,0,0,1,.515-.363h0a.841.841,0,0,1,.391-.089,2,2,0,0,1,1.023.379,3.657,3.657,0,0,1,.358.272l.1.089.026.023h0a.234.234,0,1,0,.33-.333Z" transform="translate(-1609.385 -595.648)" fill="#5478ff"/>
      <path id="Trazado_140970" data-name="Trazado 140970" d="M2144.619,949.866a6.745,6.745,0,0,1-2.593,3.53,1.907,1.907,0,0,1-2.857-.752,47.856,47.856,0,0,1-3.729-11.957l1.932-.726Z" transform="translate(-1598.305 -611.822)" fill="#ffbdb3"/>
      <path id="Trazado_140971" data-name="Trazado 140971" d="M2184.15,1016.042a9.033,9.033,0,0,1,.492-1.546l14.782-.276s.651,1.466,1.553,3.513c-5.387.286-3.261,1.042-6.58,1.553a11.275,11.275,0,0,1-8.432-1.843A13.542,13.542,0,0,1,2184.15,1016.042Z" transform="translate(-1635.606 -668.688)" fill="#5478ff"/>
      <path id="Trazado_140972" data-name="Trazado 140972" d="M2254.486,904.188a65.523,65.523,0,0,1,0,10.54c-.527,3.691,1.316,7.641,0,8.957s-2.108,1.316-4.741,0l-2.635-1.316,4.425-18.808Z" transform="translate(-1683.819 -583.948)" fill="#f7f9ff"/>
      <path id="Trazado_140973" data-name="Trazado 140973" d="M2253.565,907.87a28.845,28.845,0,0,0-.249,17.523c-.834.328-1.773.045-3.572-.855l-2.635-1.316,4.369-18.542,2.576.293A19.452,19.452,0,0,0,2253.565,907.87Z" transform="translate(-1683.819 -584.805)" fill="#9db2fd"/>
      <path id="Trazado_140974" data-name="Trazado 140974" d="M2199.89,892.456s-3.687,10.009-3.162,15.014,4.216,11.327-1.844,11.59-3.687,1.054-7.111,1.581a11.276,11.276,0,0,1-8.432-1.843c-2.373-1.581-3.952-3.162-3.425-6.324s4.216-24.233,4.216-24.233Z" transform="translate(-1629.224 -572.216)" fill="#f7f9ff"/>
      <path id="Trazado_140975" data-name="Trazado 140975" d="M2232.759,896.754c1.349,2.356-3.366,7.432-4.347,9.179-2.37,4.216-.485,6.038-.485,6.038s-4.193-3.045-3.382-7.5c.136-.735.726-2.9.726-2.9a5.15,5.15,0,0,0-1.447,3.476,7.46,7.46,0,0,1-1.317-4.743,11.932,11.932,0,0,0-.136-4.047,15.989,15.989,0,0,1-.656,3.389,4.561,4.561,0,0,0,0,2.9,5.718,5.718,0,0,1-.789-4.741,5.376,5.376,0,0,0-.356-3.544C2220.57,894.271,2231.211,894.053,2232.759,896.754Z" transform="translate(-1663.495 -576.828)" fill="#9db2fd"/>
      <path id="Trazado_140976" data-name="Trazado 140976" d="M2175.9,929.333c.469-2.844,3.748-15.588,4.352-19.043a4.435,4.435,0,0,1,2.635.508c1.874.937,2.509,2.085.6,6.9s-2.652,4.722-2.389,9.727.265,5.268-2.108,4.741a6.771,6.771,0,0,0-2.827.234A5.386,5.386,0,0,1,2175.9,929.333Z" transform="translate(-1629.203 -589.073)" fill="#9db2fd"/>
      <path id="Trazado_140977" data-name="Trazado 140977" d="M2156.291,887.727a3.886,3.886,0,0,1,3.122.384c1.883.932,3.982,6.989,1.356,11.477s-3.162,4.743-2.9,9.746.262,5.27-2.108,4.743-4.479,1.843-8.165-1.054,2.108-3.951,4.216-9.484A160.2,160.2,0,0,0,2156.291,887.727Z" transform="translate(-1606.698 -571.7)" fill="#f7f9ff"/>
      <path id="Trazado_140978" data-name="Trazado 140978" d="M2202.887,815.44s-5.071.482-7.729-1.209c0,0-.534-7.964,2.27-13.527s9.327-3.141,11.259-1.691S2214.483,812.3,2202.887,815.44Z" transform="translate(-1644.004 -502.517)" fill="#ffbdb3"/>
      <path id="Trazado_140979" data-name="Trazado 140979" d="M2199.706,827.42a7.523,7.523,0,0,0,1.679,6.439s.234,2.108.468,3.513a25.5,25.5,0,0,0,1.874,5.621h.234s-1.874-8.2-1.639-8.9Z" transform="translate(-1647.403 -525.642)" fill="#e07972"/>
      <path id="Trazado_140980" data-name="Trazado 140980" d="M2206.63,790.4s9.88,1.084,9.88,8.458-.527,11.971,0,16.187-2.7,6.179-5.062,10.4-.234,6.764-.234,6.764-4.919-4.745-4.106-9.179c.134-.735.724-2.9.724-2.9a5.153,5.153,0,0,0-1.448,3.474,7.476,7.476,0,0,1-1.316-4.741,12.078,12.078,0,0,0-.134-4.047,15.989,15.989,0,0,1-.656,3.389,4.561,4.561,0,0,0,0,2.9,5.718,5.718,0,0,1-.792-4.743c.79-2.635-1.187-5.914-1.452-8.549s.262-2.963,0-2.174a15.53,15.53,0,0,1-2.234-4.158C2198.664,798.111,2199.254,790.665,2206.63,790.4Z" transform="translate(-1647.246 -497.293)" fill="#ff5475"/>
      <path id="Trazado_140981" data-name="Trazado 140981" d="M2241.12,827.089c2.373-4.216,5.6-6.174,5.073-10.388s0-8.809,0-16.185c0-4.242-2.536-5.935-5.315-7.006,2.926.834,6.765,2.471,6.765,7.5,0,7.376-.527,11.971,0,16.185s-2.7,6.174-5.073,10.388-.234,6.764-.234,6.764a18.4,18.4,0,0,1-2.3-2.839A7.378,7.378,0,0,1,2241.12,827.089Z" transform="translate(-1678.379 -499.674)" fill="#d1385c"/>
      <path id="Trazado_140982" data-name="Trazado 140982" d="M2238.833,985.34a58.971,58.971,0,0,0,1.932,8.214c.012.091-1.831.042-2.485.5,0,0,.794-.5.794-2.436S2238.833,985.34,2238.833,985.34Z" transform="translate(-1677.057 -646.572)" fill="#9db2fd"/>
      <path id="Trazado_140983" data-name="Trazado 140983" d="M2239.61,1093.846c8.938.483,9.306-8.5,9.179-10.346.522,1.874,1.2,4.987-1.1,9.838-2.37,5.005-5.005,22.917-5.005,22.917a6.072,6.072,0,0,1-.9.51s0-1.187.967-8.666S2239.61,1093.846,2239.61,1093.846Z" transform="translate(-1678.076 -721.741)" fill="#5478ff"/>
      <path id="Trazado_140984" data-name="Trazado 140984" d="M2238.678,1396.882l.845,5.153h-5.073l1.234-5.354Z" transform="translate(-1674.125 -961.565)" fill="#4765d6"/>
      <path id="Trazado_140985" data-name="Trazado 140985" d="M2239.765,1391.377l.281-3.642s1.757-.963.885-4.127c-.59-2.134-2.79-1.841-3.377.161s-.871,3.406.811,3.966l.562,3.642Z" transform="translate(-1676.151 -950.425)" fill="#5478ff"/>
      <path id="Trazado_140986" data-name="Trazado 140986" d="M2185.942,1403.04l-2.9,3.139-1.208,1.209h-4.106l.026-.684,4.322-.766Z" transform="translate(-1630.69 -966.436)" fill="#4765d6"/>
      <path id="Trazado_140987" data-name="Trazado 140987" d="M2186.773,1387.33s-.614,2.471-4.963,6.577c0,0,.485.726,3.624-1.206a4.97,4.97,0,0,0,2.342-5.228Z" transform="translate(-1633.814 -954.405)" fill="#ffbdb3"/>
      <path id="Trazado_140988" data-name="Trazado 140988" d="M2181.149,1390.12c1.534-1.276,1.405-1.157,2.935-4.478.234-.494,2.511-3.389,3.246-.764.885,3.16-.642,4.127-.642,4.127l-1,3.642h-.841l.162-3.6-3.335,3.12h-3.839a1.04,1.04,0,0,1,.937-1.028A4.527,4.527,0,0,0,2181.149,1390.12Z" transform="translate(-1630.767 -951.695)" fill="#5478ff"/>
      <path id="Trazado_140989" data-name="Trazado 140989" d="M2123.867,913.509s.5-1.405-1.031-3.317c-1.042-1.3-1.274-3.736-1.874-3.2-.773.682.026,2.3.066,2.576s.155,1.131.155,1.131-1.6-3.239-2.316-4.293l-.361-.527s-.361-.527-.644-.487.349,2.544.349,2.544a12.221,12.221,0,0,0-.089,1.455c.04.283-.206,2,3.982,5.174Z" transform="translate(-1584.788 -585.35)" fill="#ffbdb3"/>
      <path id="Trazado_140990" data-name="Trazado 140990" d="M2219.388,803.83s-2.9,6.28-1.45,11.594C2217.928,815.424,2215.041,809.142,2219.388,803.83Z" transform="translate(-1660.753 -507.577)" fill="#d1385c"/>
      <path id="Trazado_140991" data-name="Trazado 140991" d="M2238.931,845.08a26.876,26.876,0,0,0,0,8.212,12.149,12.149,0,0,1-.724,7.006,31.958,31.958,0,0,0,0-7.247A24.7,24.7,0,0,1,2238.931,845.08Z" transform="translate(-1676.915 -539.165)" fill="#d1385c"/>
      <path id="Trazado_140992" data-name="Trazado 140992" d="M402.739,945.276a1.482,1.482,0,0,1-1.405-1.024L353.971,797.97a1.48,1.48,0,1,1,2.811-.911l47.363,146.28a1.483,1.483,0,0,1-.953,1.874,1.465,1.465,0,0,1-.452.063Z" transform="translate(-175.602 -501.539)" fill="#7d99ff"/>
      <path id="Trazado_140993" data-name="Trazado 140993" d="M587.042,945.276a1.478,1.478,0,0,1-1.405-1.024L538.271,797.97a1.48,1.48,0,1,1,2.811-.911l47.363,146.28a1.48,1.48,0,0,1-1.405,1.937Z" transform="translate(-316.734 -501.539)" fill="#7d99ff"/>
      <path id="Trazado_140994" data-name="Trazado 140994" d="M420.641,872.888H378.663a1.48,1.48,0,0,1,0-2.958h41.978a1.48,1.48,0,0,1,0,2.958Z" transform="translate(-193.502 -558.195)" fill="#7d99ff"/>
      <path id="Trazado_140995" data-name="Trazado 140995" d="M444.676,938.181H402.7a1.48,1.48,0,1,1,0-2.961h41.976a1.48,1.48,0,1,1,0,2.961Z" transform="translate(-211.864 -608.192)" fill="#7d99ff"/>
      <path id="Trazado_140996" data-name="Trazado 140996" d="M466.789,997.161H424.81a1.48,1.48,0,1,1,0-2.961h41.978a1.48,1.48,0,1,1,0,2.961Z" transform="translate(-228.795 -653.357)" fill="#7d99ff"/>
      <path id="Trazado_140997" data-name="Trazado 140997" d="M481.343,1056.135H439.368a1.48,1.48,0,1,1,0-2.958h41.976a1.48,1.48,0,1,1,0,2.958Z" transform="translate(-239.897 -698.519)" fill="#7d99ff"/>
      <path id="Trazado_140998" data-name="Trazado 140998" d="M500.489,1114.061H458.51a1.48,1.48,0,1,1,0-2.96h41.978a1.48,1.48,0,1,1,0,2.961Z" transform="translate(-254.601 -742.876)" fill="#7d99ff"/>
      <path id="Trazado_140999" data-name="Trazado 140999" d="M519.446,1174.091H477.47a1.48,1.48,0,1,1,0-2.96h41.976a1.48,1.48,0,1,1,0,2.96Z" transform="translate(-269.12 -788.845)" fill="#7d99ff"/>
      <path id="Trazado_141000" data-name="Trazado 141000" d="M543.669,1234.121H501.69a1.48,1.48,0,1,1,0-2.96h41.978a1.48,1.48,0,1,1,0,2.96Z" transform="translate(-287.667 -834.815)" fill="#7d99ff"/>
      <path id="Trazado_141001" data-name="Trazado 141001" d="M560.519,1298.321H518.54a1.48,1.48,0,1,1,0-2.961h41.978a1.48,1.48,0,1,1,0,2.961Z" transform="translate(-300.571 -883.977)" fill="#7d99ff"/>
      <path id="Trazado_141002" data-name="Trazado 141002" d="M654.917,845.6l10.116-37.073a13.949,13.949,0,0,0,13.093-16.443,14.756,14.756,0,0,0-4.977-8.706l-3.513,12.911a9.318,9.318,0,0,1-12.18-3.321l3.525-12.911a14.773,14.773,0,0,0-12.016,17.1c.593,3.394,3.216,6.69,5.839,8.924l-10.119,37.071c-8.9.377-14.592,9.308-12.74,17.6a14.8,14.8,0,0,0,29.023-5.811C660.368,851.558,657.534,847.836,654.917,845.6Zm-3.129,16.063-4.537,2.593-5.034-1.375-2.591-4.537,1.37-5.036,4.537-2.591,5.036,1.375,2.593,4.542Z" transform="translate(-388.28 -489.375)" fill="#7794fd"/>
      <path id="Trazado_141003" data-name="Trazado 141003" d="M627.82,858.2s1.975,14.054,3.207,16.035,4.685,6.659,14.8,11.346c0,0,2.961,2.961,4.685,3.207a9.606,9.606,0,0,1,2.715.74s1.232,1.48,1.972,1.234l-1.232-2.466-2.213-.74h2.712a3.658,3.658,0,0,0,1.729,1.232c.988.246,1.232-.234,1.232-.234s.74,0,.986-.246l-2.773-2.342-2.654-.616,2.961-.494s.743,1.077,1.6,1.031a4.254,4.254,0,0,0-1.473-1.825c-.874-.438-2.844.054-3.338.054s-3.207-.494-4.685-.74-12.334-11.1-12.334-11.1l-1.726-14.8Z" transform="translate(-385.388 -548.653)" fill="#ffbdb3"/>
      <path id="Trazado_141004" data-name="Trazado 141004" d="M490.359,822.66l-4.45,11.1-5.181-1.726-2.457,1.48a42.191,42.191,0,0,0,8.142,6.165,2.677,2.677,0,0,0,1.972.494c.986-.246,6.415-11.84,6.167-14.054Z" transform="translate(-270.866 -521.997)" fill="#ffbdb3"/>
      <path id="Trazado_141005" data-name="Trazado 141005" d="M460.37,862.512l2.22-1.975s2.792-.548,3.7-.234c1.478.494,1.726.986,1.726.986l-3.094,1.335Z" transform="translate(-257.159 -550.748)" fill="#ffbdb3"/>
      <path id="Trazado_141006" data-name="Trazado 141006" d="M589.75,763.449l-2.52.155a2.08,2.08,0,0,1-2.192-1.942l-.468-7.748a2.078,2.078,0,0,1,1.942-2.192l2.52-.152a2.078,2.078,0,0,1,2.192,1.942l.468,7.746a2.078,2.078,0,0,1-1.942,2.192Z" transform="translate(-352.264 -467.554)" fill="#ffbdb3"/>
      <path id="Trazado_141007" data-name="Trazado 141007" d="M534.781,785s-3.005.417-5.361,7.54c0,0,.82,5.116,4.542,6.519l3.216-1.764Z" transform="translate(-310.036 -493.158)" fill="#d6dfff"/>
      <path id="Trazado_141008" data-name="Trazado 141008" d="M524.942,809.65s4,6.268,5.455,8.177l-1.834,1.485s-4.785-4-5.083-7.284Z" transform="translate(-305.487 -512.034)" fill="#f2f4ff"/>
      <path id="Trazado_141009" data-name="Trazado 141009" d="M502.559,933s3.7,5.24,3.455,8.694-4.45,25.327-4.565,28.2,1.6,10.032-.616,16.939-2.712,20.474-2.712,20.474l-4.685.494s-1.478-22.448,0-34.537-2.218-24.667-2.218-24.667-11.84,8.385-16.529,9.135c0,0,2.961,1.48,4.935,6.415s4.45,12.58,6.413,14.8l-4.45,1.726s-6.907-11.348-11.346-15.295-6.413-8.139-5.921-10.36S483,933.895,483,933.895Z" transform="translate(-260.127 -606.492)" fill="#2f3e97"/>
      <path id="Trazado_141010" data-name="Trazado 141010" d="M542.94,788.5s-.74,14.309-.492,20.228a36.932,36.932,0,0,1-.988,10.36s4.2,7.9,12.334,7.4,8.638-6.167,8.638-6.167-5.427-7.4-5.179-10.114l9.62-15.541s-1.974-5.179-6.661-6.907-13.726-3.614-15.792-3.207C543.189,784.8,542.94,788.5,542.94,788.5Z" transform="translate(-319.255 -492.775)" fill="#d6dfff"/>
      <path id="Trazado_141011" data-name="Trazado 141011" d="M589.442,778.786l1.2,3.7s-7.448.9-11.969-3.621l2.633-2.546A8.2,8.2,0,0,0,589.442,778.786Z" transform="translate(-347.75 -486.511)" fill="#f2f4ff"/>
      <path id="Trazado_141012" data-name="Trazado 141012" d="M628.993,815.89a15,15,0,0,1,2.811,7.5v4.45a17.316,17.316,0,0,1-6.165,1.48l-.988-3.7Z" transform="translate(-382.96 -516.812)" fill="#d6dfff"/>
      <path id="Trazado_141013" data-name="Trazado 141013" d="M626.77,864.652a69.453,69.453,0,0,1,7.153-1.972v2.712a18.478,18.478,0,0,1-6.907,1.48Z" transform="translate(-384.584 -552.643)" fill="#f2f4ff"/>
      <path id="Trazado_141014" data-name="Trazado 141014" d="M573.575,1260.162s-4.45-.738.74-2.712a6.541,6.541,0,0,0,1.478-3.7v-4.755l4.706-.614.92,2.48-1.185,8.8Z" transform="translate(-342.488 -848.001)" fill="#f53b5f"/>
      <path id="Trazado_141015" data-name="Trazado 141015" d="M587.273,1255.463c-.248-1.234-2.577-2.274-3.7.234-.986,2.22-.494,3.7-1.234,5.427a7.73,7.73,0,0,1-2.958,3.453s6.212.349,7.4-.234C587.273,1264.1,587.88,1258.493,587.273,1255.463Z" transform="translate(-348.293 -852.428)" fill="#d6dfff"/>
      <path id="Trazado_141016" data-name="Trazado 141016" d="M610.809,863.53s-4.685,3.994-5.179,6.954c-.438,2.621,5.179,9.369,5.179,9.369s-3.453-6.167-3.453-8.388S610.809,863.53,610.809,863.53Z" transform="translate(-368.377 -553.294)" fill="#bdcbff"/>
      <path id="Trazado_141017" data-name="Trazado 141017" d="M579.38,999.59a13.578,13.578,0,0,0,8.634.234s-3.947,1.975-4.195,10.854-.492,12.826-.986,16.033-.417,28.407.037,31.595l-1.272.234s-.986-26.641-.738-32.068S580.86,1015.379,579.38,999.59Z" transform="translate(-348.294 -657.485)" fill="#283682"/>
      <path id="Trazado_141018" data-name="Trazado 141018" d="M517.341,1130.075a10.281,10.281,0,0,1-1.726,4.684c-1.492,1.972-4.193.74-4.685,3.453a47.392,47.392,0,0,0,6.167,0c2.22-.248,6.661-6.907,6.661-6.907a19.049,19.049,0,0,0-2.169-3.195Z" transform="translate(-295.876 -755.902)" fill="#f53b5f"/>
      <path id="Trazado_141019" data-name="Trazado 141019" d="M523.248,1143.793s1.232-1.972.494-2.22-2.22.248-3.455,2.715-2.466,3.452-5.179,3.7a16.719,16.719,0,0,1-4.066,0,1.722,1.722,0,0,0-.129.74,52.949,52.949,0,0,0,6.167,0C519.016,1148.339,521.273,1146.754,523.248,1143.793Z" transform="translate(-295.862 -766.167)" fill="#d6dfff"/>
      <path id="Trazado_141020" data-name="Trazado 141020" d="M513.509,1003.56s-14.688,7.7-18.389,7.7c0,0,1.975,0,5.427,4.933s7.156,13.566,7.156,13.566-3.7-15.293-9.369-18.007C498.327,1011.756,502.3,1011.643,513.509,1003.56Z" transform="translate(-283.77 -660.525)" fill="#283682"/>
      <path id="Trazado_141021" data-name="Trazado 141021" d="M578.7,688.425s-5.7,1.448-5.7,8.666c0,7.964,2,9.264,2.342,9.6s5.057.452,7.1-.569,5.783-4.083,5.783-8.167S586.524,687.069,578.7,688.425Z" transform="translate(-343.408 -419.069)" fill="#ffbdb3"/>
      <path id="Trazado_141022" data-name="Trazado 141022" d="M675.026,869.46c-.04.082-.066.126-.066.126A.442.442,0,0,0,675.026,869.46Z" transform="translate(-421.486 -557.835)" fill="#511f1f"/>
      <path id="Trazado_141023" data-name="Trazado 141023" d="M587.718,705.569c1.333-6.928,4.062-11.688,7.439-11.44a3.308,3.308,0,0,1,.63.108,1.125,1.125,0,0,1,.234.042c4.755,1.08,4.715,6.589,5.495,13.979a31.93,31.93,0,0,0,2.513,7.121c3.045,6.153.86,10.362.86,10.362.026-.417,1.448-1.74-2.026-9.212.068.281.138.564.213.85a28.324,28.324,0,0,1,.7,3.6,26.1,26.1,0,0,1-.143,14.564c.087-.335.218-1.445-.312-4.656a28.806,28.806,0,0,1-4.649,10.6c1.939-5.938-1.539-12.648-1.539-12.648.393,1.588.5,6.594-1.581,9.484a9.454,9.454,0,0,0-1.654-7.306c-5.127-6.858-5.343-10.706-5.324-10.847.234,1.656,2.6,8.167,1.794,10.746.014-3.563-3.134-5.673-3.331-13.552a22.891,22.891,0,0,1,.173-4.078Z" transform="translate(-354.144 -423.564)" fill="#511f1f"/>
      <path id="Trazado_141024" data-name="Trazado 141024" d="M579.681,686.409c-.335.112-7.261,1.405-4.75,8.484,2.138,6.031,2.752,7.027,1.705,10.489a5.03,5.03,0,0,0,1.473-4.134c-.351-2.471-1.405-3.53-.7-6.708a6.9,6.9,0,0,0,.874,6.158l10.54-11.477A7.955,7.955,0,0,0,579.681,686.409Z" transform="translate(-344.468 -417.286)" fill="#511f1f"/>
      <path id="Trazado_141025" data-name="Trazado 141025" d="M2287,739.989v22.441a1.307,1.307,0,0,0,1.309,1.307h7.943a1.309,1.309,0,0,1,1.309,1.335l-.063,3.157a1.309,1.309,0,0,0,1.848,1.218l12.372-5.593a1.3,1.3,0,0,1,.539-.117h16.3a1.307,1.307,0,0,0,1.309-1.307V739.989a1.309,1.309,0,0,0-1.309-1.309h-40.245a1.309,1.309,0,0,0-1.309,1.309Z" transform="translate(-1732.998 -479.673)" fill="#fff"/>
      <path id="Trazado_141026" data-name="Trazado 141026" d="M2353.321,769.268H2334.25a1.206,1.206,0,0,1-1-.7,1.172,1.172,0,0,1-.1-.628,1.213,1.213,0,0,1,.234-.593l9.706-13.522a1.036,1.036,0,0,1,1.752,0l9.369,13.529a1.2,1.2,0,0,1-.283,1.712A1.213,1.213,0,0,1,2353.321,769.268Z" transform="translate(-1768.328 -490.9)" fill="#ff5475"/>
      <path id="Trazado_141027" data-name="Trazado 141027" d="M2373.3,775.073h1.731l.433-6.383h-2.6Zm.864,3.513a1.283,1.283,0,0,0,1.342-1.272,1.345,1.345,0,0,0-2.682,0,1.281,1.281,0,0,0,1.34,1.262Z" transform="translate(-1798.716 -502.654)" fill="#fff"/>
      <path id="Trazado_141028" data-name="Trazado 141028" d="M2285.851,738.77h-.351v22.563a1.6,1.6,0,0,0,1.6,1.6h8.067a.9.9,0,0,1,.9.9v.026h0l-.063,3.314h0v.035a1.6,1.6,0,0,0,1.6,1.6,1.621,1.621,0,0,0,.658-.143l12.473-5.64a.913.913,0,0,1,.37-.08h16.37a1.6,1.6,0,0,0,1.6-1.6V738.77a1.6,1.6,0,0,0-1.6-1.6H2287.1a1.6,1.6,0,0,0-1.6,1.6h.7a.9.9,0,0,1,.9-.9h40.367a.895.895,0,0,1,.9.9v22.563a.894.894,0,0,1-.9.895H2311.1a1.593,1.593,0,0,0-.658.143l-12.472,5.638a.892.892,0,0,1-.37.082.906.906,0,0,1-.625-.255.885.885,0,0,1-.272-.642v-.016h0l.066-3.317v-.028a1.6,1.6,0,0,0-1.6-1.6H2287.1a.895.895,0,0,1-.9-.895V738.77Z" transform="translate(-1731.849 -478.517)" fill="#5d88fc"/>
    </g>
  </g>
</svg>
