<svg xmlns="http://www.w3.org/2000/svg" width="326.411" height="331.701" viewBox="0 0 326.411 331.701">
  <g id="img15" transform="translate(-17.959 -18.628)">
    <path id="Trazado_143440" data-name="Trazado 143440" d="M282.06,59.29A1.69,1.69,0,0,1,281,58.9,163.51,163.51,0,0,0,265.83,48a1.721,1.721,0,1,1,1.84-2.91,166.012,166.012,0,0,1,15.47,11.13,1.72,1.72,0,0,1-1.08,3.06ZM250.27,39.11a1.72,1.72,0,0,1-.75-.18,159.783,159.783,0,0,0-17.24-7.11,1.724,1.724,0,1,1,1.12-3.26A163.993,163.993,0,0,1,251,35.83a1.73,1.73,0,0,1-.75,3.28ZM214.69,26.79a2.33,2.33,0,0,1-.37,0,162.271,162.271,0,0,0-18.43-3,1.72,1.72,0,0,1,.36-3.42,166.717,166.717,0,0,1,18.81,3,1.73,1.73,0,0,1-.37,3.41Z" fill="#003887"/>
    <path id="Trazado_143441" data-name="Trazado 143441" d="M88.85,50.19A1.72,1.72,0,0,1,87.9,47a164.857,164.857,0,0,1,16.44-9.62,1.72,1.72,0,1,1,1.57,3.06A165.21,165.21,0,0,0,89.8,49.9,1.66,1.66,0,0,1,88.85,50.19Zm33.54-17.11a1.72,1.72,0,0,1-.6-3.33A165.857,165.857,0,0,1,140,24.15a1.723,1.723,0,0,1,.81,3.35A158.835,158.835,0,0,0,123,33a1.8,1.8,0,0,1-.61.08Z" fill="#003887"/>
    <path id="Trazado_143442" data-name="Trazado 143442" d="M64.9,303a1.73,1.73,0,0,1-1.21-.5,165.991,165.991,0,0,1-12.81-14.1,1.721,1.721,0,1,1,2.68-2.16A163.991,163.991,0,0,0,66.1,300.06,1.72,1.72,0,0,1,64.9,303ZM41.22,273.73a1.71,1.71,0,0,1-1.45-.79,166.094,166.094,0,0,1-9.27-16.65,1.722,1.722,0,1,1,3.1-1.5,164.156,164.156,0,0,0,9.07,16.3,1.73,1.73,0,0,1-.53,2.38,1.69,1.69,0,0,1-.92.26Zm-16.38-33.9a1.71,1.71,0,0,1-1.62-1.15A165,165,0,0,1,18,220.34a1.72,1.72,0,0,1,3.36-.74,160.124,160.124,0,0,0,5.09,18,1.73,1.73,0,0,1-1.06,2.19,1.88,1.88,0,0,1-.55.04Z" fill="#003887"/>
    <path id="Trazado_143443" data-name="Trazado 143443" d="M321.45,266.84a1.72,1.72,0,0,1-1.5-2.57,161.369,161.369,0,0,0,8.25-16.74,1.721,1.721,0,1,1,3.17,1.34A166.262,166.262,0,0,1,323,266,1.72,1.72,0,0,1,321.45,266.84Zm14.65-34.68a2,2,0,0,1-.48-.07,1.73,1.73,0,0,1-1.18-2.14,162.528,162.528,0,0,0,4.18-18.19,1.72,1.72,0,1,1,3.39.58,164.367,164.367,0,0,1-4.26,18.57A1.73,1.73,0,0,1,336.1,232.16ZM342.41,195h-.1a1.71,1.71,0,0,1-1.62-1.81c.16-2.95.24-5.92.24-8.84,0-3.27-.1-6.58-.3-9.83a1.72,1.72,0,0,1,1.61-1.82,1.7,1.7,0,0,1,1.82,1.62c.21,3.32.31,6.69.31,10q0,4.5-.25,9a1.72,1.72,0,0,1-1.71,1.68Z" fill="#003887"/>
    <rect id="Rectángulo_37701" data-name="Rectángulo 37701" width="72.85" height="72.85" transform="translate(326.263 150.479) rotate(161.928)" fill="#57dbd8"/>
    <path id="Trazado_143444" data-name="Trazado 143444" d="M256.77,173.37a1.72,1.72,0,0,1-1.64-1.19l-22.3-69.36a1.73,1.73,0,0,1,1.11-2.17l69.36-22.3a1.72,1.72,0,0,1,2.16,1.11l22.3,69.36a1.71,1.71,0,0,1-1.11,2.17l-69.35,22.3a2,2,0,0,1-.53.08Zm-20.14-70,21.25,66.08L324,148.24,302.71,82.15Z" fill="#003887"/>
    <circle id="Elipse_4582" data-name="Elipse 4582" cx="26.71" cy="26.71" r="26.71" transform="matrix(0.992, -0.125, 0.125, 0.992, 219.644, 160.132)" fill="#7ab1ff"/>
    <path id="Trazado_143445" data-name="Trazado 143445" d="M249.52,211.7a28.468,28.468,0,0,1-27.078-19.695l0-.005a28.41,28.41,0,1,1,27.08,19.73Zm0-53.43a25,25,0,0,0-23.81,32.64h0a25,25,0,1,0,23.81-32.64Z" fill="#003887"/>
    <path id="Trazado_143446" data-name="Trazado 143446" d="M274.93,176.81a1.72,1.72,0,0,1-.53-3.36l62.38-20a1.72,1.72,0,0,1,1.05,3.27l-62.37,20.06A2,2,0,0,1,274.93,176.81Z" fill="#003887"/>
    <path id="Trazado_143447" data-name="Trazado 143447" d="M241.33,159.56a1.71,1.71,0,0,1-1.64-1.19L210,65.94a42.237,42.237,0,0,0-2.5-6.12,42.94,42.94,0,0,0-17.1-17.71L155.63,21.86a1.732,1.732,0,1,1,1.73-3l34.77,20.25a46.32,46.32,0,0,1,18.42,19.14,47.36,47.36,0,0,1,2.7,6.6L243,157.31a1.72,1.72,0,0,1-1.12,2.17A1.881,1.881,0,0,1,241.33,159.56Z" fill="#003887"/>
    <path id="Trazado_143448" data-name="Trazado 143448" d="M235.79,176.22a15.42,15.42,0,1,0,20.76-6.67A15.42,15.42,0,0,0,235.79,176.22Z" fill="#fff"/>
    <path id="Trazado_143449" data-name="Trazado 143449" d="M249.48,200.41a17.15,17.15,0,0,1-15.22-25h0a17.13,17.13,0,1,1,15.22,25ZM237.32,177a13.7,13.7,0,1,0,18.44-5.93A13.7,13.7,0,0,0,237.32,177Z" fill="#003887"/>
    <rect id="Rectángulo_37702" data-name="Rectángulo 37702" width="109.93" height="74.64" transform="translate(82.81 252.5)" fill="#fff"/>
    <path id="Trazado_143450" data-name="Trazado 143450" d="M192.74,328.86H82.81a1.72,1.72,0,0,1-1.72-1.72V252.5a1.72,1.72,0,0,1,1.72-1.72H192.74a1.72,1.72,0,0,1,1.72,1.72v74.64a1.72,1.72,0,0,1-1.72,1.72ZM84.53,325.42H191v-71.2H84.53Z" fill="#003887"/>
    <rect id="Rectángulo_37703" data-name="Rectángulo 37703" width="13.34" height="74.64" transform="translate(179.4 252.5)" fill="#7ab1ff"/>
    <path id="Trazado_143451" data-name="Trazado 143451" d="M192.74,328.86H179.4a1.72,1.72,0,0,1-1.72-1.72V252.5a1.72,1.72,0,0,1,1.72-1.72h13.34a1.72,1.72,0,0,1,1.72,1.72v74.64a1.72,1.72,0,0,1-1.72,1.72Zm-11.62-3.44H191v-71.2h-9.89Z" fill="#003887"/>
    <rect id="Rectángulo_37704" data-name="Rectángulo 37704" width="13.34" height="74.64" transform="translate(82.81 252.5)" fill="#7ab1ff"/>
    <path id="Trazado_143452" data-name="Trazado 143452" d="M96.14,328.86H82.81a1.72,1.72,0,0,1-1.72-1.72V252.5a1.72,1.72,0,0,1,1.72-1.72H96.14a1.72,1.72,0,0,1,1.72,1.72v74.64a1.72,1.72,0,0,1-1.72,1.72Zm-11.61-3.44h9.89v-71.2H84.53Z" fill="#003887"/>
    <rect id="Rectángulo_37705" data-name="Rectángulo 37705" width="109.93" height="21.47" transform="translate(82.81 305.67)" fill="#7ab1ff"/>
    <path id="Trazado_143453" data-name="Trazado 143453" d="M192.74,328.86H82.81a1.72,1.72,0,0,1-1.72-1.72V305.67A1.72,1.72,0,0,1,82.81,304H192.74a1.72,1.72,0,0,1,1.72,1.72v21.47A1.72,1.72,0,0,1,192.74,328.86ZM84.53,325.42H191v-18H84.53Z" fill="#003887"/>
    <path id="Trazado_143454" data-name="Trazado 143454" d="M177.56,348.61H96.68l-5.12-21.47h91.11Z" fill="#7ab1ff"/>
    <path id="Trazado_143455" data-name="Trazado 143455" d="M177.56,350.33H96.68A1.71,1.71,0,0,1,95,349l-5.12-21.47a1.7,1.7,0,0,1,.32-1.47,1.73,1.73,0,0,1,1.35-.65h91.11a1.71,1.71,0,0,1,1.35.65,1.74,1.74,0,0,1,.33,1.47L179.23,349A1.72,1.72,0,0,1,177.56,350.33ZM98,346.89h78.2l4.29-18H93.74Z" fill="#003887"/>
    <rect id="Rectángulo_37706" data-name="Rectángulo 37706" width="90.75" height="78.48" transform="translate(204.17 239.45)" fill="#fff"/>
    <path id="Trazado_143456" data-name="Trazado 143456" d="M294.91,319.65H204.17a1.73,1.73,0,0,1-1.73-1.72V239.45a1.73,1.73,0,0,1,1.73-1.72h90.74a1.72,1.72,0,0,1,1.72,1.72v78.48A1.72,1.72,0,0,1,294.91,319.65Zm-89-3.44h87.3v-75h-87.3Z" fill="#003887"/>
    <rect id="Rectángulo_37707" data-name="Rectángulo 37707" width="13.34" height="78.48" transform="translate(281.58 239.45)" fill="#fe7062"/>
    <path id="Trazado_143457" data-name="Trazado 143457" d="M294.91,319.65H281.58a1.73,1.73,0,0,1-1.73-1.72V239.45a1.73,1.73,0,0,1,1.73-1.72h13.33a1.72,1.72,0,0,1,1.72,1.72v78.48A1.72,1.72,0,0,1,294.91,319.65Zm-11.61-3.44h9.89v-75H283.3Z" fill="#003887"/>
    <rect id="Rectángulo_37708" data-name="Rectángulo 37708" width="13.34" height="78.48" transform="translate(204.17 239.45)" fill="#fe7062"/>
    <path id="Trazado_143458" data-name="Trazado 143458" d="M217.5,319.65H204.17a1.73,1.73,0,0,1-1.73-1.72V239.45a1.73,1.73,0,0,1,1.73-1.72H217.5a1.72,1.72,0,0,1,1.72,1.72v78.48A1.72,1.72,0,0,1,217.5,319.65Zm-11.61-3.44h9.89v-75h-9.89Z" fill="#003887"/>
    <rect id="Rectángulo_37709" data-name="Rectángulo 37709" width="90.75" height="21.47" transform="translate(204.17 296.47)" fill="#fe7062"/>
    <path id="Trazado_143459" data-name="Trazado 143459" d="M294.91,319.65H204.17a1.73,1.73,0,0,1-1.73-1.72V296.47a1.73,1.73,0,0,1,1.73-1.72h90.74a1.72,1.72,0,0,1,1.72,1.72v21.46A1.72,1.72,0,0,1,294.91,319.65Zm-89-3.44h87.3v-18h-87.3Z" fill="#003887"/>
    <path id="Trazado_143460" data-name="Trazado 143460" d="M279.73,348.61H218.04l-5.12-30.68h71.93Z" fill="#fe7062"/>
    <path id="Trazado_143461" data-name="Trazado 143461" d="M279.73,350.33H218a1.73,1.73,0,0,1-1.7-1.44l-5.12-30.67a1.74,1.74,0,0,1,.39-1.4,1.69,1.69,0,0,1,1.31-.61h71.93a1.69,1.69,0,0,1,1.31.61,1.74,1.74,0,0,1,.39,1.4l-5.12,30.67A1.73,1.73,0,0,1,279.73,350.33Zm-60.23-3.44h58.77l4.55-27.24H215Z" fill="#003887"/>
    <rect id="Rectángulo_37710" data-name="Rectángulo 37710" width="123" height="116.92" transform="translate(39.73 70.6)" fill="#fff"/>
    <rect id="Rectángulo_37711" data-name="Rectángulo 37711" width="13.61" height="127.08" transform="translate(32.93 70.6)" fill="#7ab1ff"/>
    <path id="Trazado_143462" data-name="Trazado 143462" d="M46.54,199.4H32.93a1.73,1.73,0,0,1-1.73-1.72V70.6a1.73,1.73,0,0,1,1.73-1.72H46.54a1.72,1.72,0,0,1,1.72,1.72V197.68a1.72,1.72,0,0,1-1.72,1.72ZM34.65,196H44.82V72.32H34.65Z" fill="#003887"/>
    <rect id="Rectángulo_37712" data-name="Rectángulo 37712" width="13.61" height="127.08" transform="translate(152.57 70.6)" fill="#7ab1ff"/>
    <path id="Trazado_143463" data-name="Trazado 143463" d="M166.19,199.4H152.58a1.72,1.72,0,0,1-1.73-1.72V70.6a1.72,1.72,0,0,1,1.73-1.72h13.61a1.72,1.72,0,0,1,1.72,1.72V197.68a1.72,1.72,0,0,1-1.72,1.72ZM154.3,196h10.17V72.32H154.3Z" fill="#003887"/>
    <path id="Trazado_143464" data-name="Trazado 143464" d="M152.58,189.24h-106a1.72,1.72,0,1,1,0-3.44h106a1.72,1.72,0,1,1,0,3.44Z" fill="#003887"/>
    <path id="Trazado_143465" data-name="Trazado 143465" d="M152.58,149.92h-106a1.72,1.72,0,1,1,0-3.44h106a1.72,1.72,0,1,1,0,3.44Z" fill="#003887"/>
    <path id="Trazado_143466" data-name="Trazado 143466" d="M152.58,110.59h-106a1.72,1.72,0,1,1,0-3.44h106a1.72,1.72,0,1,1,0,3.44Z" fill="#003887"/>
    <rect id="Rectángulo_37713" data-name="Rectángulo 37713" width="28.99" height="29.58" transform="translate(94.87 118.47)" fill="#fff"/>
    <path id="Trazado_143467" data-name="Trazado 143467" d="M123.86,149.77h-29a1.72,1.72,0,0,1-1.72-1.72V118.47a1.72,1.72,0,0,1,1.72-1.72h29a1.72,1.72,0,0,1,1.72,1.72v29.58a1.72,1.72,0,0,1-1.72,1.72Zm-27.27-3.44h25.55V120.19H96.59Z" fill="#003887"/>
    <path id="Trazado_143468" data-name="Trazado 143468" d="M117.17,143.05a1.74,1.74,0,0,1-1.23-.52l-22.3-22.86a1.72,1.72,0,1,1,2.46-2.4l22.3,22.85a1.72,1.72,0,0,1-1.23,2.93Z" fill="#003887"/>
    <path id="Trazado_143469" data-name="Trazado 143469" d="M94.76,148.69a1.76,1.76,0,0,1-1.21-.49,1.72,1.72,0,0,1,0-2.44l9.65-9.85a1.722,1.722,0,1,1,2.46,2.41L96,148.17a1.67,1.67,0,0,1-1.24.52Z" fill="#003887"/>
    <path id="Trazado_143470" data-name="Trazado 143470" d="M112.87,130.2a1.68,1.68,0,0,1-1.2-.49,1.72,1.72,0,0,1,0-2.43l9.82-10a1.722,1.722,0,0,1,2.46,2.41l-9.82,10a1.7,1.7,0,0,1-1.26.51Z" fill="#003887"/>
    <rect id="Rectángulo_37714" data-name="Rectángulo 37714" width="48.22" height="20.86" transform="translate(46.54 127.34)" fill="#fe7062"/>
    <path id="Trazado_143471" data-name="Trazado 143471" d="M94.76,149.92H46.54a1.72,1.72,0,0,1-1.72-1.72V127.34a1.72,1.72,0,0,1,1.72-1.72H94.76a1.72,1.72,0,0,1,1.72,1.72V148.2A1.72,1.72,0,0,1,94.76,149.92Zm-46.5-3.44H93V129.06H48.26Z" fill="#003887"/>
    <rect id="Rectángulo_37715" data-name="Rectángulo 37715" width="22.35" height="31.81" transform="translate(46.54 155.71)" fill="#fe7062"/>
    <path id="Trazado_143472" data-name="Trazado 143472" d="M68.89,189.24H46.54a1.72,1.72,0,0,1-1.72-1.72V155.71A1.72,1.72,0,0,1,46.54,154H68.89a1.72,1.72,0,0,1,1.72,1.72v31.81A1.72,1.72,0,0,1,68.89,189.24ZM48.26,185.8H67.17V157.43H48.26Z" fill="#003887"/>
    <rect id="Rectángulo_37716" data-name="Rectángulo 37716" width="24.42" height="24.92" transform="translate(69.05 162.6)" fill="#fff"/>
    <path id="Trazado_143473" data-name="Trazado 143473" d="M93.47,189.24H69.05a1.72,1.72,0,0,1-1.72-1.72V162.6a1.72,1.72,0,0,1,1.72-1.72H93.47a1.72,1.72,0,0,1,1.72,1.72v24.92A1.72,1.72,0,0,1,93.47,189.24Zm-22.7-3.44h21V164.32h-21Z" fill="#003887"/>
    <path id="Trazado_143474" data-name="Trazado 143474" d="M87.83,183.57a1.74,1.74,0,0,1-1.23-.51L67.82,163.8a1.72,1.72,0,0,1,2.46-2.4l18.79,19.25a1.73,1.73,0,0,1,0,2.44,1.75,1.75,0,0,1-1.24.48Z" fill="#003887"/>
    <path id="Trazado_143475" data-name="Trazado 143475" d="M69,188.33a1.76,1.76,0,0,1-1.21-.49,1.72,1.72,0,0,1,0-2.44l8.13-8.3a1.722,1.722,0,1,1,2.46,2.41l-8.14,8.3A1.71,1.71,0,0,1,69,188.33Z" fill="#003887"/>
    <path id="Trazado_143476" data-name="Trazado 143476" d="M84.21,172.76A1.72,1.72,0,0,1,83,169.83l8.27-8.44a1.722,1.722,0,0,1,2.46,2.41l-8.27,8.44A1.74,1.74,0,0,1,84.21,172.76Z" fill="#003887"/>
    <rect id="Rectángulo_37717" data-name="Rectángulo 37717" width="22.35" height="31.81" transform="translate(93.47 155.71)" fill="#fe7062"/>
    <path id="Trazado_143477" data-name="Trazado 143477" d="M115.82,189.24H93.47a1.72,1.72,0,0,1-1.72-1.72V155.71A1.72,1.72,0,0,1,93.47,154h22.35a1.72,1.72,0,0,1,1.72,1.72v31.81A1.72,1.72,0,0,1,115.82,189.24ZM95.19,185.8H114.1V157.43H95.19Z" fill="#003887"/>
    <rect id="Rectángulo_37718" data-name="Rectángulo 37718" width="16.94" height="22.79" transform="translate(115.82 164.73)" fill="#fe7062"/>
    <path id="Trazado_143478" data-name="Trazado 143478" d="M132.76,189.24H115.82a1.72,1.72,0,0,1-1.72-1.72V164.73a1.72,1.72,0,0,1,1.72-1.72h16.94a1.72,1.72,0,0,1,1.72,1.72v22.79a1.72,1.72,0,0,1-1.72,1.72Zm-15.22-3.44H131V166.45H117.5Z" fill="#003887"/>
    <rect id="Rectángulo_37719" data-name="Rectángulo 37719" width="19.82" height="31.81" transform="translate(132.76 155.71)" fill="#fe7062"/>
    <path id="Trazado_143479" data-name="Trazado 143479" d="M152.58,189.24H132.76a1.72,1.72,0,0,1-1.72-1.72V155.71a1.72,1.72,0,0,1,1.72-1.72h19.82a1.72,1.72,0,0,1,1.72,1.72v31.81A1.72,1.72,0,0,1,152.58,189.24Zm-18.1-3.44h16.37V157.43H134.48Z" fill="#003887"/>
    <path id="Trazado_143480" data-name="Trazado 143480" d="M152.58,72.32h-106a1.72,1.72,0,0,1,0-3.44h106a1.72,1.72,0,1,1,0,3.44Z" fill="#003887"/>
    <circle id="Elipse_4583" data-name="Elipse 4583" cx="13.14" cy="13.14" r="13.14" transform="translate(146.24 190.14)" fill="#7ab1ff"/>
    <path id="Trazado_143481" data-name="Trazado 143481" d="M159.38,218.14a14.86,14.86,0,1,1,14.86-14.86,14.86,14.86,0,0,1-14.86,14.86Zm0-26.28a11.42,11.42,0,1,0,11.42,11.42A11.42,11.42,0,0,0,159.38,191.86Z" fill="#003887"/>
    <path id="Trazado_143482" data-name="Trazado 143482" d="M165.27,203.28a5.89,5.89,0,1,1-5.89-5.89A5.89,5.89,0,0,1,165.27,203.28Z" fill="#fff"/>
    <path id="Trazado_143483" data-name="Trazado 143483" d="M159.38,210.88a7.61,7.61,0,1,1,7.61-7.6,7.61,7.61,0,0,1-7.61,7.6Zm0-11.77a4.17,4.17,0,1,0,4.16,4.17,4.17,4.17,0,0,0-4.16-4.17Z" fill="#003887"/>
    <circle id="Elipse_4584" data-name="Elipse 4584" cx="13.14" cy="13.14" r="13.14" transform="translate(26.59 190.14)" fill="#7ab1ff"/>
    <path id="Trazado_143484" data-name="Trazado 143484" d="M39.73,218.14a14.86,14.86,0,1,1,14.86-14.86,14.86,14.86,0,0,1-14.86,14.86Zm0-26.28a11.42,11.42,0,1,0,11.42,11.42A11.42,11.42,0,0,0,39.73,191.86Z" fill="#003887"/>
    <path id="Trazado_143485" data-name="Trazado 143485" d="M45.62,203.28a5.89,5.89,0,1,1-5.89-5.89,5.89,5.89,0,0,1,5.89,5.89Z" fill="#fff"/>
    <path id="Trazado_143486" data-name="Trazado 143486" d="M39.73,210.88a7.61,7.61,0,1,1,7.61-7.6A7.61,7.61,0,0,1,39.73,210.88Zm0-11.77a4.17,4.17,0,1,0,4.17,4.17A4.17,4.17,0,0,0,39.73,199.11Z" fill="#003887"/>
  </g>
</svg>
