<svg xmlns="http://www.w3.org/2000/svg" width="364.603" height="371.111" viewBox="0 0 364.603 371.111">
  <g id="img16" transform="translate(-17.059 -17.488)">
    <path id="Trazado_143765" data-name="Trazado 143765" d="M24.4,253.644a1.9,1.9,0,0,1-1.845-1.459,179.292,179.292,0,0,1-3.484-20.752,1.9,1.9,0,0,1,3.776-.412,177.249,177.249,0,0,0,3.433,20.314,1.888,1.888,0,0,1-1.407,2.257A1.837,1.837,0,0,1,24.4,253.644Zm-4.5-41.333h0A1.9,1.9,0,0,1,18.01,210.4c.043-5.845.369-11.784.978-17.637.112-1.124.24-2.24.378-3.356a1.905,1.905,0,0,1,3.776.455c-.137,1.1-.257,2.188-.378,3.287-.592,5.742-.918,11.552-.953,17.276a1.905,1.905,0,0,1-1.914,1.888Zm5.038-41.264A2.033,2.033,0,0,1,24.49,171a1.9,1.9,0,0,1-1.4-2.291,182.4,182.4,0,0,1,6.068-20.151,1.905,1.905,0,0,1,3.57,1.313,177.1,177.1,0,0,0-6.008,19.739,1.9,1.9,0,0,1-1.785,1.442Zm14.332-39.015a1.914,1.914,0,0,1-.858-.206,1.888,1.888,0,0,1-.858-2.575,180.491,180.491,0,0,1,10.573-18.195,1.9,1.9,0,1,1,3.167,2.094,178.014,178.014,0,0,0-10.35,17.808A1.888,1.888,0,0,1,39.268,132.033ZM62.2,97.334a1.9,1.9,0,0,1-1.45-3.124A184.121,184.121,0,0,1,75.2,78.925a1.9,1.9,0,1,1,2.575,2.764A182.169,182.169,0,0,0,63.617,96.656,1.88,1.88,0,0,1,62.2,97.334ZM92.453,68.815a1.905,1.905,0,0,1-1.141-3.433,185.785,185.785,0,0,1,17.559-11.595,1.9,1.9,0,0,1,1.905,3.287A182.462,182.462,0,0,0,93.612,68.429a1.854,1.854,0,0,1-1.159.386Z" transform="translate(-0.951 -5.11)" fill="#3b50a8"/>
    <path id="Trazado_143766" data-name="Trazado 143766" d="M225.12,446.677a1.905,1.905,0,0,1-.069-3.8,178.253,178.253,0,0,0,20.5-1.991,1.905,1.905,0,0,1,.584,3.759,183.774,183.774,0,0,1-20.906,2.034Zm-20.812-.386h-.146c-1.716-.129-3.364-.275-5.055-.455-5.287-.541-10.6-1.33-15.8-2.326a1.9,1.9,0,1,1,.712-3.733c5.1.978,10.3,1.716,15.448,2.283,1.648.172,3.3.318,4.952.446a1.9,1.9,0,0,1-.146,3.793Zm61.887-6.008a1.905,1.905,0,0,1-.506-3.733,180.462,180.462,0,0,0,19.49-6.66,1.9,1.9,0,1,1,1.433,3.519,181.43,181.43,0,0,1-19.911,6.806,2,2,0,0,1-.506.043Zm-102.756-1.845a1.853,1.853,0,0,1-.566-.086,181.4,181.4,0,0,1-19.671-7.484,1.9,1.9,0,1,1,1.553-3.433,175.579,175.579,0,0,0,19.293,7.312,1.905,1.905,0,0,1-.575,3.716Z" transform="translate(-18.512 -58.079)" fill="#3b50a8"/>
    <path id="Trazado_143767" data-name="Trazado 143767" d="M425.226,210.679a1.888,1.888,0,0,1-1.9-1.871,178.5,178.5,0,0,0-1.468-20.546,1.9,1.9,0,0,1,1.639-2.128,1.871,1.871,0,0,1,2.128,1.639,180.233,180.233,0,0,1,1.493,20.984,1.888,1.888,0,0,1-1.871,1.922Zm-5.347-41.2a1.914,1.914,0,0,1-1.845-1.442,178.507,178.507,0,0,0-6.154-19.654,1.9,1.9,0,1,1,3.553-1.339,181.805,181.805,0,0,1,6.291,20.031,1.914,1.914,0,0,1-1.382,2.309,2.145,2.145,0,0,1-.463.086Zm-14.693-38.878a1.914,1.914,0,0,1-1.716-1.03,178.729,178.729,0,0,0-10.5-17.723,1.905,1.905,0,0,1,3.158-2.12,181.943,181.943,0,0,1,10.711,18.1,1.888,1.888,0,0,1-.815,2.575,1.854,1.854,0,0,1-.841.189ZM382.014,96.114a1.88,1.88,0,0,1-1.442-.669,180.981,180.981,0,0,0-14.247-14.882,1.9,1.9,0,0,1,2.575-2.738,183.024,183.024,0,0,1,14.59,15.191,1.9,1.9,0,0,1-.206,2.678,1.931,1.931,0,0,1-1.3.412Zm-30.45-28.322a1.88,1.88,0,0,1-1.124-.369,179.078,179.078,0,0,0-17.276-11.217,1.9,1.9,0,1,1,1.854-3.27,184.041,184.041,0,0,1,17.645,11.457,1.9,1.9,0,0,1-1.124,3.433Z" transform="translate(-45.461 -4.97)" fill="#3b50a8"/>
    <rect id="Rectángulo_37741" data-name="Rectángulo 37741" width="61.158" height="116.308" transform="translate(200.858 28.861)" fill="#fff"/>
    <path id="Trazado_143768" data-name="Trazado 143768" d="M293,148.609H231.855a1.9,1.9,0,0,1-1.905-1.9V30.4a1.905,1.905,0,1,1,3.8,0V144.772h57.356V30.4a1.905,1.905,0,1,1,3.8,0V146.712a1.9,1.9,0,0,1-1.905,1.9Z" transform="translate(-30.997 -1.543)" fill="#3b50a8"/>
    <path id="Trazado_143769" data-name="Trazado 143769" d="M146.32,158.36V129.3a27.385,27.385,0,0,1,26.325-27.36h16.312a27.011,27.011,0,0,1,22.661,12.3l0,42.675Z" transform="translate(-19.141 -11.973)" fill="#ffa08d"/>
    <path id="Trazado_143770" data-name="Trazado 143770" d="M146.007,159.951a1.9,1.9,0,0,1-1.9-1.905v-29.06A29.18,29.18,0,0,1,172.217,99.72h16.427A28.862,28.862,0,0,1,212.9,112.877a1.931,1.931,0,0,1,.3,1.038V156.6a1.9,1.9,0,1,1-3.793,0V114.49a25.052,25.052,0,0,0-20.761-10.968H172.337a25.378,25.378,0,0,0-24.382,25.464v29.06a1.905,1.905,0,0,1-1.948,1.905Z" transform="translate(-18.828 -11.658)" fill="#3b50a8"/>
    <path id="Trazado_143771" data-name="Trazado 143771" d="M290.955,197.328H150.814a15.534,15.534,0,1,1,0-31.068H290.955a15.534,15.534,0,0,1,0,31.068Z" transform="translate(-17.576 -21.091)" fill="#ffa08d"/>
    <path id="Trazado_143772" data-name="Trazado 143772" d="M290.64,198.919H150.5a17.439,17.439,0,0,1,0-34.879H290.64a17.439,17.439,0,1,1,0,34.879ZM150.5,167.842a13.637,13.637,0,1,0,0,27.275H290.64a13.637,13.637,0,1,0,0-27.275Z" transform="translate(-17.262 -20.776)" fill="#3b50a8"/>
    <path id="Trazado_143773" data-name="Trazado 143773" d="M168.777,183.1a8,8,0,1,1-8-8,8,8,0,0,1,8,8Z" transform="translate(-20.057 -22.344)" fill="#fff"/>
    <path id="Trazado_143774" data-name="Trazado 143774" d="M160.465,192.731a9.9,9.9,0,1,1,9.9-9.9A9.9,9.9,0,0,1,160.465,192.731Zm0-16a2.531,2.531,0,1,0,0-.043Z" transform="translate(-19.744 -22.038)" fill="#3b50a8"/>
    <path id="Trazado_143775" data-name="Trazado 143775" d="M314.627,182.982A8,8,0,1,1,306.672,175a8,8,0,0,1,7.956,7.982Z" transform="translate(-40.734 -22.33)" fill="#fff"/>
    <path id="Trazado_143776" data-name="Trazado 143776" d="M306.365,192.561a9.9,9.9,0,1,1,9.9-9.9A9.9,9.9,0,0,1,306.365,192.561Zm0-15.989a6.093,6.093,0,1,0,6.093,6.093,6.093,6.093,0,0,0-6.093-6.093Z" transform="translate(-40.428 -22.014)" fill="#3b50a8"/>
    <path id="Trazado_143777" data-name="Trazado 143777" d="M278.067,183.039a8,8,0,1,1-8-8,8,8,0,0,1,8,8Z" transform="translate(-35.551 -22.336)" fill="#fff"/>
    <path id="Trazado_143778" data-name="Trazado 143778" d="M269.755,192.621a9.9,9.9,0,1,1,9.9-9.9A9.9,9.9,0,0,1,269.755,192.621Zm0-15.989a6.093,6.093,0,1,0,6.093,6.093,6.093,6.093,0,0,0-6.093-6.093Z" transform="translate(-35.238 -22.022)" fill="#3b50a8"/>
    <path id="Trazado_143779" data-name="Trazado 143779" d="M205.357,183.039a8,8,0,1,1-8-8A8,8,0,0,1,205.357,183.039Z" transform="translate(-25.243 -22.336)" fill="#fff"/>
    <path id="Trazado_143780" data-name="Trazado 143780" d="M197.025,192.621a9.9,9.9,0,1,1,9.9-9.9,9.9,9.9,0,0,1-9.9,9.9Zm0-15.989a6.094,6.094,0,1,0,4.314,1.782,6.093,6.093,0,0,0-4.314-1.782Z" transform="translate(-24.927 -22.022)" fill="#3b50a8"/>
    <path id="Trazado_143781" data-name="Trazado 143781" d="M241.7,183.033a8,8,0,1,1-2.337-5.684A8,8,0,0,1,241.7,183.033Z" transform="translate(-30.395 -22.33)" fill="#fff"/>
    <path id="Trazado_143782" data-name="Trazado 143782" d="M233.367,192.621a9.9,9.9,0,1,1,9.9-9.9,9.9,9.9,0,0,1-9.9,9.9Zm0-15.989a6.093,6.093,0,1,0,6.1,6.093,6.093,6.093,0,0,0-6.1-6.093Z" transform="translate(-30.08 -22.022)" fill="#3b50a8"/>
    <path id="Trazado_143783" data-name="Trazado 143783" d="M245.384,116.4H208.961a3.021,3.021,0,0,0-3.021,3.021v39.771h42.474V119.421a3.03,3.03,0,0,0-3.03-3.021Z" transform="translate(-27.594 -14.023)" fill="#91b3fa"/>
    <path id="Trazado_143784" data-name="Trazado 143784" d="M248.092,160.775H205.627a1.9,1.9,0,0,1-1.9-1.9v-39.77a4.926,4.926,0,0,1,4.918-4.918H245.08A4.926,4.926,0,0,1,250,119.108v39.771a1.9,1.9,0,0,1-1.905,1.9Zm-40.569-3.836H246.2V119.108a1.124,1.124,0,0,0-1.116-1.124H208.648a1.124,1.124,0,0,0-1.124,1.124Z" transform="translate(-27.28 -13.709)" fill="#3b50a8"/>
    <path id="Trazado_143785" data-name="Trazado 143785" d="M304.224,116.4H267.8a3.021,3.021,0,0,0-3.021,3.021v39.771h42.465V119.421a3.021,3.021,0,0,0-3.021-3.021Z" transform="translate(-35.935 -14.023)" fill="#91b3fa"/>
    <path id="Trazado_143786" data-name="Trazado 143786" d="M306.939,160.775H264.465a1.905,1.905,0,0,1-1.905-1.9V119.108a4.926,4.926,0,0,1,4.926-4.918H303.91a4.926,4.926,0,0,1,4.926,4.918v39.771a1.9,1.9,0,0,1-1.9,1.9Zm-40.569-3.836h38.672V119.108a1.124,1.124,0,0,0-1.124-1.124H267.486a1.124,1.124,0,0,0-1.124,1.124Z" transform="translate(-35.621 -13.709)" fill="#3b50a8"/>
    <path id="Trazado_143787" data-name="Trazado 143787" d="M193.426,90.59v8.934a7.793,7.793,0,1,1-15.586,0v-8.84Z" transform="translate(-23.61 -10.364)" fill="#fff"/>
    <path id="Trazado_143788" data-name="Trazado 143788" d="M185.279,108.851a9.707,9.707,0,0,1-9.689-9.647v-8.84a1.905,1.905,0,1,1,3.8,0V99.2a5.887,5.887,0,1,0,11.775,0V90.27a1.905,1.905,0,0,1,3.8,0V99.2a9.7,9.7,0,0,1-9.689,9.647Z" transform="translate(-23.29 -10.043)" fill="#3b50a8"/>
    <path id="Trazado_143789" data-name="Trazado 143789" d="M165.435,55.689a7.243,7.243,0,0,0,0,14.478V72.1a14.41,14.41,0,0,0,14.41,14.418h5.948A14.418,14.418,0,0,0,200.21,72.1V70.176a7.252,7.252,0,0,0,0-14.5Z" transform="translate(-20.86 -5.414)" fill="#fff"/>
    <path id="Trazado_143790" data-name="Trazado 143790" d="M185.477,88.1H179.53a16.306,16.306,0,0,1-16.306-16.306v-.249a9.14,9.14,0,0,1,1.871-18.023h0a1.9,1.9,0,1,1,0,3.793,5.347,5.347,0,0,0,0,10.685,1.9,1.9,0,0,1,1.871,1.9v1.931A12.53,12.53,0,0,0,179.478,84.34h5.948a12.53,12.53,0,0,0,12.513-12.513V69.862a1.9,1.9,0,0,1,1.905-1.9,5.347,5.347,0,0,0,0-10.694,1.905,1.905,0,1,1,0-3.8,9.149,9.149,0,0,1,1.9,18.092v.223A16.306,16.306,0,0,1,185.477,88.1Z" transform="translate(-20.545 -5.1)" fill="#3b50a8"/>
    <path id="Trazado_143791" data-name="Trazado 143791" d="M178.125,26.36a25.017,25.017,0,0,0-19.6,17.577h-1.081a3.8,3.8,0,1,0,0,7.6h49.494a3.8,3.8,0,1,0,0-7.6h-1.081A24.631,24.631,0,0,0,186.322,26.36Z" transform="translate(-20.179 -1.258)" fill="#91b3fa"/>
    <path id="Trazado_143792" data-name="Trazado 143792" d="M206.64,53.123H157.146a5.707,5.707,0,0,1-.318-11.4A26.871,26.871,0,0,1,177.5,24.175a1.9,1.9,0,0,1,.661,3.742,22.975,22.975,0,0,0-18.1,16.221,1.905,1.905,0,0,1-1.837,1.382h-1.081a1.905,1.905,0,0,0,0,3.8H206.64a1.905,1.905,0,0,0,0-3.8h-1.09a1.905,1.905,0,0,1-1.828-1.382A22.76,22.76,0,0,0,185.7,27.917a1.9,1.9,0,1,1,.635-3.742,26.605,26.605,0,0,1,20.6,17.551,5.707,5.707,0,0,1-.318,11.4Z" transform="translate(-19.883 -0.944)" fill="#3b50a8"/>
    <path id="Trazado_143793" data-name="Trazado 143793" d="M182.159,34.548V24.576a4.077,4.077,0,1,1,8.145,0v9.973Z" transform="translate(-24.222 -0.4)" fill="#fed66f"/>
    <path id="Trazado_143794" data-name="Trazado 143794" d="M189.985,36.045a1.9,1.9,0,0,1-1.9-1.9V24.175a2.18,2.18,0,0,0-4.351,0v9.973a1.9,1.9,0,1,1-3.793,0V24.175a6.008,6.008,0,1,1,11.938,0v9.973A1.9,1.9,0,0,1,189.985,36.045Z" transform="translate(-23.903)" fill="#3b50a8"/>
    <path id="Trazado_143795" data-name="Trazado 143795" d="M161.087,162.785a1.9,1.9,0,0,1-1.9-1.9V130.146a1.905,1.905,0,0,1,3.8,0v30.742a1.9,1.9,0,0,1-1.905,1.9Z" transform="translate(-20.966 -15.719)" fill="#3b50a8"/>
    <path id="Trazado_143796" data-name="Trazado 143796" d="M292.4,60.652H232.576a1.905,1.905,0,0,1,0-3.8H292.4a1.905,1.905,0,0,1,0,3.8Z" transform="translate(-31.118 -5.58)" fill="#3b50a8"/>
    <path id="Trazado_143797" data-name="Trazado 143797" d="M291.653,96.721H231.834a1.905,1.905,0,1,1,0-3.8h59.819a1.905,1.905,0,1,1,0,3.8Z" transform="translate(-30.976 -10.693)" fill="#3b50a8"/>
    <path id="Trazado_143798" data-name="Trazado 143798" d="M335.209,119.23a28.674,28.674,0,0,0-12.453-37.814l2.137-4.437a1.6,1.6,0,0,0-2.068-2.18l-10.891,4.557a1.588,1.588,0,0,0-.944,1.914l3.227,11.363a1.6,1.6,0,0,0,2.987.257l1.837-3.811a19.937,19.937,0,0,1,7.432,25.592l-3.356,6.96a4.909,4.909,0,0,0,2.291,6.548l.094.052a4.909,4.909,0,0,0,6.574-2.343Z" transform="translate(-42.478 -8.107)" fill="#ffa08d"/>
    <path id="Trazado_143799" data-name="Trazado 143799" d="M327.328,130.31a6.72,6.72,0,0,1-2.944-.678,6.866,6.866,0,0,1-3.27-9.132l3.356-6.96a18.023,18.023,0,0,0-4.978-21.928l-.858,1.8a3.51,3.51,0,0,1-6.531-.566l-3.236-11.337a3.51,3.51,0,0,1,2.017-4.2l10.9-4.549A3.51,3.51,0,0,1,326.3,77.52l-1.373,2.841a30.442,30.442,0,0,1,11.689,39.4l-3.115,6.651a6.806,6.806,0,0,1-6.171,3.922Zm-8.582-43.444a1.9,1.9,0,0,1,1,.292,21.791,21.791,0,0,1,8.145,28.03l-3.356,6.96a3.012,3.012,0,0,0,1.4,4.017,3.072,3.072,0,0,0,2.4.172,3.013,3.013,0,0,0,1.716-1.562l3.124-6.66h0a26.682,26.682,0,0,0-11.638-35.308,1.9,1.9,0,0,1-.858-2.506l1.8-3.742-9.938,4.154,2.944,10.367,1.5-3.115a1.9,1.9,0,0,1,1.184-1,1.845,1.845,0,0,1,.566-.094Z" transform="translate(-42.166 -7.798)" fill="#3b50a8"/>
    <rect id="Rectángulo_37742" data-name="Rectángulo 37742" width="20.392" height="21.627" transform="translate(230.767 31.548)" fill="#91b3fa"/>
    <path id="Trazado_143800" data-name="Trazado 143800" d="M287.1,57.081H266.687a1.9,1.9,0,0,1-1.9-1.905V33.557a1.9,1.9,0,0,1,1.9-1.9h20.392a1.9,1.9,0,0,1,1.922,1.9V55.176a1.9,1.9,0,0,1-1.905,1.905Zm-18.486-3.8H285.2V35.453h-16.59Z" transform="translate(-35.937 -2.009)" fill="#3b50a8"/>
    <path id="Trazado_143801" data-name="Trazado 143801" d="M109.12,251.46v73.1h73.765v-73.1Z" transform="translate(-13.868 -33.17)" fill="#57dbd8"/>
    <path id="Trazado_143802" data-name="Trazado 143802" d="M182.57,326.139H108.805a1.9,1.9,0,0,1-1.905-1.9v-73.1a1.9,1.9,0,0,1,1.905-1.9H182.57a1.9,1.9,0,0,1,1.9,1.9v73.1a1.9,1.9,0,0,1-1.9,1.9Zm-71.868-3.8h69.963V253.052H110.7Z" transform="translate(-13.553 -32.856)" fill="#3b50a8"/>
    <rect id="Rectángulo_37743" data-name="Rectángulo 37743" width="74.606" height="74.606" transform="translate(108.872 282.752)" fill="#fff"/>
    <path id="Trazado_143803" data-name="Trazado 143803" d="M199.283,402.76h-74.6a1.9,1.9,0,0,1-1.905-1.9V326.257a1.9,1.9,0,0,1,1.905-1.9h74.606a1.9,1.9,0,0,1,1.9,1.9v74.606a1.9,1.9,0,0,1-1.905,1.9Zm-72.709-3.8h70.8v-70.8h-70.8Z" transform="translate(-15.804 -43.504)" fill="#3b50a8"/>
    <path id="Trazado_143804" data-name="Trazado 143804" d="M125.28,326.57l63.509,63.784Z" transform="translate(-16.159 -43.818)" fill="#fff"/>
    <path id="Trazado_143805" data-name="Trazado 143805" d="M188.505,391.937a1.871,1.871,0,0,1-1.347-.558L123.649,327.6a1.9,1.9,0,1,1,2.695-2.678L189.853,388.7a1.9,1.9,0,0,1-1.347,3.236Z" transform="translate(-15.849 -43.504)" fill="#3b50a8"/>
    <path id="Trazado_143806" data-name="Trazado 143806" d="M152.609,379.61,125,407.228Z" transform="translate(-16.119 -51.337)" fill="#fff"/>
    <path id="Trazado_143807" data-name="Trazado 143807" d="M124.686,408.811a1.9,1.9,0,0,1-1.347-3.236l27.618-27.618a1.9,1.9,0,1,1,2.686,2.678l-27.618,27.626A1.888,1.888,0,0,1,124.686,408.811Z" transform="translate(-15.805 -51.024)" fill="#3b50a8"/>
    <path id="Trazado_143808" data-name="Trazado 143808" d="M205.5,326.57,177,355.063Z" transform="translate(-23.491 -43.818)" fill="#fff"/>
    <path id="Trazado_143809" data-name="Trazado 143809" d="M176.688,356.662a1.905,1.905,0,0,1-1.339-3.244l28.493-28.511a1.9,1.9,0,1,1,2.686,2.678l-28.485,28.493a1.922,1.922,0,0,1-1.356.584Z" transform="translate(-23.179 -43.503)" fill="#3b50a8"/>
    <path id="Trazado_143810" data-name="Trazado 143810" d="M62.38,207.03v83.721h39.565V207.03Z" transform="translate(-7.242 -26.871)" fill="#91b3fa"/>
    <path id="Trazado_143811" data-name="Trazado 143811" d="M101.631,292.338H62.067a1.9,1.9,0,0,1-1.9-1.905V206.687a1.9,1.9,0,0,1,1.9-1.9h39.565a1.905,1.905,0,0,1,1.905,1.9v83.721a1.905,1.905,0,0,1-1.905,1.931Zm-37.668-3.8H99.735V208.618H63.963Z" transform="translate(-6.928 -26.553)" fill="#3b50a8"/>
    <rect id="Rectángulo_37744" data-name="Rectángulo 37744" width="73.817" height="117.389" transform="translate(35.047 239.969)" fill="#fff"/>
    <path id="Trazado_143812" data-name="Trazado 143812" d="M112.495,395.692H38.687a1.9,1.9,0,0,1-1.9-1.9V276.407a1.9,1.9,0,0,1,1.9-1.9h73.808a1.9,1.9,0,0,1,1.905,1.9V393.8a1.9,1.9,0,0,1-1.905,1.9ZM40.583,391.9H110.6V278.312H40.566Z" transform="translate(-3.614 -36.437)" fill="#3b50a8"/>
    <path id="Trazado_143813" data-name="Trazado 143813" d="M86.63,291.1v9.878c0,4.617,4.489,8.351,10.033,8.351s10.024-3.725,10.024-8.351V291.1Z" transform="translate(-10.679 -38.789)" fill="#fff"/>
    <path id="Trazado_143814" data-name="Trazado 143814" d="M96.348,310.921c-6.583,0-11.938-4.6-11.938-10.256v-9.878a1.905,1.905,0,0,1,1.905-1.9h20.057a1.9,1.9,0,0,1,1.905,1.9v9.878C108.269,306.321,102.939,310.921,96.348,310.921Zm-8.136-18.229v7.973c0,3.562,3.647,6.454,8.136,6.454s8.119-2.892,8.119-6.454v-7.973Z" transform="translate(-10.365 -38.476)" fill="#3b50a8"/>
    <path id="Trazado_143815" data-name="Trazado 143815" d="M98,329.444a1.9,1.9,0,0,1-1.9-1.9V314.176a1.905,1.905,0,0,1,3.8,0v13.371a1.9,1.9,0,0,1-1.905,1.9Z" transform="translate(-12.022 -41.809)" fill="#3b50a8"/>
    <path id="Trazado_143816" data-name="Trazado 143816" d="M103.578,331.633H90.207a1.9,1.9,0,1,1,0-3.793h13.371a1.9,1.9,0,1,1,0,3.793Z" transform="translate(-10.918 -43.998)" fill="#3b50a8"/>
    <path id="Trazado_143817" data-name="Trazado 143817" d="M266.982,231.57H397.056a7.6,7.6,0,0,1,7.3,7.87V379.375a7.6,7.6,0,0,1-7.3,7.861H266.982a7.6,7.6,0,0,1-7.312-7.861V239.483C259.67,235.089,262.948,231.57,266.982,231.57Z" transform="translate(-35.211 -30.35)" fill="#fff"/>
    <path id="Trazado_143818" data-name="Trazado 143818" d="M396.743,388.82H266.669a9.5,9.5,0,0,1-9.209-9.758V239.118a9.5,9.5,0,0,1,9.209-9.758H396.743a9.51,9.51,0,0,1,9.209,9.758V379.062A9.51,9.51,0,0,1,396.743,388.82ZM266.669,233.162a5.708,5.708,0,0,0-5.407,5.956V379.062a5.716,5.716,0,0,0,5.407,5.965H396.743a5.716,5.716,0,0,0,5.407-5.965V239.118a5.708,5.708,0,0,0-5.407-5.956Z" transform="translate(-34.898 -30.037)" fill="#3b50a8"/>
    <path id="Trazado_143819" data-name="Trazado 143819" d="M415.979,301.131H343.664a1.905,1.905,0,1,1,0-3.8H416a1.905,1.905,0,0,1,0,3.8Z" transform="translate(-46.83 -39.672)" fill="#3b50a8"/>
    <path id="Trazado_143820" data-name="Trazado 143820" d="M331.817,301.131H260.094a1.905,1.905,0,1,1,0-3.8h71.723a1.905,1.905,0,0,1,0,3.8Z" transform="translate(-34.983 -39.672)" fill="#3b50a8"/>
    <path id="Trazado_143821" data-name="Trazado 143821" d="M331.817,330.281H260.094a1.905,1.905,0,1,1,0-3.8h71.723a1.905,1.905,0,0,1,0,3.8Z" transform="translate(-34.983 -43.804)" fill="#3b50a8"/>
    <path id="Trazado_143822" data-name="Trazado 143822" d="M331.714,383.641h-71.62a1.905,1.905,0,1,1,0-3.8h71.62a1.905,1.905,0,0,1,0,3.8Z" transform="translate(-34.983 -51.369)" fill="#3b50a8"/>
    <path id="Trazado_143823" data-name="Trazado 143823" d="M415.885,383.641h-72.34a1.905,1.905,0,1,1,0-3.8h72.34a1.905,1.905,0,1,1,0,3.8Z" transform="translate(-46.813 -51.369)" fill="#3b50a8"/>
    <path id="Trazado_143824" data-name="Trazado 143824" d="M415.979,330.281H343.664a1.905,1.905,0,1,1,0-3.8H416a1.905,1.905,0,1,1,0,3.8Z" transform="translate(-46.83 -43.804)" fill="#3b50a8"/>
    <path id="Trazado_143825" data-name="Trazado 143825" d="M279.43,312.488l5-5.218v11.766Z" transform="translate(-38.012 -41.082)" fill="#fff"/>
    <path id="Trazado_143826" data-name="Trazado 143826" d="M284.123,320.628a1.9,1.9,0,0,1-1.9-1.905v-7.038l-1.716,1.8a1.9,1.9,0,0,1-2.738-2.635l5-5.21a1.9,1.9,0,0,1,3.27,1.313v11.784a1.9,1.9,0,0,1-1.922,1.888Z" transform="translate(-37.702 -40.768)" fill="#3b50a8"/>
    <path id="Trazado_143827" data-name="Trazado 143827" d="M292.98,312.488l5-5.218v11.766Z" transform="translate(-39.933 -41.082)" fill="#fff"/>
    <path id="Trazado_143828" data-name="Trazado 143828" d="M297.682,320.631a1.9,1.9,0,0,1-1.9-1.888v-7.037l-1.716,1.8a1.905,1.905,0,0,1-2.746-2.635l5-5.209a1.905,1.905,0,0,1,3.278,1.313v11.766A1.905,1.905,0,0,1,297.682,320.631Z" transform="translate(-39.632 -40.771)" fill="#3b50a8"/>
    <path id="Trazado_143829" data-name="Trazado 143829" d="M359.21,312.189l5-5.209v13.363Z" transform="translate(-49.322 -41.041)" fill="#fff"/>
    <path id="Trazado_143830" data-name="Trazado 143830" d="M363.851,321.933a1.9,1.9,0,0,1-1.9-1.905v-8.642l-1.716,1.8a1.905,1.905,0,1,1-2.746-2.635l5-5.209a1.905,1.905,0,0,1,3.278,1.322v13.363a1.905,1.905,0,0,1-1.922,1.905Z" transform="translate(-48.994 -40.726)" fill="#3b50a8"/>
    <path id="Trazado_143831" data-name="Trazado 143831" d="M372.57,306.87h6.454V313.6H372.57v6.729h6.454Z" transform="translate(-51.216 -41.025)" fill="#fff"/>
    <path id="Trazado_143832" data-name="Trazado 143832" d="M378.688,321.918h-6.454a1.9,1.9,0,0,1-1.905-1.905v-6.729a1.9,1.9,0,0,1,1.905-1.9h4.557v-2.927h-4.557a1.905,1.905,0,1,1,0-3.8h6.454a1.9,1.9,0,0,1,1.905,1.9v6.729a1.9,1.9,0,0,1-1.905,1.905h-4.557v2.927h4.557a1.905,1.905,0,1,1,0,3.8Z" transform="translate(-50.88 -40.711)" fill="#3b50a8"/>
    <path id="Trazado_143833" data-name="Trazado 143833" d="M279.43,395.749l5-5.209v11.045Z" transform="translate(-38.012 -52.887)" fill="#fff"/>
    <path id="Trazado_143834" data-name="Trazado 143834" d="M284.123,403.171a1.9,1.9,0,0,1-1.9-1.905v-6.36l-1.716,1.811a1.9,1.9,0,1,1-2.738-2.635l5-5.21a1.9,1.9,0,0,1,3.27,1.313v11.045a1.9,1.9,0,0,1-1.922,1.94Z" transform="translate(-37.702 -52.567)" fill="#3b50a8"/>
    <rect id="Rectángulo_37745" data-name="Rectángulo 37745" width="6.462" height="10.762" transform="translate(252.884 337.937)" fill="#fff"/>
    <path id="Trazado_143835" data-name="Trazado 143835" d="M298.959,403.223H292.5a1.905,1.905,0,0,1,0-3.8h4.557v-6.969H292.5a1.905,1.905,0,0,1,0-3.8h6.462a1.905,1.905,0,0,1,1.9,1.905v10.762a1.9,1.9,0,0,1-1.9,1.905Z" transform="translate(-39.613 -52.619)" fill="#3b50a8"/>
    <path id="Trazado_143836" data-name="Trazado 143836" d="M298.959,398.732H292.5a1.905,1.905,0,0,1,0-3.8h6.462a1.905,1.905,0,0,1,0,3.8Z" transform="translate(-39.613 -53.509)" fill="#3b50a8"/>
    <path id="Trazado_143837" data-name="Trazado 143837" d="M359.21,395.87l5-5.21v12.281Z" transform="translate(-49.322 -52.904)" fill="#fff"/>
    <path id="Trazado_143838" data-name="Trazado 143838" d="M363.862,404.523a1.9,1.9,0,0,1-1.9-1.9v-7.561l-1.716,1.8a1.9,1.9,0,1,1-2.746-2.626l5-5.218a1.905,1.905,0,0,1,3.278,1.322v12.307a1.905,1.905,0,0,1-1.922,1.871Z" transform="translate(-49.006 -52.589)" fill="#3b50a8"/>
    <path id="Trazado_143839" data-name="Trazado 143839" d="M371.06,390.86v6.72h6.462Z" transform="translate(-51.002 -52.932)" fill="#fff"/>
    <path id="Trazado_143840" data-name="Trazado 143840" d="M377.208,399.149h-6.462a1.9,1.9,0,0,1-1.9-1.9v-6.729a1.905,1.905,0,1,1,3.8,0v4.823h4.557a1.905,1.905,0,0,1,0,3.8Z" transform="translate(-50.688 -52.596)" fill="#3b50a8"/>
    <path id="Trazado_143841" data-name="Trazado 143841" d="M379.776,404.531a1.9,1.9,0,0,1-1.9-1.9v-12.11a1.905,1.905,0,1,1,3.8,0V402.66a1.9,1.9,0,0,1-1.905,1.871Z" transform="translate(-51.968 -52.596)" fill="#3b50a8"/>
    <rect id="Rectángulo_37746" data-name="Rectángulo 37746" width="41.547" height="39.504" transform="translate(242.173 219.492)" fill="#fff"/>
    <path id="Trazado_143842" data-name="Trazado 143842" d="M321.542,293.962H280a1.9,1.9,0,0,1-1.905-1.9V252.587a1.9,1.9,0,0,1,1.905-1.9h41.547a1.9,1.9,0,0,1,1.9,1.9v39.479a1.9,1.9,0,0,1-1.9,1.9Zm-39.65-3.8h37.762v-35.7H281.892Z" transform="translate(-37.822 -33.06)" fill="#3b50a8"/>
    <path id="Trazado_143843" data-name="Trazado 143843" d="M280.72,253.38,321.237,291.9Z" transform="translate(-38.195 -33.442)" fill="#fff"/>
    <path id="Trazado_143844" data-name="Trazado 143844" d="M320.923,293.482a1.9,1.9,0,0,1-1.313-.523l-40.517-38.5a1.9,1.9,0,1,1,2.618-2.755l40.517,38.517a1.885,1.885,0,0,1-1.3,3.261Z" transform="translate(-37.88 -33.13)" fill="#3b50a8"/>
    <path id="Trazado_143845" data-name="Trazado 143845" d="M294.815,283.4,282.74,294.883Z" transform="translate(-38.481 -37.698)" fill="#fff"/>
    <path id="Trazado_143846" data-name="Trazado 143846" d="M282.426,296.5a1.9,1.9,0,0,1-1.313-3.27L293.2,281.738a1.9,1.9,0,0,1,2.575,2.755L283.7,295.976a1.9,1.9,0,0,1-1.27.524Z" transform="translate(-38.167 -37.408)" fill="#3b50a8"/>
    <path id="Trazado_143847" data-name="Trazado 143847" d="M325.694,253.82,312.16,266.693Z" transform="translate(-42.652 -33.504)" fill="#fff"/>
    <path id="Trazado_143848" data-name="Trazado 143848" d="M311.844,268.246a1.9,1.9,0,0,1-1.313-3.278l13.534-12.874a1.9,1.9,0,1,1,2.618,2.755l-13.534,12.874A1.854,1.854,0,0,1,311.844,268.246Z" transform="translate(-42.337 -33.185)" fill="#3b50a8"/>
    <rect id="Rectángulo_37747" data-name="Rectángulo 37747" width="31.008" height="31.343" transform="translate(317.397 299.024)" fill="#91b3fa"/>
    <path id="Trazado_143849" data-name="Trazado 143849" d="M398.659,378.465H367.685a1.9,1.9,0,0,1-1.905-1.905V345.217a1.9,1.9,0,0,1,1.905-1.9h31.008a1.9,1.9,0,0,1,1.9,1.9v31.343a1.9,1.9,0,0,1-1.931,1.905Zm-29.111-3.8h27.215V347.122H369.548Z" transform="translate(-50.254 -46.192)" fill="#3b50a8"/>
    <path id="Trazado_143850" data-name="Trazado 143850" d="M343.685,389.058a1.905,1.905,0,0,1-1.905-1.905V231.486a1.905,1.905,0,0,1,3.8,0V387.153a1.905,1.905,0,0,1-1.9,1.905Z" transform="translate(-46.851 -30.086)" fill="#3b50a8"/>
    <rect id="Rectángulo_37748" data-name="Rectángulo 37748" width="31.008" height="31.343" transform="translate(234.792 299.024)" fill="#91b3fa"/>
    <path id="Trazado_143851" data-name="Trazado 143851" d="M302.4,378.465H271.4a1.9,1.9,0,0,1-1.9-1.905V345.217a1.9,1.9,0,0,1,1.9-1.9H302.4a1.9,1.9,0,0,1,1.905,1.9v31.343a1.9,1.9,0,0,1-1.905,1.905Zm-29.111-3.8h27.215V347.122H273.293Z" transform="translate(-36.604 -46.192)" fill="#3b50a8"/>
    <rect id="Rectángulo_37749" data-name="Rectángulo 37749" width="20.812" height="21.035" transform="translate(265.8 309.332)" fill="#ffa08d"/>
    <path id="Trazado_143852" data-name="Trazado 143852" d="M328.339,380.167H307.527a1.9,1.9,0,0,1-1.9-1.905V357.227a1.9,1.9,0,0,1,1.9-1.9h20.812a1.905,1.905,0,0,1,1.905,1.9v21.035a1.905,1.905,0,0,1-1.905,1.905Zm-18.881-3.8h17.01V359.132H309.432Z" transform="translate(-41.726 -47.895)" fill="#3b50a8"/>
  </g>
</svg>
