<svg xmlns="http://www.w3.org/2000/svg" width="337.068" height="342.078" viewBox="0 0 337.068 342.078">
  <g id="img13" transform="translate(-13.024 -11.535)">
    <path id="Trazado_143685" data-name="Trazado 143685" d="M66.014,349.215a1.655,1.655,0,0,1-1.16-.472A170.036,170.036,0,0,1,52.438,335.2a1.663,1.663,0,0,1,2.568-2.1,166.051,166.051,0,0,0,12.169,13.267,1.656,1.656,0,0,1-1.16,2.847ZM42.969,321.148a1.663,1.663,0,0,1-1.392-.774,167.97,167.97,0,0,1-9.167-15.913,1.661,1.661,0,0,1,2.963-1.5,165.043,165.043,0,0,0,8.989,15.6,1.671,1.671,0,0,1-.487,2.321,1.694,1.694,0,0,1-.905.263ZM26.591,288.734a1.671,1.671,0,0,1-1.547-1.083,166.448,166.448,0,0,1-5.493-17.53,1.663,1.663,0,1,1,3.218-.774,161.685,161.685,0,0,0,5.353,17.182,1.655,1.655,0,0,1-.975,2.135A1.679,1.679,0,0,1,26.591,288.734Zm-8.866-35.215a1.648,1.648,0,0,1-1.64-1.408A166.733,166.733,0,0,1,14.608,233.8a1.663,1.663,0,1,1,3.319-.085,163.474,163.474,0,0,0,1.447,17.94,1.663,1.663,0,0,1-1.423,1.872Z" transform="translate(-1.577 -51.12)" fill="#3b50a8"/>
    <path id="Trazado_143686" data-name="Trazado 143686" d="M346.2,388.742a1.656,1.656,0,0,1-.905-3.048,165.549,165.549,0,0,0,14.505-10.66,1.663,1.663,0,1,1,2.112,2.561,168.469,168.469,0,0,1-14.807,10.877A1.624,1.624,0,0,1,346.2,388.742Zm28.09-23.069a1.632,1.632,0,0,1-1.16-2.793,164.292,164.292,0,0,0,11.852-13.561,1.659,1.659,0,0,1,2.615,2.042,168.183,168.183,0,0,1-12.153,13.778,1.679,1.679,0,0,1-1.153.534Zm22.35-28.624a1.7,1.7,0,0,1-.866-.248,1.656,1.656,0,0,1-.542-2.282,164.368,164.368,0,0,0,8.548-15.8,1.658,1.658,0,1,1,2.994,1.423,164.969,164.969,0,0,1-8.757,16.145,1.663,1.663,0,0,1-1.416.75Z" transform="translate(-76.272 -70.541)" fill="#3b50a8"/>
    <path id="Trazado_143687" data-name="Trazado 143687" d="M323.981,50.249a1.694,1.694,0,0,1-1.006-.34,162.567,162.567,0,0,0-14.884-10.127,1.663,1.663,0,1,1,1.717-2.847A166.571,166.571,0,0,1,324.994,47.27a1.663,1.663,0,0,1-1.013,2.978ZM292.874,31.5a1.6,1.6,0,0,1-.7-.155,162.876,162.876,0,0,0-16.749-6.6,1.663,1.663,0,0,1,1.044-3.156,167.95,167.95,0,0,1,17.1,6.746,1.656,1.656,0,0,1-.7,3.164ZM258.394,20.07a1.315,1.315,0,0,1-.34-.039A168.323,168.323,0,0,0,240.663,17.3l-.4-.046a1.663,1.663,0,1,1,.325-3.3l.425.046a168.71,168.71,0,0,1,17.731,2.793,1.656,1.656,0,0,1-.348,3.28ZM204.1,17.579a1.663,1.663,0,0,1-.193-3.311A168.812,168.812,0,0,1,222.22,13.1h0a1.663,1.663,0,0,1,0,3.319,164.227,164.227,0,0,0-17.971,1.145Z" transform="translate(-44.109 -1.565)" fill="#3b50a8"/>
    <circle id="Elipse_4594" data-name="Elipse 4594" cx="17.221" cy="17.221" r="17.221" transform="translate(95.086 230.648) rotate(-80.78)" fill="#fff"/>
    <path id="Trazado_143688" data-name="Trazado 143688" d="M140.686,291.262a18.876,18.876,0,1,1,18.876-18.876,18.876,18.876,0,0,1-18.876,18.876Zm0-34.433a15.557,15.557,0,1,0,15.557,15.557A15.557,15.557,0,0,0,140.686,256.829Z" transform="translate(-25.848 -55.992)" fill="#3b50a8"/>
    <path id="Trazado_143689" data-name="Trazado 143689" d="M194.17,311.3V256.98h49.418v71.806H219.042Z" transform="translate(-42.23 -56.777)" fill="#91b3fa"/>
    <path id="Trazado_143690" data-name="Trazado 143690" d="M243.1,330.006H218.555a1.663,1.663,0,0,1,0-3.327h22.883V258.153h-46.1v52.667a1.663,1.663,0,0,1-3.319,0V256.513a1.663,1.663,0,0,1,1.663-1.663H243.1a1.663,1.663,0,0,1,1.663,1.663V328.3a1.663,1.663,0,0,1-1.663,1.7Z" transform="translate(-41.743 -56.295)" fill="#3b50a8"/>
    <path id="Trazado_143691" data-name="Trazado 143691" d="M166.27,416H288.291a6.668,6.668,0,0,1,0,13.329H166.27Z" transform="translate(-35.913 -92.778)" fill="#fff"/>
    <path id="Trazado_143692" data-name="Trazado 143692" d="M287.771,430.479H165.75a1.663,1.663,0,1,1,0-3.319H287.771a5.005,5.005,0,1,0,0-10H165.75a1.663,1.663,0,1,1,0-3.319H287.771a8.324,8.324,0,1,1,0,16.64Z" transform="translate(-35.394 -92.288)" fill="#3b50a8"/>
    <path id="Trazado_143693" data-name="Trazado 143693" d="M178.168,324.15h47.376v71.056H166.27Z" transform="translate(-35.913 -71.984)" fill="#fff"/>
    <path id="Trazado_143694" data-name="Trazado 143694" d="M225.057,396.385H165.783a1.663,1.663,0,1,1,0-3.326H223.4V325.329h-45.72a1.663,1.663,0,0,1,0-3.319h47.376a1.655,1.655,0,0,1,1.663,1.656v71.056a1.663,1.663,0,0,1-1.663,1.663Z" transform="translate(-35.427 -71.499)" fill="#3b50a8"/>
    <path id="Trazado_143695" data-name="Trazado 143695" d="M211.76,335.63V342.2c0,3.094,2.978,5.547,6.661,5.547s6.661-2.483,6.661-5.547V335.63Z" transform="translate(-46.212 -74.583)" fill="#fff"/>
    <path id="Trazado_143696" data-name="Trazado 143696" d="M217.934,348.916c-4.587,0-8.324-3.234-8.324-7.2v-6.568a1.663,1.663,0,0,1,1.663-1.656H224.61a1.656,1.656,0,0,1,1.656,1.656v6.568C226.25,345.682,222.522,348.916,217.934,348.916Zm-5-12.107v4.9c0,2.143,2.236,3.868,5,3.868s5-1.741,5-3.868v-4.9Z" transform="translate(-45.725 -74.098)" fill="#3b50a8"/>
    <path id="Trazado_143697" data-name="Trazado 143697" d="M219.883,362.908a1.663,1.663,0,0,1-1.663-1.656v-8.889a1.663,1.663,0,0,1,3.327,0v8.889A1.663,1.663,0,0,1,219.883,362.908Z" transform="translate(-47.674 -77.995)" fill="#3b50a8"/>
    <path id="Trazado_143698" data-name="Trazado 143698" d="M222.991,365.508H214.11a1.663,1.663,0,1,1,0-3.319h8.881a1.663,1.663,0,1,1,0,3.319Z" transform="translate(-46.342 -80.595)" fill="#3b50a8"/>
    <rect id="Rectángulo_37737" data-name="Rectángulo 37737" width="51.213" height="51.213" transform="translate(189.63 272.009)" fill="#fff"/>
    <path id="Trazado_143699" data-name="Trazado 143699" d="M293.618,402.182H242.406a1.656,1.656,0,0,1-1.656-1.656V349.313a1.663,1.663,0,0,1,1.656-1.663h51.213a1.663,1.663,0,0,1,1.663,1.663v51.213a1.655,1.655,0,0,1-1.663,1.656Zm-49.511-3.319H292V351.015H244.038Z" transform="translate(-52.775 -77.304)" fill="#3b50a8"/>
    <path id="Trazado_143700" data-name="Trazado 143700" d="M243.12,349.8l43.608,43.786Z" transform="translate(-53.312 -77.791)" fill="#fff"/>
    <path id="Trazado_143701" data-name="Trazado 143701" d="M286.194,394.714a1.655,1.655,0,0,1-1.176-.487L241.41,350.441a1.656,1.656,0,1,1,2.321-2.321l43.632,43.763a1.663,1.663,0,0,1-1.176,2.831Z" transform="translate(-52.777 -77.263)" fill="#3b50a8"/>
    <path id="Trazado_143702" data-name="Trazado 143702" d="M261.851,390.19,242.89,409.151Z" transform="translate(-53.26 -86.935)" fill="#fff"/>
    <path id="Trazado_143703" data-name="Trazado 143703" d="M242.408,410.374a1.663,1.663,0,0,1-1.168-2.831l18.953-18.953a1.663,1.663,0,0,1,2.321,2.321l-18.961,18.953A1.656,1.656,0,0,1,242.408,410.374Z" transform="translate(-52.777 -86.502)" fill="#3b50a8"/>
    <path id="Trazado_143704" data-name="Trazado 143704" d="M302.067,349.8,282.51,369.357Z" transform="translate(-62.229 -77.791)" fill="#fff"/>
    <path id="Trazado_143705" data-name="Trazado 143705" d="M282.03,370.594a1.625,1.625,0,0,1-1.168-.487,1.663,1.663,0,0,1,0-2.321l19.557-19.557a1.663,1.663,0,0,1,2.321,2.321l-19.557,19.557a1.656,1.656,0,0,1-1.153.487Z" transform="translate(-61.749 -77.365)" fill="#3b50a8"/>
    <path id="Trazado_143706" data-name="Trazado 143706" d="M152.3,362.323v1.648a6.583,6.583,0,0,0,13.151,0V327.34A19.34,19.34,0,0,0,146.111,308H125.223a20.655,20.655,0,0,0-20.663,20.655V362.3h13.151Z" transform="translate(-21.943 -68.328)" fill="#ffa08d"/>
    <path id="Trazado_143707" data-name="Trazado 143707" d="M158.4,371.73a8.254,8.254,0,0,1-8.247-8.239V330.581a1.663,1.663,0,1,1,3.327,0v32.909a4.92,4.92,0,1,0,9.84,0V326.86a17.716,17.716,0,0,0-17.692-17.692H124.743a19.023,19.023,0,0,0-19,19v31.981h9.848V330.581a1.663,1.663,0,1,1,3.319,0v31.262a1.663,1.663,0,0,1-1.663,1.663H104.1a1.663,1.663,0,0,1-1.656-1.663V328.2a22.342,22.342,0,0,1,22.319-22.319h20.887a21.034,21.034,0,0,1,21,20.98v36.6a8.254,8.254,0,0,1-8.239,8.27Z" transform="translate(-21.463 -67.848)" fill="#91b3fa"/>
    <rect id="Rectángulo_37738" data-name="Rectángulo 37738" width="34.557" height="63.034" transform="translate(95.799 288.92)" fill="#ffa08d"/>
    <path id="Trazado_143708" data-name="Trazado 143708" d="M155.673,435.862H121.116a1.656,1.656,0,0,1-1.656-1.656V371.173a1.655,1.655,0,0,1,1.656-1.663h34.557a1.663,1.663,0,0,1,1.663,1.663v63.034A1.663,1.663,0,0,1,155.673,435.862Zm-32.894-3.311h31.231V372.829H122.779Z" transform="translate(-25.316 -82.253)" fill="#3b50a8"/>
    <path id="Trazado_143709" data-name="Trazado 143709" d="M143.656,439.733A1.671,1.671,0,0,1,142,438.062V395.513a1.663,1.663,0,1,1,3.327,0v42.548a1.671,1.671,0,0,1-1.671,1.671Z" transform="translate(-30.419 -87.763)" fill="#3b50a8"/>
    <path id="Trazado_143710" data-name="Trazado 143710" d="M136.839,449.514a12.084,12.084,0,1,0-24.16,0Z" transform="translate(-23.78 -97.56)" fill="#fff"/>
    <path id="Trazado_143711" data-name="Trazado 143711" d="M136.352,450.677h-24.16a1.655,1.655,0,0,1-1.663-1.656,13.747,13.747,0,1,1,27.486,0A1.663,1.663,0,0,1,136.352,450.677Zm-22.365-3.311h20.578a10.421,10.421,0,0,0-20.578,0Z" transform="translate(-23.293 -97.068)" fill="#3b50a8"/>
    <path id="Trazado_143712" data-name="Trazado 143712" d="M168.069,449.514a12.084,12.084,0,1,0-24.16,0Z" transform="translate(-30.85 -97.56)" fill="#fff"/>
    <path id="Trazado_143713" data-name="Trazado 143713" d="M167.583,450.775h-24.16a1.655,1.655,0,0,1-1.663-1.656,13.739,13.739,0,1,1,27.479,0,1.656,1.656,0,0,1-1.656,1.656Zm-22.365-3.311h20.57a10.421,10.421,0,0,0-20.57,0Z" transform="translate(-30.365 -97.165)" fill="#3b50a8"/>
    <path id="Trazado_143714" data-name="Trazado 143714" d="M114.7,366.993a2.646,2.646,0,0,0-3.744,0L93.932,384.012a2.63,2.63,0,0,0,0,3.737l9.763,9.771a2.653,2.653,0,0,0,3.744,0l7.62-7.62Z" transform="translate(-19.36 -81.507)" fill="#fff"/>
    <path id="Trazado_143715" data-name="Trazado 143715" d="M105.062,399.5a4.255,4.255,0,0,1-3.048-1.269l-9.763-9.763a4.3,4.3,0,0,1,0-6.088l17.019-17.019a4.317,4.317,0,0,1,6.1,0,1.648,1.648,0,0,1,.487,1.153l.34,22.93a1.656,1.656,0,0,1-.487,1.2l-7.612,7.612a4.286,4.286,0,0,1-3.033,1.246Zm7.272-32.1a.99.99,0,0,0-.7.294L94.618,384.709a1.013,1.013,0,0,0-.294.7.982.982,0,0,0,.294.7l9.763,9.763a1.013,1.013,0,0,0,1.4,0l7.117-7.117-.317-21.344A.774.774,0,0,0,112.333,367.4Z" transform="translate(-18.87 -81.029)" fill="#3b50a8"/>
    <path id="Trazado_143716" data-name="Trazado 143716" d="M102.289,403.76l-5.2,5.191Z" transform="translate(-20.252 -90.007)" fill="#fff"/>
    <path id="Trazado_143717" data-name="Trazado 143717" d="M96.614,410.089a1.663,1.663,0,0,1-1.176-2.8l5.2-5.2a1.656,1.656,0,1,1,2.321,2.321l-5.168,5.2a1.656,1.656,0,0,1-1.176.48Z" transform="translate(-19.776 -89.482)" fill="#3b50a8"/>
    <path id="Trazado_143718" data-name="Trazado 143718" d="M90.659,411.087a3.288,3.288,0,1,1,0,4.642,3.288,3.288,0,0,1,0-4.642Z" transform="translate(-18.579 -91.447)" fill="#fff"/>
    <path id="Trazado_143719" data-name="Trazado 143719" d="M92.551,417.9a4.951,4.951,0,0,1-3.5-8.448h0a5.059,5.059,0,0,1,6.962,0,4.951,4.951,0,0,1-3.458,8.448Zm0-6.583a1.625,1.625,0,0,0-1.153.48h0a1.625,1.625,0,0,0,0,2.321,1.663,1.663,0,0,0,2.321,0,1.632,1.632,0,0,0-1.153-2.785Zm-2.321-.7Z" transform="translate(-18.103 -90.982)" fill="#3b50a8"/>
    <path id="Trazado_143720" data-name="Trazado 143720" d="M199.059,454.308H101.94a1.663,1.663,0,1,1,0-3.319h97.119a1.663,1.663,0,0,1,0,3.319Z" transform="translate(-20.948 -100.698)" fill="#3b50a8"/>
    <path id="Trazado_143721" data-name="Trazado 143721" d="M136.921,247.25a18.659,18.659,0,0,0-14.621,13.1h-.774a2.839,2.839,0,1,0,0,5.671h36.9a2.839,2.839,0,1,0,0-5.671h-.774a18.358,18.358,0,0,0-14.567-13.1Z" transform="translate(-25.107 -54.574)" fill="#57dbd8"/>
    <path id="Trazado_143722" data-name="Trazado 143722" d="M157.939,267.2H121.031a4.495,4.495,0,0,1-.418-8.974,20.284,20.284,0,0,1,15.55-13.1,1.663,1.663,0,1,1,.58,3.272,16.88,16.88,0,0,0-13.306,11.914,1.663,1.663,0,0,1-1.6,1.215h-.774a1.176,1.176,0,1,0,0,2.321H157.97a1.176,1.176,0,0,0,0-2.321H157.2a1.663,1.663,0,0,1-1.6-1.214A16.718,16.718,0,0,0,142.359,248.4,1.663,1.663,0,0,1,141,246.482a1.64,1.64,0,0,1,1.911-1.354,20.06,20.06,0,0,1,15.472,13.1,4.495,4.495,0,0,1-.41,8.974Z" transform="translate(-24.643 -54.085)" fill="#3b50a8"/>
    <path id="Trazado_143723" data-name="Trazado 143723" d="M142.289,252.89v-7.434a3.04,3.04,0,1,1,6.073,0v7.434Z" transform="translate(-30.483 -53.445)" fill="#fed66f"/>
    <path id="Trazado_143724" data-name="Trazado 143724" d="M147.877,254.09a1.663,1.663,0,0,1-1.656-1.64v-7.434a1.377,1.377,0,1,0-2.754,0v7.434a1.663,1.663,0,1,1-3.319,0v-7.434a4.7,4.7,0,0,1,9.392,0v7.434A1.656,1.656,0,0,1,147.877,254.09Z" transform="translate(-29.999 -53.006)" fill="#3b50a8"/>
    <path id="Trazado_143725" data-name="Trazado 143725" d="M48.076,163.445l-16.176.062Zm-15.735,43.84L133.08,206.9c8.773,0,16.841-5.91,16.841-5.91l46.788-30.743a13.275,13.275,0,0,0,3.791-18.4,13.438,13.438,0,0,0-18.5-3.767L146.417,172.7l.518-1.485c.062-.34.132-.689.17-1.037a15.294,15.294,0,0,0-13.267-15.2L79.353,148.63c-1.648-.193-8.51-.588-10.475-.634a17.382,17.382,0,0,0-2.011.046,20.934,20.934,0,0,0-18.8,15.905l-1.725,13.306Z" transform="translate(-5.493 -31.629)" fill="#fff"/>
    <path id="Trazado_143726" data-name="Trazado 143726" d="M31.887,208.462a1.663,1.663,0,0,1,0-3.319l100.747-.387c8.131,0,15.782-5.539,15.859-5.593l46.857-30.782a11.6,11.6,0,0,0,3.319-16.1,11.751,11.751,0,0,0-16.246-3.288L146.915,173.58a1.663,1.663,0,0,1-2.514-1.911l.48-1.377c.054-.255.1-.518.132-.774a13.551,13.551,0,0,0-11.805-13.36L78.714,149.8c-1.547-.186-8.278-.58-10.328-.627a18.379,18.379,0,0,0-1.849.046A19.34,19.34,0,0,0,49.263,163.77l-1.725,13.221a1.64,1.64,0,0,1-1.857,1.431,1.663,1.663,0,0,1-1.431-1.864L45.8,164.637l-14.35.046h0a1.663,1.663,0,0,1,0-3.319l15.078-.054a22.736,22.736,0,0,1,19.812-15.4c.719-.054,1.454-.07,2.166-.054,1.949.046,8.858.441,10.629.642l54.485,6.351a17.019,17.019,0,0,1,14.7,15.735L180.6,146.271a14.963,14.963,0,1,1,16.571,24.918l-46.8,30.7c-.278.209-8.51,6.15-17.739,6.189l-100.747.379Z" transform="translate(-5.04 -31.15)" fill="#3b50a8"/>
    <path id="Trazado_143727" data-name="Trazado 143727" d="M153.714,157.87a13.569,13.569,0,1,1-3.172,26.945l-35.393-4.123Z" transform="translate(-24.34 -34.34)" fill="#fff"/>
    <path id="Trazado_143728" data-name="Trazado 143728" d="M151.682,186.109a16.026,16.026,0,0,1-1.818-.108l-35.393-4.123a1.659,1.659,0,0,1,.387-3.3L150.25,182.7a12.03,12.03,0,0,0,13.391-10.428,11.751,11.751,0,0,0-2.537-8.75,12.045,12.045,0,0,0-8.038-4.495,1.659,1.659,0,0,1,.387-3.3,15.341,15.341,0,0,1,10.274,5.694,15.031,15.031,0,0,1,3.241,11.21,15.333,15.333,0,0,1-15.287,13.469Z" transform="translate(-23.855 -33.854)" fill="#3b50a8"/>
    <rect id="Rectángulo_37739" data-name="Rectángulo 37739" width="88.88" height="88.872" transform="translate(74.518 22.706)" fill="#fe7062"/>
    <path id="Trazado_143729" data-name="Trazado 143729" d="M182.5,117.581H93.6a1.656,1.656,0,0,1-1.663-1.656V27.053A1.663,1.663,0,0,1,93.6,25.39h88.9a1.656,1.656,0,0,1,1.656,1.663v88.872A1.656,1.656,0,0,1,182.5,117.581Zm-87.232-3.319H180.82V28.709H95.267Z" transform="translate(-19.086 -4.347)" fill="#3b50a8"/>
    <path id="Trazado_143730" data-name="Trazado 143730" d="M186.442,27.54,110.76,103.516Z" transform="translate(-23.346 -4.834)" fill="#fff"/>
    <path id="Trazado_143731" data-name="Trazado 143731" d="M110.276,104.74a1.663,1.663,0,0,1-1.176-2.831l75.682-76A1.663,1.663,0,0,1,187.1,28.23l-75.682,75.984A1.656,1.656,0,0,1,110.276,104.74Z" transform="translate(-22.862 -4.394)" fill="#3b50a8"/>
    <path id="Trazado_143732" data-name="Trazado 143732" d="M166.45,97.63l32.917,32.9Z" transform="translate(-35.954 -20.702)" fill="#fff"/>
    <path id="Trazado_143733" data-name="Trazado 143733" d="M198.82,131.657a1.656,1.656,0,0,1-1.176-.487l-32.917-32.9a1.663,1.663,0,1,1,2.321-2.321l32.894,32.9a1.656,1.656,0,0,1,0,2.321,1.625,1.625,0,0,1-1.122.487Z" transform="translate(-35.407 -20.163)" fill="#3b50a8"/>
    <path id="Trazado_143734" data-name="Trazado 143734" d="M96.35,27.54l33.938,33.938Z" transform="translate(-20.084 -4.834)" fill="#fff"/>
    <path id="Trazado_143735" data-name="Trazado 143735" d="M129.741,62.6a1.625,1.625,0,0,1-1.168-.487L94.627,28.168a1.663,1.663,0,1,1,2.321-2.321l33.938,33.938a1.663,1.663,0,0,1-1.176,2.839Z" transform="translate(-19.537 -4.293)" fill="#3b50a8"/>
    <path id="Trazado_143736" data-name="Trazado 143736" d="M60.514,114.406a1.656,1.656,0,0,1-1.656-1.663V70.89a1.663,1.663,0,1,1,3.319,0v41.852A1.663,1.663,0,0,1,60.514,114.406Z" transform="translate(-11.596 -14.246)" fill="#3b50a8"/>
    <path id="Trazado_143737" data-name="Trazado 143737" d="M60.5,123.1a1.663,1.663,0,0,1-1.238-2.808L74.1,104.71a1.671,1.671,0,0,1,2.406,2.321l-14.838,15.58A1.671,1.671,0,0,1,60.5,123.1Z" transform="translate(-11.585 -22.189)" fill="#3b50a8"/>
    <path id="Trazado_143738" data-name="Trazado 143738" d="M56.158,123.088a1.663,1.663,0,0,1-1.238-.487L40.083,106.981a1.671,1.671,0,0,1,2.406-2.321L57.327,120.28a1.663,1.663,0,0,1-1.168,2.808Z" transform="translate(-7.24 -22.178)" fill="#3b50a8"/>
    <path id="Trazado_143739" data-name="Trazado 143739" d="M285.079,103.519H265.12V85.68a9.98,9.98,0,0,1,9.964-9.98h9.98Z" transform="translate(-58.292 -15.737)" fill="#ffa08d"/>
    <path id="Trazado_143740" data-name="Trazado 143740" d="M284.592,104.7H264.633a1.656,1.656,0,0,1-1.663-1.656V85.2a11.658,11.658,0,0,1,11.6-11.6h9.98a1.663,1.663,0,1,1,0,3.327H274.6a8.332,8.332,0,0,0-8.309,8.278V101.38h18.3a1.663,1.663,0,1,1,0,3.319Z" transform="translate(-57.805 -15.262)" fill="#3b50a8"/>
    <path id="Trazado_143741" data-name="Trazado 143741" d="M278.02,75.7Z" transform="translate(-61.213 -15.737)" fill="#fff"/>
    <path id="Trazado_143742" data-name="Trazado 143742" d="M277.513,76.877a1.663,1.663,0,1,1,0-3.327h0a1.663,1.663,0,0,1,0,3.327Z" transform="translate(-60.721 -15.25)" fill="#3b50a8"/>
    <path id="Trazado_143743" data-name="Trazado 143743" d="M379.706,75.77,278,75.7a9.98,9.98,0,0,1,9.98,9.98V237.655a9.979,9.979,0,0,0,10,10.018h91.673V85.718a9.949,9.949,0,0,0-9.949-9.949Z" transform="translate(-61.208 -15.737)" fill="#fff"/>
    <path id="Trazado_143744" data-name="Trazado 143744" d="M389.168,248.811H297.5a11.658,11.658,0,0,1-11.643-11.643V85.193a8.332,8.332,0,0,0-8.339-8.316h0a1.663,1.663,0,1,1,0-3.327h0l101.691.07a11.6,11.6,0,0,1,11.6,11.6V247.186a1.656,1.656,0,0,1-1.64,1.625ZM285.667,76.877a11.6,11.6,0,0,1,3.5,8.316V237.168a8.332,8.332,0,0,0,8.324,8.324H387.5V85.231a8.3,8.3,0,0,0-8.285-8.293h0Z" transform="translate(-60.721 -15.25)" fill="#3b50a8"/>
    <path id="Trazado_143745" data-name="Trazado 143745" d="M402.513,235.276a1.663,1.663,0,0,1-1.663-1.663V213.243a1.663,1.663,0,0,1,3.327,0v20.369a1.663,1.663,0,0,1-1.663,1.663Z" transform="translate(-89.02 -46.499)" fill="#3b50a8"/>
    <path id="Trazado_143746" data-name="Trazado 143746" d="M309.166,235.309a1.655,1.655,0,0,1-1.656-1.663V213.276a1.663,1.663,0,0,1,3.319,0v20.369a1.663,1.663,0,0,1-1.663,1.663Z" transform="translate(-67.889 -46.532)" fill="#3b50a8"/>
    <path id="Trazado_143747" data-name="Trazado 143747" d="M317.973,235.309a1.663,1.663,0,0,1-1.663-1.663V213.276a1.663,1.663,0,0,1,3.319,0v20.369a1.655,1.655,0,0,1-1.656,1.663Z" transform="translate(-69.881 -46.532)" fill="#3b50a8"/>
    <path id="Trazado_143748" data-name="Trazado 143748" d="M393.673,235.309a1.663,1.663,0,0,1-1.663-1.663V213.276a1.663,1.663,0,0,1,3.319,0v20.369a1.656,1.656,0,0,1-1.656,1.663Z" transform="translate(-87.019 -46.532)" fill="#3b50a8"/>
    <path id="Trazado_143749" data-name="Trazado 143749" d="M337.156,235.309a1.656,1.656,0,0,1-1.656-1.663V213.276a1.663,1.663,0,0,1,3.319,0v20.369a1.663,1.663,0,0,1-1.663,1.663Z" transform="translate(-74.226 -46.532)" fill="#3b50a8"/>
    <path id="Trazado_143750" data-name="Trazado 143750" d="M353.436,235.309a1.656,1.656,0,0,1-1.656-1.663V213.276a1.663,1.663,0,0,1,3.319,0v20.369a1.663,1.663,0,0,1-1.663,1.663Z" transform="translate(-77.911 -46.532)" fill="#3b50a8"/>
    <path id="Trazado_143751" data-name="Trazado 143751" d="M345.076,235.309a1.655,1.655,0,0,1-1.656-1.663V213.276a1.663,1.663,0,0,1,3.319,0v20.369a1.663,1.663,0,0,1-1.663,1.663Z" transform="translate(-76.019 -46.532)" fill="#3b50a8"/>
    <path id="Trazado_143752" data-name="Trazado 143752" d="M370.005,235.309a1.655,1.655,0,0,1-1.656-1.663V213.276a1.663,1.663,0,0,1,3.319,0v20.369a1.663,1.663,0,0,1-1.663,1.663Z" transform="translate(-81.663 -46.532)" fill="#3b50a8"/>
    <path id="Trazado_143753" data-name="Trazado 143753" d="M361.646,235.309a1.656,1.656,0,0,1-1.656-1.663V213.276a1.663,1.663,0,0,1,3.319,0v20.369a1.663,1.663,0,0,1-1.663,1.663Z" transform="translate(-79.77 -46.532)" fill="#3b50a8"/>
    <path id="Trazado_143754" data-name="Trazado 143754" d="M384.433,235.276a1.663,1.663,0,0,1-1.663-1.663V213.243a1.663,1.663,0,0,1,3.327,0v20.369a1.663,1.663,0,0,1-1.663,1.663Z" transform="translate(-84.927 -46.499)" fill="#3b50a8"/>
    <path id="Trazado_143755" data-name="Trazado 143755" d="M397.141,138.939h-25.3a1.663,1.663,0,0,1,0-3.319h25.3a1.663,1.663,0,0,1,0,3.319Z" transform="translate(-82.101 -29.302)" fill="#3b50a8"/>
    <path id="Trazado_143756" data-name="Trazado 143756" d="M397.141,155.029h-25.3a1.663,1.663,0,0,1,0-3.319h25.3a1.663,1.663,0,0,1,0,3.319Z" transform="translate(-82.101 -32.945)" fill="#3b50a8"/>
    <path id="Trazado_143757" data-name="Trazado 143757" d="M381.722,184.888H309.2a1.663,1.663,0,0,1,0-3.319h72.526a1.663,1.663,0,1,1,0,3.319Z" transform="translate(-67.92 -39.704)" fill="#3b50a8"/>
    <path id="Trazado_143758" data-name="Trazado 143758" d="M381.722,199.9H309.2a1.663,1.663,0,0,1,0-3.319h72.526a1.663,1.663,0,1,1,0,3.319Z" transform="translate(-67.92 -43.102)" fill="#3b50a8"/>
    <path id="Trazado_143759" data-name="Trazado 143759" d="M303.83,289.85a9.98,9.98,0,0,0,9.98-9.98V262H415.485v17.832a9.972,9.972,0,0,1-9.98,9.98Z" transform="translate(-67.056 -57.914)" fill="#ffa08d"/>
    <path id="Trazado_143760" data-name="Trazado 143760" d="M404.985,290.988H303.31a1.663,1.663,0,1,1,0-3.319,8.339,8.339,0,0,0,8.324-8.324V261.513a1.656,1.656,0,0,1,1.656-1.663H414.965a1.663,1.663,0,0,1,1.663,1.663v17.832a11.658,11.658,0,0,1-11.643,11.643Zm-93.545-3.319h93.545a8.34,8.34,0,0,0,8.309-8.324V263.177H314.953v16.168A11.6,11.6,0,0,1,311.441,287.669Z" transform="translate(-66.536 -57.427)" fill="#3b50a8"/>
    <rect id="Rectángulo_37740" data-name="Rectángulo 37740" width="39.632" height="39.632" transform="translate(240.286 82.32)" fill="#fe7062"/>
    <path id="Trazado_143761" data-name="Trazado 143761" d="M347.525,145.426H307.893a1.663,1.663,0,0,1-1.663-1.663V104.116a1.656,1.656,0,0,1,1.663-1.656h39.632a1.656,1.656,0,0,1,1.656,1.656v39.632a1.656,1.656,0,0,1-1.656,1.679Zm-37.976-3.319h36.313V105.779H309.549Z" transform="translate(-67.599 -21.795)" fill="#3b50a8"/>
    <path id="Trazado_143762" data-name="Trazado 143762" d="M388.133,121.529a1.663,1.663,0,0,1-1.663-1.663V99.233a1.663,1.663,0,1,1,3.326,0v20.632A1.663,1.663,0,0,1,388.133,121.529Z" transform="translate(-85.765 -20.688)" fill="#3b50a8"/>
    <path id="Trazado_143763" data-name="Trazado 143763" d="M388.135,125.4a1.663,1.663,0,0,1-1.2-2.808l8.966-9.423a1.671,1.671,0,1,1,2.406,2.321l-8.966,9.423a1.687,1.687,0,0,1-1.207.487Z" transform="translate(-85.767 -24.104)" fill="#3b50a8"/>
    <path id="Trazado_143764" data-name="Trazado 143764" d="M385.506,125.392a1.655,1.655,0,0,1-1.2-.518l-8.974-9.423a1.671,1.671,0,0,1,2.406-2.321l8.974,9.423a1.663,1.663,0,0,1-.062,2.321A1.64,1.64,0,0,1,385.506,125.392Z" transform="translate(-83.137 -24.095)" fill="#3b50a8"/>
  </g>
</svg>
