<svg xmlns="http://www.w3.org/2000/svg" width="473" height="471" viewBox="0 0 473 471">
  <g id="img12" transform="translate(-908 -13896.34)">
    <rect id="Rectángulo_31206" data-name="Rectángulo 31206" width="473" height="471" rx="18" transform="translate(908 13896.34)" fill="#fff"/>
    <g id="ventajas-4a-01" transform="translate(908 14002.138)">
      <g id="warehouse" transform="translate(0 76.541)">
        <path id="Trazado_141135" data-name="Trazado 141135" d="M469.31,421.367l1.157-1.547L429.71,371.769h39.6V369H0v2.771H.386L40.834,419.48H0v2.771H43.438a.9.9,0,0,0,.234.033.89.89,0,0,0,.243-.033H86.083a.9.9,0,0,0,.234.033.89.89,0,0,0,.243-.033h42.17a.9.9,0,0,0,.234.033.89.89,0,0,0,.243-.033h42.17a.9.9,0,0,0,.236.033.875.875,0,0,0,.241-.033h42.021a.9.9,0,0,0,.234.033.89.89,0,0,0,.243-.033h42.17a.9.9,0,0,0,.234.033.89.89,0,0,0,.243-.033h42.17a.9.9,0,0,0,.234.033.89.89,0,0,0,.243-.033h42.17a.9.9,0,0,0,.234.033.89.89,0,0,0,.243-.033h41.863a.9.9,0,0,0,.234.033.89.89,0,0,0,.243-.033H426.8a.9.9,0,0,0,.234.033.89.89,0,0,0,.243-.033H469.3ZM87.45,373.866l38.689,45.6H87.45Zm-2.261,43.715L46.335,371.769H85.189Zm3.8-45.813h38.849v45.8Zm41.114,2.087,38.689,45.613H130.1Zm1.535-2.087h38.851v45.8Zm41.11,2.265,38.538,45.427H172.746Zm1.381-2.265h38.853v45.8Zm41.114,2.089,38.689,45.611H215.242Zm1.533-2.089h38.853v45.8Zm41.114,2.087,38.689,45.613H257.889Zm1.533-2.087h38.86v45.8Zm41.114,2.087,38.69,45.613H300.536Zm1.533-2.087h38.853v45.8Zm41.114,2.444,38.389,45.257H343.183Zm1.232-2.444h38.853v45.8Zm41.114,2.087,38.69,45.613H385.53Zm1.533-2.087h38.853v45.8Zm41.114,2.087,38.689,45.613H428.177ZM42.541,371.769v45.8l-38.853-45.8Zm2.263,2.087,38.689,45.613H44.8Z" transform="translate(0 -369)" fill="#ccf3ff"/>
      </g>
      <g id="data" transform="translate(42.89 48.899)">
        <rect id="Rectángulo_36941" data-name="Rectángulo 36941" width="15.686" height="3.466" rx="1.733" transform="translate(0 14.781)" fill="#48c6c6"/>
        <rect id="Rectángulo_36942" data-name="Rectángulo 36942" width="15.686" height="3.466" rx="1.733" transform="translate(0 21.073)" fill="#48c6c6"/>
        <rect id="Rectángulo_36943" data-name="Rectángulo 36943" width="15.686" height="3.466" rx="1.733" transform="translate(0 27.366)" fill="#48c6c6"/>
        <rect id="Rectángulo_36944" data-name="Rectángulo 36944" width="15.686" height="3.466" rx="1.733" transform="translate(0 33.657)" fill="#48c6c6"/>
        <path id="Trazado_141136" data-name="Trazado 141136" d="M346.894,235.74h-.039a25.953,25.953,0,1,0,12.031,48.953l-11.991-23Z" transform="translate(-297.232 -235.74)" fill="#51dede"/>
        <path id="Trazado_141137" data-name="Trazado 141137" d="M458.181,383.848a25.949,25.949,0,0,0,13.916-23H446.19Z" transform="translate(-396.528 -334.899)" fill="#5b4e99"/>
        <path id="Trazado_141138" data-name="Trazado 141138" d="M446.19,235.74v25.951h25.916a25.953,25.953,0,0,0-25.914-25.951Z" transform="translate(-396.528 -235.74)" fill="#affafa"/>
        <ellipse id="Elipse_4525" data-name="Elipse 4525" cx="2.182" cy="2.157" rx="2.182" ry="2.157" transform="translate(349.151 53.911)" fill="#fff"/>
        <path id="Trazado_141140" data-name="Trazado 141140" d="M1860.327,454.6h0a.682.682,0,0,1,.05-.965,12.459,12.459,0,0,1,17.273.4.689.689,0,0,1,0,.969h0a.707.707,0,0,1-.994.019,11.18,11.18,0,0,0-15.35-.355A.709.709,0,0,1,1860.327,454.6Z" transform="translate(-1517.194 -405.835)" fill="#fff"/>
        <path id="Trazado_141141" data-name="Trazado 141141" d="M1869.616,468.221h0a.691.691,0,0,1,.068-.983,9.8,9.8,0,0,1,13.276.3.691.691,0,0,1,.021.987h0a.7.7,0,0,1-.979.027,8.5,8.5,0,0,0-11.394-.261A.705.705,0,0,1,1869.616,468.221Z" transform="translate(-1524.558 -417.283)" fill="#fff"/>
        <path id="Trazado_141142" data-name="Trazado 141142" d="M1878.64,481.405h0a.686.686,0,0,1,.079-.991,7.214,7.214,0,0,1,9.407.207.687.687,0,0,1,.029,1h0a.707.707,0,0,1-.967.039,5.926,5.926,0,0,0-7.569-.17A.711.711,0,0,1,1878.64,481.405Z" transform="translate(-1531.708 -428.36)" fill="#fff"/>
        <path id="Trazado_141143" data-name="Trazado 141143" d="M1110.567,744.824a1.8,1.8,0,0,0,2.533,0,1.757,1.757,0,0,0,0-2.5,1.807,1.807,0,0,0-2.533,0,1.757,1.757,0,0,0,0,2.5Z" transform="translate(-922.679 -636.831)" fill="#fff"/>
        <path id="Trazado_141144" data-name="Trazado 141144" d="M1085.647,708.126h0a.562.562,0,0,1,.039-.792,10.231,10.231,0,0,1,14.176.33.56.56,0,0,1,0,.794h0a.581.581,0,0,1-.815.017,9.174,9.174,0,0,0-12.589-.293A.581.581,0,0,1,1085.647,708.126Z" transform="translate(-903.229 -607.378)" fill="#fff"/>
        <path id="Trazado_141145" data-name="Trazado 141145" d="M1093.3,719.265h0a.564.564,0,0,1,.056-.807,8.038,8.038,0,0,1,10.89.251.568.568,0,0,1,.017.809h0a.577.577,0,0,1-.8.021,6.986,6.986,0,0,0-9.351-.207A.579.579,0,0,1,1093.3,719.265Z" transform="translate(-909.296 -616.742)" fill="#fff"/>
        <path id="Trazado_141146" data-name="Trazado 141146" d="M1100.709,730.129h0a.562.562,0,0,1,.064-.813,5.918,5.918,0,0,1,7.718.174.562.562,0,0,1,.025.817h0a.581.581,0,0,1-.792.033,4.868,4.868,0,0,0-6.223-.141.583.583,0,0,1-.792-.071Z" transform="translate(-915.166 -625.867)" fill="#fff"/>
        <path id="Trazado_141147" data-name="Trazado 141147" d="M1787.227,330.746a1.807,1.807,0,0,0,2.533,0,1.759,1.759,0,0,0,0-2.506,1.807,1.807,0,0,0-2.533,0,1.759,1.759,0,0,0,0,2.506Z" transform="translate(-1458.98 -308.643)" fill="#fff"/>
        <path id="Trazado_141149" data-name="Trazado 141149" d="M1769.96,305.26h0a.566.566,0,0,1,.056-.809,8.04,8.04,0,0,1,10.89.251.571.571,0,0,1,.017.811h0a.577.577,0,0,1-.8.023,6.988,6.988,0,0,0-9.351-.207.579.579,0,0,1-.809-.068Z" transform="translate(-1445.596 -288.612)" fill="#fff"/>
        <path id="Trazado_141150" data-name="Trazado 141150" d="M1777.372,316.053h0a.566.566,0,0,1,.064-.815,5.92,5.92,0,0,1,7.718.174.562.562,0,0,1,.025.817h0a.581.581,0,0,1-.792.031,4.868,4.868,0,0,0-6.223-.141A.583.583,0,0,1,1777.372,316.053Z" transform="translate(-1451.471 -297.682)" fill="#fff"/>
      </g>
      <g id="Machine">
        <rect id="Rectángulo_36945" data-name="Rectángulo 36945" width="383.833" height="2.684" transform="translate(88.829 295.311)" fill="#312a52"/>
        <path id="Trazado_141151" data-name="Trazado 141151" d="M515.843,1074.272a10.1,10.1,0,0,1-10.1,10.1H66.332a10.1,10.1,0,0,1,0-20.2h439.4a10.1,10.1,0,0,1,10.11,10.1Z" transform="translate(-44.566 -843.431)" fill="#d1d3d4"/>
        <path id="Trazado_141152" data-name="Trazado 141152" d="M498.243,1080.277H496V1078.5h2.232Zm-4.462,0h-2.23V1078.5h2.23Zm-4.46,0h-2.236V1078.5h2.232Zm-4.462,0h-2.23V1078.5h2.23Zm-4.462,0h-2.232V1078.5h2.23Zm-4.462,0h-2.23V1078.5h2.23Zm-4.46,0h-2.23V1078.5h2.23Zm-4.462,0h-2.23V1078.5h2.23Zm-4.46,0h-2.228V1078.5h2.232Zm-4.462,0h-2.23V1078.5h2.23Zm-4.462,0h-2.224V1078.5h2.23Zm-4.46,0H446.94V1078.5h2.232Zm-4.462,0h-2.222V1078.5h2.23Zm-4.462,0h-2.23V1078.5h2.23Zm-4.46,0h-2.232V1078.5h2.232Zm-4.462,0H429.1V1078.5h2.23Zm-4.462,0h-2.23V1078.5h2.23Zm-4.46,0h-2.232V1078.5h2.232Zm-4.462,0h-2.23V1078.5h2.23Zm-4.462,0h-2.23V1078.5h2.23Zm-4.46,0H406.79V1078.5h2.232Zm-4.462,0h-2.23V1078.5h2.23Zm-4.462,0h-2.23V1078.5h2.23Zm-4.46,0h-2.232V1078.5h2.232Zm-4.462,0h-2.23V1078.5h2.23Zm-4.462,0h-2.23V1078.5h2.23Zm-4.46,0h-2.232V1078.5h2.232Zm-4.462,0h-2.23V1078.5h2.23Zm-4.462,0H371.1V1078.5h2.23Zm-4.46,0H366.64V1078.5h2.232Zm-4.462,0h-2.23V1078.5h2.23Zm-4.462,0h-2.23V1078.5h2.23Zm-4.46,0h-2.232V1078.5h2.232Zm-4.462,0H348.8V1078.5h2.23Zm-4.462,0h-2.23V1078.5h2.23Zm-4.46,0h-2.232V1078.5h2.232Zm-4.462,0h-2.23V1078.5h2.23Zm-4.462,0h-2.23V1078.5h2.222Zm-4.46,0H326.49V1078.5h2.232Zm-4.462,0h-2.23V1078.5h2.224Zm-4.462,0h-2.23V1078.5h2.23Zm-4.46,0h-2.232V1078.5h2.228Zm-4.462,0h-2.23V1078.5h2.23Zm-4.462,0h-2.23V1078.5h2.23Zm-4.46,0h-2.232V1078.5h2.232Zm-4.462,0h-2.23V1078.5H297.5Zm-4.462,0H290.8V1078.5h2.23Zm-4.46,0h-2.232V1078.5h2.236Zm-4.462,0h-2.23V1078.5h2.23Zm-4.462,0h-2.23V1078.5h2.238Zm-4.46,0h-2.232V1078.5h2.232Zm-4.462,0H268.5V1078.5h2.24Zm-4.462,0h-2.23V1078.5h2.23Zm-4.46,0h-2.232V1078.5h2.232Zm-4.462,0h-2.23V1078.5h2.23Zm-4.462,0h-2.23V1078.5h2.23Zm-4.46,0h-2.232V1078.5h2.232Zm-4.462,0h-2.23V1078.5h2.23Zm-4.462,0h-2.23V1078.5h2.23Zm-4.46,0h-2.232V1078.5h2.232Zm-4.462,0h-2.23V1078.5h2.23Zm-4.462,0h-2.23V1078.5h2.23Zm-4.46,0h-2.23V1078.5h2.23Zm-4.462,0h-2.23V1078.5h2.23Zm-4.462,0H210.5V1078.5h2.23Zm-4.46,0h-2.23V1078.5h2.23Zm-4.462,0h-2.23V1078.5h2.23Zm-4.46,0H197.12V1078.5h2.232Zm-4.462,0h-2.23V1078.5h2.23Zm-4.462,0H188.2V1078.5h2.23Zm-4.46,0h-2.232V1078.5h2.232Zm-4.462,0h-2.23V1078.5h2.23Zm-4.462,0h-2.23V1078.5h2.23Zm-4.46,0h-2.232V1078.5h2.232Zm-4.462,0h-2.23V1078.5h2.23Zm-4.462,0h-2.238V1078.5h2.23Zm-4.46,0H156.97V1078.5H159.2Zm-4.462,0H152.5V1078.5h2.23Zm-4.462,0h-2.23V1078.5h2.23Zm-4.46,0h-2.234V1078.5h2.232Zm-4.462,0h-2.23V1078.5h2.23Zm-4.462,0h-2.23V1078.5h2.23Zm-4.46,0H130.2V1078.5h2.232Zm-4.462,0h-2.228V1078.5h2.23Zm-4.462,0h-2.23V1078.5h2.23Zm-4.46,0h-2.226V1078.5h2.23Zm-4.462,0h-2.23V1078.5h2.23Zm-4.46,0h-2.224V1078.5h2.232Zm-4.462,0h-2.23V1078.5h2.23Zm-4.462,0H98.987V1078.5h2.219Zm-4.46,0H94.515V1078.5h2.232Zm-4.462,0h-2.23V1078.5h2.23Zm-4.462,0h-2.23V1078.5h2.23Zm-4.46,0H81.132V1078.5h2.232Zm-4.462,0h-2.23V1078.5H78.9Zm-4.462,0h-2.23V1078.5h2.23Zm-4.46,0H67.749V1078.5h2.232Zm-4.462,0h-2.23V1078.5h2.23Zm-4.462,0h-.044a11.607,11.607,0,0,1-2.4-.249l.371-1.751a9.74,9.74,0,0,0,2.029.207h.044Zm439.422,0-.01-1.788a9.887,9.887,0,0,0,2.027-.222l.38,1.747a11.582,11.582,0,0,1-2.4.263Zm-444.162-1a11.59,11.59,0,0,1-2.089-1.209l1.052-1.452a9.806,9.806,0,0,0,1.767,1.021Zm448.849-.027-.738-1.628a9.886,9.886,0,0,0,1.759-1.037l1.06,1.439a11.551,11.551,0,0,1-2.08,1.226Zm-452.73-2.8a11.562,11.562,0,0,1-1.421-1.948l1.545-.9a9.957,9.957,0,0,0,1.2,1.659Zm456.595-.046-1.334-1.19a9.938,9.938,0,0,0,1.195-1.66l1.552.89a11.648,11.648,0,0,1-1.413,1.96Zm-459-4.1a11.48,11.48,0,0,1-.506-2.36l1.78-.189a9.73,9.73,0,0,0,.415,1.991Zm461.391-.06-1.7-.548a9.745,9.745,0,0,0,.415-2l1.78.178a11.5,11.5,0,0,1-.5,2.365ZM51.3,1067.714l-1.778-.183a11.452,11.452,0,0,1,.5-2.362l1.7.552A9.85,9.85,0,0,0,51.3,1067.714Zm458.831-.052a9.871,9.871,0,0,0-.431-1.993l1.7-.56a11.6,11.6,0,0,1,.51,2.36Zm-457.586-3.806-1.549-.892a11.7,11.7,0,0,1,1.417-1.954l1.332,1.195a9.92,9.92,0,0,0-1.2,1.657Zm456.311-.046a9.907,9.907,0,0,0-1.205-1.645l1.323-1.2a11.654,11.654,0,0,1,1.427,1.946Zm-453.6-2.968-1.058-1.452a11.593,11.593,0,0,1,2.085-1.215l.734,1.63A9.8,9.8,0,0,0,55.255,1060.841Zm450.874-.031a9.8,9.8,0,0,0-1.767-1.018l.726-1.635a11.567,11.567,0,0,1,2.091,1.2Zm-447.175-1.635-.378-1.747a11.467,11.467,0,0,1,2.4-.259v1.788A9.9,9.9,0,0,0,58.954,1059.176Zm443.481,0a9.846,9.846,0,0,0-2.008-.207H500.4v-1.788h.023a11.676,11.676,0,0,1,2.373.244Zm-4.261-.207h-2.232v-1.788h2.232Zm-4.462,0h-2.23v-1.788h2.23Zm-4.462,0h-2.23v-1.788h2.23Zm-4.46,0h-2.232v-1.788h2.232Zm-4.462,0H478.1v-1.788h2.23Zm-4.462,0h-2.23v-1.788h2.23Zm-4.46,0h-2.244v-1.788H471.4Zm-4.462,0H464.7v-1.788h2.23Zm-4.462,0h-2.23v-1.788h2.23Zm-4.46,0h-2.232v-1.788h2.232Zm-4.462,0h-2.23v-1.788h2.23Zm-4.462,0h-2.23v-1.788h2.23Zm-4.46,0h-2.232v-1.788h2.232Zm-4.462,0h-2.23v-1.788h2.23Zm-4.46,0h-2.232v-1.788h2.232Zm-4.462,0h-2.253v-1.788h2.232Zm-4.462,0h-2.23v-1.788h2.23Zm-4.46,0h-2.251v-1.788h2.232Zm-4.462,0h-2.23v-1.788h2.23Zm-4.462,0h-2.246v-1.788h2.23Zm-4.46,0h-2.232v-1.788h2.232Zm-4.462,0h-2.244v-1.788h2.23Zm-4.462,0h-2.242v-1.788h2.23Zm-4.46,0h-2.242v-1.788h2.232Zm-4.462,0h-2.23v-1.788h2.23Zm-4.462,0h-2.238v-1.788h2.23Zm-4.46,0h-2.232v-1.788h2.232Zm-4.462,0h-2.236v-1.788h2.23Zm-4.462,0h-2.23v-1.788h2.23Zm-4.46,0H366.57v-1.788H368.8Zm-4.462,0h-2.23v-1.788h2.23Zm-4.462,0h-2.23v-1.788h2.23Zm-4.46,0h-2.232v-1.788h2.232Zm-4.462,0h-2.23v-1.788h2.23Zm-4.462,0h-2.23v-1.788h2.23Zm-4.46,0h-2.232v-1.788h2.232Zm-4.462,0h-2.23v-1.788h2.23Zm-4.462,0h-2.242v-1.788h2.23Zm-4.46,0h-2.242v-1.788h2.23Zm-4.462,0h-2.23v-1.788h2.23Zm-4.46,0H317.5v-1.788h2.232Zm-4.462,0h-2.23v-1.788h2.23Zm-4.462,0h-2.23v-1.788h2.23Zm-4.46,0h-2.232v-1.788h2.232Zm-4.462,0h-2.23v-1.788h2.23Zm-4.462,0H295.2v-1.788h2.23Zm-4.46,0h-2.232v-1.788h2.232Zm-4.462,0h-2.23v-1.788h2.23Zm-4.462,0h-2.23v-1.788h2.23Zm-4.46,0h-2.232v-1.788h2.232Zm-4.462,0h-2.23v-1.788h2.23Zm-4.462,0h-2.23v-1.788h2.23Zm-4.46,0h-2.244v-1.788h2.232Zm-4.462,0H259.5v-1.788h2.23Zm-4.462,0h-2.23v-1.788h2.209Zm-4.46,0h-2.232v-1.788h2.232Zm-4.462,0h-2.242v-1.788h2.224Zm-4.462,0H241.65v-1.788h2.23Zm-4.46,0h-2.244v-1.788h2.228Zm-4.462,0h-2.242v-1.788h2.23Zm-4.462,0h-2.242v-1.788h2.23Zm-4.46,0h-2.244v-1.788h2.232Zm-4.462,0h-2.242v-1.788h2.232Zm-4.462,0h-2.242v-1.788h2.23Zm-4.46,0h-2.244v-1.788h2.236Zm-4.462,0h-2.242v-1.788h2.23Zm-4.462,0H201.5v-1.788h2.238Zm-4.46,0h-2.244v-1.788h2.232Zm-4.462,0h-2.242v-1.788h2.24Zm-4.462,0h-2.242v-1.788h2.23Zm-4.46,0h-2.244v-1.788h2.232Zm-4.462,0H179.2v-1.788h2.23Zm-4.462,0h-2.242v-1.788h2.23Zm-4.46,0h-2.244v-1.788H172.5Zm-4.462,0h-2.242v-1.788h2.23Zm-4.462,0h-2.242v-1.788h2.23Zm-4.46,0h-2.244v-1.788h2.232Zm-4.462,0h-2.242v-1.788h2.23Zm-4.462,0h-2.242v-1.788h2.23Zm-4.46,0h-2.244v-1.788h2.232Zm-4.462,0h-2.242v-1.788h2.23Zm-4.462,0h-2.242v-1.788h2.23Zm-4.46,0h-2.244v-1.788h2.232Zm-4.462,0h-2.242v-1.788h2.23Zm-4.462,0H121.2v-1.788h2.23Zm-4.46,0h-2.244v-1.788h2.232Zm-4.462,0h-2.242v-1.788h2.23Zm-4.462,0h-2.242v-1.788h2.23Zm-4.46,0h-2.244v-1.788h2.232Zm-4.462,0H98.9v-1.788h2.23Zm-4.462,0H94.434v-1.788h2.23Zm-4.46,0H89.973v-1.788H92.2Zm-4.462,0H85.5v-1.788h2.23Zm-4.462,0H81.051v-1.788h2.23Zm-4.46,0H76.585v-1.788h2.232Zm-4.462,0H72.13v-1.788h2.23Zm-4.462,0H67.666v-1.788H69.9Zm-4.46,0H63.206v-1.788h2.232Z" transform="translate(-39.248 -837.883)" fill="#241f3c"/>
        <path id="Trazado_141153" data-name="Trazado 141153" d="M502.325,1081.868H62.924a10.994,10.994,0,0,1,0-21.987h439.4a10.994,10.994,0,1,1,0,21.987Zm-439.4-20.2a9.208,9.208,0,0,0,0,18.416h439.4a9.208,9.208,0,0,0,0-18.416Z" transform="translate(-41.158 -840.031)" fill="#241f3c"/>
        <path id="Trazado_141154" data-name="Trazado 141154" d="M84.247,1087.892a5.242,5.242,0,1,0,3.808-1.271A5.244,5.244,0,0,0,84.247,1087.892Zm5.491,6.331a3.136,3.136,0,1,1,.315-4.424A3.136,3.136,0,0,1,89.737,1094.223Z" transform="translate(-65.34 -861.215)" fill="#312a52"/>
        <path id="Trazado_141155" data-name="Trazado 141155" d="M348.1,1087.9a5.244,5.244,0,1,0,7.4.525,5.244,5.244,0,0,0-7.4-.525Zm5.491,6.331a2.221,2.221,0,1,0-.008,0Z" transform="translate(-274.46 -861.218)" fill="#312a52"/>
        <path id="Trazado_141156" data-name="Trazado 141156" d="M875.667,1087.9a5.244,5.244,0,1,0,7.4.525A5.244,5.244,0,0,0,875.667,1087.9Zm5.493,6.331a3.136,3.136,0,1,1,.313-4.424,3.136,3.136,0,0,1-.313,4.424Z" transform="translate(-692.597 -861.218)" fill="#312a52"/>
        <path id="Trazado_141157" data-name="Trazado 141157" d="M1139.477,1087.892a5.242,5.242,0,1,0,3.808-1.271A5.244,5.244,0,0,0,1139.477,1087.892Zm5.491,6.331a3.134,3.134,0,1,1,1.075-2.147,3.136,3.136,0,0,1-1.075,2.147Z" transform="translate(-901.686 -861.215)" fill="#312a52"/>
        <path id="Trazado_141158" data-name="Trazado 141158" d="M1403.287,1087.9a5.244,5.244,0,1,0,7.4.525A5.244,5.244,0,0,0,1403.287,1087.9Zm5.491,6.331a3.136,3.136,0,1,1,.315-4.424,3.136,3.136,0,0,1-.315,4.424Z" transform="translate(-1110.774 -861.218)" fill="#312a52"/>
        <path id="Trazado_141159" data-name="Trazado 141159" d="M1667.092,1087.9a5.244,5.244,0,1,0,7.4.525A5.244,5.244,0,0,0,1667.092,1087.9Zm5.491,6.331a3.136,3.136,0,1,1,.318-4.422A3.136,3.136,0,0,1,1672.583,1094.227Z" transform="translate(-1319.858 -861.218)" fill="#312a52"/>
        <path id="Trazado_141160" data-name="Trazado 141160" d="M1930.9,1087.9a5.244,5.244,0,1,0,7.4.525A5.244,5.244,0,0,0,1930.9,1087.9Zm5.491,6.331a3.136,3.136,0,1,1,.313-4.425A3.136,3.136,0,0,1,1936.393,1094.227Z" transform="translate(-1528.946 -861.218)" fill="#312a52"/>
        <path id="Trazado_141161" data-name="Trazado 141161" d="M2194.707,1087.892a5.241,5.241,0,1,0,3.808-1.271A5.244,5.244,0,0,0,2194.707,1087.892Zm5.49,6.331a3.134,3.134,0,1,1,1.075-2.147A3.136,3.136,0,0,1,2200.2,1094.223Z" transform="translate(-1738.031 -861.215)" fill="#312a52"/>
        <rect id="Rectángulo_36946" data-name="Rectángulo 36946" width="57.072" height="157.127" transform="translate(71.308 140.813)" fill="#312a52"/>
        <path id="Trazado_141162" data-name="Trazado 141162" d="M113.478,751.4H0V576.666a4.536,4.536,0,0,1,4.536-4.536h104.4a4.536,4.536,0,0,1,4.536,4.536Z" transform="translate(0 -453.454)" fill="#1a0f91"/>
        <rect id="Rectángulo_36947" data-name="Rectángulo 36947" width="3.9" height="30.894" transform="translate(15.09 254.435)" fill="#91b3fa"/>
        <rect id="Rectángulo_36948" data-name="Rectángulo 36948" width="3.9" height="30.894" transform="translate(22.662 254.435)" fill="#91b3fa"/>
        <rect id="Rectángulo_36949" data-name="Rectángulo 36949" width="3.9" height="30.894" transform="translate(30.231 254.435)" fill="#91b3fa"/>
        <rect id="Rectángulo_36950" data-name="Rectángulo 36950" width="3.9" height="30.894" transform="translate(37.802 254.435)" fill="#91b3fa"/>
        <rect id="Rectángulo_36951" data-name="Rectángulo 36951" width="3.9" height="30.894" transform="translate(45.371 254.435)" fill="#91b3fa"/>
        <rect id="Rectángulo_36952" data-name="Rectángulo 36952" width="3.9" height="30.894" transform="translate(52.942 254.435)" fill="#91b3fa"/>
        <rect id="Rectángulo_36953" data-name="Rectángulo 36953" width="3.9" height="30.894" transform="translate(60.511 254.435)" fill="#91b3fa"/>
        <rect id="Rectángulo_36954" data-name="Rectángulo 36954" width="103.475" height="2.381" transform="translate(4.418 116.195)" fill="#299999"/>
        <rect id="Rectángulo_36955" data-name="Rectángulo 36955" width="98.929" height="105.317" rx="8.19" transform="translate(7.158 126.84)" fill="#e8efff"/>
        <rect id="Rectángulo_36956" data-name="Rectángulo 36956" width="72.911" height="27.41" rx="9.68" transform="translate(19.704 140.559)" fill="#299999"/>
        <rect id="Rectángulo_36957" data-name="Rectángulo 36957" width="5.891" height="3.869" transform="translate(42.423 160.062)" fill="#82eded"/>
        <rect id="Rectángulo_36958" data-name="Rectángulo 36958" width="5.891" height="3.869" transform="translate(42.423 155.492)" fill="#82eded"/>
        <rect id="Rectángulo_36959" data-name="Rectángulo 36959" width="5.891" height="3.869" transform="translate(42.423 150.923)" fill="#82eded"/>
        <rect id="Rectángulo_36960" data-name="Rectángulo 36960" width="5.891" height="3.869" transform="translate(42.423 146.353)" fill="#82eded"/>
        <rect id="Rectángulo_36961" data-name="Rectángulo 36961" width="5.891" height="3.869" transform="translate(49.243 160.062)" fill="#82eded"/>
        <rect id="Rectángulo_36962" data-name="Rectángulo 36962" width="5.891" height="3.869" transform="translate(49.243 155.492)" fill="#82eded"/>
        <rect id="Rectángulo_36963" data-name="Rectángulo 36963" width="5.891" height="3.869" transform="translate(49.243 150.923)" fill="#82eded"/>
        <rect id="Rectángulo_36964" data-name="Rectángulo 36964" width="5.891" height="3.869" transform="translate(69.905 160.062)" fill="#82eded"/>
        <rect id="Rectángulo_36965" data-name="Rectángulo 36965" width="5.891" height="3.869" transform="translate(69.905 155.492)" fill="#82eded"/>
        <rect id="Rectángulo_36966" data-name="Rectángulo 36966" width="5.891" height="3.869" transform="translate(69.905 150.923)" fill="#82eded"/>
        <rect id="Rectángulo_36967" data-name="Rectángulo 36967" width="5.891" height="3.869" transform="translate(56.174 160.062)" fill="#82eded"/>
        <rect id="Rectángulo_36968" data-name="Rectángulo 36968" width="5.891" height="3.869" transform="translate(56.174 155.492)" fill="#82eded"/>
        <rect id="Rectángulo_36969" data-name="Rectángulo 36969" width="5.891" height="3.869" transform="translate(56.174 150.923)" fill="#82eded"/>
        <rect id="Rectángulo_36970" data-name="Rectángulo 36970" width="5.891" height="3.869" transform="translate(56.174 146.353)" fill="#82eded"/>
        <rect id="Rectángulo_36971" data-name="Rectángulo 36971" width="5.891" height="3.869" transform="translate(62.994 160.062)" fill="#82eded"/>
        <rect id="Rectángulo_36972" data-name="Rectángulo 36972" width="5.891" height="3.869" transform="translate(28.671 160.062)" fill="#82eded"/>
        <rect id="Rectángulo_36973" data-name="Rectángulo 36973" width="5.891" height="3.869" transform="translate(62.994 155.492)" fill="#82eded"/>
        <rect id="Rectángulo_36974" data-name="Rectángulo 36974" width="5.891" height="3.869" transform="translate(35.601 160.062)" fill="#82eded"/>
        <rect id="Rectángulo_36975" data-name="Rectángulo 36975" width="5.891" height="3.869" transform="translate(35.601 155.492)" fill="#82eded"/>
        <rect id="Rectángulo_36976" data-name="Rectángulo 36976" width="5.891" height="3.869" transform="translate(76.636 160.062)" fill="#82eded"/>
        <rect id="Rectángulo_36977" data-name="Rectángulo 36977" width="5.891" height="3.869" transform="translate(76.636 155.492)" fill="#82eded"/>
        <circle id="Elipse_4528" data-name="Elipse 4528" cx="12.236" cy="12.236" r="12.236" transform="translate(60.679 191.703) rotate(-45)" fill="#91b3fa"/>
        <path id="Trazado_141163" data-name="Trazado 141163" d="M325.086,889.69l4.149,3.927a5.393,5.393,0,0,0-1.174,3.273h-5.7A11.07,11.07,0,0,1,325.086,889.69Z" transform="translate(-255.493 -705.143)" fill="#299999"/>
        <path id="Trazado_141164" data-name="Trazado 141164" d="M340,874.125a11.067,11.067,0,0,1,7.206-2.865l-.079,5.713a5.366,5.366,0,0,0-2.954,1.1Z" transform="translate(-269.474 -690.536)" fill="#299999"/>
        <path id="Trazado_141165" data-name="Trazado 141165" d="M387.454,874.464l-4.095,3.993a5.392,5.392,0,0,0-2.489-1.2l.079-5.748A11.066,11.066,0,0,1,387.454,874.464Z" transform="translate(-301.867 -690.734)" fill="#299999"/>
        <path id="Trazado_141166" data-name="Trazado 141166" d="M403.908,897.492H398.2a5.393,5.393,0,0,0-1-3.035l4.111-4.008A11.073,11.073,0,0,1,403.908,897.492Z" transform="translate(-314.81 -705.746)" fill="#299999"/>
        <rect id="Rectángulo_36978" data-name="Rectángulo 36978" width="8.245" height="1.322" rx="0.661" transform="matrix(0.948, -0.319, 0.319, 0.948, 77.189, 192.094)" fill="#312a52"/>
        <circle id="Elipse_4529" data-name="Elipse 4529" cx="12.236" cy="12.236" r="12.236" transform="translate(18.53 191.702) rotate(-45)" fill="#91b3fa"/>
        <path id="Trazado_141167" data-name="Trazado 141167" d="M121.9,889.69l4.149,3.927a5.393,5.393,0,0,0-1.172,3.273h-5.7A11.07,11.07,0,0,1,121.9,889.69Z" transform="translate(-94.451 -705.143)" fill="#299999"/>
        <path id="Trazado_141168" data-name="Trazado 141168" d="M136.83,874.125a11.075,11.075,0,0,1,7.206-2.865l-.077,5.713a5.365,5.365,0,0,0-2.945,1.1Z" transform="translate(-108.448 -690.536)" fill="#299999"/>
        <path id="Trazado_141169" data-name="Trazado 141169" d="M184.264,874.456l-4.095,3.993a5.393,5.393,0,0,0-2.489-1.2l.066-5.75A11.066,11.066,0,0,1,184.264,874.456Z" transform="translate(-140.824 -690.726)" fill="#299999"/>
        <path id="Trazado_141170" data-name="Trazado 141170" d="M200.75,897.492h-5.706a5.393,5.393,0,0,0-.994-3.035l4.111-4.008A11.073,11.073,0,0,1,200.75,897.492Z" transform="translate(-153.799 -705.746)" fill="#299999"/>
        <rect id="Rectángulo_36979" data-name="Rectángulo 36979" width="1.319" height="8.225" rx="0.66" transform="translate(32.551 184.676) rotate(-20.54)" fill="#312a52"/>
        <circle id="Elipse_4530" data-name="Elipse 4530" cx="1.512" cy="1.512" r="1.512" transform="translate(55.198 185.088) rotate(-80.93)" fill="#48c6c6"/>
        <circle id="Elipse_4531" data-name="Elipse 4531" cx="1.512" cy="1.512" r="1.512" transform="translate(55.416 187.486)" fill="#48c6c6"/>
        <circle id="Elipse_4532" data-name="Elipse 4532" cx="1.512" cy="1.512" r="1.512" transform="translate(55.416 192.663)" fill="#48c6c6"/>
        <circle id="Elipse_4533" data-name="Elipse 4533" cx="1.512" cy="1.512" r="1.512" transform="translate(54.973 198.499) rotate(-21.76)" fill="#48c6c6"/>
        <rect id="Rectángulo_36980" data-name="Rectángulo 36980" width="7.528" height="7.528" rx="3.764" transform="translate(24.727 211.799)" fill="#48c6c6"/>
        <rect id="Rectángulo_36981" data-name="Rectángulo 36981" width="7.528" height="7.528" rx="3.764" transform="translate(36.09 211.799)" fill="#48c6c6"/>
        <rect id="Rectángulo_36982" data-name="Rectángulo 36982" width="7.528" height="7.528" rx="3.764" transform="translate(47.451 211.799)" fill="#299999"/>
        <rect id="Rectángulo_36983" data-name="Rectángulo 36983" width="7.528" height="7.528" rx="3.764" transform="translate(58.814 211.799)" fill="#48c6c6"/>
        <rect id="Rectángulo_36984" data-name="Rectángulo 36984" width="7.528" height="7.528" rx="3.764" transform="translate(70.175 211.799)" fill="#48c6c6"/>
        <rect id="Rectángulo_36985" data-name="Rectángulo 36985" width="7.528" height="7.528" rx="3.764" transform="translate(81.538 211.799)" fill="#299999"/>
        <path id="Trazado_141171" data-name="Trazado 141171" d="M653.04,1056.73v8.5h9.428v15.246h8.148V1056.73Z" transform="translate(-517.581 -837.535)" fill="#241f3c"/>
        <g id="Layer_7" data-name="Layer 7" transform="translate(132.858 179.56)">
          <rect id="Rectángulo_36986" data-name="Rectángulo 36986" width="43.104" height="37.837" transform="translate(83.038)" fill="#e68d45"/>
          <rect id="Rectángulo_36987" data-name="Rectángulo 36987" width="43.104" height="37.837" transform="translate(96.031)" fill="#fdb477"/>
          <g id="Grupo_61306" data-name="Grupo 61306" transform="translate(113.996)">
            <rect id="Rectángulo_36988" data-name="Rectángulo 36988" width="4.655" height="7.635" fill="#fff"/>
          </g>
          <rect id="Rectángulo_36989" data-name="Rectángulo 36989" width="4.483" height="4.283" transform="translate(126.349 30.818)" fill="#e68d45"/>
          <rect id="Rectángulo_36990" data-name="Rectángulo 36990" width="4.483" height="4.283" transform="translate(132.561 30.818)" fill="#e68d45"/>
          <rect id="Rectángulo_36991" data-name="Rectángulo 36991" width="4.483" height="4.283" transform="translate(120.09 30.818)" fill="#e68d45"/>
          <rect id="Rectángulo_36992" data-name="Rectángulo 36992" width="43.104" height="37.837" fill="#e68d45"/>
          <rect id="Rectángulo_36993" data-name="Rectángulo 36993" width="43.104" height="37.837" transform="translate(12.991)" fill="#fdb477"/>
          <g id="Grupo_61307" data-name="Grupo 61307" transform="translate(30.959)">
            <rect id="Rectángulo_36994" data-name="Rectángulo 36994" width="4.655" height="7.635" fill="#fff"/>
          </g>
          <rect id="Rectángulo_36995" data-name="Rectángulo 36995" width="4.483" height="4.283" transform="translate(43.309 30.818)" fill="#e68d45"/>
          <rect id="Rectángulo_36996" data-name="Rectángulo 36996" width="4.483" height="4.283" transform="translate(49.523 30.818)" fill="#e68d45"/>
          <rect id="Rectángulo_36997" data-name="Rectángulo 36997" width="4.483" height="4.283" transform="translate(37.053 30.818)" fill="#e68d45"/>
          <rect id="Rectángulo_36998" data-name="Rectángulo 36998" width="43.104" height="37.837" transform="translate(155.297)" fill="#e68d45"/>
          <rect id="Rectángulo_36999" data-name="Rectángulo 36999" width="43.104" height="37.837" transform="translate(168.288)" fill="#fdb477"/>
          <g id="Grupo_61308" data-name="Grupo 61308" transform="translate(186.254)">
            <rect id="Rectángulo_37000" data-name="Rectángulo 37000" width="4.655" height="7.635" fill="#fff"/>
          </g>
          <rect id="Rectángulo_37001" data-name="Rectángulo 37001" width="4.483" height="4.283" transform="translate(198.606 30.818)" fill="#e68d45"/>
          <rect id="Rectángulo_37002" data-name="Rectángulo 37002" width="4.483" height="4.283" transform="translate(204.821 30.818)" fill="#e68d45"/>
          <rect id="Rectángulo_37003" data-name="Rectángulo 37003" width="4.483" height="4.283" transform="translate(192.35 30.818)" fill="#e68d45"/>
          <g id="Grupo_61309" data-name="Grupo 61309" transform="translate(259.391)">
            <rect id="Rectángulo_37006" data-name="Rectángulo 37006" width="4.655" height="7.635" transform="translate(0)" fill="#fff"/>
          </g>
          <rect id="Rectángulo_37008" data-name="Rectángulo 37008" width="4.483" height="4.283" transform="translate(277.956 30.818)" fill="#e68d45"/>
        </g>
        <rect id="Rectángulo_37010" data-name="Rectángulo 37010" width="472.162" height="2.188" transform="translate(0 4.304)" fill="#312a52"/>
        <rect id="Rectángulo_37011" data-name="Rectángulo 37011" width="6.513" height="19.521" transform="matrix(1, -0.019, 0.019, 1, 136.705, 100.659)" fill="#241f3c"/>
        <rect id="Rectángulo_37012" data-name="Rectángulo 37012" width="6.436" height="2.703" transform="translate(136.924 130.566) rotate(-0.49)" fill="#241f3c"/>
        <rect id="Rectángulo_37013" data-name="Rectángulo 37013" width="3.871" height="4.041" transform="translate(138.221 132.108) rotate(-0.49)" fill="#241f3c"/>
        <rect id="Rectángulo_37014" data-name="Rectángulo 37014" width="6.436" height="2.703" transform="translate(136.924 130.566) rotate(-0.49)" fill="#241f3c"/>
        <path id="Trazado_141172" data-name="Trazado 141172" d="M667.776,654.538h0l-.481-.46A3.891,3.891,0,0,0,664.572,653h0a3.9,3.9,0,0,0-2.7,1.122l-.475.469h0l.027,3.2h0l.494.463a3.893,3.893,0,0,0,2.7,1.054h.019a3.887,3.887,0,0,0,2.676-1.1l.485-.473h0Z" transform="translate(-524.207 -517.549)" fill="#241f3c"/>
        <rect id="Rectángulo_37015" data-name="Rectángulo 37015" width="3.682" height="2.585" transform="translate(138.561 139.759) rotate(-0.49)" fill="#241f3c"/>
        <path id="Trazado_141173" data-name="Trazado 141173" d="M673.17,664.932l.093,11.039.734.707.765-.72-.093-11.039Z" transform="translate(-533.536 -526.997)" fill="#241f3c"/>
        <path id="Trazado_141174" data-name="Trazado 141174" d="M649.346,618.895l-7.772.066-4.024-4.306,15.746-.135Z" transform="translate(-505.304 -487.051)" fill="#48c6c6"/>
        <path id="Trazado_141175" data-name="Trazado 141175" d="M638.642,555.213l8.341-.073,4.3,2.912-16.9.145Z" transform="translate(-502.8 -439.988)" fill="#48c6c6"/>
        <rect id="Rectángulo_37016" data-name="Rectángulo 37016" width="17.924" height="10.253" transform="translate(131.072 117.616) rotate(-0.49)" fill="#241f3c"/>
        <rect id="Rectángulo_37017" data-name="Rectángulo 37017" width="29.067" height="6.513" transform="translate(156.93 100.876) rotate(-1.64)" fill="#241f3c"/>
        <rect id="Rectángulo_37018" data-name="Rectángulo 37018" width="38.123" height="13.609" rx="6.805" transform="translate(133.378 98.338) rotate(-1.86)" fill="#48c6c6"/>
        <path id="Trazado_141176" data-name="Trazado 141176" d="M664.942,491.877a2.8,2.8,0,1,0,3.711,1.379A2.8,2.8,0,0,0,664.942,491.877Z" transform="translate(-525.721 -389.646)" fill="#241f3c"/>
        <path id="Trazado_141177" data-name="Trazado 141177" d="M785.516,489.443a2.8,2.8,0,1,0,3.709,1.379A2.8,2.8,0,0,0,785.516,489.443Z" transform="translate(-621.282 -387.718)" fill="#241f3c"/>
        <rect id="Rectángulo_37019" data-name="Rectángulo 37019" width="54.365" height="19.407" rx="9.703" transform="translate(135.036)" fill="#48c6c6"/>
        <rect id="Rectángulo_37020" data-name="Rectángulo 37020" width="6.513" height="29.067" transform="translate(158.517 31.429)" fill="#241f3c"/>
        <path id="Trazado_141178" data-name="Trazado 141178" d="M754.452,24.85h1.17a5.92,5.92,0,0,1,5.92,5.922V52.994a5.922,5.922,0,0,1-5.922,5.922h-1.17A5.92,5.92,0,0,1,748.53,53V30.772A5.92,5.92,0,0,1,754.452,24.85Z" transform="translate(-593.264 -19.695)" fill="#48c6c6"/>
        <path id="Trazado_141179" data-name="Trazado 141179" d="M763.91,139.55a3.8,3.8,0,1,0,4.995,1.983A3.8,3.8,0,0,0,763.91,139.55Z" transform="translate(-603.635 -110.357)" fill="#241f3c"/>
        <path id="Trazado_141180" data-name="Trazado 141180" d="M676.818,22.287a4.962,4.962,0,1,0,6.495,2.657A4.962,4.962,0,0,0,676.818,22.287Z" transform="translate(-534.015 -17.359)" fill="#241f3c"/>
        <path id="Trazado_141181" data-name="Trazado 141181" d="M845.365,23.46a4.964,4.964,0,1,0,6.524,2.589,4.964,4.964,0,0,0-6.524-2.589Z" transform="translate(-667.636 -18.274)" fill="#241f3c"/>
        <path id="Trazado_141182" data-name="Trazado 141182" d="M758.118,295.453l-22.881-41.836a11.473,11.473,0,0,1,4.563-15.572l1.987-1.089a11.475,11.475,0,0,1,15.574,4.563l22.879,41.83a11.473,11.473,0,0,1-4.563,15.572l-1.987,1.091A11.473,11.473,0,0,1,758.118,295.453Z" transform="translate(-581.611 -186.688)" fill="#48c6c6"/>
        <path id="Trazado_141183" data-name="Trazado 141183" d="M777.01,267.917a6.447,6.447,0,1,0,1.016,9.067A6.447,6.447,0,0,0,777.01,267.917Z" transform="translate(-607.541 -211.229)" fill="#241f3c"/>
        <path id="Trazado_141184" data-name="Trazado 141184" d="M880.723,460.787a6.447,6.447,0,1,0,1.116,9.05A6.447,6.447,0,0,0,880.723,460.787Z" transform="translate(-689.783 -364.126)" fill="#241f3c"/>
        <rect id="Rectángulo_37021" data-name="Rectángulo 37021" width="54.365" height="19.407" rx="9.703" transform="translate(370.477 19.407) rotate(180)" fill="#48c6c6"/>
        <rect id="Rectángulo_37022" data-name="Rectángulo 37022" width="6.513" height="29.067" transform="translate(340.485 31.429)" fill="#241f3c"/>
        <rect id="Rectángulo_37023" data-name="Rectángulo 37023" width="6.513" height="29.067" transform="translate(292.034 65.764) rotate(-27.87)" fill="#241f3c"/>
        <rect id="Rectángulo_37024" data-name="Rectángulo 37024" width="19.521" height="6.513" transform="translate(312.808 120.945) rotate(-89.38)" fill="#241f3c"/>
        <rect id="Rectángulo_37025" data-name="Rectángulo 37025" width="13.012" height="34.064" rx="6.506" transform="translate(350.248 39.22) rotate(180)" fill="#48c6c6"/>
        <path id="Trazado_141185" data-name="Trazado 141185" d="M1639.11,141.536a3.8,3.8,0,1,0,4.993-1.983A3.8,3.8,0,0,0,1639.11,141.536Z" transform="translate(-1298.866 -110.36)" fill="#241f3c"/>
        <path id="Trazado_141186" data-name="Trazado 141186" d="M1715.817,24.957a4.964,4.964,0,1,0,6.495-2.657,4.964,4.964,0,0,0-6.495,2.657Z" transform="translate(-1359.601 -17.371)" fill="#241f3c"/>
        <path id="Trazado_141187" data-name="Trazado 141187" d="M1547.237,26.061a4.964,4.964,0,1,0,6.521-2.595,4.964,4.964,0,0,0-6.521,2.595Z" transform="translate(-1225.974 -18.281)" fill="#241f3c"/>
        <rect id="Rectángulo_37026" data-name="Rectángulo 37026" width="70.631" height="25.215" rx="12.607" transform="translate(351.865 75.089) rotate(-177.92)" fill="#48c6c6"/>
        <path id="Trazado_141188" data-name="Trazado 141188" d="M1607.436,270.549A6.447,6.447,0,1,0,1616,267.4,6.447,6.447,0,0,0,1607.436,270.549Z" transform="translate(-1273.536 -211.463)" fill="#241f3c"/>
        <path id="Trazado_141189" data-name="Trazado 141189" d="M1388.49,264.083a6.447,6.447,0,1,0,8.592-3.055,6.447,6.447,0,0,0-8.592,3.055Z" transform="translate(-1099.983 -206.389)" fill="#241f3c"/>
        <path id="Trazado_141190" data-name="Trazado 141190" d="M6.192,0H31.929a6.192,6.192,0,0,1,6.2,6.194V7.418a6.192,6.192,0,0,1-6.192,6.192H6.192A6.192,6.192,0,0,1,0,7.418V6.194A6.194,6.194,0,0,1,6.192,0Z" transform="translate(313.155 113.997) rotate(-117.64)" fill="#48c6c6"/>
        <path id="Trazado_141191" data-name="Trazado 141191" d="M1513.158,491.552a2.8,2.8,0,1,0,3.026,2.549A2.8,2.8,0,0,0,1513.158,491.552Z" transform="translate(-1197.258 -389.582)" fill="#241f3c"/>
        <path id="Trazado_141192" data-name="Trazado 141192" d="M1455.9,385.421a2.8,2.8,0,1,0,3.026,2.547A2.8,2.8,0,0,0,1455.9,385.421Z" transform="translate(-1151.876 -305.466)" fill="#241f3c"/>
        <path id="Trazado_141193" data-name="Trazado 141193" d="M1374.05,645.81v26.665c.208,1.711,1.269,2.454,3.255,2.17V645.812Z" transform="translate(-1089.034 -511.851)" fill="#241f3c"/>
        <path id="Trazado_141194" data-name="Trazado 141194" d="M1337.02,645.81l9.286,9.286V645.81Z" transform="translate(-1059.685 -511.851)" fill="#241f3c"/>
        <path id="Trazado_141195" data-name="Trazado 141195" d="M1659.64,645.81v28.832c1.983.284,3.049-.458,3.255-2.17V645.81Z" transform="translate(-1315.384 -511.851)" fill="#241f3c"/>
        <path id="Trazado_141196" data-name="Trazado 141196" d="M1663.88,645.81V655.1l9.289-9.286Z" transform="translate(-1318.745 -511.851)" fill="#241f3c"/>
        <path id="Trazado_141197" data-name="Trazado 141197" d="M1505.792,568.69h-7.953a6.266,6.266,0,0,0-2.309,4.877l.015,8.332,12.568-.023-.014-8.332A6.273,6.273,0,0,0,1505.792,568.69Z" transform="translate(-1185.315 -450.728)" fill="#48c6c6"/>
        <rect id="Rectángulo_37027" data-name="Rectángulo 37027" width="80.163" height="4.258" rx="2.129" transform="translate(275.877 130.132)" fill="#48c6c6"/>
        <circle id="Elipse_4534" data-name="Elipse 4534" cx="3.835" cy="3.835" r="3.835" transform="translate(312.123 126.906) rotate(-80.78)" fill="#241f3c"/>
        <circle id="Elipse_4535" data-name="Elipse 4535" cx="1.832" cy="1.832" r="1.832" transform="translate(314.635 121.895)" fill="#48c6c6"/>
        <path id="Trazado_141198" data-name="Trazado 141198" d="M938.95,1007.619v78.559h15.708v-90.7Z" transform="translate(-744.185 -788.99)" fill="#6788cb"/>
        <rect id="Rectángulo_37028" data-name="Rectángulo 37028" width="45.298" height="78.559" transform="translate(149.45 218.629)" fill="#91b3fa"/>
        <path id="Trazado_141199" data-name="Trazado 141199" d="M780.263,1212.357H753.571a3.056,3.056,0,0,1-3.051-3.051V1194.1a3.053,3.053,0,0,1,3.051-3.049h26.692a3.053,3.053,0,0,1,3.051,3.049v15.207A3.056,3.056,0,0,1,780.263,1212.357Zm-26.692-21.029a2.775,2.775,0,0,0-2.771,2.771v15.207a2.773,2.773,0,0,0,2.771,2.771h26.692a2.773,2.773,0,0,0,2.771-2.771V1194.1a2.775,2.775,0,0,0-2.771-2.771Z" transform="translate(-594.841 -943.993)" fill="#241f3c"/>
        <rect id="Rectángulo_37029" data-name="Rectángulo 37029" width="10.394" height="1.11" rx="0.555" transform="translate(177.417 250.332) rotate(180)" fill="#2e8080"/>
        <path id="Trazado_141200" data-name="Trazado 141200" d="M954.659,995.48l-15.708,12.139v11.467h.1l15.6-12.7Z" transform="translate(-744.185 -788.99)" fill="#241f3c"/>
        <rect id="Rectángulo_37030" data-name="Rectángulo 37030" width="45.298" height="11.465" transform="translate(149.45 218.629)" fill="#241f3c"/>
        <path id="Trazado_141201" data-name="Trazado 141201" d="M943.04,962.073l26.567-20.915v-10L943.04,951.154Z" transform="translate(-747.427 -738.011)" fill="#556c9d"/>
        <rect id="Rectángulo_37031" data-name="Rectángulo 37031" width="57.848" height="10.934" transform="translate(195.59 224.076) rotate(180)" fill="#7693ce"/>
        <path id="Trazado_141202" data-name="Trazado 141202" d="M748.488,931.16h-55.06L664.05,951.154H721.9Z" transform="translate(-526.307 -738.011)" fill="#91b3fa"/>
        <path id="Trazado_141203" data-name="Trazado 141203" d="M904.46,952.3l19.1-.025,4.1-2.9-19.1.027Z" transform="translate(-716.85 -752.452)" fill="#fff"/>
        <path id="Trazado_141204" data-name="Trazado 141204" d="M845.88,952.444l8.521-.01,4.1-2.894-8.521.01Z" transform="translate(-670.421 -752.579)" fill="#fff"/>
        <path id="Trazado_141205" data-name="Trazado 141205" d="M876.9,971.771l19.1-.027,4.1-2.894-19.1.027Z" transform="translate(-695.006 -767.883)" fill="#fff"/>
        <path id="Trazado_141206" data-name="Trazado 141206" d="M818.32,971.906l8.521-.01,4.1-2.9-8.521.012Z" transform="translate(-648.578 -768.002)" fill="#fff"/>
        <path id="Trazado_141207" data-name="Trazado 141207" d="M849.34,991.241l19.1-.027,4.1-2.894-19.1.027Z" transform="translate(-673.163 -783.315)" fill="#fff"/>
        <path id="Trazado_141208" data-name="Trazado 141208" d="M790.76,991.376l8.521-.012,4.1-2.894-8.521.012Z" transform="translate(-626.734 -783.434)" fill="#fff"/>
        <path id="Trazado_141209" data-name="Trazado 141209" d="M787.49,952.526l8.523-.013,4.1-2.894-8.521.01Z" transform="translate(-624.142 -752.642)" fill="#fff"/>
        <path id="Trazado_141210" data-name="Trazado 141210" d="M759.93,971.986l8.523-.01,4.1-2.9-8.521.012Z" transform="translate(-602.299 -768.066)" fill="#fff"/>
        <path id="Trazado_141211" data-name="Trazado 141211" d="M732.37,991.456l8.523-.012,4.1-2.894-8.521.013Z" transform="translate(-580.456 -783.497)" fill="#fff"/>
        <rect id="Rectángulo_37032" data-name="Rectángulo 37032" width="73.741" height="4.866" transform="translate(215.646 297.151) rotate(180)" fill="#241f3c"/>
      </g>
      <g id="Character" transform="translate(369.873 109.567)">
        <path id="Trazado_141212" data-name="Trazado 141212" d="M1907.531,651.053l-17.256,9.382L1881.5,638.74l-4.5,1.135s2.923,25.2,7.617,29.816,28.642-5.551,28.642-5.551C1919.125,660.387,1913.779,648.485,1907.531,651.053Z" transform="translate(-1874.531 -615.814)" fill="#f7a594"/>
        <path id="Trazado_141213" data-name="Trazado 141213" d="M1887.2,618.962s3.134-3.97,3.261-5.26-3.941-4.178-4.319-3.7-1.244,1.686,1.489,3.346C1885.125,614.608,1881.852,617.61,1887.2,618.962Z" transform="translate(-1880.333 -592.997)" fill="#f7a594"/>
        <path id="Trazado_141214" data-name="Trazado 141214" d="M1872.147,615.216s1.543-3.941,1.354-5.773a8.847,8.847,0,0,0-2.437-4.563s-5.613,2.282-5.941,2.885,2.344,5.686,2.344,5.686S1869.531,616.963,1872.147,615.216Z" transform="translate(-1865.096 -588.978)" fill="#f7a594"/>
        <path id="Trazado_141215" data-name="Trazado 141215" d="M1894.666,587.75s1.794-10.446.114-10.612c-.774-.077-2.52,9.888-2.52,9.888Z" transform="translate(-1886.625 -566.99)" fill="#f7a594"/>
        <path id="Trazado_141216" data-name="Trazado 141216" d="M1889.054,617.689a.05.05,0,0,1-.033-.01.056.056,0,0,1-.012-.079c.852-1.187,2.294-3.294,2.369-4.049.1-1-2.506-3.091-3.746-3.591-.369-.149-.456-.087-.473-.064a1.507,1.507,0,0,0-.4,1.245c.118.658.749,1.338,1.867,2.024l.085.052-.089.046a7.814,7.814,0,0,0-2.972,2.423.057.057,0,1,1-.1-.058,7.775,7.775,0,0,1,2.929-2.419c-1.1-.687-1.724-1.375-1.844-2.049a1.645,1.645,0,0,1,.415-1.328c.087-.11.284-.1.606.029,1.244.508,3.92,2.632,3.815,3.709-.077.78-1.531,2.9-2.39,4.1A.059.059,0,0,1,1889.054,617.689Z" transform="translate(-1881.302 -592.842)" fill="#e6836f"/>
        <path id="Trazado_141217" data-name="Trazado 141217" d="M1871.227,622.58h-.089l-.01-.037a4.339,4.339,0,0,0-1.8-2.074.054.054,0,0,1-.019-.077.056.056,0,0,1,.077-.021,4.506,4.506,0,0,1,1.84,2.107h0c1.054,0,3.084-1.906,3.111-1.927a.056.056,0,1,1,.077.083C1874.324,620.7,1872.326,622.58,1871.227,622.58Z" transform="translate(-1868.426 -601.249)" fill="#e6836f"/>
        <path id="Trazado_141218" data-name="Trazado 141218" d="M1992.442,691.832s-3.611.481-12.282,6.015c.963,3.734,3.852,13.483,3.852,13.483s13.246-4.093,15.053-8.548S1998.945,690.026,1992.442,691.832Z" transform="translate(-1956.292 -657.693)" fill="#002e73"/>
        <path id="Trazado_141219" data-name="Trazado 141219" d="M2182.092,1363.572H2168.4a1.627,1.627,0,0,1-.623-.55,126.918,126.918,0,0,0-1.719-15.084l9.542-.388,2.159,7.575C2180.956,1357.307,2184.764,1361.991,2182.092,1363.572Z" transform="translate(-2103.632 -1177.597)" fill="#231f20"/>
        <path id="Trazado_141220" data-name="Trazado 141220" d="M2171.055,1417.057h16.231c.415,0,.272-2.257-.139-2.257l-16.134.091C2170.591,1414.891,2170.632,1417.057,2171.055,1417.057Z" transform="translate(-2107.322 -1230.898)" fill="#231f20"/>
        <path id="Trazado_141221" data-name="Trazado 141221" d="M2072.82,859.319c4.771,7.339,8.256,42.792,14.829,96.176l-9.718.51c-2.919-14.219-6.21-21.427-9.554-41.923a180.939,180.939,0,0,1-14.287-52.873C2052.017,847.91,2068.348,840.916,2072.82,859.319Z" transform="translate(-2014.743 -781.785)" fill="#231f20"/>
        <path id="Trazado_141222" data-name="Trazado 141222" d="M2004.212,865.99A300.676,300.676,0,0,1,1998.9,914c-1.062,21.74-2.489,21.012-4.509,46.352l-8.783-.116c-.738-10.857-6.6-61.469-2.047-93.955C1985.759,851.642,2005.616,846.807,2004.212,865.99Z" transform="translate(-1957.627 -785.932)" fill="#231f20"/>
        <path id="Trazado_141223" data-name="Trazado 141223" d="M1961.9,1368.656c.784,4.2,1.346,7.467,1.016,11.266l-21.27.415s-2.105-2.051.541-5.126,7.675-1.3,10.929-6.671Z" transform="translate(-1925.139 -1194.233)" fill="#231f20"/>
        <path id="Trazado_141224" data-name="Trazado 141224" d="M1938.786,1417.057h22.61c.415,0,.3-2.257-.108-2.257l-22.5.091C1938.355,1414.891,1938.371,1417.057,1938.786,1417.057Z" transform="translate(-1923.249 -1230.898)" fill="#231f20"/>
        <path id="Trazado_141225" data-name="Trazado 141225" d="M1991.048,732.845c0,4.489,31.882,3.19,31.882-1.3,1.828-39.183,11.3-35.174,8.874-39.119-4.178-6.8-25.277-6.414-32.873-3.491-3.016,1.162-7.067,5.889-8.364,13.429-.666,3.875,2.188,8.388,2.641,11.521C1994.251,721.135,1991.26,731.8,1991.048,732.845Z" transform="translate(-1964.461 -654.015)" fill="#002e73"/>
        <path id="Trazado_141226" data-name="Trazado 141226" d="M2072.439,650.148a9.414,9.414,0,0,0,9.517-4.543l-.375-10.9-6.171-.6a18.286,18.286,0,0,0-5.117,1.184l-1.39,7.173-.3,1.556C2067.9,645.556,2067.056,649.366,2072.439,650.148Z" transform="translate(-2025.978 -612.144)" fill="#f7a594"/>
        <path id="Trazado_141227" data-name="Trazado 141227" d="M2082.632,645.4a13.794,13.794,0,0,1-10.6,5.291l1.2-6.206Z" transform="translate(-2029.106 -620.371)" fill="#e6836f"/>
        <path id="Trazado_141228" data-name="Trazado 141228" d="M2052.2,549.362c-.483,2.145-1.481,6.858-1.317,9.027.249,3.3,3.333,6.967,6.015,7.447,3.111.317,7.314-.61,9.594-2.568a31.179,31.179,0,0,0,4.856-8.1c2.356-6.441-2.195-12.089-7.968-13.394S2053.707,542.671,2052.2,549.362Z" transform="translate(-2012.33 -538.677)" fill="#f7a594"/>
        <path id="Trazado_141229" data-name="Trazado 141229" d="M2079.942,556.056c1.205-2.118-.394-2.977-2.149-1.332.3-1.6,2.124-6.285.508-7.839-1.823-1.8-9.849-1.018-14.161-5.513,0,0,3.213-7.053,13.763-2.885C2089.815,544.809,2079.942,556.056,2079.942,556.056Z" transform="translate(-2022.853 -535.312)" fill="#73382a"/>
        <path id="Trazado_141230" data-name="Trazado 141230" d="M2130.413,614.3a2.085,2.085,0,1,0,3.215-.73A2.354,2.354,0,0,0,2130.413,614.3Z" transform="translate(-2074.815 -595.568)" fill="#f7a594"/>
        <path id="Trazado_141231" data-name="Trazado 141231" d="M2024.349,691.571c-3.584-.429-7.1,16.876-4.638,21.62,0,.349.012.7.021,1.06.027,1.352.06,2.744.1,4.149.021.622.042,1.245.06,1.879.048,1.384.1,2.775.158,4.149.44,10.693,1.1,20.672,1.1,20.672H1983.82c.3-7.335,1.369-14.862,2.1-20.672.189-1.514.357-2.9.477-4.149.068-.674.122-1.3.162-1.879a15.329,15.329,0,0,0-.033-3.242,7.6,7.6,0,0,1-.083-.913c-.187-5.459,3.508-20.768,6.167-23.647a22.789,22.789,0,0,1,7.774-1.867,37.873,37.873,0,0,0,2.836,14.769s7.907-6.785,12.218-14.86C2019.224,689.266,2022.677,690.028,2024.349,691.571Z" transform="translate(-1959.193 -655.363)" fill="#ffb655"/>
        <path id="Trazado_141232" data-name="Trazado 141232" d="M1996.556,816.265a15.356,15.356,0,0,0-.033-3.242,7.522,7.522,0,0,1-.083-.913h33.3c.027,1.352.06,2.744.1,4.149Z" transform="translate(-1969.195 -753.222)" fill="#fff"/>
        <path id="Trazado_141233" data-name="Trazado 141233" d="M2028.074,845.379H1993.94c.189-1.514.357-2.9.477-4.148h33.5C2027.971,842.607,2028.018,844,2028.074,845.379Z" transform="translate(-1967.214 -776.302)" fill="#fff"/>
        <path id="Trazado_141234" data-name="Trazado 141234" d="M2063.482,542.973c.458-3.365.981-12-6.667-14.223-6.8-1.975-11.676,2.112-13.981,4.8-1,.154-3.684-.577-4.148-.021-.112.332,0,.973,2.724,2.056l-.015.027c9.874,2.166,18.3,4.924,21.854,9.66a3.359,3.359,0,0,0,1.015.292C2064.585,545.568,2063.768,544.247,2063.482,542.973Z" transform="translate(-2002.657 -528.226)" fill="#fe7062"/>
        <path id="Trazado_141235" data-name="Trazado 141235" d="M2076.907,535.769s3.111-7.328,10.475-5.372l.143-.313a18.614,18.614,0,0,0-3.962-1.8c-2.329-.367-7.718.531-10.823,6.188A18.786,18.786,0,0,0,2076.907,535.769Z" transform="translate(-2029.669 -528.215)" fill="#e36155"/>
        <path id="Trazado_141236" data-name="Trazado 141236" d="M2097.7,731.356l5.217,11.587-21.193,10.579.394,4.458s27.973-3.559,30.429-9.7-7.5-32.454-7.5-32.454C2102.247,709.1,2098.509,725.755,2097.7,731.356Z" transform="translate(-2036.786 -675.664)" fill="#f7c4b9"/>
        <path id="Trazado_141237" data-name="Trazado 141237" d="M2042.442,904.777l-10.371.263s3.186,5.1,10.434,4.171C2052.046,908,2048.274,904.385,2042.442,904.777Z" transform="translate(-1997.435 -826.644)" fill="#f7c4b9"/>
        <path id="Trazado_141238" data-name="Trazado 141238" d="M1912.794,905.44v.531a.527.527,0,0,0,0,.081.911.911,0,0,0,.96.606h44.309a.908.908,0,0,0,.958-.606.527.527,0,0,0,0-.081v-.525Z" transform="translate(-1902.899 -827.193)" fill="#5d4f99"/>
        <path id="Trazado_141239" data-name="Trazado 141239" d="M1912.83,908.36a.911.911,0,0,0,.96.606H1958.1a.908.908,0,0,0,.958-.606Z" transform="translate(-1902.929 -829.507)" fill="#241f3c"/>
        <path id="Trazado_141240" data-name="Trazado 141240" d="M1887.035,759.315l-.255.251.139.2.33-.463Z" transform="translate(-1882.282 -711.367)" fill="#241f3c"/>
        <path id="Trazado_141241" data-name="Trazado 141241" d="M1892.749,788.6h35.945a.913.913,0,0,0,.923-1.11l-4.744-28.26a1.363,1.363,0,0,0-1.294-1.11h-35.947a.915.915,0,0,0-.923,1.11l4.744,28.26A1.365,1.365,0,0,0,1892.749,788.6Z" transform="translate(-1882.209 -710.43)" fill="#5d4f99"/>
        <path id="Trazado_141242" data-name="Trazado 141242" d="M1891.5,789.847h35.945a.912.912,0,0,0,.923-1.11l-4.744-28.26a1.363,1.363,0,0,0-1.294-1.11H1886.39a.912.912,0,0,0-.923,1.11l4.738,28.268A1.365,1.365,0,0,0,1891.5,789.847Z" transform="translate(-1881.224 -711.42)" fill="#241f3c"/>
        <ellipse id="Elipse_4536" data-name="Elipse 4536" cx="4.746" cy="4.928" rx="4.746" ry="4.928" transform="translate(20.014 59.602) rotate(-6.57)" fill="#48c6aa"/>
        <path id="Trazado_141243" data-name="Trazado 141243" d="M2157.125,725.068l12.116-6.134S2165.715,706.4,2161.7,704c-1.956,1.174-2.9,3.873-3.974,8.712A30.976,30.976,0,0,0,2157.125,725.068Z" transform="translate(-2096.246 -667.537)" fill="#002e73"/>
      </g>
    </g>
  </g>
</svg>
