<svg xmlns="http://www.w3.org/2000/svg" width="504.905" height="302.614" viewBox="0 0 504.905 302.614">
  <g id="img2" transform="translate(-9.15 -13.29)">
    <g id="OBJECTS" transform="translate(9.15 13.29)">
      <path id="Trazado_141244" data-name="Trazado 141244" d="M394.4,155.25H127.06l45.9,42.353-45.9,43.984H394.4l45.9-43.984Z" transform="translate(52.577 61.027)" fill="#1e168c"/>
      <path id="Trazado_141245" data-name="Trazado 141245" d="M203.956,101.49l52.226,32.771L201.26,200.3a4.159,4.159,0,0,1-6.688-.411L148.12,127.588Z" transform="translate(63.602 32.883)" fill="#99b0f6"/>
      <path id="Trazado_141246" data-name="Trazado 141246" d="M203.956,101.49l-55.836,26.1L178.5,174.816a71.864,71.864,0,0,0,41.775,2.559l35.909-43.115Z" transform="translate(63.602 32.883)" opacity="0.1"/>
      <path id="Trazado_141247" data-name="Trazado 141247" d="M148.12,127.567l26.159,40.708a71.376,71.376,0,0,0,50.977,3.047l30.927-37.082-52.226-32.71Z" transform="translate(63.602 32.904)" opacity="0.1"/>
      <path id="Trazado_141248" data-name="Trazado 141248" d="M259.436,101.49l52.226,32.771-54.846,66.1a4.144,4.144,0,0,1-6.688-.411L203.6,127.588Z" transform="translate(92.646 32.883)" fill="#99b0f6"/>
      <path id="Trazado_141249" data-name="Trazado 141249" d="M259.436,101.49l-55.836,26.1,30.363,47.229a71.925,71.925,0,0,0,41.851,2.605l35.848-43.161Z" transform="translate(92.646 32.883)" opacity="0.1"/>
      <path id="Trazado_141250" data-name="Trazado 141250" d="M203.6,127.567l26.159,40.708a71.376,71.376,0,0,0,50.977,3.047l30.927-37.082-52.226-32.71Z" transform="translate(92.646 32.904)" opacity="0.1"/>
      <path id="Trazado_141251" data-name="Trazado 141251" d="M316.121,101.49l52.241,32.771-54.922,66.1a4.159,4.159,0,0,1-6.7-.411L260.3,127.588Z" transform="translate(122.328 32.883)" fill="#99b0f6"/>
      <path id="Trazado_141252" data-name="Trazado 141252" d="M316.121,101.49l-55.821,26.1,30.363,47.229a71.925,71.925,0,0,0,41.79,2.559l35.909-43.115Z" transform="translate(122.328 32.883)" opacity="0.1"/>
      <path id="Trazado_141253" data-name="Trazado 141253" d="M260.3,127.567l26.143,40.708a71.422,71.422,0,0,0,50.992,3.047l30.927-37.082-52.241-32.71Z" transform="translate(122.328 32.904)" opacity="0.1"/>
      <rect id="Rect치ngulo_37033" data-name="Rect치ngulo 37033" width="377.022" height="197.858" rx="25.2" transform="translate(127.883)" fill="#d3dcf4"/>
      <path id="Trazado_141254" data-name="Trazado 141254" d="M92.32,79.776V51.682A38.5,38.5,0,0,1,130.712,13.29H430.934a38.514,38.514,0,0,1,38.408,38.392V79.776Z" transform="translate(34.39 -13.29)" fill="#99b0f6"/>
      <rect id="Rect치ngulo_37034" data-name="Rect치ngulo 37034" width="360.522" height="182.623" rx="20.16" transform="translate(136.14 7.602)" fill="none" stroke="#fff" stroke-miterlimit="10" stroke-width="0.5"/>
      <path id="Trazado_144416" data-name="Trazado 144416" d="M16.348-6.091a7.062,7.062,0,0,1-2.248,4.7A7.367,7.367,0,0,1,9.07.264,6.764,6.764,0,0,1,3.619-2.175,9.812,9.812,0,0,1,1.569-8.7v-1.846a10.937,10.937,0,0,1,.956-4.707,7.139,7.139,0,0,1,2.709-3.118,7.543,7.543,0,0,1,4.061-1.088,6.936,6.936,0,0,1,4.9,1.707,7.147,7.147,0,0,1,2.149,4.726H13.8a5.515,5.515,0,0,0-1.43-3.332,4.328,4.328,0,0,0-3.078-1.031,4.529,4.529,0,0,0-3.8,1.795,8.238,8.238,0,0,0-1.378,5.106v1.861A8.468,8.468,0,0,0,5.418-3.653,4.217,4.217,0,0,0,9.07-1.806a4.871,4.871,0,0,0,3.237-.956,5.3,5.3,0,0,0,1.5-3.329Zm11.878,4.68A5.181,5.181,0,0,1,24.047.264a4.434,4.434,0,0,1-3.474-1.325,5.735,5.735,0,0,1-1.206-3.922v-9.281h2.439v9.215q0,3.243,2.637,3.243,2.795,0,3.718-2.083V-14.265H30.6V0h-2.32ZM42.609-3.784a1.8,1.8,0,0,0-.745-1.536,7.17,7.17,0,0,0-2.6-.943,12.279,12.279,0,0,1-2.94-.949A4.183,4.183,0,0,1,34.719-8.53a3.154,3.154,0,0,1-.521-1.819,3.7,3.7,0,0,1,1.483-2.966,5.792,5.792,0,0,1,3.79-1.213,5.96,5.96,0,0,1,3.935,1.252,3.978,3.978,0,0,1,1.51,3.2H42.464a2.2,2.2,0,0,0-.85-1.727,3.186,3.186,0,0,0-2.142-.725,3.334,3.334,0,0,0-2.083.58,1.826,1.826,0,0,0-.751,1.516,1.479,1.479,0,0,0,.7,1.332,8.6,8.6,0,0,0,2.525.857,13.155,13.155,0,0,1,2.96.976A4.317,4.317,0,0,1,44.5-5.9a3.355,3.355,0,0,1,.547,1.945A3.651,3.651,0,0,1,43.519-.89,6.415,6.415,0,0,1,39.551.264a7.183,7.183,0,0,1-3.032-.606,4.932,4.932,0,0,1-2.063-1.694A4.083,4.083,0,0,1,33.71-4.39h2.439a2.525,2.525,0,0,0,.982,1.945,3.81,3.81,0,0,0,2.419.719,3.933,3.933,0,0,0,2.221-.56A1.722,1.722,0,0,0,42.609-3.784Zm8.925-13.935v3.454H54.2v1.885H51.535v8.857a1.98,1.98,0,0,0,.356,1.287,1.5,1.5,0,0,0,1.213.429,5.9,5.9,0,0,0,1.16-.158V0a7.112,7.112,0,0,1-1.872.262,3.037,3.037,0,0,1-2.465-.989A4.248,4.248,0,0,1,49.1-3.533v-8.846H46.5v-1.885h2.6v-3.454ZM55.866-7.264a8.425,8.425,0,0,1,.824-3.771,6.147,6.147,0,0,1,2.294-2.584,6.244,6.244,0,0,1,3.355-.91,6.016,6.016,0,0,1,4.713,2.017,7.76,7.76,0,0,1,1.8,5.366v.171a8.5,8.5,0,0,1-.8,3.738A6.056,6.056,0,0,1,65.773-.659a6.316,6.316,0,0,1-3.408.923,6,6,0,0,1-4.7-2.017,7.721,7.721,0,0,1-1.8-5.339Zm2.452.29a6.1,6.1,0,0,0,1.1,3.81,3.523,3.523,0,0,0,2.947,1.437,3.5,3.5,0,0,0,2.953-1.457,6.673,6.673,0,0,0,1.094-4.08,6.092,6.092,0,0,0-1.114-3.8,3.542,3.542,0,0,0-2.96-1.457,3.5,3.5,0,0,0-2.914,1.437A6.624,6.624,0,0,0,58.318-6.974Zm13-.277a8.356,8.356,0,0,1,1.556-5.28,4.919,4.919,0,0,1,4.074-2,4.947,4.947,0,0,1,3.968,1.714V-20.25h2.439V0H81.112l-.119-1.529A4.967,4.967,0,0,1,76.92.264a4.872,4.872,0,0,1-4.041-2.03,8.451,8.451,0,0,1-1.562-5.3Zm2.439.277a6.327,6.327,0,0,0,1,3.8,3.239,3.239,0,0,0,2.769,1.371,3.558,3.558,0,0,0,3.388-2.083v-6.552a3.585,3.585,0,0,0-3.362-2.017,3.254,3.254,0,0,0-2.795,1.384A6.966,6.966,0,0,0,73.756-6.974ZM89.787,0H87.348V-14.265h2.439ZM87.15-18.048a1.456,1.456,0,0,1,.363-1,1.361,1.361,0,0,1,1.074-.409,1.382,1.382,0,0,1,1.081.409,1.441,1.441,0,0,1,.369,1,1.393,1.393,0,0,1-.369.989,1.407,1.407,0,0,1-1.081.4,1.386,1.386,0,0,1-1.074-.4A1.408,1.408,0,0,1,87.15-18.048ZM102.5,0a5.123,5.123,0,0,1-.343-1.5A5.442,5.442,0,0,1,98.093.264,5.035,5.035,0,0,1,94.632-.929a3.86,3.86,0,0,1-1.351-3.026,4.033,4.033,0,0,1,1.694-3.461,7.987,7.987,0,0,1,4.766-1.233h2.373V-9.769a2.739,2.739,0,0,0-.765-2.037,3.073,3.073,0,0,0-2.254-.758,3.556,3.556,0,0,0-2.188.659,1.942,1.942,0,0,0-.883,1.6H93.571a3.366,3.366,0,0,1,.758-2.063,5.174,5.174,0,0,1,2.057-1.575,6.919,6.919,0,0,1,2.854-.58A5.639,5.639,0,0,1,103.1-13.3a4.447,4.447,0,0,1,1.45,3.395v6.565a8.027,8.027,0,0,0,.5,3.125V0ZM98.449-1.859a4.287,4.287,0,0,0,2.175-.593,3.589,3.589,0,0,0,1.49-1.542V-6.921H100.2q-4.482,0-4.482,2.624A2.22,2.22,0,0,0,96.484-2.5,2.939,2.939,0,0,0,98.449-1.859Z" transform="translate(300.252 48.004)" fill="#1e168c"/>
      <path id="Trazado_144417" data-name="Trazado 144417" d="M4.759-7.515V0H2.228V-19.2h7.08a7.113,7.113,0,0,1,4.937,1.608,5.453,5.453,0,0,1,1.786,4.258,5.381,5.381,0,0,1-1.747,4.3,7.431,7.431,0,0,1-5,1.51Zm0-2.07H9.308a4.548,4.548,0,0,0,3.111-.957A3.5,3.5,0,0,0,13.5-13.309a3.617,3.617,0,0,0-1.081-2.747,4.26,4.26,0,0,0-2.966-1.07H4.759ZM21.529,0H19.09V-14.265h2.439ZM18.892-18.048a1.456,1.456,0,0,1,.363-1,1.361,1.361,0,0,1,1.074-.409,1.382,1.382,0,0,1,1.081.409,1.441,1.441,0,0,1,.369,1,1.393,1.393,0,0,1-.369.989,1.407,1.407,0,0,1-1.081.4,1.386,1.386,0,0,1-1.074-.4A1.408,1.408,0,0,1,18.892-18.048ZM31.153-1.727a3.513,3.513,0,0,0,2.281-.791A2.783,2.783,0,0,0,34.515-4.5h2.307a4.423,4.423,0,0,1-.844,2.333A5.557,5.557,0,0,1,33.9-.4a5.991,5.991,0,0,1-2.749.659,5.876,5.876,0,0,1-4.634-1.945A7.745,7.745,0,0,1,24.8-7v-.409a8.588,8.588,0,0,1,.765-3.7,5.824,5.824,0,0,1,2.2-2.518,6.235,6.235,0,0,1,3.382-.9,5.721,5.721,0,0,1,3.988,1.437A5.136,5.136,0,0,1,36.822-9.36H34.515a3.361,3.361,0,0,0-1.048-2.274,3.26,3.26,0,0,0-2.327-.89,3.414,3.414,0,0,0-2.881,1.338,6.284,6.284,0,0,0-1.022,3.869v.461a6.159,6.159,0,0,0,1.015,3.8A3.43,3.43,0,0,0,31.153-1.727ZM43.545-6.6l-1.529,1.6V0H39.577V-20.25h2.439V-8l1.305-1.569,4.443-4.693H50.73L45.18-8.306,51.376,0H48.516ZM55.9,0H53.459V-14.265H55.9ZM53.262-18.048a1.456,1.456,0,0,1,.363-1,1.361,1.361,0,0,1,1.074-.409,1.382,1.382,0,0,1,1.081.409,1.441,1.441,0,0,1,.369,1,1.393,1.393,0,0,1-.369.989,1.407,1.407,0,0,1-1.081.4,1.386,1.386,0,0,1-1.074-.4A1.408,1.408,0,0,1,53.262-18.048Zm8.846,3.784.079,1.793a5.2,5.2,0,0,1,4.271-2.057q4.522,0,4.562,5.1V0H68.581V-9.439a3.284,3.284,0,0,0-.705-2.281,2.827,2.827,0,0,0-2.156-.738,3.52,3.52,0,0,0-2.083.633,4.3,4.3,0,0,0-1.4,1.661V0H59.8V-14.265Zm12.01,7.014a8.384,8.384,0,0,1,1.542-5.306,4.933,4.933,0,0,1,4.087-1.971,4.907,4.907,0,0,1,4.074,1.846l.119-1.582h2.228V-.343a5.8,5.8,0,0,1-1.641,4.364,6.057,6.057,0,0,1-4.41,1.6A7.337,7.337,0,0,1,77.1,4.957a5.2,5.2,0,0,1-2.254-1.806l1.266-1.463a4.769,4.769,0,0,0,3.836,1.938,3.737,3.737,0,0,0,2.775-1,3.83,3.83,0,0,0,1-2.821V-1.424A5.013,5.013,0,0,1,79.721.264a4.873,4.873,0,0,1-4.054-2.017A8.815,8.815,0,0,1,74.118-7.251Zm2.452.277a6.4,6.4,0,0,0,.989,3.79,3.213,3.213,0,0,0,2.769,1.378,3.573,3.573,0,0,0,3.388-2.1v-6.513a3.614,3.614,0,0,0-3.362-2.043,3.242,3.242,0,0,0-2.782,1.384A6.966,6.966,0,0,0,76.57-6.974Z" transform="translate(309.805 168.909)" fill="#1e168c"/>
      <path id="Trazado_141255" data-name="Trazado 141255" d="M136.911,29.11H9.15v86.337H136.911l45.9-43.968Z" transform="translate(-9.15 -5.008)" fill="#1e168c"/>
      <path id="Trazado_144415" data-name="Trazado 144415" d="M9.268-7.765H4.759V0H2.215V-19.2H8.569a7.521,7.521,0,0,1,4.99,1.477,5.312,5.312,0,0,1,1.747,4.3,5.168,5.168,0,0,1-.969,3.125,5.784,5.784,0,0,1-2.7,1.991L16.15-.158V0H13.434ZM4.759-9.835H8.648a4.387,4.387,0,0,0,3-.977,3.305,3.305,0,0,0,1.114-2.615A3.48,3.48,0,0,0,11.7-16.161a4.494,4.494,0,0,0-3.065-.964H4.759ZM24.39.264a6.233,6.233,0,0,1-4.72-1.905,7.071,7.071,0,0,1-1.819-5.1v-.448a8.56,8.56,0,0,1,.811-3.79,6.325,6.325,0,0,1,2.268-2.61,5.7,5.7,0,0,1,3.157-.943A5.342,5.342,0,0,1,28.411-12.7a7.934,7.934,0,0,1,1.542,5.247v1.015H20.29a5.071,5.071,0,0,0,1.233,3.408,3.875,3.875,0,0,0,3,1.3,4.248,4.248,0,0,0,2.188-.527,5.5,5.5,0,0,0,1.569-1.4l1.49,1.16A5.99,5.99,0,0,1,24.39.264Zm-.3-12.788a3.253,3.253,0,0,0-2.479,1.074,5.222,5.222,0,0,0-1.239,3.012h7.146v-.185a4.645,4.645,0,0,0-1-2.881A3.063,3.063,0,0,0,24.086-12.524ZM38.5-1.727a3.513,3.513,0,0,0,2.281-.791A2.783,2.783,0,0,0,41.858-4.5h2.307a4.423,4.423,0,0,1-.844,2.333A5.557,5.557,0,0,1,41.245-.4,5.991,5.991,0,0,1,38.5.264a5.876,5.876,0,0,1-4.634-1.945A7.745,7.745,0,0,1,32.142-7v-.409a8.588,8.588,0,0,1,.765-3.7,5.824,5.824,0,0,1,2.2-2.518,6.235,6.235,0,0,1,3.382-.9,5.721,5.721,0,0,1,3.988,1.437A5.136,5.136,0,0,1,44.165-9.36H41.858a3.361,3.361,0,0,0-1.048-2.274,3.26,3.26,0,0,0-2.327-.89A3.414,3.414,0,0,0,35.6-11.186a6.284,6.284,0,0,0-1.022,3.869v.461a6.159,6.159,0,0,0,1.015,3.8A3.43,3.43,0,0,0,38.5-1.727ZM52.827.264a6.233,6.233,0,0,1-4.72-1.905,7.071,7.071,0,0,1-1.819-5.1v-.448a8.56,8.56,0,0,1,.811-3.79,6.325,6.325,0,0,1,2.268-2.61,5.7,5.7,0,0,1,3.157-.943A5.342,5.342,0,0,1,56.848-12.7,7.934,7.934,0,0,1,58.39-7.449v1.015H48.727a5.071,5.071,0,0,0,1.233,3.408,3.875,3.875,0,0,0,3,1.3,4.248,4.248,0,0,0,2.188-.527,5.5,5.5,0,0,0,1.569-1.4l1.49,1.16A5.99,5.99,0,0,1,52.827.264Zm-.3-12.788a3.253,3.253,0,0,0-2.479,1.074,5.222,5.222,0,0,0-1.239,3.012h7.146v-.185a4.645,4.645,0,0,0-1-2.881A3.063,3.063,0,0,0,52.523-12.524Zm20.738,5.55a8.541,8.541,0,0,1-1.49,5.247A4.775,4.775,0,0,1,67.737.264,5.231,5.231,0,0,1,63.65-1.384V5.484H61.211V-14.265h2.228l.119,1.582a5.024,5.024,0,0,1,4.14-1.846,4.864,4.864,0,0,1,4.067,1.938,8.635,8.635,0,0,1,1.5,5.392Zm-2.439-.277a6.3,6.3,0,0,0-1.028-3.81,3.313,3.313,0,0,0-2.821-1.4,3.585,3.585,0,0,0-3.322,1.964v6.816A3.592,3.592,0,0,0,67-1.727a3.3,3.3,0,0,0,2.788-1.391A6.88,6.88,0,0,0,70.822-7.251ZM82.081-1.727a3.513,3.513,0,0,0,2.281-.791A2.783,2.783,0,0,0,85.443-4.5H87.75a4.423,4.423,0,0,1-.844,2.333A5.557,5.557,0,0,1,84.83-.4a5.991,5.991,0,0,1-2.749.659,5.876,5.876,0,0,1-4.634-1.945A7.745,7.745,0,0,1,75.727-7v-.409a8.588,8.588,0,0,1,.765-3.7,5.824,5.824,0,0,1,2.2-2.518,6.235,6.235,0,0,1,3.382-.9,5.721,5.721,0,0,1,3.988,1.437A5.136,5.136,0,0,1,87.75-9.36H85.443a3.361,3.361,0,0,0-1.048-2.274,3.26,3.26,0,0,0-2.327-.89,3.414,3.414,0,0,0-2.881,1.338,6.284,6.284,0,0,0-1.022,3.869v.461a6.159,6.159,0,0,0,1.015,3.8A3.43,3.43,0,0,0,82.081-1.727ZM93.142,0H90.7V-14.265h2.439ZM90.505-18.048a1.456,1.456,0,0,1,.363-1,1.361,1.361,0,0,1,1.074-.409,1.382,1.382,0,0,1,1.081.409,1.441,1.441,0,0,1,.369,1,1.393,1.393,0,0,1-.369.989,1.407,1.407,0,0,1-1.081.4,1.386,1.386,0,0,1-1.074-.4A1.408,1.408,0,0,1,90.505-18.048ZM96.4-7.264a8.425,8.425,0,0,1,.824-3.771,6.147,6.147,0,0,1,2.294-2.584,6.244,6.244,0,0,1,3.355-.91,6.016,6.016,0,0,1,4.713,2.017,7.76,7.76,0,0,1,1.8,5.366v.171a8.5,8.5,0,0,1-.8,3.738,6.056,6.056,0,0,1-2.281,2.577A6.316,6.316,0,0,1,102.9.264a6,6,0,0,1-4.7-2.017,7.721,7.721,0,0,1-1.8-5.339Zm2.452.29a6.1,6.1,0,0,0,1.1,3.81A3.523,3.523,0,0,0,102.9-1.727a3.5,3.5,0,0,0,2.953-1.457,6.673,6.673,0,0,0,1.094-4.08,6.092,6.092,0,0,0-1.114-3.8,3.542,3.542,0,0,0-2.96-1.457,3.5,3.5,0,0,0-2.914,1.437A6.624,6.624,0,0,0,98.851-6.974Zm5.128-13.276h2.953L103.4-16.374l-1.964-.007Zm10.771,5.985.079,1.793a5.2,5.2,0,0,1,4.271-2.057q4.522,0,4.562,5.1V0h-2.439V-9.439a3.284,3.284,0,0,0-.705-2.281,2.827,2.827,0,0,0-2.156-.738,3.52,3.52,0,0,0-2.083.633,4.3,4.3,0,0,0-1.4,1.661V0h-2.439V-14.265Z" transform="translate(22.304 71.862)" fill="#fff"/>
      <path id="Trazado_144418" data-name="Trazado 144418" d="M2.228,0V-19.2H7.646a8.723,8.723,0,0,1,4.43,1.107,7.49,7.49,0,0,1,2.973,3.151,10.256,10.256,0,0,1,1.061,4.693v1.226a10.292,10.292,0,0,1-1.048,4.759A7.372,7.372,0,0,1,12.07-1.121,9.278,9.278,0,0,1,7.541,0ZM4.759-17.125V-2.07H7.422a5.794,5.794,0,0,0,4.555-1.821,7.523,7.523,0,0,0,1.628-5.186V-10.2a7.642,7.642,0,0,0-1.536-5.087,5.466,5.466,0,0,0-4.357-1.841ZM25.471.264a6.233,6.233,0,0,1-4.72-1.905,7.071,7.071,0,0,1-1.819-5.1v-.448a8.56,8.56,0,0,1,.811-3.79,6.325,6.325,0,0,1,2.268-2.61,5.7,5.7,0,0,1,3.157-.943A5.342,5.342,0,0,1,29.492-12.7a7.934,7.934,0,0,1,1.542,5.247v1.015H21.371A5.071,5.071,0,0,0,22.6-3.026a3.875,3.875,0,0,0,3,1.3,4.248,4.248,0,0,0,2.188-.527,5.5,5.5,0,0,0,1.569-1.4l1.49,1.16A5.99,5.99,0,0,1,25.471.264Zm-.3-12.788a3.253,3.253,0,0,0-2.479,1.074A5.222,5.222,0,0,0,21.45-8.437H28.6v-.185a4.645,4.645,0,0,0-1-2.881A3.063,3.063,0,0,0,25.167-12.524ZM42.161-3.784a1.8,1.8,0,0,0-.745-1.536,7.17,7.17,0,0,0-2.6-.943,12.279,12.279,0,0,1-2.94-.949A4.183,4.183,0,0,1,34.271-8.53a3.154,3.154,0,0,1-.521-1.819,3.7,3.7,0,0,1,1.483-2.966,5.792,5.792,0,0,1,3.79-1.213,5.96,5.96,0,0,1,3.935,1.252,3.978,3.978,0,0,1,1.51,3.2H42.016a2.2,2.2,0,0,0-.85-1.727,3.186,3.186,0,0,0-2.142-.725,3.334,3.334,0,0,0-2.083.58,1.826,1.826,0,0,0-.751,1.516,1.479,1.479,0,0,0,.7,1.332,8.6,8.6,0,0,0,2.525.857,13.155,13.155,0,0,1,2.96.976A4.317,4.317,0,0,1,44.053-5.9,3.355,3.355,0,0,1,44.6-3.955,3.651,3.651,0,0,1,43.071-.89,6.415,6.415,0,0,1,39.1.264,7.183,7.183,0,0,1,36.07-.343a4.932,4.932,0,0,1-2.063-1.694,4.083,4.083,0,0,1-.745-2.353H35.7a2.525,2.525,0,0,0,.982,1.945,3.81,3.81,0,0,0,2.419.719,3.933,3.933,0,0,0,2.221-.56A1.722,1.722,0,0,0,42.161-3.784Zm17.666-3.19a8.541,8.541,0,0,1-1.49,5.247A4.775,4.775,0,0,1,54.3.264a5.231,5.231,0,0,1-4.087-1.648V5.484H47.777V-14.265h2.228l.119,1.582a5.024,5.024,0,0,1,4.14-1.846,4.864,4.864,0,0,1,4.067,1.938,8.635,8.635,0,0,1,1.5,5.392Zm-2.439-.277a6.3,6.3,0,0,0-1.028-3.81,3.313,3.313,0,0,0-2.821-1.4,3.585,3.585,0,0,0-3.322,1.964v6.816a3.592,3.592,0,0,0,3.349,1.951,3.3,3.3,0,0,0,2.788-1.391A6.88,6.88,0,0,0,57.388-7.251ZM71.732,0a5.123,5.123,0,0,1-.343-1.5A5.442,5.442,0,0,1,67.329.264,5.035,5.035,0,0,1,63.868-.929a3.86,3.86,0,0,1-1.351-3.026,4.033,4.033,0,0,1,1.694-3.461,7.987,7.987,0,0,1,4.766-1.233H71.35V-9.769a2.739,2.739,0,0,0-.765-2.037,3.073,3.073,0,0,0-2.254-.758,3.556,3.556,0,0,0-2.188.659,1.942,1.942,0,0,0-.883,1.6H62.807a3.366,3.366,0,0,1,.758-2.063,5.174,5.174,0,0,1,2.057-1.575,6.919,6.919,0,0,1,2.854-.58A5.639,5.639,0,0,1,72.338-13.3,4.447,4.447,0,0,1,73.789-9.9v6.565a8.027,8.027,0,0,0,.5,3.125V0ZM67.685-1.859a4.287,4.287,0,0,0,2.175-.593,3.589,3.589,0,0,0,1.49-1.542V-6.921H69.438q-4.482,0-4.482,2.624A2.22,2.22,0,0,0,65.72-2.5,2.939,2.939,0,0,0,67.685-1.859Zm15.649.132a3.513,3.513,0,0,0,2.281-.791A2.783,2.783,0,0,0,86.7-4.5H89a4.423,4.423,0,0,1-.844,2.333A5.557,5.557,0,0,1,86.082-.4a5.991,5.991,0,0,1-2.749.659A5.876,5.876,0,0,1,78.7-1.681,7.745,7.745,0,0,1,76.979-7v-.409a8.588,8.588,0,0,1,.765-3.7,5.824,5.824,0,0,1,2.2-2.518,6.235,6.235,0,0,1,3.382-.9,5.721,5.721,0,0,1,3.988,1.437A5.136,5.136,0,0,1,89-9.36H86.7a3.361,3.361,0,0,0-1.048-2.274,3.26,3.26,0,0,0-2.327-.89,3.414,3.414,0,0,0-2.881,1.338,6.284,6.284,0,0,0-1.022,3.869v.461a6.159,6.159,0,0,0,1.015,3.8A3.43,3.43,0,0,0,83.333-1.727Zm10.85-10.811A5.185,5.185,0,0,1,98.4-14.528q4.522,0,4.562,5.1V0h-2.439V-9.439a3.284,3.284,0,0,0-.705-2.281,2.827,2.827,0,0,0-2.156-.738,3.52,3.52,0,0,0-2.083.633,4.3,4.3,0,0,0-1.4,1.661V0H91.745V-20.25h2.439ZM105.97-7.264a8.425,8.425,0,0,1,.824-3.771,6.147,6.147,0,0,1,2.294-2.584,6.244,6.244,0,0,1,3.355-.91,6.016,6.016,0,0,1,4.713,2.017,7.76,7.76,0,0,1,1.8,5.366v.171a8.5,8.5,0,0,1-.8,3.738,6.056,6.056,0,0,1-2.281,2.577,6.316,6.316,0,0,1-3.408.923,6,6,0,0,1-4.7-2.017,7.721,7.721,0,0,1-1.8-5.339Zm2.452.29a6.1,6.1,0,0,0,1.1,3.81,3.523,3.523,0,0,0,2.947,1.437,3.5,3.5,0,0,0,2.953-1.457,6.673,6.673,0,0,0,1.094-4.08,6.092,6.092,0,0,0-1.114-3.8,3.542,3.542,0,0,0-2.96-1.457,3.5,3.5,0,0,0-2.914,1.437A6.624,6.624,0,0,0,108.422-6.974Zm21.9,3.19a1.8,1.8,0,0,0-.745-1.536,7.17,7.17,0,0,0-2.6-.943,12.279,12.279,0,0,1-2.94-.949,4.183,4.183,0,0,1-1.608-1.318,3.154,3.154,0,0,1-.521-1.819,3.7,3.7,0,0,1,1.483-2.966,5.792,5.792,0,0,1,3.79-1.213,5.96,5.96,0,0,1,3.935,1.252,3.978,3.978,0,0,1,1.51,3.2h-2.452a2.2,2.2,0,0,0-.85-1.727,3.186,3.186,0,0,0-2.142-.725,3.334,3.334,0,0,0-2.083.58,1.826,1.826,0,0,0-.751,1.516,1.479,1.479,0,0,0,.7,1.332,8.6,8.6,0,0,0,2.525.857,13.155,13.155,0,0,1,2.96.976A4.317,4.317,0,0,1,132.212-5.9a3.355,3.355,0,0,1,.547,1.945A3.651,3.651,0,0,1,131.229-.89,6.415,6.415,0,0,1,127.261.264a7.183,7.183,0,0,1-3.032-.606,4.932,4.932,0,0,1-2.063-1.694,4.083,4.083,0,0,1-.745-2.353h2.439a2.525,2.525,0,0,0,.982,1.945,3.81,3.81,0,0,0,2.419.719,3.933,3.933,0,0,0,2.221-.56A1.722,1.722,0,0,0,130.32-3.784Z" transform="translate(262.866 278.236)" fill="#fff"/>
    </g>
  </g>
</svg>
