<svg xmlns="http://www.w3.org/2000/svg" xmlns:xlink="http://www.w3.org/1999/xlink" width="947.55" height="514.82" viewBox="0 0 947.55 514.82">
  <defs>
    <linearGradient id="linear-gradient" y1="0.5" x2="1" y2="0.5" gradientUnits="objectBoundingBox">
      <stop offset="0" stop-color="#8cd9d6"/>
      <stop offset="1" stop-color="#388e87"/>
    </linearGradient>
    <linearGradient id="linear-gradient-2" y1="0.5" x2="1.001" y2="0.5" gradientUnits="objectBoundingBox">
      <stop offset="0" stop-color="#ecb9b8"/>
      <stop offset="1" stop-color="#e5908c"/>
    </linearGradient>
    <linearGradient id="linear-gradient-3" y1="0.5" x2="1.001" y2="0.5" gradientUnits="objectBoundingBox">
      <stop offset="0" stop-color="#e5908c"/>
      <stop offset="1" stop-color="#df6f63"/>
    </linearGradient>
    <linearGradient id="linear-gradient-4" x1="-0.001" y1="0.5" x2="1" y2="0.5" xlink:href="#linear-gradient-3"/>
    <linearGradient id="linear-gradient-7" x1="-48.727" y1="0.5" x2="-47.726" y2="0.5" xlink:href="#linear-gradient-2"/>
    <linearGradient id="linear-gradient-8" x1="-47.24" y1="0.5" x2="-46.24" y2="0.5" xlink:href="#linear-gradient-3"/>
    <linearGradient id="linear-gradient-9" x1="-58.62" y1="0.5" x2="-57.62" y2="0.5" xlink:href="#linear-gradient-3"/>
    <linearGradient id="linear-gradient-10" x1="-57.977" y1="0.5" x2="-56.977" y2="0.5" xlink:href="#linear-gradient-3"/>
    <linearGradient id="linear-gradient-11" x1="-48.828" y1="0.5" x2="-47.827" y2="0.5" xlink:href="#linear-gradient-2"/>
    <radialGradient id="radial-gradient" cx="0.088" cy="0.032" r="1.445" gradientTransform="translate(0)" gradientUnits="objectBoundingBox">
      <stop offset="0.04" stop-color="#d8d9dd"/>
      <stop offset="0.55" stop-color="#edeef0"/>
      <stop offset="1" stop-color="#f7f7f8"/>
    </radialGradient>
    <radialGradient id="radial-gradient-2" cx="0.088" cy="0.032" r="1.445" xlink:href="#radial-gradient"/>
    <radialGradient id="radial-gradient-3" cx="0.088" cy="0.032" r="1.445" gradientTransform="translate(0)" gradientUnits="objectBoundingBox">
      <stop offset="0" stop-color="#f7f7f8"/>
      <stop offset="0.51" stop-color="#fbfbfb"/>
      <stop offset="0.72" stop-color="#fff"/>
    </radialGradient>
    <linearGradient id="linear-gradient-13" x1="-11.162" y1="0.5" x2="-10.161" y2="0.5" xlink:href="#linear-gradient-3"/>
    <linearGradient id="linear-gradient-14" x1="-6.014" y1="8.147" x2="-5.013" y2="8.147" xlink:href="#linear-gradient-3"/>
  </defs>
  <g id="img3" transform="translate(-9.36)">
    <g id="OBJECTS">
      <circle id="Elipse_4537" data-name="Elipse 4537" cx="202.4" cy="202.4" r="202.4" transform="translate(282.84 43.39)" fill="url(#linear-gradient)"/>
      <circle id="Elipse_4538" data-name="Elipse 4538" cx="9.61" cy="9.61" r="9.61" transform="translate(642.93 167.83)" fill="#fff"/>
      <line id="Línea_653" data-name="Línea 653" x2="107.74" transform="translate(662.16 177.44)" fill="none" stroke="#e8b4b1" stroke-miterlimit="10" stroke-width="2"/>
      <circle id="Elipse_4539" data-name="Elipse 4539" cx="9.61" cy="9.61" r="9.61" transform="translate(643.56 310.9)" fill="#fff"/>
      <circle id="Elipse_4540" data-name="Elipse 4540" cx="6.22" cy="6.22" r="6.22" transform="translate(646.95 314.37)" fill="url(#linear-gradient-2)"/>
      <line id="Línea_654" data-name="Línea 654" x2="114.01" transform="translate(659.4 320.59)" fill="none" stroke="#e8b4b1" stroke-miterlimit="10" stroke-width="2"/>
      <circle id="Elipse_4541" data-name="Elipse 4541" cx="9.61" cy="9.61" r="9.61" transform="translate(652.81 240.4)" fill="#fff"/>
      <circle id="Elipse_4542" data-name="Elipse 4542" cx="6.22" cy="6.22" r="6.22" transform="translate(656.2 243.88)" fill="url(#linear-gradient-3)"/>
      <line id="Línea_655" data-name="Línea 655" x2="114.01" transform="translate(668.65 250.1)" fill="none" stroke="#e8b4b1" stroke-miterlimit="10" stroke-width="2"/>
      <circle id="Elipse_4543" data-name="Elipse 4543" cx="9.61" cy="9.61" r="9.61" transform="translate(582.03 87.06)" fill="#fff"/>
      <circle id="Elipse_4544" data-name="Elipse 4544" cx="6.22" cy="6.22" r="6.22" transform="translate(585.42 90.53)" fill="url(#linear-gradient-4)"/>
      <line id="Línea_656" data-name="Línea 656" x2="114.02" transform="translate(597.86 96.75)" fill="none" stroke="#e8b4b1" stroke-miterlimit="10" stroke-width="2"/>
      <circle id="Elipse_4545" data-name="Elipse 4545" cx="9.61" cy="9.61" r="9.61" transform="translate(586.03 387.87)" fill="#fff"/>
      <circle id="Elipse_4546" data-name="Elipse 4546" cx="6.22" cy="6.22" r="6.22" transform="translate(589.42 391.34)" fill="url(#linear-gradient-4)"/>
      <line id="Línea_657" data-name="Línea 657" x2="114.02" transform="translate(601.86 397.56)" fill="none" stroke="#e8b4b1" stroke-miterlimit="10" stroke-width="2"/>
      <circle id="Elipse_4547" data-name="Elipse 4547" cx="6.22" cy="6.22" r="6.22" transform="translate(646.32 171.22)" fill="url(#linear-gradient-2)"/>
      <path id="Trazado_141256" data-name="Trazado 141256" d="M862.24,122.26H731.71a25.51,25.51,0,0,1-25.5-25.51h0a25.51,25.51,0,0,1,25.5-25.51H862.24a25.51,25.51,0,0,1,25.51,25.51h0a25.51,25.51,0,0,1-25.51,25.51Z" fill="#eef3ff"/>
      <path id="Trazado_144427" data-name="Trazado 144427" d="M10.327-11.417H6.214V0H4.535V-11.417H.431V-12.8h9.9Zm4.861,3.366a4.873,4.873,0,0,0-.8-.062A2.143,2.143,0,0,0,12.217-6.75V0H10.592V-9.51h1.582l.026,1.1a2.532,2.532,0,0,1,2.268-1.274,1.661,1.661,0,0,1,.721.123ZM21.842,0a3.415,3.415,0,0,1-.229-1A3.628,3.628,0,0,1,18.906.176,3.357,3.357,0,0,1,16.6-.62a2.573,2.573,0,0,1-.9-2.017,2.688,2.688,0,0,1,1.129-2.307A5.325,5.325,0,0,1,20-5.766h1.582v-.747a1.826,1.826,0,0,0-.51-1.358,2.049,2.049,0,0,0-1.5-.505,2.371,2.371,0,0,0-1.459.439,1.3,1.3,0,0,0-.589,1.063H15.892A2.244,2.244,0,0,1,16.4-8.249,3.449,3.449,0,0,1,17.768-9.3a4.613,4.613,0,0,1,1.9-.387,3.759,3.759,0,0,1,2.575.822A2.964,2.964,0,0,1,23.213-6.6v4.377a5.351,5.351,0,0,0,.334,2.083V0Zm-2.7-1.239a2.858,2.858,0,0,0,1.45-.4,2.392,2.392,0,0,0,.993-1.028V-4.614H20.313q-2.988,0-2.988,1.749a1.48,1.48,0,0,0,.51,1.2A1.959,1.959,0,0,0,19.144-1.239Zm14.669-3.41a5.654,5.654,0,0,1-1,3.5A3.2,3.2,0,0,1,30.121.176,3.315,3.315,0,0,1,27.335-1.1L27.256,0H25.762V-13.5h1.626v5.036A3.3,3.3,0,0,1,30.1-9.686a3.221,3.221,0,0,1,2.72,1.31,5.824,5.824,0,0,1,.989,3.586Zm-1.626-.185A4.394,4.394,0,0,0,31.545-7.4,2.124,2.124,0,0,0,29.7-8.306a2.387,2.387,0,0,0-2.312,1.494V-2.7A2.454,2.454,0,0,0,29.717-1.2a2.112,2.112,0,0,0,1.819-.905A4.672,4.672,0,0,0,32.187-4.834ZM41.732,0A3.416,3.416,0,0,1,41.5-1,3.628,3.628,0,0,1,38.8.176a3.357,3.357,0,0,1-2.307-.8,2.573,2.573,0,0,1-.9-2.017,2.688,2.688,0,0,1,1.129-2.307,5.325,5.325,0,0,1,3.177-.822h1.582v-.747a1.826,1.826,0,0,0-.51-1.358,2.049,2.049,0,0,0-1.5-.505A2.371,2.371,0,0,0,38-7.937a1.3,1.3,0,0,0-.589,1.063H35.781a2.244,2.244,0,0,1,.505-1.375A3.449,3.449,0,0,1,37.658-9.3a4.613,4.613,0,0,1,1.9-.387,3.759,3.759,0,0,1,2.575.822A2.964,2.964,0,0,1,43.1-6.6v4.377a5.351,5.351,0,0,0,.334,2.083V0Zm-2.7-1.239a2.858,2.858,0,0,0,1.45-.4,2.392,2.392,0,0,0,.993-1.028V-4.614H40.2q-2.988,0-2.988,1.749a1.48,1.48,0,0,0,.51,1.2A1.959,1.959,0,0,0,39.033-1.239Zm8.3-8.271V1.1q0,2.742-2.487,2.742a3.034,3.034,0,0,1-.993-.157V2.391a3.144,3.144,0,0,0,.738.07,1.1,1.1,0,0,0,.831-.295A1.457,1.457,0,0,0,45.7,1.142V-9.51Zm-1.793-2.522a.975.975,0,0,1,.242-.664.889.889,0,0,1,.708-.277.922.922,0,0,1,.721.272.96.96,0,0,1,.246.668.929.929,0,0,1-.246.659.938.938,0,0,1-.721.264.909.909,0,0,1-.712-.264A.949.949,0,0,1,45.537-12.032Zm3.981,7.189a5.617,5.617,0,0,1,.549-2.514A4.1,4.1,0,0,1,51.6-9.079a4.163,4.163,0,0,1,2.237-.606,4.01,4.01,0,0,1,3.142,1.345,5.174,5.174,0,0,1,1.2,3.577v.114a5.666,5.666,0,0,1-.532,2.492A4.038,4.038,0,0,1,56.124-.439a4.211,4.211,0,0,1-2.272.615,4,4,0,0,1-3.133-1.345,5.147,5.147,0,0,1-1.2-3.56Zm1.635.193a4.068,4.068,0,0,0,.734,2.54,2.349,2.349,0,0,0,1.964.958,2.335,2.335,0,0,0,1.969-.971,4.449,4.449,0,0,0,.729-2.72,4.061,4.061,0,0,0-.743-2.536,2.361,2.361,0,0,0-1.973-.971,2.335,2.335,0,0,0-1.942.958A4.416,4.416,0,0,0,51.153-4.649ZM68.617.176a4.155,4.155,0,0,1-3.146-1.27,4.714,4.714,0,0,1-1.213-3.4v-.3A5.707,5.707,0,0,1,64.8-7.317a4.217,4.217,0,0,1,1.512-1.74,3.8,3.8,0,0,1,2.1-.628A3.562,3.562,0,0,1,71.3-8.464a5.289,5.289,0,0,1,1.028,3.5v.677H65.884a3.38,3.38,0,0,0,.822,2.272,2.583,2.583,0,0,0,2,.866A2.832,2.832,0,0,0,70.164-1.5a3.666,3.666,0,0,0,1.046-.932l.993.773A3.993,3.993,0,0,1,68.617.176Zm-.2-8.525a2.169,2.169,0,0,0-1.652.716,3.482,3.482,0,0,0-.826,2.008H70.7v-.123a3.1,3.1,0,0,0-.668-1.92A2.042,2.042,0,0,0,68.415-8.35Zm7.33-1.16.053,1.2a3.465,3.465,0,0,1,2.848-1.371q3.015,0,3.041,3.4V0H80.061V-6.293a2.189,2.189,0,0,0-.47-1.521,1.884,1.884,0,0,0-1.437-.492,2.347,2.347,0,0,0-1.389.422,2.865,2.865,0,0,0-.932,1.107V0H74.207V-9.51ZM9.264,13.351a5.694,5.694,0,0,1-.993,3.5,3.183,3.183,0,0,1-2.689,1.327,3.488,3.488,0,0,1-2.725-1.1v4.579H1.23V8.49H2.716l.079,1.055a3.35,3.35,0,0,1,2.76-1.23A3.243,3.243,0,0,1,8.266,9.606a5.756,5.756,0,0,1,1,3.595Zm-1.626-.185a4.2,4.2,0,0,0-.686-2.54,2.208,2.208,0,0,0-1.881-.932A2.39,2.39,0,0,0,2.856,11v4.544a2.4,2.4,0,0,0,2.232,1.3,2.2,2.2,0,0,0,1.859-.927A4.587,4.587,0,0,0,7.638,13.166Zm8.288-3.217a4.873,4.873,0,0,0-.8-.062,2.143,2.143,0,0,0-2.171,1.362V18H11.329V8.49h1.582l.026,1.1a2.532,2.532,0,0,1,2.268-1.274,1.661,1.661,0,0,1,.721.123Zm.708,3.208a5.617,5.617,0,0,1,.549-2.514,4.1,4.1,0,0,1,1.529-1.723,4.163,4.163,0,0,1,2.237-.606,4.01,4.01,0,0,1,3.142,1.345,5.174,5.174,0,0,1,1.2,3.577v.114a5.666,5.666,0,0,1-.532,2.492,4.038,4.038,0,0,1-1.521,1.718,4.211,4.211,0,0,1-2.272.615,4,4,0,0,1-3.133-1.345,5.147,5.147,0,0,1-1.2-3.56Zm1.635.193A4.068,4.068,0,0,0,19,15.891a2.487,2.487,0,0,0,3.933-.013,4.449,4.449,0,0,0,.729-2.72,4.061,4.061,0,0,0-.743-2.536,2.361,2.361,0,0,0-1.973-.971,2.335,2.335,0,0,0-1.942.958A4.416,4.416,0,0,0,18.268,13.351Zm12.876,3.5a2.342,2.342,0,0,0,1.521-.527A1.855,1.855,0,0,0,33.385,15h1.538a2.949,2.949,0,0,1-.562,1.556,3.7,3.7,0,0,1-1.384,1.178,3.994,3.994,0,0,1-1.833.439,3.918,3.918,0,0,1-3.089-1.3,5.163,5.163,0,0,1-1.147-3.546v-.272a5.725,5.725,0,0,1,.51-2.47,3.883,3.883,0,0,1,1.463-1.679,4.157,4.157,0,0,1,2.254-.6,3.814,3.814,0,0,1,2.659.958,3.424,3.424,0,0,1,1.129,2.487H33.385a2.241,2.241,0,0,0-.7-1.516,2.174,2.174,0,0,0-1.551-.593,2.276,2.276,0,0,0-1.92.892,4.19,4.19,0,0,0-.681,2.58v.308a4.106,4.106,0,0,0,.677,2.531A2.287,2.287,0,0,0,31.144,16.849ZM40.7,18.176a4.155,4.155,0,0,1-3.146-1.27,4.714,4.714,0,0,1-1.213-3.4v-.3a5.707,5.707,0,0,1,.541-2.527,4.217,4.217,0,0,1,1.512-1.74,3.8,3.8,0,0,1,2.1-.628,3.562,3.562,0,0,1,2.883,1.222,5.289,5.289,0,0,1,1.028,3.5v.677H37.965a3.38,3.38,0,0,0,.822,2.272,2.583,2.583,0,0,0,2,.866,2.832,2.832,0,0,0,1.459-.352,3.666,3.666,0,0,0,1.046-.932l.993.773A3.993,3.993,0,0,1,40.7,18.176ZM40.5,9.65a2.169,2.169,0,0,0-1.652.716,3.482,3.482,0,0,0-.826,2.008h4.764v-.123a3.1,3.1,0,0,0-.668-1.92A2.042,2.042,0,0,0,40.5,9.65Zm11.329,5.827a1.2,1.2,0,0,0-.5-1.024,4.78,4.78,0,0,0-1.731-.628,8.186,8.186,0,0,1-1.96-.633,2.788,2.788,0,0,1-1.072-.879,2.1,2.1,0,0,1-.347-1.213,2.467,2.467,0,0,1,.989-1.978,3.861,3.861,0,0,1,2.527-.809,3.974,3.974,0,0,1,2.624.835,2.652,2.652,0,0,1,1.006,2.136H51.728a1.468,1.468,0,0,0-.567-1.151,2.124,2.124,0,0,0-1.428-.483,2.223,2.223,0,0,0-1.389.387,1.217,1.217,0,0,0-.5,1.011.986.986,0,0,0,.466.888,5.731,5.731,0,0,0,1.683.571,8.77,8.77,0,0,1,1.973.65,2.878,2.878,0,0,1,1.121.91,2.237,2.237,0,0,1,.365,1.3,2.434,2.434,0,0,1-1.02,2.043,4.277,4.277,0,0,1-2.646.769,4.789,4.789,0,0,1-2.021-.4,3.288,3.288,0,0,1-1.375-1.129,2.722,2.722,0,0,1-.5-1.569h1.626a1.683,1.683,0,0,0,.655,1.3,2.54,2.54,0,0,0,1.613.479,2.622,2.622,0,0,0,1.481-.374A1.148,1.148,0,0,0,51.825,15.478Zm3.313-2.32a5.617,5.617,0,0,1,.549-2.514,4.1,4.1,0,0,1,1.529-1.723,4.163,4.163,0,0,1,2.237-.606A4.01,4.01,0,0,1,62.6,9.659a5.174,5.174,0,0,1,1.2,3.577v.114a5.666,5.666,0,0,1-.532,2.492,4.038,4.038,0,0,1-1.521,1.718,4.211,4.211,0,0,1-2.272.615,4,4,0,0,1-3.133-1.345,5.147,5.147,0,0,1-1.2-3.56Zm1.635.193a4.068,4.068,0,0,0,.734,2.54,2.487,2.487,0,0,0,3.933-.013,4.449,4.449,0,0,0,.729-2.72,4.061,4.061,0,0,0-.743-2.536,2.361,2.361,0,0,0-1.973-.971,2.335,2.335,0,0,0-1.942.958A4.416,4.416,0,0,0,56.773,13.351Z" transform="translate(739.96 92.88)" fill="#1e168c"/>
      <path id="Trazado_141257" data-name="Trazado 141257" d="M921.53,203H791a25.51,25.51,0,0,1-25.51-25.51h0A25.51,25.51,0,0,1,791,151.93H921.53A25.51,25.51,0,0,1,947,177.44h0A25.51,25.51,0,0,1,921.53,203Z" fill="#eef3ff"/>
      <path id="Trazado_144426" data-name="Trazado 144426" d="M3.173-5.01V0H1.485V-12.8h4.72A4.742,4.742,0,0,1,9.5-11.725a3.635,3.635,0,0,1,1.191,2.839,3.587,3.587,0,0,1-1.165,2.87A4.954,4.954,0,0,1,6.188-5.01Zm0-1.38H6.205a3.032,3.032,0,0,0,2.074-.638A2.334,2.334,0,0,0,9-8.873,2.411,2.411,0,0,0,8.279-10.7,2.84,2.84,0,0,0,6.3-11.417H3.173Zm14.01-1.661a4.873,4.873,0,0,0-.8-.062A2.143,2.143,0,0,0,14.212-6.75V0H12.586V-9.51h1.582l.026,1.1a2.532,2.532,0,0,1,2.268-1.274,1.661,1.661,0,0,1,.721.123Zm.708,3.208a5.617,5.617,0,0,1,.549-2.514,4.1,4.1,0,0,1,1.529-1.723,4.163,4.163,0,0,1,2.237-.606,4.01,4.01,0,0,1,3.142,1.345,5.174,5.174,0,0,1,1.2,3.577v.114a5.666,5.666,0,0,1-.532,2.492A4.038,4.038,0,0,1,24.5-.439a4.211,4.211,0,0,1-2.272.615A4,4,0,0,1,19.09-1.169a5.147,5.147,0,0,1-1.2-3.56Zm1.635.193a4.068,4.068,0,0,0,.734,2.54,2.349,2.349,0,0,0,1.964.958,2.335,2.335,0,0,0,1.969-.971,4.449,4.449,0,0,0,.729-2.72,4.061,4.061,0,0,0-.743-2.536,2.361,2.361,0,0,0-1.973-.971,2.335,2.335,0,0,0-1.942.958A4.416,4.416,0,0,0,19.525-4.649ZM32.4-1.151a2.342,2.342,0,0,0,1.521-.527A1.855,1.855,0,0,0,34.642-3H36.18a2.949,2.949,0,0,1-.562,1.556A3.7,3.7,0,0,1,34.234-.264,3.994,3.994,0,0,1,32.4.176a3.918,3.918,0,0,1-3.089-1.3,5.163,5.163,0,0,1-1.147-3.546v-.272a5.725,5.725,0,0,1,.51-2.47,3.883,3.883,0,0,1,1.463-1.679,4.157,4.157,0,0,1,2.254-.6,3.814,3.814,0,0,1,2.659.958A3.424,3.424,0,0,1,36.18-6.24H34.642a2.241,2.241,0,0,0-.7-1.516,2.174,2.174,0,0,0-1.551-.593,2.276,2.276,0,0,0-1.92.892,4.19,4.19,0,0,0-.681,2.58v.308a4.106,4.106,0,0,0,.677,2.531A2.287,2.287,0,0,0,32.4-1.151ZM41.955.176a4.155,4.155,0,0,1-3.146-1.27,4.714,4.714,0,0,1-1.213-3.4v-.3a5.707,5.707,0,0,1,.541-2.527,4.217,4.217,0,0,1,1.512-1.74,3.8,3.8,0,0,1,2.1-.628,3.562,3.562,0,0,1,2.883,1.222,5.289,5.289,0,0,1,1.028,3.5v.677H39.221a3.38,3.38,0,0,0,.822,2.272,2.583,2.583,0,0,0,2,.866A2.832,2.832,0,0,0,43.5-1.5a3.666,3.666,0,0,0,1.046-.932l.993.773A3.993,3.993,0,0,1,41.955.176Zm-.2-8.525a2.169,2.169,0,0,0-1.652.716,3.482,3.482,0,0,0-.826,2.008h4.764v-.123a3.1,3.1,0,0,0-.668-1.92A2.042,2.042,0,0,0,41.753-8.35ZM53.082-2.522a1.2,1.2,0,0,0-.5-1.024,4.78,4.78,0,0,0-1.731-.628,8.186,8.186,0,0,1-1.96-.633,2.788,2.788,0,0,1-1.072-.879A2.1,2.1,0,0,1,47.474-6.9a2.467,2.467,0,0,1,.989-1.978,3.861,3.861,0,0,1,2.527-.809,3.974,3.974,0,0,1,2.624.835A2.652,2.652,0,0,1,54.62-6.715H52.985a1.468,1.468,0,0,0-.567-1.151A2.124,2.124,0,0,0,50.99-8.35a2.223,2.223,0,0,0-1.389.387,1.217,1.217,0,0,0-.5,1.011.986.986,0,0,0,.466.888,5.731,5.731,0,0,0,1.683.571,8.77,8.77,0,0,1,1.973.65,2.878,2.878,0,0,1,1.121.91,2.237,2.237,0,0,1,.365,1.3,2.434,2.434,0,0,1-1.02,2.043,4.277,4.277,0,0,1-2.646.769,4.789,4.789,0,0,1-2.021-.4,3.288,3.288,0,0,1-1.375-1.129,2.722,2.722,0,0,1-.5-1.569h1.626a1.683,1.683,0,0,0,.655,1.3,2.54,2.54,0,0,0,1.613.479,2.622,2.622,0,0,0,1.481-.374A1.148,1.148,0,0,0,53.082-2.522ZM62.7,0a3.416,3.416,0,0,1-.229-1A3.628,3.628,0,0,1,59.761.176a3.357,3.357,0,0,1-2.307-.8,2.573,2.573,0,0,1-.9-2.017,2.688,2.688,0,0,1,1.129-2.307,5.325,5.325,0,0,1,3.177-.822h1.582v-.747a1.826,1.826,0,0,0-.51-1.358,2.049,2.049,0,0,0-1.5-.505,2.371,2.371,0,0,0-1.459.439,1.3,1.3,0,0,0-.589,1.063H56.747a2.244,2.244,0,0,1,.505-1.375A3.449,3.449,0,0,1,58.623-9.3a4.613,4.613,0,0,1,1.9-.387,3.759,3.759,0,0,1,2.575.822A2.964,2.964,0,0,1,64.068-6.6v4.377A5.351,5.351,0,0,0,64.4-.141V0ZM60-1.239a2.858,2.858,0,0,0,1.45-.4,2.392,2.392,0,0,0,.993-1.028V-4.614H61.168q-2.988,0-2.988,1.749a1.48,1.48,0,0,0,.51,1.2A1.959,1.959,0,0,0,60-1.239ZM68.146-9.51l.044,1.055a3.512,3.512,0,0,1,2.821-1.23,2.719,2.719,0,0,1,2.716,1.529,3.6,3.6,0,0,1,1.235-1.107,3.647,3.647,0,0,1,1.8-.422q3.129,0,3.182,3.313V0H78.315V-6.275A2.184,2.184,0,0,0,77.849-7.8a2.051,2.051,0,0,0-1.564-.505,2.156,2.156,0,0,0-1.5.541,2.193,2.193,0,0,0-.694,1.455V0H72.453V-6.231a1.814,1.814,0,0,0-2.03-2.074,2.175,2.175,0,0,0-2.188,1.362V0H66.608V-9.51ZM84.16,0H82.534V-9.51H84.16ZM82.4-12.032a.971.971,0,0,1,.242-.668.907.907,0,0,1,.716-.272.922.922,0,0,1,.721.272.96.96,0,0,1,.246.668.929.929,0,0,1-.246.659.938.938,0,0,1-.721.264.924.924,0,0,1-.716-.264A.938.938,0,0,1,82.4-12.032ZM90.708.176a4.155,4.155,0,0,1-3.146-1.27,4.714,4.714,0,0,1-1.213-3.4v-.3a5.707,5.707,0,0,1,.541-2.527A4.217,4.217,0,0,1,88.4-9.057a3.8,3.8,0,0,1,2.1-.628,3.562,3.562,0,0,1,2.883,1.222,5.289,5.289,0,0,1,1.028,3.5v.677H87.974A3.38,3.38,0,0,0,88.8-2.017a2.583,2.583,0,0,0,2,.866A2.832,2.832,0,0,0,92.255-1.5,3.666,3.666,0,0,0,93.3-2.435l.993.773A3.993,3.993,0,0,1,90.708.176Zm-.2-8.525a2.169,2.169,0,0,0-1.652.716,3.482,3.482,0,0,0-.826,2.008h4.764v-.123a3.1,3.1,0,0,0-.668-1.92A2.042,2.042,0,0,0,90.506-8.35Zm7.33-1.16.053,1.2a3.465,3.465,0,0,1,2.848-1.371q3.015,0,3.041,3.4V0h-1.626V-6.293a2.189,2.189,0,0,0-.47-1.521,1.884,1.884,0,0,0-1.437-.492,2.347,2.347,0,0,0-1.389.422,2.865,2.865,0,0,0-.932,1.107V0H96.3V-9.51Zm10.6-2.3v2.3h1.775v1.257h-1.775v5.9a1.32,1.32,0,0,0,.237.858,1,1,0,0,0,.809.286,3.937,3.937,0,0,0,.773-.105V0a4.742,4.742,0,0,1-1.248.175,2.025,2.025,0,0,1-1.644-.659,2.832,2.832,0,0,1-.554-1.872v-5.9h-1.731V-9.51h1.731v-2.3Zm2.887,6.97a5.617,5.617,0,0,1,.549-2.514A4.1,4.1,0,0,1,113.4-9.079a4.163,4.163,0,0,1,2.237-.606,4.01,4.01,0,0,1,3.142,1.345,5.174,5.174,0,0,1,1.2,3.577v.114a5.666,5.666,0,0,1-.532,2.492,4.038,4.038,0,0,1-1.521,1.718,4.211,4.211,0,0,1-2.272.615,4,4,0,0,1-3.133-1.345,5.147,5.147,0,0,1-1.2-3.56Zm1.635.193a4.068,4.068,0,0,0,.734,2.54,2.349,2.349,0,0,0,1.964.958,2.335,2.335,0,0,0,1.969-.971,4.449,4.449,0,0,0,.729-2.72,4.061,4.061,0,0,0-.743-2.536,2.361,2.361,0,0,0-1.973-.971,2.335,2.335,0,0,0-1.942.958A4.416,4.416,0,0,0,112.957-4.649ZM.835,13.166a5.571,5.571,0,0,1,1.037-3.52A3.28,3.28,0,0,1,4.588,8.314,3.3,3.3,0,0,1,7.233,9.457V4.5H8.859V18H7.365l-.079-1.02a3.311,3.311,0,0,1-2.716,1.2,3.248,3.248,0,0,1-2.694-1.354A5.634,5.634,0,0,1,.835,13.289Zm1.626.185a4.218,4.218,0,0,0,.668,2.531,2.159,2.159,0,0,0,1.846.914,2.372,2.372,0,0,0,2.259-1.389V11.039A2.39,2.39,0,0,0,4.992,9.694a2.17,2.17,0,0,0-1.863.923A4.644,4.644,0,0,0,2.461,13.351Zm12.867,4.825a4.155,4.155,0,0,1-3.146-1.27,4.714,4.714,0,0,1-1.213-3.4v-.3a5.707,5.707,0,0,1,.541-2.527,4.217,4.217,0,0,1,1.512-1.74,3.8,3.8,0,0,1,2.1-.628,3.562,3.562,0,0,1,2.883,1.222,5.289,5.289,0,0,1,1.028,3.5v.677H12.595a3.38,3.38,0,0,0,.822,2.272,2.583,2.583,0,0,0,2,.866,2.832,2.832,0,0,0,1.459-.352,3.666,3.666,0,0,0,1.046-.932l.993.773A3.993,3.993,0,0,1,15.328,18.176Zm-.2-8.525a2.169,2.169,0,0,0-1.652.716,3.482,3.482,0,0,0-.826,2.008h4.764v-.123a3.1,3.1,0,0,0-.668-1.92A2.042,2.042,0,0,0,15.126,9.65Zm18.281,3.7a5.694,5.694,0,0,1-.993,3.5,3.183,3.183,0,0,1-2.689,1.327A3.488,3.488,0,0,1,27,17.077v4.579H25.374V8.49h1.485l.079,1.055a3.35,3.35,0,0,1,2.76-1.23A3.243,3.243,0,0,1,32.41,9.606a5.756,5.756,0,0,1,1,3.595Zm-1.626-.185a4.2,4.2,0,0,0-.686-2.54,2.208,2.208,0,0,0-1.881-.932A2.39,2.39,0,0,0,27,11v4.544a2.4,2.4,0,0,0,2.232,1.3,2.2,2.2,0,0,0,1.859-.927A4.587,4.587,0,0,0,31.781,13.166Zm7.638,5.01a4.155,4.155,0,0,1-3.146-1.27,4.714,4.714,0,0,1-1.213-3.4v-.3a5.707,5.707,0,0,1,.541-2.527,4.217,4.217,0,0,1,1.512-1.74,3.8,3.8,0,0,1,2.1-.628A3.562,3.562,0,0,1,42.1,9.536a5.289,5.289,0,0,1,1.028,3.5v.677H36.686a3.38,3.38,0,0,0,.822,2.272,2.583,2.583,0,0,0,2,.866,2.832,2.832,0,0,0,1.459-.352,3.666,3.666,0,0,0,1.046-.932l.993.773A3.993,3.993,0,0,1,39.419,18.176Zm-.2-8.525a2.169,2.169,0,0,0-1.652.716,3.482,3.482,0,0,0-.826,2.008H41.5v-.123a3.1,3.1,0,0,0-.668-1.92A2.042,2.042,0,0,0,39.217,9.65Zm5.4,3.516a5.571,5.571,0,0,1,1.037-3.52,3.529,3.529,0,0,1,5.361-.189V4.5h1.626V18H51.144l-.079-1.02a3.311,3.311,0,0,1-2.716,1.2,3.248,3.248,0,0,1-2.694-1.354,5.634,5.634,0,0,1-1.042-3.533Zm1.626.185a4.218,4.218,0,0,0,.668,2.531,2.159,2.159,0,0,0,1.846.914,2.372,2.372,0,0,0,2.259-1.389V11.039a2.39,2.39,0,0,0-2.241-1.345,2.17,2.17,0,0,0-1.863.923A4.644,4.644,0,0,0,46.239,13.351ZM56.927,18H55.3V8.49h1.626ZM55.169,5.968a.971.971,0,0,1,.242-.668.907.907,0,0,1,.716-.272.922.922,0,0,1,.721.272.96.96,0,0,1,.246.668.929.929,0,0,1-.246.659.938.938,0,0,1-.721.264.924.924,0,0,1-.716-.264A.938.938,0,0,1,55.169,5.968Zm3.964,7.2a5.571,5.571,0,0,1,1.037-3.52,3.529,3.529,0,0,1,5.361-.189V4.5h1.626V18H65.663l-.079-1.02a3.311,3.311,0,0,1-2.716,1.2,3.248,3.248,0,0,1-2.694-1.354,5.634,5.634,0,0,1-1.042-3.533Zm1.626.185a4.218,4.218,0,0,0,.668,2.531,2.159,2.159,0,0,0,1.846.914,2.372,2.372,0,0,0,2.259-1.389V11.039A2.39,2.39,0,0,0,63.29,9.694a2.17,2.17,0,0,0-1.863.923A4.644,4.644,0,0,0,60.759,13.351Zm8.49-.193a5.617,5.617,0,0,1,.549-2.514,4.1,4.1,0,0,1,1.529-1.723,4.163,4.163,0,0,1,2.237-.606,4.01,4.01,0,0,1,3.142,1.345,5.174,5.174,0,0,1,1.2,3.577v.114a5.666,5.666,0,0,1-.532,2.492,4.038,4.038,0,0,1-1.521,1.718,4.211,4.211,0,0,1-2.272.615,4,4,0,0,1-3.133-1.345,5.147,5.147,0,0,1-1.2-3.56Zm1.635.193a4.068,4.068,0,0,0,.734,2.54,2.487,2.487,0,0,0,3.933-.013,4.449,4.449,0,0,0,.729-2.72,4.061,4.061,0,0,0-.743-2.536,2.361,2.361,0,0,0-1.973-.971,2.335,2.335,0,0,0-1.942.958A4.416,4.416,0,0,0,70.884,13.351Zm14.6,2.127a1.2,1.2,0,0,0-.5-1.024,4.78,4.78,0,0,0-1.731-.628,8.186,8.186,0,0,1-1.96-.633,2.788,2.788,0,0,1-1.072-.879,2.1,2.1,0,0,1-.347-1.213,2.467,2.467,0,0,1,.989-1.978,3.861,3.861,0,0,1,2.527-.809,3.974,3.974,0,0,1,2.624.835,2.652,2.652,0,0,1,1.006,2.136H85.386a1.468,1.468,0,0,0-.567-1.151,2.124,2.124,0,0,0-1.428-.483A2.223,2.223,0,0,0,82,10.037a1.217,1.217,0,0,0-.5,1.011.986.986,0,0,0,.466.888,5.731,5.731,0,0,0,1.683.571,8.77,8.77,0,0,1,1.973.65,2.878,2.878,0,0,1,1.121.91,2.237,2.237,0,0,1,.365,1.3,2.434,2.434,0,0,1-1.02,2.043,4.277,4.277,0,0,1-2.646.769,4.789,4.789,0,0,1-2.021-.4,3.288,3.288,0,0,1-1.375-1.129,2.722,2.722,0,0,1-.5-1.569h1.626a1.683,1.683,0,0,0,.655,1.3,2.54,2.54,0,0,0,1.613.479,2.622,2.622,0,0,0,1.481-.374A1.148,1.148,0,0,0,85.482,15.478Z" transform="translate(799.25 173.57)" fill="#1e168c"/>
      <path id="Trazado_141258" data-name="Trazado 141258" d="M922.16,346.1H791.63a25.51,25.51,0,0,1-25.51-25.51h0a25.51,25.51,0,0,1,25.51-25.5H922.16a25.5,25.5,0,0,1,25.5,25.5h0A25.51,25.51,0,0,1,922.16,346.1Z" fill="#eef3ff"/>
      <path id="Trazado_144424" data-name="Trazado 144424" d="M10.327-11.417H6.214V0H4.535V-11.417H.431V-12.8h9.9Zm4.861,3.366a4.873,4.873,0,0,0-.8-.062A2.143,2.143,0,0,0,12.217-6.75V0H10.592V-9.51h1.582l.026,1.1a2.532,2.532,0,0,1,2.268-1.274,1.661,1.661,0,0,1,.721.123ZM21.842,0a3.415,3.415,0,0,1-.229-1A3.628,3.628,0,0,1,18.906.176,3.357,3.357,0,0,1,16.6-.62a2.573,2.573,0,0,1-.9-2.017,2.688,2.688,0,0,1,1.129-2.307A5.325,5.325,0,0,1,20-5.766h1.582v-.747a1.826,1.826,0,0,0-.51-1.358,2.049,2.049,0,0,0-1.5-.505,2.371,2.371,0,0,0-1.459.439,1.3,1.3,0,0,0-.589,1.063H15.892A2.244,2.244,0,0,1,16.4-8.249,3.449,3.449,0,0,1,17.768-9.3a4.613,4.613,0,0,1,1.9-.387,3.759,3.759,0,0,1,2.575.822A2.964,2.964,0,0,1,23.213-6.6v4.377a5.351,5.351,0,0,0,.334,2.083V0Zm-2.7-1.239a2.858,2.858,0,0,0,1.45-.4,2.392,2.392,0,0,0,.993-1.028V-4.614H20.313q-2.988,0-2.988,1.749a1.48,1.48,0,0,0,.51,1.2A1.959,1.959,0,0,0,19.144-1.239ZM31.3-2.522a1.2,1.2,0,0,0-.5-1.024,4.78,4.78,0,0,0-1.731-.628,8.186,8.186,0,0,1-1.96-.633,2.788,2.788,0,0,1-1.072-.879A2.1,2.1,0,0,1,25.691-6.9a2.467,2.467,0,0,1,.989-1.978,3.861,3.861,0,0,1,2.527-.809,3.974,3.974,0,0,1,2.624.835,2.652,2.652,0,0,1,1.006,2.136H31.2a1.468,1.468,0,0,0-.567-1.151,2.124,2.124,0,0,0-1.428-.483,2.223,2.223,0,0,0-1.389.387,1.217,1.217,0,0,0-.5,1.011.986.986,0,0,0,.466.888,5.731,5.731,0,0,0,1.683.571,8.77,8.77,0,0,1,1.973.65,2.878,2.878,0,0,1,1.121.91,2.237,2.237,0,0,1,.365,1.3,2.434,2.434,0,0,1-1.02,2.043A4.277,4.277,0,0,1,29.26.176a4.789,4.789,0,0,1-2.021-.4,3.288,3.288,0,0,1-1.375-1.129,2.722,2.722,0,0,1-.5-1.569h1.626a1.683,1.683,0,0,0,.655,1.3,2.54,2.54,0,0,0,1.613.479,2.622,2.622,0,0,0,1.481-.374A1.148,1.148,0,0,0,31.3-2.522ZM36.81,0H35.184V-13.5H36.81Zm8.473,0a3.416,3.416,0,0,1-.229-1A3.628,3.628,0,0,1,42.347.176a3.357,3.357,0,0,1-2.307-.8,2.573,2.573,0,0,1-.9-2.017,2.688,2.688,0,0,1,1.129-2.307,5.325,5.325,0,0,1,3.177-.822h1.582v-.747a1.826,1.826,0,0,0-.51-1.358,2.049,2.049,0,0,0-1.5-.505,2.371,2.371,0,0,0-1.459.439,1.3,1.3,0,0,0-.589,1.063H39.332a2.244,2.244,0,0,1,.505-1.375A3.449,3.449,0,0,1,41.209-9.3a4.613,4.613,0,0,1,1.9-.387,3.759,3.759,0,0,1,2.575.822A2.964,2.964,0,0,1,46.653-6.6v4.377a5.351,5.351,0,0,0,.334,2.083V0Zm-2.7-1.239a2.858,2.858,0,0,0,1.45-.4,2.392,2.392,0,0,0,.993-1.028V-4.614H43.753q-2.988,0-2.988,1.749a1.48,1.48,0,0,0,.51,1.2A1.959,1.959,0,0,0,42.584-1.239Zm6.223-3.595a5.571,5.571,0,0,1,1.037-3.52A3.28,3.28,0,0,1,52.56-9.686a3.3,3.3,0,0,1,2.646,1.143V-13.5h1.626V0H55.337l-.079-1.02a3.311,3.311,0,0,1-2.716,1.2,3.248,3.248,0,0,1-2.694-1.354,5.634,5.634,0,0,1-1.042-3.533Zm1.626.185A4.218,4.218,0,0,0,51.1-2.118a2.159,2.159,0,0,0,1.846.914,2.372,2.372,0,0,0,2.259-1.389V-6.961a2.39,2.39,0,0,0-2.241-1.345,2.17,2.17,0,0,0-1.863.923A4.644,4.644,0,0,0,50.433-4.649Zm8.49-.193a5.617,5.617,0,0,1,.549-2.514A4.1,4.1,0,0,1,61-9.079a4.163,4.163,0,0,1,2.237-.606A4.01,4.01,0,0,1,66.38-8.341a5.174,5.174,0,0,1,1.2,3.577v.114a5.666,5.666,0,0,1-.532,2.492A4.038,4.038,0,0,1,65.528-.439a4.211,4.211,0,0,1-2.272.615,4,4,0,0,1-3.133-1.345,5.147,5.147,0,0,1-1.2-3.56Zm1.635.193a4.068,4.068,0,0,0,.734,2.54,2.349,2.349,0,0,0,1.964.958,2.335,2.335,0,0,0,1.969-.971,4.449,4.449,0,0,0,.729-2.72,4.061,4.061,0,0,0-.743-2.536,2.361,2.361,0,0,0-1.973-.971,2.335,2.335,0,0,0-1.942.958A4.416,4.416,0,0,0,60.558-4.649Z" transform="translate(799.88 324.4)" fill="#1e168c"/>
      <path id="Trazado_141259" data-name="Trazado 141259" d="M931.41,275.6H800.88a25.51,25.51,0,0,1-25.51-25.5h0a25.51,25.51,0,0,1,25.51-25.51H931.41a25.51,25.51,0,0,1,25.5,25.51h0a25.5,25.5,0,0,1-25.5,25.5Z" fill="#eef3ff"/>
      <path id="Trazado_144425" data-name="Trazado 144425" d="M10.327-11.417H6.214V0H4.535V-11.417H.431V-12.8h9.9Zm4.861,3.366a4.873,4.873,0,0,0-.8-.062A2.143,2.143,0,0,0,12.217-6.75V0H10.592V-9.51h1.582l.026,1.1a2.532,2.532,0,0,1,2.268-1.274,1.661,1.661,0,0,1,.721.123ZM21.842,0a3.415,3.415,0,0,1-.229-1A3.628,3.628,0,0,1,18.906.176,3.357,3.357,0,0,1,16.6-.62a2.573,2.573,0,0,1-.9-2.017,2.688,2.688,0,0,1,1.129-2.307A5.325,5.325,0,0,1,20-5.766h1.582v-.747a1.826,1.826,0,0,0-.51-1.358,2.049,2.049,0,0,0-1.5-.505,2.371,2.371,0,0,0-1.459.439,1.3,1.3,0,0,0-.589,1.063H15.892A2.244,2.244,0,0,1,16.4-8.249,3.449,3.449,0,0,1,17.768-9.3a4.613,4.613,0,0,1,1.9-.387,3.759,3.759,0,0,1,2.575.822A2.964,2.964,0,0,1,23.213-6.6v4.377a5.351,5.351,0,0,0,.334,2.083V0Zm-2.7-1.239a2.858,2.858,0,0,0,1.45-.4,2.392,2.392,0,0,0,.993-1.028V-4.614H20.313q-2.988,0-2.988,1.749a1.48,1.48,0,0,0,.51,1.2A1.959,1.959,0,0,0,19.144-1.239ZM27.3-9.51l.053,1.2A3.465,3.465,0,0,1,30.2-9.686q3.015,0,3.041,3.4V0H31.615V-6.293a2.189,2.189,0,0,0-.47-1.521,1.884,1.884,0,0,0-1.437-.492,2.347,2.347,0,0,0-1.389.422,2.865,2.865,0,0,0-.932,1.107V0H25.762V-9.51ZM41.231-2.522a1.2,1.2,0,0,0-.5-1.024A4.78,4.78,0,0,0,39-4.175a8.186,8.186,0,0,1-1.96-.633,2.788,2.788,0,0,1-1.072-.879A2.1,2.1,0,0,1,35.623-6.9a2.467,2.467,0,0,1,.989-1.978,3.861,3.861,0,0,1,2.527-.809,3.974,3.974,0,0,1,2.624.835,2.652,2.652,0,0,1,1.006,2.136H41.134a1.468,1.468,0,0,0-.567-1.151,2.124,2.124,0,0,0-1.428-.483,2.223,2.223,0,0,0-1.389.387,1.217,1.217,0,0,0-.5,1.011.986.986,0,0,0,.466.888,5.731,5.731,0,0,0,1.683.571,8.77,8.77,0,0,1,1.973.65,2.878,2.878,0,0,1,1.121.91,2.237,2.237,0,0,1,.365,1.3,2.434,2.434,0,0,1-1.02,2.043,4.277,4.277,0,0,1-2.646.769,4.789,4.789,0,0,1-2.021-.4,3.288,3.288,0,0,1-1.375-1.129,2.722,2.722,0,0,1-.5-1.569h1.626a1.683,1.683,0,0,0,.655,1.3,2.54,2.54,0,0,0,1.613.479,2.622,2.622,0,0,0,1.481-.374A1.148,1.148,0,0,0,41.231-2.522ZM53.008-4.649a5.694,5.694,0,0,1-.993,3.5A3.183,3.183,0,0,1,49.325.176,3.488,3.488,0,0,1,46.6-.923V3.656H44.975V-9.51H46.46l.079,1.055a3.35,3.35,0,0,1,2.76-1.23A3.243,3.243,0,0,1,52.01-8.394a5.756,5.756,0,0,1,1,3.595Zm-1.626-.185a4.2,4.2,0,0,0-.686-2.54,2.208,2.208,0,0,0-1.881-.932A2.39,2.39,0,0,0,46.6-7v4.544a2.4,2.4,0,0,0,2.232,1.3,2.2,2.2,0,0,0,1.859-.927A4.587,4.587,0,0,0,51.382-4.834Zm3.261-.009a5.617,5.617,0,0,1,.549-2.514,4.1,4.1,0,0,1,1.529-1.723,4.163,4.163,0,0,1,2.237-.606A4.01,4.01,0,0,1,62.1-8.341a5.174,5.174,0,0,1,1.2,3.577v.114a5.666,5.666,0,0,1-.532,2.492A4.038,4.038,0,0,1,61.248-.439a4.211,4.211,0,0,1-2.272.615,4,4,0,0,1-3.133-1.345,5.147,5.147,0,0,1-1.2-3.56Zm1.635.193a4.068,4.068,0,0,0,.734,2.54,2.349,2.349,0,0,0,1.964.958,2.335,2.335,0,0,0,1.969-.971,4.449,4.449,0,0,0,.729-2.72,4.061,4.061,0,0,0-.743-2.536,2.361,2.361,0,0,0-1.973-.971,2.335,2.335,0,0,0-1.942.958A4.416,4.416,0,0,0,56.277-4.649Zm13.658-3.4a4.873,4.873,0,0,0-.8-.062A2.143,2.143,0,0,0,66.965-6.75V0H65.339V-9.51h1.582l.026,1.1a2.532,2.532,0,0,1,2.268-1.274,1.661,1.661,0,0,1,.721.123Zm4.5-3.762v2.3h1.775v1.257H74.435v5.9a1.32,1.32,0,0,0,.237.858,1,1,0,0,0,.809.286,3.937,3.937,0,0,0,.773-.105V0a4.742,4.742,0,0,1-1.248.175,2.025,2.025,0,0,1-1.644-.659,2.832,2.832,0,0,1-.554-1.872v-5.9H71.078V-9.51h1.731v-2.3ZM82.055.176a4.155,4.155,0,0,1-3.146-1.27,4.714,4.714,0,0,1-1.213-3.4v-.3a5.707,5.707,0,0,1,.541-2.527,4.217,4.217,0,0,1,1.512-1.74,3.8,3.8,0,0,1,2.1-.628,3.562,3.562,0,0,1,2.883,1.222,5.289,5.289,0,0,1,1.028,3.5v.677H79.322a3.38,3.38,0,0,0,.822,2.272,2.583,2.583,0,0,0,2,.866A2.832,2.832,0,0,0,83.6-1.5a3.666,3.666,0,0,0,1.046-.932l.993.773A3.993,3.993,0,0,1,82.055.176Zm-.2-8.525a2.169,2.169,0,0,0-1.652.716,3.482,3.482,0,0,0-.826,2.008h4.764v-.123a3.1,3.1,0,0,0-.668-1.92A2.042,2.042,0,0,0,81.853-8.35ZM93.182-2.522a1.2,1.2,0,0,0-.5-1.024,4.78,4.78,0,0,0-1.731-.628,8.186,8.186,0,0,1-1.96-.633,2.788,2.788,0,0,1-1.072-.879A2.1,2.1,0,0,1,87.575-6.9a2.467,2.467,0,0,1,.989-1.978,3.861,3.861,0,0,1,2.527-.809,3.974,3.974,0,0,1,2.624.835A2.652,2.652,0,0,1,94.72-6.715H93.086a1.468,1.468,0,0,0-.567-1.151,2.124,2.124,0,0,0-1.428-.483,2.223,2.223,0,0,0-1.389.387,1.217,1.217,0,0,0-.5,1.011.986.986,0,0,0,.466.888,5.731,5.731,0,0,0,1.683.571,8.77,8.77,0,0,1,1.973.65,2.878,2.878,0,0,1,1.121.91,2.237,2.237,0,0,1,.365,1.3,2.434,2.434,0,0,1-1.02,2.043,4.277,4.277,0,0,1-2.646.769,4.789,4.789,0,0,1-2.021-.4,3.288,3.288,0,0,1-1.375-1.129,2.722,2.722,0,0,1-.5-1.569h1.626a1.683,1.683,0,0,0,.655,1.3,2.54,2.54,0,0,0,1.613.479,2.622,2.622,0,0,0,1.481-.374A1.148,1.148,0,0,0,93.182-2.522ZM3,18H1.371V8.49H3ZM1.239,5.968A.971.971,0,0,1,1.481,5.3.907.907,0,0,1,2.2,5.027a.922.922,0,0,1,.721.272.96.96,0,0,1,.246.668.929.929,0,0,1-.246.659.938.938,0,0,1-.721.264.924.924,0,0,1-.716-.264A.938.938,0,0,1,1.239,5.968Zm5.9,2.522.053,1.2a3.465,3.465,0,0,1,2.848-1.371q3.015,0,3.041,3.4V18H11.452V11.707a2.189,2.189,0,0,0-.47-1.521,1.884,1.884,0,0,0-1.437-.492,2.347,2.347,0,0,0-1.389.422,2.865,2.865,0,0,0-.932,1.107V18H5.6V8.49Zm10.6-2.3v2.3h1.775V9.747H17.736v5.9a1.32,1.32,0,0,0,.237.858,1,1,0,0,0,.809.286,3.937,3.937,0,0,0,.773-.105V18a4.742,4.742,0,0,1-1.248.175,2.025,2.025,0,0,1-1.644-.659,2.832,2.832,0,0,1-.554-1.872v-5.9H14.379V8.49H16.11v-2.3Zm7.62,11.988a4.155,4.155,0,0,1-3.146-1.27A4.714,4.714,0,0,1,21,13.509v-.3a5.707,5.707,0,0,1,.541-2.527,4.217,4.217,0,0,1,1.512-1.74,3.8,3.8,0,0,1,2.1-.628,3.562,3.562,0,0,1,2.883,1.222,5.289,5.289,0,0,1,1.028,3.5v.677H22.623a3.38,3.38,0,0,0,.822,2.272,2.583,2.583,0,0,0,2,.866A2.832,2.832,0,0,0,26.9,16.5a3.666,3.666,0,0,0,1.046-.932l.993.773A3.993,3.993,0,0,1,25.356,18.176Zm-.2-8.525a2.169,2.169,0,0,0-1.652.716,3.482,3.482,0,0,0-.826,2.008h4.764v-.123a3.1,3.1,0,0,0-.668-1.92A2.042,2.042,0,0,0,25.154,9.65Zm10.389.3a4.873,4.873,0,0,0-.8-.062,2.143,2.143,0,0,0-2.171,1.362V18H30.946V8.49h1.582l.026,1.1a2.532,2.532,0,0,1,2.268-1.274,1.661,1.661,0,0,1,.721.123ZM38.575,8.49l.053,1.2a3.465,3.465,0,0,1,2.848-1.371q3.015,0,3.041,3.4V18H42.891V11.707a2.189,2.189,0,0,0-.47-1.521,1.884,1.884,0,0,0-1.437-.492,2.347,2.347,0,0,0-1.389.422,2.865,2.865,0,0,0-.932,1.107V18H37.037V8.49Zm7.963,4.667a5.617,5.617,0,0,1,.549-2.514,4.1,4.1,0,0,1,1.529-1.723,4.163,4.163,0,0,1,2.237-.606A4.01,4.01,0,0,1,54,9.659a5.174,5.174,0,0,1,1.2,3.577v.114a5.666,5.666,0,0,1-.532,2.492,4.038,4.038,0,0,1-1.521,1.718,4.211,4.211,0,0,1-2.272.615,4,4,0,0,1-3.133-1.345,5.147,5.147,0,0,1-1.2-3.56Zm1.635.193a4.068,4.068,0,0,0,.734,2.54,2.487,2.487,0,0,0,3.933-.013,4.449,4.449,0,0,0,.729-2.72,4.061,4.061,0,0,0-.743-2.536,2.361,2.361,0,0,0-1.973-.971,2.335,2.335,0,0,0-1.942.958A4.416,4.416,0,0,0,48.173,13.351Zm14.6,2.127a1.2,1.2,0,0,0-.5-1.024,4.78,4.78,0,0,0-1.731-.628,8.186,8.186,0,0,1-1.96-.633,2.788,2.788,0,0,1-1.072-.879,2.1,2.1,0,0,1-.347-1.213,2.467,2.467,0,0,1,.989-1.978,3.861,3.861,0,0,1,2.527-.809,3.974,3.974,0,0,1,2.624.835,2.652,2.652,0,0,1,1.006,2.136H62.675a1.468,1.468,0,0,0-.567-1.151A2.124,2.124,0,0,0,60.68,9.65a2.223,2.223,0,0,0-1.389.387,1.217,1.217,0,0,0-.5,1.011.986.986,0,0,0,.466.888,5.731,5.731,0,0,0,1.683.571,8.77,8.77,0,0,1,1.973.65,2.878,2.878,0,0,1,1.121.91,2.237,2.237,0,0,1,.365,1.3,2.434,2.434,0,0,1-1.02,2.043,4.277,4.277,0,0,1-2.646.769,4.789,4.789,0,0,1-2.021-.4,3.288,3.288,0,0,1-1.375-1.129,2.722,2.722,0,0,1-.5-1.569h1.626a1.683,1.683,0,0,0,.655,1.3,2.54,2.54,0,0,0,1.613.479,2.622,2.622,0,0,0,1.481-.374A1.148,1.148,0,0,0,62.771,15.478Z" transform="translate(809.12 246.23)" fill="#1e168c"/>
      <path id="Trazado_141260" data-name="Trazado 141260" d="M859.77,423H729.24a25.51,25.51,0,0,1-25.51-25.51h0A25.51,25.51,0,0,1,729.24,372H859.77a25.51,25.51,0,0,1,25.51,25.51h0A25.51,25.51,0,0,1,859.77,423Z" fill="#eef3ff"/>
      <g id="Grupo">
        <text id="Tecnología_de_" data-name="Tecnología de " transform="translate(737.49 393.61)" fill="#1e168c" font-size="18" font-family="Roboto-Regular, Roboto"><tspan x="0" y="0">Tecnología de </tspan></text>
        <text id="la_información" data-name="la información" transform="translate(737.49 411.61)" fill="#1e168c" font-size="18" font-family="Roboto-Regular, Roboto"><tspan x="0" y="0">la información</tspan></text>
      </g>
      <circle id="Elipse_4548" data-name="Elipse 4548" cx="9.61" cy="9.61" r="9.61" transform="translate(304.11 167.83)" fill="#fff"/>
      <line id="Línea_658" data-name="Línea 658" x1="107.74" transform="translate(196.37 177.44)" fill="none" stroke="#e8b4b1" stroke-miterlimit="10" stroke-width="2"/>
      <circle id="Elipse_4549" data-name="Elipse 4549" cx="9.61" cy="9.61" r="9.61" transform="translate(303.48 310.9)" fill="#fff"/>
      <circle id="Elipse_4550" data-name="Elipse 4550" cx="6.22" cy="6.22" r="6.22" transform="translate(306.87 314.37)" fill="url(#linear-gradient-7)"/>
      <line id="Línea_659" data-name="Línea 659" x1="114.01" transform="translate(192.86 320.59)" fill="none" stroke="#e8b4b1" stroke-miterlimit="10" stroke-width="2"/>
      <circle id="Elipse_4551" data-name="Elipse 4551" cx="9.61" cy="9.61" r="9.61" transform="translate(294.24 240.4)" fill="#fff"/>
      <circle id="Elipse_4552" data-name="Elipse 4552" cx="6.22" cy="6.22" r="6.22" transform="translate(297.63 243.88)" fill="url(#linear-gradient-8)"/>
      <line id="Línea_660" data-name="Línea 660" x1="114.01" transform="translate(183.61 250.1)" fill="none" stroke="#e8b4b1" stroke-miterlimit="10" stroke-width="2"/>
      <circle id="Elipse_4553" data-name="Elipse 4553" cx="9.61" cy="9.61" r="9.61" transform="translate(365.02 87.06)" fill="#fff"/>
      <circle id="Elipse_4554" data-name="Elipse 4554" cx="6.22" cy="6.22" r="6.22" transform="translate(368.41 90.53)" fill="url(#linear-gradient-9)"/>
      <line id="Línea_661" data-name="Línea 661" x1="114.02" transform="translate(254.39 96.75)" fill="none" stroke="#e8b4b1" stroke-miterlimit="10" stroke-width="2"/>
      <circle id="Elipse_4555" data-name="Elipse 4555" cx="9.61" cy="9.61" r="9.61" transform="translate(361.02 387.87)" fill="#fff"/>
      <circle id="Elipse_4556" data-name="Elipse 4556" cx="6.22" cy="6.22" r="6.22" transform="translate(364.41 391.34)" fill="url(#linear-gradient-10)"/>
      <line id="Línea_662" data-name="Línea 662" x1="114.02" transform="translate(250.39 397.56)" fill="none" stroke="#e8b4b1" stroke-miterlimit="10" stroke-width="2"/>
      <circle id="Elipse_4557" data-name="Elipse 4557" cx="6.22" cy="6.22" r="6.22" transform="translate(307.5 171.22)" fill="url(#linear-gradient-11)"/>
      <path id="Trazado_141261" data-name="Trazado 141261" d="M104,122.26H234.55a25.51,25.51,0,0,0,25.51-25.51h0a25.51,25.51,0,0,0-25.51-25.51H104A25.51,25.51,0,0,0,78.52,96.75h0A25.51,25.51,0,0,0,104,122.26Z" fill="#eef3ff"/>
      <path id="Trazado_144420" data-name="Trazado 144420" d="M6.179-5.177H3.173V0h-1.7V-12.8H5.713a5.014,5.014,0,0,1,3.327.984A3.542,3.542,0,0,1,10.2-8.947a3.445,3.445,0,0,1-.646,2.083,3.856,3.856,0,0,1-1.8,1.327L10.767-.105V0H8.956ZM3.173-6.557H5.766a2.924,2.924,0,0,0,2-.652,2.2,2.2,0,0,0,.743-1.743A2.32,2.32,0,0,0,7.8-10.774a3,3,0,0,0-2.043-.643H3.173ZM16.26.176a4.155,4.155,0,0,1-3.146-1.27,4.714,4.714,0,0,1-1.213-3.4v-.3a5.707,5.707,0,0,1,.541-2.527,4.217,4.217,0,0,1,1.512-1.74,3.8,3.8,0,0,1,2.1-.628A3.562,3.562,0,0,1,18.94-8.464a5.289,5.289,0,0,1,1.028,3.5v.677H13.526a3.38,3.38,0,0,0,.822,2.272,2.583,2.583,0,0,0,2,.866A2.832,2.832,0,0,0,17.807-1.5a3.666,3.666,0,0,0,1.046-.932l.993.773A3.993,3.993,0,0,1,16.26.176Zm-.2-8.525a2.169,2.169,0,0,0-1.652.716,3.482,3.482,0,0,0-.826,2.008h4.764v-.123a3.1,3.1,0,0,0-.668-1.92A2.042,2.042,0,0,0,16.058-8.35Zm9.606,7.2a2.342,2.342,0,0,0,1.521-.527A1.855,1.855,0,0,0,27.905-3h1.538a2.949,2.949,0,0,1-.562,1.556A3.7,3.7,0,0,1,27.5-.264a3.994,3.994,0,0,1-1.833.439,3.918,3.918,0,0,1-3.089-1.3,5.163,5.163,0,0,1-1.147-3.546v-.272a5.725,5.725,0,0,1,.51-2.47A3.883,3.883,0,0,1,23.4-9.088a4.157,4.157,0,0,1,2.254-.6,3.814,3.814,0,0,1,2.659.958A3.424,3.424,0,0,1,29.443-6.24H27.905a2.241,2.241,0,0,0-.7-1.516,2.174,2.174,0,0,0-1.551-.593,2.276,2.276,0,0,0-1.92.892,4.19,4.19,0,0,0-.681,2.58v.308a4.106,4.106,0,0,0,.677,2.531A2.287,2.287,0,0,0,25.664-1.151ZM33.038,0H31.412V-9.51h1.626ZM31.28-12.032a.971.971,0,0,1,.242-.668.907.907,0,0,1,.716-.272.922.922,0,0,1,.721.272.96.96,0,0,1,.246.668.929.929,0,0,1-.246.659.938.938,0,0,1-.721.264.924.924,0,0,1-.716-.264A.938.938,0,0,1,31.28-12.032ZM43.69-4.649a5.654,5.654,0,0,1-1,3.5A3.2,3.2,0,0,1,40,.176,3.315,3.315,0,0,1,37.213-1.1L37.134,0H35.64V-13.5h1.626v5.036a3.3,3.3,0,0,1,2.716-1.222,3.221,3.221,0,0,1,2.72,1.31A5.824,5.824,0,0,1,43.69-4.79Zm-1.626-.185A4.394,4.394,0,0,0,41.423-7.4a2.124,2.124,0,0,0-1.846-.905,2.387,2.387,0,0,0-2.312,1.494V-2.7A2.454,2.454,0,0,0,39.595-1.2a2.112,2.112,0,0,0,1.819-.905A4.672,4.672,0,0,0,42.064-4.834ZM47.5,0H45.879V-9.51H47.5ZM45.747-12.032a.971.971,0,0,1,.242-.668.907.907,0,0,1,.716-.272.922.922,0,0,1,.721.272.96.96,0,0,1,.246.668.929.929,0,0,1-.246.659.938.938,0,0,1-.721.264.924.924,0,0,1-.716-.264A.938.938,0,0,1,45.747-12.032ZM51.636-9.51l.044,1.055A3.512,3.512,0,0,1,54.5-9.686a2.719,2.719,0,0,1,2.716,1.529,3.6,3.6,0,0,1,1.235-1.107,3.647,3.647,0,0,1,1.8-.422q3.129,0,3.182,3.313V0H61.8V-6.275A2.184,2.184,0,0,0,61.339-7.8a2.051,2.051,0,0,0-1.564-.505,2.156,2.156,0,0,0-1.5.541,2.193,2.193,0,0,0-.694,1.455V0H55.942V-6.231a1.814,1.814,0,0,0-2.03-2.074,2.175,2.175,0,0,0-2.188,1.362V0H50.1V-9.51ZM67.649,0H66.023V-9.51h1.626ZM65.892-12.032a.971.971,0,0,1,.242-.668.907.907,0,0,1,.716-.272.922.922,0,0,1,.721.272.96.96,0,0,1,.246.668.929.929,0,0,1-.246.659.938.938,0,0,1-.721.264.924.924,0,0,1-.716-.264A.938.938,0,0,1,65.892-12.032ZM74.2.176a4.155,4.155,0,0,1-3.146-1.27,4.714,4.714,0,0,1-1.213-3.4v-.3a5.707,5.707,0,0,1,.541-2.527,4.217,4.217,0,0,1,1.512-1.74A3.8,3.8,0,0,1,74-9.686a3.562,3.562,0,0,1,2.883,1.222,5.289,5.289,0,0,1,1.028,3.5v.677H71.464a3.38,3.38,0,0,0,.822,2.272,2.583,2.583,0,0,0,2,.866A2.832,2.832,0,0,0,75.744-1.5a3.666,3.666,0,0,0,1.046-.932l.993.773A3.993,3.993,0,0,1,74.2.176ZM74-8.35a2.169,2.169,0,0,0-1.652.716,3.482,3.482,0,0,0-.826,2.008H76.28v-.123a3.1,3.1,0,0,0-.668-1.92A2.042,2.042,0,0,0,74-8.35Zm7.33-1.16.053,1.2a3.465,3.465,0,0,1,2.848-1.371q3.015,0,3.041,3.4V0H85.641V-6.293a2.189,2.189,0,0,0-.47-1.521,1.884,1.884,0,0,0-1.437-.492,2.347,2.347,0,0,0-1.389.422,2.865,2.865,0,0,0-.932,1.107V0H79.787V-9.51Zm10.6-2.3v2.3H93.7v1.257H91.925v5.9a1.32,1.32,0,0,0,.237.858,1,1,0,0,0,.809.286,3.937,3.937,0,0,0,.773-.105V0A4.742,4.742,0,0,1,92.5.176a2.025,2.025,0,0,1-1.644-.659A2.832,2.832,0,0,1,90.3-2.355v-5.9H88.567V-9.51H90.3v-2.3Zm2.887,6.97a5.617,5.617,0,0,1,.549-2.514,4.1,4.1,0,0,1,1.529-1.723,4.163,4.163,0,0,1,2.237-.606,4.01,4.01,0,0,1,3.142,1.345,5.174,5.174,0,0,1,1.2,3.577v.114a5.666,5.666,0,0,1-.532,2.492,4.038,4.038,0,0,1-1.521,1.718,4.211,4.211,0,0,1-2.272.615,4,4,0,0,1-3.133-1.345,5.147,5.147,0,0,1-1.2-3.56Zm1.635.193a4.068,4.068,0,0,0,.734,2.54,2.349,2.349,0,0,0,1.964.958,2.335,2.335,0,0,0,1.969-.971,4.449,4.449,0,0,0,.729-2.72,4.061,4.061,0,0,0-.743-2.536,2.361,2.361,0,0,0-1.973-.971,2.335,2.335,0,0,0-1.942.958A4.416,4.416,0,0,0,96.447-4.649Z" transform="translate(96.77 102.75)" fill="#1e168c"/>
      <path id="Trazado_141262" data-name="Trazado 141262" d="M44.74,203H175.27a25.51,25.51,0,0,0,25.51-25.51h0a25.51,25.51,0,0,0-25.51-25.51H44.74a25.51,25.51,0,0,0-25.51,25.51h0A25.51,25.51,0,0,0,44.74,203Z" fill="#eef3ff"/>
      <path id="Trazado_144421" data-name="Trazado 144421" d="M3.173-5.01V0H1.485V-12.8h4.72A4.742,4.742,0,0,1,9.5-11.725a3.635,3.635,0,0,1,1.191,2.839,3.587,3.587,0,0,1-1.165,2.87A4.954,4.954,0,0,1,6.188-5.01Zm0-1.38H6.205a3.032,3.032,0,0,0,2.074-.638A2.334,2.334,0,0,0,9-8.873,2.411,2.411,0,0,0,8.279-10.7,2.84,2.84,0,0,0,6.3-11.417H3.173ZM14.353,0H12.727V-9.51h1.626ZM12.595-12.032a.971.971,0,0,1,.242-.668.907.907,0,0,1,.716-.272.922.922,0,0,1,.721.272.96.96,0,0,1,.246.668.929.929,0,0,1-.246.659.938.938,0,0,1-.721.264.924.924,0,0,1-.716-.264A.938.938,0,0,1,12.595-12.032ZM20.769-1.151a2.342,2.342,0,0,0,1.521-.527A1.855,1.855,0,0,0,23.01-3h1.538a2.949,2.949,0,0,1-.562,1.556A3.7,3.7,0,0,1,22.6-.264a3.994,3.994,0,0,1-1.833.439,3.918,3.918,0,0,1-3.089-1.3,5.163,5.163,0,0,1-1.147-3.546v-.272a5.725,5.725,0,0,1,.51-2.47,3.883,3.883,0,0,1,1.463-1.679,4.157,4.157,0,0,1,2.254-.6,3.814,3.814,0,0,1,2.659.958A3.424,3.424,0,0,1,24.548-6.24H23.01a2.241,2.241,0,0,0-.7-1.516A2.174,2.174,0,0,0,20.76-8.35a2.276,2.276,0,0,0-1.92.892,4.19,4.19,0,0,0-.681,2.58v.308a4.106,4.106,0,0,0,.677,2.531A2.287,2.287,0,0,0,20.769-1.151ZM29.03-4.4,28.011-3.34V0H26.385V-13.5h1.626v8.165l.87-1.046L31.843-9.51H33.82l-3.7,3.973L34.251,0H32.344ZM37.266,0H35.64V-9.51h1.626ZM35.508-12.032a.971.971,0,0,1,.242-.668.907.907,0,0,1,.716-.272.922.922,0,0,1,.721.272.96.96,0,0,1,.246.668.929.929,0,0,1-.246.659.938.938,0,0,1-.721.264.924.924,0,0,1-.716-.264A.938.938,0,0,1,35.508-12.032Zm5.9,2.522.053,1.2a3.465,3.465,0,0,1,2.848-1.371q3.015,0,3.041,3.4V0H45.721V-6.293a2.189,2.189,0,0,0-.47-1.521,1.884,1.884,0,0,0-1.437-.492,2.347,2.347,0,0,0-1.389.422,2.865,2.865,0,0,0-.932,1.107V0H39.867V-9.51Zm8.007,4.676A5.589,5.589,0,0,1,50.44-8.372a3.289,3.289,0,0,1,2.725-1.314,3.271,3.271,0,0,1,2.716,1.23L55.96-9.51h1.485V-.229a3.869,3.869,0,0,1-1.094,2.909,4.038,4.038,0,0,1-2.94,1.063A4.891,4.891,0,0,1,51.4,3.3a3.465,3.465,0,0,1-1.5-1.2l.844-.976A3.18,3.18,0,0,0,53.3,2.417a2.491,2.491,0,0,0,1.85-.668,2.553,2.553,0,0,0,.664-1.881V-.949A3.342,3.342,0,0,1,53.147.176a3.248,3.248,0,0,1-2.7-1.345A5.876,5.876,0,0,1,49.412-4.834Zm1.635.185a4.264,4.264,0,0,0,.659,2.527,2.142,2.142,0,0,0,1.846.918,2.382,2.382,0,0,0,2.259-1.4V-6.943a2.41,2.41,0,0,0-2.241-1.362,2.161,2.161,0,0,0-1.854.923A4.644,4.644,0,0,0,51.047-4.649ZM60.223,1.1h-1.4l5.344-13.9h1.389ZM69.258-5.01V0H67.57V-12.8h4.72a4.742,4.742,0,0,1,3.292,1.072,3.635,3.635,0,0,1,1.191,2.839,3.587,3.587,0,0,1-1.165,2.87A4.954,4.954,0,0,1,72.272-5.01Zm0-1.38H72.29a3.032,3.032,0,0,0,2.074-.638,2.334,2.334,0,0,0,.721-1.845,2.411,2.411,0,0,0-.721-1.831,2.84,2.84,0,0,0-1.978-.713H69.258ZM84.265,0a3.416,3.416,0,0,1-.229-1A3.628,3.628,0,0,1,81.33.176a3.357,3.357,0,0,1-2.307-.8,2.573,2.573,0,0,1-.9-2.017,2.688,2.688,0,0,1,1.129-2.307,5.325,5.325,0,0,1,3.177-.822H84.01v-.747a1.826,1.826,0,0,0-.51-1.358A2.049,2.049,0,0,0,82-8.376a2.371,2.371,0,0,0-1.459.439,1.3,1.3,0,0,0-.589,1.063H78.315a2.244,2.244,0,0,1,.505-1.375A3.449,3.449,0,0,1,80.192-9.3a4.613,4.613,0,0,1,1.9-.387,3.759,3.759,0,0,1,2.575.822A2.964,2.964,0,0,1,85.636-6.6v4.377A5.351,5.351,0,0,0,85.97-.141V0Zm-2.7-1.239a2.858,2.858,0,0,0,1.45-.4,2.392,2.392,0,0,0,.993-1.028V-4.614H82.736q-2.988,0-2.988,1.749a1.48,1.48,0,0,0,.51,1.2A1.959,1.959,0,0,0,81.567-1.239ZM92-1.151a2.342,2.342,0,0,0,1.521-.527A1.855,1.855,0,0,0,94.241-3h1.538a2.949,2.949,0,0,1-.562,1.556A3.7,3.7,0,0,1,93.832-.264,3.994,3.994,0,0,1,92,.176a3.918,3.918,0,0,1-3.089-1.3,5.163,5.163,0,0,1-1.147-3.546v-.272a5.725,5.725,0,0,1,.51-2.47,3.883,3.883,0,0,1,1.463-1.679,4.157,4.157,0,0,1,2.254-.6,3.814,3.814,0,0,1,2.659.958A3.424,3.424,0,0,1,95.779-6.24H94.241a2.241,2.241,0,0,0-.7-1.516,2.174,2.174,0,0,0-1.551-.593,2.276,2.276,0,0,0-1.92.892,4.19,4.19,0,0,0-.681,2.58v.308a4.106,4.106,0,0,0,.677,2.531A2.287,2.287,0,0,0,92-1.151ZM100.261-4.4,99.242-3.34V0H97.616V-13.5h1.626v8.165l.87-1.046,2.962-3.129h1.978l-3.7,3.973L105.482,0h-1.907ZM108.5,0h-1.626V-9.51H108.5Zm-1.758-12.032a.971.971,0,0,1,.242-.668.907.907,0,0,1,.716-.272.922.922,0,0,1,.721.272.96.96,0,0,1,.246.668.929.929,0,0,1-.246.659.938.938,0,0,1-.721.264.924.924,0,0,1-.716-.264A.938.938,0,0,1,106.739-12.032Zm5.9,2.522.053,1.2a3.465,3.465,0,0,1,2.848-1.371q3.015,0,3.041,3.4V0h-1.626V-6.293a2.189,2.189,0,0,0-.47-1.521,1.884,1.884,0,0,0-1.437-.492,2.347,2.347,0,0,0-1.389.422,2.865,2.865,0,0,0-.932,1.107V0H111.1V-9.51Zm8.007,4.676a5.589,5.589,0,0,1,1.028-3.538A3.289,3.289,0,0,1,124.4-9.686a3.271,3.271,0,0,1,2.716,1.23l.079-1.055h1.485V-.229a3.869,3.869,0,0,1-1.094,2.909,4.038,4.038,0,0,1-2.94,1.063A4.891,4.891,0,0,1,122.63,3.3a3.465,3.465,0,0,1-1.5-1.2l.844-.976a3.18,3.18,0,0,0,2.558,1.292,2.491,2.491,0,0,0,1.85-.668,2.553,2.553,0,0,0,.664-1.881V-.949A3.342,3.342,0,0,1,124.379.176a3.248,3.248,0,0,1-2.7-1.345A5.876,5.876,0,0,1,120.643-4.834Zm1.635.185a4.264,4.264,0,0,0,.659,2.527,2.142,2.142,0,0,0,1.846.918,2.382,2.382,0,0,0,2.259-1.4V-6.943A2.41,2.41,0,0,0,124.8-8.306a2.161,2.161,0,0,0-1.854.923A4.644,4.644,0,0,0,122.278-4.649ZM5.177,18.176a4.155,4.155,0,0,1-3.146-1.27,4.714,4.714,0,0,1-1.213-3.4v-.3a5.707,5.707,0,0,1,.541-2.527A4.217,4.217,0,0,1,2.87,8.943a3.8,3.8,0,0,1,2.1-.628A3.562,3.562,0,0,1,7.857,9.536a5.289,5.289,0,0,1,1.028,3.5v.677H2.443a3.38,3.38,0,0,0,.822,2.272,2.583,2.583,0,0,0,2,.866A2.832,2.832,0,0,0,6.724,16.5a3.666,3.666,0,0,0,1.046-.932l.993.773A3.993,3.993,0,0,1,5.177,18.176Zm-.2-8.525a2.169,2.169,0,0,0-1.652.716A3.482,3.482,0,0,0,2.5,12.375H7.26v-.123a3.1,3.1,0,0,0-.668-1.92A2.042,2.042,0,0,0,4.975,9.65ZM12.3,8.49l.044,1.055a3.512,3.512,0,0,1,2.821-1.23,2.719,2.719,0,0,1,2.716,1.529,3.6,3.6,0,0,1,1.235-1.107,3.647,3.647,0,0,1,1.8-.422q3.129,0,3.182,3.313V18H22.465V11.725A2.184,2.184,0,0,0,22,10.2a2.051,2.051,0,0,0-1.564-.505,2.156,2.156,0,0,0-1.5.541,2.193,2.193,0,0,0-.694,1.455V18H16.6V11.769a1.814,1.814,0,0,0-2.03-2.074,2.175,2.175,0,0,0-2.188,1.362V18H10.758V8.49Zm22.3,4.86a5.654,5.654,0,0,1-1,3.5A3.2,3.2,0,0,1,30.9,18.176,3.315,3.315,0,0,1,28.116,16.9L28.037,18H26.543V4.5h1.626V9.536a3.3,3.3,0,0,1,2.716-1.222,3.221,3.221,0,0,1,2.72,1.31,5.824,5.824,0,0,1,.989,3.586Zm-1.626-.185a4.394,4.394,0,0,0-.642-2.566,2.124,2.124,0,0,0-1.846-.905,2.387,2.387,0,0,0-2.312,1.494V15.3A2.454,2.454,0,0,0,30.5,16.8a2.112,2.112,0,0,0,1.819-.905A4.672,4.672,0,0,0,32.968,13.166ZM42.513,18a3.416,3.416,0,0,1-.229-1,3.628,3.628,0,0,1-2.707,1.178,3.357,3.357,0,0,1-2.307-.8,2.573,2.573,0,0,1-.9-2.017A2.688,2.688,0,0,1,37.5,13.056a5.325,5.325,0,0,1,3.177-.822h1.582v-.747a1.826,1.826,0,0,0-.51-1.358,2.049,2.049,0,0,0-1.5-.505,2.371,2.371,0,0,0-1.459.439,1.3,1.3,0,0,0-.589,1.063H36.563a2.244,2.244,0,0,1,.505-1.375A3.449,3.449,0,0,1,38.439,8.7a4.613,4.613,0,0,1,1.9-.387,3.759,3.759,0,0,1,2.575.822,2.964,2.964,0,0,1,.967,2.263v4.377a5.351,5.351,0,0,0,.334,2.083V18Zm-2.7-1.239a2.858,2.858,0,0,0,1.45-.4,2.392,2.392,0,0,0,.993-1.028V13.386H40.983Q38,13.386,38,15.135a1.48,1.48,0,0,0,.51,1.2A1.959,1.959,0,0,0,39.814,16.761ZM48.2,18H46.573V4.5H48.2Zm8.473,0a3.416,3.416,0,0,1-.229-1,3.628,3.628,0,0,1-2.707,1.178,3.357,3.357,0,0,1-2.307-.8,2.573,2.573,0,0,1-.9-2.017,2.688,2.688,0,0,1,1.129-2.307,5.325,5.325,0,0,1,3.177-.822h1.582v-.747a1.826,1.826,0,0,0-.51-1.358,2.049,2.049,0,0,0-1.5-.505,2.371,2.371,0,0,0-1.459.439,1.3,1.3,0,0,0-.589,1.063H50.722a2.244,2.244,0,0,1,.505-1.375A3.449,3.449,0,0,1,52.6,8.7a4.613,4.613,0,0,1,1.9-.387,3.759,3.759,0,0,1,2.575.822,2.964,2.964,0,0,1,.967,2.263v4.377a5.351,5.351,0,0,0,.334,2.083V18Zm-2.7-1.239a2.858,2.858,0,0,0,1.45-.4,2.392,2.392,0,0,0,.993-1.028V13.386H55.143q-2.988,0-2.988,1.749a1.48,1.48,0,0,0,.51,1.2A1.959,1.959,0,0,0,53.974,16.761Zm8.3-8.271V19.1q0,2.742-2.487,2.742a3.034,3.034,0,0,1-.993-.157V20.391a3.144,3.144,0,0,0,.738.07,1.1,1.1,0,0,0,.831-.295,1.457,1.457,0,0,0,.286-1.025V8.49ZM60.478,5.968a.975.975,0,0,1,.242-.664.889.889,0,0,1,.708-.277.922.922,0,0,1,.721.272.96.96,0,0,1,.246.668.929.929,0,0,1-.246.659.938.938,0,0,1-.721.264.909.909,0,0,1-.712-.264A.949.949,0,0,1,60.478,5.968Zm8.358,12.208a4.155,4.155,0,0,1-3.146-1.27,4.714,4.714,0,0,1-1.213-3.4v-.3a5.707,5.707,0,0,1,.541-2.527,4.217,4.217,0,0,1,1.512-1.74,3.8,3.8,0,0,1,2.1-.628,3.562,3.562,0,0,1,2.883,1.222,5.289,5.289,0,0,1,1.028,3.5v.677H66.1a3.38,3.38,0,0,0,.822,2.272,2.583,2.583,0,0,0,2,.866,2.832,2.832,0,0,0,1.459-.352,3.666,3.666,0,0,0,1.046-.932l.993.773A3.993,3.993,0,0,1,68.836,18.176Zm-.2-8.525a2.169,2.169,0,0,0-1.652.716,3.482,3.482,0,0,0-.826,2.008h4.764v-.123a3.1,3.1,0,0,0-.668-1.92A2.042,2.042,0,0,0,68.634,9.65Z" transform="translate(38.43 173.57)" fill="#1e168c"/>
      <path id="Trazado_141263" data-name="Trazado 141263" d="M44.11,346.1H174.64a25.51,25.51,0,0,0,25.51-25.51h0a25.51,25.51,0,0,0-25.51-25.5H44.11a25.51,25.51,0,0,0-25.51,25.5h0A25.51,25.51,0,0,0,44.11,346.1Z" fill="#eef3ff"/>
      <g id="Grupo-2" data-name="Grupo">
        <text id="Gestión_de_" data-name="Gestión de " transform="translate(47.04 321.1)" fill="#1e168c" font-size="18" font-family="Roboto-Regular, Roboto"><tspan x="0" y="0">Gestión de </tspan></text>
        <text id="es" transform="translate(47.04 339.1)" fill="#1e168c" font-size="18" font-family="Roboto-Regular, Roboto"><tspan x="0" y="0">es</tspan></text>
        <text id="t" transform="translate(65.86 339.1)" fill="#1e168c" font-size="18" font-family="Roboto-Regular, Roboto" letter-spacing="-0.01em"><tspan x="0" y="0">t</tspan></text>
        <text id="oques" transform="translate(71.56 339.1)" fill="#1e168c" font-size="18" font-family="Roboto-Regular, Roboto"><tspan x="0" y="0">oques</tspan></text>
      </g>
      <path id="Trazado_141264" data-name="Trazado 141264" d="M34.86,275.6H165.39a25.51,25.51,0,0,0,25.51-25.5h0a25.51,25.51,0,0,0-25.51-25.51H34.86A25.51,25.51,0,0,0,9.36,250.1h0a25.5,25.5,0,0,0,25.5,25.5Z" fill="#eef3ff"/>
      <path id="Trazado_144422" data-name="Trazado 144422" d="M8.552-3.349H3.19L1.986,0H.246L5.133-12.8H6.609L11.5,0H9.773ZM3.7-4.729H8.051l-2.18-5.985ZM14.739,0H13.113V-13.5h1.626ZM18.87-9.51l.044,1.055a3.512,3.512,0,0,1,2.821-1.23,2.719,2.719,0,0,1,2.716,1.529,3.6,3.6,0,0,1,1.235-1.107,3.647,3.647,0,0,1,1.8-.422q3.129,0,3.182,3.313V0H29.039V-6.275A2.184,2.184,0,0,0,28.573-7.8a2.051,2.051,0,0,0-1.564-.505,2.156,2.156,0,0,0-1.5.541,2.193,2.193,0,0,0-.694,1.455V0H23.177V-6.231a1.814,1.814,0,0,0-2.03-2.074,2.175,2.175,0,0,0-2.188,1.362V0H17.332V-9.51ZM38.988,0a3.416,3.416,0,0,1-.229-1A3.628,3.628,0,0,1,36.053.176a3.357,3.357,0,0,1-2.307-.8,2.573,2.573,0,0,1-.9-2.017,2.688,2.688,0,0,1,1.129-2.307,5.325,5.325,0,0,1,3.177-.822h1.582v-.747a1.826,1.826,0,0,0-.51-1.358,2.049,2.049,0,0,0-1.5-.505,2.371,2.371,0,0,0-1.459.439,1.3,1.3,0,0,0-.589,1.063H33.038a2.244,2.244,0,0,1,.505-1.375A3.449,3.449,0,0,1,34.915-9.3a4.613,4.613,0,0,1,1.9-.387,3.759,3.759,0,0,1,2.575.822A2.964,2.964,0,0,1,40.359-6.6v4.377a5.351,5.351,0,0,0,.334,2.083V0Zm-2.7-1.239a2.858,2.858,0,0,0,1.45-.4,2.392,2.392,0,0,0,.993-1.028V-4.614H37.459q-2.988,0-2.988,1.749a1.48,1.48,0,0,0,.51,1.2A1.959,1.959,0,0,0,36.29-1.239Zm10.433.088a2.342,2.342,0,0,0,1.521-.527A1.855,1.855,0,0,0,48.964-3H50.5a2.949,2.949,0,0,1-.562,1.556A3.7,3.7,0,0,1,48.555-.264a3.994,3.994,0,0,1-1.833.439,3.918,3.918,0,0,1-3.089-1.3,5.163,5.163,0,0,1-1.147-3.546v-.272A5.725,5.725,0,0,1,43-7.409a3.883,3.883,0,0,1,1.463-1.679,4.157,4.157,0,0,1,2.254-.6,3.814,3.814,0,0,1,2.659.958A3.424,3.424,0,0,1,50.5-6.24H48.964a2.241,2.241,0,0,0-.7-1.516,2.174,2.174,0,0,0-1.551-.593,2.276,2.276,0,0,0-1.92.892,4.19,4.19,0,0,0-.681,2.58v.308a4.106,4.106,0,0,0,.677,2.531A2.287,2.287,0,0,0,46.723-1.151ZM56.276.176a4.155,4.155,0,0,1-3.146-1.27,4.714,4.714,0,0,1-1.213-3.4v-.3a5.707,5.707,0,0,1,.541-2.527,4.217,4.217,0,0,1,1.512-1.74,3.8,3.8,0,0,1,2.1-.628,3.562,3.562,0,0,1,2.883,1.222,5.289,5.289,0,0,1,1.028,3.5v.677H53.543a3.38,3.38,0,0,0,.822,2.272,2.583,2.583,0,0,0,2,.866A2.832,2.832,0,0,0,57.823-1.5a3.666,3.666,0,0,0,1.046-.932l.993.773A3.993,3.993,0,0,1,56.276.176Zm-.2-8.525a2.169,2.169,0,0,0-1.652.716A3.482,3.482,0,0,0,53.6-5.625h4.764v-.123a3.1,3.1,0,0,0-.668-1.92A2.042,2.042,0,0,0,56.074-8.35ZM63.4-9.51l.053,1.2A3.465,3.465,0,0,1,66.3-9.686q3.015,0,3.041,3.4V0H67.72V-6.293a2.189,2.189,0,0,0-.47-1.521,1.884,1.884,0,0,0-1.437-.492,2.347,2.347,0,0,0-1.389.422,2.865,2.865,0,0,0-.932,1.107V0H61.866V-9.51ZM77.669,0a3.416,3.416,0,0,1-.229-1A3.628,3.628,0,0,1,74.733.176a3.357,3.357,0,0,1-2.307-.8,2.573,2.573,0,0,1-.9-2.017,2.688,2.688,0,0,1,1.129-2.307,5.325,5.325,0,0,1,3.177-.822h1.582v-.747a1.826,1.826,0,0,0-.51-1.358,2.049,2.049,0,0,0-1.5-.505,2.371,2.371,0,0,0-1.459.439,1.3,1.3,0,0,0-.589,1.063H71.719a2.244,2.244,0,0,1,.505-1.375A3.449,3.449,0,0,1,73.6-9.3a4.613,4.613,0,0,1,1.9-.387,3.759,3.759,0,0,1,2.575.822A2.964,2.964,0,0,1,79.04-6.6v4.377a5.351,5.351,0,0,0,.334,2.083V0Zm-2.7-1.239a2.858,2.858,0,0,0,1.45-.4,2.392,2.392,0,0,0,.993-1.028V-4.614H76.14q-2.988,0-2.988,1.749a1.48,1.48,0,0,0,.51,1.2A1.959,1.959,0,0,0,74.971-1.239Zm8.3-8.271V1.1q0,2.742-2.487,2.742a3.034,3.034,0,0,1-.993-.157V2.391a3.144,3.144,0,0,0,.738.07,1.1,1.1,0,0,0,.831-.295,1.457,1.457,0,0,0,.286-1.025V-9.51Zm-1.793-2.522a.975.975,0,0,1,.242-.664.889.889,0,0,1,.708-.277.922.922,0,0,1,.721.272.96.96,0,0,1,.246.668.929.929,0,0,1-.246.659.938.938,0,0,1-.721.264.909.909,0,0,1-.712-.264A.949.949,0,0,1,81.475-12.032ZM89.833.176a4.155,4.155,0,0,1-3.146-1.27,4.714,4.714,0,0,1-1.213-3.4v-.3a5.707,5.707,0,0,1,.541-2.527,4.217,4.217,0,0,1,1.512-1.74,3.8,3.8,0,0,1,2.1-.628,3.562,3.562,0,0,1,2.883,1.222,5.289,5.289,0,0,1,1.028,3.5v.677H87.1a3.38,3.38,0,0,0,.822,2.272,2.583,2.583,0,0,0,2,.866A2.832,2.832,0,0,0,91.38-1.5a3.666,3.666,0,0,0,1.046-.932l.993.773A3.993,3.993,0,0,1,89.833.176Zm-.2-8.525a2.169,2.169,0,0,0-1.652.716,3.482,3.482,0,0,0-.826,2.008h4.764v-.123a3.1,3.1,0,0,0-.668-1.92A2.042,2.042,0,0,0,89.631-8.35Z" transform="translate(48.31 258.91)" fill="#1e168c"/>
      <path id="Trazado_141265" data-name="Trazado 141265" d="M106.5,423H237a25.5,25.5,0,0,0,25.5-25.51h0A25.5,25.5,0,0,0,237,372H106.5A25.51,25.51,0,0,0,81,397.48h0A25.51,25.51,0,0,0,106.5,423Z" fill="#eef3ff"/>
      <path id="Trazado_144423" data-name="Trazado 144423" d="M8.552-3.349H3.19L1.986,0H.246L5.133-12.8H6.609L11.5,0H9.773ZM3.7-4.729H8.051l-2.18-5.985Zm17.323.079a5.654,5.654,0,0,1-1,3.5A3.2,3.2,0,0,1,17.332.176,3.315,3.315,0,0,1,14.546-1.1L14.467,0H12.973V-13.5H14.6v5.036a3.3,3.3,0,0,1,2.716-1.222,3.221,3.221,0,0,1,2.72,1.31,5.824,5.824,0,0,1,.989,3.586ZM19.4-4.834A4.394,4.394,0,0,0,18.756-7.4a2.124,2.124,0,0,0-1.846-.905A2.387,2.387,0,0,0,14.6-6.812V-2.7A2.454,2.454,0,0,0,16.928-1.2a2.112,2.112,0,0,0,1.819-.905A4.672,4.672,0,0,0,19.4-4.834ZM28.942,0a3.416,3.416,0,0,1-.229-1A3.628,3.628,0,0,1,26.007.176,3.357,3.357,0,0,1,23.7-.62a2.573,2.573,0,0,1-.9-2.017,2.688,2.688,0,0,1,1.129-2.307,5.325,5.325,0,0,1,3.177-.822h1.582v-.747a1.826,1.826,0,0,0-.51-1.358,2.049,2.049,0,0,0-1.5-.505,2.371,2.371,0,0,0-1.459.439,1.3,1.3,0,0,0-.589,1.063H22.992A2.244,2.244,0,0,1,23.5-8.249,3.449,3.449,0,0,1,24.869-9.3a4.613,4.613,0,0,1,1.9-.387,3.759,3.759,0,0,1,2.575.822A2.964,2.964,0,0,1,30.313-6.6v4.377a5.351,5.351,0,0,0,.334,2.083V0Zm-2.7-1.239a2.858,2.858,0,0,0,1.45-.4,2.392,2.392,0,0,0,.993-1.028V-4.614H27.413q-2.988,0-2.988,1.749a1.48,1.48,0,0,0,.51,1.2A1.959,1.959,0,0,0,26.244-1.239ZM38.4-2.522a1.2,1.2,0,0,0-.5-1.024,4.78,4.78,0,0,0-1.731-.628,8.186,8.186,0,0,1-1.96-.633,2.788,2.788,0,0,1-1.072-.879A2.1,2.1,0,0,1,32.792-6.9a2.467,2.467,0,0,1,.989-1.978,3.861,3.861,0,0,1,2.527-.809,3.974,3.974,0,0,1,2.624.835,2.652,2.652,0,0,1,1.006,2.136H38.3a1.468,1.468,0,0,0-.567-1.151,2.124,2.124,0,0,0-1.428-.483,2.223,2.223,0,0,0-1.389.387,1.217,1.217,0,0,0-.5,1.011.986.986,0,0,0,.466.888,5.731,5.731,0,0,0,1.683.571,8.77,8.77,0,0,1,1.973.65,2.878,2.878,0,0,1,1.121.91,2.237,2.237,0,0,1,.365,1.3,2.434,2.434,0,0,1-1.02,2.043A4.277,4.277,0,0,1,36.36.176a4.789,4.789,0,0,1-2.021-.4,3.288,3.288,0,0,1-1.375-1.129,2.722,2.722,0,0,1-.5-1.569h1.626a1.683,1.683,0,0,0,.655,1.3,2.54,2.54,0,0,0,1.613.479,2.622,2.622,0,0,0,1.481-.374A1.148,1.148,0,0,0,38.4-2.522Zm5.95-9.29v2.3h1.775v1.257H44.35v5.9a1.32,1.32,0,0,0,.237.858A1,1,0,0,0,45.4-1.2a3.937,3.937,0,0,0,.773-.105V0a4.742,4.742,0,0,1-1.248.175,2.025,2.025,0,0,1-1.644-.659,2.832,2.832,0,0,1-.554-1.872v-5.9H40.992V-9.51h1.731v-2.3ZM51.97.176a4.155,4.155,0,0,1-3.146-1.27,4.714,4.714,0,0,1-1.213-3.4v-.3a5.707,5.707,0,0,1,.541-2.527,4.217,4.217,0,0,1,1.512-1.74,3.8,3.8,0,0,1,2.1-.628A3.562,3.562,0,0,1,54.65-8.464a5.289,5.289,0,0,1,1.028,3.5v.677H49.236a3.38,3.38,0,0,0,.822,2.272,2.583,2.583,0,0,0,2,.866A2.832,2.832,0,0,0,53.517-1.5a3.666,3.666,0,0,0,1.046-.932l.993.773A3.993,3.993,0,0,1,51.97.176Zm-.2-8.525a2.169,2.169,0,0,0-1.652.716,3.482,3.482,0,0,0-.826,2.008h4.764v-.123a3.1,3.1,0,0,0-.668-1.92A2.042,2.042,0,0,0,51.768-8.35Zm9.606,7.2a2.342,2.342,0,0,0,1.521-.527A1.855,1.855,0,0,0,63.615-3h1.538a2.949,2.949,0,0,1-.562,1.556A3.7,3.7,0,0,1,63.207-.264a3.994,3.994,0,0,1-1.833.439,3.918,3.918,0,0,1-3.089-1.3,5.163,5.163,0,0,1-1.147-3.546v-.272a5.725,5.725,0,0,1,.51-2.47,3.883,3.883,0,0,1,1.463-1.679,4.157,4.157,0,0,1,2.254-.6,3.814,3.814,0,0,1,2.659.958A3.424,3.424,0,0,1,65.153-6.24H63.615a2.241,2.241,0,0,0-.7-1.516,2.174,2.174,0,0,0-1.551-.593,2.276,2.276,0,0,0-1.92.892,4.19,4.19,0,0,0-.681,2.58v.308a4.106,4.106,0,0,0,.677,2.531A2.287,2.287,0,0,0,61.374-1.151ZM68.748,0H67.122V-9.51h1.626ZM66.99-12.032a.971.971,0,0,1,.242-.668.907.907,0,0,1,.716-.272.922.922,0,0,1,.721.272.96.96,0,0,1,.246.668.929.929,0,0,1-.246.659.938.938,0,0,1-.721.264.924.924,0,0,1-.716-.264A.938.938,0,0,1,66.99-12.032ZM72.879-9.51l.044,1.055a3.512,3.512,0,0,1,2.821-1.23A2.719,2.719,0,0,1,78.46-8.156a3.6,3.6,0,0,1,1.235-1.107,3.647,3.647,0,0,1,1.8-.422q3.129,0,3.182,3.313V0H83.048V-6.275A2.184,2.184,0,0,0,82.582-7.8a2.051,2.051,0,0,0-1.564-.505,2.156,2.156,0,0,0-1.5.541,2.193,2.193,0,0,0-.694,1.455V0H77.186V-6.231a1.814,1.814,0,0,0-2.03-2.074,2.175,2.175,0,0,0-2.188,1.362V0H71.341V-9.51ZM88.893,0H87.267V-9.51h1.626ZM87.135-12.032a.971.971,0,0,1,.242-.668.907.907,0,0,1,.716-.272.922.922,0,0,1,.721.272.96.96,0,0,1,.246.668.929.929,0,0,1-.246.659.938.938,0,0,1-.721.264.924.924,0,0,1-.716-.264A.938.938,0,0,1,87.135-12.032ZM95.44.176a4.155,4.155,0,0,1-3.146-1.27,4.714,4.714,0,0,1-1.213-3.4v-.3a5.707,5.707,0,0,1,.541-2.527,4.217,4.217,0,0,1,1.512-1.74,3.8,3.8,0,0,1,2.1-.628,3.562,3.562,0,0,1,2.883,1.222,5.289,5.289,0,0,1,1.028,3.5v.677H92.707a3.38,3.38,0,0,0,.822,2.272,2.583,2.583,0,0,0,2,.866A2.832,2.832,0,0,0,96.987-1.5a3.666,3.666,0,0,0,1.046-.932l.993.773A3.993,3.993,0,0,1,95.44.176Zm-.2-8.525a2.169,2.169,0,0,0-1.652.716,3.482,3.482,0,0,0-.826,2.008h4.764v-.123a3.1,3.1,0,0,0-.668-1.92A2.042,2.042,0,0,0,95.238-8.35Zm7.33-1.16.053,1.2a3.465,3.465,0,0,1,2.848-1.371q3.015,0,3.041,3.4V0h-1.626V-6.293a2.189,2.189,0,0,0-.47-1.521,1.884,1.884,0,0,0-1.437-.492,2.347,2.347,0,0,0-1.389.422,2.865,2.865,0,0,0-.932,1.107V0H101.03V-9.51Zm10.6-2.3v2.3h1.775v1.257h-1.775v5.9a1.32,1.32,0,0,0,.237.858,1,1,0,0,0,.809.286,3.937,3.937,0,0,0,.773-.105V0a4.742,4.742,0,0,1-1.248.175A2.025,2.025,0,0,1,112.1-.483a2.832,2.832,0,0,1-.554-1.872v-5.9h-1.731V-9.51h1.731v-2.3Zm2.887,6.97a5.617,5.617,0,0,1,.549-2.514,4.1,4.1,0,0,1,1.529-1.723,4.163,4.163,0,0,1,2.237-.606,4.01,4.01,0,0,1,3.142,1.345,5.174,5.174,0,0,1,1.2,3.577v.114a5.666,5.666,0,0,1-.532,2.492A4.038,4.038,0,0,1,122.66-.439a4.211,4.211,0,0,1-2.272.615,4,4,0,0,1-3.133-1.345,5.147,5.147,0,0,1-1.2-3.56Zm1.635.193a4.068,4.068,0,0,0,.734,2.54,2.349,2.349,0,0,0,1.964.958,2.335,2.335,0,0,0,1.969-.971,4.449,4.449,0,0,0,.729-2.72,4.061,4.061,0,0,0-.743-2.536,2.361,2.361,0,0,0-1.973-.971,2.335,2.335,0,0,0-1.942.958A4.416,4.416,0,0,0,117.69-4.649Z" transform="translate(108.08 402.38)" fill="#1e168c"/>
      <circle id="Elipse_4558" data-name="Elipse 4558" cx="148.44" cy="148.44" r="148.44" transform="translate(336.8 97.35)" fill="#1e168c"/>
      <circle id="Elipse_4559" data-name="Elipse 4559" cx="143.14" cy="143.14" r="143.14" transform="translate(342.05 102.65)" fill="#7d97f4"/>
      <path id="Trazado_141266" data-name="Trazado 141266" d="M582,242.79a97.979,97.979,0,1,0-98.04,98,97.69,97.69,0,0,0,98.04-98Z" fill="url(#radial-gradient)"/>
      <path id="Trazado_141267" data-name="Trazado 141267" d="M582,246.07a98,98,0,1,0-80.377,96.359A97.66,97.66,0,0,0,582,246.07Z" fill="url(#radial-gradient-2)"/>
      <path id="Trazado_141268" data-name="Trazado 141268" d="M560.05,246.11a74.855,74.855,0,1,1,0-.01Z" fill="#fff"/>
      <path id="Trazado_141269" data-name="Trazado 141269" d="M560.05,246.11a74.54,74.54,0,1,0-21.823,53.05,74.85,74.85,0,0,0,21.823-53.05Z" fill="url(#radial-gradient-3)"/>
      <path id="Trazado_141270" data-name="Trazado 141270" d="M552.48,213.28A74.87,74.87,0,0,1,423.6,287.83a74.63,74.63,0,0,0,128.88-74.55Z" fill="#edeef0"/>
      <g id="Grupo-3" data-name="Grupo">
        <path id="Trazado_144429" data-name="Trazado 144429" d="M4.085-1.772h7.786V0H1.907V-16.43H4.085Zm9.377-4.446a7.212,7.212,0,0,1,.705-3.227,5.261,5.261,0,0,1,1.963-2.212A5.345,5.345,0,0,1,19-12.435a5.149,5.149,0,0,1,4.034,1.726,6.642,6.642,0,0,1,1.54,4.593v.147a7.274,7.274,0,0,1-.683,3.2A5.184,5.184,0,0,1,21.942-.564a5.406,5.406,0,0,1-2.917.79A5.136,5.136,0,0,1,15-1.5a6.609,6.609,0,0,1-1.54-4.57Zm2.1.248A5.223,5.223,0,0,0,16.5-2.708a3.015,3.015,0,0,0,2.522,1.23,3,3,0,0,0,2.528-1.247,5.712,5.712,0,0,0,.937-3.492,5.214,5.214,0,0,0-.954-3.255A3.031,3.031,0,0,0,19-10.72a3,3,0,0,0-2.494,1.23A5.669,5.669,0,0,0,15.561-5.969ZM26.7-6.206a7.176,7.176,0,0,1,1.32-4.542,4.222,4.222,0,0,1,3.5-1.687A4.2,4.2,0,0,1,35-10.855l.1-1.354h1.907V-.293a4.967,4.967,0,0,1-1.4,3.735,5.184,5.184,0,0,1-3.775,1.365,6.28,6.28,0,0,1-2.584-.564A4.448,4.448,0,0,1,27.319,2.7L28.4,1.444A4.082,4.082,0,0,0,31.686,3.1a3.2,3.2,0,0,0,2.375-.858,3.278,3.278,0,0,0,.852-2.415V-1.219A4.291,4.291,0,0,1,31.494.226,4.171,4.171,0,0,1,28.024-1.5,7.545,7.545,0,0,1,26.7-6.206Zm2.1.237a5.474,5.474,0,0,0,.846,3.244,2.75,2.75,0,0,0,2.37,1.179,3.058,3.058,0,0,0,2.9-1.794V-8.915a3.094,3.094,0,0,0-2.877-1.749,2.775,2.775,0,0,0-2.381,1.185A5.963,5.963,0,0,0,28.8-5.969ZM42.429,0h-2.1V-12.209h2.1Zm.023-17.321h2.528L41.955-14l-1.681-.006ZM52.979-3.239a1.537,1.537,0,0,0-.638-1.315,6.137,6.137,0,0,0-2.223-.807A10.51,10.51,0,0,1,47.6-6.172,3.58,3.58,0,0,1,46.226-7.3a2.7,2.7,0,0,1-.446-1.557A3.167,3.167,0,0,1,47.049-11.4a4.958,4.958,0,0,1,3.244-1.038,5.1,5.1,0,0,1,3.368,1.072,3.4,3.4,0,0,1,1.292,2.742h-2.1a1.885,1.885,0,0,0-.728-1.478,2.727,2.727,0,0,0-1.834-.621,2.854,2.854,0,0,0-1.783.5,1.563,1.563,0,0,0-.643,1.3,1.266,1.266,0,0,0,.6,1.14,7.358,7.358,0,0,0,2.161.733,11.259,11.259,0,0,1,2.533.835A3.7,3.7,0,0,1,54.6-5.05a2.872,2.872,0,0,1,.468,1.664A3.125,3.125,0,0,1,53.758-.762a5.491,5.491,0,0,1-3.4.987,6.148,6.148,0,0,1-2.6-.519A4.221,4.221,0,0,1,46-1.743a3.5,3.5,0,0,1-.638-2.014H47.45a2.161,2.161,0,0,0,.841,1.664,3.261,3.261,0,0,0,2.071.615,3.367,3.367,0,0,0,1.9-.48A1.474,1.474,0,0,0,52.979-3.239Zm7.639-11.927v2.956H62.9V-10.6H60.619v7.581a1.7,1.7,0,0,0,.3,1.1,1.282,1.282,0,0,0,1.038.367,5.054,5.054,0,0,0,.993-.135V0a6.088,6.088,0,0,1-1.6.224,2.6,2.6,0,0,1-2.11-.846,3.636,3.636,0,0,1-.711-2.4V-10.6H56.308v-1.614h2.223v-2.956ZM67.6,0H65.516V-12.209H67.6ZM65.347-15.448a1.246,1.246,0,0,1,.31-.858,1.165,1.165,0,0,1,.92-.35,1.183,1.183,0,0,1,.925.35,1.233,1.233,0,0,1,.316.858,1.192,1.192,0,0,1-.316.846,1.2,1.2,0,0,1-.925.339,1.186,1.186,0,0,1-.92-.339A1.2,1.2,0,0,1,65.347-15.448ZM75.841-1.478a3.007,3.007,0,0,0,1.952-.677,2.382,2.382,0,0,0,.925-1.693h1.975a3.786,3.786,0,0,1-.722,2A4.757,4.757,0,0,1,78.194-.339a5.128,5.128,0,0,1-2.353.564,5.03,5.03,0,0,1-3.966-1.664A6.629,6.629,0,0,1,70.4-5.992v-.35a7.351,7.351,0,0,1,.654-3.171,4.985,4.985,0,0,1,1.879-2.155,5.337,5.337,0,0,1,2.894-.767,4.9,4.9,0,0,1,3.413,1.23,4.4,4.4,0,0,1,1.45,3.193H78.718a2.877,2.877,0,0,0-.9-1.947,2.791,2.791,0,0,0-1.992-.762,2.922,2.922,0,0,0-2.466,1.145,5.379,5.379,0,0,0-.875,3.312v.395a5.272,5.272,0,0,0,.869,3.25A2.936,2.936,0,0,0,75.841-1.478ZM90.578,0a4.386,4.386,0,0,1-.293-1.286A4.658,4.658,0,0,1,86.809.226,4.31,4.31,0,0,1,83.847-.8a3.3,3.3,0,0,1-1.157-2.59,3.452,3.452,0,0,1,1.45-2.962A6.836,6.836,0,0,1,88.22-7.4h2.031v-.959A2.345,2.345,0,0,0,89.6-10.1a2.63,2.63,0,0,0-1.93-.649,3.044,3.044,0,0,0-1.873.564,1.663,1.663,0,0,0-.756,1.365h-2.1a2.881,2.881,0,0,1,.649-1.766,4.428,4.428,0,0,1,1.76-1.348,5.922,5.922,0,0,1,2.443-.5A4.827,4.827,0,0,1,91.1-11.38a3.806,3.806,0,0,1,1.241,2.906v5.62a6.87,6.87,0,0,0,.429,2.674V0ZM87.114-1.591A3.669,3.669,0,0,0,88.976-2.1a3.072,3.072,0,0,0,1.275-1.32V-5.924H88.615q-3.837,0-3.837,2.246a1.9,1.9,0,0,0,.654,1.535A2.516,2.516,0,0,0,87.114-1.591Z" transform="translate(438.18 236.16)" fill="#87868a"/>
        <path id="Trazado_144430" data-name="Trazado 144430" d="M4.232,0H2.065V-16.43H4.232ZM9.84-12.209l.068,1.535a4.449,4.449,0,0,1,3.656-1.76q3.87,0,3.9,4.367V0H15.38V-8.079a2.811,2.811,0,0,0-.6-1.952,2.419,2.419,0,0,0-1.845-.632,3.013,3.013,0,0,0-1.783.542A3.678,3.678,0,0,0,9.953-8.7V0H7.865V-12.209Zm13.609-2.956v2.956h2.279V-10.6H23.449v7.581a1.7,1.7,0,0,0,.3,1.1,1.282,1.282,0,0,0,1.038.367,5.054,5.054,0,0,0,.993-.135V0a6.088,6.088,0,0,1-1.6.224,2.6,2.6,0,0,1-2.11-.846,3.636,3.636,0,0,1-.711-2.4V-10.6H19.138v-1.614h2.223v-2.956ZM33.232.226A5.335,5.335,0,0,1,29.192-1.4a6.052,6.052,0,0,1-1.557-4.361V-6.15a7.327,7.327,0,0,1,.694-3.244,5.414,5.414,0,0,1,1.941-2.234,4.88,4.88,0,0,1,2.7-.807,4.573,4.573,0,0,1,3.7,1.569,6.791,6.791,0,0,1,1.32,4.491v.869H29.723A4.34,4.34,0,0,0,30.778-2.59a3.316,3.316,0,0,0,2.567,1.111,3.636,3.636,0,0,0,1.873-.451,4.707,4.707,0,0,0,1.343-1.2l1.275.993A5.127,5.127,0,0,1,33.232.226Zm-.26-10.946a2.785,2.785,0,0,0-2.121.92A4.47,4.47,0,0,0,29.79-7.222h6.116V-7.38a3.976,3.976,0,0,0-.858-2.466A2.622,2.622,0,0,0,32.972-10.72Zm13.338.384a6.256,6.256,0,0,0-1.027-.079A2.751,2.751,0,0,0,42.5-8.666V0H40.409V-12.209H42.44l.034,1.411a3.251,3.251,0,0,1,2.911-1.636,2.133,2.133,0,0,1,.925.158ZM50.2-12.209l.068,1.535a4.449,4.449,0,0,1,3.656-1.76q3.87,0,3.9,4.367V0H55.744V-8.079a2.811,2.811,0,0,0-.6-1.952,2.419,2.419,0,0,0-1.845-.632,3.013,3.013,0,0,0-1.783.542,3.678,3.678,0,0,0-1.2,1.422V0H48.229V-12.209ZM68.518,0a4.385,4.385,0,0,1-.293-1.286A4.658,4.658,0,0,1,64.749.226,4.31,4.31,0,0,1,61.787-.8a3.3,3.3,0,0,1-1.157-2.59,3.452,3.452,0,0,1,1.45-2.962A6.836,6.836,0,0,1,66.159-7.4H68.19v-.959a2.345,2.345,0,0,0-.654-1.743,2.63,2.63,0,0,0-1.93-.649,3.044,3.044,0,0,0-1.873.564,1.663,1.663,0,0,0-.756,1.365h-2.1a2.881,2.881,0,0,1,.649-1.766,4.428,4.428,0,0,1,1.76-1.348,5.922,5.922,0,0,1,2.443-.5,4.827,4.827,0,0,1,3.306,1.055,3.806,3.806,0,0,1,1.241,2.906v5.62a6.87,6.87,0,0,0,.429,2.674V0ZM65.053-1.591A3.669,3.669,0,0,0,66.915-2.1a3.072,3.072,0,0,0,1.275-1.32V-5.924H66.554q-3.837,0-3.837,2.246a1.9,1.9,0,0,0,.654,1.535A2.516,2.516,0,0,0,65.053-1.591Z" transform="translate(449.21 263.89)" fill="#87868a"/>
      </g>
      <path id="Trazado_141271" data-name="Trazado 141271" d="M441.62,60.66a10.21,10.21,0,1,0,10.21-10.21,10.21,10.21,0,0,0-10.21,10.21Z" fill="#fff"/>
      <path id="Trazado_141272" data-name="Trazado 141272" d="M451.83,60.66,418.22,27.05H362.44" fill="none" stroke="#df6f63" stroke-linecap="round" stroke-linejoin="round" stroke-width="2"/>
      <circle id="Elipse_4560" data-name="Elipse 4560" cx="6.06" cy="6.06" r="6.06" transform="translate(445.77 54.6)" fill="url(#linear-gradient-3)"/>
      <path id="Trazado_141273" data-name="Trazado 141273" d="M361.23,51H260.78c-10.83,0-19.62-11.42-19.62-25.5h0C241.16,11.42,250,0,260.78,0H361.23c10.84,0,19.62,11.42,19.62,25.51h0C380.85,39.59,372.07,51,361.23,51Z" fill="#eef3ff"/>
      <path id="Trazado_141274" data-name="Trazado 141274" d="M529.68,60.66a10.21,10.21,0,1,1-10.21-10.21A10.21,10.21,0,0,1,529.68,60.66Z" fill="#fff"/>
      <path id="Trazado_141275" data-name="Trazado 141275" d="M519.47,60.66l33.61-33.61h55.78" fill="none" stroke="#df6f63" stroke-linecap="round" stroke-linejoin="round" stroke-width="2"/>
      <circle id="Elipse_4561" data-name="Elipse 4561" cx="6.06" cy="6.06" r="6.06" transform="translate(513.41 54.6)" fill="url(#linear-gradient-13)"/>
      <path id="Trazado_141276" data-name="Trazado 141276" d="M610.08,51H710.52c10.84,0,19.63-11.42,19.63-25.5h0c0-14.08-8.79-25.5-19.63-25.5H610.08c-10.84,0-19.63,11.42-19.63,25.51h0C590.45,39.59,599.24,51,610.08,51Z" fill="#eef3ff"/>
      <path id="Trazado_144419" data-name="Trazado 144419" d="M3.173-5.01V0H1.485V-12.8h4.72A4.742,4.742,0,0,1,9.5-11.725a3.635,3.635,0,0,1,1.191,2.839,3.587,3.587,0,0,1-1.165,2.87A4.954,4.954,0,0,1,6.188-5.01Zm0-1.38H6.205a3.032,3.032,0,0,0,2.074-.638A2.334,2.334,0,0,0,9-8.873,2.411,2.411,0,0,0,8.279-10.7,2.84,2.84,0,0,0,6.3-11.417H3.173ZM22.254-4.061a4.708,4.708,0,0,1-1.5,3.133A4.911,4.911,0,0,1,17.4.176,4.509,4.509,0,0,1,13.768-1.45,6.542,6.542,0,0,1,12.4-5.8v-1.23a7.291,7.291,0,0,1,.637-3.138,4.76,4.76,0,0,1,1.806-2.079,5.029,5.029,0,0,1,2.707-.725,4.624,4.624,0,0,1,3.27,1.138,4.765,4.765,0,0,1,1.433,3.151h-1.7a3.677,3.677,0,0,0-.954-2.222,2.885,2.885,0,0,0-2.052-.688,3.019,3.019,0,0,0-2.536,1.2,5.492,5.492,0,0,0-.918,3.4v1.24a5.645,5.645,0,0,0,.87,3.316A2.812,2.812,0,0,0,17.4-1.2a3.247,3.247,0,0,0,2.158-.637,3.536,3.536,0,0,0,1-2.219ZM26.736-12.8,30.92-2.355,35.1-12.8h2.188V0H35.6V-4.983l.158-5.379L31.562,0H30.27L26.077-10.336l.167,5.353V0H24.557V-12.8Z" transform="translate(292.22 31.09)" fill="#1e168c"/>
      <path id="Trazado_144428" data-name="Trazado 144428" d="M3.173-5.01V0H1.485V-12.8h4.72A4.742,4.742,0,0,1,9.5-11.725a3.635,3.635,0,0,1,1.191,2.839,3.587,3.587,0,0,1-1.165,2.87A4.954,4.954,0,0,1,6.188-5.01Zm0-1.38H6.205a3.032,3.032,0,0,0,2.074-.638A2.334,2.334,0,0,0,9-8.873,2.411,2.411,0,0,0,8.279-10.7,2.84,2.84,0,0,0,6.3-11.417H3.173ZM22.254-4.061a4.708,4.708,0,0,1-1.5,3.133A4.911,4.911,0,0,1,17.4.176,4.509,4.509,0,0,1,13.768-1.45,6.542,6.542,0,0,1,12.4-5.8v-1.23a7.291,7.291,0,0,1,.637-3.138,4.76,4.76,0,0,1,1.806-2.079,5.029,5.029,0,0,1,2.707-.725,4.624,4.624,0,0,1,3.27,1.138,4.765,4.765,0,0,1,1.433,3.151h-1.7a3.677,3.677,0,0,0-.954-2.222,2.885,2.885,0,0,0-2.052-.688,3.019,3.019,0,0,0-2.536,1.2,5.492,5.492,0,0,0-.918,3.4v1.24a5.645,5.645,0,0,0,.87,3.316A2.812,2.812,0,0,0,17.4-1.2a3.247,3.247,0,0,0,2.158-.637,3.536,3.536,0,0,0,1-2.219Zm3.99-.949V0H24.557V-12.8h4.72a4.742,4.742,0,0,1,3.292,1.072,3.635,3.635,0,0,1,1.191,2.839,3.587,3.587,0,0,1-1.165,2.87A4.954,4.954,0,0,1,29.259-5.01Zm0-1.38h3.032a3.032,3.032,0,0,0,2.074-.638,2.334,2.334,0,0,0,.721-1.845,2.411,2.411,0,0,0-.721-1.831,2.84,2.84,0,0,0-1.978-.713H26.244Z" transform="translate(641.55 31.09)" fill="#1e168c"/>
      <path id="Trazado_141277" data-name="Trazado 141277" d="M490,449.17a10.21,10.21,0,1,0-14.44-.32,10.21,10.21,0,0,0,14.44.32Z" fill="#fff"/>
      <line id="Línea_663" data-name="Línea 663" x1="1.05" y2="47.52" transform="translate(481.84 441.79)" fill="none" stroke="#df6f63" stroke-linecap="round" stroke-linejoin="round" stroke-width="2"/>
      <circle id="Elipse_4562" data-name="Elipse 4562" cx="6.06" cy="6.06" r="6.06" transform="translate(476.83 435.73)" fill="url(#linear-gradient-14)"/>
      <path id="Trazado_141278" data-name="Trazado 141278" d="M441,514.82H541.42c10.84,0,19.63-11.42,19.63-25.51h0c0-14.09-8.79-25.51-19.63-25.51H441c-10.84,0-19.63,11.42-19.63,25.51h0C421.35,503.4,430.14,514.82,441,514.82Z" fill="#eef3ff"/>
      <g id="Grupo-4" data-name="Grupo">
        <text id="A" transform="translate(438.12 487.76)" fill="#1e168c" font-size="18" font-family="Roboto-Regular, Roboto" letter-spacing="-0.01em"><tspan x="0" y="0">A</tspan></text>
        <text id="tención_al_" data-name="tención al " transform="translate(449.71 487.76)" fill="#1e168c" font-size="18" font-family="Roboto-Regular, Roboto"><tspan x="0" y="0">tención al </tspan></text>
        <text id="cliente" transform="translate(456.37 505.76)" fill="#1e168c" font-size="18" font-family="Roboto-Regular, Roboto"><tspan x="0" y="0">cliente</tspan></text>
      </g>
    </g>
  </g>
</svg>
