<svg xmlns="http://www.w3.org/2000/svg" width="602.94" height="266.693" viewBox="0 0 602.94 266.693">
  <g id="img7" transform="translate(-805.06 -8230.34)">
    <g id="Image_Place_Holder" data-name="Image Place Holder" transform="translate(805.06 8230.34)">
      <rect id="Image_Place_Holder-2" data-name="Image Place Holder" width="602.94" height="266.693" rx="10" fill="#f2f6fe"/>
    </g>
    <g id="refrigerado-01" transform="translate(933.18 8222.34)">
      <g id="_1" data-name="1" transform="translate(14.82 8)">
        <g id="Grupo_61047" data-name="Grupo 61047">
          <g id="Grupo_61034" data-name="Grupo 61034" transform="translate(24.615)">
            <g id="Grupo_61032" data-name="Grupo 61032">
              <path id="Trazado_139452" data-name="Trazado 139452" d="M229.361,48.873,161.031,8,127,18.961l12.376,13.415,64.264,32.043s20.938-12.77,21.744-12.842Z" transform="translate(49.309 -8)" fill="#d9d9d9"/>
              <path id="Trazado_139453" data-name="Trazado 139453" d="M130.578,129.994h0L273.328,46.44l77.948,47.428c3.582,2.131,8.06,5.051,4.746,7.755L158.5,215.322c-51.565,28.657-57.763,21.135-74.026,11.7l-40.3-23.624c-10.532-6.108-21.995-9.69-11.391-15.69Z" transform="translate(-28.563 22.409)" fill="#a9a9ab"/>
              <path id="Trazado_139454" data-name="Trazado 139454" d="M191.437,88.022l17.678-10.37c2.973-1.451,3.349-5.373,2.7-10.424-.125-.949-.287-1.934-.484-2.937l-5.463,3.063-2.185,4.03L190.04,78.547Z" transform="translate(99.179 36.53)" fill="#292929"/>
              <path id="Trazado_139455" data-name="Trazado 139455" d="M190.215,81.969l19.272-9.529a4.818,4.818,0,0,0,.143-8.579l-3.385-1.791v7.164L189.57,77.366Z" transform="translate(98.808 34.774)" fill="#646464"/>
              <path id="Trazado_139456" data-name="Trazado 139456" d="M89.41,112.744l1.558,1.469,3.922,3.349L142.337,85.34Z" transform="translate(19.572 53.183)" fill="#ce3527"/>
              <path id="Trazado_139457" data-name="Trazado 139457" d="M199.058,86.633,180.18,72.143s5.373-7.164,11.463-5.785c.43,0,6.323,2.955,6.323,2.955A24.842,24.842,0,0,1,199.058,86.633Z" transform="translate(91.379 38.027)" fill="#211e1e"/>
              <path id="Trazado_139458" data-name="Trazado 139458" d="M147.064,145.823l-76.694-36.95L69.85,90.46l76.676,36.95,4.137,11.051Z" transform="translate(4.099 57.233)"/>
              <g id="Grupo_61013" data-name="Grupo 61013" transform="translate(103.985 179.467)">
                <path id="Trazado_139459" data-name="Trazado 139459" d="M104.1,156.662l24.592-41.285L105.534,114.3h0c-3.081-1.684,2.991-7.72-1.791-5.033-9.457,5.463-17.123,18.591-17.123,29.32,0,5.158,1.791,8.812,4.657,10.639h0l.251.143.215.125Z" transform="translate(-86.62 -107.891)" fill="#1c1119"/>
                <path id="Trazado_139460" data-name="Trazado 139460" d="M124.246,118.284,106.8,108.2a21.654,21.654,0,0,0-3.027,1.415c-9.457,5.463-17.123,18.591-17.123,29.32a17.158,17.158,0,0,0,.752,5.248l13.415,7.755a20.687,20.687,0,0,0,4.585-1.97,31.471,31.471,0,0,0,5.051-3.708l12.914-21.672a30.324,30.324,0,0,0,.878-6.3Z" transform="translate(-86.597 -108.2)" fill="#3b2534"/>
                <path id="Trazado_139461" data-name="Trazado 139461" d="M127.856,123.636c0,10.747-7.666,23.875-17.123,29.32S93.61,154.12,93.61,143.374s7.666-23.875,17.123-29.32S127.856,112.89,127.856,123.636Z" transform="translate(-81.09 -105.439)" fill="#462b3e"/>
                <path id="Trazado_139462" data-name="Trazado 139462" d="M125.17,123.71c0,9.582-6.824,21.278-15.26,26.132s-15.26,1.039-15.26-8.543,6.824-21.278,15.26-26.132S125.17,114.056,125.17,123.71Z" transform="translate(-80.268 -104.366)" fill="#462b3e"/>
                <g id="Grupo_61012" data-name="Grupo 61012" transform="translate(16.191 10.931)">
                  <path id="Trazado_139463" data-name="Trazado 139463" d="M122.562,123.7c0,8.436-6.018,18.735-13.451,23.015s-13.451.913-13.451-7.523,6.018-18.753,13.451-23.033S122.562,115.247,122.562,123.7Z" transform="translate(-95.66 -114.303)" fill="#57364d"/>
                  <path id="Trazado_139464" data-name="Trazado 139464" d="M120.341,123.655a26.114,26.114,0,0,1-11.911,20.4c-6.591,3.8-11.911.806-11.911-6.681a26.078,26.078,0,0,1,11.911-20.4C115,113.267,120.341,116.24,120.341,123.655Z" transform="translate(-94.98 -113.451)" fill="#727272"/>
                  <path id="Trazado_139465" data-name="Trazado 139465" d="M108.27,116.37a26.1,26.1,0,0,0-11.75,20.293,12.09,12.09,0,0,0,.322,2.9l8.687,5.033a14.206,14.206,0,0,0,2.9-1.254,26.15,26.15,0,0,0,11.893-20.024Z" transform="translate(-94.98 -112.668)" fill="#a9a9a9"/>
                  <path id="Trazado_139466" data-name="Trazado 139466" d="M101.586,119.75a27.4,27.4,0,0,0-4.836,10.46l14.436,8.329a27.4,27.4,0,0,0,6.824-9.3Z" transform="translate(-94.798 -109.994)" fill="#e9eae7"/>
                  <path id="Trazado_139467" data-name="Trazado 139467" d="M101.586,119.75a27.4,27.4,0,0,0-4.836,10.46l14.436,8.329a27.4,27.4,0,0,0,6.824-9.3Z" transform="translate(-94.798 -109.994)" fill="#e9eae7"/>
                  <path id="Trazado_139468" data-name="Trazado 139468" d="M116.06,122.948a20.669,20.669,0,0,1-9.475,16.12c-5.23,3.027-9.475.645-9.475-5.373a20.723,20.723,0,0,1,9.475-16.12C111.833,114.566,116.06,116.948,116.06,122.948Z" transform="translate(-94.513 -112.744)" fill="#4d4d4d"/>
                  <path id="Trazado_139469" data-name="Trazado 139469" d="M113.935,122.7a17.768,17.768,0,0,1-8.132,13.917c-4.478,2.579-8.114.537-8.114-4.549a17.786,17.786,0,0,1,8.114-13.917C110.3,115.551,113.935,117.593,113.935,122.7Z" transform="translate(-94.054 -112.153)" fill="#949494"/>
                  <g id="Grupo_61011" data-name="Grupo 61011" transform="translate(2.776 4.6)">
                    <path id="Trazado_139470" data-name="Trazado 139470" d="M100.651,119.914a1.5,1.5,0,0,0-.43-.394,21.909,21.909,0,0,0-1.361,1.934,1.9,1.9,0,0,0,1.218,0,1,1,0,0,0,.573-1.54Z" transform="translate(-95.905 -114.776)" fill="#727272"/>
                    <path id="Trazado_139471" data-name="Trazado 139471" d="M107.938,123.039c.555-.7.43-1.325-.251-1.379a2.92,2.92,0,0,0-2.2,1.182c-.555.716-.43,1.325.251,1.379a2.919,2.919,0,0,0,2.2-1.182Z" transform="translate(-90.94 -113.083)" fill="#727272"/>
                    <path id="Trazado_139472" data-name="Trazado 139472" d="M99.877,125.923c.179-.86-.251-1.182-.949-.734a4.209,4.209,0,0,0-1.576,2.346c-.2.86.233,1.182.931.734A4.245,4.245,0,0,0,99.877,125.923Z" transform="translate(-97.136 -110.45)" fill="#727272"/>
                    <path id="Trazado_139473" data-name="Trazado 139473" d="M105.369,117.335c-.251-.681-.824-.609-1.29.2a3.582,3.582,0,0,0-.394,2.669c.233.7.806.609,1.272-.179a3.761,3.761,0,0,0,.412-2.687Z" transform="translate(-92.168 -116.871)" fill="#727272"/>
                    <path id="Trazado_139474" data-name="Trazado 139474" d="M99.386,122.952c.645-.573.663-1.254,0-1.5a1.164,1.164,0,0,0-.519-.107,23.641,23.641,0,0,0-1.057,2.275,2.651,2.651,0,0,0,1.576-.663Z" transform="translate(-96.735 -113.336)" fill="#727272"/>
                    <path id="Trazado_139475" data-name="Trazado 139475" d="M98.494,129.4c.107.77.663.824,1.218.107a3.887,3.887,0,0,0,.806-2.669c-.107-.77-.663-.824-1.218-.107a3.9,3.9,0,0,0-.806,2.669Z" transform="translate(-96.202 -109.469)" fill="#727272"/>
                    <path id="Trazado_139476" data-name="Trazado 139476" d="M99.359,124.55c.448-.788.233-1.325-.484-1.236a2.7,2.7,0,0,0-1.146.555,15.581,15.581,0,0,0-.519,2.293h0A3.475,3.475,0,0,0,99.359,124.55Z" transform="translate(-97.21 -111.782)" fill="#727272"/>
                    <path id="Trazado_139477" data-name="Trazado 139477" d="M106.946,125.695c.681-.448.806-1.146.287-1.54a1.988,1.988,0,0,0-2.185,0c-.681.448-.806,1.146-.287,1.54a1.988,1.988,0,0,0,2.185,0Z" transform="translate(-91.489 -111.368)" fill="#727272"/>
                    <path id="Trazado_139478" data-name="Trazado 139478" d="M103.908,128.568a2.113,2.113,0,0,0-1.039-1.952c-.609-.233-1.11.251-1.146,1.093a2.078,2.078,0,0,0,1.039,1.952C103.37,129.893,103.872,129.41,103.908,128.568Z" transform="translate(-93.645 -109.209)" fill="#727272"/>
                    <path id="Trazado_139479" data-name="Trazado 139479" d="M100.275,127.61a3.081,3.081,0,0,0,.125,2.543c.394.555.985.3,1.29-.537a3.081,3.081,0,0,0-.125-2.543C101.171,126.518,100.6,126.75,100.275,127.61Z" transform="translate(-94.956 -109.039)" fill="#727272"/>
                    <path id="Trazado_139480" data-name="Trazado 139480" d="M105.9,126.6a1.684,1.684,0,0,0-1.791-1.021,1.021,1.021,0,0,0-.788,1.451,1.791,1.791,0,0,0,1.791,1.021,1.021,1.021,0,0,0,.788-1.451Z" transform="translate(-92.452 -109.997)" fill="#727272"/>
                    <path id="Trazado_139481" data-name="Trazado 139481" d="M105.814,121.237a4.317,4.317,0,0,0,1.272-2.561c0-.824-.448-1.039-1.093-.448a4.334,4.334,0,0,0-1.272,2.543C104.668,121.667,105.223,121.81,105.814,121.237Z" transform="translate(-91.271 -116.063)" fill="#727272"/>
                    <path id="Trazado_139482" data-name="Trazado 139482" d="M100.17,119.548a1.63,1.63,0,0,0,1.128.842,1,1,0,0,0,1-1.272,2.042,2.042,0,0,0-.555-1.128,18.469,18.469,0,0,0-1.576,1.558Z" transform="translate(-94.868 -115.986)" fill="#727272"/>
                    <path id="Trazado_139483" data-name="Trazado 139483" d="M107.29,119.774a3.887,3.887,0,0,0-1.934,1.988c-.322.824,0,1.29.7,1.021a3.851,3.851,0,0,0,1.934-1.97C108.4,119.971,108.006,119.5,107.29,119.774Z" transform="translate(-90.866 -114.635)" fill="#727272"/>
                    <path id="Trazado_139484" data-name="Trazado 139484" d="M102.035,117.547v.179a2.579,2.579,0,0,0,.555,2.328c.5.43,1.057,0,1.254-.806a2.633,2.633,0,0,0-.537-2.328h-.09l-.358.2Z" transform="translate(-93.456 -116.833)" fill="#727272"/>
                  </g>
                  <path id="Trazado_139485" data-name="Trazado 139485" d="M109.108,122.765a11,11,0,0,1-5.033,8.6c-2.776,1.612-5.015.34-5.015-2.812a11.033,11.033,0,0,1,5.015-8.615C106.851,118.341,109.108,119.595,109.108,122.765Z" transform="translate(-92.97 -110.394)" fill="#727272"/>
                  <path id="Trazado_139486" data-name="Trazado 139486" d="M105.491,119.32a5.909,5.909,0,0,0-1.415.555,11.033,11.033,0,0,0-5.015,8.615,4.353,4.353,0,0,0,.466,2.113l4.585-.967c1.791-1.54,2.006-3.3,3.045-5.552Z" transform="translate(-92.971 -110.334)" fill="#a9a9a9"/>
                  <path id="Trazado_139487" data-name="Trazado 139487" d="M105.5,126.255c.322-.627.591-1.29.878-2.006a18.323,18.323,0,0,1-5.373-3.1,11.857,11.857,0,0,0-1.791,3.887,17.911,17.911,0,0,1,6.287,1.218Z" transform="translate(-92.852 -108.886)" fill="#dcded9"/>
                  <path id="Trazado_139488" data-name="Trazado 139488" d="M107.834,123.6a7.791,7.791,0,0,1-3.582,6.108c-1.988,1.146-3.582.251-3.582-2.006a7.773,7.773,0,0,1,3.582-6.108C106.24,120.444,107.834,121.34,107.834,123.6Z" transform="translate(-91.697 -108.933)" fill="#c4c4c4"/>
                  <path id="Trazado_139489" data-name="Trazado 139489" d="M105.771,123.849a4.281,4.281,0,0,1-1.916,3.314c-1.075.609-1.934.125-1.934-1.093a4.227,4.227,0,0,1,1.934-3.314C104.893,122.147,105.771,122.631,105.771,123.849Z" transform="translate(-90.708 -107.824)" fill="#4d4d4d"/>
                </g>
                <path id="Trazado_139490" data-name="Trazado 139490" d="M102.345,156.356l-7.54-4.334a.734.734,0,0,1-.2-.125l-.269-.143h0c-2.884-1.791-4.657-5.463-4.657-10.621,0-10.747,7.666-23.875,17.123-29.32,4.693-2.7,8.955-3.009,12.018-1.325h0l-.842-.484h0c-3.1-1.684-7.343-1.4-12.018,1.307-9.457,5.373-17.123,18.574-17.123,29.32,0,5.158,1.791,8.812,4.639,10.621h0l.251.161.215.107,8.382,4.836Z" transform="translate(-84.864 -107.602)"/>
                <path id="Trazado_139491" data-name="Trazado 139491" d="M100.636,155.388l-3.69-2.131-.215-.125-.251-.143h0c-2.884-1.791-4.657-5.481-4.657-10.621,0-10.747,7.666-23.875,17.123-29.32,4.693-2.7,8.955-3.009,12.036-1.325h0l-.842-.5h0c-3.1-1.684-7.326-1.379-12.018,1.325C98.666,117.918,91,131.118,91,141.865c0,5.158,1.791,8.794,4.657,10.621h0l.251.143.215.125,4.549,2.633Z" transform="translate(-83.155 -106.634)"/>
              </g>
              <g id="Grupo_61016" data-name="Grupo 61016" transform="translate(241.02 101.06)">
                <path id="Trazado_139492" data-name="Trazado 139492" d="M180.549,114.191,205.159,73l-12.86-7.54h0c-3.1-1.666-7.343-1.379-12.018,1.325-9.475,5.373-17.141,18.574-17.141,29.32,0,5.158,1.791,8.812,4.657,10.621h0l.251.161.215.107Z" transform="translate(-163.121 -64.424)" fill="#1c1119"/>
                <path id="Trazado_139493" data-name="Trazado 139493" d="M200.725,75.048,183.28,65a18.878,18.878,0,0,0-3.009,1.415c-9.475,5.373-17.141,18.574-17.141,29.32a17.338,17.338,0,0,0,.752,5.248l13.433,7.755a21.168,21.168,0,0,0,4.585-1.988,30.162,30.162,0,0,0,5.033-3.69l12.932-21.69A29.945,29.945,0,0,0,200.725,75.048Z" transform="translate(-163.129 -63.968)" fill="#3b2534"/>
                <path id="Trazado_139494" data-name="Trazado 139494" d="M204.354,80.432c0,10.747-7.666,23.875-17.123,29.32s-17.141,1.146-17.141-9.6,7.666-23.875,17.141-29.32S204.354,69.686,204.354,80.432Z" transform="translate(-157.623 -61.221)" fill="#462b3e"/>
                <path id="Trazado_139495" data-name="Trazado 139495" d="M201.668,80.431c0,9.564-6.842,21.278-15.26,26.132S171.13,107.584,171.13,98s6.932-21.278,15.278-26.078S201.668,70.849,201.668,80.431Z" transform="translate(-156.8 -60.145)" fill="#462b3e"/>
                <g id="Grupo_61015" data-name="Grupo 61015" transform="translate(16.121 11.953)">
                  <path id="Trazado_139496" data-name="Trazado 139496" d="M199.032,80.47c0,8.436-6.018,18.753-13.451,23.033s-13.451.9-13.451-7.54,6.018-18.753,13.451-23.015S199.032,72.034,199.032,80.47Z" transform="translate(-172.13 -71.097)" fill="#57364d"/>
                  <path id="Trazado_139497" data-name="Trazado 139497" d="M196.811,80.484a26.06,26.06,0,0,1-11.911,20.4c-6.573,3.8-11.911.806-11.911-6.663a26.06,26.06,0,0,1,11.911-20.4C191.474,70.059,196.811,73.015,196.811,80.484Z" transform="translate(-171.45 -70.233)" fill="#727272"/>
                  <path id="Trazado_139498" data-name="Trazado 139498" d="M184.732,73.15A26.15,26.15,0,0,0,173,93.461a12.2,12.2,0,0,0,.322,2.9l8.687,5.015a12.536,12.536,0,0,0,2.9-1.254,26.114,26.114,0,0,0,11.875-20.078Z" transform="translate(-171.442 -69.473)" fill="#a9a9a9"/>
                  <path id="Trazado_139499" data-name="Trazado 139499" d="M178.056,76.54a27.439,27.439,0,0,0-4.836,10.442l14.436,8.293a27.583,27.583,0,0,0,6.824-9.3Z" transform="translate(-171.268 -66.791)" fill="#e9eae7"/>
                  <path id="Trazado_139500" data-name="Trazado 139500" d="M178.056,76.54a27.439,27.439,0,0,0-4.836,10.442l14.436,8.293a27.583,27.583,0,0,0,6.824-9.3Z" transform="translate(-171.268 -66.791)" fill="#e9eae7"/>
                  <path id="Trazado_139501" data-name="Trazado 139501" d="M192.53,79.678a20.7,20.7,0,0,1-9.475,16.227c-5.23,3.009-9.475.645-9.475-5.373a20.741,20.741,0,0,1,9.475-16.227C188.3,71.368,192.53,73.75,192.53,79.678Z" transform="translate(-170.983 -69.553)" fill="#4d4d4d"/>
                  <path id="Trazado_139502" data-name="Trazado 139502" d="M190.405,79.517a17.768,17.768,0,0,1-8.132,13.9c-4.478,2.6-8.114.555-8.114-4.549a17.911,17.911,0,0,1,8.114-13.917C186.769,72.352,190.405,74.376,190.405,79.517Z" transform="translate(-170.524 -68.944)" fill="#949494"/>
                  <g id="Grupo_61014" data-name="Grupo 61014" transform="translate(2.776 4.584)">
                    <path id="Trazado_139503" data-name="Trazado 139503" d="M177.121,76.7a1.5,1.5,0,0,0-.43-.394c-.484.609-.931,1.254-1.361,1.916a1.9,1.9,0,0,0,1.218,0,.985.985,0,0,0,.573-1.522Z" transform="translate(-172.375 -71.557)" fill="#727272"/>
                    <path id="Trazado_139504" data-name="Trazado 139504" d="M184.408,79.829c.555-.716.43-1.325-.251-1.379a2.866,2.866,0,0,0-2.2,1.182c-.555.7-.43,1.325.251,1.379A2.973,2.973,0,0,0,184.408,79.829Z" transform="translate(-167.41 -69.864)" fill="#727272"/>
                    <path id="Trazado_139505" data-name="Trazado 139505" d="M176.347,82.7c.179-.842-.233-1.164-.931-.716a4.173,4.173,0,0,0-1.594,2.346c-.2.86.233,1.182.931.734a4.227,4.227,0,0,0,1.594-2.364Z" transform="translate(-173.606 -67.232)" fill="#727272"/>
                    <path id="Trazado_139506" data-name="Trazado 139506" d="M181.84,74.129c-.251-.7-.824-.609-1.29.179a3.582,3.582,0,0,0-.394,2.687c.233.681.806.609,1.272-.2A3.725,3.725,0,0,0,181.84,74.129Z" transform="translate(-168.64 -73.656)" fill="#727272"/>
                    <path id="Trazado_139507" data-name="Trazado 139507" d="M175.856,79.712c.645-.591.663-1.254,0-1.522a1.5,1.5,0,0,0-.519-.09,21.5,21.5,0,0,0-1.057,2.257,2.579,2.579,0,0,0,1.576-.645Z" transform="translate(-173.205 -70.141)" fill="#727272"/>
                    <path id="Trazado_139508" data-name="Trazado 139508" d="M175,86.187c.107.77.663.824,1.218.107a3.958,3.958,0,0,0,.806-2.687c-.107-.77-.663-.806-1.218-.107A3.958,3.958,0,0,0,175,86.187Z" transform="translate(-172.64 -66.263)" fill="#727272"/>
                    <path id="Trazado_139509" data-name="Trazado 139509" d="M175.829,81.322c.448-.788.233-1.343-.484-1.236a2.507,2.507,0,0,0-1.146.555,17.336,17.336,0,0,0-.519,2.275h0a3.475,3.475,0,0,0,2.149-1.594Z" transform="translate(-173.68 -68.58)" fill="#727272"/>
                    <path id="Trazado_139510" data-name="Trazado 139510" d="M183.416,82.487c.681-.448.806-1.146.287-1.558a2.06,2.06,0,0,0-2.185,0c-.681.466-.806,1.146-.287,1.558A2.024,2.024,0,0,0,183.416,82.487Z" transform="translate(-167.959 -68.151)" fill="#727272"/>
                    <path id="Trazado_139511" data-name="Trazado 139511" d="M180.378,85.348a2.149,2.149,0,0,0-1.039-1.952c-.609-.233-1.11.251-1.146,1.093a2.06,2.06,0,0,0,1.039,1.952C179.841,86.691,180.342,86.19,180.378,85.348Z" transform="translate(-170.115 -65.998)" fill="#727272"/>
                    <path id="Trazado_139512" data-name="Trazado 139512" d="M176.745,84.356a3.045,3.045,0,0,0,.125,2.525c.394.555.985.322,1.308-.537a3.081,3.081,0,0,0-.143-2.543C177.641,83.317,177.068,83.55,176.745,84.356Z" transform="translate(-171.426 -65.829)" fill="#727272"/>
                    <path id="Trazado_139513" data-name="Trazado 139513" d="M182.373,83.375a1.791,1.791,0,0,0-1.791-1.021,1.021,1.021,0,0,0-.788,1.451,1.684,1.684,0,0,0,1.791,1.021,1.021,1.021,0,0,0,.788-1.451Z" transform="translate(-168.922 -66.782)" fill="#727272"/>
                    <path id="Trazado_139514" data-name="Trazado 139514" d="M182.284,78.029a4.37,4.37,0,0,0,1.272-2.561c0-.824-.448-1.039-1.093-.466a4.317,4.317,0,0,0-1.272,2.561C181.138,78.387,181.622,78.6,182.284,78.029Z" transform="translate(-167.741 -72.846)" fill="#727272"/>
                    <path id="Trazado_139515" data-name="Trazado 139515" d="M176.64,76.32a1.666,1.666,0,0,0,1.128.86,1.017,1.017,0,0,0,1-1.29,1.934,1.934,0,0,0-.555-1.11A18.254,18.254,0,0,0,176.64,76.32Z" transform="translate(-171.338 -72.767)" fill="#727272"/>
                    <path id="Trazado_139516" data-name="Trazado 139516" d="M183.755,76.564a3.743,3.743,0,0,0-1.916,1.97c-.34.842,0,1.29.7,1.039a3.923,3.923,0,0,0,1.916-1.988C184.794,76.761,184.472,76.295,183.755,76.564Z" transform="translate(-167.331 -71.416)" fill="#727272"/>
                    <path id="Trazado_139517" data-name="Trazado 139517" d="M178.485,74.337V74.5a2.615,2.615,0,0,0,.555,2.346c.5.412,1.057,0,1.254-.806a2.615,2.615,0,0,0-.537-2.328h-.09l-.358.179A8.557,8.557,0,0,0,178.485,74.337Z" transform="translate(-169.942 -73.614)" fill="#727272"/>
                  </g>
                  <path id="Trazado_139518" data-name="Trazado 139518" d="M185.578,79.552a10.979,10.979,0,0,1-5.033,8.615c-2.776,1.594-5.015.34-5.015-2.812a10.979,10.979,0,0,1,5.015-8.615C183.339,75.128,185.578,76.382,185.578,79.552Z" transform="translate(-169.44 -67.189)" fill="#727272"/>
                  <path id="Trazado_139519" data-name="Trazado 139519" d="M181.961,76.11a5.247,5.247,0,0,0-1.415.555,10.979,10.979,0,0,0-5.015,8.615,4.317,4.317,0,0,0,.466,2.1l4.585-.949c1.791-1.54,2.006-3.314,3.045-5.57Z" transform="translate(-169.441 -67.131)" fill="#a9a9a9"/>
                  <path id="Trazado_139520" data-name="Trazado 139520" d="M181.967,83.035a17.628,17.628,0,0,0,.878-2.024,18.681,18.681,0,0,1-5.373-3.081A11.785,11.785,0,0,0,175.68,81.8a17.912,17.912,0,0,1,6.287,1.236Z" transform="translate(-169.322 -65.692)" fill="#dcded9"/>
                  <path id="Trazado_139521" data-name="Trazado 139521" d="M184.3,80.374a7.863,7.863,0,0,1-3.582,6.126c-1.988,1.128-3.582.233-3.582-2.006a7.827,7.827,0,0,1,3.582-6.126C182.71,77.24,184.3,78.1,184.3,80.374Z" transform="translate(-168.167 -65.736)" fill="#c4c4c4"/>
                  <path id="Trazado_139522" data-name="Trazado 139522" d="M182.249,80.581a4.209,4.209,0,0,1-1.934,3.314c-1.075.627-1.934.143-1.934-1.075a4.209,4.209,0,0,1,1.934-3.313C181.389,78.933,182.249,79.417,182.249,80.581Z" transform="translate(-167.186 -64.635)" fill="#4d4d4d"/>
                </g>
                <path id="Trazado_139523" data-name="Trazado 139523" d="M178.809,113.158l-7.523-4.352-.215-.125-.251-.143h0c-2.866-1.791-4.639-5.481-4.639-10.621,0-10.747,7.666-23.875,17.123-29.32,4.675-2.7,8.955-3.009,12.018-1.325h0l-.842-.5h0c-3.081-1.684-7.326-1.379-12.018,1.325-9.457,5.373-17.123,18.574-17.123,29.32,0,5.14,1.791,8.794,4.657,10.621h0l.269.143.2.125,8.382,4.836Z" transform="translate(-161.381 -63.391)"/>
                <path id="Trazado_139524" data-name="Trazado 139524" d="M177.132,112.178l-3.69-2.167-.215-.107-.251-.143h0c-2.884-1.791-4.657-5.481-4.657-10.639,0-10.747,7.666-23.875,17.123-29.32,4.693-2.687,8.955-2.991,12.018-1.307h0l-.842-.484h0c-3.1-1.684-7.343-1.379-12.018,1.307-9.475,5.373-17.141,18.591-17.141,29.32,0,5.158,1.791,8.812,4.657,10.639h0l.251.143.215.125,4.531,2.615Z" transform="translate(-159.704 -62.41)"/>
              </g>
              <path id="Trazado_139525" data-name="Trazado 139525" d="M114.29,114.812,95.2,125.719,82.05,121.743A247.169,247.169,0,0,1,96.791,101.45l5.964,5.087Z" transform="translate(13.75 65.927)" fill="#c9d2db"/>
              <path id="Trazado_139526" data-name="Trazado 139526" d="M295.139,45.346l-.591,7L292.4,78.266l-.591,7.164s-14.9,7.075-15.171,7.469c-1.218-9.547-9.564-10.12-18.986-4.675a36.628,36.628,0,0,0-11.75,11.66,40.3,40.3,0,0,0-6.681,18.2q0,.994,0,1.988a18.448,18.448,0,0,0,.627,4.818l-2.454,1.379L145.924,175.7l-5.176,4.1,1.791,2.418-3.367,2.633a30.145,30.145,0,0,0,.627-5.839v-1.558c-.681-10.5-9.242-18.323-19.039-12.538-7.343,4.263-16.12,12.323-19.057,21.135-.466.663-2.508,7.164-2.776,8.006-1.128,3.4.412,7.827.34,10.209,0,2.006-2.131,4.531-1.791,6.072C94.538,212.043,82,218.025,82,218.025v-35.7a4.746,4.746,0,0,1,.734-2.418,3.581,3.581,0,0,1,.358-.555c.752-1.2,38.437-23.284,39.619-24.5a29.7,29.7,0,0,0,6.52-8.293,18.737,18.737,0,0,1,.913-1.791h0l3.958-2.239,74.652-59.446h0l.358-.251a4.478,4.478,0,0,1,.591-.3c3.833-2.275,10.961-6.9,12.717-9.314.09-.161.2-.322.269-.466l53.733-22.783,3.9-7.827Z" transform="translate(13.71 19.008)" fill="#bec6cf"/>
              <path id="Trazado_139527" data-name="Trazado 139527" d="M294.383,64.045l-1.075,13.218L82.05,198.537V166.763l.269-36.019L237.086,42.175s22.478-12.3,24.932-11.7a12.09,12.09,0,0,1,2.31.573h.591l15.439,20.633L295.1,55.018Z" transform="translate(13.75 9.766)" fill="#c9d2db"/>
              <path id="Trazado_139528" data-name="Trazado 139528" d="M44.33,64.46l.394,95.895,67.148,39.995.251-46.765.036-49.738Z" transform="translate(-16.09 36.665)" fill="#b2c2d3"/>
              <g id="Grupo_61019" data-name="Grupo 61019" transform="translate(86.862 177.92)">
                <g id="Grupo_61017" data-name="Grupo 61017">
                  <path id="Trazado_139529" data-name="Trazado 139529" d="M77.06,109.761a7.63,7.63,0,0,0,3.475,5.928c1.9,1.093,3.457.215,3.457-1.97a7.612,7.612,0,0,0-3.457-5.929C78.6,106.734,77.06,107.576,77.06,109.761Z" transform="translate(-77.06 -107.337)" fill="#c91a00"/>
                  <path id="Trazado_139530" data-name="Trazado 139530" d="M77.06,116.238a7.63,7.63,0,0,0,3.475,5.964c1.9,1.093,3.457.215,3.457-1.97a7.666,7.666,0,0,0-3.457-5.964C78.6,113.175,77.06,114.053,77.06,116.238Z" transform="translate(-77.06 -102.225)" fill="#c91a00"/>
                  <path id="Trazado_139531" data-name="Trazado 139531" d="M77.06,122.723a7.558,7.558,0,0,0,3.475,6.018c1.9,1.111,3.457.233,3.457-1.97a7.612,7.612,0,0,0-3.457-6.018C78.6,119.642,77.06,120.52,77.06,122.723Z" transform="translate(-77.06 -97.104)" fill="#e7722e"/>
                </g>
                <g id="Grupo_61018" data-name="Grupo 61018" transform="translate(0 1.561)">
                  <path id="Trazado_139532" data-name="Trazado 139532" d="M77.08,110.182A6.126,6.126,0,0,0,79.874,115c1.54.9,2.794.179,2.794-1.576a6.143,6.143,0,0,0-2.794-4.818C78.334,107.692,77.08,108.409,77.08,110.182Z" transform="translate(-77.044 -108.208)" fill="#d6533e"/>
                  <path id="Trazado_139533" data-name="Trazado 139533" d="M77.06,116.631a6.161,6.161,0,0,0,2.794,4.818c1.54.9,2.794.179,2.794-1.594a6.161,6.161,0,0,0-2.794-4.818C78.314,114.159,77.06,114.858,77.06,116.631Z" transform="translate(-77.06 -103.105)" fill="#d6533e"/>
                  <path id="Trazado_139534" data-name="Trazado 139534" d="M77.08,123.075a6.126,6.126,0,0,0,2.794,4.8c1.54.9,2.794.179,2.794-1.576a6.143,6.143,0,0,0-2.794-4.818C78.334,120.585,77.08,121.3,77.08,123.075Z" transform="translate(-77.044 -98.014)" fill="#f98347"/>
                </g>
              </g>
              <g id="Grupo_61022" data-name="Grupo 61022" transform="translate(29.44 145.307)">
                <g id="Grupo_61020" data-name="Grupo 61020">
                  <path id="Trazado_139535" data-name="Trazado 139535" d="M45,91.568a7.63,7.63,0,0,0,3.582,5.964c1.916,1.093,3.457.215,3.457-1.97A7.63,7.63,0,0,0,48.582,89.6C46.612,88.5,45,89.382,45,91.568Z" transform="translate(-45 -89.128)" fill="#c91a00"/>
                  <path id="Trazado_139536" data-name="Trazado 139536" d="M45,98.106A7.558,7.558,0,0,0,48.582,104c1.916,1.11,3.457.233,3.457-1.97a7.558,7.558,0,0,0-3.457-5.946C46.612,94.971,45,95.849,45,98.106Z" transform="translate(-45 -84.006)" fill="#c91a00"/>
                  <path id="Trazado_139537" data-name="Trazado 139537" d="M45,104.521a7.63,7.63,0,0,0,3.582,5.964c1.916,1.093,3.457.215,3.457-1.97a7.558,7.558,0,0,0-3.457-5.964C46.612,101.44,45,102.336,45,104.521Z" transform="translate(-45 -78.887)" fill="#e7722e"/>
                </g>
                <g id="Grupo_61021" data-name="Grupo 61021" transform="translate(0 1.57)">
                  <path id="Trazado_139538" data-name="Trazado 139538" d="M45.06,91.985A6.161,6.161,0,0,0,47.854,96.8c1.54.878,2.794.179,2.794-1.594a6.161,6.161,0,0,0-2.794-4.818C46.314,89.495,45.06,90.211,45.06,91.985Z" transform="translate(-44.953 -90.005)" fill="#d6533e"/>
                  <path id="Trazado_139539" data-name="Trazado 139539" d="M45,98.427a6.143,6.143,0,0,0,2.794,4.818c1.54.9,2.794.179,2.794-1.576a6.143,6.143,0,0,0-2.794-4.818C46.325,95.955,45,96.672,45,98.427Z" transform="translate(-45 -84.894)" fill="#d6533e"/>
                  <path id="Trazado_139540" data-name="Trazado 139540" d="M45.06,104.876a6.161,6.161,0,0,0,2.794,4.818c1.54.878,2.794.179,2.794-1.594a6.161,6.161,0,0,0-2.794-4.818C46.314,102.386,45.06,103.085,45.06,104.876Z" transform="translate(-44.953 -79.809)" fill="#f98347"/>
                </g>
              </g>
              <path id="Trazado_139541" data-name="Trazado 139541" d="M49.87,156.188l46.622,26.92V96.76L49.87,69.84Z" transform="translate(-11.707 40.921)" fill="#4c4c4c"/>
              <path id="Trazado_139542" data-name="Trazado 139542" d="M49.87,140.033l3.17-2.006V115.835L96.492,88.79v78.02Z" transform="translate(-11.707 55.912)" fill="#646464"/>
              <path id="Trazado_139543" data-name="Trazado 139543" d="M113.551,147a28.392,28.392,0,0,1-.591,5.534l2.418-1.4,94.928-53.733,3.4-1.254a19.541,19.541,0,0,1-.645-5.123c0-.519,0-8.543.09-9.063l-99.584,55.739C113.569,138.246,113.551,146.36,113.551,147Z" transform="translate(38.202 50.517)" fill="#bec6cf"/>
              <path id="Trazado_139544" data-name="Trazado 139544" d="M113.543,147.8v-9.349L213.128,82.71c0,.484,0,7.057-.09,8.687a1.522,1.522,0,0,0-.681,1.057,9.761,9.761,0,0,0,0,3.457l-2.042.9-94.928,53.733-2.418,1.379A16.513,16.513,0,0,0,113.543,147.8Z" transform="translate(38.21 51.102)" fill="#bec6cf"/>
              <path id="Trazado_139545" data-name="Trazado 139545" d="M188.141,67.417c8.723-5.015,16.388-3.063,19.7,3.582-1.343-1.021-2.919-2.257-4.173-3.17a3.582,3.582,0,0,0-4.424-.107c-3.009-.681-3.994.376-7.97,2.651-10.227,5.893-21.189,19.7-21.189,31.326,0,.913-.125,7.738,0,8.543s-2.131-.484-1.952.251c0,0,.215-6.806.215-8.257C168.278,88.91,176.409,74.277,188.141,67.417Z" transform="translate(81.842 36.77)" fill="#646464"/>
              <path id="Trazado_139546" data-name="Trazado 139546" d="M168.72,104.866a24.145,24.145,0,0,0,.322,4.066l3.4-1.272a22.054,22.054,0,0,1-.43-2.31,23.151,23.151,0,0,1-.161-2.579c0-11.624,8.311-25.845,18.556-31.738,4.478-2.579,8.579-3.152,11.785-1.988,4.12,1.487,6.752,5.821,6.752,12.376a28.353,28.353,0,0,1-.591,5.517l.716-2.149a34.155,34.155,0,0,0,.43-5.158c0-13.326-7.827-17.911-19.559-11.141S168.72,91.559,168.72,104.866Z" transform="translate(82.313 37.4)" fill="#292929"/>
              <path id="Trazado_139547" data-name="Trazado 139547" d="M172.028,69.92a5.248,5.248,0,0,1-2.328,4.514V62.183l.931-.591c.806-.537,1.361-1.29,1.379,1.146C172.028,62.756,172.154,66.5,172.028,69.92Z" transform="translate(83.089 33.963)" fill="#a3bdc4"/>
              <g id="Grupo_61023" data-name="Grupo 61023" transform="translate(25.565)">
                <path id="Trazado_139548" data-name="Trazado 139548" d="M42.861,98.808,197.36,8l70.658,40.873L112.641,140.218S41.338,99.6,42.861,98.808Z" transform="translate(-42.837 -8)" fill="#f5f9ff"/>
                <path id="Trazado_139549" data-name="Trazado 139549" d="M42.85,58.7l69.781,41.41.7,8.293L42.868,67.763Z" transform="translate(-42.826 32.108)" fill="#d3dce6"/>
                <path id="Trazado_139550" data-name="Trazado 139550" d="M93.293,124.247,237.207,42.162V30.86L81.83,122.205s.734,8.275.7,8.293Z" transform="translate(-11.989 10.084)" fill="#bec6cf"/>
              </g>
              <g id="Grupo_61024" data-name="Grupo 61024" transform="translate(150.303 145.311)">
                <path id="Trazado_139551" data-name="Trazado 139551" d="M116.96,149.221,217.225,91.315l-3.833-2.185-100.462,57.8Z" transform="translate(-112.124 -89.13)" fill="#646464"/>
                <path id="Trazado_139552" data-name="Trazado 139552" d="M215.445,92.087,115.18,149.993v-1.737L215.445,90.35Z" transform="translate(-110.344 -88.165)" fill="#292929"/>
                <path id="Trazado_139553" data-name="Trazado 139553" d="M117.316,125.7l-4.836-2.919.018-1.719,4.818,2.9Z" transform="translate(-112.48 -63.871)" fill="#474747"/>
              </g>
              <g id="Grupo_61025" data-name="Grupo 61025" transform="translate(239.911 45.605)">
                <path id="Trazado_139554" data-name="Trazado 139554" d="M168.558,34.031v2.525a1.343,1.343,0,0,1-.681,1.164l-4.514,2.615a.555.555,0,0,1-.824-.484v-.3l3.779-2.185a1.343,1.343,0,0,0,.627-1.146V34l.734-.43a.555.555,0,0,1,.878.466Z" transform="translate(-162.486 -33.462)" fill="#ed6e5c"/>
                <path id="Trazado_139555" data-name="Trazado 139555" d="M166.97,33.76v2.221a1.343,1.343,0,0,1-.681,1.146l-3.779,2.185v-2.2a1.361,1.361,0,0,1,.663-1.182Z" transform="translate(-162.51 -33.227)" fill="#ffd95c"/>
              </g>
              <g id="Grupo_61026" data-name="Grupo 61026" transform="translate(98.737 128.763)">
                <path id="Trazado_139556" data-name="Trazado 139556" d="M89.708,80.426v2.525a1.361,1.361,0,0,1-.681,1.164l-4.531,2.6a.537.537,0,0,1-.806-.466v-.3l3.779-2.185a1.343,1.343,0,0,0,.681-1.164V80.373l.734-.412a.555.555,0,0,1,.824.466Z" transform="translate(-83.69 -79.891)" fill="#ed6e5c"/>
                <path id="Trazado_139557" data-name="Trazado 139557" d="M88.15,80.16v2.221a1.343,1.343,0,0,1-.681,1.164L83.69,85.73V83.456a1.325,1.325,0,0,1,.663-1.164Z" transform="translate(-83.69 -79.679)" fill="#ffd95c"/>
              </g>
              <g id="Grupo_61027" data-name="Grupo 61027" transform="translate(156.5 184.822)">
                <path id="Trazado_139558" data-name="Trazado 139558" d="M121.958,111.674V114.2a1.361,1.361,0,0,1-.681,1.164l-4.531,2.651a.537.537,0,0,1-.806-.466v-.3l3.779-2.185a1.343,1.343,0,0,0,.681-1.164v-2.221l.734-.412a.555.555,0,0,1,.824.412Z" transform="translate(-115.94 -111.19)" fill="#ed6e5c"/>
                <path id="Trazado_139559" data-name="Trazado 139559" d="M120.4,111.43v2.221a1.343,1.343,0,0,1-.681,1.164L115.94,117v-2.221a1.325,1.325,0,0,1,.663-1.164Z" transform="translate(-115.94 -111)" fill="#ffd95c"/>
              </g>
              <path id="Trazado_139560" data-name="Trazado 139560" d="M173.2,79.066c-2.884,1.791-4.657.788-4.621-2.615l.2-21.1c0-2.687,2.2-7.558,4.872-10.836a11.087,11.087,0,0,1,2.543-2.418l13.576-8.4c2.382-1.451,4.191-1.433,5.1,0l7.254,11.929L201.2,61.442Z" transform="translate(82.203 11.474)" fill="#4b4146"/>
              <path id="Trazado_139561" data-name="Trazado 139561" d="M200.346,46.2l-.824,13.773L173.39,76.346c-2.6,1.63-4.155.734-4.12-2.328l.2-20.544a18.054,18.054,0,0,1,3.994-8.848,8.544,8.544,0,0,1,1.988-1.791l13.236-8.185a3.922,3.922,0,0,1,3.708-.716,1.791,1.791,0,0,1,.913.788Z" transform="translate(82.748 12.366)" fill="#7a6457"/>
              <path id="Trazado_139562" data-name="Trazado 139562" d="M89.71,148.345c.77-5.839,3.815-15.869,3.761-16.12,4.621-10.12,7.164-15.332,15.708-20.186,5.7-3.3,13.756-5.678,18.914-1.791,3.582,2.687,4.728,5.373,5.839,11.141-5.982-14.329-15.815-9.349-24-4.639a36.108,36.108,0,0,0-12.878,13.845c2.293-1.576-2.9,12.77-2.9,12.77l-1.791.358c-.251,1.612,2.042,1.11,2.042,2.633,0,.806-1.791-.519-2.436.448Z" transform="translate(19.81 71.296)" fill="#646464"/>
              <g id="Grupo_61030" data-name="Grupo 61030" transform="translate(44.844 64.873)">
                <g id="Grupo_61028" data-name="Grupo 61028">
                  <path id="Trazado_139563" data-name="Trazado 139563" d="M62.147,65.874l.86-.484h0L97.771,44.22l23.8,13.612L84.786,79.325C86.595,80.436,60.409,78.609,62.147,65.874Z" transform="translate(-46.904 -44.22)" fill="#d3dce6"/>
                  <path id="Trazado_139564" data-name="Trazado 139564" d="M55.37,65.874l.878-.484h0L91.084,44.22,114.87,57.832l-35.7,21.493S55.388,65.785,55.37,65.874Z" transform="translate(-52.2 -44.22)" fill="#f3f3f3"/>
                  <path id="Trazado_139565" data-name="Trazado 139565" d="M56.77,56.31,53.6,64.477,77.386,78.09l3.188-8.275Z" transform="translate(-53.6 -34.656)" fill="#d9d9d9"/>
                  <path id="Trazado_139566" data-name="Trazado 139566" d="M70.068,73.367,66.88,81.642l43.792-25.523-4.908-4.3Z" transform="translate(-43.094 -38.208)" fill="#b8b8b8"/>
                </g>
                <path id="Trazado_139567" data-name="Trazado 139567" d="M99.166,55.116,86.27,47.79,61.32,62.943l12.914,7.164Z" transform="translate(-47.493 -41.396)" fill="#363636"/>
                <g id="Grupo_61029" data-name="Grupo 61029" transform="translate(11.911 4.854)">
                  <path id="Trazado_139568" data-name="Trazado 139568" d="M66.422,70l-1.182-.824L97.193,49.94l.573.573-.376.233.609.322C91.784,54.6,82.721,60.633,66.422,70Z" transform="translate(-56.302 -44.549)" fill="#f3f3f3"/>
                  <path id="Trazado_139569" data-name="Trazado 139569" d="M64.762,69.008l-1.182-.824L95.515,48.93l.591.573-.376.233.591.34C90.106,53.6,80.971,59.623,64.762,69.008Z" transform="translate(-57.616 -45.348)" fill="#f3f3f3"/>
                  <path id="Trazado_139570" data-name="Trazado 139570" d="M63.092,67.99l-1.182-.824L93.863,47.93l.573.573-.358.233.591.322C88.454,52.587,79.319,58.623,63.092,67.99Z" transform="translate(-58.937 -46.139)" fill="#f3f3f3"/>
                  <path id="Trazado_139571" data-name="Trazado 139571" d="M61.432,66.99l-1.182-.824L92.2,46.93l.573.573-.376.215.609.34C86.794,51.587,77.713,57.6,61.432,66.99Z" transform="translate(-60.25 -46.93)" fill="#f3f3f3"/>
                </g>
              </g>
              <path id="Trazado_139572" data-name="Trazado 139572" d="M204.439,47.84l-.233,2.83-1.594,19.29-.322,3.8-3.009-.555a4.3,4.3,0,0,1-3.242-5.051l1.021-14.078a7.755,7.755,0,0,1,6.376-6.215Z" transform="translate(103.855 23.517)" fill="#3c1f33"/>
              <path id="Trazado_139573" data-name="Trazado 139573" d="M203.55,49.654l-1.594,19.29a2.812,2.812,0,0,1-2.4.86c-1.433-.394-2.776-1.057-2.776-2.221,0-2.508,1.29-15.457,1.29-15.457S199.682,47.612,203.55,49.654Z" transform="translate(104.511 24.533)" fill="#e77823"/>
              <path id="Trazado_139574" data-name="Trazado 139574" d="M139.4,148.02,120.66,159.644,50.862,120.1l2.633-10.657L32.7,120.1v3.475l86.259,47.983,23.248-14.723Z" transform="translate(-25.29 72.248)" fill="#292929"/>
              <path id="Trazado_139575" data-name="Trazado 139575" d="M65.858,184.061h2.436L93.262,148.58,46.64,121.66Z" transform="translate(-14.262 81.915)" fill="#292929"/>
              <path id="Trazado_139576" data-name="Trazado 139576" d="M31.34,157.141l46.622,26.92L102.93,148.58,56.308,121.66Z" transform="translate(-26.366 81.915)" fill="#4c4c4c"/>
              <path id="Trazado_139577" data-name="Trazado 139577" d="M139.4,145.961,120.66,157.586l-66.754-37.9-.054-12.036L32.7,121.513,118.959,169.5l23.248-14.723Z" transform="translate(-25.29 70.832)" fill="#646464"/>
              <path id="Trazado_139578" data-name="Trazado 139578" d="M210.764,49.505,188.68,36.86l7.326,9.815Z" transform="translate(98.104 14.831)" fill="#f5f9ff"/>
              <path id="Trazado_139579" data-name="Trazado 139579" d="M93.982,146.891a24.071,24.071,0,0,1-3.152,1.791c0-13.326,9.493-29.607,21.224-36.359s21.26-1.433,21.26,11.911a33.74,33.74,0,0,1-.43,5.14l-2.418,1.4a28.391,28.391,0,0,0,.591-5.534c0-6.537-2.633-10.872-6.752-12.358-3.206-1.182-7.29-.591-11.785,1.97-10.227,5.893-18.556,20.114-18.556,31.756C93.964,146.748,93.982,146.82,93.982,146.891Z" transform="translate(20.696 72.212)" fill="#292929"/>
              <path id="Trazado_139580" data-name="Trazado 139580" d="M195.754,53.3l-1.54,2.078c.161,1.576-8.167-4.137-22.6-10.747a8.544,8.544,0,0,1,1.988-1.791l13.236-8.185a3.922,3.922,0,0,1,3.708-.716Z" transform="translate(84.6 12.374)" fill="#d3dce6"/>
              <g id="Grupo_61031" data-name="Grupo 61031" transform="translate(238.012 137.066)">
                <path id="Trazado_139581" data-name="Trazado 139581" d="M167.468,85.07V87.6a1.325,1.325,0,0,1-.663,1.146l-4.531,2.615a.555.555,0,0,1-.824-.484v-.3l3.8-2.167a1.361,1.361,0,0,0,.663-1.164V85.016l.752-.43a.555.555,0,0,1,.806.484Z" transform="translate(-161.45 -84.527)" fill="#ed6e5c"/>
                <path id="Trazado_139582" data-name="Trazado 139582" d="M165.91,84.8v2.149a1.361,1.361,0,0,1-.663,1.164l-3.8,2.167V88.149a1.343,1.343,0,0,1,.681-1.164Z" transform="translate(-161.45 -84.31)" fill="#ffd95c"/>
              </g>
              <path id="Trazado_139583" data-name="Trazado 139583" d="M192.4,47.855c.394-2.74-.287-7.075,2.006-9.17a3.242,3.242,0,0,1,2.346-.537h2.955a4.442,4.442,0,0,1,3.009,1.218c1.791,1.522,1.146,4.979.985,7.039-.215,2.633-.627,5.23-.931,7.863a14.94,14.94,0,0,1-.806,3.976c-.878,2.113-1.791,2.006-3.761,2.078a9.726,9.726,0,0,1-3.582-.967c-.806-.3-2.167-1.075-2.1-1.791a4.46,4.46,0,0,0,0-1.791,30.143,30.143,0,0,1-4.908-.466.609.609,0,0,1-.34-.161.591.591,0,0,1-.143-.34,6.358,6.358,0,0,1,1.325-5.588c.931-1.146,2.2-.985,3.582-.931h.179a.322.322,0,0,0,.179,0A.3.3,0,0,0,192.4,47.855Z" transform="translate(96.744 15.818)" fill="#462b3e"/>
              <path id="Trazado_139584" data-name="Trazado 139584" d="M196.892,39.986s-.573,17.141-.77,18.018-3.922-.931-4.961-1.558-.2-15.368.215-16.12S192.038,37.694,196.892,39.986Z" transform="translate(99.671 16.433)" fill="#c9d2db"/>
            </g>
            <g id="Grupo_61033" data-name="Grupo 61033" transform="translate(162.613 119.11)">
              <path id="Trazado_139585" data-name="Trazado 139585" d="M150.853,78.744c-.77-3.779-5.373-5.1-9.188-3.69s-6.949,4.782-9.6,8.2a83.661,83.661,0,0,0-11.23,19.38c-1.021,2.508-1.934,5.373-1.236,7.63a6.179,6.179,0,0,0,5.767,3.994,21.26,21.26,0,0,0,7.863-1.469,47.159,47.159,0,0,0,15.529-7.684c3.582-2.884,6.717-7.594,7.021-12.018a3.134,3.134,0,0,0-2.149-3.582c-1.791-.3-2.687-.125-3.134-2.221C149.9,84.6,151.408,81.484,150.853,78.744Z" transform="translate(-119.353 -74.501)" fill="#faffff"/>
              <path id="Trazado_139586" data-name="Trazado 139586" d="M124.054,110.319c-.43,0-2.579-.269-3.045-1.791s.663-4.621,1.164-5.857a80.922,80.922,0,0,1,10.908-18.824c2.149-2.776,5.069-6.126,8.526-7.4a6.287,6.287,0,0,1,2.615-.394c.9,0,2.436.394,2.722,1.791a10.37,10.37,0,0,1-.215,3.3,22.983,22.983,0,0,0-.34,3.134,6.52,6.52,0,0,1-.215,2.651,6.09,6.09,0,0,1-1.021,1.325,47.253,47.253,0,0,0-4.388,5.373,38.222,38.222,0,0,1,6.645-3.708c1.666-.734,2.7.645,4.37.985a1.2,1.2,0,0,1,0,.5,16.209,16.209,0,0,1-6.143,10.281,45.188,45.188,0,0,1-14.723,7.254,19.81,19.81,0,0,1-6.86,1.343Z" transform="translate(-118.131 -73.281)" fill="#f1615c"/>
              <path id="Trazado_139587" data-name="Trazado 139587" d="M133.818,86.534a2.74,2.74,0,0,0-2.651-1.182,5.821,5.821,0,0,0-5,3.475,4.926,4.926,0,0,0-.519,3.152c.645,1.791,2.758,1.307,3.994.824A7.917,7.917,0,0,0,133.8,89.6,2.937,2.937,0,0,0,133.818,86.534Z" transform="translate(-114.426 -65.939)" fill="#faffff"/>
              <path id="Trazado_139588" data-name="Trazado 139588" d="M131.33,86.916a1.63,1.63,0,0,0-1.54-.681,3.421,3.421,0,0,0-2.9,2.024,2.937,2.937,0,0,0-.3,1.791c.376,1.021,1.612.752,2.328.466a4.5,4.5,0,0,0,2.4-1.791,1.791,1.791,0,0,0,.018-1.809Z" transform="translate(-113.658 -65.229)" fill="#ffb0b1"/>
            </g>
          </g>
          <g id="Grupo_61046" data-name="Grupo 61046" transform="translate(0 129.677)">
            <path id="Trazado_139589" data-name="Trazado 139589" d="M85.478,138.21S74.23,141.147,71.7,143.977s-10.335,6.878-11.732,8.06-23.66-9.8-23.66-9.8L14.82,154.975l27.189,16.281,18.788.43,1.916-11.32s8.4-7.433,13.326-8.2,11.1-7.952,11.1-7.952Z" transform="translate(-14.82 -34.669)" fill="#a9a9ab"/>
            <g id="Grupo_61045" data-name="Grupo 61045" transform="translate(5.875)">
              <path id="Trazado_139590" data-name="Trazado 139590" d="M51.347,157.7,29.389,144.55s-.931.251-.878,1a1.684,1.684,0,0,0,.878,1.182l21.977,13.326Z" transform="translate(-9.866 -29.654)" fill="#606060"/>
              <path id="Trazado_139591" data-name="Trazado 139591" d="M20.949,149.511l.376-10.209a2.346,2.346,0,0,1,1.469-2.1l7.988-3.152a.645.645,0,0,1,.878.627l-.394,10.639-2.042.931s1.451,1.4,2.436,1.343,1.361-.251,1.361-2.722c0-1.648.107-6.949.179-10.335a1.988,1.988,0,0,0-2.7-1.9l-7.9,2.973a4.245,4.245,0,0,0-2.74,3.833l-.394,11.3-1.182.555a14.322,14.322,0,0,0,1.5,1.075c.143,0,1.057.322,1.11-.555S20.949,149.511,20.949,149.511Z" transform="translate(-17.958 -39.182)" fill="#f22400"/>
              <g id="Grupo_61035" data-name="Grupo 61035" transform="translate(7.461 105.421)">
                <path id="Trazado_139592" data-name="Trazado 139592" d="M28.112,140.048a4.317,4.317,0,0,1,3.833-.573,18.752,18.752,0,0,1,2.794,1.612l-8.132,14.329s-1.469-.913-2.525-1.451a3.994,3.994,0,0,1-1.791-3.8,12.878,12.878,0,0,1,5.821-10.12Z" transform="translate(-22.266 -139.26)" fill="#040406"/>
                <path id="Trazado_139593" data-name="Trazado 139593" d="M35.256,144.132A12.914,12.914,0,0,1,29.4,154.306c-3.224,1.791-5.839.358-5.839-3.349A12.878,12.878,0,0,1,29.4,140.891C32.641,138.938,35.256,140.425,35.256,144.132Z" transform="translate(-21.242 -138.651)" fill="#414143"/>
                <path id="Trazado_139594" data-name="Trazado 139594" d="M34.747,144.219a11.964,11.964,0,0,1-5.373,9.349c-2.991,1.791-5.373.34-5.373-3.1a11.964,11.964,0,0,1,5.373-9.349C32.275,139.383,34.747,140.78,34.747,144.219Z" transform="translate(-20.894 -138.379)" fill="#2b2b2d"/>
                <path id="Trazado_139595" data-name="Trazado 139595" d="M32.708,144.175a8.955,8.955,0,0,1-4.03,6.967c-2.239,1.29-4.048.251-4.048-2.31a8.955,8.955,0,0,1,4.048-6.967C30.9,140.575,32.708,141.614,32.708,144.175Z" transform="translate(-20.396 -137.637)" fill="#161618"/>
                <path id="Trazado_139596" data-name="Trazado 139596" d="M32.014,144.117a7.97,7.97,0,0,1-3.582,6.251c-1.988,1.164-3.582.233-3.582-2.06a8.006,8.006,0,0,1,3.582-6.251C30.384,140.947,32.014,141.878,32.014,144.117Z" transform="translate(-20.222 -137.418)" fill="#d5d6d5"/>
                <path id="Trazado_139597" data-name="Trazado 139597" d="M31.615,144.163a7.29,7.29,0,0,1-3.331,5.731c-1.791,1.057-3.314.2-3.314-1.9a7.379,7.379,0,0,1,3.314-5.731C30.128,141.208,31.615,142.139,31.615,144.163Z" transform="translate(-20.127 -137.231)" fill="#adafae"/>
                <path id="Trazado_139598" data-name="Trazado 139598" d="M30.169,144.167a5.087,5.087,0,0,1-2.328,3.994c-1.272.752-2.311.161-2.311-1.307a5.1,5.1,0,0,1,2.311-3.994C29.13,142.125,30.169,142.716,30.169,144.167Z" transform="translate(-19.684 -136.662)" fill="#7e8180"/>
                <path id="Trazado_139599" data-name="Trazado 139599" d="M27.377,149.721a7.326,7.326,0,0,0,3.314-5.731,2.275,2.275,0,0,0-1.039-2.149c.9.143,1.5.985,1.5,2.31a7.29,7.29,0,0,1-3.331,5.731,2.4,2.4,0,0,1-2.275.269,2.758,2.758,0,0,0,1.827-.43Z" transform="translate(-19.668 -137.219)" fill="#7e8180"/>
                <path id="Trazado_139600" data-name="Trazado 139600" d="M30.259,144.245a5.1,5.1,0,0,1-2.239,3.994c-1.272.734-2.311.143-2.311-1.325a5.1,5.1,0,0,1,2.311-3.994C29.221,142.185,30.259,142.776,30.259,144.245Z" transform="translate(-19.541 -136.614)" fill="#d5d6d5"/>
              </g>
              <g id="Grupo_61036" data-name="Grupo 61036" transform="translate(21.782)">
                <path id="Trazado_139601" data-name="Trazado 139601" d="M36.725,115.984a10.174,10.174,0,0,1,.394,1.415c0,.519-.985,1.128-.985,1.128l-.484.215a.913.913,0,0,1-.931-.161,1.4,1.4,0,0,1-.358.484.931.931,0,0,1-.412.233c-.519.125-.985-.484-.985-.484a.394.394,0,0,1-.251.251,2.078,2.078,0,0,1-1.648-.878c-.591-.716-.913-.842-.77-2.525s.949-1.916,1.648-3.152a11.41,11.41,0,0,1,2.525-2.579,27.834,27.834,0,0,1,3.027,2.633,14.329,14.329,0,0,1-.627,2.7.77.77,0,0,0-.125.43,1.272,1.272,0,0,0,0,.251Z" transform="translate(-30.261 -57.041)" fill="#f9c48e"/>
                <path id="Trazado_139602" data-name="Trazado 139602" d="M32.9,113.81v.34a1.38,1.38,0,0,1,0-.34Z" transform="translate(-28.178 -53.972)" fill="#a8020b"/>
                <path id="Trazado_139603" data-name="Trazado 139603" d="M36.307,114.75h0a1.791,1.791,0,0,0-.573-.125c-.179,0-.161.555-.161.7a2.132,2.132,0,0,0-.161-.663c-.143-.34-.573-.179-.752-.143s-.107.7-.09,1.128c0-.43-.161-1.164-.448-1.272s-1,.716-1,.716l.233,1.791.591.878a.931.931,0,0,1-.412.233c-.519.125-.985-.484-.985-.484a.394.394,0,0,1-.251.251c.107-.716-.394-.824-.484-1.093a7.379,7.379,0,0,0-.734-1.039v-.34a.77.77,0,0,0-.287-.537.681.681,0,0,0,.233-.448c0-.233-.233-.519-.233-.7s.842-.752.842-.752l.466.7s2.149-2.472,2.776-2.06.143,1.272,0,1.558a3.278,3.278,0,0,0-.2.878,3.923,3.923,0,0,0,.5,0c.287,0,.448.143.734.376s.448.09.448.09a1.272,1.272,0,0,0-.054.358Z" transform="translate(-29.843 -55.844)" fill="#e09c63"/>
                <path id="Trazado_139604" data-name="Trazado 139604" d="M52.6,113.731a15.637,15.637,0,0,1-2.257,2.382,9.958,9.958,0,0,0-2.4,2.4c-.34.609-.3.806-1.361.931s-.949.931-1.594,1.594a20.186,20.186,0,0,1-3.869,2.508c-.878.412-1.522.412-1.791.716s-.591.86-.985.878-.716.573-1.093.824-.806.484-.734.788a2.561,2.561,0,0,1-.179,1.039,5.927,5.927,0,0,0-.269-.537c-.663-1.2-2.418-3.958-4.621-3.278a21.814,21.814,0,0,0,2.275-2.7c0-.215-.519-.967.125-1.343s1.934-.77,1.916-.949a1.78,1.78,0,0,1,.752-1.039c.5-.394,1.11-.609,1.2-.985a2.472,2.472,0,0,1,1.128-1.2c.627-.394.287-.913.752-1.075s.967-1.343,1.2-1.558,1.5-1.146,1.5-1.361,0-1.254.484-1.29.573-.967.734-1.039,1.29-.269,1.325-.5a2.74,2.74,0,0,1,.376-1.791,12.252,12.252,0,0,0,.9-2.687,96.72,96.72,0,0,1,3.958-10.138.788.788,0,0,1,.537-.34c.9-.161,1.97,1.361,2.275,1.791S52.6,113.731,52.6,113.731Z" transform="translate(-29.321 -69.672)" fill="#da3f3c"/>
                <path id="Trazado_139605" data-name="Trazado 139605" d="M50.562,113.731a15.637,15.637,0,0,1-2.257,2.382,9.958,9.958,0,0,0-2.4,2.4c-.34.609-.3.806-1.361.931s-.949.931-1.594,1.594a20.186,20.186,0,0,1-3.869,2.508c-.878.412-1.522.412-1.791.716s-.591.86-.985.878-.716.573-1.093.824-.806.484-.734.788a2.561,2.561,0,0,1-.179,1.039,5.927,5.927,0,0,0-.269-.537,5.819,5.819,0,0,0,.2-.663c.143-.7.287-1,.806-.967s.788-1.325.985-1.29a2.9,2.9,0,0,0,.967,0c.3,0,.43-.806.484-.9s0-.734-.484-.824-.555-1-.555-1a6.3,6.3,0,0,0,1.057.806c.43.233.716,1,1.075.931a13.852,13.852,0,0,0,1.379-.734,5.892,5.892,0,0,0,2.167-1.218c.376-.573,1.29-1,1.146-1.272s-.573-.484-.466-.573a6.359,6.359,0,0,1,1.236-.251c.716-.143.716,0,1.272-.376s.663-1,.448-.86-.233-.107-.716.143a4.783,4.783,0,0,1-1.236.322,7.776,7.776,0,0,0,1.236-.484,5.605,5.605,0,0,1,1.29-.484c.34,0,1.021-.734.842-1.182s.519-.645.824-1.093-1.039-.627-.985-1.057.322-1.11,0-1.666a5,5,0,0,1,0-2.364,4.554,4.554,0,0,0-1.254-1.934c-.555-.5,1.039-1,.86-5.7s1.039-7.576,1.97-8.6h0c.9-.161,1.97,1.361,2.275,1.791S50.562,113.731,50.562,113.731Z" transform="translate(-27.28 -69.672)" fill="#900000"/>
                <path id="Trazado_139606" data-name="Trazado 139606" d="M48.688,139.5a7.863,7.863,0,0,1-2.185,3.887c-1.791,1.9-3.69,3.582-3.958,4.89a11.677,11.677,0,0,0-.269,1.522,1.791,1.791,0,0,0-.161.967,2.49,2.49,0,0,0,2.812,2.078,4.71,4.71,0,0,0,3.994-2.382,13.971,13.971,0,0,1,2.615-3.869,35.819,35.819,0,0,0,4.084-2.812c.269-.412.215-.573.215-.573l-.34-3.922Z" transform="translate(-20.893 -33.815)" fill="#3b3b30"/>
                <path id="Trazado_139607" data-name="Trazado 139607" d="M51.436,141.4s-1.039,1.791-1.97,3.582-1.952,4.478-4.066,4.728-3.331-.663-3.152-1.576a5.481,5.481,0,0,1,2.221-3.582,12.753,12.753,0,0,0,3.116-3.457l.43-.77a3.887,3.887,0,0,0,3.421,1.075Z" transform="translate(-20.792 -32.992)" fill="#54544a"/>
                <path id="Trazado_139608" data-name="Trazado 139608" d="M55.75,141.11a1.164,1.164,0,0,1-.161.269,31.716,31.716,0,0,1-4.084,2.812,13.128,13.128,0,0,0-2.615,3.582,4.728,4.728,0,0,1-3.994,2.4,2.579,2.579,0,0,1-2.722-1.666,2.615,2.615,0,0,0,0,.788,2.49,2.49,0,0,0,2.812,2.078,4.71,4.71,0,0,0,3.994-2.382,13.97,13.97,0,0,1,2.615-3.869,35.827,35.827,0,0,0,4.084-2.812c.269-.412.215-.573.215-.573Z" transform="translate(-20.861 -32.375)" fill="#bdbdb9"/>
                <path id="Trazado_139609" data-name="Trazado 139609" d="M56.983,123.33c0,3.063-.179,6.663-.322,9.278h0c0,1.648-.161,2.9-.143,3.367,0,1.791-.681,6.448-.466,9.851a34.03,34.03,0,0,1-1.164,9.385,19.7,19.7,0,0,0,.5,4.12s0,.7-1.236,1.4a7.468,7.468,0,0,1-1.684.663c-2.9.842-6.054-1.791-6.054-1.791a16.119,16.119,0,0,1-.591-4.728c0-2.884-.537-11.176,0-13.111s-1.648-7.164-1.612-10.908-.788-9.152-.931-11.069a12.126,12.126,0,0,1,.358-3.206c.269-1.182.573-2.167.573-2.167a35.357,35.357,0,0,1,9.6,1.451,4.155,4.155,0,0,1,2.758,2.185,13.683,13.683,0,0,1,.394,2.812C56.947,121.628,56.965,122.452,56.983,123.33Z" transform="translate(-19.963 -53.497)" fill="#ebebeb"/>
                <path id="Trazado_139610" data-name="Trazado 139610" d="M53.036,143.238a34.03,34.03,0,0,1-1.164,9.385,19.7,19.7,0,0,0,.5,4.12s0,.7-1.236,1.4a11.823,11.823,0,0,0-.161-1.307c-.5-4.245-.663-4.424.143-7.952a48.557,48.557,0,0,0,.663-9.117c.233-3.779-1.791-5.714-3.027-8.955a56.867,56.867,0,0,1-1.666-11.051c3.045-2.06,5.23-2.418,6.806-1.451.287,5.069-.448,13.7-.394,15.117C53.574,135.053,52.821,139.764,53.036,143.238Z" transform="translate(-16.948 -50.82)" fill="#c1c5c9"/>
                <path id="Trazado_139611" data-name="Trazado 139611" d="M54.408,136.363s-.842,3.3-1.128,4.173q-1,2.041-1.791,4.173a11.211,11.211,0,0,0-.269,1.791c0,.5-.107,1.791,2.328,2.06a5.767,5.767,0,0,0,4.854-2.794,26.168,26.168,0,0,0,1.469-4.155,15.117,15.117,0,0,0,.2-4.281C59.782,135.36,54.408,136.363,54.408,136.363Z" transform="translate(-13.681 -36.333)" fill="#3b3b30"/>
                <path id="Trazado_139612" data-name="Trazado 139612" d="M58.8,138.845a14.024,14.024,0,0,1-1,3.1,5.212,5.212,0,0,1-2.346,2.74c-1.9,1.146-3.815.322-3.958-.591s.34-1.2,1.272-3.26a13.039,13.039,0,0,0,1.093-3.493,6.573,6.573,0,0,0,1.361,1.164C56.685,138.988,57.8,139.382,58.8,138.845Z" transform="translate(-13.486 -35.358)" fill="#54544a"/>
                <path id="Trazado_139613" data-name="Trazado 139613" d="M59.819,139.722A26.864,26.864,0,0,1,58.35,143.9a5.8,5.8,0,0,1-4.854,2.794c-1.791-.2-2.221-1-2.311-1.612a2.025,2.025,0,0,0,0,.466c0,.5-.107,1.791,2.328,2.06a5.767,5.767,0,0,0,4.854-2.794,26.168,26.168,0,0,0,1.469-4.155,15.063,15.063,0,0,0,.269-3.314A12.807,12.807,0,0,1,59.819,139.722Z" transform="translate(-13.718 -35.358)" fill="#bdbdb9"/>
                <path id="Trazado_139614" data-name="Trazado 139614" d="M64.88,139.507c-.107,6.34.161,12.538,0,13.612a8.615,8.615,0,0,1-.43,1.9,4.119,4.119,0,0,1-1.236,1.039,4.478,4.478,0,0,1-2.239.609,5.176,5.176,0,0,1-3.69-1.612,21.367,21.367,0,0,1-1.9-6.161c-.287-2.9.555-4.746,0-8.436a40.335,40.335,0,0,0-1.952-7.791h0a9.081,9.081,0,0,0-1.791-3.242,12.179,12.179,0,0,1-4.173-8.042,10.406,10.406,0,0,1,.143-2.543c.215-1.325,1.361-2.239,2.991-2.9,5.033-2.042,14.508-1.451,14.508-1.451a56.725,56.725,0,0,1,.609,12.2A103.961,103.961,0,0,0,64.88,139.507Z" transform="translate(-16.665 -53.501)" fill="#fff"/>
                <path id="Trazado_139615" data-name="Trazado 139615" d="M68.042,139.522c-.107,6.34.161,12.538,0,13.612a8.615,8.615,0,0,1-.43,1.9,4.119,4.119,0,0,1-1.236,1.039c.179-2.024.358-4.137.466-5.642.34-3.815-.86-13-.591-17.642s1.075-11.463,1.075-11.463-.681,2.49-5.57,2.49a25.075,25.075,0,0,1-4.908-.466,29.8,29.8,0,0,1-6.358-2.006c-1.2-.5-2.436-1.11-3.743-1.791a6.752,6.752,0,0,1-3.3-2.919c.269-1.182.573-2.167.573-2.167a35.355,35.355,0,0,1,9.6,1.451c5.033-2.042,14.508-1.451,14.508-1.451a56.724,56.724,0,0,1,.609,12.2C68.257,132.591,68.167,133.182,68.042,139.522Z" transform="translate(-19.828 -53.517)" fill="#f1f1f1"/>
                <path id="Trazado_139616" data-name="Trazado 139616" d="M70.532,136.557c-.179.287-2.149,3.582-4.066,4.37a15.045,15.045,0,0,1-8.955-.107,42.455,42.455,0,0,1-4.334-1.343,28.281,28.281,0,0,1-3.582-1.54c-4.281-2.257-5.069-4.352-5.069-4.352s0-1.415.412-1.791.2-2.024,0-3.206a30.86,30.86,0,0,1,.484-4.746c0-1.594-.609-1.63-.86-2.149a10.746,10.746,0,0,1-.43-4.424c.287-1.29-.77-2.418-.555-3.17s-.716-3.457-1.791-8.49a14.812,14.812,0,0,1,.591-7.72,6.68,6.68,0,0,0,.376-1.63c0-1.11,2.651-3.134,4.12-4.066A19.074,19.074,0,0,1,53.839,91.1a21.493,21.493,0,0,1,7.755,1.093,34.281,34.281,0,0,1,8.955,5.66s-.107,28.926-.269,29.356.358,2.275,0,3.26a7.272,7.272,0,0,0,.5,3.439,7.326,7.326,0,0,1-.251,2.651Z" transform="translate(-21.351 -71.954)" fill="#be1513"/>
                <path id="Trazado_139617" data-name="Trazado 139617" d="M63.694,118.986c0,2.4-1.791,3.815-4.782,6a26.168,26.168,0,0,0-4.925,5.821,42.462,42.462,0,0,1-4.334-1.343,28.283,28.283,0,0,1-3.582-1.54,11.7,11.7,0,0,1,1.791-2.937c1.093-1.164,1.254-3.349,1.791-4.478a27.368,27.368,0,0,0,2.525-4.46c.591-1.9,2.006-1.487,2.6-3.4a10.388,10.388,0,0,1,2.812-4.657,10.532,10.532,0,0,0,1.934-4.155C59.969,102.419,63.748,116.568,63.694,118.986Z" transform="translate(-17.755 -61.943)" fill="#900000"/>
                <path id="Trazado_139618" data-name="Trazado 139618" d="M53.077,121.614l-.448.806h0a31.827,31.827,0,0,1-2.418,3.761c-.681.645-1.791.287-3.4.161s-1.97,0-2.239-.573a2.651,2.651,0,0,1,.215-1.612v-.394h0a1.792,1.792,0,0,0-.3.125c-.179.09-.591-.161-.734-.734s0-.7.233-.913a21.314,21.314,0,0,1,1.916-1.684,24.949,24.949,0,0,0,2.239-1.522A12.053,12.053,0,0,1,51,117.96Z" transform="translate(-19.639 -50.689)" fill="#f9c48e"/>
                <path id="Trazado_139619" data-name="Trazado 139619" d="M68.974,106.092a64.962,64.962,0,0,1-1.612,12.323c-.448.7-.573,3.833-1.182,5.373l-.161.43h0a.394.394,0,0,0,0,.143c-.412,1.415-.43,2.794-1.075,3.26a74.06,74.06,0,0,0-5.373,5.481,18.662,18.662,0,0,1-3.063,2.83c-.466.322-.143.7-1,1.272h0a1.791,1.791,0,0,1-1.881,0L52.6,138.26l-2.06,2.436-1-1.093c-1-1.093-2.651-2.955-2.651-2.955a11.427,11.427,0,0,0,1.791-1.522c.591-.716.125-.215,1.021-2.078s1.791-.752,2.06-.9,1.164-2.973,1.791-3.922l.107-.161a15.1,15.1,0,0,0,2.633-3.278,4.227,4.227,0,0,1,1.021-1.522h0a1.916,1.916,0,0,0,.287-.322s.179-.913.358-1.791l.107-.466c.215-1.146.448-2.257.448-2.257h0a22.333,22.333,0,0,1,0-2.794,9.9,9.9,0,0,1,.125-1.791c.143-1.684.376-3.922.77-6.824a11.131,11.131,0,0,1,.215-1.433C61.04,95.865,65,94.844,65,94.844c1.415-.287,2.364.573,2.973,1.97a34.317,34.317,0,0,1,1,9.278Z" transform="translate(-17.106 -69.019)" fill="#da3f3c"/>
                <path id="Trazado_139620" data-name="Trazado 139620" d="M44.29,121.619a1.4,1.4,0,0,1,.949-.788c.663-.107,1.433-.161,1.433-.161s.412.34.322.716-.3.269-.251.591a4.013,4.013,0,0,1,0,.591s-.179-.573-.609-.394a.591.591,0,0,0-.412.5.788.788,0,0,1,.107-.645c.2-.358.251-.878,0-.9s-1.093-.143-1.433.43Z" transform="translate(-19.163 -48.545)" fill="#e09c63"/>
                <path id="Trazado_139621" data-name="Trazado 139621" d="M48.185,118.58s-2.49,1.254-2.83,1.487a.86.86,0,0,0-.43,1.146.878.878,0,0,0,1.361.269c.34-.3,1-.645,1.039-.287s-.412.967-.591,1.272.3,1.039.287,1.343-.322.716-.161.985.985.949,1.469,0a8.149,8.149,0,0,1,1-1.791,5.982,5.982,0,0,1,1.791-1.379S49.045,118.9,48.185,118.58Z" transform="translate(-18.724 -50.199)" fill="#ffd0a1"/>
                <path id="Trazado_139622" data-name="Trazado 139622" d="M42.9,95.777V95.67c-.537,1.4-1.057,3.385-1.11,3.224a11.212,11.212,0,0,1,1.11-3.117Z" transform="translate(-21.141 -68.322)" fill="#a8020b"/>
                <path id="Trazado_139623" data-name="Trazado 139623" d="M42.44,95.8c0-.107.09-.215.125-.3a2.184,2.184,0,0,1-.125.3Z" transform="translate(-20.627 -68.457)" fill="#a8020b"/>
                <path id="Trazado_139624" data-name="Trazado 139624" d="M52.241,97.667c-.466.43-2.687.734-2.973,0s-2.83.519-3.725,0a1.451,1.451,0,0,0-2.185.519,4.692,4.692,0,0,0-.412.806c.233-.752,0-1.433-.179-1.325a5.533,5.533,0,0,1-.806.215,6.68,6.68,0,0,0,.376-1.63c0-1.11,2.651-3.134,4.119-4.066a19.075,19.075,0,0,1,6.967-1.093A15.941,15.941,0,0,1,52.241,97.667Z" transform="translate(-21.006 -71.949)" fill="#900000"/>
                <path id="Trazado_139625" data-name="Trazado 139625" d="M58.065,94.49a10.066,10.066,0,0,0-3.439,4.388,39.135,39.135,0,0,0-1.576,9.4c0,2.6.555,8.364.555,8.364s.322-8.346.681-10.012a22.8,22.8,0,0,1,1.63-6.376c.77-1.54,3.206-5.373,3.206-5.373a14.167,14.167,0,0,0-2.973,3.582,18.273,18.273,0,0,1-1.236,1.791A18.036,18.036,0,0,1,58.065,94.49Z" transform="translate(-12.233 -69.256)" fill="#ab0000"/>
                <path id="Trazado_139626" data-name="Trazado 139626" d="M57.57,111.25Z" transform="translate(-8.657 -55.997)" fill="#a8020b"/>
                <path id="Trazado_139627" data-name="Trazado 139627" d="M50.852,122.291c.43-.537,1.343-1.791,1.4-1.791a31.826,31.826,0,0,1-2.418,3.761c-.681.645-1.791.287-3.4.161s-1.97,0-2.239-.573a2.651,2.651,0,0,1,.215-1.612c-.143.43-.287,1.093,0,1.415a2.758,2.758,0,0,0,2.275.609c1.021,0,1.2.43,1.934,0A9.367,9.367,0,0,0,50.852,122.291Z" transform="translate(-19.277 -48.68)" fill="#e09c63"/>
                <path id="Trazado_139628" data-name="Trazado 139628" d="M48.67,120.458h0v0Z" transform="translate(-15.698 -48.727)" fill="#a8020b"/>
                <path id="Trazado_139629" data-name="Trazado 139629" d="M56.588,96.237a9.331,9.331,0,0,1-2.2,3.027,12.538,12.538,0,0,1-3.278,2.275c-3.367,1.648-4.46-1.093-4.782-2.4a5.2,5.2,0,0,1-.125-.663v-.752a17.392,17.392,0,0,1,3.331-7.809c3.278-4.478,6.412-3.582,6.412-3.582A6.3,6.3,0,0,0,55.5,87.5c-.537,1.576-1.307,4.334-.878,5.373a26,26,0,0,0,1.97,3.367Z" transform="translate(-17.652 -75.767)" fill="#e2a46f"/>
                <path id="Trazado_139630" data-name="Trazado 139630" d="M56.588,95.651a9.331,9.331,0,0,1-2.2,3.027c-.663-1.2-1.648-2.7-1.648-2.7a11.642,11.642,0,0,1-4.514,2.812,2.919,2.919,0,0,1-1.9-.233,5.193,5.193,0,0,1-.125-.663v-.752a68.188,68.188,0,0,1,8.687-9.708l.627-.43c-.537,1.576-1.307,4.334-.878,5.373A26.005,26.005,0,0,0,56.588,95.651Z" transform="translate(-17.652 -75.181)" fill="#c4734e"/>
                <path id="Trazado_139631" data-name="Trazado 139631" d="M47.747,91.82s-1.791,3.17-.269,4.711,1.791,1.057,1.791,1.057L48.3,99.755a3.69,3.69,0,0,1-2.508-3.17,8.812,8.812,0,0,1,.949-4.442Z" transform="translate(-17.981 -71.368)" fill="#ffd15b"/>
                <path id="Trazado_139632" data-name="Trazado 139632" d="M55.635,91.51a12.126,12.126,0,0,1-3.582,4.46,11.875,11.875,0,0,1-4.12,1.791H47.7v2.382a8.651,8.651,0,0,0,5.911-2.382,11.785,11.785,0,0,0,3.9-5.14Z" transform="translate(-16.465 -71.613)" fill="#ffd15b"/>
                <path id="Trazado_139633" data-name="Trazado 139633" d="M56.985,93.447C56.77,94.7,54.1,97.495,52.149,99.3h0a8.293,8.293,0,0,1-5.176,1.791A2.615,2.615,0,0,1,45.182,100a12.287,12.287,0,0,1-.161-1.791.77.77,0,0,1-.3-.287.555.555,0,0,1,0-.394l-.161-.251-.43-1.791s-.716-.107-.788-.573a2.418,2.418,0,0,1,.3-1.146,18.972,18.972,0,0,1-.233-2.024,6.969,6.969,0,0,0-.09-1.308,22.3,22.3,0,0,1,0-5.982,1.4,1.4,0,0,1,.143-.412.716.716,0,0,1,.806-.179,2.149,2.149,0,0,1,.7.519c.609.609.9,1.2,1.7,1.451a31.362,31.362,0,0,0,9.9,1.433C58.2,87.5,57.236,92.175,56.985,93.447Z" transform="translate(-20.091 -77.705)" fill="#f9c48e"/>
                <path id="Trazado_139634" data-name="Trazado 139634" d="M55.262,81.85a8.221,8.221,0,0,1,2.9,4.173,11.66,11.66,0,0,1,.555,5.821,9.976,9.976,0,0,1-.949,2.74,5.767,5.767,0,0,0-.5,1.558s.609-4.657-1.254-4.263c-1.791,0-1.7,2.955-1.7,4.1a.358.358,0,0,1,0,.269.412.412,0,0,1-.161.143l-.591.322c-.9-2.167-.627-5.481-3.188-6.591a12.358,12.358,0,0,0-3.869-.752H44.712c-3.26-.412-1.791-5.051-.233-6.609a8.723,8.723,0,0,1,10.782-.913Z" transform="translate(-20.373 -80.401)" fill="#89310b"/>
                <path id="Trazado_139635" data-name="Trazado 139635" d="M49.616,87.638a2.006,2.006,0,0,1,1.361-1.093c.931-.143,1.146.9,1,1.791a13.755,13.755,0,0,1-.824,2.7c-.161.376-.43,1.075-.806.913s-.752-.322-.806-1.325A17.641,17.641,0,0,1,49.616,87.638Z" transform="translate(-15.032 -75.551)" fill="#f9c794"/>
              </g>
              <path id="Trazado_139636" data-name="Trazado 139636" d="M30.144,159.917,32.2,116.5a1.182,1.182,0,0,1,.806-1.075l2.812-.931A1.075,1.075,0,0,0,36,113.116a.788.788,0,0,0-.77-.394l-3.009,1.093a2.919,2.919,0,0,0-1.934,2.615L28.21,159.237Z" transform="translate(-10.102 -54.836)" fill="#d11f00"/>
              <path id="Trazado_139637" data-name="Trazado 139637" d="M52.525,133.807,30.549,120.66s-.931.251-.878,1a1.684,1.684,0,0,0,.878,1.182l21.977,13.326Z" transform="translate(-8.948 -48.553)" fill="#f22400"/>
              <path id="Trazado_139638" data-name="Trazado 139638" d="M52.383,138.359,30.389,125.23s-.931.233-.878.985a1.791,1.791,0,0,0,.878,1.2l21.977,13.308Z" transform="translate(-9.075 -44.938)" fill="#f22400"/>
              <path id="Trazado_139639" data-name="Trazado 139639" d="M43.176,167.706l2.06-43.416a1.2,1.2,0,0,1,.824-1.057l2.812-.949a1.057,1.057,0,0,0,.179-1.361.824.824,0,0,0-.77-.412l-3.027,1.11a2.9,2.9,0,0,0-1.916,2.6L41.26,167.025Z" transform="translate(0.222 -48.673)" fill="#d11f00"/>
              <path id="Trazado_139640" data-name="Trazado 139640" d="M44.77,120.659l1.433-.269a1.4,1.4,0,0,1,.43.86,1.988,1.988,0,0,1-.2,1.128l-1,.287S45.486,120.677,44.77,120.659Z" transform="translate(2.998 -48.767)" fill="#2e2e2e"/>
              <path id="Trazado_139641" data-name="Trazado 139641" d="M31,113.205l.627-.125a6.77,6.77,0,0,1,.3,1.254,2.221,2.221,0,0,1-.179.394l-.484-.107Z" transform="translate(-7.895 -54.549)" fill="#d11f00"/>
              <g id="Grupo_61037" data-name="Grupo 61037" transform="translate(33.825 120.651)">
                <path id="Trazado_139642" data-name="Trazado 139642" d="M42.833,148.546a4.37,4.37,0,0,1,3.833-.573,18.18,18.18,0,0,1,2.794,1.63L41.31,163.931s-1.469-.913-2.508-1.451a4.012,4.012,0,0,1-1.791-3.815,12.878,12.878,0,0,1,5.821-10.12Z" transform="translate(-36.985 -147.763)" fill="#040406"/>
                <path id="Trazado_139643" data-name="Trazado 139643" d="M49.958,152.635a12.878,12.878,0,0,1-5.839,10.084c-3.224,1.791-5.839.376-5.839-3.331a12.878,12.878,0,0,1,5.839-10.012C47.343,147.441,49.958,148.928,49.958,152.635Z" transform="translate(-35.961 -147.16)" fill="#414143"/>
                <path id="Trazado_139644" data-name="Trazado 139644" d="M49.447,152.683a11.947,11.947,0,0,1-5.373,9.349c-2.991,1.791-5.373.358-5.373-3.081a11.947,11.947,0,0,1,5.373-9.349C47.011,147.9,49.447,149.28,49.447,152.683Z" transform="translate(-35.629 -146.885)" fill="#2b2b2d"/>
                <path id="Trazado_139645" data-name="Trazado 139645" d="M47.428,152.666a8.955,8.955,0,0,1-4.048,6.967c-2.221,1.29-4.03.269-4.03-2.293a8.955,8.955,0,0,1,4.03-6.967C45.619,149.084,47.428,150.141,47.428,152.666Z" transform="translate(-35.115 -146.134)" fill="#161618"/>
                <path id="Trazado_139646" data-name="Trazado 139646" d="M46.724,152.672a7.988,7.988,0,0,1-3.582,6.251c-2.006,1.146-3.582.233-3.582-2.06a7.935,7.935,0,0,1,3.582-6.251C45.112,149.448,46.724,150.379,46.724,152.672Z" transform="translate(-34.949 -145.907)" fill="#d5d6d5"/>
                <path id="Trazado_139647" data-name="Trazado 139647" d="M46.317,152.676A7.308,7.308,0,0,1,43,158.39c-1.791,1.057-3.313.215-3.313-1.881A7.326,7.326,0,0,1,43,150.778C44.83,149.739,46.317,150.563,46.317,152.676Z" transform="translate(-34.846 -145.732)" fill="#adafae"/>
                <path id="Trazado_139648" data-name="Trazado 139648" d="M40.16,155.353a5.1,5.1,0,0,1,2.328-3.994c1.272-.734,2.311-.143,2.311,1.325a5.1,5.1,0,0,1-2.311,3.994C41.2,157.413,40.16,156.822,40.16,155.353Z" transform="translate(-34.474 -145.167)" fill="#555958"/>
                <path id="Trazado_139649" data-name="Trazado 139649" d="M42.079,158.239a7.29,7.29,0,0,0,3.314-5.732,2.239,2.239,0,0,0-1.039-2.167c.913.161,1.5.985,1.5,2.328a7.308,7.308,0,0,1-3.314,5.714,2.346,2.346,0,0,1-2.275.269,2.776,2.776,0,0,0,1.809-.412Z" transform="translate(-34.387 -145.724)" fill="#7e8180"/>
                <path id="Trazado_139650" data-name="Trazado 139650" d="M40,155.293a5.1,5.1,0,0,1,2.311-3.994c1.272-.734,2.311-.143,2.311,1.325a5.14,5.14,0,0,1-2.31,3.994C41.093,157.353,40,156.762,40,155.293Z" transform="translate(-34.601 -145.215)" fill="#8b8d8c"/>
              </g>
              <g id="Grupo_61038" data-name="Grupo 61038" transform="translate(0 102.555)">
                <path id="Trazado_139651" data-name="Trazado 139651" d="M43.784,159.1,18.1,144.266V142.26l25.684,14.83Z" transform="translate(-18.1 -134.021)" fill="#ac5922"/>
                <path id="Trazado_139652" data-name="Trazado 139652" d="M61.659,152.49l-17.875,8.239-3.493-2.024L19.246,146.562,18.1,145.9l11.8-4.746,6.072-3.493,4.836,2.794Z" transform="translate(-18.1 -137.66)" fill="#efd995"/>
                <path id="Trazado_139653" data-name="Trazado 139653" d="M32.44,156.177l17.875-8.221V145.95L32.44,154.171Z" transform="translate(-6.756 -131.102)" fill="#d9af6a"/>
              </g>
              <g id="Grupo_61043" data-name="Grupo 61043" transform="translate(1.146 81.474)">
                <g id="Grupo_61042" data-name="Grupo 61042">
                  <path id="Trazado_139654" data-name="Trazado 139654" d="M40.609,162.847l-.824-2.221L18.74,148.465l7.755-2.687,2.9-2.722,11.445-10.5-.322,9.224Z" transform="translate(-18.74 -120.613)" fill="#ae7443"/>
                  <g id="Grupo_61041" data-name="Grupo 61041" transform="translate(4.137)">
                    <path id="Trazado_139655" data-name="Trazado 139655" d="M38.782,164.857,21.05,154.63l.681-24.61,17.732,10.245Z" transform="translate(-21.05 -122.623)" fill="#b76f3f"/>
                    <path id="Trazado_139656" data-name="Trazado 139656" d="M21.731,130.02l-.681,24.61,17.732,10.227L21.569,154.343Z" transform="translate(-21.05 -122.623)" fill="#8c4320"/>
                    <path id="Trazado_139657" data-name="Trazado 139657" d="M25.21,157.083l.681-24.663,2.812,1.63-.681,24.824Z" transform="translate(-17.759 -120.724)" fill="#9c480c"/>
                    <path id="Trazado_139658" data-name="Trazado 139658" d="M39.162,143.532,21.43,133.287l17.051-7.4,17.732,10.227Z" transform="translate(-20.749 -125.89)" fill="#efd995"/>
                    <path id="Trazado_139659" data-name="Trazado 139659" d="M54.905,136.117l-15.69,6.591L21.43,133.287l17.732,10.245,17.051-7.415L38.481,125.89Z" transform="translate(-20.749 -125.89)" fill="#ffedb4"/>
                    <path id="Trazado_139660" data-name="Trazado 139660" d="M26,128.082l20.347,12.036,2.382-2.561L26.09,128.01Z" transform="translate(-17.134 -124.213)" fill="#ab774d"/>
                    <path id="Trazado_139661" data-name="Trazado 139661" d="M29.238,127.22l7.469,4.191-3.3,1.433-7.361-4.209Z" transform="translate(-17.095 -124.838)" fill="#e6e1e4"/>
                    <path id="Trazado_139662" data-name="Trazado 139662" d="M44.7,135.515l-3.116,1.773-10.37-5.964,4.442-.824Z" transform="translate(-13.013 -122.243)" fill="#e6e1e4"/>
                    <path id="Trazado_139663" data-name="Trazado 139663" d="M27.03,136.529l17.642-7.379-.036.269-17.374,7.218Z" transform="translate(-16.319 -123.311)" fill="#c39055"/>
                    <path id="Trazado_139664" data-name="Trazado 139664" d="M36.483,131.244,33.1,132.677l-2.937-1.684,3.3-1.433Z" transform="translate(-13.843 -122.987)" fill="#f9f9f9"/>
                    <path id="Trazado_139665" data-name="Trazado 139665" d="M33.886,130.36l2.937,1.684-8.561,3.528-2.812-1.63Z" transform="translate(-17.569 -122.354)" fill="#f1f1f1"/>
                    <path id="Trazado_139666" data-name="Trazado 139666" d="M40.741,129.933l-5.714,2.418L32,130.668l5.624-2.508Z" transform="translate(-12.388 -124.094)" fill="#f1f1f1"/>
                    <path id="Trazado_139667" data-name="Trazado 139667" d="M25.08,157.023l.663-24.663,2.83,1.63-.681,24.824Z" transform="translate(-17.862 -120.772)" fill="#b3a4ad"/>
                    <path id="Trazado_139668" data-name="Trazado 139668" d="M30.95,163.607,48.682,155.8V131.6l-17.051,7.415Z" transform="translate(-13.218 -121.373)" fill="#d9af6a"/>
                    <path id="Trazado_139669" data-name="Trazado 139669" d="M30.95,153.062l17.732-7.809v-.322L30.95,152.757Z" transform="translate(-13.218 -110.828)" fill="#9d6f40"/>
                    <path id="Trazado_139670" data-name="Trazado 139670" d="M38.4,157.78l1.451-24.86L36.1,134.6l-.734,24.556Z" transform="translate(-9.722 -120.329)" fill="#9c480c"/>
                    <path id="Trazado_139671" data-name="Trazado 139671" d="M38.475,157.884l1.451-25-3.761,1.684-.734,24.681Z" transform="translate(-9.674 -120.36)" fill="#d6d6d6"/>
                    <g id="Grupo_61040" data-name="Grupo 61040" transform="translate(1.164 9.69)">
                      <path id="Trazado_139672" data-name="Trazado 139672" d="M25.819,139.718,21.7,137.336V131.3l4.119,2.382Zm-3.743-2.6,3.367,1.934v-5.176l-3.367-1.952Z" transform="translate(-21.7 -131.3)" fill="#a45823"/>
                      <g id="Grupo_61039" data-name="Grupo 61039" transform="translate(0.645 2.149)">
                        <path id="Trazado_139673" data-name="Trazado 139673" d="M22.44,135.1l1.415.806v-1.666l-1.415-.806Z" transform="translate(-21.759 -131.764)" fill="#a45823"/>
                        <path id="Trazado_139674" data-name="Trazado 139674" d="M22.06,133.79l2.776,1.594L23.457,132.5Z" transform="translate(-22.06 -132.5)" fill="#a45823"/>
                      </g>
                    </g>
                  </g>
                </g>
                <path id="Trazado_139675" data-name="Trazado 139675" d="M35.78,131.65l3.475,2.2-3.367,1.469v.215l3.761-1.684Z" transform="translate(-5.26 -121.333)" fill="#f1f1f1"/>
              </g>
              <g id="Grupo_61044" data-name="Grupo 61044" transform="translate(25.863 97.755)">
                <path id="Trazado_139676" data-name="Trazado 139676" d="M32.54,141.174l4.675-2.1.09-3.958-4.585,1.845-.09.233Z" transform="translate(-32.54 -134.869)" fill="#9c480c"/>
                <path id="Trazado_139677" data-name="Trazado 139677" d="M32.73,137.165l4.675-2.1-.09-.09-4.675,2.1Z" transform="translate(-32.461 -134.98)" fill="#fefefe"/>
                <path id="Trazado_139678" data-name="Trazado 139678" d="M32.7,140.2l.072-3.958-.09-.09-.09,3.976Z" transform="translate(-32.5 -134.054)" fill="#8b8b8b"/>
                <path id="Trazado_139679" data-name="Trazado 139679" d="M32.65,141.084l4.657-2.078.09-3.976-4.675,2.1Z" transform="translate(-32.453 -134.94)" fill="#d6d6d6"/>
                <path id="Trazado_139680" data-name="Trazado 139680" d="M32.83,137.453l4.155-1.863v-.251L32.83,137.2Z" transform="translate(-32.311 -134.695)" fill="#6f6f6f"/>
                <path id="Trazado_139681" data-name="Trazado 139681" d="M33.77,137.3l2.436-1.075v-.251l-2.418,1.075Z" transform="translate(-31.567 -134.197)" fill="#8e8e8e"/>
                <path id="Trazado_139682" data-name="Trazado 139682" d="M32.81,139.265l1.254-.573.054-2.131-1.272.573Z" transform="translate(-32.326 -133.73)" fill="#8e8e8e"/>
                <path id="Trazado_139683" data-name="Trazado 139683" d="M33.77,137.613l2.436-1.093v-.251l-2.436,1.093Z" transform="translate(-31.567 -133.96)" fill="#8e8e8e"/>
                <path id="Trazado_139684" data-name="Trazado 139684" d="M33.76,137.905l2.436-1.075v-.251l-2.418,1.075Z" transform="translate(-31.575 -133.714)" fill="#8e8e8e"/>
                <path id="Trazado_139685" data-name="Trazado 139685" d="M33.76,138.223l2.418-1.093.018-.251-2.436,1.093Z" transform="translate(-31.575 -133.477)" fill="#8e8e8e"/>
              </g>
              <path id="Trazado_139686" data-name="Trazado 139686" d="M35.347,158.048l.376-10.209a2.31,2.31,0,0,1,1.469-2.1l7.988-3.152a.645.645,0,0,1,.878.627l-.322,10.639-2.042.949a15.1,15.1,0,0,0,2.257.9c.985,0,1.307.09,1.379-2.382,0-2.848.269-6.86.34-10.227a2.006,2.006,0,0,0-2.7-1.916l-7.9,2.973a4.227,4.227,0,0,0-2.74,3.833l-.394,11.3-1.182.555a14.326,14.326,0,0,0,1.5,1.075c.143,0,1.057.322,1.11-.537S35.347,158.048,35.347,158.048Z" transform="translate(-6.511 -32.423)" fill="#f22400"/>
              <path id="Trazado_139687" data-name="Trazado 139687" d="M44.745,121.182l-.555.2a2.078,2.078,0,0,1,.107-.7c.161-.519,1.11-.752,1.612.179a2.937,2.937,0,0,1,.287,2.167.716.716,0,0,1-.842.555,2.167,2.167,0,0,1-.609-.466l.77-.269a1.2,1.2,0,0,0,0-1.29.663.663,0,0,0-.77-.376Z" transform="translate(2.539 -48.896)" fill="#545454"/>
              <path id="Trazado_139688" data-name="Trazado 139688" d="M31.14,113.057l1.433-.287a1.487,1.487,0,0,1,.43.878,2.024,2.024,0,0,1-.2,1.128l-1,.287S31.874,113.074,31.14,113.057Z" transform="translate(-7.784 -54.795)" fill="#2e2e2e"/>
              <path id="Trazado_139689" data-name="Trazado 139689" d="M31.444,113.325a3.869,3.869,0,0,0,0,2.257c.412.86.967,2.418.967,2.418s.34,1.7,1.4,1.146a.86.86,0,0,0,.34-1.379,4.962,4.962,0,0,1-.645-2.131l.161-1.075s.573-.125.949-1.63a1.487,1.487,0,0,0-.591-1.791C33.719,111.068,32.161,109.976,31.444,113.325Z" transform="translate(-7.677 -56.263)" fill="#ffd0a1"/>
              <path id="Trazado_139690" data-name="Trazado 139690" d="M31.17,113.609l-.573.215a1.934,1.934,0,0,1,0-.77c.161-.5,1.11-.734,1.612.2a2.937,2.937,0,0,1,.287,2.167.681.681,0,0,1-.824.537c-.233,0-.627-.448-.627-.448l.77-.269a1.2,1.2,0,0,0,0-1.29C31.564,113.412,31.17,113.609,31.17,113.609Z" transform="translate(-8.244 -54.917)" fill="#545454"/>
            </g>
          </g>
        </g>
      </g>
    </g>
  </g>
</svg>
