<svg xmlns="http://www.w3.org/2000/svg" width="553" height="240" viewBox="0 0 553 240">
  <g id="slyder3" transform="translate(-751 -8268.264)">
    <rect id="Rectángulo_37864" data-name="Rectángulo 37864" width="553" height="240" rx="18" transform="translate(751 8268.264)" fill="#f2f6fe"/>
    <g id="otros-03" transform="translate(865.048 8296.742)">
      <path id="Trazado_144082" data-name="Trazado 144082" d="M101.289,12.056l-.768,41.959L1.3,52.151,24.446,10.63Z" transform="translate(-1.3 29.08)" fill="#b51f18"/>
      <path id="Trazado_144083" data-name="Trazado 144083" d="M89.936,11.837,89.113,53.8,1.3,52.151,24.446,10.63Z" transform="translate(-1.3 29.08)" fill="#d3a283"/>
      <path id="Trazado_144084" data-name="Trazado 144084" d="M162.5,116.982,16.82,145.668,19.288,10.85l145.075,2.633Z" transform="translate(68.305 30.067)" fill="#9d6c4e"/>
      <path id="Trazado_144085" data-name="Trazado 144085" d="M36.31,145.668,12.56,156.254l1.92-103.5,24.3-41.9Z" transform="translate(49.2 30.067)" fill="#8d5c3e"/>
      <path id="Trazado_144086" data-name="Trazado 144086" d="M63.318,114.785l-24.3,41.9L40.885,53.244l24.3-41.9Z" transform="translate(167.87 32.265)" fill="#ad7c5e"/>
      <path id="Trazado_144087" data-name="Trazado 144087" d="M125.677,12.537l-23.146,41.52L39.4,52.905,62.546,11.33Z" transform="translate(169.574 32.22)" fill="#d3a283"/>
      <path id="Trazado_144088" data-name="Trazado 144088" d="M161.547,46.94,17.24,44.307,33.695,3.39,177.947,6.078Z" transform="translate(70.189 -3.39)" fill="#d3a283"/>
      <path id="Trazado_144089" data-name="Trazado 144089" d="M40.716,42.741a4.442,4.442,0,0,0-.658-.768h0A15.961,15.961,0,0,0,36,39.121l.439-24.133a5.485,5.485,0,0,0,0-1.645,5.869,5.869,0,0,0-2.413-3.291,6.691,6.691,0,0,0-1.81-.768,4.5,4.5,0,0,0-1.207,0h-.878a6.089,6.089,0,0,0-1.426.384l-.932.11a5.814,5.814,0,0,0-2.523,3.181,5.485,5.485,0,0,0-.274,1.645l-.439,24.133A14.316,14.316,0,0,0,19.49,42.3Z" transform="translate(80.28 22.858)" fill="#b51f18"/>
      <path id="Trazado_144090" data-name="Trazado 144090" d="M24.371,13.4a7.458,7.458,0,0,1,0,1.591l-.439,24.133a12.4,12.4,0,0,1,4.059,2.852h0l.658.768h4.607a4.168,4.168,0,0,0-.6-.768h0a14.261,14.261,0,0,0-4.059-2.852l.439-24.133A5.814,5.814,0,0,0,26.4,10.053a6.691,6.691,0,0,0-1.81-.768,4.278,4.278,0,0,0-1.207,0h-.878a6.088,6.088,0,0,0-1.426.384l.713.439A5.485,5.485,0,0,1,24.371,13.4Z" transform="translate(87.411 22.856)" fill="#d53d33"/>
      <path id="Trazado_144091" data-name="Trazado 144091" d="M29.928,9.435v4.717A1.316,1.316,0,0,1,28.5,15.469H22.03a1.316,1.316,0,0,1-1.316-1.426V9.216A1.426,1.426,0,0,1,22.3,8.009h6.472a1.426,1.426,0,0,1,1.152,1.426Z" transform="translate(85.748 17.276)" fill="#9d6c4e"/>
      <path id="Trazado_144092" data-name="Trazado 144092" d="M33.15,9.886v5.485a1.536,1.536,0,0,1-.878,1.262.932.932,0,0,1-.548,0H21.248a1.371,1.371,0,0,1-.878-1.316V9.831A1.426,1.426,0,0,1,21.8,8.46h9.982A1.371,1.371,0,0,1,33.15,9.886Z" transform="translate(84.226 19.348)" fill="#c3d140"/>
      <path id="Trazado_144093" data-name="Trazado 144093" d="M33.329,12.022v5.485a1.536,1.536,0,0,1-.878,1.262,5.485,5.485,0,0,1,0,1.645V32.206H20.933V20.469a4.168,4.168,0,0,1,.274-1.645,1.481,1.481,0,0,1-.878-1.316V12.022a1.371,1.371,0,0,1,1.426-1.316h.329V9.334A1.426,1.426,0,0,1,24,8.073h6.472A1.426,1.426,0,0,1,31.848,9.5v1.1h.329A1.426,1.426,0,0,1,33.329,12.022Z" transform="translate(84.047 17.213)" fill="#4d4d4d"/>
      <path id="Trazado_144094" data-name="Trazado 144094" d="M28.667,11.967v5.485a1.371,1.371,0,0,1-.878,1.262,6.034,6.034,0,0,1,0,1.7V32.151H20.933V20.414a4.168,4.168,0,0,1,.274-1.645,1.481,1.481,0,0,1-.878-1.316V11.967a1.371,1.371,0,0,1,1.426-1.316h.329V9.334A1.426,1.426,0,0,1,24,8.073H25.87A1.371,1.371,0,0,1,27.186,9.5v1.152h.384a1.371,1.371,0,0,1,1.371,1.316Z" transform="translate(84.047 17.213)" fill="#333"/>
      <path id="Trazado_144095" data-name="Trazado 144095" d="M29.351,9.687c0,.987-1.92,1.7-4.333,1.7S20.74,10.51,20.74,9.523s1.975-1.755,4.333-1.7S29.406,8.81,29.351,9.687Z" transform="translate(85.886 16.476)" fill="#4d4d4d"/>
      <path id="Trazado_144096" data-name="Trazado 144096" d="M48.552,46.6l-.658-.768h0a14.7,14.7,0,0,0-4.059-2.852l.439-24.133a6.034,6.034,0,0,0,0-1.7,5.924,5.924,0,0,0-2.413-3.236,5.485,5.485,0,0,0-1.81-.768,4.552,4.552,0,0,0-1.207,0h-.878a4.552,4.552,0,0,0-1.481.384l-.713.384a5.485,5.485,0,0,0-2.523,3.126,4.607,4.607,0,0,0-.274,1.7l-.494,24.133a15.194,15.194,0,0,0-3.62,2.194,10.971,10.971,0,0,0-1.371,1.371Z" transform="translate(116.159 40.17)" fill="#b51f18"/>
      <path id="Trazado_144097" data-name="Trazado 144097" d="M32.117,17.271a7.294,7.294,0,0,1,0,1.536l-.439,24.133a15.961,15.961,0,0,1,4.059,2.852h0a4.717,4.717,0,0,1,.713.768h4.607l-.6-.768h0a14.7,14.7,0,0,0-4.059-2.852l.439-24.133a6.034,6.034,0,0,0,0-1.7,5.768,5.768,0,0,0-4.223-4,4.553,4.553,0,0,0-1.207,0h-.878a4.223,4.223,0,0,0-1.426.384l.713.384A6.143,6.143,0,0,1,32.117,17.271Z" transform="translate(123.38 39.991)" fill="#d53d33"/>
      <path id="Trazado_144098" data-name="Trazado 144098" d="M37.929,13.2v4.827A1.426,1.426,0,0,1,36.5,19.4H30.031a1.426,1.426,0,0,1-1.371-1.426V13.2a1.316,1.316,0,0,1,1.426-1.316h6.472A1.316,1.316,0,0,1,37.929,13.2Z" transform="translate(121.406 34.683)" fill="#9d6c4e"/>
      <path id="Trazado_144099" data-name="Trazado 144099" d="M41.065,13.756v5.485a1.371,1.371,0,0,1-.878,1.262H29.163a1.481,1.481,0,0,1-.823-1.316V13.7a1.426,1.426,0,0,1,1.426-1.371h9.928a1.426,1.426,0,0,1,1.371,1.426Z" transform="translate(119.971 36.705)" fill="#c3d140"/>
      <path id="Trazado_144100" data-name="Trazado 144100" d="M41.469,15.774v5.485a1.371,1.371,0,0,1-.878,1.262,4.552,4.552,0,0,1,0,1.7V35.959H29.073V24.221a5.485,5.485,0,0,1,0-1.645,1.481,1.481,0,0,1-.823-1.316V15.774A1.426,1.426,0,0,1,29.676,14.4h.329V13.251a1.426,1.426,0,0,1,1.426-1.371H37.9a1.371,1.371,0,0,1,1.371,1.371V14.4H39.6a1.426,1.426,0,0,1,1.371,1.426Z" transform="translate(119.567 34.687)" fill="#4d4d4d"/>
      <path id="Trazado_144101" data-name="Trazado 144101" d="M36.861,15.754v5.485a1.371,1.371,0,0,1-.878,1.262,5.485,5.485,0,0,1,0,1.645V35.939H29.073V24.2a5.485,5.485,0,0,1,0-1.645,1.481,1.481,0,0,1-.823-1.316V15.754a1.426,1.426,0,0,1,1.426-1.371h.329V13.231a1.426,1.426,0,0,1,1.426-1.371h1.81a1.426,1.426,0,0,1,1.371,1.426v1.152h.329A1.371,1.371,0,0,1,36.368,15.7Z" transform="translate(119.567 34.597)" fill="#333"/>
      <path id="Trazado_144102" data-name="Trazado 144102" d="M37.322,13.482c0,.987-1.975,1.755-4.333,1.7s-4.333-.878-4.278-1.865,1.975-1.7,4.333-1.645S37.322,12.66,37.322,13.482Z" transform="translate(121.63 33.742)" fill="#4d4d4d"/>
      <path id="Trazado_144103" data-name="Trazado 144103" d="M46.329,13.436v4.772A1.371,1.371,0,0,1,44.9,19.524H38.431A1.426,1.426,0,0,1,37.06,18.1V13.381a1.426,1.426,0,0,1,1.426-1.371h6.472a1.371,1.371,0,0,1,1.371,1.426Z" transform="translate(159.079 35.27)" fill="#9d6c4e"/>
      <path id="Trazado_144104" data-name="Trazado 144104" d="M49.42,13.772v5.485a1.371,1.371,0,0,1-.878,1.262h-.548l-9.873.165h-.548a1.426,1.426,0,0,1-.823-1.316V13.881a1.426,1.426,0,0,1,1.426-1.371H48.1A1.371,1.371,0,0,1,49.42,13.772Z" transform="translate(157.689 37.512)" fill="#c3d140"/>
      <path id="Trazado_144105" data-name="Trazado 144105" d="M49.869,15.924v5.485a1.371,1.371,0,0,1-.878,1.262,4.279,4.279,0,0,1,0,1.645V36.109H37.473V24.371a5.814,5.814,0,0,1,0-1.7,1.426,1.426,0,0,1-.823-1.316V15.869A1.426,1.426,0,0,1,38.076,14.5h.329V13.4a1.426,1.426,0,0,1,1.426-1.371H46.3a1.426,1.426,0,0,1,1.371,1.426v1.152H48a1.371,1.371,0,0,1,1.371,1.371Z" transform="translate(157.24 35.359)" fill="#4d4d4d"/>
      <path id="Trazado_144106" data-name="Trazado 144106" d="M45.531,15.735V21.22A1.426,1.426,0,0,1,44.324,22.7a6.034,6.034,0,0,1,0,1.7V36.139H37.413V24.4a5.815,5.815,0,0,1,0-1.7,1.426,1.426,0,0,1-.823-1.316V15.9a1.426,1.426,0,0,1,1.426-1.371h.329v-1.1a1.426,1.426,0,0,1,1.426-1.371h1.81a1.371,1.371,0,0,1,1.371,1.371h0v1.152h1.371A1.371,1.371,0,0,1,45.75,15.9Z" transform="translate(156.971 35.494)" fill="#333"/>
      <path id="Trazado_144107" data-name="Trazado 144107" d="M45.722,13.707c0,.987-1.975,1.7-4.333,1.7s-4.333-.878-4.278-1.865,1.975-1.755,4.333-1.7S45.722,12.72,45.722,13.707Z" transform="translate(159.303 34.505)" fill="#4d4d4d"/>
      <path id="Trazado_144108" data-name="Trazado 144108" d="M138.655,35.942,17.22,34.9l.494-19.91,131.911,2.468Z" transform="translate(70.099 48.635)" fill="#bd8c6d"/>
      <path id="Trazado_144109" data-name="Trazado 144109" d="M45.4,114.455l-24.3,41.9,1.865-103.5L47.318,11.01Z" transform="translate(87.501 30.785)" fill="#ad7c5e"/>
      <path id="Trazado_144110" data-name="Trazado 144110" d="M54.643,114.625l-24.353,41.9L32.21,53.084l24.3-41.9Z" transform="translate(128.717 31.547)" fill="#ad7c5e"/>
      <path id="Trazado_144111" data-name="Trazado 144111" d="M29.238,36.767l.274-15.8a5.485,5.485,0,0,0-2.633-4.936,6.692,6.692,0,0,0-1.81-.768H23.863a.329.329,0,0,0-.329,0h-.548a4.333,4.333,0,0,0-1.426.439,3.236,3.236,0,0,0-.768.329,5.485,5.485,0,0,0-2.8,4.882L17.72,36.657Z" transform="translate(72.342 49.675)" fill="#b51f18"/>
      <path id="Trazado_144112" data-name="Trazado 144112" d="M16.13,36.33a9.928,9.928,0,0,0,8.447,4.936h8.392a10.092,10.092,0,0,0,8.611-4.607Z" transform="translate(65.211 144.342)" fill="#b51f18"/>
      <path id="Trazado_144113" data-name="Trazado 144113" d="M21.467,19.533a4.936,4.936,0,0,1,0,1.536V36.7h4.662L26.4,20.959a5.485,5.485,0,0,0-2.633-4.936,4.443,4.443,0,0,0-1.81-.768,4.278,4.278,0,0,0-1.207,0h-.878a4.223,4.223,0,0,0-1.426.384l.713.384A5.485,5.485,0,0,1,21.467,19.533Z" transform="translate(75.616 49.631)" fill="#d53d33"/>
      <path id="Trazado_144114" data-name="Trazado 144114" d="M26.961,36.4a9.928,9.928,0,0,1-8.611,4.662h4.662a10.092,10.092,0,0,0,8.611-4.607Z" transform="translate(75.167 144.656)" fill="#d53d33"/>
      <path id="Trazado_144115" data-name="Trazado 144115" d="M27.235,15.426v4.717a1.371,1.371,0,0,1-1.371,1.371H19.391a1.426,1.426,0,0,1-1.371-1.426V15.371A1.426,1.426,0,0,1,19.446,14h6.417A1.426,1.426,0,0,1,27.235,15.426Z" transform="translate(73.687 44.195)" fill="#9d6c4e"/>
      <path id="Trazado_144116" data-name="Trazado 144116" d="M30.4,15.852v5.485a1.371,1.371,0,0,1-.878,1.262H18.5a1.536,1.536,0,0,1-.823-1.316V15.8a1.371,1.371,0,0,1,1.426-1.316h9.928A1.426,1.426,0,0,1,30.4,15.907Z" transform="translate(72.162 46.346)" fill="#c3d140"/>
      <path id="Trazado_144117" data-name="Trazado 144117" d="M30.584,17.914V23.4a1.371,1.371,0,0,1-.878,1.262,6.033,6.033,0,0,1,0,1.7V38.1H18.189V26.361a5.814,5.814,0,0,1,.274-1.7,1.426,1.426,0,0,1-.823-1.316V17.859a1.426,1.426,0,0,1,1.426-1.371h.548v-1.1a1.426,1.426,0,0,1,1.426-1.371h6.472a1.371,1.371,0,0,1,1.316,1.426V16.6h.384a1.371,1.371,0,0,1,1.371,1.371Z" transform="translate(71.983 44.284)" fill="#4d4d4d"/>
      <path id="Trazado_144118" data-name="Trazado 144118" d="M26.032,17.626v5.485A1.426,1.426,0,0,1,25.1,24.7a5.814,5.814,0,0,1,0,1.7V38.14H18.188V26.347a5.485,5.485,0,0,1,.274-1.645,1.481,1.481,0,0,1-.823-1.316V17.9a1.426,1.426,0,0,1,1.426-1.371h.548V15.377a1.371,1.371,0,0,1,1.426-1.316h1.81a1.426,1.426,0,0,1,1.371,1.426v1.1h.384a1.426,1.426,0,0,1,1.371,1.426Z" transform="translate(71.983 44.463)" fill="#333"/>
      <path id="Trazado_144119" data-name="Trazado 144119" d="M26.672,15.642c0,.987-1.975,1.755-4.333,1.7s-4.333-.878-4.278-1.865,1.92-1.7,4.333-1.645S26.672,14.765,26.672,15.642Z" transform="translate(73.866 43.43)" fill="#4d4d4d"/>
      <rect id="Rectángulo_37870" data-name="Rectángulo 37870" width="18.703" height="29.015" transform="translate(128.361 83.197) rotate(-88.94)" fill="#bd8c6d"/>
      <rect id="Rectángulo_37871" data-name="Rectángulo 37871" width="18.539" height="18.923" transform="translate(178.392 84.19) rotate(-88.94)" fill="#bd8c6d"/>
      <path id="Trazado_144120" data-name="Trazado 144120" d="M32.85,36.64A9.982,9.982,0,0,0,41.3,41.576h8.392A10.037,10.037,0,0,0,58.3,36.914Z" transform="translate(140.198 145.732)" fill="#b51f18"/>
      <path id="Trazado_144121" data-name="Trazado 144121" d="M45.779,37.021l.274-15.742a5.814,5.814,0,0,0,0-1.7,5.485,5.485,0,0,0-2.413-3.236,4.443,4.443,0,0,0-1.81-.768,4.278,4.278,0,0,0-1.207,0h-1.1a6.143,6.143,0,0,0-1.426.439l-.768.384a5.485,5.485,0,0,0-2.523,3.126,5.814,5.814,0,0,0,0,1.7L34.48,36.966Z" transform="translate(147.508 51.066)" fill="#b51f18"/>
      <path id="Trazado_144122" data-name="Trazado 144122" d="M43.691,36.71a9.928,9.928,0,0,1-8.611,4.662h4.607a10.092,10.092,0,0,0,8.666-4.607Z" transform="translate(150.199 146.046)" fill="#d53d33"/>
      <path id="Trazado_144123" data-name="Trazado 144123" d="M38.266,19.624a5.487,5.487,0,0,1,0,1.591v15.8h4.607l.274-15.742a5.815,5.815,0,0,0,0-1.7,5.485,5.485,0,0,0-2.413-3.236,4.443,4.443,0,0,0-1.81-.768,4.278,4.278,0,0,0-1.207,0H36.566A6.143,6.143,0,0,0,35.14,16l.713.384A5.485,5.485,0,0,1,38.266,19.624Z" transform="translate(150.468 51.021)" fill="#d53d33"/>
      <path id="Trazado_144124" data-name="Trazado 144124" d="M44,15.695v4.717a1.426,1.426,0,0,1-1.426,1.371H36.1a1.371,1.371,0,0,1-1.371-1.371V15.64a1.316,1.316,0,0,1,1.426-1.316h6.472A1.316,1.316,0,0,1,44,15.695Z" transform="translate(148.629 45.626)" fill="#9d6c4e"/>
      <path id="Trazado_144125" data-name="Trazado 144125" d="M47.135,16.08v5.485a1.371,1.371,0,0,1-.878,1.262H35.781a.987.987,0,0,1-.548,0,1.371,1.371,0,0,1-.823-1.262V16.08a1.316,1.316,0,0,1,1.426-1.316h9.928a1.426,1.426,0,0,1,1.371,1.316Z" transform="translate(147.194 47.599)" fill="#c3d140"/>
      <path id="Trazado_144126" data-name="Trazado 144126" d="M47.539,18.139v5.485a1.371,1.371,0,0,1-.878,1.262,5.814,5.814,0,0,1,0,1.7V38.324H35.143V26.586a6.144,6.144,0,0,1,0-1.7,1.371,1.371,0,0,1-.823-1.262V18.139a1.316,1.316,0,0,1,1.426-1.316h.329V15.671A1.426,1.426,0,0,1,37.5,14.3h6.472a1.371,1.371,0,0,1,1.316,1.426v1.152h.384a1.371,1.371,0,0,1,1.371,1.371Z" transform="translate(146.791 45.54)" fill="#4d4d4d"/>
      <path id="Trazado_144127" data-name="Trazado 144127" d="M42.931,18.095v5.485a1.481,1.481,0,0,1-.878,1.316,5.484,5.484,0,0,1,0,1.645V38.334H35.143V26.6a6.144,6.144,0,0,1,0-1.7,1.371,1.371,0,0,1-.823-1.262V18.149a1.316,1.316,0,0,1,1.426-1.316h.329V15.681A1.426,1.426,0,0,1,37.5,14.31h1.81a1.426,1.426,0,0,1,1.371,1.426v1.152h.329a1.371,1.371,0,0,1,1.426,1.262Z" transform="translate(146.791 45.585)" fill="#333"/>
      <path id="Trazado_144128" data-name="Trazado 144128" d="M43.392,16c0,.987-1.975,1.7-4.333,1.7s-4.333-.878-4.278-1.865,1.975-1.755,4.333-1.7S43.392,15.01,43.392,16Z" transform="translate(148.853 44.775)" fill="#4d4d4d"/>
      <path id="Trazado_144129" data-name="Trazado 144129" d="M37.518,36.914l.329-15.8a5.485,5.485,0,0,0,0-1.645,5.869,5.869,0,0,0-2.413-3.291,5.485,5.485,0,0,0-1.81-.768,4.552,4.552,0,0,0-1.207,0h-.932a6.856,6.856,0,0,0-1.426.384l-.713.384a5.485,5.485,0,0,0-2.523,3.181,4.333,4.333,0,0,0-.274,1.645L26,36.694Z" transform="translate(109.476 50.351)" fill="#b51f18"/>
      <path id="Trazado_144130" data-name="Trazado 144130" d="M24.42,36.48a9.982,9.982,0,0,0,8.447,4.991H41.2a9.928,9.928,0,0,0,8.611-4.662Z" transform="translate(102.39 145.014)" fill="#b51f18"/>
      <path id="Trazado_144131" data-name="Trazado 144131" d="M29.7,19.561a5.046,5.046,0,0,1,0,1.591V36.894h4.607l.329-15.8a5.485,5.485,0,0,0,0-1.645,5.869,5.869,0,0,0-2.413-3.291,5.485,5.485,0,0,0-1.81-.768,4.552,4.552,0,0,0-1.207,0H28.166a6.856,6.856,0,0,0-1.426.384l.713.439A5.814,5.814,0,0,1,29.7,19.561Z" transform="translate(112.795 50.261)" fill="#d53d33"/>
      <path id="Trazado_144132" data-name="Trazado 144132" d="M35.251,36.55a10.037,10.037,0,0,1-8.611,4.662h4.607a9.928,9.928,0,0,0,8.611-4.662Z" transform="translate(112.347 145.328)" fill="#d53d33"/>
      <path id="Trazado_144133" data-name="Trazado 144133" d="M35.535,15.576v4.717a1.426,1.426,0,0,1-1.426,1.371H27.636a1.426,1.426,0,0,1-1.316-1.426V15.521a1.426,1.426,0,0,1,1.426-1.371h6.472a1.426,1.426,0,0,1,1.316,1.426Z" transform="translate(110.912 44.867)" fill="#9d6c4e"/>
      <path id="Trazado_144134" data-name="Trazado 144134" d="M38.929,16.016V21.5a1.536,1.536,0,0,1-.878,1.316H26.808A1.426,1.426,0,0,1,25.93,21.5V16.016a1.426,1.426,0,0,1,1.426-1.371h9.982a1.371,1.371,0,0,1,1.591,1.371Z" transform="translate(109.163 47.006)" fill="#c3d140"/>
      <path id="Trazado_144135" data-name="Trazado 144135" d="M38.929,17.975v5.485a1.536,1.536,0,0,1-.878,1.316,5.485,5.485,0,0,1,0,1.645V38.214H26.533V26.476a4.443,4.443,0,0,1,.274-1.7,1.371,1.371,0,0,1-.878-1.262V18.029a1.371,1.371,0,0,1,1.426-1.316h.384V15.561a1.426,1.426,0,0,1,1.426-1.371h6.417a1.426,1.426,0,0,1,1.371,1.426v1.1h.329a1.426,1.426,0,0,1,1.645,1.262Z" transform="translate(109.163 45.047)" fill="#4d4d4d"/>
      <path id="Trazado_144136" data-name="Trazado 144136" d="M34.267,18.009v5.485a1.371,1.371,0,0,1-.878,1.262,5.814,5.814,0,0,1,0,1.7V38.194H26.533V26.456a4.442,4.442,0,0,1,.274-1.7,1.371,1.371,0,0,1-.878-1.262V18.009a1.371,1.371,0,0,1,1.426-1.316h.384V15.541a1.426,1.426,0,0,1,1.426-1.371h1.81A1.316,1.316,0,0,1,32.292,15.6v1.152h.384a1.316,1.316,0,0,1,1.371,1.316Z" transform="translate(109.163 44.957)" fill="#333"/>
      <path id="Trazado_144137" data-name="Trazado 144137" d="M34.951,15.847c0,.932-1.92,1.7-4.333,1.645s-4.278-.878-4.278-1.81,1.975-1.755,4.333-1.7S35.006,14.86,34.951,15.847Z" transform="translate(111.001 44.103)" fill="#4d4d4d"/>
      <rect id="Rectángulo_37872" data-name="Rectángulo 37872" width="103.5" height="145.075" transform="translate(61.778 186.317) rotate(-88.94)" fill="#bd8c6d"/>
      <path id="Trazado_144138" data-name="Trazado 144138" d="M154.212,61.9,9.96,59.212,26.415,18.35l144.252,2.633Z" transform="translate(37.539 63.704)" fill="#d3a283"/>
    </g>
  </g>
</svg>
