<svg xmlns="http://www.w3.org/2000/svg" width="553" height="240" viewBox="0 0 553 240">
  <g id="slyder1" transform="translate(-751 -7729)">
    <rect id="Rectángulo_37862" data-name="Rectángulo 37862" width="553" height="240" rx="18" transform="translate(751 7729)" fill="#f2f6fe"/>
    <g id="otros-01" transform="translate(934.597 7750.635)">
      <path id="Trazado_144010" data-name="Trazado 144010" d="M87.867,150.414,1.48,100.556V10.44L87.867,60.3Z" transform="translate(-1.48 39.472)" fill="#b76f3f"/>
      <path id="Trazado_144011" data-name="Trazado 144011" d="M1.48,10.44v90.116l86.387,49.857L4,99.13Z" transform="translate(-1.48 39.472)" fill="#8c4320"/>
      <path id="Trazado_144012" data-name="Trazado 144012" d="M8.1,104.651V14.26l13.712,7.9v91.159Z" transform="translate(28.21 56.605)" fill="#9c480c"/>
      <path id="Trazado_144013" data-name="Trazado 144013" d="M87.867,101.11,1.48,51.252,87.867,1.34,174.2,51.252Z" transform="translate(-1.48 -1.34)" fill="#efd995"/>
      <path id="Trazado_144014" data-name="Trazado 144014" d="M167.836,51.252,88.086,97.106,1.48,51.252,87.867,101.11,174.2,51.252,87.867,1.34Z" transform="translate(-1.48 -1.34)" fill="#ffedb4"/>
      <path id="Trazado_144015" data-name="Trazado 144015" d="M8.51,6.744,108.664,64.28l15.193-8.666L8.894,6.36Z" transform="translate(30.049 21.174)" fill="#ab774d"/>
      <path id="Trazado_144016" data-name="Trazado 144016" d="M22.292,4.91,58.108,24.93,43.9,33.1,8.58,12.863Z" transform="translate(30.363 14.671)" fill="#e6e1e4"/>
      <path id="Trazado_144017" data-name="Trazado 144017" d="M83.294,38.591,68.1,47.2,17.64,18.242,32.23,10.07Z" transform="translate(70.996 37.813)" fill="#e6e1e4"/>
      <path id="Trazado_144018" data-name="Trazado 144018" d="M10.38,56.278,99.674,6.53l-.219,1.316L11.587,56.826Z" transform="translate(38.435 21.936)" fill="#c39055"/>
      <path id="Trazado_144019" data-name="Trazado 144019" d="M43.98,16.842,29.39,25.015,15.02,16.732,29.226,8.56Z" transform="translate(59.245 31.041)" fill="#f9f9f9"/>
      <path id="Trazado_144020" data-name="Trazado 144020" d="M47.042,10.05l14.37,8.282L21.592,40.491,7.88,32.538Z" transform="translate(27.223 37.723)" fill="#f1f1f1"/>
      <path id="Trazado_144021" data-name="Trazado 144021" d="M67.248,13.571,32.364,32.988,17.61,24.706,52.055,4.96Z" transform="translate(70.861 14.895)" fill="#f1f1f1"/>
      <path id="Trazado_144022" data-name="Trazado 144022" d="M7.88,104.6V14.15L21.592,22.1v91.213Z" transform="translate(27.223 56.111)" fill="#b3a4ad"/>
      <path id="Trazado_144023" data-name="Trazado 144023" d="M17.23,150.414l86.332-49.857V10.44L17.23,60.3Z" transform="translate(69.157 39.472)" fill="#d9af6a"/>
      <path id="Trazado_144024" data-name="Trazado 144024" d="M17.23,78.028l86.332-49.857V26.58L17.23,76.492Z" transform="translate(69.157 111.858)" fill="#9d6f40"/>
      <path id="Trazado_144025" data-name="Trazado 144025" d="M18.16,60.864,42.732,46.658V26.09L18.6,38.979,18.16,40.3Z" transform="translate(73.328 109.661)" fill="#9c480c"/>
      <path id="Trazado_144026" data-name="Trazado 144026" d="M39.059,104.026V13.91L24.25,22.466v90.062Z" transform="translate(100.641 55.035)" fill="#9c480c"/>
      <path id="Trazado_144027" data-name="Trazado 144027" d="M39.114,104.625V13.85l-14.754,8.5v90.775Z" transform="translate(101.134 54.766)" fill="#d6d6d6"/>
      <path id="Trazado_144028" data-name="Trazado 144028" d="M22.635,53.227,2.56,41.6V12.09L22.635,23.663ZM4.425,40.556,20.88,49.99V24.76L4.425,15.271Z" transform="translate(3.364 46.872)" fill="#a45823"/>
      <path id="Trazado_144029" data-name="Trazado 144029" d="M3.69,23.6l6.856,3.949V19.429L3.69,15.48Z" transform="translate(8.432 62.076)" fill="#a45823"/>
      <path id="Trazado_144030" data-name="Trazado 144030" d="M3.09,20.352l13.438,7.789L9.836,13.99Z" transform="translate(5.741 55.394)" fill="#a45823"/>
      <path id="Trazado_144031" data-name="Trazado 144031" d="M18.788,40.44,43.361,26.234l-.494-.384L18.24,40.056Z" transform="translate(73.687 108.584)" fill="#fefefe"/>
      <path id="Trazado_144032" data-name="Trazado 144032" d="M18.788,49.392V28.824l-.548-.384V49.008Z" transform="translate(73.687 120.2)" fill="#8b8b8b"/>
      <path id="Trazado_144033" data-name="Trazado 144033" d="M18.34,60.694,42.912,46.488V25.92L18.34,40.126Z" transform="translate(74.135 108.898)" fill="#d6d6d6"/>
      <path id="Trazado_144034" data-name="Trazado 144034" d="M18.59,40.412,40.42,27.8V26.48L18.59,39.15Z" transform="translate(75.256 111.41)" fill="#6f6f6f"/>
      <path id="Trazado_144035" data-name="Trazado 144035" d="M20.23,36.206l12.835-7.4V27.54L20.23,34.89Z" transform="translate(82.612 116.164)" fill="#8e8e8e"/>
      <path id="Trazado_144036" data-name="Trazado 144036" d="M18.6,43.839,25.292,40V28.92L18.6,32.814Z" transform="translate(75.301 122.353)" fill="#8e8e8e"/>
      <path id="Trazado_144037" data-name="Trazado 144037" d="M20.23,36.771l12.835-7.4V28.05l-12.835,7.4Z" transform="translate(82.612 118.451)" fill="#8e8e8e"/>
      <path id="Trazado_144038" data-name="Trazado 144038" d="M20.23,37.236l12.835-7.4V28.57L20.23,35.92Z" transform="translate(82.612 120.783)" fill="#8e8e8e"/>
      <path id="Trazado_144039" data-name="Trazado 144039" d="M20.23,37.8l12.835-7.4V29.08l-12.835,7.4Z" transform="translate(82.612 123.07)" fill="#8e8e8e"/>
      <path id="Trazado_144040" data-name="Trazado 144040" d="M27.377,12.64l9.873,6.637L24.36,26.736v1.042l14.754-8.5Z" transform="translate(101.134 49.339)" fill="#f1f1f1"/>
    </g>
  </g>
</svg>
