<svg xmlns="http://www.w3.org/2000/svg" width="553" height="240" viewBox="0 0 553 240">
  <g id="slyder2" transform="translate(-751 -7998.632)">
    <rect id="Rectángulo_37863" data-name="Rectángulo 37863" width="553" height="240" rx="18" transform="translate(751 7998.632)" fill="#f2f6fe"/>
    <g id="otros-02" transform="translate(902.592 8013.478)">
      <g id="Layer_1" data-name="Layer 1" transform="translate(0 0)">
        <path id="Trazado_144041" data-name="Trazado 144041" d="M34.931,57.853l86.222-49.8L2.79,63.5l.878,1.481Z" transform="translate(-2.79 29.302)" fill="#9c480c"/>
        <path id="Trazado_144042" data-name="Trazado 144042" d="M110.592,57.858,24.37,8.11,142.734,63.233v1.975Z" transform="translate(93.994 29.571)" fill="#d9af6a"/>
        <path id="Trazado_144043" data-name="Trazado 144043" d="M94.828,156.52,8.66,106.772V16.82L94.828,66.568Z" transform="translate(23.536 68.634)" fill="#b76f3f"/>
        <path id="Trazado_144044" data-name="Trazado 144044" d="M8.66,16.82v89.952L94.828,156.52l-83.7-51.174Z" transform="translate(23.536 68.634)" fill="#a45823"/>
        <path id="Trazado_144045" data-name="Trazado 144045" d="M15.26,110.856V20.63l13.657,7.9v90.994Z" transform="translate(53.136 85.722)" fill="#9c480c"/>
        <path id="Trazado_144046" data-name="Trazado 144046" d="M15.05,110.756V20.53l13.657,7.9v90.994Z" transform="translate(52.195 85.273)" fill="#b3a4ad"/>
        <path id="Trazado_144047" data-name="Trazado 144047" d="M24.37,156.52l86.222-49.748V16.82L24.37,66.568Z" transform="translate(93.994 68.634)" fill="#d9af6a"/>
        <path id="Trazado_144048" data-name="Trazado 144048" d="M24.37,84.224l86.222-49.748V32.94L24.37,82.688Z" transform="translate(93.994 140.93)" fill="#b58847"/>
        <path id="Trazado_144049" data-name="Trazado 144049" d="M25.3,67.5,49.872,53.353V32.84L25.794,45.729,25.3,46.991Z" transform="translate(98.165 140.482)" fill="#9c480c"/>
        <path id="Trazado_144050" data-name="Trazado 144050" d="M46.144,110.187V20.29l-14.754,8.5v89.9Z" transform="translate(125.478 84.197)" fill="#9c480c"/>
        <path id="Trazado_144051" data-name="Trazado 144051" d="M46.244,110.785V20.23l-14.754,8.5v90.555Z" transform="translate(125.926 83.928)" fill="#d6d6d6"/>
        <path id="Trazado_144052" data-name="Trazado 144052" d="M29.76,59.771,9.74,47.924V18.47L29.76,30.043ZM11.55,47.156,28,56.59V31.359L11.55,21.925Z" transform="translate(28.38 76.034)" fill="#8c4320"/>
        <path id="Trazado_144053" data-name="Trazado 144053" d="M10.87,29.923l6.8,3.949V25.754l-6.8-3.894Z" transform="translate(33.448 91.238)" fill="#8c4320"/>
        <path id="Trazado_144054" data-name="Trazado 144054" d="M10.26,26.678,23.7,34.466l-6.692-14.1Z" transform="translate(30.712 84.556)" fill="#8c4320"/>
        <path id="Trazado_144055" data-name="Trazado 144055" d="M25.884,47.19,50.4,32.984l-.494-.384L25.39,46.806Z" transform="translate(98.568 139.406)" fill="#fefefe"/>
        <path id="Trazado_144056" data-name="Trazado 144056" d="M25.884,56.087V35.574l-.494-.384V55.7Z" transform="translate(98.568 151.021)" fill="#8b8b8b"/>
        <path id="Trazado_144057" data-name="Trazado 144057" d="M25.48,67.389,50,53.183V32.67L25.48,46.876Z" transform="translate(98.972 139.72)" fill="#d6d6d6"/>
        <path id="Trazado_144058" data-name="Trazado 144058" d="M25.73,47.162,47.5,34.546V33.23L25.73,45.845Z" transform="translate(100.093 142.231)" fill="#6f6f6f"/>
        <path id="Trazado_144059" data-name="Trazado 144059" d="M27.37,42.946,40.15,35.6V34.28l-12.78,7.4Z" transform="translate(107.448 146.94)" fill="#8e8e8e"/>
        <path id="Trazado_144060" data-name="Trazado 144060" d="M25.74,50.534l6.692-3.839V35.67L25.74,39.509Z" transform="translate(100.138 153.174)" fill="#8e8e8e"/>
        <path id="Trazado_144061" data-name="Trazado 144061" d="M27.37,43.466l12.78-7.4V34.8L27.37,42.15Z" transform="translate(107.448 149.272)" fill="#8e8e8e"/>
        <path id="Trazado_144062" data-name="Trazado 144062" d="M27.37,43.976l12.78-7.35V35.31l-12.78,7.4Z" transform="translate(107.448 151.56)" fill="#8e8e8e"/>
        <path id="Trazado_144063" data-name="Trazado 144063" d="M27.37,44.5l12.78-7.4V35.83L27.37,43.18Z" transform="translate(107.448 153.892)" fill="#8e8e8e"/>
        <path id="Trazado_144064" data-name="Trazado 144064" d="M34.931,57.543l86.222-49.8-32.141,7.4L2.79,64.892Z" transform="translate(-2.79 27.912)" fill="#d9af6a"/>
        <path id="Trazado_144065" data-name="Trazado 144065" d="M110.592,57.543,24.37,7.74l32.2,7.4,86.167,49.748Z" transform="translate(93.994 27.912)" fill="#e8c583"/>
        <path id="Trazado_144066" data-name="Trazado 144066" d="M94.872,107.29,8.65,57.543,94.872,7.74l86.222,49.8Z" transform="translate(23.491 27.912)" fill="#efd995"/>
        <path id="Trazado_144067" data-name="Trazado 144067" d="M167.735,54.044,94.841,96.113l-5.979,3.455-5.924-3.455L9.99,54.044,88.863,8.52Z" transform="translate(29.501 31.41)" fill="#9f5939"/>
        <path id="Trazado_144068" data-name="Trazado 144068" d="M91.84,75.2,5.618,25.45l-.768-1.7L111.915,35.488V38.34Z" transform="translate(6.449 99.715)" fill="#d9af6a"/>
        <path id="Trazado_144069" data-name="Trazado 144069" d="M91.072,104.578,4.85,54.83,25.693,16.82l86.222,49.748Z" transform="translate(6.449 68.634)" fill="#e5bc71"/>
        <path id="Trazado_144070" data-name="Trazado 144070" d="M110.592,35.406,40.825,74.787,24.37,44.346V33.541l86.222-8.721Z" transform="translate(93.994 104.513)" fill="#d69985"/>
        <path id="Trazado_144071" data-name="Trazado 144071" d="M44.28,74.54l86.222-49.8.987-.987L24.37,35.488V38.34Z" transform="translate(93.994 99.715)" fill="#b76f3f"/>
        <path id="Trazado_144072" data-name="Trazado 144072" d="M45.267,104.578,131.49,54.83l-20.9-38.01L24.37,66.568Z" transform="translate(93.994 68.634)" fill="#fde697"/>
        <path id="Trazado_144073" data-name="Trazado 144073" d="M91.072,73.5,4.85,23.75l.768,1.7L91.84,75.2Z" transform="translate(6.449 99.715)" fill="#9c480c"/>
        <path id="Trazado_144074" data-name="Trazado 144074" d="M88.818,8.52V99.569L10,54.044Z" transform="translate(29.546 31.41)" fill="#d19f66"/>
        <path id="Trazado_144075" data-name="Trazado 144075" d="M14.18,57.855V31.308L50,10.63V67.782l-9.544,5.211Z" transform="translate(48.293 40.873)" fill="#b59fa6"/>
        <path id="Trazado_144076" data-name="Trazado 144076" d="M35.192,27.271l-5.979,3.455L23.29,27.271l5.924-3.4Z" transform="translate(89.15 100.253)" fill="#b76f3f"/>
        <path id="Trazado_144077" data-name="Trazado 144077" d="M127.461,16.82,48.588,29.051,18.97,45.232,48.588,62.344Z" transform="translate(69.775 68.634)" fill="#b59fa6"/>
        <path id="Trazado_144078" data-name="Trazado 144078" d="M66.393,102.58,15,72.907V6.65L66.393,36.323Z" transform="translate(51.97 23.023)" fill="#c2c2c2"/>
        <path id="Trazado_144079" data-name="Trazado 144079" d="M66.393,60.586,15,30.913,66.393,1.24l51.393,29.673Z" transform="translate(51.97 -1.24)" fill="#fafafa"/>
        <path id="Trazado_144080" data-name="Trazado 144080" d="M24.37,102.58,75.763,72.907V6.65L24.37,36.323Z" transform="translate(93.994 23.023)" fill="#e4e4e4"/>
        <path id="Trazado_144081" data-name="Trazado 144081" d="M38.981,29.155,35.69,26.8,8.65,31.239,43.479,11.11V26.577Z" transform="translate(23.491 43.026)" fill="#b59fa6"/>
      </g>
    </g>
  </g>
</svg>
