<svg xmlns="http://www.w3.org/2000/svg" xmlns:xlink="http://www.w3.org/1999/xlink" width="500" height="336.228" viewBox="0 0 500 336.228">
  <defs>
    <linearGradient id="linear-gradient" x1="1.528" y1="0.185" x2="-0.267" y2="0.753" gradientUnits="objectBoundingBox">
      <stop offset="0" stop-color="#4042e2"/>
      <stop offset="1" stop-color="#4f52ff"/>
    </linearGradient>
    <linearGradient id="linear-gradient-2" x1="1.366" y1="0.444" x2="0.887" y2="0.475" xlink:href="#linear-gradient"/>
    <linearGradient id="linear-gradient-3" x1="-0.114" y1="0.642" x2="1.628" y2="0.213" xlink:href="#linear-gradient"/>
    <clipPath id="clip-path">
      <path id="Trazado_136962" data-name="Trazado 136962" d="M657.865,338.817,528.34,326.18,398.6,338.09,396.21,615.23,525.9,609.487l129.561,8.725L785.021,607.72l2.364-274.226Z" transform="translate(-396.21 -326.18)" fill="none"/>
    </clipPath>
    <linearGradient id="linear-gradient-4" x1="1.01" y1="0.747" x2="0.203" y2="1.339" gradientUnits="objectBoundingBox">
      <stop offset="0" stop-color="#fe7062"/>
      <stop offset="1" stop-color="#ff928e"/>
    </linearGradient>
    <linearGradient id="linear-gradient-5" x1="0.758" y1="0.132" x2="-0.779" y2="2.327" xlink:href="#linear-gradient-4"/>
    <linearGradient id="linear-gradient-6" x1="1.703" y1="-3.912" x2="1.18" y2="-1.992" gradientUnits="objectBoundingBox">
      <stop offset="0" stop-color="#dae3fe"/>
      <stop offset="1" stop-color="#e9effd"/>
    </linearGradient>
    <linearGradient id="linear-gradient-7" x1="1.31" y1="-0.2" x2="0.025" y2="0.9" gradientUnits="objectBoundingBox">
      <stop offset="0" stop-color="#09005d"/>
      <stop offset="1" stop-color="#1a0f91"/>
    </linearGradient>
    <linearGradient id="linear-gradient-8" x1="2.36" y1="-0.946" x2="1.841" y2="-0.543" xlink:href="#linear-gradient-4"/>
    <linearGradient id="linear-gradient-9" x1="0.519" y1="-9.002" x2="0.499" y2="1.087" gradientUnits="objectBoundingBox">
      <stop offset="0" stop-color="#8d55d1"/>
      <stop offset="1" stop-color="#1c2873"/>
    </linearGradient>
    <linearGradient id="linear-gradient-10" x1="-83.242" y1="-14.379" x2="-86.267" y2="-12.165" gradientUnits="objectBoundingBox">
      <stop offset="0" stop-color="#e1473d"/>
      <stop offset="1" stop-color="#e9605a"/>
    </linearGradient>
    <linearGradient id="linear-gradient-11" x1="-31.4" y1="-9.024" x2="-32.588" y2="-7.652" xlink:href="#linear-gradient-10"/>
    <linearGradient id="linear-gradient-12" x1="-15.831" y1="-3.499" x2="-16.433" y2="-2.852" xlink:href="#linear-gradient-10"/>
    <linearGradient id="linear-gradient-13" x1="-22.155" y1="-16.996" x2="-23.042" y2="-14.424" xlink:href="#linear-gradient-10"/>
    <linearGradient id="linear-gradient-14" x1="-23.108" y1="-6.299" x2="-24.066" y2="-5.241" xlink:href="#linear-gradient-10"/>
    <linearGradient id="linear-gradient-15" x1="10.134" y1="-6.853" x2="7.046" y2="-4.569" xlink:href="#linear-gradient-10"/>
    <linearGradient id="linear-gradient-16" x1="1.866" y1="-1.627" x2="1.132" y2="-0.505" xlink:href="#linear-gradient-10"/>
    <linearGradient id="linear-gradient-17" x1="-30.13" y1="-15.725" x2="-31.272" y2="-12.55" xlink:href="#linear-gradient-10"/>
    <linearGradient id="linear-gradient-18" x1="-17.875" y1="-4.841" x2="-18.587" y2="-3.896" xlink:href="#linear-gradient-10"/>
    <linearGradient id="linear-gradient-19" x1="-35.5" y1="-5.321" x2="-36.915" y2="-4.167" xlink:href="#linear-gradient-10"/>
    <linearGradient id="linear-gradient-20" x1="0.668" y1="0.154" x2="-0.365" y2="2.283" gradientUnits="objectBoundingBox">
      <stop offset="0" stop-color="#ff928e"/>
      <stop offset="1" stop-color="#feb3b1"/>
    </linearGradient>
    <linearGradient id="linear-gradient-21" x1="0.701" y1="-0.264" x2="-0.332" y2="1.671" xlink:href="#linear-gradient-20"/>
    <linearGradient id="linear-gradient-22" x1="1.312" y1="-1.261" x2="0.202" y2="0.914" xlink:href="#linear-gradient-10"/>
    <linearGradient id="linear-gradient-23" x1="-46.718" y1="-0.358" x2="-46.322" y2="0.293" xlink:href="#linear-gradient-7"/>
    <linearGradient id="linear-gradient-24" x1="-61.984" y1="-5.871" x2="-61.432" y2="-4.794" gradientUnits="objectBoundingBox">
      <stop offset="0" stop-color="#c4421b"/>
      <stop offset="1" stop-color="#5c0e16"/>
    </linearGradient>
    <linearGradient id="linear-gradient-25" x1="-242.586" y1="0.499" x2="-241.585" y2="0.499" xlink:href="#linear-gradient-7"/>
    <linearGradient id="linear-gradient-26" x1="-174.322" y1="1.602" x2="-173.286" y2="-1.188" xlink:href="#linear-gradient-24"/>
    <linearGradient id="linear-gradient-27" x1="-149.574" y1="0.5" x2="-148.575" y2="0.5" xlink:href="#linear-gradient-7"/>
    <linearGradient id="linear-gradient-28" x1="-77.791" y1="1.698" x2="-77.328" y2="-1.193" xlink:href="#linear-gradient-24"/>
    <linearGradient id="linear-gradient-29" x1="7.14" y1="0.07" x2="6.02" y2="1.24" xlink:href="#linear-gradient-4"/>
    <linearGradient id="linear-gradient-30" x1="0.884" y1="0.041" x2="0.115" y2="0.965" xlink:href="#linear-gradient-7"/>
    <linearGradient id="linear-gradient-31" x1="-228.053" y1="1.857" x2="-227.799" y2="0.807" xlink:href="#linear-gradient-24"/>
    <linearGradient id="linear-gradient-32" x1="-159.926" y1="-12.589" x2="-158.394" y2="-14.842" xlink:href="#linear-gradient-24"/>
    <linearGradient id="linear-gradient-33" x1="-131.469" y1="-12.589" x2="-130.838" y2="-11.185" xlink:href="#linear-gradient-7"/>
    <linearGradient id="linear-gradient-34" x1="-178.234" y1="-15.648" x2="-176.643" y2="-12.642" xlink:href="#linear-gradient-24"/>
    <linearGradient id="linear-gradient-35" x1="48.474" y1="0.499" x2="49.474" y2="0.499" xlink:href="#linear-gradient-20"/>
    <linearGradient id="linear-gradient-36" x1="2.74" y1="0.5" x2="3.74" y2="0.5" xlink:href="#linear-gradient-24"/>
    <linearGradient id="linear-gradient-37" x1="0.888" y1="-12.381" x2="0.762" y2="-8.21" xlink:href="#linear-gradient-10"/>
    <linearGradient id="linear-gradient-38" x1="23.079" y1="-5.239" x2="9.432" y2="-1.77" xlink:href="#linear-gradient-10"/>
    <linearGradient id="linear-gradient-39" x1="1.437" y1="-1.265" x2="1.125" y2="-0.679" xlink:href="#linear-gradient-20"/>
    <linearGradient id="linear-gradient-40" x1="7.624" y1="0.153" x2="7.878" y2="1.981" xlink:href="#linear-gradient-10"/>
    <linearGradient id="linear-gradient-41" x1="0.553" y1="0.447" x2="-0.948" y2="1.964" xlink:href="#linear-gradient-4"/>
    <linearGradient id="linear-gradient-42" x1="25.603" y1="0.449" x2="26.954" y2="0.56" xlink:href="#linear-gradient-10"/>
    <linearGradient id="linear-gradient-43" x1="5.025" y1="-4.089" x2="2.651" y2="-1.681" xlink:href="#linear-gradient-7"/>
    <linearGradient id="linear-gradient-44" x1="-12.424" y1="4.447" x2="-2.014" y2="1.276" xlink:href="#linear-gradient-7"/>
    <linearGradient id="linear-gradient-45" x1="105.582" y1="-1.748" x2="102.809" y2="1.783" xlink:href="#linear-gradient-10"/>
    <linearGradient id="linear-gradient-46" x1="48.29" y1="-0.433" x2="45.51" y2="1.195" xlink:href="#linear-gradient-20"/>
    <linearGradient id="linear-gradient-47" x1="2.914" y1="-2.353" x2="2.021" y2="-1.298" xlink:href="#linear-gradient-7"/>
    <linearGradient id="linear-gradient-48" x1="0" y1="0.5" x2="1" y2="0.5" xlink:href="#linear-gradient-10"/>
    <linearGradient id="linear-gradient-49" x1="1.687" y1="-0.922" x2="-0.432" y2="1.64" xlink:href="#linear-gradient-20"/>
    <linearGradient id="linear-gradient-50" x1="7.219" y1="-6.767" x2="4.548" y2="-3.879" xlink:href="#linear-gradient-7"/>
    <linearGradient id="linear-gradient-51" x1="3.583" y1="-1.43" x2="2.135" y2="-0.524" xlink:href="#linear-gradient-7"/>
    <linearGradient id="linear-gradient-52" x1="0" y1="0.5" x2="1" y2="0.5" xlink:href="#linear-gradient-10"/>
    <linearGradient id="linear-gradient-53" x1="0" y1="0.5" x2="1" y2="0.5" xlink:href="#linear-gradient-20"/>
    <linearGradient id="linear-gradient-54" x1="77.039" y1="13.836" x2="78.074" y2="9.531" xlink:href="#linear-gradient-7"/>
    <linearGradient id="linear-gradient-55" x1="4.195" y1="-1.553" x2="2.977" y2="-0.876" xlink:href="#linear-gradient-7"/>
    <linearGradient id="linear-gradient-57" x1="0" y1="0.5" x2="1" y2="0.5" xlink:href="#linear-gradient-20"/>
    <linearGradient id="linear-gradient-58" x1="77.207" y1="13.137" x2="78.242" y2="8.833" xlink:href="#linear-gradient-7"/>
    <linearGradient id="linear-gradient-59" x1="132.032" y1="1.101" x2="132.74" y2="-0.302" xlink:href="#linear-gradient-20"/>
    <linearGradient id="linear-gradient-60" x1="93.391" y1="-0.177" x2="-14.589" y2="0.611" xlink:href="#linear-gradient-20"/>
    <linearGradient id="linear-gradient-61" x1="-0.011" y1="1.179" x2="0.818" y2="0.122" xlink:href="#linear-gradient-4"/>
    <linearGradient id="linear-gradient-62" x1="-417.965" y1="-0.165" x2="-435.92" y2="3.357" xlink:href="#linear-gradient-7"/>
    <linearGradient id="linear-gradient-63" x1="-521.507" y1="-0.084" x2="-543.994" y2="3.372" xlink:href="#linear-gradient-7"/>
    <linearGradient id="linear-gradient-64" x1="-465.301" y1="-0.014" x2="-485.459" y2="3.444" xlink:href="#linear-gradient-7"/>
    <linearGradient id="linear-gradient-65" x1="-312.969" y1="0.122" x2="-326.641" y2="3.394" xlink:href="#linear-gradient-7"/>
    <linearGradient id="linear-gradient-66" x1="-729.038" y1="0.174" x2="-761.033" y2="3.698" xlink:href="#linear-gradient-7"/>
    <linearGradient id="linear-gradient-67" x1="-459.566" y1="0.229" x2="-479.81" y2="3.738" xlink:href="#linear-gradient-7"/>
    <linearGradient id="linear-gradient-68" x1="-279.856" y1="-0.186" x2="-291.816" y2="2.939" xlink:href="#linear-gradient-7"/>
    <linearGradient id="linear-gradient-69" x1="-0.145" y1="1.037" x2="1.081" y2="0.06" xlink:href="#linear-gradient-4"/>
    <linearGradient id="linear-gradient-70" x1="-560.018" y1="-0.165" x2="-577.955" y2="3.357" xlink:href="#linear-gradient-7"/>
    <linearGradient id="linear-gradient-71" x1="-697.618" y1="-0.084" x2="-720.024" y2="3.372" xlink:href="#linear-gradient-7"/>
    <linearGradient id="linear-gradient-72" x1="-627.105" y1="-0.014" x2="-647.318" y2="3.444" xlink:href="#linear-gradient-7"/>
    <linearGradient id="linear-gradient-73" x1="-422.457" y1="0.121" x2="-436.162" y2="3.396" xlink:href="#linear-gradient-7"/>
    <linearGradient id="linear-gradient-74" x1="-982.949" y1="0.174" x2="-1014.936" y2="3.7" xlink:href="#linear-gradient-7"/>
    <linearGradient id="linear-gradient-75" x1="-620.898" y1="0.228" x2="-641.159" y2="3.738" xlink:href="#linear-gradient-7"/>
    <linearGradient id="linear-gradient-76" x1="-375.612" y1="-0.19" x2="-387.598" y2="2.95" xlink:href="#linear-gradient-7"/>
    <linearGradient id="linear-gradient-77" x1="0.051" y1="1.087" x2="1.009" y2="-0.109" xlink:href="#linear-gradient-4"/>
    <linearGradient id="linear-gradient-78" x1="-558.267" y1="-0.17" x2="-576.352" y2="3.367" xlink:href="#linear-gradient-7"/>
    <linearGradient id="linear-gradient-79" x1="-698.921" y1="-0.086" x2="-721.625" y2="3.375" xlink:href="#linear-gradient-7"/>
    <linearGradient id="linear-gradient-80" x1="-622.06" y1="-0.015" x2="-642.34" y2="3.447" xlink:href="#linear-gradient-7"/>
    <linearGradient id="linear-gradient-81" x1="-417.732" y1="0.124" x2="-431.437" y2="3.387" xlink:href="#linear-gradient-7"/>
    <linearGradient id="linear-gradient-82" x1="-969.018" y1="0.171" x2="-1000.917" y2="3.71" xlink:href="#linear-gradient-7"/>
    <linearGradient id="linear-gradient-83" x1="-632.064" y1="0.228" x2="-652.928" y2="3.744" xlink:href="#linear-gradient-7"/>
    <linearGradient id="linear-gradient-84" x1="-371.764" y1="-0.19" x2="-383.761" y2="2.95" xlink:href="#linear-gradient-7"/>
    <linearGradient id="linear-gradient-85" x1="-0.597" y1="1.758" x2="0.976" y2="-0.009" gradientUnits="objectBoundingBox">
      <stop offset="0" stop-color="#fe7062"/>
      <stop offset="0.53" stop-color="#fe7164"/>
      <stop offset="0.72" stop-color="#fe776b"/>
      <stop offset="0.86" stop-color="#fe8076"/>
      <stop offset="0.97" stop-color="#ff8d87"/>
      <stop offset="1" stop-color="#ff928e"/>
    </linearGradient>
    <linearGradient id="linear-gradient-86" x1="-791.571" y1="-0.167" x2="-812.412" y2="3.363" xlink:href="#linear-gradient-7"/>
    <linearGradient id="linear-gradient-87" x1="-1000.186" y1="-0.086" x2="-1026.492" y2="3.374" xlink:href="#linear-gradient-7"/>
    <linearGradient id="linear-gradient-88" x1="-882.333" y1="-0.016" x2="-905.63" y2="3.45" xlink:href="#linear-gradient-7"/>
    <linearGradient id="linear-gradient-89" x1="-595.536" y1="0.122" x2="-611.249" y2="3.383" xlink:href="#linear-gradient-7"/>
    <linearGradient id="linear-gradient-90" x1="-1379.583" y1="0.176" x2="-1416.109" y2="3.686" xlink:href="#linear-gradient-7"/>
    <linearGradient id="linear-gradient-91" x1="-883.872" y1="0.227" x2="-907.413" y2="3.746" xlink:href="#linear-gradient-7"/>
    <linearGradient id="linear-gradient-92" x1="-527.134" y1="-0.187" x2="-540.92" y2="2.947" xlink:href="#linear-gradient-7"/>
    <linearGradient id="linear-gradient-93" x1="-0.308" y1="1.162" x2="1.206" y2="-0.036" xlink:href="#linear-gradient-4"/>
    <linearGradient id="linear-gradient-94" x1="-937.676" y1="-0.165" x2="-958.533" y2="3.365" xlink:href="#linear-gradient-7"/>
    <linearGradient id="linear-gradient-95" x1="-1184.148" y1="-0.084" x2="-1210.459" y2="3.376" xlink:href="#linear-gradient-7"/>
    <linearGradient id="linear-gradient-96" x1="-1045.012" y1="-0.014" x2="-1068.313" y2="3.451" xlink:href="#linear-gradient-7"/>
    <linearGradient id="linear-gradient-97" x1="-705.695" y1="0.123" x2="-721.405" y2="3.383" xlink:href="#linear-gradient-7"/>
    <linearGradient id="linear-gradient-98" x1="-1635.685" y1="0.177" x2="-1672.211" y2="3.69" xlink:href="#linear-gradient-7"/>
    <linearGradient id="linear-gradient-99" x1="-1048.768" y1="0.229" x2="-1072.321" y2="3.747" xlink:href="#linear-gradient-7"/>
    <linearGradient id="linear-gradient-100" x1="-623.701" y1="-0.189" x2="-637.488" y2="2.945" xlink:href="#linear-gradient-7"/>
  </defs>
  <g id="regional-01" transform="translate(-374.56 -172.413)">
    <g id="Illustration" transform="translate(374.56 172.413)">
      <g id="Grupo_60023" data-name="Grupo 60023" transform="translate(0 0)">
        <g id="Grupo_59977" data-name="Grupo 59977">
          <g id="Grupo_59972" data-name="Grupo 59972">
            <path id="Trazado_136935" data-name="Trazado 136935" d="M636.552,309.051,500.228,295.73,363.68,308.288l-2.52,292.147,136.494-6.055,136.36,9.193,136.365-11.064,2.492-289.072Z" transform="translate(-361.16 -295.73)" fill="#fff"/>
            <path id="Trazado_136936" data-name="Trazado 136936" d="M526.644,610.857,396.96,616.6l2.389-277.14,129.739-11.91Z" transform="translate(-387.165 -318.844)" fill="url(#linear-gradient)"/>
            <path id="Trazado_136937" data-name="Trazado 136937" d="M1000.521,619.582,870.96,610.857,873.4,327.55l129.528,12.637Z" transform="translate(-731.482 -318.844)" fill="url(#linear-gradient-2)"/>
            <path id="Trazado_136938" data-name="Trazado 136938" d="M1474.073,628.506,1344.51,639l2.41-279.395,129.517-5.324Z" transform="translate(-1075.471 -338.261)" fill="url(#linear-gradient-3)"/>
            <rect id="Rectángulo_32934" data-name="Rectángulo 32934" width="2.936" height="283.397" transform="translate(138.873 9.009) rotate(0.573)" fill="#fff" opacity="0.47"/>
          </g>
          <g id="Grupo_59976" data-name="Grupo 59976" transform="translate(9.589 8.331)" clip-path="url(#clip-path)">
            <g id="Grupo_59973" data-name="Grupo 59973" transform="translate(-5.389 12.137)">
              <path id="Trazado_136939" data-name="Trazado 136939" d="M1446.7,385.15l33.417,22.377-23.067,18.251-26.809-21.808Z" transform="translate(-1141.947 -381.153)" fill="#91b3fa"/>
              <path id="Trazado_136940" data-name="Trazado 136940" d="M683.64,471.972l3.015-24.372,48.818,12.621-.265,30.952Z" transform="translate(-599.612 -426.517)" fill="#91b3fa"/>
              <path id="Trazado_136941" data-name="Trazado 136941" d="M1702.77,1070.006,1730,1058.6l3.466,23.641-23.77,6.342Z" transform="translate(-1339.914 -870.351)" fill="#7d97f4"/>
              <path id="Trazado_136942" data-name="Trazado 136942" d="M767.75,1127.856l27.141,12.273,27.192-3.622-2.317-15.975L795.1,1115.41Z" transform="translate(-660.71 -911.618)" fill="#7d97f4"/>
              <rect id="Rectángulo_32935" data-name="Rectángulo 32935" width="4.364" height="72.541" transform="translate(17.253 69.498) rotate(-74.31)" fill="#7d97f4"/>
              <path id="Trazado_136943" data-name="Trazado 136943" d="M418.049,695.308l-4.353-3.286,48.035-63.63,54.032-3.368,7.2-46.938-49.094-32.993-71.663,21-1.535-5.234,74.117-21.721,54.09,36.35L520.488,630.2l-55.914,3.486Z" transform="translate(-394.061 -493.012)" fill="#7d97f4"/>
              <rect id="Rectángulo_32936" data-name="Rectángulo 32936" width="5.455" height="74.002" transform="translate(0 186.291) rotate(-49.22)" fill="#7d97f4"/>
              <rect id="Rectángulo_32937" data-name="Rectángulo 32937" width="94.855" height="5.455" transform="translate(166.046 177.09) rotate(-16.6)" fill="#7d97f4"/>
              <rect id="Rectángulo_32938" data-name="Rectángulo 32938" width="5.455" height="89.528" transform="translate(234.989 107.583) rotate(-21.61)" fill="#7d97f4"/>
              <rect id="Rectángulo_32939" data-name="Rectángulo 32939" width="47.43" height="5.455" transform="matrix(0.683, -0.73, 0.73, 0.683, 312.725, 207.972)" fill="#7d97f4"/>
              <rect id="Rectángulo_32940" data-name="Rectángulo 32940" width="4.364" height="72.932" transform="matrix(0.895, -0.446, 0.446, 0.895, 292.822, 129.073)" fill="#7d97f4"/>
              <path id="Trazado_136944" data-name="Trazado 136944" d="M1560.41,454.221l-3.127-4.468a2.019,2.019,0,0,0-.232.183c1.748-1.68,25.5-29.918,41.039-48.489l1.94-2.317,34.667,35.625-3.91,3.8-30.462-31.294c-3.412,4.077-10.834,12.933-18.265,21.762C1561.474,453.477,1560.908,453.873,1560.41,454.221Z" transform="translate(-1234.062 -391.308)" fill="#7d97f4"/>
              <path id="Trazado_136945" data-name="Trazado 136945" d="M1078.271,497.97,1067.2,460.361l-13.625-34.314-62.341,3.026-.287-5.447L1057.4,420.4l15.22,38.361,11.1,37.726Z" transform="translate(-822.844 -406.759)" fill="#7d97f4"/>
              <path id="Trazado_136946" data-name="Trazado 136946" d="M670.827,461.112l-4.347-.372,2.525-29.68L723.5,442.814l-.922,4.265L672.934,436.37Z" transform="translate(-587.147 -414.502)" fill="#7d97f4"/>
              <path id="Trazado_136947" data-name="Trazado 136947" d="M1496.174,418.345l-2.692-3.434,22.859-17.937-31.261-22.916,2.58-3.518,35.9,26.317Z" transform="translate(-1181.783 -370.54)" fill="#7d97f4"/>
              <path id="Trazado_136948" data-name="Trazado 136948" d="M1708.757,1082.717l-1.125-4.213,19.16-5.111-2.777-18.936-24.64,10.317-1.685-4.025,29.824-12.49,4.159,28.347Z" transform="translate(-1336.224 -862.84)" fill="#7d97f4"/>
              <rect id="Rectángulo_32941" data-name="Rectángulo 32941" width="5.455" height="133.303" transform="translate(360.632 90.094) rotate(-15.26)" fill="#7d97f4"/>
              <rect id="Rectángulo_32942" data-name="Rectángulo 32942" width="97.61" height="5.455" transform="translate(242.782 280.091) rotate(-46.77)" fill="#7d97f4"/>
              <path id="Trazado_136949" data-name="Trazado 136949" d="M656.83,1202.066l-79.98-32.621,2.057-5.051,76.029,31.006,21.978-30.183-19.559,4.5-33.119-15.759,2.345-4.925,31.4,14.941,31.929-7.335Z" transform="translate(-522.039 -936.039)" fill="#7d97f4"/>
              <path id="Trazado_136950" data-name="Trazado 136950" d="M1070.09,1111.657l-58.957-55.764-.1-.131-31.012-39.844,3.445-2.679,30.908,39.712,58.716,55.534Z" transform="translate(-814.904 -837.401)" fill="#7d97f4"/>
            </g>
            <g id="Grupo_59974" data-name="Grupo 59974" transform="translate(-2.714 -0.046)">
              <path id="Trazado_136951" data-name="Trazado 136951" d="M543.763,533.748,524.885,512.5c-42.585-15.428-91.1-31.414-128.825-33.521l.274-4.9c38.533,2.167,87.747,18.408,130.811,34.019l.583.213,19.7,22.161Z" transform="translate(-393.387 -433.569)" fill="#91b3fa"/>
              <path id="Trazado_136952" data-name="Trazado 136952" d="M1198.548,1125.623c-41.389-25.9-88.209-54.426-120.817-65.581l-106.63,38.3-1.661-4.618,108.239-38.9.821.274c33.143,11.124,80.694,40.079,122.663,66.344Z" transform="translate(-809.894 -855.429)" fill="#91b3fa"/>
              <rect id="Rectángulo_32943" data-name="Rectángulo 32943" width="4.908" height="87.129" transform="translate(150.771 1.799) rotate(-21.5)" fill="#91b3fa"/>
              <path id="Trazado_136953" data-name="Trazado 136953" d="M1463.471,519.67c-8.159-32.831-24.227-55.51-49.121-69.373l2.389-4.287a97.668,97.668,0,0,1,33.748,30.818c7.863,11.628,13.68,25.255,17.748,41.658Z" transform="translate(-1133.078 -413.179)" fill="#91b3fa"/>
              <path id="Trazado_136954" data-name="Trazado 136954" d="M647.474,995.791l-4.074-2.782,48.861-73.818,4.074,2.78Z" transform="translate(-573.056 -756.9)" fill="#91b3fa"/>
              <path id="Trazado_136955" data-name="Trazado 136955" d="M1267.3,657.752l-141.618-6.867.238-4.906,140.548,6.818,51.759-20.7,1.825,4.555Z" transform="translate(-923.387 -548.356)" fill="#91b3fa"/>
              <path id="Trazado_136956" data-name="Trazado 136956" d="M396.319,1159.392l-1.729-4.6,129.131-48.536,25.264,2.73-.525,4.881-24.1-2.6Z" transform="translate(-392.319 -892.788)" fill="#91b3fa"/>
              <path id="Trazado_136957" data-name="Trazado 136957" d="M656.651,847.269c-55.266-1.062-107.017-4.315-133.191-32.1l3.573-3.365c24.867,26.4,75.545,29.521,129.711,30.56Z" transform="translate(-485.931 -678.891)" fill="#91b3fa"/>
              <path id="Trazado_136958" data-name="Trazado 136958" d="M959.8,636.42,948.84,567.512l.181-.558,34.186-105.783,15.13-25.116,59.288-31.384,39.74-42.982,3.606,3.332-40.309,43.595-58.823,31.14L987.7,463.221,953.874,567.9l10.771,67.745Z" transform="translate(-794.93 -351.929)" fill="#91b3fa"/>
              <path id="Trazado_136959" data-name="Trazado 136959" d="M780.542,847.343,712.663,721.974l-127.071-47.8-22.643-5.609-82.292-6.936-91.5,65.849-2.867-3.986,92.973-66.9.906.077,83.583,7.042,23.3,5.77.134.052,128.92,48.495.435.8,68.314,126.176Z" transform="translate(-386.29 -566.146)" fill="#91b3fa"/>
            </g>
            <g id="Grupo_59975" data-name="Grupo 59975" transform="translate(25.866 47.611)">
              <path id="Trazado_136960" data-name="Trazado 136960" d="M513.549,713.246a1.212,1.212,0,0,1-.41-2.35l5.062-1.828a1.21,1.21,0,1,1,.821,2.276l-5.059,1.828a1.22,1.22,0,0,1-.413.074Zm10.123-3.655a1.212,1.212,0,0,1-.41-2.35l5.061-1.828a1.21,1.21,0,1,1,.821,2.276l-5.059,1.828a1.221,1.221,0,0,1-.416.063Zm10.123-3.655a1.212,1.212,0,0,1-.41-2.35l5.061-1.828a1.21,1.21,0,0,1,.821,2.276l-5.064,1.825a1.222,1.222,0,0,1-.413.066Zm79.159-1.642a1.209,1.209,0,0,1-.2-2.4l5.308-.881a1.21,1.21,0,1,1,.394,2.388l-5.3.881a1.267,1.267,0,0,1-.205.005Zm-5.127-.213a1.2,1.2,0,0,1-.572-.145l-4.742-2.545a1.212,1.212,0,0,1,1.146-2.134L608.4,701.8a1.212,1.212,0,0,1-.575,2.279Zm15.74-1.549a1.209,1.209,0,0,1-.194-2.4l5.308-.878a1.21,1.21,0,1,1,.394,2.388l-5.308.878a1.221,1.221,0,0,1-.205.005Zm-79.651-.252a1.212,1.212,0,0,1-.41-2.35l5.062-1.828a1.21,1.21,0,1,1,.821,2.276l-5.059,1.828a1.219,1.219,0,0,1-.419.063Zm90.267-1.508a1.209,1.209,0,0,1-.194-2.4l5.308-.881a1.21,1.21,0,1,1,.394,2.388l-5.308.881a1.239,1.239,0,0,1-.205.005Zm-35.841-1.781a1.192,1.192,0,0,1-.572-.145l-4.741-2.544a1.212,1.212,0,0,1,1.146-2.134l4.739,2.544a1.212,1.212,0,0,1-.572,2.279Zm-44.322-.369a1.209,1.209,0,0,1-.41-2.347l5.062-1.828a1.21,1.21,0,0,1,.821,2.276l-5.059,1.828a1.215,1.215,0,0,1-.4.06Zm90.614-.257a1.209,1.209,0,0,1-.35-2.369l5.152-1.554a1.212,1.212,0,0,1,.7,2.32l-5.152,1.551a1.179,1.179,0,0,1-.336.041Zm10.3-3.105a1.209,1.209,0,0,1-.347-2.369l5.152-1.551a1.21,1.21,0,0,1,.7,2.317l-5.152,1.551a1.19,1.19,0,0,1-.339.041Zm-90.8-.293a1.212,1.212,0,0,1-.41-2.35l5.061-1.828a1.212,1.212,0,0,1,.821,2.279l-5.059,1.828a1.215,1.215,0,0,1-.4.06ZM588.85,693.9a1.193,1.193,0,0,1-.572-.145l-4.741-2.544a1.212,1.212,0,0,1,1.146-2.134l4.739,2.544a1.212,1.212,0,0,1-.572,2.279Zm76.388-1.748a1.209,1.209,0,0,1-.35-2.369l5.152-1.551a1.21,1.21,0,0,1,.7,2.317l-5.149,1.551a1.2,1.2,0,0,1-.339.041Zm-90.978-.843a1.212,1.212,0,0,1-.41-2.35l5.059-1.828a1.212,1.212,0,1,1,.821,2.279l-5.059,1.828a1.217,1.217,0,0,1-.4.06ZM675.525,689a1.209,1.209,0,0,1-.421-2.345l5.048-1.863a1.212,1.212,0,1,1,.84,2.274l-5.048,1.86a1.194,1.194,0,0,1-.408.063Zm10.1-3.721a1.212,1.212,0,0,1-.421-2.347l5.048-1.86a1.211,1.211,0,1,1,.84,2.271l-5.048,1.861a1.2,1.2,0,0,1-.408.065Zm10.1-3.724a1.212,1.212,0,0,1-.421-2.347l5.048-1.86a1.211,1.211,0,1,1,.84,2.271l-5.048,1.863a1.264,1.264,0,0,1-.408.063Zm92.174-.3a1.2,1.2,0,0,1-.476-.1l-2.12-.906a1.212,1.212,0,0,1,.952-2.227l1.368.591,1.641-1.576a1.209,1.209,0,0,1,1.677,1.743l-2.213,2.134a1.209,1.209,0,0,1-.818.32Zm-7.07-3.01a1.2,1.2,0,0,1-.473-.1l-4.949-2.112a1.211,1.211,0,1,1,.949-2.227l4.949,2.112a1.212,1.212,0,0,1-.476,2.326Zm-75.009-.408a1.209,1.209,0,0,1-.4-2.345l5.048-1.863a1.212,1.212,0,0,1,.837,2.274l-5.048,1.86a1.191,1.191,0,0,1-.421.06Zm88.169-2.446a1.209,1.209,0,0,1-.84-2.082l3.874-3.732a1.212,1.212,0,1,1,1.68,1.745l-3.874,3.732a1.218,1.218,0,0,1-.829.323Zm-78.073-1.275a1.212,1.212,0,0,1-.419-2.347l5.048-1.86a1.21,1.21,0,0,1,.837,2.271l-5.048,1.86a1.192,1.192,0,0,1-.408.063Zm55.017-.1a1.225,1.225,0,0,1-.476-.1L765.5,671.81a1.212,1.212,0,0,1,.952-2.227L771.4,671.7a1.209,1.209,0,0,1-.473,2.323ZM726,670.39a1.212,1.212,0,0,1-.419-2.347l5.048-1.86a1.21,1.21,0,0,1,.837,2.271l-5.048,1.863a1.252,1.252,0,0,1-.408.06Zm35.02-.594a1.2,1.2,0,0,1-.473-.1l-4.949-2.112a1.21,1.21,0,0,1,.949-2.227l4.949,2.112a1.209,1.209,0,0,1-.476,2.323Zm40.705-1.871a1.209,1.209,0,0,1-.84-2.082l3.874-3.732a1.21,1.21,0,1,1,1.68,1.743l-3.874,3.735a1.217,1.217,0,0,1-.826.323ZM736.1,666.669a1.212,1.212,0,0,1-.419-2.347l5.048-1.863a1.212,1.212,0,0,1,.837,2.274l-5.048,1.86a1.188,1.188,0,0,1-.4.063Zm15.031-1.094a1.224,1.224,0,0,1-.476-.1l-4.949-2.112a1.212,1.212,0,0,1,.952-2.227l4.947,2.112a1.209,1.209,0,0,1-.473,2.323Zm58.363-5.133a1.212,1.212,0,0,1-.84-2.082l3.877-3.732a1.21,1.21,0,0,1,1.68,1.743L810.33,660.1A1.2,1.2,0,0,1,809.49,660.442Zm7.751-7.464a1.209,1.209,0,0,1-.84-2.082l3.874-3.732a1.21,1.21,0,1,1,1.68,1.743l-3.874,3.732a1.206,1.206,0,0,1-.84.345Zm2.982-8.336a1.206,1.206,0,0,1-1.094-.69l-2.306-4.851a1.211,1.211,0,1,1,2.189-1.037l2.306,4.859a1.207,1.207,0,0,1-1.094,1.729Zm-4.616-9.721a1.212,1.212,0,0,1-1.094-.69l-2.306-4.862a1.212,1.212,0,0,1,2.189-1.037l2.306,4.859a1.207,1.207,0,0,1-1.094,1.729Zm-4.613-9.721a1.212,1.212,0,0,1-1.094-.689l-2.306-4.862a1.211,1.211,0,0,1,2.189-1.037l2.306,4.859a1.207,1.207,0,0,1-1.094,1.729Zm-4.782-9.54a1.172,1.172,0,0,1-.438-.082l-5.015-1.948a1.212,1.212,0,1,1,.878-2.257l5.012,1.951a1.209,1.209,0,0,1-.438,2.336Zm-10.03-3.9a1.178,1.178,0,0,1-.438-.082l-5.015-1.951a1.21,1.21,0,0,1,.878-2.254l5.015,1.948a1.212,1.212,0,0,1-.44,2.339Zm-10.027-3.9a1.225,1.225,0,0,1-.438-.082L780.7,605.83a1.212,1.212,0,1,1,.878-2.257l5.012,1.951a1.212,1.212,0,0,1-.438,2.339Zm-10.03-3.9a1.183,1.183,0,0,1-.438-.085l-5.015-1.948a1.212,1.212,0,1,1,.878-2.257l5.015,1.951a1.212,1.212,0,0,1-.44,2.339Zm-10.027-3.9a1.182,1.182,0,0,1-.44-.082l-5.012-1.951a1.209,1.209,0,1,1,.876-2.254l5.015,1.948a1.212,1.212,0,0,1-.438,2.339Zm-10.03-3.9a1.241,1.241,0,0,1-.438-.082l-5.015-1.951a1.212,1.212,0,1,1,.878-2.257l5.015,1.951a1.212,1.212,0,0,1-.441,2.339Zm-10.027-3.9a1.186,1.186,0,0,1-.44-.085l-5.012-1.948a1.211,1.211,0,0,1,.875-2.257l5.015,1.951a1.212,1.212,0,0,1-.438,2.339Zm-10.03-3.9a1.178,1.178,0,0,1-.438-.082l-5.015-1.948a1.212,1.212,0,1,1,.878-2.257l5.015,1.951a1.209,1.209,0,0,1-.44,2.336Zm-10.027-3.9a1.238,1.238,0,0,1-.441-.082l-5.012-1.951a1.209,1.209,0,1,1,.875-2.254l5.015,1.948a1.212,1.212,0,0,1-.438,2.339Zm-10.03-3.9a1.24,1.24,0,0,1-.438-.082l-5.015-1.951a1.212,1.212,0,1,1,.878-2.257l5.015,1.951a1.212,1.212,0,0,1-.441,2.339Zm-10.027-3.9a1.182,1.182,0,0,1-.44-.082l-5-1.943a1.21,1.21,0,0,1,.875-2.257l5.015,1.951a1.209,1.209,0,0,1-.438,2.336Zm-10.03-3.9a1.241,1.241,0,0,1-.438-.082l-5.015-1.951a1.21,1.21,0,0,1,.878-2.254l5.012,1.948a1.212,1.212,0,0,1-.438,2.339Zm-10.027-3.9a1.243,1.243,0,0,1-.44-.082l-5.015-1.951a1.212,1.212,0,1,1,.878-2.257l5.015,1.951a1.212,1.212,0,0,1-.438,2.339Zm-10.03-3.9a1.173,1.173,0,0,1-.438-.085l-3.283-1.272a1.215,1.215,0,0,1-.733-1.434l.473-1.806a1.21,1.21,0,0,1,2.342.61l-.2.763,2.268.884a1.212,1.212,0,0,1-.438,2.339Zm-1.442-8.287a1.179,1.179,0,0,1-.306-.038,1.212,1.212,0,0,1-.867-1.477l1.368-5.2a1.21,1.21,0,0,1,2.342.613l-1.368,5.2a1.212,1.212,0,0,1-1.168.908Zm5.472-8.208a1.209,1.209,0,0,1-.564-2.282l4.763-2.5a1.21,1.21,0,0,1,1.125,2.142l-4.763,2.5a1.181,1.181,0,0,1-.547.14Zm9.527-5a1.209,1.209,0,0,1-.564-2.282l4.761-2.5a1.21,1.21,0,1,1,1.127,2.142l-4.749,2.514a1.19,1.19,0,0,1-.561.126Zm9.524-5a1.209,1.209,0,0,1-.563-2.282l4.763-2.5a1.21,1.21,0,0,1,1.127,2.142l-4.763,2.5a1.194,1.194,0,0,1-.55.14Zm9.527-5a1.209,1.209,0,0,1-.564-2.282l4.763-2.5a1.21,1.21,0,1,1,1.124,2.142l-4.76,2.5a1.232,1.232,0,0,1-.55.137Zm9.546-5a1.209,1.209,0,0,1-.564-2.282l4.763-2.5a1.21,1.21,0,0,1,1.124,2.142l-4.777,2.5A1.182,1.182,0,0,1,717.992,528.457Zm9.526-5a1.212,1.212,0,0,1-.566-2.282l4.763-2.5a1.21,1.21,0,1,1,1.127,2.142l-4.763,2.5a1.222,1.222,0,0,1-.566.137Zm9.518-5.007a1.209,1.209,0,0,1-.564-2.282l4.763-2.5a1.21,1.21,0,0,1,1.127,2.142l-4.763,2.5A1.226,1.226,0,0,1,737.037,518.447Zm9.349-5.316a1.209,1.209,0,0,1-.638-2.238l.618-.383a1.21,1.21,0,0,1,1.272,2.057l-.618.383a1.2,1.2,0,0,1-.635.183Z" transform="translate(-506.435 -507.558)" fill="#fff"/>
              <circle id="Elipse_4307" data-name="Elipse 4307" cx="4.99" cy="4.99" r="4.99" transform="translate(233.909 0.496) rotate(-2.85)" fill="url(#linear-gradient-4)"/>
              <circle id="Elipse_4308" data-name="Elipse 4308" cx="6.232" cy="6.232" r="6.232" transform="translate(0 199.341)" fill="url(#linear-gradient-5)"/>
            </g>
            <path id="Trazado_136961" data-name="Trazado 136961" d="M868.895,447.9l32.966-10.263-.287-5.447L867.91,443.224Z" transform="translate(-738.855 -403.186)" fill="#7d97f4"/>
          </g>
          <circle id="Elipse_4309" data-name="Elipse 4309" cx="16.465" cy="16.465" r="16.465" transform="translate(174.259 102.087) rotate(-45)" fill="url(#linear-gradient-6)"/>
          <circle id="Elipse_4310" data-name="Elipse 4310" cx="11.797" cy="11.797" r="11.797" transform="translate(181.475 106.563) rotate(-60.48)" fill="#bdd0fb"/>
        </g>
        <g id="Grupo_59985" data-name="Grupo 59985" transform="translate(289.302 61.14)">
          <g id="Grupo_59978" data-name="Grupo 59978">
            <path id="Trazado_136963" data-name="Trazado 136963" d="M1646.342,769.371a9.572,9.572,0,0,1-9.751,9.212l-128.937.274a9.76,9.76,0,0,1-9.959-9.2L1491.676,529.5a9.981,9.981,0,0,1,10.071-10.3l136.863.654a10.213,10.213,0,0,1,10.145,10.353Z" transform="translate(-1491.671 -519.198)" fill="url(#linear-gradient-7)"/>
            <path id="Trazado_136964" data-name="Trazado 136964" d="M1672.9,582.325a10.009,10.009,0,0,0-10.057-9.989l-108.617-.476a9.778,9.778,0,0,0-9.973,9.934l4.465,204.189c.109,5,4.534,9.028,9.879,9.028l103.2-.164c5.316,0,9.65-4.046,9.685-9.029Z" transform="translate(-1529.866 -557.452)" fill="url(#linear-gradient-8)"/>
            <path id="Trazado_136965" data-name="Trazado 136965" d="M1753.7,539.708a1.915,1.915,0,0,1-1.915,1.915l-28.271-.129a1.965,1.965,0,0,1-1.943-1.94h0a1.885,1.885,0,0,1,1.9-1.915l28.3.131a1.942,1.942,0,0,1,1.915,1.937Z" transform="translate(-1658.67 -532.594)" fill="url(#linear-gradient-9)"/>
          </g>
          <g id="Grupo_59979" data-name="Grupo 59979" transform="translate(21.944 24.442)">
            <path id="Trazado_136966" data-name="Trazado 136966" d="M1929.63,1096.557l16.284-16.167-.6,34.109-15.644-17.9Z" transform="translate(-1831.751 -951.292)" fill="url(#linear-gradient-10)"/>
            <path id="Trazado_136967" data-name="Trazado 136967" d="M1852.479,1168l23.018,26.355.233.273-.662,20.884a7.418,7.418,0,0,1-2.823,5.357,9.792,9.792,0,0,1-5.472,2.189l-32.522-36.935Z" transform="translate(-1762.467 -1014.933)" fill="url(#linear-gradient-11)"/>
            <path id="Trazado_136968" data-name="Trazado 136968" d="M1773.25,850.067,1754.661,868.6l-7.841,7.819-18.235,18.178-29.975-34.046.005-.005,18.161-18.407-.052,0-.1-.052v0l7.915-7.929.074.008.019.008.014-.008.014-.008,18.6-18.834,37.067-37.485-1.4,61.49Z" transform="translate(-1663.937 -731.511)" fill="url(#linear-gradient-12)"/>
            <path id="Trazado_136969" data-name="Trazado 136969" d="M1753.421,1291.558l-55.471.041,29.565-29.359Z" transform="translate(-1663.458 -1083.39)" fill="url(#linear-gradient-13)"/>
            <path id="Trazado_136970" data-name="Trazado 136970" d="M1643.436,1142.659l-37.557,37.442h-3.433a9.685,9.685,0,0,1-6.164-2.156,7.191,7.191,0,0,1-2.722-5.234L1592,1130.492l21.466-21.762Z" transform="translate(-1586.495 -971.879)" fill="url(#linear-gradient-14)"/>
            <path id="Trazado_136971" data-name="Trazado 136971" d="M1601.6,1030.843l-14.749,15.028-1.2-33.061,15.934,18.033Z" transform="translate(-1581.882 -902.202)" fill="url(#linear-gradient-15)"/>
            <path id="Trazado_136972" data-name="Trazado 136972" d="M1784.978,675.856l-29.808-34.662,31.417-32.492,25.92-.167a9.51,9.51,0,0,1,9.7,9.795l-.506,20.153Z" transform="translate(-1705.023 -608.533)" fill="url(#linear-gradient-16)"/>
            <path id="Trazado_136973" data-name="Trazado 136973" d="M1654.23,609.8l43.124-.279-22.9,23.792Z" transform="translate(-1631.699 -609.25)" fill="url(#linear-gradient-17)"/>
            <path id="Trazado_136974" data-name="Trazado 136974" d="M1621.625,757.87l29.8,34.528-18.577,18.908-7.817,7.959-17.929,18.511-24.019-27.63v-.006l-.791-11.321-.066-.06Z" transform="translate(-1579.398 -717.012)" fill="url(#linear-gradient-18)"/>
            <path id="Trazado_136975" data-name="Trazado 136975" d="M1579.573,611.62l27.135,31.444-32.76,34.03-2.06-55.6A9.68,9.68,0,0,1,1579.573,611.62Z" transform="translate(-1571.879 -610.776)" fill="url(#linear-gradient-19)"/>
          </g>
          <g id="Grupo_59980" data-name="Grupo 59980" transform="translate(28.798 35.166)">
            <rect id="Rectángulo_32944" data-name="Rectángulo 32944" width="50.3" height="3.034" rx="1.517" fill="#fff"/>
            <rect id="Rectángulo_32945" data-name="Rectángulo 32945" width="50.3" height="3.034" rx="1.517" transform="translate(0 8.241)" fill="#fff"/>
            <rect id="Rectángulo_32946" data-name="Rectángulo 32946" width="50.3" height="3.034" rx="1.517" transform="translate(0 16.479)" fill="#fff"/>
          </g>
          <g id="Grupo_59982" data-name="Grupo 59982" transform="translate(22.035 162.294)">
            <g id="Grupo_59981" data-name="Grupo 59981">
              <path id="Trazado_136976" data-name="Trazado 136976" d="M1586.486,1153.377a4.845,4.845,0,0,1-4.3-2.547c-4.55-8.3-9.973-19.228-9.973-24.161a14.278,14.278,0,1,1,28.556,0c0,4.924-5.427,15.868-9.976,24.161A4.846,4.846,0,0,1,1586.486,1153.377Zm0-38.7a12,12,0,0,0-11.989,11.992c0,3.42,3.532,11.827,9.694,23.061a2.621,2.621,0,0,0,4.594,0c6.159-11.234,9.693-19.639,9.693-23.061A12.005,12.005,0,0,0,1586.486,1114.677Z" transform="translate(-1572.21 -1112.39)" fill="#fff"/>
              <path id="Trazado_136977" data-name="Trazado 136977" d="M1601.407,1151.4a8.656,8.656,0,1,1,8.656-8.656A8.657,8.657,0,0,1,1601.407,1151.4Zm0-15.026a6.369,6.369,0,1,0,6.369,6.369A6.369,6.369,0,0,0,1601.407,1136.377Z" transform="translate(-1587.13 -1128.153)" fill="#fff"/>
            </g>
            <circle id="Elipse_4311" data-name="Elipse 4311" cx="5.434" cy="5.434" r="5.434" transform="translate(8.76 45.75)" fill="#fff"/>
          </g>
          <g id="Grupo_59984" data-name="Grupo 59984" transform="translate(98.286 12.857)">
            <g id="Grupo_59983" data-name="Grupo 59983">
              <path id="Trazado_136978" data-name="Trazado 136978" d="M1864.319,604.679a4.545,4.545,0,0,1-4.041-2.394c-4.273-7.792-9.368-18.057-9.368-22.689a13.406,13.406,0,1,1,26.812,0c0,4.635-5.094,14.9-9.365,22.689A4.552,4.552,0,0,1,1864.319,604.679Zm0-36.342a11.272,11.272,0,0,0-11.261,11.259c0,3.215,3.319,11.108,9.1,21.658a2.463,2.463,0,0,0,4.315,0c5.784-10.55,9.1-18.443,9.1-21.658a11.272,11.272,0,0,0-11.256-11.269Z" transform="translate(-1850.91 -566.19)" fill="#fff"/>
              <path id="Trazado_136979" data-name="Trazado 136979" d="M1878.324,602.823a8.131,8.131,0,1,1,8.129-8.13A8.131,8.131,0,0,1,1878.324,602.823Zm0-14.112a5.983,5.983,0,1,0,5.981,5.982,5.983,5.983,0,0,0-5.981-5.982Z" transform="translate(-1864.915 -580.987)" fill="#fff"/>
            </g>
            <circle id="Elipse_4312" data-name="Elipse 4312" cx="5.103" cy="5.103" r="5.103" transform="translate(7.176 51.84) rotate(-76.61)" fill="#fff"/>
          </g>
        </g>
        <g id="Grupo_59996" data-name="Grupo 59996" transform="translate(8.204 158.038)">
          <g id="Grupo_59986" data-name="Grupo 59986" transform="translate(0 0)">
            <circle id="Elipse_4313" data-name="Elipse 4313" cx="26.208" cy="26.208" r="26.208" transform="translate(0 37.063) rotate(-45)" fill="url(#linear-gradient-20)"/>
            <path id="Trazado_136980" data-name="Trazado 136980" d="M483.069,1001.05H430.7s-2.087,14.908,21.3,54.749a5.83,5.83,0,0,0,4.9,2.961,5.917,5.917,0,0,0,4.906-3.031C485.195,1015.881,483.069,1001.05,483.069,1001.05Z" transform="translate(-419.846 -966.116)" fill="url(#linear-gradient-21)"/>
          </g>
          <path id="Trazado_136981" data-name="Trazado 136981" d="M455.36,994.654v.112h-.476a6.482,6.482,0,0,1-5.557-3.19c-13.68-23.288-18.681-38.005-20.476-46.237a26.374,26.374,0,0,1-.9-5.652,13.278,13.278,0,0,1-.025-2.856l.071-.416a26.966,26.966,0,0,1,53.811.268,12.306,12.306,0,0,1,.044,1.445v.1a27.02,27.02,0,0,1-1.081,7.578c-1.855,8.233-6.654,22.812-20.093,45.709A6.216,6.216,0,0,1,455.36,994.654ZM429.4,937.632s0,1.045.074,1.89v.044a24.933,24.933,0,0,0,.854,5.365v.041c1.767,8.129,6.725,22.675,20.306,45.808a5.336,5.336,0,0,0,4.481,2.418l.238.761V993.2a6.4,6.4,0,0,0,4.273-2.435c13.351-22.75,18.495-37.209,20.213-45.329v-.047a20.3,20.3,0,0,0,.944-7.173l-.085-.107h0a4,4,0,0,0-.222-1.278l-.1-.044a25.481,25.481,0,0,0-50.872.172l-.063.681Z" transform="translate(-417.825 -900.979)" fill="url(#linear-gradient-22)"/>
          <g id="Grupo_59987" data-name="Grupo 59987" transform="translate(22.539 15.116)" opacity="0.48">
            <path id="Trazado_136982" data-name="Trazado 136982" d="M473.782,934.723a.275.275,0,0,1-.194-.088.255.255,0,0,1,.027-.358,23.491,23.491,0,0,1,15.294-5.661.254.254,0,1,1,0,.506,22.98,22.98,0,0,0-14.961,5.539A.25.25,0,0,1,473.782,934.723Z" transform="translate(-473.526 -928.615)" fill="#fff"/>
          </g>
          <g id="Grupo_59988" data-name="Grupo 59988" transform="translate(14.436 26.12)" opacity="0.48">
            <path id="Trazado_136983" data-name="Trazado 136983" d="M444.164,981.569a.254.254,0,0,1-.254-.254,23.427,23.427,0,0,1,3.513-12.361.256.256,0,0,1,.432.274,22.91,22.91,0,0,0-3.436,12.093.255.255,0,0,1-.254.249Z" transform="translate(-443.91 -968.835)" fill="#fff"/>
          </g>
          <g id="Grupo_59995" data-name="Grupo 59995" transform="translate(10.849 16.893)">
            <g id="Grupo_59994" data-name="Grupo 59994" transform="translate(3.921 0.216)">
              <g id="Grupo_59993" data-name="Grupo 59993">
                <g id="Grupo_59989" data-name="Grupo 59989">
                  <path id="Trazado_136984" data-name="Trazado 136984" d="M452.807,945.287l-1.784-6.566-5.2-2.821-.695,1.267,4.651,2.512L455.332,960l.172.58h22.64a6.429,6.429,0,0,0,5.45-2.911l1.034-1.322a10.542,10.542,0,0,0,1.849-5.65v-5.414Zm32.057,5.414a9.029,9.029,0,0,1-1.538,4.87l-.941,1.5a5.188,5.188,0,0,1-4.241,2.435H456.615l-1.176-4.364-2.235-8.238h31.66Z" transform="translate(-445.13 -935.9)" fill="#fff"/>
                  <path id="Trazado_136985" data-name="Trazado 136985" d="M510.5,1018.762a.8.8,0,0,1-.73.821H483.206c-.4,0-.706-.569-.706-.969v-12.539c0-.14.027-.126.093-.235l1.168,4.468h.353v7.647h25.655A.8.8,0,0,1,510.5,1018.762Z" transform="translate(-472.276 -986.705)" fill="#fff"/>
                </g>
                <g id="Grupo_59991" data-name="Grupo 59991" transform="translate(14.911 10.148)">
                  <rect id="Rectángulo_32947" data-name="Rectángulo 32947" width="0.969" height="13.636" transform="translate(8.564)" fill="#fff"/>
                  <g id="Grupo_59990" data-name="Grupo 59990">
                    <rect id="Rectángulo_32948" data-name="Rectángulo 32948" width="0.969" height="13.636" fill="#fff"/>
                    <rect id="Rectángulo_32949" data-name="Rectángulo 32949" width="0.969" height="13.636" transform="translate(16.927)" fill="#fff"/>
                  </g>
                </g>
                <g id="Grupo_59992" data-name="Grupo 59992" transform="translate(8.443 14.159)">
                  <rect id="Rectángulo_32950" data-name="Rectángulo 32950" width="31.54" height="0.867" fill="#fff"/>
                  <rect id="Rectángulo_32951" data-name="Rectángulo 32951" width="29.373" height="0.867" transform="translate(1.376 4.744)" fill="#fff"/>
                </g>
              </g>
              <path id="Trazado_136986" data-name="Trazado 136986" d="M489.224,1059.66a3.132,3.132,0,1,0,2.221.914,3.133,3.133,0,0,0-2.221-.914Zm0,5.023a1.888,1.888,0,1,0,0-.005Z" transform="translate(-474.891 -1025.8)" fill="#fff"/>
              <path id="Trazado_136987" data-name="Trazado 136987" d="M560.335,1059.66a3.133,3.133,0,1,0,3.13,3.133A3.132,3.132,0,0,0,560.335,1059.66Zm0,5.023a1.888,1.888,0,1,0,0-.005Z" transform="translate(-526.538 -1025.8)" fill="#fff"/>
            </g>
            <path id="Trazado_136988" data-name="Trazado 136988" d="M438.638,936.582a1.472,1.472,0,0,1-1.472,1.472h-4.895a1.472,1.472,0,0,1-1.472-1.472h0a1.472,1.472,0,0,1,1.472-1.472h4.895A1.472,1.472,0,0,1,438.638,936.582Z" transform="translate(-430.8 -935.11)" fill="#fff"/>
          </g>
        </g>
        <g id="Grupo_60002" data-name="Grupo 60002" transform="translate(412.877 176.887)">
          <path id="Trazado_136995" data-name="Trazado 136995" d="M2096.236,976.87s5.674,1.891,9.351,10c1,2.219,6.462,2.61,7.026,7.157a5.215,5.215,0,0,0,4.377,4.585c5.825.895,14.8,3.918,16.236,14.027,1.094,7.718-2.84,10.646-6.969,11.658a5.846,5.846,0,0,0-4.432,6.755c.588,2.935-.29,6.331-5.378,9.015-11.4,6.019-22.785-14.252-22.785-14.252l-2.331-35.387Z" transform="translate(-2050.842 -967.401)" fill="url(#linear-gradient-23)"/>
          <path id="Trazado_136996" data-name="Trazado 136996" d="M1973.076,972.86s14.2,22.462,31.088,26.812c0,0-3.283,9.371-5.83,10.443,0,0-20.774-17.335-26.115-34.054Z" transform="translate(-1964.32 -964.488)" fill="url(#linear-gradient-24)"/>
          <path id="Trazado_136997" data-name="Trazado 136997" d="M2223.644,1494.15l.46,3.784a1.565,1.565,0,0,0,1.368,1.368,24.428,24.428,0,0,0,5.064.079,1.341,1.341,0,0,0,1.125-1.737,13.781,13.781,0,0,0-2.539-4.944h-4.2a1.292,1.292,0,0,0-1.281,1.45Z" transform="translate(-2146.948 -1342.103)" fill="url(#linear-gradient-25)"/>
          <path id="Trazado_136998" data-name="Trazado 136998" d="M2095.149,1336l-.709,4.167s2.372,24.032,2.793,33.652a7.516,7.516,0,0,1-1.113,4.282l-4.12,6.681,10.484-6.186.211-1.28-1.718-2.359,2.241-26.919a8.253,8.253,0,0,0-.941-4.566l-2.167-4.077Z" transform="translate(-2051.329 -1228.275)" fill="url(#linear-gradient-26)"/>
          <path id="Trazado_136999" data-name="Trazado 136999" d="M2087.04,1491.438h3.346a2,2,0,0,0,1.6-.785c1.042-1.368,3.2-4,4.238-4.068,1.39-.093,1.212,4.854,1.212,4.854h.78l.987-6.145a3.639,3.639,0,0,0-1.915-3.8h0a5.151,5.151,0,0,1-2.043,3.393c-1.724,1.04-7.015,4.766-7.015,4.766a4.758,4.758,0,0,0-1.368.036.884.884,0,0,0,.18,1.754Z" transform="translate(-2047.063 -1333.96)" fill="url(#linear-gradient-27)"/>
          <path id="Trazado_137000" data-name="Trazado 137000" d="M2156,1338.622s13.9,26.364,16.107,32.383a57.393,57.393,0,0,1,3.009,11.516c.046.744.971,1.456,3.518,1.456a2.438,2.438,0,0,0,2.274-1.037,1.48,1.48,0,0,0,.057-1.439c-.8-1.625-3.357-6.84-4.3-9.184-1.127-2.815-3.557-15.576-4.887-20.014s-2.835-9.247-8.629-13.68C2163.152,1338.622,2159.171,1334.734,2156,1338.622Z" transform="translate(-2097.819 -1228.925)" fill="url(#linear-gradient-28)"/>
          <path id="Trazado_137001" data-name="Trazado 137001" d="M2071.989,1100.909c-3.587-15.193,5.5-23.784,5.5-23.784-5.731-5.5-16.172-8.005-16.172-8.005s-9.964,7.286-8.782,12.987c.692,3.341,7,20.016,7,20.016A13.867,13.867,0,0,0,2071.989,1100.909Z" transform="translate(-2022.588 -1034.412)" fill="url(#linear-gradient-29)"/>
          <path id="Trazado_137002" data-name="Trazado 137002" d="M2096.914,1192.831c-1.458-4.394-7.948-7.521-7.948-7.521a13.868,13.868,0,0,1-12.454,1.215,24.984,24.984,0,0,0-.405,9.65c.9,4.648,6.566,34.522,6.566,34.522,8.93,1.811,22.662-1.819,22.662-1.819C2099.649,1218.779,2098.361,1197.228,2096.914,1192.831Z" transform="translate(-2039.553 -1118.813)" fill="url(#linear-gradient-30)"/>
          <path id="Trazado_137003" data-name="Trazado 137003" d="M2093.727,1029.119l2.914,13.094c.274,1.152-.771.963-1.94.744-1.915-.361-4.378-1.094-5.2-2.588a1.415,1.415,0,0,1-.148-.492l-1.253-9.081a1.642,1.642,0,0,1,.955-1.713l2.416-1.073a1.641,1.641,0,0,1,2.255,1.108Z" transform="translate(-2048.487 -1004.449)" fill="url(#linear-gradient-31)"/>
          <g id="Grupo_60000" data-name="Grupo 60000" transform="translate(34.808 7.688)">
            <path id="Trazado_137004" data-name="Trazado 137004" d="M2075.417,987.568s-3.1,2.1-4.438,7.45.821,7.267,3.056,7.149a10.279,10.279,0,0,0,8.232-4.651C2085.058,993.669,2079.482,985,2075.417,987.568Z" transform="translate(-2070.568 -982.52)" fill="url(#linear-gradient-32)"/>
            <path id="Trazado_137005" data-name="Trazado 137005" d="M2082.279,983.208s1.138-7.661-5.226-6.492l-1.289,1.338s-3.113-3.507.334-6.159,8.23-1.973,10.878,2.854,3.606,8.221,1.387,11.217-3.885.427-3.885.427,1.015-2.6.172-3.71-1.934.648-1.934.648Z" transform="translate(-2073.406 -970.36)" fill="url(#linear-gradient-33)"/>
          </g>
          <g id="Grupo_60001" data-name="Grupo 60001">
            <path id="Trazado_137006" data-name="Trazado 137006" d="M1952.2,955.256c-.044.462,1.68.782,2.229-1.193-.15-.856-.418-4.613-1.078-5.2a69.454,69.454,0,0,0-9.745-6.6,1.278,1.278,0,0,0,.216,1.77l3.119,2.1a12.56,12.56,0,0,0-.854,3.259,3.66,3.66,0,0,0,.919,2.55c.621.709,1.458,1.622,2.211,2.317A3.6,3.6,0,0,0,1952.2,955.256Z" transform="translate(-1943.345 -942.26)" fill="url(#linear-gradient-34)"/>
            <path id="Trazado_137007" data-name="Trazado 137007" d="M1962.379,967.212l.438-.178a26.41,26.41,0,0,0-2.279-4.539,1.112,1.112,0,0,1-.4-.747.548.548,0,0,1,.175-.347l2.542,1.368,1.119,1.748.4-.254-1.182-1.852-2.938-1.57-.12.1a1.094,1.094,0,0,0-.465.788,1.486,1.486,0,0,0,.531,1.094A25.445,25.445,0,0,1,1962.379,967.212Z" transform="translate(-1955.199 -955.757)" fill="url(#linear-gradient-35)"/>
          </g>
          <path id="Trazado_137008" data-name="Trazado 137008" d="M2126.417,1097.677s16.142,33.132,21.981,36.027a66.26,66.26,0,0,1,9.575,1.718.949.949,0,0,1-.038,1.825c-2.531.69-6.719,1.267-10.558-.821,0,0,2.063,3.091.859,4.3,0,0-2.75-3.264-3.781-4.3-.908-.908-17.434-18.925-24.38-29.789-.561-.878-.173-3.485.219-4.451C2121.177,1099.964,2123.169,1096.413,2126.417,1097.677Z" transform="translate(-2071.519 -1054.963)" fill="url(#linear-gradient-36)"/>
          <path id="Trazado_137009" data-name="Trazado 137009" d="M2099.33,978.115a11.811,11.811,0,0,1,3.7,2.172,15.444,15.444,0,0,1,5.346,9.075,20.563,20.563,0,0,0,.469,2.142,4.752,4.752,0,0,0,1.094,1.962,7.092,7.092,0,0,0,1.813,1.3c.646.345,1.306.646,1.916,1a7.866,7.866,0,0,1,3.8,4.845c.2.687.347,1.4.6,2.1a4.287,4.287,0,0,0,1.264,1.888,5.408,5.408,0,0,0,2.019,1.007,20.331,20.331,0,0,0,2.151.449,17.975,17.975,0,0,1,4.12,1.152,12.223,12.223,0,0,1,6.292,5.5,7.112,7.112,0,0,1,.755,4.1,6.112,6.112,0,0,1-1.847,3.707,4.564,4.564,0,0,1-1.806,1.042,4.809,4.809,0,0,1-2.1.1,4.112,4.112,0,0,1-3.253-2.463l-.109.041a4.315,4.315,0,0,0,3.323,2.619,5.038,5.038,0,0,0,2.189-.06,4.874,4.874,0,0,0,1.943-1.064,6.42,6.42,0,0,0,2-3.882,7.5,7.5,0,0,0-.744-4.325,10.7,10.7,0,0,0-2.736-3.453,14.687,14.687,0,0,0-3.748-2.293,18.22,18.22,0,0,0-4.216-1.2,19.975,19.975,0,0,1-2.1-.446,4.974,4.974,0,0,1-1.836-.917,3.875,3.875,0,0,1-1.119-1.68c-.246-.654-.4-1.368-.6-2.066a8.355,8.355,0,0,0-4.043-5.114c-.644-.358-1.306-.657-1.934-.99a6.666,6.666,0,0,1-1.708-1.209,4.3,4.3,0,0,1-1.021-1.781,19.437,19.437,0,0,1-.481-2.093,16.346,16.346,0,0,0-.577-2.118,15.873,15.873,0,0,0-2.011-3.885,15.7,15.7,0,0,0-3.01-3.16,11.934,11.934,0,0,0-3.795-2.12Z" transform="translate(-2056.654 -968.222)" fill="#91b3fa"/>
          <path id="Trazado_137010" data-name="Trazado 137010" d="M2127.45,1014.645a20.573,20.573,0,0,0,.273,2.8,7.791,7.791,0,0,0,.941,2.684,5.3,5.3,0,0,0,.912,1.127,9.6,9.6,0,0,0,1.127.884,21.7,21.7,0,0,1,2.233,1.642,8.267,8.267,0,0,1,2.9,4.435c.416,1.754.3,3.7,1.094,5.54a5.968,5.968,0,0,0,1.828,2.293,9.415,9.415,0,0,0,2.541,1.368,45.1,45.1,0,0,0,5.472,1.289,9.5,9.5,0,0,1,4.818,2.4,3.664,3.664,0,0,1,1.16,2.345,5.843,5.843,0,0,1-.821,2.591l.1.057a5.732,5.732,0,0,0,.985-2.648,3.067,3.067,0,0,0-.328-1.417,5.593,5.593,0,0,0-.821-1.2,9.957,9.957,0,0,0-4.979-2.67,55.4,55.4,0,0,1-5.39-1.346,6.6,6.6,0,0,1-3.959-3.343c-.676-1.628-.649-3.538-1.094-5.406a7.472,7.472,0,0,0-1.187-2.64,10.127,10.127,0,0,0-1.978-2.077c-1.439-1.253-3.333-1.88-4.293-3.431a7.5,7.5,0,0,1-1.015-2.525,25.658,25.658,0,0,1-.416-2.752Z" transform="translate(-2077.08 -994.837)" fill="#91b3fa"/>
        </g>
        <g id="Grupo_60022" data-name="Grupo 60022" transform="translate(76.481 226.336)">
          <g id="Grupo_60011" data-name="Grupo 60011">
            <rect id="Rectángulo_32952" data-name="Rectángulo 32952" width="137.303" height="12.596" transform="translate(6.55 77.597)" fill="url(#linear-gradient-37)"/>
            <rect id="Rectángulo_32953" data-name="Rectángulo 32953" width="4.03" height="15.62" transform="translate(3.527 77.597)" fill="url(#linear-gradient-38)"/>
            <path id="Trazado_137011" data-name="Trazado 137011" d="M783.051,1128.516c0-3.01-3.171-5.516-6.61-5.516H646.867c-3.442,0-6.167,2.514-6.167,5.516V1196.8c0,3.01,2.736,5.559,6.167,5.559H776.433c3.439,0,6.61-2.558,6.61-5.559Z" transform="translate(-640.7 -1123)" fill="url(#linear-gradient-39)"/>
            <path id="Trazado_137012" data-name="Trazado 137012" d="M787.873,1139.963c0-2.736-2.367-4.993-5.611-4.993H660.033c-3.245,0-6.443,2.246-6.443,4.993v62.415c0,2.736,3.2,5.4,6.443,5.4H782.262a5.568,5.568,0,0,0,5.611-5.4Z" transform="translate(-650.063 -1131.695)" fill="url(#linear-gradient-40)"/>
            <path id="Trazado_137013" data-name="Trazado 137013" d="M1208.022,1252.474l-8.512-26.265a1.554,1.554,0,0,0-1.521-1.051h-34.2v62.229h46.262Z" transform="translate(-1020.676 -1197.207)" fill="url(#linear-gradient-41)"/>
            <path id="Trazado_137014" data-name="Trazado 137014" d="M1234.322,1416.6a2.846,2.846,0,0,0-1.641-.454l-35.655.687-.156,10.123,35.622.875c1.305,0,2.435-.629,2.435-1.513v-8.572A1.268,1.268,0,0,0,1234.322,1416.6Z" transform="translate(-1044.705 -1335.942)" fill="url(#linear-gradient-42)"/>
            <g id="Grupo_60003" data-name="Grupo 60003" transform="translate(152.291 31.584)">
              <path id="Trazado_137015" data-name="Trazado 137015" d="M1225.742,1260.729l-5.146-20.407a1.678,1.678,0,0,0-1.548-1.292h-20.12a1.748,1.748,0,0,0-1.6,1.776l.481,16.336a1.609,1.609,0,0,0,1.343,1.543l24.782,4.008a1.595,1.595,0,0,0,1.806-1.964Z" transform="translate(-1197.329 -1238.868)" fill="url(#linear-gradient-43)"/>
              <path id="Trazado_137016" data-name="Trazado 137016" d="M1293.143,1238.44l-.274.044a1.6,1.6,0,0,0-1.283,1.995l5.609,20.853a1.6,1.6,0,0,0,1.839,1.155l1.77-.331Z" transform="translate(-1265.759 -1238.44)" fill="url(#linear-gradient-44)"/>
            </g>
            <rect id="Rectángulo_32954" data-name="Rectángulo 32954" width="9.321" height="3.778" rx="1.889" transform="translate(152.674 56.686)" fill="url(#linear-gradient-45)"/>
            <path id="Trazado_137017" data-name="Trazado 137017" d="M1166.123,1158.03a2.288,2.288,0,0,0-1.611.493,2.071,2.071,0,0,0-.771,1.4V1176.4H1184.6S1183.483,1159.3,1166.123,1158.03Z" transform="translate(-1020.639 -1148.441)" fill="url(#linear-gradient-46)"/>
            <g id="Grupo_60005" data-name="Grupo 60005" transform="translate(145.905 72.688)">
              <g id="Grupo_60004" data-name="Grupo 60004" transform="translate(0 0)">
                <circle id="Elipse_4315" data-name="Elipse 4315" cx="16.213" cy="16.213" r="16.213" transform="translate(0 5.196) rotate(-9.22)" fill="url(#linear-gradient-47)"/>
                <circle id="Elipse_4316" data-name="Elipse 4316" cx="13.165" cy="13.165" r="13.165" transform="translate(4.555 6.391) rotate(-4.07)" fill="url(#linear-gradient-48)"/>
                <path id="Trazado_137018" data-name="Trazado 137018" d="M1238.052,1429.91a.254.254,0,0,1-.233-.35,11.409,11.409,0,0,0-16.076-14.4.252.252,0,1,1-.246-.44,11.912,11.912,0,0,1,16.785,15.031A.246.246,0,0,1,1238.052,1429.91Z" transform="translate(-1208.405 -1406.497)" fill="url(#linear-gradient-49)"/>
              </g>
              <circle id="Elipse_4317" data-name="Elipse 4317" cx="6.038" cy="6.038" r="6.038" transform="translate(10.697 21.89) rotate(-67.5)" fill="url(#linear-gradient-50)"/>
            </g>
            <g id="Grupo_60007" data-name="Grupo 60007" transform="translate(46.473 73.225)">
              <g id="Grupo_60006" data-name="Grupo 60006" transform="translate(0 0)">
                <circle id="Elipse_4318" data-name="Elipse 4318" cx="16.213" cy="16.213" r="16.213" transform="translate(0 3.963) rotate(-7.02)" fill="url(#linear-gradient-51)"/>
                <circle id="Elipse_4319" data-name="Elipse 4319" cx="13.165" cy="13.165" r="13.165" transform="translate(4.029 5.862) rotate(-4.07)" fill="url(#linear-gradient-52)"/>
                <path id="Trazado_137019" data-name="Trazado 137019" d="M872.7,1429.914a.262.262,0,0,1-.1-.022.249.249,0,0,1-.134-.328,11.409,11.409,0,0,0-16.076-14.4.252.252,0,1,1-.246-.44,11.915,11.915,0,0,1,16.788,15.031A.252.252,0,0,1,872.7,1429.914Z" transform="translate(-843.581 -1407.039)" fill="url(#linear-gradient-53)"/>
              </g>
              <circle id="Elipse_4320" data-name="Elipse 4320" cx="6.038" cy="6.038" r="6.038" transform="translate(10.17 21.349) rotate(-67.5)" fill="url(#linear-gradient-54)"/>
            </g>
            <g id="Grupo_60009" data-name="Grupo 60009" transform="translate(9.94 73.817)">
              <g id="Grupo_60008" data-name="Grupo 60008" transform="translate(0 0)">
                <circle id="Elipse_4321" data-name="Elipse 4321" cx="16.213" cy="16.213" r="16.213" transform="translate(0 2.674) rotate(-4.73)" fill="url(#linear-gradient-55)"/>
                <circle id="Elipse_4322" data-name="Elipse 4322" cx="13.165" cy="13.165" r="13.165" transform="translate(3.072 5.708) rotate(-5.65)" fill="url(#linear-gradient-52)"/>
                <path id="Trazado_137020" data-name="Trazado 137020" d="M737.132,1429.914a.263.263,0,0,1-.1-.022.249.249,0,0,1-.134-.328,11.409,11.409,0,0,0-16.077-14.4.252.252,0,0,1-.246-.441,11.915,11.915,0,0,1,16.788,15.031A.252.252,0,0,1,737.132,1429.914Z" transform="translate(-708.569 -1407.631)" fill="url(#linear-gradient-57)"/>
              </g>
              <circle id="Elipse_4323" data-name="Elipse 4323" cx="6.038" cy="6.038" r="6.038" transform="translate(9.613 20.758) rotate(-67.5)" fill="url(#linear-gradient-58)"/>
            </g>
            <g id="Grupo_60010" data-name="Grupo 60010" transform="translate(182.151 71.047)">
              <rect id="Rectángulo_32955" data-name="Rectángulo 32955" width="7.305" height="8.818" rx="3.652" transform="translate(0)" fill="url(#linear-gradient-59)"/>
              <path id="Trazado_137021" data-name="Trazado 137021" d="M1309.745,1382.68v8.312h-1.316a2.2,2.2,0,0,1-1.959-1.874v-5.256c0-.884,1.075-1.171,1.959-1.171Z" transform="translate(-1306.47 -1382.68)" fill="#fff" opacity="0.8"/>
            </g>
            <path id="Trazado_137022" data-name="Trazado 137022" d="M1173.191,1275.548a.254.254,0,0,1-.254-.252v-37.042a.254.254,0,1,1,.506,0v37.034a.252.252,0,0,1-.252.26Z" transform="translate(-1027.318 -1206.517)" fill="url(#linear-gradient-60)"/>
            <path id="Trazado_137023" data-name="Trazado 137023" d="M1185.193,1182.677a.249.249,0,0,1-.238-.17c-1.393-4.032-4.131-9.351-9.28-11.764a11.334,11.334,0,0,0-5.57-1.163.252.252,0,1,1-.057-.5,11.828,11.828,0,0,1,5.844,1.206c5.3,2.5,8.117,7.935,9.54,12.063a.252.252,0,0,1-.156.32A.212.212,0,0,1,1185.193,1182.677Z" transform="translate(-1025.059 -1156.455)" fill="#fff"/>
          </g>
          <g id="Grupo_60013" data-name="Grupo 60013" transform="translate(5.689 32.53)">
            <path id="Trazado_137024" data-name="Trazado 137024" d="M720.576,1282.99a6.292,6.292,0,0,0,6.419-6.293v-28.032a6.717,6.717,0,0,0-6.643-6.719c-11.051-.12-33.844-.126-52.495,1.444a5.046,5.046,0,0,0-4.616,4.854l-1.743,27.086a6.415,6.415,0,0,0,6.293,6.648Z" transform="translate(-661.494 -1241.898)" fill="url(#linear-gradient-61)"/>
            <path id="Trazado_137025" data-name="Trazado 137025" d="M841.673,1272.109c.046,2.386-.025,6.17-.082,8.616a2.161,2.161,0,0,1-2.41,2.093l-9.1-1.067a2.161,2.161,0,0,1-1.885-2.462l1.116-7.447a2.161,2.161,0,0,1,2.137-1.841h8.06A2.159,2.159,0,0,1,841.673,1272.109Z" transform="translate(-782.572 -1262.311)" fill="#fff" opacity="0.84"/>
            <path id="Trazado_137026" data-name="Trazado 137026" d="M765.456,1266.11l-7.587.821a1.713,1.713,0,0,1-1.891-1.825l1.661-22.569c3.179-.1,6.317-.175,9.343-.227v22.1A1.71,1.71,0,0,1,765.456,1266.11Z" transform="translate(-730.125 -1242.197)" fill="#fff" opacity="0.37"/>
            <path id="Trazado_137027" data-name="Trazado 137027" d="M775.217,1262.38a.761.761,0,0,1-.761.719h-.044a.758.758,0,0,1-.717-.8l1.144-19.7,1.529-.036Z" transform="translate(-742.997 -1242.379)" fill="#fff"/>
            <g id="Grupo_60012" data-name="Grupo 60012" transform="translate(49.073 9.915)">
              <path id="Trazado_137028" data-name="Trazado 137028" d="M861.446,1285.863a.255.255,0,0,0,.255-.238l.394-6.2a.257.257,0,0,0-.238-.274.249.249,0,0,0-.273.238l-.394,6.2a.257.257,0,0,0,.238.274Z" transform="translate(-855.626 -1278.87)" fill="url(#linear-gradient-62)"/>
              <path id="Trazado_137029" data-name="Trazado 137029" d="M858.471,1285.527a.257.257,0,0,0,.254-.246l.205-6.323a.249.249,0,0,0-.243-.274.241.241,0,0,0-.274.246l-.205,6.323a.257.257,0,0,0,.246.273Z" transform="translate(-853.461 -1278.533)" fill="url(#linear-gradient-63)"/>
              <path id="Trazado_137030" data-name="Trazado 137030" d="M854.512,1285.54a.257.257,0,0,1-.243-.274c.1-2.123.293-6.175.3-6.312a.254.254,0,1,1,.509,0c0,.1-.249,5.294-.3,6.334a.254.254,0,0,1-.254.243Zm.049-6.566Z" transform="translate(-850.599 -1278.546)" fill="url(#linear-gradient-64)"/>
              <path id="Trazado_137031" data-name="Trazado 137031" d="M847.648,1285.438a.509.509,0,0,0,.509-.492c.216-6.126.178-6.262.153-6.355a.509.509,0,0,0-1,.2c.016.367-.1,3.932-.175,6.118a.509.509,0,0,0,.493.525Z" transform="translate(-845.42 -1278.19)" fill="url(#linear-gradient-65)"/>
              <path id="Trazado_137032" data-name="Trazado 137032" d="M844.324,1285.874a.255.255,0,0,0,.255-.254v-6.205a.254.254,0,0,0-.509,0v6.205A.254.254,0,0,0,844.324,1285.874Z" transform="translate(-843.191 -1278.88)" fill="url(#linear-gradient-66)"/>
              <path id="Trazado_137033" data-name="Trazado 137033" d="M841.094,1285.807a.257.257,0,0,0,.254-.249c.049-2.156.161-5.677.274-6.1a.253.253,0,0,0-.353-.347c-.137.09-.274.178-.411,6.426a.257.257,0,0,0,.249.274Z" transform="translate(-840.858 -1278.813)" fill="url(#linear-gradient-67)"/>
              <path id="Trazado_137034" data-name="Trazado 137034" d="M865.782,1285.695a.509.509,0,0,0,.512-.481l.339-6.514a.509.509,0,1,0-1.015-.055l-.342,6.517a.509.509,0,0,0,.484.547Z" transform="translate(-858.594 -1278.138)" fill="url(#linear-gradient-68)"/>
            </g>
          </g>
          <g id="Grupo_60015" data-name="Grupo 60015" transform="translate(70.312 34.88)">
            <path id="Trazado_137035" data-name="Trazado 137035" d="M956.776,1291.582a6.293,6.293,0,0,0,6.421-6.292v-28.035a6.717,6.717,0,0,0-6.643-6.72c-11.05-.12-33.846-.126-52.495,1.447a5.045,5.045,0,0,0-4.618,4.851l-1.743,27.086a6.416,6.416,0,0,0,6.293,6.645Z" transform="translate(-897.695 -1250.488)" fill="url(#linear-gradient-69)"/>
            <path id="Trazado_137036" data-name="Trazado 137036" d="M1077.88,1280.717c.047,2.383-.025,6.167-.082,8.613a2.159,2.159,0,0,1-2.411,2.093l-9.094-1.064a2.161,2.161,0,0,1-1.885-2.462l1.116-7.447a2.161,2.161,0,0,1,2.137-1.839h8.06A2.156,2.156,0,0,1,1077.88,1280.717Z" transform="translate(-1018.78 -1270.916)" fill="#fff" opacity="0.84"/>
            <path id="Trazado_137037" data-name="Trazado 137037" d="M1001.663,1274.693l-7.587.821a1.713,1.713,0,0,1-1.888-1.828l1.658-22.569c3.179-.1,6.317-.175,9.346-.227v22.1A1.71,1.71,0,0,1,1001.663,1274.693Z" transform="translate(-966.332 -1250.78)" fill="#fff" opacity="0.37"/>
            <path id="Trazado_137038" data-name="Trazado 137038" d="M1011.418,1270.928a.763.763,0,0,1-.761.717h-.047a.764.764,0,0,1-.717-.821l1.144-19.7,1.532-.036Z" transform="translate(-979.195 -1250.925)" fill="#fff"/>
            <g id="Grupo_60014" data-name="Grupo 60014" transform="translate(49.07 9.941)">
              <path id="Trazado_137039" data-name="Trazado 137039" d="M1097.647,1294.453a.254.254,0,0,0,.252-.238l.394-6.205a.251.251,0,0,0-.238-.274.246.246,0,0,0-.273.238l-.394,6.2a.251.251,0,0,0,.238.273Z" transform="translate(-1091.822 -1287.484)" fill="url(#linear-gradient-70)"/>
              <path id="Trazado_137040" data-name="Trazado 137040" d="M1094.673,1294.117a.254.254,0,0,0,.254-.246l.205-6.323a.258.258,0,0,0-.246-.274.241.241,0,0,0-.274.246l-.205,6.323a.251.251,0,0,0,.246.274Z" transform="translate(-1089.657 -1287.148)" fill="url(#linear-gradient-71)"/>
              <path id="Trazado_137041" data-name="Trazado 137041" d="M1090.718,1294.123a.251.251,0,0,1-.241-.274c.1-2.123.293-6.175.3-6.314a.254.254,0,1,1,.509,0c0,.1-.246,5.3-.3,6.336a.252.252,0,0,1-.252.241Zm.049-6.566Z" transform="translate(-1086.802 -1287.155)" fill="url(#linear-gradient-72)"/>
              <path id="Trazado_137042" data-name="Trazado 137042" d="M1083.858,1294.044a.506.506,0,0,0,.506-.49c.216-6.126.178-6.266.153-6.356a.509.509,0,0,0-1,.2c.017.369-.1,3.934-.173,6.12a.506.506,0,0,0,.49.525Z" transform="translate(-1081.625 -1286.821)" fill="url(#linear-gradient-73)"/>
              <path id="Trazado_137043" data-name="Trazado 137043" d="M1080.5,1294.471a.254.254,0,0,0,.255-.254v-6.2a.254.254,0,1,0-.509,0v6.2a.252.252,0,0,0,.254.254Z" transform="translate(-1079.374 -1287.503)" fill="url(#linear-gradient-74)"/>
              <path id="Trazado_137044" data-name="Trazado 137044" d="M1077.286,1294.406a.252.252,0,0,0,.255-.249c.049-2.156.164-5.677.274-6.1a.272.272,0,0,0,0-.273.251.251,0,0,0-.353-.071c-.14.09-.274.175-.413,6.424a.255.255,0,0,0,.249.274Z" transform="translate(-1077.047 -1287.438)" fill="url(#linear-gradient-75)"/>
              <path id="Trazado_137045" data-name="Trazado 137045" d="M1101.987,1294.357a.512.512,0,0,0,.509-.484l.339-6.514a.51.51,0,0,0-1.018-.052l-.339,6.515a.509.509,0,0,0,.481.533Z" transform="translate(-1094.794 -1286.822)" fill="url(#linear-gradient-76)"/>
            </g>
          </g>
          <g id="Grupo_60017" data-name="Grupo 60017" transform="translate(8.541 4.391)">
            <path id="Trazado_137046" data-name="Trazado 137046" d="M717.9,1163.483V1143.8a4.714,4.714,0,0,0-4.651-4.717c-7.762-.085-23.767-.09-36.864,1.015a3.557,3.557,0,0,0-3.245,3.406l-1.223,19.031a4.506,4.506,0,0,0,4.416,4.681l37.069.706a4.427,4.427,0,0,0,4.5-4.438Z" transform="translate(-671.917 -1139.048)" fill="url(#linear-gradient-77)"/>
            <path id="Trazado_137047" data-name="Trazado 137047" d="M798.448,1160.3c.033,1.675-.016,4.331-.057,6.049a1.516,1.516,0,0,1-1.694,1.469l-6.386-.733a1.521,1.521,0,0,1-1.324-1.732l.785-5.231a1.513,1.513,0,0,1,1.5-1.292h5.661A1.513,1.513,0,0,1,798.448,1160.3Z" transform="translate(-756.946 -1153.418)" fill="#fff" opacity="0.84"/>
            <path id="Trazado_137048" data-name="Trazado 137048" d="M744.925,1156.047l-5.327.574a1.2,1.2,0,0,1-1.327-1.283l1.163-15.849c2.235-.071,4.438-.123,6.566-.159v15.521A1.2,1.2,0,0,1,744.925,1156.047Z" transform="translate(-720.115 -1139.253)" fill="#fff" opacity="0.37"/>
            <path id="Trazado_137049" data-name="Trazado 137049" d="M751.75,1153.431a.547.547,0,0,1-.547.5h-.03a.547.547,0,0,1-.5-.566l.8-13.833,1.075-.025Z" transform="translate(-729.123 -1139.384)" fill="#fff"/>
            <g id="Grupo_60016" data-name="Grupo 60016" transform="translate(34.468 6.959)">
              <path id="Trazado_137050" data-name="Trazado 137050" d="M812.337,1169.978a.181.181,0,0,0,.181-.167l.274-4.358a.181.181,0,0,0-.358-.022l-.274,4.356a.183.183,0,0,0,.167.191Z" transform="translate(-808.258 -1165.063)" fill="url(#linear-gradient-78)"/>
              <path id="Trazado_137051" data-name="Trazado 137051" d="M810.26,1169.707a.178.178,0,0,0,.178-.172l.145-4.441a.181.181,0,0,0-.172-.186.17.17,0,0,0-.186.172l-.145,4.44a.181.181,0,0,0,.172.186Z" transform="translate(-806.747 -1164.792)" fill="url(#linear-gradient-79)"/>
              <path id="Trazado_137052" data-name="Trazado 137052" d="M807.469,1169.709a.181.181,0,0,1-.17-.189c.071-1.491.205-4.336.208-4.432a.178.178,0,1,1,.356,0c0,.074-.172,3.721-.208,4.451a.181.181,0,0,1-.178.17Zm.033-4.621Z" transform="translate(-804.728 -1164.793)" fill="url(#linear-gradient-80)"/>
              <path id="Trazado_137053" data-name="Trazado 137053" d="M802.648,1169.578a.356.356,0,0,0,.356-.345c.15-4.3.123-4.4.107-4.462a.356.356,0,0,0-.7.14c0,.274-.068,2.764-.123,4.3a.356.356,0,0,0,.345.37Z" transform="translate(-801.088 -1164.485)" fill="url(#linear-gradient-81)"/>
              <path id="Trazado_137054" data-name="Trazado 137054" d="M800.291,1169.986a.178.178,0,0,0,.178-.181v-4.356a.181.181,0,0,0-.358,0v4.356a.178.178,0,0,0,.181.181Z" transform="translate(-799.505 -1165.07)" fill="url(#linear-gradient-82)"/>
              <path id="Trazado_137055" data-name="Trazado 137055" d="M798.059,1169.905a.177.177,0,0,0,.178-.175c.036-1.513.115-3.986.186-4.284a.183.183,0,0,0,0-.186.181.181,0,0,0-.249-.049c-.1.063-.189.123-.274,4.512a.178.178,0,0,0,.172.183Z" transform="translate(-797.9 -1164.99)" fill="url(#linear-gradient-83)"/>
              <path id="Trazado_137056" data-name="Trazado 137056" d="M815.377,1169.851a.358.358,0,0,0,.356-.339l.238-4.574a.358.358,0,0,0-.337-.378.364.364,0,0,0-.378.339l-.238,4.575a.361.361,0,0,0,.339.377Z" transform="translate(-810.335 -1164.539)" fill="url(#linear-gradient-84)"/>
            </g>
          </g>
          <g id="Grupo_60019" data-name="Grupo 60019" transform="translate(54.798 4.963)">
            <path id="Trazado_137057" data-name="Trazado 137057" d="M880.746,1165.59v-19.7c0-2.585-1.8-4.69-4.03-4.719-6.709-.085-20.542-.088-31.863,1.015a3.374,3.374,0,0,0-2.8,3.409l-1.059,19.034c-.079,2.517,1.642,4.619,3.83,4.668l32.038.7C878.99,1170.058,880.746,1168.066,880.746,1165.59Z" transform="translate(-840.99 -1141.139)" fill="url(#linear-gradient-85)"/>
            <path id="Trazado_137058" data-name="Trazado 137058" d="M950.355,1162.4c.027,1.677-.014,4.334-.049,6.049a1.392,1.392,0,0,1-1.464,1.472l-5.518-.75a1.488,1.488,0,0,1-1.144-1.732l.676-5.229a1.39,1.39,0,0,1,1.3-1.294h4.892A1.417,1.417,0,0,1,950.355,1162.4Z" transform="translate(-914.484 -1155.508)" fill="#fff" opacity="0.84"/>
            <path id="Trazado_137059" data-name="Trazado 137059" d="M904.094,1158.186l-4.6.575a1.127,1.127,0,0,1-1.146-1.281l1.007-15.849c1.932-.071,3.83-.123,5.672-.161v15.524A1.149,1.149,0,0,1,904.094,1158.186Z" transform="translate(-882.649 -1141.379)" fill="#fff" opacity="0.37"/>
            <path id="Trazado_137060" data-name="Trazado 137060" d="M910.015,1155.578a.5.5,0,0,1-.462.506h-.027a.509.509,0,0,1-.435-.563l.692-13.836.93-.025Z" transform="translate(-890.456 -1141.517)" fill="#fff"/>
            <g id="Grupo_60018" data-name="Grupo 60018" transform="translate(29.78 6.985)">
              <path id="Trazado_137061" data-name="Trazado 137061" d="M962.36,1172.074a.164.164,0,0,0,.153-.167l.241-4.356a.175.175,0,0,0-.145-.191.162.162,0,0,0-.118.048.16.16,0,0,0-.046.119l-.238,4.359a.169.169,0,0,0,.142.188Z" transform="translate(-958.821 -1167.171)" fill="url(#linear-gradient-86)"/>
              <path id="Trazado_137062" data-name="Trazado 137062" d="M960.591,1171.856a.164.164,0,0,0,.156-.172l.123-4.44a.167.167,0,0,0-.148-.183.159.159,0,0,0-.159.172l-.126,4.44a.167.167,0,0,0,.148.183Z" transform="translate(-957.537 -1166.953)" fill="url(#linear-gradient-87)"/>
              <path id="Trazado_137063" data-name="Trazado 137063" d="M958.145,1171.856a.17.17,0,0,1-.148-.186c.06-1.491.178-4.336.181-4.435a.167.167,0,0,1,.153-.175.17.17,0,0,1,.156.178c0,.074-.151,3.718-.181,4.449a.17.17,0,0,1-.156.169Zm.03-4.618Z" transform="translate(-955.764 -1166.953)" fill="url(#linear-gradient-88)"/>
              <path id="Trazado_137064" data-name="Trazado 137064" d="M953.975,1171.787a.334.334,0,0,0,.309-.345c.131-4.3.107-4.4.093-4.465a.309.309,0,0,0-.38-.252.361.361,0,0,0-.224.394c0,.257-.06,2.76-.107,4.3a.339.339,0,0,0,.3.369Z" transform="translate(-952.617 -1166.704)" fill="url(#linear-gradient-89)"/>
              <path id="Trazado_137065" data-name="Trazado 137065" d="M951.942,1172.07a.167.167,0,0,0,.153-.178v-4.361a.156.156,0,1,0-.309,0v4.358a.167.167,0,0,0,.156.181Z" transform="translate(-951.252 -1167.167)" fill="url(#linear-gradient-90)"/>
              <path id="Trazado_137066" data-name="Trazado 137066" d="M949.986,1172.049a.167.167,0,0,0,.156-.172c.027-1.516.1-3.989.159-4.284a.2.2,0,0,0,0-.186.142.142,0,0,0-.213-.052c-.085.066-.164.126-.249,4.512a.166.166,0,0,0,.15.183Z" transform="translate(-949.837 -1167.147)" fill="url(#linear-gradient-91)"/>
              <path id="Trazado_137067" data-name="Trazado 137067" d="M964.984,1171.959a.332.332,0,0,0,.306-.339l.208-4.574a.342.342,0,0,0-.293-.375.334.334,0,0,0-.325.339l-.205,4.575a.342.342,0,0,0,.293.375Z" transform="translate(-960.614 -1166.67)" fill="url(#linear-gradient-92)"/>
            </g>
          </g>
          <g id="Grupo_60021" data-name="Grupo 60021" transform="translate(94.743 6.191)">
            <path id="Trazado_137068" data-name="Trazado 137068" d="M1026.741,1170.064v-19.682c0-2.585-1.8-4.692-4.03-4.72-6.709-.085-20.542-.087-31.863,1.015a3.374,3.374,0,0,0-2.8,3.409l-1.053,19.031c-.077,2.517,1.641,4.618,3.83,4.668l32.038.7C1024.985,1174.534,1026.741,1172.543,1026.741,1170.064Z" transform="translate(-986.991 -1145.629)" fill="url(#linear-gradient-93)"/>
            <path id="Trazado_137069" data-name="Trazado 137069" d="M1096.329,1166.843c.027,1.675,0,4.334-.049,6.049a1.392,1.392,0,0,1-1.464,1.472l-5.518-.75a1.492,1.492,0,0,1-1.146-1.732l.679-5.228a1.39,1.39,0,0,1,1.3-1.294h4.892A1.423,1.423,0,0,1,1096.329,1166.843Z" transform="translate(-1060.464 -1159.962)" fill="#fff" opacity="0.84"/>
            <path id="Trazado_137070" data-name="Trazado 137070" d="M1050.074,1162.617l-4.6.574a1.12,1.12,0,0,1-1.146-1.28l1.007-15.852c1.932-.068,3.83-.12,5.672-.159v15.524A1.149,1.149,0,0,1,1050.074,1162.617Z" transform="translate(-1028.635 -1145.826)" fill="#fff" opacity="0.37"/>
            <path id="Trazado_137071" data-name="Trazado 137071" d="M1055.992,1160.048a.5.5,0,0,1-.459.506h-.027a.511.511,0,0,1-.435-.566l.692-13.833.93-.025Z" transform="translate(-1036.442 -1145.993)" fill="#fff"/>
            <g id="Grupo_60020" data-name="Grupo 60020" transform="translate(29.774 6.981)">
              <path id="Trazado_137072" data-name="Trazado 137072" d="M1108.3,1176.484h0a.164.164,0,0,0,.153-.167l.241-4.358a.175.175,0,0,0-.145-.189.161.161,0,0,0-.164.167l-.238,4.358a.17.17,0,0,0,.153.189Z" transform="translate(-1104.773 -1171.599)" fill="url(#linear-gradient-94)"/>
              <path id="Trazado_137073" data-name="Trazado 137073" d="M1106.591,1176.266a.167.167,0,0,0,.156-.172l.123-4.44a.167.167,0,0,0-.148-.183.159.159,0,0,0-.159.172l-.126,4.44a.167.167,0,0,0,.148.183Z" transform="translate(-1103.531 -1171.381)" fill="url(#linear-gradient-95)"/>
              <path id="Trazado_137074" data-name="Trazado 137074" d="M1104.125,1176.266a.169.169,0,0,1-.148-.186c.06-1.491.178-4.336.18-4.435a.167.167,0,0,1,.153-.175.17.17,0,0,1,.156.178c0,.074-.151,3.718-.181,4.449a.169.169,0,0,1-.156.17Zm.03-4.618Z" transform="translate(-1101.744 -1171.381)" fill="url(#linear-gradient-96)"/>
              <path id="Trazado_137075" data-name="Trazado 137075" d="M1099.915,1176.217h0a.334.334,0,0,0,.309-.345c.131-4.3.107-4.4.093-4.465a.31.31,0,0,0-.38-.252.361.361,0,0,0-.224.394c0,.257-.06,2.76-.107,4.3a.34.34,0,0,0,.309.372Z" transform="translate(-1098.568 -1171.146)" fill="url(#linear-gradient-97)"/>
              <path id="Trazado_137076" data-name="Trazado 137076" d="M1097.922,1176.487a.167.167,0,0,0,.153-.178v-4.359a.156.156,0,1,0-.309,0v4.359a.166.166,0,0,0,.156.178Z" transform="translate(-1097.232 -1171.603)" fill="url(#linear-gradient-98)"/>
              <path id="Trazado_137077" data-name="Trazado 137077" d="M1095.966,1176.46a.167.167,0,0,0,.156-.175c.027-1.513.1-3.986.159-4.282a.2.2,0,0,0,0-.186.142.142,0,0,0-.213-.052c-.085.063-.164.126-.249,4.512a.169.169,0,0,0,.15.183Z" transform="translate(-1095.818 -1171.575)" fill="url(#linear-gradient-99)"/>
              <path id="Trazado_137078" data-name="Trazado 137078" d="M1110.948,1176.439h.017a.331.331,0,0,0,.306-.339l.208-4.575a.342.342,0,0,0-.293-.375.334.334,0,0,0-.326.34l-.205,4.574A.342.342,0,0,0,1110.948,1176.439Z" transform="translate(-1106.594 -1171.149)" fill="url(#linear-gradient-100)"/>
            </g>
          </g>
        </g>
      </g>
    </g>
  </g>
</svg>
