<svg id="producto-3" xmlns="http://www.w3.org/2000/svg" width="152.8" height="168.612" viewBox="0 0 152.8 168.612">
  <g id="Grupo_55957" data-name="Grupo 55957" transform="translate(0 0)">
    <g id="Grupo_55956" data-name="Grupo 55956">
      <path id="Trazado_121406" data-name="Trazado 121406" d="M232.615,108.82l-69.3-31.353a5.607,5.607,0,0,0-4.561,0L142.29,84.916a17.516,17.516,0,0,0,.095-1.764c0-11.123-10.461-20.14-23.366-20.14s-23.366,9.017-23.366,20.14c0,7.506,4.767,14.048,11.83,17.512L89.455,108.82a4.2,4.2,0,0,0-2.626,3.744v103.49c0,2.336,2.2,4.229,4.906,4.229h138.6c2.71,0,4.906-1.893,4.906-4.229V112.564a4.2,4.2,0,0,0-2.627-3.744Z" transform="translate(-84.587 -51.67)" fill="#2626bc" opacity="0.1"/>
      <g id="Grupo_55955" data-name="Grupo 55955">
        <g id="Grupo_55952" data-name="Grupo 55952" transform="translate(2.193 15.856)">
          <g id="Grupo_55951" data-name="Grupo 55951">
            <path id="Trazado_121407" data-name="Trazado 121407" d="M235.13,214.023V110.534a4.2,4.2,0,0,0-2.626-3.745L163.2,75.437a5.607,5.607,0,0,0-4.561,0l-69.3,31.353a4.2,4.2,0,0,0-2.626,3.745v103.49c0,2.336,2.2,4.229,4.906,4.229h138.6C232.934,218.253,235.13,216.359,235.13,214.023Z" transform="translate(-86.717 -74.952)" fill="#9fb0fe"/>
            <path id="Trazado_121408" data-name="Trazado 121408" d="M160.058,102.878c0,11.123-10.462,20.14-23.367,20.14a24.883,24.883,0,0,1-18.291-7.6l40.654-18.394A17.548,17.548,0,0,1,160.058,102.878Z" transform="translate(-104.502 -88.678)" fill="#8399fe"/>
            <path id="Trazado_121409" data-name="Trazado 121409" d="M86.718,258.482v69.683c0,2.336,2.2,4.229,4.906,4.229h138.6c2.71,0,4.906-1.893,4.906-4.229V258.482Z" transform="translate(-86.718 -189.093)" fill="#d2deff"/>
            <path id="Trazado_121410" data-name="Trazado 121410" d="M238.694,216.985v86.969H115.76V216.985c0-2.337,2.2-4.231,4.908-4.231H233.79C236.5,212.754,238.694,214.648,238.694,216.985Z" transform="translate(-103.02 -160.654)" fill="#4369fd"/>
            <g id="Grupo_55938" data-name="Grupo 55938" transform="translate(28.302 110.194)">
              <g id="Grupo_55929" data-name="Grupo 55929" transform="translate(0 0)">
                <g id="Grupo_55928" data-name="Grupo 55928">
                  <g id="Grupo_55926" data-name="Grupo 55926">
                    <path id="Trazado_121411" data-name="Trazado 121411" d="M187.209,399.525H153.688a2.3,2.3,0,0,1-2.45-2.112V368.521a2.3,2.3,0,0,1,2.45-2.112h33.521a2.3,2.3,0,0,1,2.45,2.112v28.893A2.3,2.3,0,0,1,187.209,399.525Z" transform="translate(-151.238 -366.409)" fill="#ffa8cf"/>
                    <path id="Trazado_121412" data-name="Trazado 121412" d="M192.455,377.607h-7.221a1.15,1.15,0,0,1-1.225-1.056V366.409h9.671v10.142A1.149,1.149,0,0,1,192.455,377.607Z" transform="translate(-169.634 -366.409)" fill="#ffdbed"/>
                  </g>
                  <g id="Grupo_55927" data-name="Grupo 55927" transform="translate(4.801 18.861)">
                    <path id="Trazado_121413" data-name="Trazado 121413" d="M169.824,437.255h-6.232a1.322,1.322,0,0,1-1.408-1.214v-1.736a1.322,1.322,0,0,1,1.408-1.214h6.232a1.322,1.322,0,0,1,1.408,1.214v1.736A1.322,1.322,0,0,1,169.824,437.255Z" transform="translate(-162.184 -426.741)" fill="#57dbd8"/>
                    <path id="Trazado_121414" data-name="Trazado 121414" d="M169.824,420.458h-6.232a1.322,1.322,0,0,1-1.408-1.214v-1.736a1.322,1.322,0,0,1,1.408-1.214h6.232a1.322,1.322,0,0,1,1.408,1.214v1.736A1.322,1.322,0,0,1,169.824,420.458Z" transform="translate(-162.184 -416.295)" fill="#57dbd8"/>
                  </g>
                </g>
              </g>
              <g id="Grupo_55933" data-name="Grupo 55933" transform="translate(38.421 0)">
                <g id="Grupo_55932" data-name="Grupo 55932">
                  <g id="Grupo_55930" data-name="Grupo 55930">
                    <path id="Trazado_121415" data-name="Trazado 121415" d="M274.8,399.525H241.278a2.3,2.3,0,0,1-2.45-2.112V368.521a2.3,2.3,0,0,1,2.45-2.112H274.8a2.3,2.3,0,0,1,2.45,2.112v28.893A2.3,2.3,0,0,1,274.8,399.525Z" transform="translate(-238.828 -366.409)" fill="#b7c5ff"/>
                    <path id="Trazado_121416" data-name="Trazado 121416" d="M280.045,377.607h-7.221a1.15,1.15,0,0,1-1.225-1.056V366.409h9.671v10.142A1.15,1.15,0,0,1,280.045,377.607Z" transform="translate(-257.224 -366.409)" fill="#d2deff"/>
                  </g>
                  <g id="Grupo_55931" data-name="Grupo 55931" transform="translate(4.801 18.861)">
                    <path id="Trazado_121417" data-name="Trazado 121417" d="M257.414,437.255h-6.232a1.322,1.322,0,0,1-1.408-1.214v-1.736a1.322,1.322,0,0,1,1.408-1.214h6.232a1.322,1.322,0,0,1,1.408,1.214v1.736A1.322,1.322,0,0,1,257.414,437.255Z" transform="translate(-249.774 -426.741)" fill="#fff"/>
                    <path id="Trazado_121418" data-name="Trazado 121418" d="M257.414,420.458h-6.232a1.322,1.322,0,0,1-1.408-1.214v-1.736a1.322,1.322,0,0,1,1.408-1.214h6.232a1.322,1.322,0,0,1,1.408,1.214v1.736A1.322,1.322,0,0,1,257.414,420.458Z" transform="translate(-249.774 -416.295)" fill="#fff"/>
                  </g>
                </g>
              </g>
              <g id="Grupo_55937" data-name="Grupo 55937" transform="translate(76.842)">
                <g id="Grupo_55936" data-name="Grupo 55936">
                  <g id="Grupo_55934" data-name="Grupo 55934">
                    <path id="Trazado_121419" data-name="Trazado 121419" d="M356.95,366.409H328.869a2.3,2.3,0,0,0-2.45,2.112v28.893a2.3,2.3,0,0,0,2.45,2.112H356.95Z" transform="translate(-326.419 -366.409)" fill="#fe7062"/>
                    <path id="Trazado_121420" data-name="Trazado 121420" d="M367.636,377.607h-7.221a1.15,1.15,0,0,1-1.225-1.056V366.409h9.671v10.142A1.15,1.15,0,0,1,367.636,377.607Z" transform="translate(-344.815 -366.409)" fill="#ffa8cf"/>
                  </g>
                  <g id="Grupo_55935" data-name="Grupo 55935" transform="translate(4.801 18.861)">
                    <path id="Trazado_121421" data-name="Trazado 121421" d="M345,437.255h-6.232a1.322,1.322,0,0,1-1.408-1.214v-1.736a1.322,1.322,0,0,1,1.408-1.214H345a1.322,1.322,0,0,1,1.408,1.214v1.736A1.322,1.322,0,0,1,345,437.255Z" transform="translate(-337.364 -426.741)" fill="#57dbd8"/>
                    <path id="Trazado_121422" data-name="Trazado 121422" d="M345,420.458h-6.232a1.322,1.322,0,0,1-1.408-1.214v-1.736a1.322,1.322,0,0,1,1.408-1.214H345a1.322,1.322,0,0,1,1.408,1.214v1.736A1.322,1.322,0,0,1,345,420.458Z" transform="translate(-337.364 -416.295)" fill="#57dbd8"/>
                  </g>
                </g>
              </g>
            </g>
            <g id="Grupo_55950" data-name="Grupo 55950" transform="translate(50.234 77.076)">
              <g id="Grupo_55942" data-name="Grupo 55942" transform="translate(0 0.002)">
                <g id="Grupo_55941" data-name="Grupo 55941">
                  <g id="Grupo_55939" data-name="Grupo 55939">
                    <path id="Trazado_121423" data-name="Trazado 121423" d="M237.209,311.935H203.688a2.3,2.3,0,0,1-2.45-2.112V280.931a2.3,2.3,0,0,1,2.45-2.112h33.521a2.3,2.3,0,0,1,2.45,2.112v28.893a2.3,2.3,0,0,1-2.45,2.112Z" transform="translate(-201.238 -278.819)" fill="#fe7062"/>
                    <path id="Trazado_121424" data-name="Trazado 121424" d="M242.455,290.016h-7.221a1.15,1.15,0,0,1-1.225-1.056V278.818h9.671V288.96A1.149,1.149,0,0,1,242.455,290.016Z" transform="translate(-219.634 -278.818)" fill="#ffb7b0"/>
                  </g>
                  <g id="Grupo_55940" data-name="Grupo 55940" transform="translate(4.801 18.861)">
                    <path id="Trazado_121425" data-name="Trazado 121425" d="M219.824,349.665h-6.232a1.322,1.322,0,0,1-1.408-1.214v-1.736a1.322,1.322,0,0,1,1.408-1.214h6.232a1.322,1.322,0,0,1,1.408,1.214v1.736a1.322,1.322,0,0,1-1.408,1.214Z" transform="translate(-212.184 -339.151)" fill="#bedbd1"/>
                    <path id="Trazado_121426" data-name="Trazado 121426" d="M219.824,332.868h-6.232a1.322,1.322,0,0,1-1.408-1.214v-1.736a1.322,1.322,0,0,1,1.408-1.214h6.232a1.322,1.322,0,0,1,1.408,1.214v1.736a1.322,1.322,0,0,1-1.408,1.214Z" transform="translate(-212.184 -328.705)" fill="#bedbd1"/>
                  </g>
                </g>
              </g>
              <g id="Grupo_55946" data-name="Grupo 55946" transform="translate(38.421 0.002)">
                <g id="Grupo_55945" data-name="Grupo 55945">
                  <g id="Grupo_55943" data-name="Grupo 55943">
                    <path id="Trazado_121427" data-name="Trazado 121427" d="M324.8,311.935H291.278a2.3,2.3,0,0,1-2.45-2.112V280.931a2.3,2.3,0,0,1,2.45-2.112H324.8a2.3,2.3,0,0,1,2.45,2.112v28.893a2.3,2.3,0,0,1-2.45,2.112Z" transform="translate(-288.828 -278.819)" fill="#ffcac5"/>
                    <path id="Trazado_121428" data-name="Trazado 121428" d="M330.046,290.016h-7.221a1.15,1.15,0,0,1-1.225-1.056V278.818h9.671V288.96A1.15,1.15,0,0,1,330.046,290.016Z" transform="translate(-307.224 -278.818)" fill="#fff"/>
                  </g>
                  <g id="Grupo_55944" data-name="Grupo 55944" transform="translate(4.801 18.861)">
                    <path id="Trazado_121429" data-name="Trazado 121429" d="M307.414,349.665h-6.232a1.322,1.322,0,0,1-1.408-1.214v-1.736a1.322,1.322,0,0,1,1.408-1.214h6.232a1.322,1.322,0,0,1,1.408,1.214v1.736A1.322,1.322,0,0,1,307.414,349.665Z" transform="translate(-299.774 -339.151)" fill="#9fb0fe"/>
                    <path id="Trazado_121430" data-name="Trazado 121430" d="M307.414,332.868h-6.232a1.322,1.322,0,0,1-1.408-1.214v-1.736a1.322,1.322,0,0,1,1.408-1.214h6.232a1.322,1.322,0,0,1,1.408,1.214v1.736A1.322,1.322,0,0,1,307.414,332.868Z" transform="translate(-299.774 -328.705)" fill="#9fb0fe"/>
                  </g>
                </g>
              </g>
              <g id="Grupo_55949" data-name="Grupo 55949" transform="translate(76.842)">
                <g id="Grupo_55948" data-name="Grupo 55948">
                  <g id="Grupo_55947" data-name="Grupo 55947">
                    <path id="Trazado_121431" data-name="Trazado 121431" d="M385.017,278.814V311.93h-6.15a2.3,2.3,0,0,1-2.448-2.11V280.927a2.3,2.3,0,0,1,2.448-2.113Z" transform="translate(-376.42 -278.814)" fill="#ff8c81"/>
                  </g>
                  <path id="Trazado_121432" data-name="Trazado 121432" d="M391.159,345.5v4.163h-2.391a1.323,1.323,0,0,1-1.408-1.214v-1.735a1.323,1.323,0,0,1,1.408-1.214Z" transform="translate(-382.561 -320.29)" fill="#57dbd8"/>
                  <path id="Trazado_121433" data-name="Trazado 121433" d="M391.159,328.7v4.163h-2.391a1.321,1.321,0,0,1-1.408-1.214v-1.735a1.323,1.323,0,0,1,1.408-1.214Z" transform="translate(-382.561 -309.842)" fill="#57dbd8"/>
                </g>
              </g>
            </g>
          </g>
          <path id="Trazado_121435" data-name="Trazado 121435" d="M251.127,171.315a3.432,3.432,0,0,1-1.251,2.6,4.606,4.606,0,0,1-3.017,1.078h-26.3a4.007,4.007,0,0,1-4.268-3.679,3.446,3.446,0,0,1,1.251-2.6,4.605,4.605,0,0,1,3.017-1.078h26.3A4.009,4.009,0,0,1,251.127,171.315Z" transform="translate(-159.455 -132.594)" fill="#4369fd"/>
        </g>
        <g id="Grupo_55954" data-name="Grupo 55954">
          <ellipse id="Elipse_4249" data-name="Elipse 4249" cx="23.366" cy="20.14" rx="23.366" ry="20.14" transform="translate(11.065 1.89)" fill="#ff7eb8"/>
          <path id="Trazado_121436" data-name="Trazado 121436" d="M154.97,77.4a6.949,6.949,0,0,0,2.851-5.477c0-4.062-3.834-7.367-8.547-7.367s-8.547,3.3-8.547,7.367a6.949,6.949,0,0,0,2.851,5.477,6.949,6.949,0,0,0-2.851,5.477,2.217,2.217,0,0,0,4.386,0,4.207,4.207,0,0,1,8.322,0,2.217,2.217,0,0,0,4.386,0A6.949,6.949,0,0,0,154.97,77.4Zm-9.858-5.477a4.207,4.207,0,1,1,4.161,3.586A3.91,3.91,0,0,1,145.112,71.92Z" transform="translate(-114.842 -52.629)" fill="#fff"/>
          <g id="Grupo_55953" data-name="Grupo 55953">
            <path id="Trazado_121437" data-name="Trazado 121437" d="M168.749,309.129H88.817A2.55,2.55,0,0,1,86.1,306.79V226a2.217,2.217,0,0,0-4.386,0V306.79c0,3.374,3.185,6.12,7.1,6.12h79.932a1.911,1.911,0,1,0,0-3.781Z" transform="translate(-81.717 -151.863)" fill="#2626bc"/>
            <path id="Trazado_121438" data-name="Trazado 121438" d="M230.717,79.033l-69.3-31.353a8.113,8.113,0,0,0-6.6,0l-13.167,5.957c-.845-11.494-11.957-20.624-25.5-20.624-14.094,0-25.559,9.883-25.559,22.03,0,7,3.815,13.249,9.743,17.287l-14.815,6.7a6.056,6.056,0,0,0-3.8,5.418V96.1a2.217,2.217,0,0,0,4.386,0V84.452a2.315,2.315,0,0,1,1.452-2.071l17.024-7.7a28.741,28.741,0,0,0,11.568,2.4c12.935,0,23.649-8.326,25.325-19.087l15.383-6.96a3.1,3.1,0,0,1,2.522,0l69.3,31.353a2.314,2.314,0,0,1,1.452,2.071v103.49a2.55,2.55,0,0,1-2.713,2.339H181.581a1.911,1.911,0,1,0,0,3.781h45.837c3.914,0,7.1-2.745,7.1-6.12V84.452a6.056,6.056,0,0,0-3.8-5.418Zm-114.569-5.74c-11.674,0-21.173-8.187-21.173-18.25s9.5-18.249,21.173-18.249,21.173,8.187,21.173,18.249S127.824,73.294,116.149,73.294Z" transform="translate(-81.718 -33.014)" fill="#2626bc"/>
          </g>
        </g>
      </g>
      <path id="Trazado_121439" data-name="Trazado 121439" d="M235.428,167.639h18.048V184.7H235.428Z" transform="translate(-168.004 -116.74)" fill="#d2deff"/>
      <path id="Trazado_121440" data-name="Trazado 121440" d="M235.43,167.635h18.046v7.359H235.43Z" transform="translate(-168.005 -116.738)" fill="#b7c5ff"/>
    </g>
    <path id="Trazado_121441" data-name="Trazado 121441" d="M238.694,216.985v8.643c0-2.337-2.2-4.231-4.9-4.231H120.668c-2.711,0-4.908,1.894-4.908,4.231v-8.643c0-2.337,2.2-4.231,4.908-4.231H233.79C236.5,212.754,238.694,214.648,238.694,216.985Z" transform="translate(-100.827 -144.798)" fill="#2d58e0"/>
  </g>
</svg>
