<svg id="producto-2" xmlns="http://www.w3.org/2000/svg" width="166.838" height="158" viewBox="0 0 166.838 158">
  <g id="Grupo_55924" data-name="Grupo 55924" transform="translate(0 0)">
    <g id="Grupo_55913" data-name="Grupo 55913" transform="translate(1.979 15.409)">
      <g id="Grupo_55912" data-name="Grupo 55912">
        <path id="Trazado_121378" data-name="Trazado 121378" d="M213.9,87.246v132.7a3.953,3.953,0,0,1-3.956,3.956H77.246a3.953,3.953,0,0,1-3.956-3.956V87.246a3.953,3.953,0,0,1,3.956-3.956h132.7A3.953,3.953,0,0,1,213.9,87.246Z" transform="translate(-73.29 -83.289)" fill="rgba(254,112,98,0.43)"/>
        <path id="Trazado_121379" data-name="Trazado 121379" d="M369.565,87.246v64a42.565,42.565,0,0,1-8.221,3.331s-30.494-7.742-30.494-39.087V83.29h34.759a3.953,3.953,0,0,1,3.956,3.956Z" transform="translate(-228.955 -83.289)" fill="#01eca5"/>
        <path id="Trazado_121380" data-name="Trazado 121380" d="M73.29,107.37H213.9v5.448H73.29Z" transform="translate(-73.29 -97.842)" fill="#fe7062"/>
        <path id="Trazado_121381" data-name="Trazado 121381" d="M245.061,129.976H220.724A1.978,1.978,0,0,1,218.746,128V83.287h28.293V128A1.978,1.978,0,0,1,245.061,129.976Z" transform="translate(-161.201 -83.287)" fill="#fef7f2"/>
        <path id="Trazado_121382" data-name="Trazado 121382" d="M245.62,83.29h7.026v46.687H245.62Z" transform="translate(-177.443 -83.289)" fill="#f6d8d5"/>
        <g id="Grupo_55911" data-name="Grupo 55911" transform="translate(12.884 75.779)">
          <path id="Trazado_121385" data-name="Trazado 121385" d="M176.113,358.833a9.942,9.942,0,0,0-7.686-7.579,1.976,1.976,0,0,0-3.952,0,9.942,9.942,0,0,0-7.686,7.579,1.978,1.978,0,0,0,1.933,2.4h5.751v6.443a.332.332,0,0,1-.663,0,1.978,1.978,0,1,0-3.956,0,4.288,4.288,0,0,0,8.576,0v-6.443h5.751a1.976,1.976,0,0,0,1.933-2.4Zm-14.325-1.56a5.918,5.918,0,0,1,9.325,0Z" transform="translate(-136.612 -319.835)" fill="#fe7062"/>
          <path id="Trazado_121386" data-name="Trazado 121386" d="M117.4,350.056h-9.039a1.978,1.978,0,0,0-1.978,1.978V356.2a6.507,6.507,0,0,0,4.52,6.187v6.079h-.915a1.978,1.978,0,0,0,0,3.956h5.786a1.978,1.978,0,0,0,0-3.956h-.915v-6.079a6.508,6.508,0,0,0,4.52-6.187v-4.165A1.977,1.977,0,0,0,117.4,350.056Zm-1.978,6.143a2.541,2.541,0,1,1-5.083,0v-2.187h5.083V356.2Z" transform="translate(-106.173 -320.296)" fill="#fe7062"/>
          <path id="Trazado_121387" data-name="Trazado 121387" d="M108.484,281.29v8.428a1.978,1.978,0,1,0,3.956,0V281.29a1.973,1.973,0,0,0,2.047-3.26l-2.626-2.626a2,2,0,0,0-2.8,0l-2.627,2.626a1.973,1.973,0,0,0,2.047,3.26Z" transform="translate(-105.857 -274.832)" fill="#fe7062"/>
          <path id="Trazado_121388" data-name="Trazado 121388" d="M138.725,281.289v8.428a1.978,1.978,0,1,0,3.956,0v-8.428a1.973,1.973,0,0,0,2.047-3.26L142.1,275.4a2,2,0,0,0-2.8,0l-2.626,2.627a1.973,1.973,0,0,0,2.047,3.26Z" transform="translate(-124.134 -274.832)" fill="#fe7062"/>
          <path id="Trazado_121389" data-name="Trazado 121389" d="M127.621,324.082a1.978,1.978,0,0,0-1.978-1.978h-16.83a1.978,1.978,0,0,0,0,3.956h16.83A1.978,1.978,0,0,0,127.621,324.082Z" transform="translate(-106.448 -303.402)" fill="#fe7062"/>
        </g>
      </g>
    </g>
    <path id="Trazado_121392" data-name="Trazado 121392" d="M361.908,203.558v21.391c-6.14-2.378-19.089-8.933-24.588-23.369h22.61A1.979,1.979,0,0,1,361.908,203.558Z" transform="translate(-230.886 -139.372)" fill="#d2deff"/>
    <g id="Grupo_55922" data-name="Grupo 55922">
      <path id="Trazado_121400" data-name="Trazado 121400" d="M362.744,49.918a1.978,1.978,0,0,0-2.8,0,11.257,11.257,0,0,1-7.959,3.3H332.832a1.978,1.978,0,0,0-1.978,1.978V85.225c0,31.342,30.492,39.087,30.492,39.087s30.492-7.745,30.492-39.087V55.193a1.978,1.978,0,0,0-1.978-1.978H370.7A11.255,11.255,0,0,1,362.744,49.918Z" transform="translate(-226.978 -47.36)" fill="#8399fe"/>
      <path id="Trazado_121401" data-name="Trazado 121401" d="M373.433,134a40.8,40.8,0,0,1-10.829-6.059c-7.8-6.163-11.75-14.476-11.75-24.708v-24.1h45.159v24.1c0,10.232-3.953,18.545-11.75,24.708A40.809,40.809,0,0,1,373.434,134Z" transform="translate(-239.066 -65.369)" fill="#ffa8cf"/>
      <path id="Trazado_121402" data-name="Trazado 121402" d="M407.928,79.136h22.579v24.1c0,10.232-3.953,18.545-11.75,24.708A40.8,40.8,0,0,1,407.928,134Z" transform="translate(-273.56 -65.369)" fill="#ff7eb8"/>
      <path id="Trazado_121403" data-name="Trazado 121403" d="M233.146,72.609a1.978,1.978,0,0,0,1.978-1.978V52.17a3.961,3.961,0,0,0-3.956-3.956H212.012a9.216,9.216,0,0,1-6.56-2.717,3.956,3.956,0,0,0-5.595,0,9.217,9.217,0,0,1-6.56,2.717H174.141a3.961,3.961,0,0,0-3.956,3.956V82.2c0,17,8.712,27.254,16.019,32.865a48.557,48.557,0,0,0,15.964,8.139,1.977,1.977,0,0,0,.974,0,39.566,39.566,0,0,0,5.758-2.1v75.3a1.98,1.98,0,0,1-1.978,1.978H74.221a1.98,1.98,0,0,1-1.978-1.978V63.7a1.98,1.98,0,0,1,1.978-1.978h86.368a1.978,1.978,0,1,0,0-3.956H74.221A5.941,5.941,0,0,0,68.287,63.7V196.4a5.941,5.941,0,0,0,5.934,5.934h132.7a5.941,5.941,0,0,0,5.934-5.934V119.144a49.414,49.414,0,0,0,6.25-4.075c7.308-5.612,16.019-15.869,16.019-32.865a1.978,1.978,0,1,0-3.956,0c0,12.3-4.832,22.273-14.36,29.642a46.246,46.246,0,0,1-14.153,7.389,46.241,46.241,0,0,1-14.153-7.389c-9.529-7.368-14.36-17.341-14.36-29.642V52.17H193.3a13.147,13.147,0,0,0,9.358-3.876,13.147,13.147,0,0,0,9.358,3.876h19.156v18.46a1.977,1.977,0,0,0,1.977,1.978Z" transform="translate(-68.287 -44.338)" fill="#2626bc"/>
    </g>
    <g id="Grupo_55923" data-name="Grupo 55923" transform="translate(121.38 23.099)">
      <path id="Trazado_121404" data-name="Trazado 121404" d="M384.43,130.7c-.087,0-.173,0-.26-.011a2.968,2.968,0,0,1-2.5-1.854l-3.211-8.029a.424.424,0,0,0-.4-.268,2.967,2.967,0,1,1,0-5.934,6.331,6.331,0,0,1,5.906,4L385,121.178l10.582-17.05a2.967,2.967,0,1,1,5.042,3.13L386.95,129.3A2.968,2.968,0,0,1,384.43,130.7Z" transform="translate(-375.1 -102.725)" fill="#fff"/>
    </g>
  </g>
</svg>
