<svg xmlns="http://www.w3.org/2000/svg" xmlns:xlink="http://www.w3.org/1999/xlink" width="208" height="196.422" viewBox="0 0 208 196.422">
  <defs>
    <linearGradient id="linear-gradient" x1="1.128" y1="1.297" x2="0.237" y2="0.189" gradientUnits="objectBoundingBox">
      <stop offset="0" stop-color="#dae3fe"/>
      <stop offset="1" stop-color="#e9effd"/>
    </linearGradient>
    <linearGradient id="linear-gradient-2" y1="0.5" x2="1" y2="0.5" gradientUnits="objectBoundingBox">
      <stop offset="0" stop-color="#4f52ff"/>
      <stop offset="1" stop-color="#4042e2"/>
    </linearGradient>
    <linearGradient id="linear-gradient-3" x1="-0.499" y1="5.327" x2="-3.465" y2="8.926" gradientUnits="objectBoundingBox">
      <stop offset="0" stop-color="#09005d"/>
      <stop offset="1" stop-color="#1a0f91"/>
    </linearGradient>
    <linearGradient id="linear-gradient-4" x1="-5.265" y1="24.703" x2="-6.343" y2="30.85" xlink:href="#linear-gradient-3"/>
    <linearGradient id="linear-gradient-5" x1="-3.036" y1="24.218" x2="-3.481" y2="30.088" xlink:href="#linear-gradient-3"/>
    <linearGradient id="linear-gradient-6" x1="-31.004" y1="12.768" x2="-35.79" y2="18.158" gradientUnits="objectBoundingBox">
      <stop offset="0" stop-color="#ff928e"/>
      <stop offset="1" stop-color="#fe7062"/>
    </linearGradient>
    <linearGradient id="linear-gradient-7" x1="-30.486" y1="12.792" x2="-35.272" y2="18.181" xlink:href="#linear-gradient-6"/>
    <linearGradient id="linear-gradient-8" x1="-31.066" y1="12.765" x2="-35.853" y2="18.154" xlink:href="#linear-gradient-6"/>
    <linearGradient id="linear-gradient-9" x1="-31.544" y1="12.743" x2="-36.33" y2="18.133" xlink:href="#linear-gradient-6"/>
    <linearGradient id="linear-gradient-10" x1="1.788" y1="-0.504" x2="1.306" y2="-0.119" xlink:href="#linear-gradient-6"/>
    <linearGradient id="linear-gradient-11" x1="-163.948" y1="-0.166" x2="-182.031" y2="3.358" xlink:href="#linear-gradient-3"/>
    <linearGradient id="linear-gradient-12" x1="-204.486" y1="-0.086" x2="-227.256" y2="3.376" xlink:href="#linear-gradient-3"/>
    <linearGradient id="linear-gradient-13" x1="-179.378" y1="-0.015" x2="-199.6" y2="3.447" xlink:href="#linear-gradient-3"/>
    <linearGradient id="linear-gradient-14" x1="-118.817" y1="0.121" x2="-132.513" y2="3.395" xlink:href="#linear-gradient-3"/>
    <linearGradient id="linear-gradient-15" x1="-274.292" y1="0.175" x2="-306.282" y2="3.699" xlink:href="#linear-gradient-3"/>
    <linearGradient id="linear-gradient-16" x1="-171.734" y1="0.227" x2="-191.964" y2="3.744" xlink:href="#linear-gradient-3"/>
    <linearGradient id="linear-gradient-17" x1="-110.213" y1="-0.19" x2="-122.211" y2="2.951" xlink:href="#linear-gradient-3"/>
    <linearGradient id="linear-gradient-18" x1="0.77" y1="-0.235" x2="0.31" y2="1.096" xlink:href="#linear-gradient-6"/>
    <linearGradient id="linear-gradient-19" x1="-228.703" y1="-0.166" x2="-246.725" y2="3.358" xlink:href="#linear-gradient-3"/>
    <linearGradient id="linear-gradient-20" x1="-286.856" y1="-0.086" x2="-309.614" y2="3.376" xlink:href="#linear-gradient-3"/>
    <linearGradient id="linear-gradient-21" x1="-252.558" y1="-0.017" x2="-272.771" y2="3.452" xlink:href="#linear-gradient-3"/>
    <linearGradient id="linear-gradient-22" x1="-168.389" y1="0.121" x2="-182.079" y2="3.395" xlink:href="#linear-gradient-3"/>
    <linearGradient id="linear-gradient-23" x1="-390.874" y1="0.174" x2="-422.918" y2="3.699" xlink:href="#linear-gradient-3"/>
    <linearGradient id="linear-gradient-24" x1="-245.017" y1="0.227" x2="-265.244" y2="3.744" xlink:href="#linear-gradient-3"/>
    <linearGradient id="linear-gradient-25" x1="-154.162" y1="-0.19" x2="-166.196" y2="2.95" xlink:href="#linear-gradient-3"/>
    <linearGradient id="linear-gradient-26" x1="0.974" y1="-0.098" x2="0.1" y2="1.056" xlink:href="#linear-gradient-6"/>
    <linearGradient id="linear-gradient-27" x1="-166.777" y1="-0.167" x2="-187.626" y2="3.363" xlink:href="#linear-gradient-3"/>
    <linearGradient id="linear-gradient-28" x1="-208.321" y1="-0.086" x2="-234.526" y2="3.374" xlink:href="#linear-gradient-3"/>
    <linearGradient id="linear-gradient-29" x1="-182.623" y1="-0.016" x2="-205.897" y2="3.449" xlink:href="#linear-gradient-3"/>
    <linearGradient id="linear-gradient-30" x1="-121.948" y1="0.122" x2="-137.738" y2="3.382" xlink:href="#linear-gradient-3"/>
    <linearGradient id="linear-gradient-31" x1="-278.475" y1="0.176" x2="-314.974" y2="3.687" xlink:href="#linear-gradient-3"/>
    <linearGradient id="linear-gradient-32" x1="-175.879" y1="0.227" x2="-199.246" y2="3.745" xlink:href="#linear-gradient-3"/>
    <linearGradient id="linear-gradient-33" x1="-112.564" y1="-0.189" x2="-126.404" y2="2.944" xlink:href="#linear-gradient-3"/>
    <linearGradient id="linear-gradient-34" x1="-0.386" y1="-1.664" x2="-2.122" y2="3.387" gradientUnits="objectBoundingBox">
      <stop offset="0" stop-color="#febbba"/>
      <stop offset="1" stop-color="#ff928e"/>
    </linearGradient>
    <linearGradient id="linear-gradient-35" x1="-3.594" y1="-1.014" x2="-6.803" y2="5.178" xlink:href="#linear-gradient-34"/>
    <linearGradient id="linear-gradient-36" x1="-0.66" y1="-0.744" x2="-0.487" y2="1.025" xlink:href="#linear-gradient-2"/>
    <linearGradient id="linear-gradient-37" x1="29.734" y1="0.5" x2="30.734" y2="0.5" xlink:href="#linear-gradient-34"/>
    <linearGradient id="linear-gradient-38" x1="7.93" y1="-0.664" x2="9.368" y2="0.666" xlink:href="#linear-gradient-3"/>
    <linearGradient id="linear-gradient-39" x1="4.123" y1="-0.977" x2="4.103" y2="1.075" xlink:href="#linear-gradient-2"/>
    <linearGradient id="linear-gradient-40" x1="34.44" y1="0.5" x2="35.44" y2="0.5" xlink:href="#linear-gradient-34"/>
    <linearGradient id="linear-gradient-41" x1="6.501" y1="-0.65" x2="7.676" y2="0.681" xlink:href="#linear-gradient-3"/>
    <linearGradient id="linear-gradient-42" x1="-0.059" y1="1.745" x2="1.252" y2="2.891" xlink:href="#linear-gradient-3"/>
    <linearGradient id="linear-gradient-43" x1="13.231" y1="0.5" x2="14.231" y2="0.5" xlink:href="#linear-gradient-34"/>
    <linearGradient id="linear-gradient-44" x1="-22.917" y1="-6.005" x2="-23.239" y2="-7.07" xlink:href="#linear-gradient-34"/>
    <linearGradient id="linear-gradient-45" x1="-23.879" y1="-6.454" x2="-23.645" y2="-5.316" xlink:href="#linear-gradient-3"/>
    <linearGradient id="linear-gradient-46" x1="-75.922" y1="-31.575" x2="-76.865" y2="-36.223" xlink:href="#linear-gradient-34"/>
    <linearGradient id="linear-gradient-47" x1="-23.675" y1="42.074" x2="-25.012" y2="43.461" xlink:href="#linear-gradient-3"/>
    <linearGradient id="linear-gradient-48" x1="-0.558" y1="-0.442" x2="-1.924" y2="3.249" xlink:href="#linear-gradient-3"/>
    <linearGradient id="linear-gradient-49" x1="0.242" y1="3.94" x2="3.068" y2="6.459" xlink:href="#linear-gradient-3"/>
    <linearGradient id="linear-gradient-50" x1="9.621" y1="0.5" x2="10.621" y2="0.5" xlink:href="#linear-gradient-34"/>
    <linearGradient id="linear-gradient-51" x1="1.769" y1="-0.897" x2="1.094" y2="-0.202" xlink:href="#linear-gradient-6"/>
    <linearGradient id="linear-gradient-52" x1="47.513" y1="1.414" x2="46.94" y2="6.717" xlink:href="#linear-gradient-6"/>
    <linearGradient id="linear-gradient-53" x1="25.071" y1="2.038" x2="24.927" y2="4.421" xlink:href="#linear-gradient-6"/>
    <linearGradient id="linear-gradient-54" x1="30.887" y1="0.5" x2="31.887" y2="0.5" xlink:href="#linear-gradient-34"/>
    <linearGradient id="linear-gradient-55" x1="-10.583" y1="-2.067" x2="-10.885" y2="1.783" xlink:href="#linear-gradient-3"/>
    <linearGradient id="linear-gradient-56" x1="-7.53" y1="-5.159" x2="-9.265" y2="0.106" xlink:href="#linear-gradient-3"/>
  </defs>
  <g id="almacenar1-01" transform="translate(-29.324 -37.608)">
    <g id="Illustration" transform="translate(29.324 37.608)">
      <g id="Grupo_54662" data-name="Grupo 54662" transform="translate(0 0)">
        <path id="Trazado_118279" data-name="Trazado 118279" d="M254.1,206.375a74.338,74.338,0,0,1-11.506,9.1c-37.532,25.309-81.943,17.931-91.382,16.133-13.937-2.659-40.879-7.805-60.355-29.333C61.39,169.71,65.978,118.4,88.837,84.529c4.181-6.2,26.266-40.58,71.155-46.1,27.167-3.337,58.835,3.4,81.767,21.448C289.9,97.784,286.469,174.352,254.1,206.375Z" transform="translate(-70.213 -37.608)" fill="url(#linear-gradient)"/>
        <g id="Grupo_54649" data-name="Grupo 54649" transform="translate(70.638 18.742)">
          <path id="Trazado_118287" data-name="Trazado 118287" d="M1124.121,579.119l-98.829,1.572a9.986,9.986,0,0,0-10.062,9.354l-4.884,135.642a6.931,6.931,0,0,0,2.113,5.2,7.766,7.766,0,0,0,5.423,2.182l113.307.146a7.377,7.377,0,0,0,5.117-2.023,6.589,6.589,0,0,0,2.059-4.871l-2.427-136.4C1135.831,583.855,1130.54,579.017,1124.121,579.119Z" transform="translate(-1010.341 -559.376)" fill="url(#linear-gradient-2)"/>
          <path id="Trazado_118288" data-name="Trazado 118288" d="M2393.9,2375.818h0l12.671-.355a7.642,7.642,0,0,0,7.606-7.533l-.322-18.1a.3.3,0,0,0-.1-.214.333.333,0,0,0-.23-.085.318.318,0,0,0-.317.311l.322,18.1a7.012,7.012,0,0,1-6.979,6.917l-12.672.355a.305.305,0,1,0,.018.61Z" transform="translate(-2289.646 -2203.967)" fill="#bdd0fb"/>
          <path id="Trazado_118289" data-name="Trazado 118289" d="M2653.242,2232.881a.314.314,0,0,0,.315-.31l-.053-2.931a.3.3,0,0,0-.1-.214.331.331,0,0,0-.23-.086h0a.314.314,0,0,0-.315.311l.052,2.931a.3.3,0,0,0,.1.214.33.33,0,0,0,.23.085Z" transform="translate(-2529.446 -2092.319)" fill="#bdd0fb"/>
          <g id="Grupo_54648" data-name="Grupo 54648" transform="translate(6.713 18.613)">
            <path id="Trazado_118290" data-name="Trazado 118290" d="M1206.431,563.273c-13.465,1.946-59.78,8.038-98.2,5.862a3.234,3.234,0,0,0-2.288.759,2.89,2.89,0,0,0-1.024,2.079l-5.229,136.251a3.481,3.481,0,0,0,3.438,3.52c16.154.647,82.677,3.081,106.341.355a2.748,2.748,0,0,0,2.5-2.7l-1.653-143a3.127,3.127,0,0,0-1.19-2.4A3.512,3.512,0,0,0,1206.431,563.273Z" transform="translate(-1099.688 -563.236)" fill="#91b3fa"/>
            <path id="Trazado_118291" data-name="Trazado 118291" d="M1237.474,613.3c-12.958,1.873-57.528,7.735-94.5,5.641a3.112,3.112,0,0,0-2.2.731,2.782,2.782,0,0,0-.986,2l-5.034,131.121a3.349,3.349,0,0,0,3.306,3.387c15.546.623,79.565,2.966,102.337.343a2.643,2.643,0,0,0,2.4-2.6L1241.213,616.3a3.009,3.009,0,0,0-1.145-2.31A3.381,3.381,0,0,0,1237.474,613.3Z" transform="translate(-1132.113 -609.708)" fill="#bdd0fb"/>
            <g id="Grupo_54640" data-name="Grupo 54640" transform="translate(11.201 16.872)" opacity="0.6">
              <path id="Trazado_118292" data-name="Trazado 118292" d="M1249.687,804.489a.921.921,0,0,1-.668-.257.82.82,0,0,1-.25-.639v-.063a1.033,1.033,0,0,1,1.012-.935l83.88-1.959c.53-.012.7.3.376.7l-.9,1.112a2.319,2.319,0,0,1-1.553.738Z" transform="translate(-1248.768 -800.635)" fill="#fff"/>
            </g>
            <g id="Grupo_54641" data-name="Grupo 54641" transform="translate(11.292 22.107)" opacity="0.6">
              <path id="Trazado_118293" data-name="Trazado 118293" d="M1334.874,874.306c.531-.012.7.3.376.7l-.9,1.111a2.321,2.321,0,0,1-1.553.739l-81.9,1.3a.92.92,0,0,1-.667-.257.819.819,0,0,1-.249-.639V877.2a1.032,1.032,0,0,1,1.012-.934Z" transform="translate(-1249.978 -874.305)" fill="#fff"/>
            </g>
            <path id="Trazado_118294" data-name="Trazado 118294" d="M2160.689,1355.788c-.043-4.09-.031-7.928.583-9.95a3.124,3.124,0,0,1,3.13-2.034h.046c2.061.054,5.565.389,8.656.684,1.42.136,2.71.259,3.648.333h0a2.516,2.516,0,0,1,1.707.828,1.871,1.871,0,0,1,.461,1.469l-1.127,8.813a2.978,2.978,0,0,1-3.117,2.383l-11.124-.062h-.031A2.718,2.718,0,0,1,2160.689,1355.788Zm15.987-10.109c-.941-.075-2.238-.2-3.663-.335-2.924-.279-6.563-.626-8.591-.68a2.253,2.253,0,0,0-2.277,1.412c-.581,1.91-.591,5.681-.549,9.7a1.834,1.834,0,0,0,1.942,1.614h.022l11.12.063a2.092,2.092,0,0,0,2.212-1.627l1.123-8.812a1.052,1.052,0,0,0-.265-.824,1.584,1.584,0,0,0-1.079-.514Z" transform="translate(-2080.955 -1288.331)" fill="#fff"/>
            <path id="Trazado_118295" data-name="Trazado 118295" d="M2204.225,1371.77c-2.333-.186-7.4-.748-9.813-.812a2.157,2.157,0,0,0-2.179,1.377c-.491,1.619-.483,4.86-.451,7.852a1.813,1.813,0,0,0,1.93,1.629l8.89.051a2.028,2.028,0,0,0,2.129-1.6l.9-7.042A1.4,1.4,0,0,0,2204.225,1371.77Z" transform="translate(-2109.714 -1313.554)" fill="#fff" opacity="0.6"/>
            <g id="Grupo_54642" data-name="Grupo 54642" transform="translate(14.523 60.618)" opacity="0.6">
              <path id="Trazado_118296" data-name="Trazado 118296" d="M1351.355,1416.19a.661.661,0,0,1,.7.872l-1.031,3.477a1.318,1.318,0,0,1-1.225.865l-55.9-.823a.97.97,0,0,1-.67-.277.865.865,0,0,1-.259-.647l.083-2.1a1,1,0,0,1,1-.92Z" transform="translate(-1292.972 -1416.19)" fill="#fff"/>
            </g>
            <path id="Trazado_118297" data-name="Trazado 118297" d="M2152.109,1023.358c-.043-4.089-.031-7.928.583-9.95a3.124,3.124,0,0,1,3.129-2.034h.045c2.061.055,5.566.389,8.656.684,1.42.135,2.711.259,3.648.333h0a2.516,2.516,0,0,1,1.708.829,1.871,1.871,0,0,1,.461,1.469l-1.127,8.812a2.977,2.977,0,0,1-3.116,2.383l-11.125-.063h-.029A2.712,2.712,0,0,1,2152.109,1023.358Zm15.986-10.109c-.942-.075-2.237-.2-3.664-.335-2.924-.279-6.563-.626-8.591-.679a2.254,2.254,0,0,0-2.277,1.411c-.58,1.911-.59,5.68-.548,9.7a1.833,1.833,0,0,0,1.942,1.615h.021l11.125.063a2.09,2.09,0,0,0,2.211-1.627l1.124-8.812a1.053,1.053,0,0,0-.264-.824,1.587,1.587,0,0,0-1.08-.515Z" transform="translate(-2073.019 -979.526)" fill="#fff"/>
            <path id="Trazado_118298" data-name="Trazado 118298" d="M2195.686,1039.38c-2.335-.185-7.405-.748-9.813-.812a2.156,2.156,0,0,0-2.178,1.377c-.491,1.619-.483,4.86-.451,7.852a1.815,1.815,0,0,0,1.93,1.63l8.889.05a2.031,2.031,0,0,0,2.129-1.6l.9-7.042A1.4,1.4,0,0,0,2195.686,1039.38Z" transform="translate(-2101.816 -1004.786)" fill="#fff" opacity="0.6"/>
            <g id="Grupo_54643" data-name="Grupo 54643" transform="translate(13.872 36.995)" opacity="0.6">
              <path id="Trazado_118299" data-name="Trazado 118299" d="M1342.7,1083.79a.659.659,0,0,1,.7.871l-1.035,3.479a1.318,1.318,0,0,1-1.225.865l-55.9-.823a.969.969,0,0,1-.67-.277.865.865,0,0,1-.259-.647l.083-2.1a1,1,0,0,1,1-.92Z" transform="translate(-1284.312 -1083.79)" fill="#fff"/>
            </g>
            <path id="Trazado_118300" data-name="Trazado 118300" d="M2155.755,1673.039c-.044-4.089-.031-7.927.583-9.95a3.126,3.126,0,0,1,3.13-2.035h.045c2.061.055,5.565.389,8.656.684,1.42.136,2.711.259,3.648.333h0a2.514,2.514,0,0,1,1.707.829,1.87,1.87,0,0,1,.461,1.469l-1.127,8.813a2.977,2.977,0,0,1-3.117,2.383l-11.124-.063h-.031A2.712,2.712,0,0,1,2155.755,1673.039Zm15.986-10.109c-.942-.075-2.237-.2-3.663-.335-2.924-.279-6.563-.626-8.591-.68a2.266,2.266,0,0,0-2.277,1.412c-.58,1.91-.591,5.68-.548,9.7a1.833,1.833,0,0,0,1.942,1.615h.021l11.121.063a2.089,2.089,0,0,0,2.211-1.627l1.123-8.812a1.055,1.055,0,0,0-.264-.824,1.587,1.587,0,0,0-1.079-.515Z" transform="translate(-2076.392 -1583.034)" fill="#fff"/>
            <path id="Trazado_118301" data-name="Trazado 118301" d="M2199.29,1689.04c-2.334-.185-7.4-.748-9.812-.812a2.157,2.157,0,0,0-2.179,1.377c-.492,1.619-.484,4.86-.451,7.852a1.815,1.815,0,0,0,1.929,1.63l8.89.05a2.029,2.029,0,0,0,2.129-1.6l.9-7.042A1.4,1.4,0,0,0,2199.29,1689.04Z" transform="translate(-2105.15 -1608.276)" fill="#fff" opacity="0.6"/>
            <g id="Grupo_54644" data-name="Grupo 54644" transform="translate(14.147 83.166)" opacity="0.6">
              <path id="Trazado_118302" data-name="Trazado 118302" d="M1346.355,1733.46a.661.661,0,0,1,.7.872l-1.032,3.477a1.318,1.318,0,0,1-1.225.865l-55.9-.823a.969.969,0,0,1-.67-.277.866.866,0,0,1-.259-.647l.083-2.1a1,1,0,0,1,1-.92Z" transform="translate(-1287.971 -1733.46)" fill="#fff"/>
            </g>
            <path id="Trazado_118303" data-name="Trazado 118303" d="M2164.865,1977.924c-.044-4.089-.031-7.927.583-9.95a3.172,3.172,0,0,1,3.175-2.033c2.062.055,5.72.4,8.66.684,1.418.136,2.7.259,3.644.333h0a2.518,2.518,0,0,1,1.707.828,1.872,1.872,0,0,1,.461,1.469l-1.123,8.813a2.977,2.977,0,0,1-3.118,2.382l-11.12-.062h-.03A2.717,2.717,0,0,1,2164.865,1977.924Zm15.986-10.109c-.941-.071-2.235-.2-3.659-.334-2.925-.279-6.566-.627-8.595-.68a2.281,2.281,0,0,0-2.277,1.412c-.58,1.91-.59,5.68-.547,9.7a1.876,1.876,0,0,0,1.963,1.615l11.125.062a2.09,2.09,0,0,0,2.211-1.627l1.127-8.812a1.058,1.058,0,0,0-.264-.824,1.59,1.59,0,0,0-1.079-.515Z" transform="translate(-2084.817 -1866.253)" fill="#fff"/>
            <path id="Trazado_118304" data-name="Trazado 118304" d="M2208.4,1993.91c-2.334-.185-7.4-.748-9.812-.812a2.156,2.156,0,0,0-2.179,1.376c-.492,1.619-.484,4.86-.451,7.852a1.815,1.815,0,0,0,1.93,1.63l8.89.05a2.03,2.03,0,0,0,2.129-1.6l.9-7.043A1.4,1.4,0,0,0,2208.4,1993.91Z" transform="translate(-2113.575 -1891.479)" fill="#fff" opacity="0.6"/>
            <g id="Grupo_54645" data-name="Grupo 54645" transform="translate(14.835 104.833)" opacity="0.6">
              <path id="Trazado_118305" data-name="Trazado 118305" d="M1355.5,2038.34a.659.659,0,0,1,.7.871l-1.032,3.477a1.318,1.318,0,0,1-1.225.865l-55.9-.823a.968.968,0,0,1-.67-.277.864.864,0,0,1-.259-.647l.083-2.1a1,1,0,0,1,1-.92Z" transform="translate(-1297.121 -2038.34)" fill="#fff"/>
            </g>
            <g id="Grupo_54646" data-name="Grupo 54646" transform="translate(15.728 127.09)" opacity="0.6">
              <path id="Trazado_118306" data-name="Trazado 118306" d="M1361.122,2351.519a.679.679,0,0,1,.729.875l-.925,3.467a1.273,1.273,0,0,1-1.2.871l-49.779-.733a.971.971,0,0,1-.671-.277.868.868,0,0,1-.26-.647l.075-2.1a1,1,0,0,1,1-.924Z" transform="translate(-1309.013 -2351.519)" fill="#fff"/>
            </g>
            <g id="Grupo_54647" data-name="Grupo 54647" transform="translate(75.993 128.562)" opacity="0.6">
              <path id="Trazado_118307" data-name="Trazado 118307" d="M2130.247,2372.236a.819.819,0,0,1,.647.238.722.722,0,0,1,.2.628l-.338,2.637a1.08,1.08,0,0,1-1.081.892l-17.657-.26a.982.982,0,0,1-.673-.277.879.879,0,0,1-.268-.647l.038-1.5a1.024,1.024,0,0,1,.988-.952Z" transform="translate(-2111.077 -2372.234)" fill="#fff"/>
            </g>
          </g>
          <path id="Trazado_118308" data-name="Trazado 118308" d="M1743.319,316.793l11.2-1.119.769-9.743a4.143,4.143,0,0,0-3.172-4.285,10.5,10.5,0,0,0-8.829,1.834C1736.364,308.2,1743.319,316.793,1743.319,316.793Zm2.193-8.144a2.8,2.8,0,1,1,2.843,2.6A2.718,2.718,0,0,1,1745.511,308.648Z" transform="translate(-1685.376 -301.33)" fill="url(#linear-gradient-3)"/>
          <path id="Trazado_118309" data-name="Trazado 118309" d="M1828.333,327.207a.535.535,0,0,1-.512-.563l.122-1.551a.546.546,0,0,1,.595-.485.535.535,0,0,1,.513.563l-.116,1.552a.516.516,0,0,1-.191.359.575.575,0,0,1-.4.126Zm.24-3.041a.567.567,0,0,1-.379-.181.506.506,0,0,1-.133-.382l.093-1.178a3.169,3.169,0,0,0-2.419-3.269,7.989,7.989,0,0,0-3.7-.084.556.556,0,0,1-.646-.4.525.525,0,0,1,.4-.624,9.162,9.162,0,0,1,4.239.1,4.229,4.229,0,0,1,3.231,4.361l-.09,1.178a.529.529,0,0,1-.355.451.568.568,0,0,1-.241.032Z" transform="translate(-1760.435 -316.67)" fill="#bdd0fb"/>
          <path id="Trazado_118310" data-name="Trazado 118310" d="M1616.731,485.9l-.087-4.892a2.913,2.913,0,0,0-1-2.131,3.263,3.263,0,0,0-2.316-.8l-35.633,1.723a2.989,2.989,0,0,0-2.91,2.772l-.214,4.7Z" transform="translate(-1532.176 -465.514)" fill="url(#linear-gradient-4)"/>
          <path id="Trazado_118311" data-name="Trazado 118311" d="M1954.833,498.681a.305.305,0,1,0-.014-.61l-1.533.024a.329.329,0,0,0-.228.092.294.294,0,0,0-.09.219.316.316,0,0,0,.328.3l1.534-.024Z" transform="translate(-1882.142 -484.088)" fill="#bdd0fb"/>
          <path id="Trazado_118312" data-name="Trazado 118312" d="M2000.079,498.824a.526.526,0,0,0,.355-.5l-.034-1.979a3.142,3.142,0,0,0-3.269-2.993l-5.635.09a.526.526,0,1,0,.019,1.051l5.635-.09a2.171,2.171,0,0,1,1.5.559,1.94,1.94,0,0,1,.641,1.4l.035,1.979a.512.512,0,0,0,.169.369.572.572,0,0,0,.4.148A.6.6,0,0,0,2000.079,498.824Z" transform="translate(-1917.285 -479.708)" fill="#bdd0fb"/>
          <path id="Trazado_118313" data-name="Trazado 118313" d="M1460.3,560.5l-62.347.99a4.534,4.534,0,0,0-4.477,3.687l-.047.289a3.607,3.607,0,0,0,.926,3.035,4.062,4.062,0,0,0,3.052,1.285l63.964-1.018a2.641,2.641,0,0,0,1.849-.784,2.356,2.356,0,0,0,.675-1.807l-.186-2.706A3.292,3.292,0,0,0,1460.3,560.5Z" transform="translate(-1364.602 -542.085)" fill="url(#linear-gradient-5)"/>
          <path id="Trazado_118314" data-name="Trazado 118314" d="M2233.768,1321.391h0a1.566,1.566,0,0,0-1.122-.294,1.522,1.522,0,0,0-1.007.551l-2.388,2.985a.5.5,0,0,1-.471.173.474.474,0,0,1-.376-.32l-3.265-10.6a.54.54,0,0,0-1.043.083,19.071,19.071,0,0,0,4.038,14.511s3-.669,5.985-5.117A1.438,1.438,0,0,0,2233.768,1321.391Z" transform="translate(-2132.746 -1241.585)" fill="url(#linear-gradient-6)"/>
          <path id="Trazado_118315" data-name="Trazado 118315" d="M2222.112,967.609h0a1.566,1.566,0,0,0-1.122-.294,1.524,1.524,0,0,0-1.008.551l-2.388,2.985a.5.5,0,0,1-.472.173.473.473,0,0,1-.375-.32l-3.267-10.6a.541.541,0,0,0-1.043.083,19.072,19.072,0,0,0,4.038,14.511s3-.67,5.985-5.117a1.439,1.439,0,0,0-.348-1.967Z" transform="translate(-2121.963 -912.944)" fill="url(#linear-gradient-7)"/>
          <path id="Trazado_118316" data-name="Trazado 118316" d="M2216.768,1627.1h0a1.566,1.566,0,0,0-1.122-.294,1.526,1.526,0,0,0-1.008.552l-2.387,2.985a.5.5,0,0,1-.472.173.472.472,0,0,1-.376-.32l-3.265-10.6a.54.54,0,0,0-1.043.083,19.069,19.069,0,0,0,4.038,14.511s3-.67,5.985-5.117A1.439,1.439,0,0,0,2216.768,1627.1Z" transform="translate(-2117.023 -1525.565)" fill="url(#linear-gradient-8)"/>
          <path id="Trazado_118317" data-name="Trazado 118317" d="M2229.892,1917.933h0a1.566,1.566,0,0,0-1.122-.294,1.522,1.522,0,0,0-1.007.552l-2.389,2.985a.5.5,0,0,1-.472.173.473.473,0,0,1-.375-.321l-3.267-10.6a.541.541,0,0,0-1.044.083,19.071,19.071,0,0,0,4.039,14.511s3-.669,5.984-5.117A1.438,1.438,0,0,0,2229.892,1917.933Z" transform="translate(-2129.158 -1795.73)" fill="url(#linear-gradient-9)"/>
        </g>
        <g id="Grupo_54656" data-name="Grupo 54656" transform="translate(41.733 105.574)">
          <g id="Grupo_54651" data-name="Grupo 54651" transform="translate(9.255 36.198)">
            <path id="Trazado_118318" data-name="Trazado 118318" d="M828.181,2084.7a8.73,8.73,0,0,0,6.088-2.29,7.8,7.8,0,0,0,2.536-5.714v-35.617a8.782,8.782,0,0,0-8.923-8.539c-14.848-.153-45.471-.16-70.527,1.837a6.584,6.584,0,0,0-6.2,6.167l-2.342,34.435a7.907,7.907,0,0,0,2.353,5.9,8.853,8.853,0,0,0,6.1,2.548Z" transform="translate(-748.805 -2032.477)" fill="url(#linear-gradient-10)"/>
            <path id="Trazado_118319" data-name="Trazado 118319" d="M1582.365,2172.6c.063,3.031-.032,7.84-.11,10.945a2.685,2.685,0,0,1-1,2.007,3.013,3.013,0,0,1-2.241.653l-12.219-1.355a2.944,2.944,0,0,1-1.968-1.059,2.636,2.636,0,0,1-.564-2.074l1.5-9.464a2.857,2.857,0,0,1,2.87-2.338h10.829a2.827,2.827,0,0,1,2.9,2.685Z" transform="translate(-1502.965 -2160.152)" fill="#fff"/>
            <path id="Trazado_118320" data-name="Trazado 118320" d="M1223.766,2064.744l-10.193,1.04a2.378,2.378,0,0,1-1.843-.6,2.109,2.109,0,0,1-.695-1.722l2.228-28.679c4.272-.129,8.49-.222,12.554-.284v28.085A2.223,2.223,0,0,1,1223.766,2064.744Z" transform="translate(-1176.298 -2034.356)" fill="#fff" opacity="0.37"/>
            <path id="Trazado_118321" data-name="Trazado 118321" d="M1299.785,2060.916a1,1,0,0,1-1.023.913h-.06a1.047,1.047,0,0,1-.707-.323.936.936,0,0,1-.257-.7l1.536-25.03,2.057-.045Z" transform="translate(-1256.491 -2035.499)" fill="#fff"/>
            <g id="Grupo_54650" data-name="Grupo 54650" transform="translate(65.905 12.627)">
              <path id="Trazado_118322" data-name="Trazado 118322" d="M1726.133,2223.3a.334.334,0,0,0,.341-.3l.526-7.884a.33.33,0,0,0-.319-.344.348.348,0,0,0-.25.078.31.31,0,0,0-.113.225l-.526,7.884a.311.311,0,0,0,.085.234.35.35,0,0,0,.235.109Z" transform="translate(-1718.287 -2214.445)" fill="url(#linear-gradient-11)"/>
              <path id="Trazado_118323" data-name="Trazado 118323" d="M1711.65,2221.324a.334.334,0,0,0,.342-.312l.277-8.035a.332.332,0,0,0-.33-.334.336.336,0,0,0-.251.081.3.3,0,0,0-.1.231l-.277,8.034a.314.314,0,0,0,.092.232.351.351,0,0,0,.239.1Z" transform="translate(-1704.892 -2212.464)" fill="url(#linear-gradient-12)"/>
              <path id="Trazado_118324" data-name="Trazado 118324" d="M1692.219,2221.317a.347.347,0,0,1-.237-.1.311.311,0,0,1-.088-.233c.135-2.7.394-7.847.4-8.023a.342.342,0,0,1,.684,0c0,.133-.333,6.729-.4,8.05a.334.334,0,0,1-.341.308Zm.066-8.357Z" transform="translate(-1686.938 -2212.459)" fill="url(#linear-gradient-13)"/>
              <path id="Trazado_118325" data-name="Trazado 118325" d="M1657.7,2219.337a.666.666,0,0,0,.682-.624c.289-7.784.239-7.96.205-8.076a.686.686,0,0,0-.8-.469.65.65,0,0,0-.541.725c.022.468-.131,5-.234,7.775a.626.626,0,0,0,.183.464.7.7,0,0,0,.476.2Z" transform="translate(-1654.678 -2210.154)" fill="url(#linear-gradient-14)"/>
              <path id="Trazado_118326" data-name="Trazado 118326" d="M1642.192,2223.31a.35.35,0,0,0,.242-.094.314.314,0,0,0,.1-.229V2215.1a.342.342,0,0,0-.684,0v7.884A.333.333,0,0,0,1642.192,2223.31Z" transform="translate(-1640.654 -2214.452)" fill="url(#linear-gradient-15)"/>
              <path id="Trazado_118327" data-name="Trazado 118327" d="M1626.271,2223.1a.333.333,0,0,0,.342-.316c.065-2.74.219-7.214.355-7.752a.311.311,0,0,0-.067-.392.357.357,0,0,0-.419-.034c-.186.116-.363.225-.553,8.165a.332.332,0,0,0,.334.33Z" transform="translate(-1625.929 -2214.243)" fill="url(#linear-gradient-16)"/>
              <path id="Trazado_118328" data-name="Trazado 118328" d="M1746.428,2219.8a.668.668,0,0,0,.682-.613l.459-8.279a.662.662,0,0,0-.648-.679.679.679,0,0,0-.718.613l-.455,8.279a.661.661,0,0,0,.647.679Z" transform="translate(-1736.744 -2210.227)" fill="url(#linear-gradient-17)"/>
            </g>
          </g>
          <g id="Grupo_54653" data-name="Grupo 54653" transform="translate(28.894)">
            <path id="Trazado_118329" data-name="Trazado 118329" d="M1071.99,1554.191v-25.016a6.166,6.166,0,0,0-6.266-6c-10.427-.107-31.933-.113-49.53,1.29a4.624,4.624,0,0,0-4.358,4.33l-1.645,24.183a5.553,5.553,0,0,0,1.653,4.143,6.217,6.217,0,0,0,4.283,1.788l49.805.9a6.129,6.129,0,0,0,4.275-1.607A5.474,5.474,0,0,0,1071.99,1554.191Z" transform="translate(-1010.187 -1523.137)" fill="url(#linear-gradient-18)"/>
            <path id="Trazado_118330" data-name="Trazado 118330" d="M1595.615,1621.548c.044,2.132-.022,5.506-.075,7.688a1.887,1.887,0,0,1-.7,1.409,2.116,2.116,0,0,1-1.573.458l-8.581-.952a2.066,2.066,0,0,1-1.384-.744,1.85,1.85,0,0,1-.395-1.459l1.052-6.646a2.006,2.006,0,0,1,2.015-1.642h7.605A1.985,1.985,0,0,1,1595.615,1621.548Z" transform="translate(-1539.852 -1612.8)" fill="#fff"/>
            <path id="Trazado_118331" data-name="Trazado 118331" d="M1343.769,1545.8l-7.158.731a1.673,1.673,0,0,1-1.295-.42,1.484,1.484,0,0,1-.488-1.21l1.565-20.141c3-.09,5.961-.156,8.817-.2v19.724a1.56,1.56,0,0,1-1.441,1.517Z" transform="translate(-1310.431 -1524.459)" fill="#fff" opacity="0.37"/>
            <path id="Trazado_118332" data-name="Trazado 118332" d="M1397.131,1543.119a.7.7,0,0,1-.718.64h-.042a.736.736,0,0,1-.5-.227.659.659,0,0,1-.181-.492l1.08-17.578,1.443-.031Z" transform="translate(-1366.727 -1525.267)" fill="#fff"/>
            <g id="Grupo_54652" data-name="Grupo 54652" transform="translate(46.285 8.869)">
              <path id="Trazado_118333" data-name="Trazado 118333" d="M1696.554,1657.189a.234.234,0,0,0,.24-.213l.371-5.536a.219.219,0,0,0-.06-.165.256.256,0,0,0-.342-.021.216.216,0,0,0-.079.158l-.371,5.536a.22.22,0,0,0,.06.165.245.245,0,0,0,.166.076Z" transform="translate(-1691.045 -1650.966)" fill="url(#linear-gradient-19)"/>
              <path id="Trazado_118334" data-name="Trazado 118334" d="M1686.4,1655.793a.235.235,0,0,0,.24-.22l.195-5.643a.25.25,0,0,0-.409-.178.208.208,0,0,0-.071.163l-.194,5.643a.233.233,0,0,0,.232.234Z" transform="translate(-1681.653 -1649.57)" fill="url(#linear-gradient-20)"/>
              <path id="Trazado_118335" data-name="Trazado 118335" d="M1672.792,1655.935a.231.231,0,0,1-.225-.238c.1-1.9.276-5.511.279-5.634a.242.242,0,0,1,.48,0c0,.094-.234,4.726-.28,5.653a.235.235,0,0,1-.24.213Zm.046-5.87Z" transform="translate(-1669.082 -1649.712)" fill="url(#linear-gradient-21)"/>
              <path id="Trazado_118336" data-name="Trazado 118336" d="M1648.507,1654.383a.468.468,0,0,0,.479-.438c.2-5.467.167-5.591.144-5.672a.481.481,0,0,0-.559-.331.456.456,0,0,0-.379.51c.015.329-.092,3.51-.165,5.461a.44.44,0,0,0,.129.325.491.491,0,0,0,.334.144Z" transform="translate(-1646.386 -1647.933)" fill="url(#linear-gradient-22)"/>
              <path id="Trazado_118337" data-name="Trazado 118337" d="M1637.63,1657.2a.247.247,0,0,0,.17-.067.22.22,0,0,0,.07-.161v-5.536a.24.24,0,0,0-.479,0v5.536a.221.221,0,0,0,.07.161A.247.247,0,0,0,1637.63,1657.2Z" transform="translate(-1636.549 -1650.977)" fill="url(#linear-gradient-23)"/>
              <path id="Trazado_118338" data-name="Trazado 118338" d="M1626.44,1657.032a.234.234,0,0,0,.24-.222c.046-1.924.15-5.066.249-5.444a.219.219,0,0,0-.047-.276.251.251,0,0,0-.294-.025c-.131.082-.255.158-.388,5.734a.234.234,0,0,0,.234.232Z" transform="translate(-1626.199 -1650.808)" fill="url(#linear-gradient-24)"/>
              <path id="Trazado_118339" data-name="Trazado 118339" d="M1710.847,1654.727a.47.47,0,0,0,.479-.431l.32-5.813a.465.465,0,0,0-.451-.478.477.477,0,0,0-.5.426l-.32,5.814a.437.437,0,0,0,.122.328.49.49,0,0,0,.332.149Z" transform="translate(-1704.046 -1648)" fill="url(#linear-gradient-25)"/>
            </g>
          </g>
          <g id="Grupo_54655" data-name="Grupo 54655" transform="translate(0 51.644)">
            <path id="Trazado_118340" data-name="Trazado 118340" d="M679.043,2280.877v-25.016a5.758,5.758,0,0,0-5.416-6c-9.011-.108-27.6-.113-42.8,1.289a4.35,4.35,0,0,0-3.764,4.331l-1.422,24.182a5.529,5.529,0,0,0,5.129,5.932l43.043.9A5.38,5.38,0,0,0,679.043,2280.877Z" transform="translate(-625.634 -2249.823)" fill="url(#linear-gradient-26)"/>
            <path id="Trazado_118341" data-name="Trazado 118341" d="M1131.543,2348.284c.038,2.132-.02,5.5-.067,7.687a1.821,1.821,0,0,1-1.966,1.868l-7.416-.952a1.9,1.9,0,0,1-1.537-2.2l.91-6.646a1.819,1.819,0,0,1,1.742-1.642h6.572A1.843,1.843,0,0,1,1131.543,2348.284Z" transform="translate(-1083.352 -2339.537)" fill="#fff"/>
            <path id="Trazado_118342" data-name="Trazado 118342" d="M913.9,2272.491l-6.187.731a1.459,1.459,0,0,1-1.54-1.63l1.352-20.141c2.593-.09,5.151-.156,7.62-.2v19.724A1.481,1.481,0,0,1,913.9,2272.491Z" transform="translate(-885.09 -2251.148)" fill="#fff" opacity="0.37"/>
            <path id="Trazado_118343" data-name="Trazado 118343" d="M960.013,2269.78a.647.647,0,0,1-.621.64h-.037a.664.664,0,0,1-.585-.719l.932-17.578,1.248-.032Z" transform="translate(-933.739 -2251.929)" fill="#fff"/>
            <g id="Grupo_54654" data-name="Grupo 54654" transform="translate(39.999 8.874)">
              <path id="Trazado_118344" data-name="Trazado 118344" d="M1218.786,2383.871a.218.218,0,0,0,.207-.213l.321-5.537a.208.208,0,0,0-.354-.179.2.2,0,0,0-.06.152l-.321,5.537a.22.22,0,0,0,.194.241Z" transform="translate(-1214.024 -2377.653)" fill="url(#linear-gradient-27)"/>
              <path id="Trazado_118345" data-name="Trazado 118345" d="M1209.992,2382.492a.218.218,0,0,0,.207-.219l.168-5.643a.205.205,0,0,0-.049-.157.228.228,0,0,0-.152-.078.2.2,0,0,0-.214.219l-.168,5.642a.2.2,0,0,0,.049.157.23.23,0,0,0,.152.078Z" transform="translate(-1205.891 -2376.274)" fill="url(#linear-gradient-28)"/>
              <path id="Trazado_118346" data-name="Trazado 118346" d="M1198.2,2382.494a.23.23,0,0,1-.151-.08.2.2,0,0,1-.047-.157c.082-1.9.239-5.511.241-5.634a.194.194,0,0,1,.095-.194.219.219,0,0,1,.226,0,.2.2,0,0,1,.095.194c0,.094-.2,4.726-.243,5.654a.219.219,0,0,1-.207.213Zm.04-5.87Z" transform="translate(-1194.991 -2376.276)" fill="url(#linear-gradient-29)"/>
              <path id="Trazado_118347" data-name="Trazado 118347" d="M1177.28,2381.137a.432.432,0,0,0,.414-.438c.176-5.467.145-5.59.125-5.672a.412.412,0,0,0-.51-.319.452.452,0,0,0-.3.5c.014.329-.08,3.509-.142,5.46a.439.439,0,0,0,.4.47Z" transform="translate(-1175.447 -2374.692)" fill="url(#linear-gradient-30)"/>
              <path id="Trazado_118348" data-name="Trazado 118348" d="M1167.83,2383.873a.218.218,0,0,0,.207-.227v-5.537a.194.194,0,0,0-.094-.2.219.219,0,0,0-.227,0,.194.194,0,0,0-.094.2v5.538A.217.217,0,0,0,1167.83,2383.873Z" transform="translate(-1166.895 -2377.656)" fill="url(#linear-gradient-31)"/>
              <path id="Trazado_118349" data-name="Trazado 118349" d="M1158.185,2383.713a.218.218,0,0,0,.207-.222c.04-1.924.132-5.066.216-5.444a.245.245,0,0,0-.008-.235.189.189,0,0,0-.127-.1.2.2,0,0,0-.16.032c-.113.081-.22.158-.335,5.734a.217.217,0,0,0,.2.233Z" transform="translate(-1157.976 -2377.495)" fill="url(#linear-gradient-32)"/>
              <path id="Trazado_118350" data-name="Trazado 118350" d="M1231.089,2381.413a.434.434,0,0,0,.414-.431l.276-5.814a.442.442,0,0,0-.393-.477.431.431,0,0,0-.436.43l-.277,5.814a.442.442,0,0,0,.393.477Z" transform="translate(-1225.211 -2374.691)" fill="url(#linear-gradient-33)"/>
            </g>
          </g>
        </g>
        <g id="Grupo_54661" data-name="Grupo 54661" transform="translate(8.909 49.922)">
          <g id="Grupo_54657" data-name="Grupo 54657" transform="translate(36.099 25.226)">
            <path id="Trazado_118351" data-name="Trazado 118351" d="M721.78,1101.24l-3.722,1.895a33.723,33.723,0,0,1-12.053,4.439c-11.223,1.593-18.538-5.106-23.989-9.168-7.2-5.365-12.8-2.755-12.8-2.755l7.675,13.854c11.461,10.221,23.213,7.951,30.621,4.639a34.573,34.573,0,0,0,7.672-4.639C723.62,1104.751,721.78,1101.24,721.78,1101.24Z" transform="translate(-669.22 -1095.016)" fill="url(#linear-gradient-34)"/>
            <path id="Trazado_118352" data-name="Trazado 118352" d="M1322.114,1141.2a2.657,2.657,0,0,0-1.6-1.661l-7.554-2.873s-.114-.916,1.6-1.539a2.108,2.108,0,0,0,1.31-2.434s-2.336,1.008-5.756,2.607a7.747,7.747,0,0,0-3.635,3.743l1.945,2.416a36.478,36.478,0,0,0,14.117,1.051Z" transform="translate(-1258.589 -1130.013)" fill="url(#linear-gradient-35)"/>
          </g>
          <path id="Trazado_118353" data-name="Trazado 118353" d="M636.62,2673.2s-.575,3.079-.857,6.126a2.027,2.027,0,0,0,.548,1.566,2.271,2.271,0,0,0,1.575.708c4.291.169,13.47.5,16.763.359a.732.732,0,0,0,.573-.313.651.651,0,0,0,.063-.623h0a1.57,1.57,0,0,0-.826-.824l-15.162-6.587Z" transform="translate(-602.171 -2535.815)" fill="url(#linear-gradient-36)"/>
          <path id="Trazado_118354" data-name="Trazado 118354" d="M641,2640.308l.462,3.683s2.656,1.169,4.47-.147l-1.1-4.1Z" transform="translate(-607.021 -2504.733)" fill="url(#linear-gradient-37)"/>
          <path id="Trazado_118355" data-name="Trazado 118355" d="M496.313,1639.39c-.2.995.358,52.228,5.673,74.079.086.355.636,1.056.446,1.363-.461.746-3.858.536-5.772.6-.594.02-.912-.64-1.079-1.2-1.519-5.07-8.8-30.471-9.749-54.736-1.061-27.114,0-.924,0-.924l-.472-17.178Z" transform="translate(-463.076 -1575.476)" fill="url(#linear-gradient-38)"/>
          <path id="Trazado_118356" data-name="Trazado 118356" d="M392.606,2695.8a21.356,21.356,0,0,0-1.8,5.686,1.226,1.226,0,0,0,.234,1.018,1.371,1.371,0,0,0,.957.515c1.416.132,3.6.3,5.345.29a1.386,1.386,0,0,0,1-.429,1.234,1.234,0,0,0,.334-.992,10.471,10.471,0,0,0-2.659-5.909Z" transform="translate(-375.597 -2556.809)" fill="url(#linear-gradient-39)"/>
          <path id="Trazado_118357" data-name="Trazado 118357" d="M404.45,2626.326l1.08,5.569a3.99,3.99,0,0,0,3.178.207l-.515-5.991Z" transform="translate(-388.245 -2492.072)" fill="url(#linear-gradient-40)"/>
          <path id="Trazado_118358" data-name="Trazado 118358" d="M348.547,1634.691c-4.347,25.9.621,66,2.4,73.46a1.173,1.173,0,0,0,.951.883,8.013,8.013,0,0,0,3.4-.134,1.068,1.068,0,0,0,.776-.981c.24-6.031-.192-43.056,3.859-57.688a3.323,3.323,0,0,1,1.3-1.833l6.665-5.138.124-11.079Z" transform="translate(-334.937 -1568.779)" fill="url(#linear-gradient-41)"/>
          <path id="Trazado_118359" data-name="Trazado 118359" d="M382.324,1082.741c-11.457-.178-24.1,2.843-24.1,2.843-2.815,15.536-1.685,32.753-1.1,38.423.12,1.162-.537,2.393.682,2.579a60.007,60.007,0,0,0,18.344-.821c1.07-.294.888-1.372,1.116-2.4,1.966-8.917,7.589-28.585,7.589-28.585,2.724,3.315,6.569,7.955,12.253,9.189-2.9-3.175,2.66-9.835,2.066-12.224C394.037,1086.283,385.858,1082.8,382.324,1082.741Z" transform="translate(-343.807 -1058.38)" fill="url(#linear-gradient-42)"/>
          <path id="Trazado_118360" data-name="Trazado 118360" d="M501.861,959.06l-3.646,9.971a.351.351,0,0,0,.173.433,8.983,8.983,0,0,0,8.888-.569,1.688,1.688,0,0,0,.826-1.208l1.174-8.627Z" transform="translate(-474.945 -943.496)" fill="url(#linear-gradient-43)"/>
          <g id="Grupo_54658" data-name="Grupo 54658" transform="translate(22.427 3.202)">
            <path id="Trazado_118361" data-name="Trazado 118361" d="M537.5,829.14s4,7.127,3.492,10.006-5.474,2.672-9.806.334l-3.03-7.7Z" transform="translate(-525.087 -826.011)" fill="url(#linear-gradient-44)"/>
            <path id="Trazado_118362" data-name="Trazado 118362" d="M493.55,794.807a.3.3,0,0,0,.173-.185.28.28,0,0,0-.038-.245,7.521,7.521,0,0,1-1.114-2.237s-.719-.436,1.832-1.013c1.389-.314,3.852-.574,4.934-1.519,1.21-1.057-1.023-3.056-1.961-3.59a5.7,5.7,0,0,0-4.145-.77,11.8,11.8,0,0,0-4.618,2.972,6.791,6.791,0,0,0-.844,2.024,9.628,9.628,0,0,0-.506,3.089c.135,2.785,3.586,5.28,6.36,5.585a.322.322,0,0,0,.278-.11.284.284,0,0,0,.051-.281l-1.135-3.118a.29.29,0,0,1,.168-.366Z" transform="translate(-487.258 -785.118)" fill="url(#linear-gradient-45)"/>
            <path id="Trazado_118363" data-name="Trazado 118363" d="M539.292,915.718s-2.85-1.848-3.058-.292,2.566,2.256,3.941,1.676Z" transform="translate(-532.543 -905.587)" fill="url(#linear-gradient-46)"/>
          </g>
          <path id="Trazado_118364" data-name="Trazado 118364" d="M477.622,744.642c-5.848-10.447-21-.957-13.951,7.845C468.916,749.188,474.843,744.285,477.622,744.642Z" transform="translate(-441.32 -740.06)" fill="url(#linear-gradient-47)"/>
          <path id="Trazado_118365" data-name="Trazado 118365" d="M548.648,805.751l10.5-.307a.765.765,0,0,0,.64-.368,7.022,7.022,0,0,1,4.038-3.193.2.2,0,0,0,.141-.217.208.208,0,0,0-.2-.173l-6.438-.414h-.022c-3.208.233-6.049,2.061-8.758,4.451a.122.122,0,0,0-.033.142A.135.135,0,0,0,548.648,805.751Z" transform="translate(-521.48 -796.743)" fill="url(#linear-gradient-48)"/>
          <path id="Trazado_118366" data-name="Trazado 118366" d="M207.9,1138.583c6.411-6.808,5.762-12.05-1.475-15.823,0,0-12,7.71-13.969,17.483a29.693,29.693,0,0,1,10.428,2.644A4.854,4.854,0,0,1,207.9,1138.583Z" transform="translate(-192.183 -1095.562)" fill="url(#linear-gradient-49)"/>
          <path id="Trazado_118367" data-name="Trazado 118367" d="M218.43,1374.126s-13.468,7.2-18.013,1.053a4.633,4.633,0,0,1-.937-3.755,29.663,29.663,0,0,0-10.428-2.644,12.856,12.856,0,0,0,1.55,9.248c7.965,13.773,29.61-.761,29.61-.761Z" transform="translate(-188.779 -1324.098)" fill="url(#linear-gradient-50)"/>
          <g id="Grupo_54659" data-name="Grupo 54659" transform="translate(28.004 30.479)">
            <path id="Trazado_118368" data-name="Trazado 118368" d="M561.513,1228.441l7.35-24.281a.741.741,0,0,1,.633-.51c1.331-.147,5.191-.559,9.647-.916a116.206,116.206,0,0,1,15.328-.481.756.756,0,0,1,.593.357.677.677,0,0,1,.021.665c-2.118,4.051-10.83,20.539-15.193,25.94a.767.767,0,0,1-.606.284l-17.056-.15a.766.766,0,0,1-.6-.286A.68.68,0,0,1,561.513,1228.441Z" transform="translate(-561.483 -1199.783)" fill="url(#linear-gradient-51)"/>
            <path id="Trazado_118369" data-name="Trazado 118369" d="M798.731,1169.777l5.329-.842a.4.4,0,0,1,.354.122.347.347,0,0,1,.073.349l-.526,1.511a.376.376,0,0,1-.313.245l-5.128.648a.4.4,0,0,1-.334-.115.348.348,0,0,1-.089-.325l.326-1.321A.375.375,0,0,1,798.731,1169.777Z" transform="translate(-780.31 -1168.93)" fill="url(#linear-gradient-52)"/>
            <path id="Trazado_118370" data-name="Trazado 118370" d="M753.435,1193.8l.44-2.163a.516.516,0,0,1,.466-.4L765.1,1190.2a.542.542,0,0,1,.453.167.479.479,0,0,1,.115.447l-.685,2.7a.519.519,0,0,1-.488.382l-10.519.5a.541.541,0,0,1-.425-.169A.479.479,0,0,1,753.435,1193.8Z" transform="translate(-739.004 -1188.687)" fill="url(#linear-gradient-53)"/>
            <path id="Trazado_118371" data-name="Trazado 118371" d="M576.782,1381.456s-1.024-3.98-.611-5.395,1.214-3.229,3.879-2.822a41.454,41.454,0,0,1,5.814,1.466s-.159,1.841-2.186,1.247l1.257.924s-.18,1.473-1.892.687l1.169,1.22a1.4,1.4,0,0,1-1.995.434C580.957,1378.442,580.354,1381.936,576.782,1381.456Z" transform="translate(-574.976 -1358.666)" fill="url(#linear-gradient-54)"/>
          </g>
          <g id="Grupo_54660" data-name="Grupo 54660" transform="translate(17.258 38.11)">
            <path id="Trazado_118372" data-name="Trazado 118372" d="M430.822,1276.31c-.841.064-7.952.279-7.952.279l.287,6.771,3.682,1.965,3.982-1.965Z" transform="translate(-422.539 -1276.31)" fill="url(#linear-gradient-55)"/>
            <path id="Trazado_118373" data-name="Trazado 118373" d="M427.308,1276.31l-8.5.279-.348,2.6,4.424,1.087,4.7-1.982Z" transform="translate(-418.46 -1276.31)" fill="url(#linear-gradient-56)"/>
          </g>
        </g>
      </g>
    </g>
  </g>
</svg>
