<svg id="producto-1" xmlns="http://www.w3.org/2000/svg" width="176.507" height="167.813" viewBox="0 0 176.507 167.813">
  <g id="Grupo_55893" data-name="Grupo 55893" transform="translate(0 4.114)">
    <path id="Trazado_121315" data-name="Trazado 121315" d="M125.769,45.136c-23.821-10.271-56.808-6.369-75.037,11.971C37.861,70.056,47.823,73.746,56.6,97.441,62.949,114.59,0,112.23,0,143.218c0,35.825,45.592,29.034,62.511,33.134,25.868,6.27,48.435,29.725,76.073,26.632,24.061-2.692,33.234-23.5,36.58-47.352,6.234-44.44-9.077-93.113-49.4-110.5Z" transform="translate(0 -39.566)" fill="#91b3fa"/>
  </g>
  <g id="Grupo_55908" data-name="Grupo 55908" transform="translate(11.226)">
    <g id="Grupo_55907" data-name="Grupo 55907">
      <g id="Grupo_55894" data-name="Grupo 55894" transform="translate(0 11.397)" opacity="0.1">
        <path id="Trazado_121316" data-name="Trazado 121316" d="M208.934,311.95c-8.152.248-14.708,7.655-14.741,16.643a17.843,17.843,0,0,0,2.692,9.578,65.319,65.319,0,0,1,5.123,9.92l5.8,14.1h-.453a1.908,1.908,0,0,0,0,3.8h4.26a1.908,1.908,0,0,0,0-3.8h-.688l5.844-14.212a66.714,66.714,0,0,1,5.116-9.869,17.844,17.844,0,0,0,2.652-9.445C224.534,319.271,217.508,311.689,208.934,311.95Z" transform="translate(-138.473 -215.749)" fill="#2626bc"/>
        <path id="Trazado_121317" data-name="Trazado 121317" d="M394.629,223.16a17.844,17.844,0,0,0,2.652-9.445c0-9.39-7.025-16.973-15.6-16.712-8.152.248-14.708,7.655-14.741,16.643a17.843,17.843,0,0,0,2.692,9.578,65.315,65.315,0,0,1,5.123,9.92l5.8,14.1h-.684a1.908,1.908,0,0,0,0,3.8h4.318a1.908,1.908,0,0,0,0-3.8h-.516l5.844-14.212A66.654,66.654,0,0,1,394.629,223.16Z" transform="translate(-251.667 -144.471)" fill="#2626bc"/>
        <path id="Trazado_121318" data-name="Trazado 121318" d="M51.892,113.527l8.462,20.579a1.575,1.575,0,0,0,2.974,0l8.526-20.736a90.206,90.206,0,0,1,6.919-13.349A23.159,23.159,0,0,0,79.946,97.9a16.822,16.822,0,0,0,6.512,1.314c10.142,0,18.364-9.06,18.364-20.237S96.6,58.736,86.457,58.736a17.9,17.9,0,0,0-14.984,8.545,18.923,18.923,0,0,0-10.214-2.638C50.233,64.979,41.365,75,41.321,87.154a24.136,24.136,0,0,0,3.642,12.955,88.2,88.2,0,0,1,6.929,13.417Z" transform="translate(-38.302 -58.736)" fill="#2626bc"/>
        <path id="Trazado_121319" data-name="Trazado 121319" d="M170.77,329.251H168.7a1.908,1.908,0,0,0,0,3.8h2.068a1.908,1.908,0,0,0,0-3.8Z" transform="translate(-120.64 -226.481)" fill="#2626bc"/>
        <path id="Trazado_121320" data-name="Trazado 121320" d="M62.576,333.4a20.9,20.9,0,0,0-4.089,2.374,2.022,2.022,0,0,0-.467,2.637,1.684,1.684,0,0,0,1.431.839,1.6,1.6,0,0,0,.961-.324,17.533,17.533,0,0,1,3.433-1.993,1.968,1.968,0,0,0,.968-2.465A1.677,1.677,0,0,0,62.576,333.4Z" transform="translate(-49.052 -228.97)" fill="#2626bc"/>
        <path id="Trazado_121322" data-name="Trazado 121322" d="M85.11,443.589h-.578a16.558,16.558,0,0,1-3.343-.34,1.742,1.742,0,0,0-2.011,1.518,1.9,1.9,0,0,0,1.377,2.217,19.739,19.739,0,0,0,3.976.4h.579a1.908,1.908,0,0,0,0-3.8Z" transform="translate(-63.089 -297.151)" fill="#2626bc"/>
        <path id="Trazado_121323" data-name="Trazado 121323" d="M98.823,329.251h-4.26a1.908,1.908,0,0,0,0,3.8h4.26a1.908,1.908,0,0,0,0-3.8Z" transform="translate(-72.06 -226.481)" fill="#2626bc"/>
        <path id="Trazado_121324" data-name="Trazado 121324" d="M122.137,444.2h-4.26a1.908,1.908,0,0,0,0,3.8h4.26a1.908,1.908,0,0,0,0-3.8Z" transform="translate(-87.337 -297.759)" fill="#2626bc"/>
        <path id="Trazado_121325" data-name="Trazado 121325" d="M135.892,329.251h-4.26a1.908,1.908,0,0,0,0,3.8h4.26a1.908,1.908,0,0,0,0-3.8Z" transform="translate(-96.35 -226.481)" fill="#2626bc"/>
        <path id="Trazado_121326" data-name="Trazado 121326" d="M36,393.915a1.776,1.776,0,0,0-1.878-1.713,1.858,1.858,0,0,0-1.554,2.069,25.834,25.834,0,0,0,.927,4.991,1.75,1.75,0,0,0,1.641,1.321,1.577,1.577,0,0,0,.526-.091,1.944,1.944,0,0,0,1.116-2.388A21.706,21.706,0,0,1,36,393.915Z" transform="translate(-32.564 -265.511)" fill="#2626bc"/>
        <path id="Trazado_121327" data-name="Trazado 121327" d="M53.246,428.933a18.918,18.918,0,0,1-2.91-2.833,1.615,1.615,0,0,0-2.435-.121,2.038,2.038,0,0,0-.11,2.684,22.511,22.511,0,0,0,3.461,3.369,1.609,1.609,0,0,0,1,.35,1.677,1.677,0,0,0,1.408-.8,2.026,2.026,0,0,0-.409-2.648Z" transform="translate(-42.246 -286.154)" fill="#2626bc"/>
        <path id="Trazado_121328" data-name="Trazado 121328" d="M39.922,356.989a1.634,1.634,0,0,0-2.371.625,24.831,24.831,0,0,0-1.979,4.6,1.953,1.953,0,0,0,1.063,2.417,1.575,1.575,0,0,0,.566.106,1.744,1.744,0,0,0,1.628-1.276,20.828,20.828,0,0,1,1.661-3.863A2.014,2.014,0,0,0,39.922,356.989Z" transform="translate(-34.472 -243.507)" fill="#2626bc"/>
        <path id="Trazado_121329" data-name="Trazado 121329" d="M196.276,444.2h-4.26a1.908,1.908,0,0,0,0,3.8h4.26a1.908,1.908,0,0,0,0-3.8Z" transform="translate(-135.917 -297.759)" fill="#2626bc"/>
        <path id="Trazado_121330" data-name="Trazado 121330" d="M268.326,444.2h-2.068a1.908,1.908,0,0,0,0,3.8h2.068a1.908,1.908,0,0,0,0-3.8Z" transform="translate(-184.565 -297.759)" fill="#2626bc"/>
        <path id="Trazado_121331" data-name="Trazado 121331" d="M463.947,272.457a2.019,2.019,0,0,0,.51-2.627,16.053,16.053,0,0,0-1.426-2.047,1.614,1.614,0,0,0-2.435-.135,2.038,2.038,0,0,0-.122,2.683,12.26,12.26,0,0,1,1.09,1.564,1.688,1.688,0,0,0,1.449.867A1.606,1.606,0,0,0,463.947,272.457Z" transform="translate(-312.665 -187.977)" fill="#2626bc"/>
        <path id="Trazado_121332" data-name="Trazado 121332" d="M469.164,295.821a1.774,1.774,0,0,0-1.886,1.7,13.1,13.1,0,0,1-.986,3.949,1.986,1.986,0,0,0,.83,2.526,1.583,1.583,0,0,0,.73.18,1.719,1.719,0,0,0,1.562-1.094,17.186,17.186,0,0,0,1.295-5.183A1.862,1.862,0,0,0,469.164,295.821Z" transform="translate(-316.662 -205.745)" fill="#2626bc"/>
        <path id="Trazado_121333" data-name="Trazado 121333" d="M326.006,333.05h4.318a1.908,1.908,0,0,0,0-3.8h-4.318a1.908,1.908,0,0,0,0,3.8Z" transform="translate(-223.715 -226.481)" fill="#2626bc"/>
        <path id="Trazado_121334" data-name="Trazado 121334" d="M363.585,333.05H367.9a1.908,1.908,0,0,0,0-3.8h-4.318a1.908,1.908,0,0,0,0,3.8Z" transform="translate(-248.339 -226.481)" fill="#2626bc"/>
        <path id="Trazado_121335" data-name="Trazado 121335" d="M442.077,325.6a10.252,10.252,0,0,1-3.559,1.174,1.869,1.869,0,0,0-1.5,2.115,1.792,1.792,0,0,0,1.709,1.67,1.6,1.6,0,0,0,.211-.014A13.445,13.445,0,0,0,443.609,329a1.993,1.993,0,0,0,.778-2.546A1.655,1.655,0,0,0,442.077,325.6Z" transform="translate(-297.577 -224.094)" fill="#2626bc"/>
        <path id="Trazado_121336" data-name="Trazado 121336" d="M298.708,331.15a1.818,1.818,0,0,0-1.724-1.9h-2.068a1.908,1.908,0,0,0,0,3.8h2.068A1.818,1.818,0,0,0,298.708,331.15Z" transform="translate(-203.343 -226.481)" fill="#2626bc"/>
        <path id="Trazado_121337" data-name="Trazado 121337" d="M127.775,254.909a1.908,1.908,0,0,0,0,3.8h2.068a1.908,1.908,0,0,0,0-3.8Z" transform="translate(-93.822 -180.382)" fill="#2626bc"/>
        <path id="Trazado_121338" data-name="Trazado 121338" d="M194.723,254.909a1.908,1.908,0,0,0,0,3.8h4.2a1.908,1.908,0,0,0,0-3.8Z" transform="translate(-137.691 -180.382)" fill="#2626bc"/>
        <path id="Trazado_121339" data-name="Trazado 121339" d="M158.154,254.909a1.908,1.908,0,0,0,0,3.8h4.2a1.908,1.908,0,0,0,0-3.8Z" transform="translate(-113.728 -180.382)" fill="#2626bc"/>
        <path id="Trazado_121340" data-name="Trazado 121340" d="M272.062,254.909h-4.2a1.908,1.908,0,0,0,0,3.8h4.2a1.908,1.908,0,0,0,0-3.8Z" transform="translate(-185.614 -180.382)" fill="#2626bc"/>
        <path id="Trazado_121341" data-name="Trazado 121341" d="M304.428,258.708h4.2a1.908,1.908,0,0,0,0-3.8h-4.2a1.908,1.908,0,0,0,0,3.8Z" transform="translate(-209.576 -180.382)" fill="#2626bc"/>
        <path id="Trazado_121342" data-name="Trazado 121342" d="M231.291,258.708h4.2a1.908,1.908,0,0,0,0-3.8h-4.2a1.908,1.908,0,0,0,0,3.8Z" transform="translate(-161.652 -180.382)" fill="#2626bc"/>
        <path id="Trazado_121343" data-name="Trazado 121343" d="M341,258.708h2.068a1.908,1.908,0,0,0,0-3.8H341a1.908,1.908,0,0,0,0,3.8Z" transform="translate(-233.538 -180.382)" fill="#2626bc"/>
      </g>
      <g id="Grupo_55904" data-name="Grupo 55904" transform="translate(0 7.797)">
        <g id="Grupo_55895" data-name="Grupo 55895" transform="translate(3.02)">
          <path id="Trazado_121344" data-name="Trazado 121344" d="M82.362,71.874c0-12.7-9.5-22.957-21.1-22.6-11.027.335-19.894,10.355-19.939,22.511a24.136,24.136,0,0,0,3.642,12.956,88.275,88.275,0,0,1,6.929,13.418l8.462,20.579a1.575,1.575,0,0,0,2.974,0L71.856,98A90.206,90.206,0,0,1,78.775,84.65a24.142,24.142,0,0,0,3.587-12.775Z" transform="translate(-41.323 -49.262)" fill="#ff7eb8"/>
          <path id="Trazado_121345" data-name="Trazado 121345" d="M133.249,83.67a24.125,24.125,0,0,1-3.589,12.776c-1.1,1.774-2.165,3.586-3.161,5.436a21.427,21.427,0,0,1,1.265-33.6A23.83,23.83,0,0,1,133.249,83.67Z" transform="translate(-92.208 -61.057)" fill="#ff5ba8"/>
          <ellipse id="Elipse_4244" data-name="Elipse 4244" cx="12.608" cy="13.894" rx="12.608" ry="13.894" transform="translate(7.84 8.886)" fill="#fff"/>
          <path id="Trazado_121346" data-name="Trazado 121346" d="M125.265,93.945a14.458,14.458,0,0,1-4.43,10.573,22.031,22.031,0,0,1,1.138-19.934A14.638,14.638,0,0,1,125.265,93.945Z" transform="translate(-92.208 -71.165)" fill="#ffdbed"/>
        </g>
        <g id="Grupo_55896" data-name="Grupo 55896" transform="translate(55.72 90.296)">
          <path id="Trazado_121347" data-name="Trazado 121347" d="M224.534,303.662c0-9.39-7.025-16.973-15.6-16.712-8.152.248-14.708,7.655-14.741,16.643a17.844,17.844,0,0,0,2.692,9.578,65.318,65.318,0,0,1,5.123,9.92l6.256,15.215a1.164,1.164,0,0,0,2.2,0l6.3-15.331a66.691,66.691,0,0,1,5.116-9.869A17.845,17.845,0,0,0,224.534,303.662Z" transform="translate(-194.193 -286.944)" fill="#ff7eb8"/>
          <ellipse id="Elipse_4245" data-name="Elipse 4245" cx="8.765" cy="9.659" rx="8.765" ry="9.659" transform="translate(6.353 7.183)" fill="#fff"/>
        </g>
        <g id="Grupo_55897" data-name="Grupo 55897" transform="translate(115.273 46.628)">
          <path id="Trazado_121348" data-name="Trazado 121348" d="M397.281,188.715c0-9.391-7.025-16.973-15.6-16.712-8.152.248-14.708,7.655-14.741,16.643a17.844,17.844,0,0,0,2.692,9.578,65.314,65.314,0,0,1,5.123,9.92l6.256,15.215a1.164,1.164,0,0,0,2.2,0l6.3-15.331a66.7,66.7,0,0,1,5.116-9.869A17.847,17.847,0,0,0,397.281,188.715Z" transform="translate(-366.94 -171.997)" fill="#ff7eb8"/>
          <ellipse id="Elipse_4246" data-name="Elipse 4246" cx="8.765" cy="9.659" rx="8.765" ry="9.659" transform="translate(6.352 7.183)" fill="#fff"/>
        </g>
        <g id="Grupo_55903" data-name="Grupo 55903" transform="translate(0 44.729)">
          <g id="Grupo_55899" data-name="Grupo 55899" transform="translate(0 43.669)">
            <path id="Trazado_121349" data-name="Trazado 121349" d="M170.77,308.05H168.7a1.908,1.908,0,0,1,0-3.8h2.068a1.908,1.908,0,0,1,0,3.8Z" transform="translate(-120.64 -295.777)" fill="#2626bc"/>
            <g id="Grupo_55898" data-name="Grupo 55898">
              <path id="Trazado_121350" data-name="Trazado 121350" d="M217.866,287.216a15.968,15.968,0,0,0-12.256-5.264c-9.016.275-16.381,8.588-16.417,18.534a19.845,19.845,0,0,0,3,10.668,63.538,63.538,0,0,1,4.969,9.622l5.7,13.863a1.992,1.992,0,0,0-.511,1.349,1.818,1.818,0,0,0,1.724,1.9h4.26a1.818,1.818,0,0,0,1.724-1.9,1.959,1.959,0,0,0-.682-1.5l5.684-13.824a64.278,64.278,0,0,1,4.967-9.578,19.864,19.864,0,0,0,2.954-10.519A19.44,19.44,0,0,0,217.866,287.216Zm-.682,21.716a68.118,68.118,0,0,0-5.265,10.159l-5.833,14.186-5.785-14.07a67.428,67.428,0,0,0-5.276-10.218,15.794,15.794,0,0,1-2.386-8.489c.029-7.916,5.89-14.533,13.065-14.752.129,0,.257-.006.385-.006a12.729,12.729,0,0,1,9.372,4.2,15.474,15.474,0,0,1,4.072,10.623A15.806,15.806,0,0,1,217.184,308.933Z" transform="translate(-135.196 -281.945)" fill="#2626bc"/>
              <path id="Trazado_121351" data-name="Trazado 121351" d="M85.11,418.59h-.573a16.625,16.625,0,0,1-3.348-.34,1.743,1.743,0,0,0-2.011,1.518,1.9,1.9,0,0,0,1.377,2.217,19.757,19.757,0,0,0,3.982.405h.573a1.909,1.909,0,0,0,0-3.8Z" transform="translate(-63.089 -366.447)" fill="#2626bc"/>
              <path id="Trazado_121352" data-name="Trazado 121352" d="M62.577,308.4a20.9,20.9,0,0,0-4.089,2.374,2.022,2.022,0,0,0-.467,2.637,1.684,1.684,0,0,0,1.431.839,1.6,1.6,0,0,0,.961-.324,17.517,17.517,0,0,1,3.433-1.993,1.968,1.968,0,0,0,.968-2.465A1.678,1.678,0,0,0,62.577,308.4Z" transform="translate(-49.052 -298.265)" fill="#2626bc"/>
              <path id="Trazado_121353" data-name="Trazado 121353" d="M53.246,403.934a18.917,18.917,0,0,1-2.91-2.833,1.615,1.615,0,0,0-2.435-.121,2.038,2.038,0,0,0-.11,2.684,22.517,22.517,0,0,0,3.461,3.369,1.61,1.61,0,0,0,1,.35,1.677,1.677,0,0,0,1.408-.8,2.026,2.026,0,0,0-.409-2.648Z" transform="translate(-42.246 -355.45)" fill="#2626bc"/>
              <path id="Trazado_121354" data-name="Trazado 121354" d="M36,368.914a1.777,1.777,0,0,0-1.878-1.713,1.858,1.858,0,0,0-1.554,2.069,25.83,25.83,0,0,0,.927,4.991,1.75,1.75,0,0,0,1.641,1.321,1.576,1.576,0,0,0,.526-.091,1.944,1.944,0,0,0,1.116-2.388,21.681,21.681,0,0,1-.777-4.19Z" transform="translate(-32.564 -334.806)" fill="#2626bc"/>
              <path id="Trazado_121355" data-name="Trazado 121355" d="M39.922,331.989a1.635,1.635,0,0,0-2.371.625,24.862,24.862,0,0,0-1.979,4.6,1.953,1.953,0,0,0,1.062,2.418,1.575,1.575,0,0,0,.566.106,1.744,1.744,0,0,0,1.628-1.276,20.834,20.834,0,0,1,1.661-3.863A2.015,2.015,0,0,0,39.922,331.989Z" transform="translate(-34.472 -312.803)" fill="#2626bc"/>
              <path id="Trazado_121356" data-name="Trazado 121356" d="M135.892,304.251h-4.26a1.908,1.908,0,0,0,0,3.8h4.26a1.908,1.908,0,0,0,0-3.8Z" transform="translate(-96.35 -295.777)" fill="#2626bc"/>
              <path id="Trazado_121357" data-name="Trazado 121357" d="M159.206,419.2h-4.26a1.908,1.908,0,0,0,0,3.8h4.26a1.908,1.908,0,0,0,0-3.8Z" transform="translate(-111.627 -367.055)" fill="#2626bc"/>
              <path id="Trazado_121358" data-name="Trazado 121358" d="M196.275,419.2h-4.26a1.908,1.908,0,0,0,0,3.8h4.26a1.908,1.908,0,0,0,0-3.8Z" transform="translate(-135.917 -367.055)" fill="#2626bc"/>
              <path id="Trazado_121359" data-name="Trazado 121359" d="M98.823,304.251h-4.26a1.908,1.908,0,0,0,0,3.8h4.26a1.908,1.908,0,0,0,0-3.8Z" transform="translate(-72.06 -295.777)" fill="#2626bc"/>
              <path id="Trazado_121360" data-name="Trazado 121360" d="M122.137,419.2h-4.26a1.908,1.908,0,0,0,0,3.8h4.26a1.908,1.908,0,0,0,0-3.8Z" transform="translate(-87.337 -367.055)" fill="#2626bc"/>
            </g>
            <path id="Trazado_121361" data-name="Trazado 121361" d="M268.327,423h-2.068a1.908,1.908,0,0,1,0-3.8h2.068a1.908,1.908,0,0,1,0,3.8Z" transform="translate(-184.565 -367.055)" fill="#2626bc"/>
          </g>
          <g id="Grupo_55901" data-name="Grupo 55901" transform="translate(89.849)">
            <path id="Trazado_121362" data-name="Trazado 121362" d="M463.012,247.762a1.689,1.689,0,0,1-1.449-.867,12.269,12.269,0,0,0-1.09-1.564,2.038,2.038,0,0,1,.122-2.683,1.614,1.614,0,0,1,2.435.134,16.017,16.017,0,0,1,1.426,2.047,2.019,2.019,0,0,1-.51,2.627A1.6,1.6,0,0,1,463.012,247.762Z" transform="translate(-402.514 -213.604)" fill="#2626bc"/>
            <g id="Grupo_55900" data-name="Grupo 55900" transform="translate(10.718)">
              <path id="Trazado_121363" data-name="Trazado 121363" d="M378.356,167.005c-9.016.275-16.381,8.589-16.417,18.534a19.844,19.844,0,0,0,3,10.668,63.512,63.512,0,0,1,4.969,9.622l5.638,13.71a1.96,1.96,0,0,0-.679,1.5,1.818,1.818,0,0,0,1.724,1.9h4.318a1.818,1.818,0,0,0,1.724-1.9,1.979,1.979,0,0,0-.557-1.39l5.731-13.937a64.262,64.262,0,0,1,4.967-9.579,19.865,19.865,0,0,0,2.954-10.519,19.441,19.441,0,0,0-5.115-13.346,15.981,15.981,0,0,0-12.256-5.265Zm11.575,26.98a68.12,68.12,0,0,0-5.265,10.16l-5.833,14.186-5.785-14.07a67.454,67.454,0,0,0-5.276-10.218,15.8,15.8,0,0,1-2.386-8.488c.029-7.916,5.89-14.534,13.065-14.752.129,0,.256-.006.384-.006a12.73,12.73,0,0,1,9.373,4.2,15.474,15.474,0,0,1,4.072,10.623A15.8,15.8,0,0,1,389.931,193.985Z" transform="translate(-348.957 -166.998)" fill="#2626bc"/>
              <path id="Trazado_121364" data-name="Trazado 121364" d="M330.325,304.251h-4.318a1.908,1.908,0,0,0,0,3.8h4.318a1.908,1.908,0,0,0,0-3.8Z" transform="translate(-324.283 -252.108)" fill="#2626bc"/>
              <path id="Trazado_121365" data-name="Trazado 121365" d="M367.9,304.251h-4.318a1.908,1.908,0,0,0,0,3.8H367.9a1.908,1.908,0,0,0,0-3.8Z" transform="translate(-348.906 -252.108)" fill="#2626bc"/>
              <path id="Trazado_121366" data-name="Trazado 121366" d="M469.164,270.823a1.781,1.781,0,0,0-1.886,1.7,13.1,13.1,0,0,1-.986,3.949,1.986,1.986,0,0,0,.83,2.526,1.582,1.582,0,0,0,.73.18,1.719,1.719,0,0,0,1.562-1.094,17.179,17.179,0,0,0,1.294-5.183A1.861,1.861,0,0,0,469.164,270.823Z" transform="translate(-417.229 -231.374)" fill="#2626bc"/>
              <path id="Trazado_121367" data-name="Trazado 121367" d="M442.078,300.6a10.26,10.26,0,0,1-3.559,1.174,1.869,1.869,0,0,0-1.5,2.116,1.793,1.793,0,0,0,1.709,1.67,1.6,1.6,0,0,0,.211-.014A13.452,13.452,0,0,0,443.61,304a1.993,1.993,0,0,0,.778-2.546A1.655,1.655,0,0,0,442.078,300.6Z" transform="translate(-398.145 -249.721)" fill="#2626bc"/>
            </g>
            <path id="Trazado_121368" data-name="Trazado 121368" d="M296.984,308.05h-2.068a1.908,1.908,0,0,1,0-3.8h2.068a1.908,1.908,0,0,1,0,3.8Z" transform="translate(-293.192 -252.108)" fill="#2626bc"/>
          </g>
          <g id="Grupo_55902" data-name="Grupo 55902" transform="translate(32.229 23.9)">
            <path id="Trazado_121369" data-name="Trazado 121369" d="M129.844,233.708h-2.068a1.908,1.908,0,0,1,0-3.8h2.068a1.908,1.908,0,0,1,0,3.8Z" transform="translate(-126.052 -229.909)" fill="#2626bc"/>
            <path id="Trazado_121370" data-name="Trazado 121370" d="M212.783,233.708h-4.2a1.908,1.908,0,0,1,0-3.8h4.2a1.908,1.908,0,0,1,0,3.8Zm-12.607,0h-4.2a1.908,1.908,0,0,1,0-3.8h4.2a1.908,1.908,0,0,1,0,3.8Zm-12.606,0h-4.2a1.908,1.908,0,0,1,0-3.8h4.2a1.908,1.908,0,0,1,0,3.8Zm-12.607,0h-4.2a1.908,1.908,0,0,1,0-3.8h4.2a1.908,1.908,0,0,1,0,3.8Zm-12.606,0h-4.2a1.908,1.908,0,0,1,0-3.8h4.2a1.908,1.908,0,0,1,0,3.8Z" transform="translate(-145.958 -229.909)" fill="#2626bc"/>
            <path id="Trazado_121371" data-name="Trazado 121371" d="M343.064,233.708H341a1.908,1.908,0,0,1,0-3.8h2.068a1.908,1.908,0,0,1,0,3.8Z" transform="translate(-265.767 -229.909)" fill="#2626bc"/>
          </g>
        </g>
      </g>
      <g id="Grupo_55905" data-name="Grupo 55905" transform="translate(1.295)">
        <ellipse id="Elipse_4247" data-name="Elipse 4247" cx="18.364" cy="20.237" rx="18.364" ry="20.237" transform="translate(28.497 1.899)" fill="#57dbd8"/>
        <path id="Trazado_121372" data-name="Trazado 121372" d="M163.961,73.182a7.725,7.725,0,0,0,2.24-5.5c0-4.082-3.013-7.4-6.718-7.4s-6.718,3.321-6.718,7.4a7.725,7.725,0,0,0,2.24,5.5,7.725,7.725,0,0,0-2.24,5.5,1.732,1.732,0,1,0,3.447,0,3.286,3.286,0,1,1,6.54,0,1.732,1.732,0,1,0,3.447,0A7.725,7.725,0,0,0,163.961,73.182Zm-7.747-5.5a3.286,3.286,0,1,1,3.27,3.6A3.453,3.453,0,0,1,156.213,67.679Z" transform="translate(-112.623 -48.294)" fill="#fff"/>
        <path id="Trazado_121373" data-name="Trazado 121373" d="M83.182,28.737a19.4,19.4,0,0,0-15.488,8.054,20.567,20.567,0,0,0-9.758-2.147,21.206,21.206,0,0,0-15.274,7.395,25.722,25.722,0,0,0-6.341,17.007A26.134,26.134,0,0,0,40.27,73.092a86.575,86.575,0,0,1,6.776,13.12l8.462,20.58a3.237,3.237,0,0,0,6.114,0l8.526-20.736c.823-2,1.781-4.071,2.849-6.151a2.006,2.006,0,0,0-.652-2.588A1.642,1.642,0,0,0,70,78.034c-1.118,2.178-2.123,4.35-2.988,6.453l-8.443,20.533L50.186,84.643A90.5,90.5,0,0,0,43.1,70.928,22.077,22.077,0,0,1,39.77,59.062C39.81,48,48,38.747,58.032,38.442A17.312,17.312,0,0,1,65.7,39.99,23.753,23.753,0,0,0,63.1,50.874c0,12.206,9.011,22.137,20.088,22.137S103.27,63.08,103.27,50.874,94.259,28.737,83.182,28.737Zm0,40.474c-9.176,0-16.64-8.226-16.64-18.338s7.465-18.338,16.64-18.338,16.64,8.226,16.64,18.338S92.358,69.211,83.182,69.211Z" transform="translate(-36.321 -28.737)" fill="#2626bc"/>
      </g>
      <g id="Grupo_55906" data-name="Grupo 55906" transform="translate(91.022 121.575)">
        <ellipse id="Elipse_4248" data-name="Elipse 4248" cx="18.364" cy="20.237" rx="18.364" ry="20.237" transform="translate(1.724 1.13)" fill="#6583fe"/>
        <path id="Trazado_121374" data-name="Trazado 121374" d="M346.574,391.171a7.725,7.725,0,0,0,2.24-5.5c0-4.082-3.013-7.4-6.718-7.4s-6.718,3.321-6.718,7.4a7.725,7.725,0,0,0,2.24,5.5,7.725,7.725,0,0,0-2.24,5.5,1.732,1.732,0,1,0,3.447,0,3.286,3.286,0,1,1,6.54,0,1.732,1.732,0,1,0,3.447,0A7.725,7.725,0,0,0,346.574,391.171Zm-7.747-5.5a3.286,3.286,0,1,1,3.27,3.6A3.453,3.453,0,0,1,338.827,385.668Z" transform="translate(-322.009 -367.052)" fill="#fff"/>
        <path id="Trazado_121375" data-name="Trazado 121375" d="M316.684,392.254c-11.076,0-20.088-9.93-20.088-22.137,0-9.853,6-18.609,14.6-21.295a1.709,1.709,0,0,1,2.128,1.31,1.932,1.932,0,0,1-1.188,2.346c-7.121,2.224-12.1,9.478-12.1,17.64,0,10.111,7.465,18.338,16.64,18.338s16.641-8.226,16.641-18.338c0-8.136-4.954-15.383-12.046-17.624a1.933,1.933,0,0,1-1.182-2.35,1.708,1.708,0,0,1,2.132-1.3c8.563,2.706,14.544,11.455,14.544,21.276C336.772,382.324,327.76,392.254,316.684,392.254Z" transform="translate(-296.596 -348.751)" fill="#2626bc"/>
      </g>
    </g>
  </g>
</svg>
