<svg xmlns="http://www.w3.org/2000/svg" xmlns:xlink="http://www.w3.org/1999/xlink" width="623" height="345" viewBox="0 0 623 345">
  <defs>
    <linearGradient id="linear-gradient" x1="63.631" y1="0.119" x2="-40.69" y2="0.747" gradientUnits="objectBoundingBox">
      <stop offset="0" stop-color="#4f52ff"/>
      <stop offset="1" stop-color="#4042e2"/>
    </linearGradient>
    <linearGradient id="linear-gradient-2" x1="-0.728" y1="1.12" x2="1.082" y2="0.3" xlink:href="#linear-gradient"/>
    <linearGradient id="linear-gradient-3" x1="2.99" y1="-0.836" x2="0.114" y2="0.606" xlink:href="#linear-gradient"/>
    <linearGradient id="linear-gradient-4" x1="-2.994" y1="1.836" x2="2.987" y2="-0.616" xlink:href="#linear-gradient"/>
    <linearGradient id="linear-gradient-5" x1="1.972" y1="0.46" x2="-0.795" y2="0.54" xlink:href="#linear-gradient"/>
    <linearGradient id="linear-gradient-6" x1="1.195" y1="-1.051" x2="0.197" y2="1.319" xlink:href="#linear-gradient"/>
    <linearGradient id="linear-gradient-7" x1="0.991" y1="-1.401" x2="0.233" y2="1.243" xlink:href="#linear-gradient"/>
    <linearGradient id="linear-gradient-8" x1="21.32" y1="-0.555" x2="-11.315" y2="1.092" xlink:href="#linear-gradient"/>
    <linearGradient id="linear-gradient-9" x1="2.494" y1="3.634" x2="-1.901" y2="-3.161" xlink:href="#linear-gradient"/>
    <linearGradient id="linear-gradient-10" x1="15.264" y1="-0.034" x2="-21.745" y2="1.302" xlink:href="#linear-gradient"/>
    <linearGradient id="linear-gradient-11" x1="0.774" y1="-0.521" x2="0.216" y2="1.557" gradientUnits="objectBoundingBox">
      <stop offset="0" stop-color="#febbba"/>
      <stop offset="1" stop-color="#ff928e"/>
    </linearGradient>
    <linearGradient id="linear-gradient-12" x1="-0.005" y1="-0.3" x2="1.156" y2="1.538" xlink:href="#linear-gradient-11"/>
    <linearGradient id="linear-gradient-13" x1="0.69" y1="-1.1" x2="0.287" y2="2.296" xlink:href="#linear-gradient-11"/>
    <linearGradient id="linear-gradient-14" x1="-0.128" y1="1.179" x2="0.686" y2="0.286" gradientUnits="objectBoundingBox">
      <stop offset="0" stop-color="#ff928e"/>
      <stop offset="1" stop-color="#fe7062"/>
    </linearGradient>
    <linearGradient id="linear-gradient-15" x1="219.46" y1="-0.166" x2="201.422" y2="3.358" gradientUnits="objectBoundingBox">
      <stop offset="0" stop-color="#09005d"/>
      <stop offset="1" stop-color="#1a0f91"/>
    </linearGradient>
    <linearGradient id="linear-gradient-16" x1="278.042" y1="-0.086" x2="255.141" y2="3.375" xlink:href="#linear-gradient-15"/>
    <linearGradient id="linear-gradient-17" x1="244.306" y1="-0.017" x2="224.154" y2="3.451" xlink:href="#linear-gradient-15"/>
    <linearGradient id="linear-gradient-18" x1="165.475" y1="0.121" x2="151.801" y2="3.397" xlink:href="#linear-gradient-15"/>
    <linearGradient id="linear-gradient-19" x1="385.425" y1="0.173" x2="353.46" y2="3.704" xlink:href="#linear-gradient-15"/>
    <linearGradient id="linear-gradient-20" x1="243.596" y1="0.227" x2="223.383" y2="3.744" xlink:href="#linear-gradient-15"/>
    <linearGradient id="linear-gradient-21" x1="146.501" y1="-0.19" x2="134.503" y2="2.95" xlink:href="#linear-gradient-15"/>
    <linearGradient id="linear-gradient-22" x1="0.869" y1="-0.014" x2="0.148" y2="0.971" xlink:href="#linear-gradient-14"/>
    <linearGradient id="linear-gradient-23" x1="277.695" y1="-0.167" x2="256.834" y2="3.363" xlink:href="#linear-gradient-15"/>
    <linearGradient id="linear-gradient-24" x1="350.086" y1="-0.086" x2="323.809" y2="3.373" xlink:href="#linear-gradient-15"/>
    <linearGradient id="linear-gradient-25" x1="309.907" y1="-0.015" x2="286.582" y2="3.448" xlink:href="#linear-gradient-15"/>
    <linearGradient id="linear-gradient-26" x1="210.251" y1="0.122" x2="194.481" y2="3.382" xlink:href="#linear-gradient-15"/>
    <linearGradient id="linear-gradient-27" x1="485.209" y1="0.175" x2="448.664" y2="3.687" xlink:href="#linear-gradient-15"/>
    <linearGradient id="linear-gradient-28" x1="308.969" y1="0.227" x2="285.591" y2="3.745" xlink:href="#linear-gradient-15"/>
    <linearGradient id="linear-gradient-29" x1="185.678" y1="-0.189" x2="171.832" y2="2.944" xlink:href="#linear-gradient-15"/>
    <linearGradient id="linear-gradient-30" x1="0.076" y1="0.988" x2="0.966" y2="-0.057" xlink:href="#linear-gradient-14"/>
    <linearGradient id="linear-gradient-31" x1="249.541" y1="-0.166" x2="231.494" y2="3.359" xlink:href="#linear-gradient-15"/>
    <linearGradient id="linear-gradient-32" x1="314.076" y1="-0.086" x2="291.32" y2="3.376" xlink:href="#linear-gradient-15"/>
    <linearGradient id="linear-gradient-33" x1="278.62" y1="-0.015" x2="258.408" y2="3.446" xlink:href="#linear-gradient-15"/>
    <linearGradient id="linear-gradient-34" x1="189.118" y1="0.12" x2="175.377" y2="3.4" xlink:href="#linear-gradient-15"/>
    <linearGradient id="linear-gradient-35" x1="438.259" y1="0.174" x2="406.314" y2="3.7" xlink:href="#linear-gradient-15"/>
    <linearGradient id="linear-gradient-36" x1="276.242" y1="0.228" x2="256.099" y2="3.742" xlink:href="#linear-gradient-15"/>
    <linearGradient id="linear-gradient-37" x1="166.345" y1="-0.191" x2="154.354" y2="2.95" xlink:href="#linear-gradient-15"/>
    <linearGradient id="linear-gradient-38" x1="4.199" y1="-18.969" x2="2.831" y2="-11.767" xlink:href="#linear-gradient-14"/>
    <linearGradient id="linear-gradient-39" x1="1.441" y1="-17.185" x2="1.058" y2="-9.984" xlink:href="#linear-gradient-14"/>
    <linearGradient id="linear-gradient-40" x1="2.822" y1="-8.942" x2="1.802" y2="-4.796" xlink:href="#linear-gradient-14"/>
    <linearGradient id="linear-gradient-41" x1="1.039" y1="-0.821" x2="0.859" y2="-0.378" xlink:href="#linear-gradient-14"/>
    <linearGradient id="linear-gradient-42" x1="0.749" y1="-17.25" x2="0.663" y2="-11.107" xlink:href="#linear-gradient-14"/>
    <linearGradient id="linear-gradient-43" x1="0.5" y1="1.744" x2="0.5" y2="-0.453" xlink:href="#linear-gradient-14"/>
    <linearGradient id="linear-gradient-44" x1="0.5" y1="1.165" x2="0.5" y2="-0.849" xlink:href="#linear-gradient-14"/>
    <linearGradient id="linear-gradient-45" x1="0.553" y1="-0.521" x2="0.438" y2="1.691" xlink:href="#linear-gradient-14"/>
    <linearGradient id="linear-gradient-46" x1="0.636" y1="-0.137" x2="0.171" y2="2.048" xlink:href="#linear-gradient-14"/>
    <linearGradient id="linear-gradient-47" x1="0.638" y1="-0.559" x2="0.174" y2="1.445" xlink:href="#linear-gradient-14"/>
    <linearGradient id="linear-gradient-48" x1="0.5" y1="-2.05" x2="0.5" y2="1.325" xlink:href="#linear-gradient-14"/>
    <linearGradient id="linear-gradient-49" x1="0" y1="0.5" x2="1" y2="0.5" xlink:href="#linear-gradient-14"/>
    <linearGradient id="linear-gradient-51" x1="0.754" y1="-1.057" x2="0.334" y2="1.517" xlink:href="#linear-gradient-14"/>
    <linearGradient id="linear-gradient-52" x1="-31.538" y1="0.5" x2="-30.538" y2="0.5" xlink:href="#linear-gradient-15"/>
    <linearGradient id="linear-gradient-53" x1="-110.541" y1="0.5" x2="-109.542" y2="0.5" xlink:href="#linear-gradient-11"/>
    <linearGradient id="linear-gradient-54" x1="-61.545" y1="0.5" x2="-60.545" y2="0.5" xlink:href="#linear-gradient-15"/>
    <linearGradient id="linear-gradient-55" x1="-101.704" y1="0.5" x2="-100.705" y2="0.5" xlink:href="#linear-gradient-11"/>
    <linearGradient id="linear-gradient-56" x1="-11.812" y1="0.066" x2="-12.968" y2="1.244" xlink:href="#linear-gradient-15"/>
    <linearGradient id="linear-gradient-57" x1="6.922" y1="-7.97" x2="1.995" y2="-1.472" xlink:href="#linear-gradient"/>
    <linearGradient id="linear-gradient-58" x1="-16.081" y1="0.308" x2="-16.952" y2="1.354" xlink:href="#linear-gradient-11"/>
    <linearGradient id="linear-gradient-59" x1="1.186" y1="-1.139" x2="0.521" y2="0.314" xlink:href="#linear-gradient-14"/>
    <linearGradient id="linear-gradient-60" y1="0.5" x2="1" y2="0.5" gradientUnits="objectBoundingBox">
      <stop offset="0" stop-color="#e1473d"/>
      <stop offset="1" stop-color="#e9605a"/>
    </linearGradient>
    <linearGradient id="linear-gradient-61" x1="-57.721" y1="1.477" x2="-57.449" y2="0.433" xlink:href="#linear-gradient-11"/>
    <linearGradient id="linear-gradient-62" x1="-40.558" y1="0.35" x2="-41.67" y2="1.106" xlink:href="#linear-gradient-11"/>
    <linearGradient id="linear-gradient-63" x1="-29.909" y1="0.152" x2="-29.16" y2="1.128" xlink:href="#linear-gradient-15"/>
    <linearGradient id="linear-gradient-64" x1="-169.607" y1="-0.685" x2="-174.158" y2="1.784" xlink:href="#linear-gradient-11"/>
    <linearGradient id="linear-gradient-65" x1="-22.398" y1="-1.338" x2="-22.835" y2="0.108" xlink:href="#linear-gradient-11"/>
    <linearGradient id="linear-gradient-66" x1="-7.285" y1="0.732" x2="-8.024" y2="3.191" xlink:href="#linear-gradient-15"/>
    <linearGradient id="linear-gradient-67" x1="-5.504" y1="0.133" x2="-5.902" y2="0.802" xlink:href="#linear-gradient-15"/>
  </defs>
  <g id="Grupo_61274" data-name="Grupo 61274" transform="translate(-742 -7446)">
    <rect id="Rectángulo_30402" data-name="Rectángulo 30402" width="623" height="345" rx="18" transform="translate(742 7446)" fill="#f2f6fe"/>
    <g id="Illustration" transform="translate(844.102 7377.057)">
      <g id="Grupo_55544" data-name="Grupo 55544" transform="translate(0.219 68.943)">
        <g id="Grupo_55509" data-name="Grupo 55509" transform="translate(9.822)">
          <path id="Trazado_120939" data-name="Trazado 120939" d="M410.865,589.595,281.825,576.55l-129.251,12.3L150.19,874.922l129.2-5.929,129.073,9,129.077-10.833L539.9,584.1Z" transform="translate(-150.19 -576.55)" fill="#fff"/>
          <path id="Trazado_120940" data-name="Trazado 120940" d="M334.216,910.313,211.46,915.936l2.263-271.383L336.529,632.89Z" transform="translate(-202.191 -624.367)" fill="#7d97f4"/>
          <path id="Trazado_120941" data-name="Trazado 120941" d="M1145.568,918.856l-122.637-8.542,2.313-277.423,122.6,12.376Z" transform="translate(-890.906 -624.367)" fill="#91b3fa"/>
          <path id="Trazado_120942" data-name="Trazado 120942" d="M1956.26,948.76l-122.64,10.275,2.279-273.59,122.6-5.214Z" transform="translate(-1578.959 -664.546)" fill="#7d97f4"/>
          <rect id="Rectángulo_30409" data-name="Rectángulo 30409" width="2.779" height="277.508" transform="translate(131.641 8.496) rotate(0.51)" fill="#fff" opacity="0.47"/>
          <g id="Grupo_55508" data-name="Grupo 55508" transform="translate(26.345 61.44)">
            <path id="Trazado_120943" data-name="Trazado 120943" d="M1610.636,1838.269q-.745,5.806-1.21,11.648c-.074.929.106,2.191,1,2.281.539.054.988-.4,1.352-.814,1.543-1.767,3.2-4.045,2.456-6.3-.277-.84-.87-1.545-1.1-2.4-.344-1.284.193-2.651.056-3.977s-1.731-2.629-2.622-1.664Z" transform="translate(-1415.012 -1707.521)" fill="url(#linear-gradient)"/>
            <path id="Trazado_120944" data-name="Trazado 120944" d="M420.619,987.219c-6.074-3.21-9.893-3.644-16.432-2.932-6.167.67-10.335,3.77-14.571,8.185a11.207,11.207,0,0,1-3.148,2.679c-5.233,2.42-11.871,1.93-17.214,4.314-6.361,2.838-8.157,11.668-13.966,15.571-3.363,2.26-7.6,2.546-11.294,4.163-5.467,2.393-7.989,7.366-11.093,12.205-1.909,2.976-8.94,8.075-8.542,11.555a4.34,4.34,0,0,0,.672,1.767c1.936,3.121,4.829,3.449,7.88,4.342,4.03,1.177,6.463,2.986,10.028,5.508,3.72,2.632,8.774,4.932,9.1,9.582.151,2.157-.858,4.2-1.351,6.3-2.221,9.481,6.022,18,14.044,23.124s17.5,10.193,20.039,19.584a5.1,5.1,0,0,0,1.051,2.4c2.342,2.3,4.1-2.909,4.806-4.566a3.345,3.345,0,0,0-.672-3.251,16.325,16.325,0,0,0-2.572-2.269,14.883,14.883,0,0,1-5.189-10.158,2.293,2.293,0,0,1,.231-1.452c1.39-2.106,4.856-2.968,6.556-5.52,2.432-3.649,2.988-7.11,3.4-11.441,1.513-15.911,16.006-10.287,25.1-17.333a8.737,8.737,0,0,0,3.256-5.505,5.847,5.847,0,0,0-.507-3.425,7.158,7.158,0,0,0-4.631-3.51,20.566,20.566,0,0,0-5.877-.445l-5.488.116a4.077,4.077,0,0,0-1.594.25,3.7,3.7,0,0,0-1.555,1.687,14.01,14.01,0,0,0-1.719,7.329c-2.411.849-4.753-1.451-6.068-3.706a27.782,27.782,0,0,1-3.21-8.451,4.99,4.99,0,0,1,.2-3.435,4.694,4.694,0,0,1,1.33-1.361,14.42,14.42,0,0,1,6.921-2.953c4.286-.469,8.452,1.646,11.966,4.236,3.375,2.488,8.88,5.468,12.666,1.891,1.955-1.847,1.989-5.21.628-7.564-2.212-3.815-7.854-5.811-11.529-7.738a7.177,7.177,0,0,1-3.315-4.69,22.06,22.06,0,0,1-.393-5.951,18.29,18.29,0,0,1,15.848,1.078,2.536,2.536,0,0,1,1.481,1.732,3.358,3.358,0,0,1-1.039,2.152c-4.4,5.758-.445,10.407,4.733,13.654.123-14.6.151-29.269.165-43.882a59.174,59.174,0,0,1-9.137-3.864Z" transform="translate(-324.343 -983.797)" fill="url(#linear-gradient-2)"/>
            <path id="Trazado_120945" data-name="Trazado 120945" d="M1057.122,1039.472c-.71-.956-2.118-.716-3.28-.708-3.718.024-6.673-3.217-10.247-4.278a21.392,21.392,0,0,0-5.8-.522,58.921,58.921,0,0,1-17.525-2.964c-.009,14.613-.042,29.286-.165,43.882a49.2,49.2,0,0,0,9.379,4.373c2.6.92,5.084,2.431,7.866,1.865,2.579-.525,4.9-3.439,7.574-4.18,1.936-.539,4.006-.256,5.971-.664s4.015-1.932,3.933-4.006c-.066-1.687-1.5-2.956-2.927-3.782a13.71,13.71,0,0,1-2.706-2.3c-2.157-4.322.979-8.13,2.18-11.862,1.737-5.4-.837-8.58,4.508-11.572C1057.015,1042.119,1057.9,1040.538,1057.122,1039.472Z" transform="translate(-914.849 -1023.693)" fill="url(#linear-gradient-3)"/>
            <path id="Trazado_120946" data-name="Trazado 120946" d="M751,1891.113a19.5,19.5,0,0,1,1.9,5.387c.882,6.853-4.823,15.279-7.249,21.544a10.656,10.656,0,0,0-1.059,5.446,10.511,10.511,0,0,0,.726,2.241c2.2,5.366,6.531,10.223,10.375,14.361,1.315-3.547,1.218-12.067.856-15.847a8.264,8.264,0,0,1,.118-3.717c1.423-3.737,6.051-8.88,9.252-11.11,3.132-2.185,7.248-3.933,8.058-7.756.312-1.468.05-3.039.508-4.464a15.847,15.847,0,0,1,1.21-2.393c2.026-3.9,3.177-11.414-.882-14.181-4.538-3.092-10.951,1.437-14.842-3.608a25.961,25.961,0,0,0-1.692-2.333,5.5,5.5,0,0,0-4.866-1.378C741.943,1875.284,747.591,1883.933,751,1891.113Z" transform="translate(-680.953 -1738.499)" fill="url(#linear-gradient-4)"/>
            <path id="Trazado_120947" data-name="Trazado 120947" d="M1248.237,1078.689c3.62,2.4,9.871-2.859,12.17-9a7.129,7.129,0,0,1,1.08-2.191c1.073-1.261,2.918-1.422,4.525-1.189s3.211.765,4.821.552a7.427,7.427,0,0,0,5.294-4.276,23.275,23.275,0,0,0,1.841-6.939,7.843,7.843,0,0,1,5.166.469c1.242.57,2.469,1.826,2.118,3.186a3.8,3.8,0,0,1-1.059,1.573,45.293,45.293,0,0,0-3.781,4.615c-.716,1-1.418,2.306-.881,3.419,1.463,3.035,4.138,1.455,3.369,5.8-.967,5.437-8.107,7.659-4.028,14.155a8.762,8.762,0,0,0,6.945,3.933c1.967.092,4.387-.961,4.407-2.994a5.975,5.975,0,0,1-.026-1.8,2.125,2.125,0,0,1,1.8-1.228c2.452-.386,4.824.888,7.087,1.939a2.385,2.385,0,0,0,2.148.227c2.118-1.254,1.129-2.29,4.006-2.572,2.454-.236,5.323,1.72,6.713,3.655a1.77,1.77,0,0,1,.424,1.6c-.183.466-.691.707-.949,1.135a1.71,1.71,0,0,0,.67,2.141,6.154,6.154,0,0,0,2.283.729c3.687.785,3.773,4.419,6.376,6.234,2.118,1.472,7.5,1.762,7.027-2.473-.174-1.549-1.676-2.823-1.43-4.361.217-1.362,1.687-2.074,3-2.247s2.723-.044,3.9-.678a17.764,17.764,0,0,0,2.091-1.679c4.4-3.313,14.825-.5,18.2,3.216,3.154,3.47,3.506,9.452,7.564,11.7a18.636,18.636,0,0,0-6.146-12,5.569,5.569,0,0,1-1.652-1.871,4.812,4.812,0,0,1-.227-2.118,46.4,46.4,0,0,1,1.836-10.464c-.115.409,2.572-7,.641-5.6,3.463-2.506,11.022-6.627,15.362-6.354a6.438,6.438,0,0,1,5.446,3.619,5.279,5.279,0,0,1-1.492,6.276c-1.788,1.268-4.27,1.024-6.087,2.248a4.882,4.882,0,0,0-1.677,5.7,8.166,8.166,0,0,1,4.751-3.247c2.537-.6,5.419.031,7.609-1.422a6.2,6.2,0,0,0,2.485-5.109,11.618,11.618,0,0,0-1.643-5.638,17.686,17.686,0,0,1-1.885-3.83,8.375,8.375,0,0,1,1.352-6.552,18.217,18.217,0,0,1,21.088-7.564,2.243,2.243,0,0,1,1.361.908c.4.72.014,1.64.182,2.452a1.768,1.768,0,0,0,2.964.756,6.256,6.256,0,0,0,.74-2.572c.552-2.28,2.8-3.674,4.98-4.325,2.668-.794,9.833-4.461,10.577.388a4.651,4.651,0,0,0,.228,1.262c.5,1.094,2.177.936,2.974.051,1.643-1.826,1.932-4.823,3.524-6.862,1.408-1.8,3.488-2.886,4.668-4.9a10.035,10.035,0,0,0-4.387-13.932c-4.87-2.318-10.536-1.291-15.811-.3-3.631.676-16.105,3.265-16.993-2.821a4.537,4.537,0,0,0-.29-1.474c-.289-.549-.894-.837-1.263-1.331a7.723,7.723,0,0,1-.743-2.248c-.92-2.734-4.387-3.236-7.187-3.269.283-1.7.435-3.762-.882-4.812a4.543,4.543,0,0,0-2.691-.7c-2.44-.107-8.328.8-10.352-.679-2.68-1.956-.833-5.295-2-7.989-1.242-2.874-5.861-3.265-6.373-6.354-.111-.67.01-1.361-.067-2.035-.189-1.646-1.484-2.885-2.7-3.968-2.2-1.966-4.689-4.042-7.586-3.965-.546.446-.056,1.383.56,1.717s1.4.51,1.711,1.153c.605,1.234-1.115,2.246-2.421,2.505-.063,1.8,1.688,3,3.043,4.134a13.667,13.667,0,0,1,4.523,7.65,49.844,49.844,0,0,1-14,.595c-5.622-.557-9.228,8.672-15.893,6.115a18.331,18.331,0,0,0-2.9-1.259c-2.595-.508-4.69,2.033-7.015,3.314-3.548,1.952-7.9.939-11.7-.4-4.538-1.605-10.069-3.911-14.65-1.141-1.712,1.034-3.08,2.646-4.892,3.479-3.8,1.747-8.12-.4-12.264-.809-10.222-1.014-16.373,9.334-19.693,17.95a10.212,10.212,0,0,0-.891,4.084,3.95,3.95,0,0,0,2,3.44c1.838.858,3.974-.5,5.174-2.182s1.93-3.726,3.4-5.155,4.166-1.889,5.325-.183a5.229,5.229,0,0,1,.6,2.965q0,2.924.012,5.848a7.924,7.924,0,0,1-.423,3.16c-.7,1.637-2.38,2.54-3.933,3.319l-10.149,5.081a15.134,15.134,0,0,0-3.268,2c-4.418,3.858-1.449,9.2-4.859,12.913-1.377,1.5-3.659,1.951-4.788,3.658a7.658,7.658,0,0,0-.794,4.431C1245.648,1075.3,1246.707,1077.678,1248.237,1078.689Z" transform="translate(-1106.182 -982.696)" fill="url(#linear-gradient-5)"/>
            <path id="Trazado_120948" data-name="Trazado 120948" d="M1959.9,1813.518c-1.371,2.563-1.18,5.912-4.277,7.326-2.059.941-4.689.511-6.372,2.065-1.914,1.772-1.412,4.915-1.044,7.544a2.638,2.638,0,0,1-.066,1.407c-.493,1.154-2.26,1.124-2.875,2.218-.52.939.124,2.118.908,2.85a7.243,7.243,0,0,0,8.857.669c.705-.489,1.469-1.141,2.294-.932.961.244,1.282,1.451,1.544,2.439a9.476,9.476,0,0,0,3.387,5.365c5.455,3.9,13.129-.847,19.186,4.657a4.89,4.89,0,0,1,1.664,2.479c.235,1.08-.116,2.321.471,3.247.735,1.16,2.544,1,3.534.066a8.211,8.211,0,0,0,1.8-3.663,6.07,6.07,0,0,1,2.092-3.45c1.913-1.241,4.093-.766,5.152-3.291,1.321-3.22-2.62-5.888-1.369-8.823.559-1.31,1.451-2.739.891-4.048a5.894,5.894,0,0,0-1.389-1.625c-2.334-2.42-2.723-4.689-5.842-6.16-1.985-.939-6.1.277-6.912-3.148-.213-.892.09-2.014-.573-2.624a2.052,2.052,0,0,0-1.433-.366c-3.479.012-7.621.067-9.6-2.892-2.194-3.27-2.451-5.629-6.9-4A5.466,5.466,0,0,0,1959.9,1813.518Z" transform="translate(-1699.9 -1685.102)" fill="url(#linear-gradient-6)"/>
            <path id="Trazado_120949" data-name="Trazado 120949" d="M1249.377,1695.466c-.727,1.041-1.135,2.295-1.9,3.305-2.153,2.842-3.086.33-5.52,1.287a19.527,19.527,0,0,1-2.458,1.129c-1.771.42-3.531-.8-5.349-.81-7-.028-3.328,11.614.064,13.845a3.784,3.784,0,0,0,2.162.412l6.924-.07a3.21,3.21,0,0,1,1.906.387c1.664,1.188.078,4.123,1.083,5.944.689,1.248,2.289,1.481,3.658,1.738,2.894.543,3.528,3.8,5.295,5.811,2.269,2.582,4.449,3.623,5.733,7.373.756,2.226,1.026,4.637,2.032,6.758a10.07,10.07,0,0,0,11.9,5.214,10.592,10.592,0,0,0,6.679-11.441c-.467-2.8-2.024-5.246-3.1-7.854-2.186-5.275-.708-11.7,5.351-12.707,1.528-.253,3.47-.342,4.041-1.832.822-2.145-2.349-4.656-1.034-6.52.473-.672,1.39-.907,1.806-1.624.558-.956-.077-2.192-.856-2.965a6.68,6.68,0,0,1-2.083-2.509c-1.816-6.007-7.761-2.252-11.73-1.462a10.292,10.292,0,0,1-8.506-1.512C1260.9,1694.634,1253.992,1688.842,1249.377,1695.466Z" transform="translate(-1093.137 -1585.045)" fill="url(#linear-gradient-7)"/>
            <path id="Trazado_120950" data-name="Trazado 120950" d="M1447.309,1083.734c.523-1.011,1.8-1.247,2.907-1.325a41.965,41.965,0,0,1,11.4.756c-3.1,2.522-6.561,5.172-10.5,5.036-1.788-.064-3.642-.7-5.316-.044a4.224,4.224,0,0,1,.562-3.664Z" transform="translate(-1275.985 -1067.237)" fill="url(#linear-gradient-8)"/>
            <path id="Trazado_120951" data-name="Trazado 120951" d="M1160.132,1361.467c3.887,3.177,17.6-1.059,11.2-5.174a8.847,8.847,0,0,0-3.479-1.058,13.349,13.349,0,0,0-4.877-.168,4.733,4.733,0,0,0-3.641,3.026A2.938,2.938,0,0,0,1160.132,1361.467Z" transform="translate(-1032.858 -1298.594)" fill="url(#linear-gradient-9)"/>
            <path id="Trazado_120952" data-name="Trazado 120952" d="M2280.5,1190.654c2.4,2.181,5.771,2.723,8.94,3.165,1.583.222,3.654.161,4.2-1.389.577-1.637-1.282-3.148-2.957-3.337s-3.451.268-5-.412c-1.375-.6-2.457-2.056-3.95-2.042-1.738.015-2.791,2.638-1.573,3.923Z" transform="translate(-1983.848 -1155.788)" fill="url(#linear-gradient-10)"/>
          </g>
          <path id="Trazado_120953" data-name="Trazado 120953" d="M1956.511,953l-122.64,10.275,2.279-273.588,122.6-5.215Z" transform="translate(-1579.171 -668.144)" fill="#fff" opacity="0.12"/>
        </g>
        <g id="Grupo_55514" data-name="Grupo 55514" transform="translate(49.012 35.569)">
          <rect id="Rectángulo_30410" data-name="Rectángulo 30410" width="126.435" height="33.981" rx="16.92" fill="url(#linear-gradient-11)"/>
          <g id="Grupo_55512" data-name="Grupo 55512" transform="translate(7.788 3.449)">
            <g id="Grupo_55511" data-name="Grupo 55511" transform="translate(8.049 5.686)">
              <path id="Trazado_120954" data-name="Trazado 120954" d="M540.638,912.426H522.8a.858.858,0,1,1,0-1.716h17.84a.858.858,0,0,1,0,1.716Z" transform="translate(-520.73 -904.865)" fill="#fff"/>
              <g id="Grupo_55510" data-name="Grupo 55510" transform="translate(6.798 1.007)">
                <path id="Trazado_120955" data-name="Trazado 120955" d="M559.738,896.8c-.474,0-.858-.631-.858-1.411V880.141c0-.779.384-1.411.858-1.411s.858.632.858,1.411v15.242C560.6,896.168,560.211,896.8,559.738,896.8Z" transform="translate(-558.88 -878.73)" fill="#fff"/>
                <path id="Trazado_120956" data-name="Trazado 120956" d="M602.828,896.8c-.473,0-.858-.631-.858-1.411V880.141c0-.779.384-1.411.858-1.411s.858.632.858,1.411v15.242C603.685,896.168,603.3,896.8,602.828,896.8Z" transform="translate(-595.452 -878.73)" fill="#fff"/>
              </g>
              <path id="Trazado_120957" data-name="Trazado 120957" d="M540.092,952.116H522.9a.863.863,0,1,1,0-1.715h17.2a.863.863,0,1,1,0,1.715Z" transform="translate(-520.73 -938.551)" fill="#fff"/>
              <path id="Trazado_120958" data-name="Trazado 120958" d="M534.256,892.076h-18.8a1.513,1.513,0,0,1-1.513-1.513v-16.98a1.513,1.513,0,0,1,1.513-1.513h18.8a1.513,1.513,0,0,1,1.513,1.513v16.978a1.513,1.513,0,0,1-1.513,1.516Zm-17.281-3.032h15.766V875.1H516.975Z" transform="translate(-513.94 -872.07)" fill="#fff"/>
            </g>
            <path id="Trazado_120959" data-name="Trazado 120959" d="M470.292,860.173H462.25a1.513,1.513,0,0,1-1.513-1.664l2.177-22.658a1.513,1.513,0,0,1,1.513-1.371h3.885a1.513,1.513,0,0,1,1.513,1.384l1.982,22.658a1.513,1.513,0,0,1-1.513,1.647Zm-6.373-3.026h4.718l-1.715-19.633H465.8Z" transform="translate(-460.73 -834.48)" fill="#fff"/>
          </g>
          <g id="Grupo_55513" data-name="Grupo 55513" transform="translate(45.581 8.186)" opacity="0.79">
            <rect id="Rectángulo_30411" data-name="Rectángulo 30411" width="42.041" height="3.215" rx="1.607" fill="#fff"/>
            <rect id="Rectángulo_30412" data-name="Rectángulo 30412" width="42.041" height="3.215" rx="1.607" transform="translate(0 6.832)" fill="#fff"/>
            <rect id="Rectángulo_30413" data-name="Rectángulo 30413" width="17.124" height="3.215" rx="1.607" transform="translate(0 13.665)" fill="#fff"/>
          </g>
          <path id="Trazado_120960" data-name="Trazado 120960" d="M1029.91,873.569l16.943-10.287a.894.894,0,0,0,0-1.4l-17.02-10.158c-.389-.232-.827.144-.826.7l.012,3.315c0,.427-.259.773-.581.774l-8.925.068c-.324,0-.584.348-.583.775l.041,10.73a.7.7,0,0,0,.587.768l8.925-.068a.7.7,0,0,1,.589.769l.012,3.314C1029.076,873.433,1029.53,873.8,1029.91,873.569Z" transform="translate(-926.7 -845.604)" fill="#fff"/>
        </g>
        <g id="Grupo_55517" data-name="Grupo 55517" transform="translate(286.03 64.684)">
          <rect id="Rectángulo_30414" data-name="Rectángulo 30414" width="126.435" height="33.981" rx="16.92" fill="url(#linear-gradient-12)"/>
          <g id="Grupo_55515" data-name="Grupo 55515" transform="translate(8.219 10.462)">
            <path id="Trazado_120961" data-name="Trazado 120961" d="M2050.107,1086.51H2037.82a.722.722,0,0,1-.7-.555,1.256,1.256,0,0,0-.1-.274c0-.011-.011-.02-.016-.03a1.843,1.843,0,0,0-.177-.316,2.226,2.226,0,0,0-1.842-.985,2.257,2.257,0,0,0-1.852.985,1.861,1.861,0,0,0-.177.316l-.014.03a1.3,1.3,0,0,0-.1.274.72.72,0,0,1-.7.555h-.61a1.153,1.153,0,0,1-1.153-1.153v-10.9a1.153,1.153,0,0,1,1.153-1.153h18.578a1.153,1.153,0,0,1,1.153,1.153v10.9a1.153,1.153,0,0,1-1.157,1.153Zm-11.781-1.44h11.5v-10.328h-18v9.984c.041-.068.083-.135.129-.2a3.666,3.666,0,0,1,6.072,0,3.343,3.343,0,0,1,.3.528Z" transform="translate(-2030.38 -1073.3)" fill="#fff"/>
            <path id="Trazado_120962" data-name="Trazado 120962" d="M2178.42,1099.816h-.527a.722.722,0,0,1-.7-.555,1.272,1.272,0,0,0-.1-.275l-.014-.029a1.966,1.966,0,0,0-.177-.316,2.233,2.233,0,0,0-3.7,0,1.869,1.869,0,0,0-.177.316l-.015.03a1.218,1.218,0,0,0-.1.274.719.719,0,0,1-.7.555h-.163a1.153,1.153,0,0,1-1.153-1.152v-8.529a1.155,1.155,0,0,1,1.153-1.153h1.857a5.457,5.457,0,0,1,5.673,6.059v3.631A1.154,1.154,0,0,1,2178.42,1099.816Zm-3.369-3.6a3.692,3.692,0,0,1,3.038,1.608l.043.062V1095a.85.85,0,0,1,0-.086,4.021,4.021,0,0,0-4.188-4.49h-1.622v7A3.684,3.684,0,0,1,2175.051,1096.215Z" transform="translate(-2149.634 -1086.606)" fill="#fff"/>
            <path id="Trazado_120963" data-name="Trazado 120963" d="M2049.9,1157.847a1.95,1.95,0,0,1-1.946-1.949,1.943,1.943,0,0,1,3.886,0A1.948,1.948,0,0,1,2049.9,1157.847Zm0-2.455a.457.457,0,0,0-.363.164s-.013.015-.02.024a.477.477,0,0,0-.123.317.508.508,0,0,0,.506.507.5.5,0,0,0,.5-.507.474.474,0,0,0-.122-.317l-.02-.024A.459.459,0,0,0,2049.9,1155.392Z" transform="translate(-2045.293 -1141.75)" fill="#fff"/>
            <path id="Trazado_120964" data-name="Trazado 120964" d="M2187.458,1157.918a1.952,1.952,0,0,1-1.948-1.948,1.926,1.926,0,0,1,.472-1.259,1.944,1.944,0,1,1,1.477,3.207Zm0-2.453a.453.453,0,0,0-.365.163.178.178,0,0,1-.02.023.477.477,0,0,0-.122.319.507.507,0,1,0,1.012,0,.483.483,0,0,0-.123-.319l-.019-.023A.454.454,0,0,0,2187.458,1155.464Z" transform="translate(-2162.043 -1141.822)" fill="#fff"/>
          </g>
          <g id="Grupo_55516" data-name="Grupo 55516" transform="translate(45.219 8.186)" opacity="0.84">
            <rect id="Rectángulo_30415" data-name="Rectángulo 30415" width="42.041" height="3.215" rx="1.607" fill="#fff"/>
            <rect id="Rectángulo_30416" data-name="Rectángulo 30416" width="42.041" height="3.215" rx="1.607" transform="translate(0 6.833)" fill="#fff"/>
            <rect id="Rectángulo_30417" data-name="Rectángulo 30417" width="17.124" height="3.215" rx="1.607" transform="translate(0 13.665)" fill="#fff"/>
          </g>
          <path id="Trazado_120965" data-name="Trazado 120965" d="M2594.363,1066.025l16.942-10.287a.894.894,0,0,0,0-1.4l-17.014-10.159c-.389-.232-.828.151-.826.7l.012,3.314c0,.426-.258.773-.581.774l-8.926.068c-.323,0-.583.348-.581.775l.039,10.73a.7.7,0,0,0,.588.768l8.926-.068a.7.7,0,0,1,.586.769l.013,3.314C2593.535,1065.889,2593.977,1066.261,2594.363,1066.025Z" transform="translate(-2491.514 -1038.06)" fill="#fff"/>
        </g>
        <g id="Grupo_55520" data-name="Grupo 55520" transform="translate(214.183 254.385)">
          <rect id="Rectángulo_30418" data-name="Rectángulo 30418" width="126.435" height="33.981" rx="16.92" fill="url(#linear-gradient-13)"/>
          <g id="Grupo_55518" data-name="Grupo 55518" transform="translate(3.65 3.702)">
            <path id="Trazado_120966" data-name="Trazado 120966" d="M1628.5,2289.486h7.638a1.047,1.047,0,0,0,1.045-1.046v-4.777a1.045,1.045,0,0,0-1.045-1.043H1628.5a1.043,1.043,0,0,0-1.044,1.043v4.777A1.045,1.045,0,0,0,1628.5,2289.486Zm.517-1.564v-3.732h6.6v3.741Z" transform="translate(-1611.997 -2282.62)" fill="#fff"/>
            <path id="Trazado_120967" data-name="Trazado 120967" d="M1561.69,2334.8a1.711,1.711,0,0,0-1.492-.88h-4.193v-1.059a1.045,1.045,0,0,0-1.044-1.043h-7.638a1.046,1.046,0,0,0-1.045,1.043v4.423h-.622v-4.43a1.045,1.045,0,0,0-1.044-1.044h-7.64a1.045,1.045,0,0,0-1.043,1.044v4.5l-9.063.081a1.641,1.641,0,0,0-1.339,2.571l3.7,5.39a3.711,3.711,0,0,0,3.056,1.606h21.226a3.108,3.108,0,0,0,2.647-1.469l5.485-8.983A1.713,1.713,0,0,0,1561.69,2334.8Zm-13.849,2.476v-3.9h6.6v.542h-2.059a2.9,2.9,0,0,0-2.381,1.252l-1.445,2.1Zm-10.35-3.9h6.6v3.925l-6.456.046h-.151Zm22.831,2.35-5.484,8.977a1.553,1.553,0,0,1-1.32.731h-21.225a2.143,2.143,0,0,1-1.768-.931l-3.7-5.384a.079.079,0,0,1,0-.085.064.064,0,0,1,.065-.039l10.766-.085,8.169-.059,1.25-.008h0l1.912-.017a.781.781,0,0,0,.636-.337l1.676-2.43a1.334,1.334,0,0,1,1.1-.579h7.809a.151.151,0,0,1,.119.246Z" transform="translate(-1525.239 -2324.369)" fill="#fff"/>
          </g>
          <g id="Grupo_55519" data-name="Grupo 55519" transform="translate(43.847 8.187)" opacity="0.75">
            <rect id="Rectángulo_30419" data-name="Rectángulo 30419" width="42.041" height="3.215" rx="1.607" fill="#fff"/>
            <rect id="Rectángulo_30420" data-name="Rectángulo 30420" width="42.041" height="3.215" rx="1.607" transform="translate(0 6.832)" fill="#fff"/>
            <rect id="Rectángulo_30421" data-name="Rectángulo 30421" width="17.124" height="3.215" rx="1.607" transform="translate(0 13.665)" fill="#fff"/>
          </g>
          <path id="Trazado_120968" data-name="Trazado 120968" d="M2110.343,2320.029l16.943-10.287a.893.893,0,0,0,0-1.4l-17.014-10.159c-.389-.231-.828.144-.826.706l.014,3.314a.7.7,0,0,1-.583.775l-8.925.068c-.322,0-.584.348-.582.774l.041,10.73a.7.7,0,0,0,.588.768l8.925-.068a.7.7,0,0,1,.589.769l.011,3.314C2109.516,2319.9,2109.958,2320.266,2110.343,2320.029Z" transform="translate(-2008.868 -2292.065)" fill="#fff"/>
        </g>
        <g id="Grupo_55527" data-name="Grupo 55527" transform="translate(0 186.07)">
          <g id="Grupo_55522" data-name="Grupo 55522" transform="translate(0 72.77)">
            <path id="Trazado_120969" data-name="Trazado 120969" d="M85.26,2358.184v-56.859a13.623,13.623,0,0,1,13.474-13.63c22.419-.244,68.658-.256,106.5,2.931a10.241,10.241,0,0,1,9.365,9.845l3.537,54.97a13.017,13.017,0,0,1-12.762,13.485l-107.085,2.034a12.779,12.779,0,0,1-13.028-12.777Z" transform="translate(-85.26 -2287.599)" fill="url(#linear-gradient-14)"/>
            <path id="Trazado_120970" data-name="Trazado 120970" d="M170.926,2394.972c-.1,4.842.048,12.515.166,17.475a4.379,4.379,0,0,0,4.889,4.246l18.456-2.162a4.387,4.387,0,0,0,3.823-5l-2.269-15.108a4.387,4.387,0,0,0-4.333-3.732H175.307A4.376,4.376,0,0,0,170.926,2394.972Z" transform="translate(-157.94 -2375.095)" fill="#fff"/>
            <path id="Trazado_120971" data-name="Trazado 120971" d="M472.458,2337.408l15.391,1.664a3.478,3.478,0,0,0,3.833-3.7l-3.366-45.783c-6.452-.2-12.816-.354-18.956-.454v44.835A3.469,3.469,0,0,0,472.458,2337.408Z" transform="translate(-411.255 -2288.899)" fill="#fff" opacity="0.37"/>
            <path id="Trazado_120972" data-name="Trazado 120972" d="M518.436,2330.212a1.547,1.547,0,0,0,1.545,1.458h.091a1.547,1.547,0,0,0,1.455-1.635l-2.321-39.958L516.1,2290Z" transform="translate(-450.924 -2289.637)" fill="#fff"/>
            <g id="Grupo_55521" data-name="Grupo 55521" transform="translate(17.022 20.166)">
              <path id="Trazado_120973" data-name="Trazado 120973" d="M220.129,2437.935a.518.518,0,0,1-.516-.483l-.8-12.587a.51.51,0,0,1,.128-.373.516.516,0,0,1,.356-.173.5.5,0,0,1,.546.483l.8,12.586a.517.517,0,0,1-.483.546Z" transform="translate(-215.632 -2423.801)" fill="url(#linear-gradient-15)"/>
              <path id="Trazado_120974" data-name="Trazado 120974" d="M233.166,2436.546a.515.515,0,0,1-.51-.505l-.418-12.826a.516.516,0,0,1,.5-.532.486.486,0,0,1,.523.5l.419,12.829a.517.517,0,0,1-.5.532Z" transform="translate(-227.026 -2422.412)" fill="url(#linear-gradient-16)"/>
              <path id="Trazado_120975" data-name="Trazado 120975" d="M246.649,2436.7a.515.515,0,0,1-.514-.493c-.1-2.108-.605-12.638-.605-12.858a.517.517,0,0,1,1.033,0c0,.282.395,8.5.605,12.81a.512.512,0,0,1-.492.537Zm-.085-13.343Z" transform="translate(-238.307 -2422.56)" fill="url(#linear-gradient-17)"/>
              <path id="Trazado_120976" data-name="Trazado 120976" d="M267.943,2435.559a1.033,1.033,0,0,1-1.03-1c-.436-12.427-.36-12.708-.3-12.894a1.032,1.032,0,0,1,2.018.409c-.033.746.2,7.977.352,12.412a1.029,1.029,0,0,1-.994,1.059Z" transform="translate(-256.161 -2420.908)" fill="url(#linear-gradient-18)"/>
              <path id="Trazado_120977" data-name="Trazado 120977" d="M287.557,2438.087a.518.518,0,0,1-.517-.516v-12.585a.517.517,0,0,1,1.033,0v12.585A.516.516,0,0,1,287.557,2438.087Z" transform="translate(-273.537 -2423.953)" fill="url(#linear-gradient-19)"/>
              <path id="Trazado_120978" data-name="Trazado 120978" d="M296.144,2437.77a.516.516,0,0,1-.514-.505c-.1-4.374-.328-11.517-.536-12.376a.516.516,0,0,1,.734-.683c.281.184.548.358.835,13.034a.52.52,0,0,1-.505.529Z" transform="translate(-280.318 -2423.634)" fill="url(#linear-gradient-20)"/>
              <path id="Trazado_120979" data-name="Trazado 120979" d="M199.5,2436.186a1.033,1.033,0,0,1-1.03-.979l-.688-13.217a1.032,1.032,0,1,1,2.062-.106l.688,13.215a1.034,1.034,0,0,1-.977,1.084Z" transform="translate(-197.781 -2420.904)" fill="url(#linear-gradient-21)"/>
            </g>
          </g>
          <g id="Grupo_55524" data-name="Grupo 55524" transform="translate(16.702)">
            <path id="Trazado_120980" data-name="Trazado 120980" d="M195.67,1870.836v-51.782c0-6.807,4.724-12.34,10.6-12.414,17.645-.223,54.039-.233,83.816,2.67,4.063.4,7.223,4.249,7.372,8.964l2.79,50.066c.207,6.622-4.317,12.153-10.043,12.279l-84.282,1.853C200.29,1882.6,195.67,1877.351,195.67,1870.836Z" transform="translate(-195.67 -1806.553)" fill="url(#linear-gradient-22)"/>
            <path id="Trazado_120981" data-name="Trazado 120981" d="M263.091,1904.357c-.076,4.407.038,11.4.13,15.915.049,2.351,1.83,4.14,3.849,3.868l14.522-1.967a3.926,3.926,0,0,0,3.009-4.555l-1.784-13.759a3.65,3.65,0,0,0-3.41-3.4H266.536A3.723,3.723,0,0,0,263.091,1904.357Z" transform="translate(-252.871 -1886.254)" fill="#fff"/>
            <path id="Trazado_120982" data-name="Trazado 120982" d="M500.417,1851.875l12.114,1.513a2.949,2.949,0,0,0,3.016-3.374l-2.649-41.7c-5.077-.186-10.086-.322-14.919-.417v40.832A3.03,3.03,0,0,0,500.417,1851.875Z" transform="translate(-452.248 -1807.697)" fill="#fff" opacity="0.37"/>
            <path id="Trazado_120983" data-name="Trazado 120983" d="M536.564,1845.386a1.306,1.306,0,0,0,1.21,1.328.5.5,0,0,0,.071,0,1.35,1.35,0,0,0,1.145-1.488l-1.826-36.391-2.445-.066Z" transform="translate(-483.43 -1808.434)" fill="#fff"/>
            <g id="Grupo_55523" data-name="Grupo 55523" transform="translate(13.396 18.365)">
              <path id="Trazado_120984" data-name="Trazado 120984" d="M301.807,1943.471a.436.436,0,0,1-.406-.441l-.628-11.462a.454.454,0,0,1,.38-.5.423.423,0,0,1,.431.44l.628,11.462a.453.453,0,0,1-.38.5Z" transform="translate(-298.267 -1930.598)" fill="url(#linear-gradient-23)"/>
              <path id="Trazado_120985" data-name="Trazado 120985" d="M312.037,1942.237a.44.44,0,0,1-.407-.454L311.3,1930.1a.454.454,0,0,1,.392-.486c.259-.015.411.2.42.454l.328,11.681a.453.453,0,0,1-.392.485Z" transform="translate(-307.204 -1929.364)" fill="url(#linear-gradient-24)"/>
              <path id="Trazado_120986" data-name="Trazado 120986" d="M322.678,1942.227a.438.438,0,0,1-.406-.454c-.079-1.92-.473-11.511-.473-11.7a.41.41,0,1,1,.812,0c0,.256.312,7.741.472,11.665a.453.453,0,0,1-.386.49Zm-.067-12.152Z" transform="translate(-316.111 -1929.354)" fill="url(#linear-gradient-25)"/>
              <path id="Trazado_120987" data-name="Trazado 120987" d="M339.441,1941.3a.877.877,0,0,1-.811-.907c-.343-11.318-.283-11.573-.243-11.742a.806.806,0,0,1,1-.66.948.948,0,0,1,.592,1.032c-.026.679.151,7.261.278,11.3a.894.894,0,0,1-.784.973Z" transform="translate(-330.167 -1927.957)" fill="url(#linear-gradient-26)"/>
              <path id="Trazado_120988" data-name="Trazado 120988" d="M354.866,1943.491a.441.441,0,0,1-.407-.471v-11.462a.41.41,0,1,1,.812,0v11.462A.442.442,0,0,1,354.866,1943.491Z" transform="translate(-343.831 -1930.618)" fill="url(#linear-gradient-27)"/>
              <path id="Trazado_120989" data-name="Trazado 120989" d="M361.629,1943.349a.44.44,0,0,1-.405-.454c-.079-3.983-.26-10.49-.422-11.272a.533.533,0,0,1,.015-.487.374.374,0,0,1,.563-.135c.221.168.431.327.656,11.871a.454.454,0,0,1-.4.481Z" transform="translate(-349.173 -1930.476)" fill="url(#linear-gradient-28)"/>
              <path id="Trazado_120990" data-name="Trazado 120990" d="M285.577,1941.927a.877.877,0,0,1-.811-.891L284.224,1929a.9.9,0,0,1,.77-.986.867.867,0,0,1,.853.89l.542,12.035a.9.9,0,0,1-.769.988Z" transform="translate(-284.223 -1928.003)" fill="url(#linear-gradient-29)"/>
            </g>
          </g>
          <g id="Grupo_55526" data-name="Grupo 55526" transform="translate(88.154 82.285)">
            <path id="Trazado_120991" data-name="Trazado 120991" d="M679.431,2423.681A11.221,11.221,0,0,1,668,2412.464v-49.922a11.962,11.962,0,0,1,11.83-11.966c19.682-.215,60.277-.225,93.488,2.573a8.992,8.992,0,0,1,8.222,8.642l3.1,48.257a11.426,11.426,0,0,1-11.195,11.838Z" transform="translate(-668 -2350.492)" fill="url(#linear-gradient-30)"/>
            <path id="Trazado_120992" data-name="Trazado 120992" d="M743.188,2444.763c-.083,4.246.042,10.984.151,15.34a3.846,3.846,0,0,0,4.293,3.728l16.2-1.9a3.846,3.846,0,0,0,3.357-4.387l-1.988-13.264A3.847,3.847,0,0,0,761.39,2441H747.035a3.842,3.842,0,0,0-3.847,3.762Z" transform="translate(-731.791 -2427.309)" fill="#fff"/>
            <path id="Trazado_120993" data-name="Trazado 120993" d="M1007.927,2394.162l13.513,1.458a3.048,3.048,0,0,0,3.364-3.253l-2.954-40.2c-5.664-.179-11.252-.31-16.64-.4v39.367A3.045,3.045,0,0,0,1007.927,2394.162Z" transform="translate(-954.198 -2351.577)" fill="#fff" opacity="0.37"/>
            <path id="Trazado_120994" data-name="Trazado 120994" d="M1048.3,2387.891a1.361,1.361,0,0,0,1.362,1.28h.08a1.36,1.36,0,0,0,1.278-1.434l-2.044-35.093-2.723-.063Z" transform="translate(-989.03 -2352.265)" fill="#fff"/>
            <g id="Grupo_55525" data-name="Grupo 55525" transform="translate(14.937 17.707)">
              <path id="Trazado_120995" data-name="Trazado 120995" d="M786.379,2482.521a.454.454,0,0,1-.454-.425l-.7-11.043a.454.454,0,0,1,.424-.481.443.443,0,0,1,.481.423l.7,11.043a.453.453,0,0,1-.424.479Z" transform="translate(-782.429 -2470.112)" fill="url(#linear-gradient-31)"/>
              <path id="Trazado_120996" data-name="Trazado 120996" d="M797.816,2481.3a.453.453,0,0,1-.454-.438L797,2469.6a.452.452,0,0,1,.437-.466.427.427,0,0,1,.47.432l.366,11.261a.454.454,0,0,1-.437.469Z" transform="translate(-792.422 -2468.887)" fill="url(#linear-gradient-32)"/>
              <path id="Trazado_120997" data-name="Trazado 120997" d="M809.663,2481.3a.454.454,0,0,1-.454-.433c-.089-1.85-.529-11.094-.529-11.282a.454.454,0,1,1,.908,0c0,.247.348,7.462.526,11.244a.453.453,0,0,1-.43.473Zm-.074-11.715Z" transform="translate(-802.336 -2468.89)" fill="url(#linear-gradient-33)"/>
              <path id="Trazado_120998" data-name="Trazado 120998" d="M828.338,2480.487a.908.908,0,0,1-.908-.874c-.383-10.91-.316-11.157-.272-11.319a.908.908,0,0,1,1.773.359c-.029.656.174,7,.3,10.893a.906.906,0,0,1-.873.937Z" transform="translate(-817.99 -2467.626)" fill="url(#linear-gradient-34)"/>
              <path id="Trazado_120999" data-name="Trazado 120999" d="M845.584,2482.521a.454.454,0,0,1-.454-.454v-11.044a.454.454,0,0,1,.908,0v11.044A.454.454,0,0,1,845.584,2482.521Z" transform="translate(-833.272 -2470.112)" fill="url(#linear-gradient-35)"/>
              <path id="Trazado_121000" data-name="Trazado 121000" d="M853.073,2482.3a.453.453,0,0,1-.454-.443c-.088-3.839-.291-10.109-.472-10.864a.454.454,0,0,1,.644-.6c.247.162.481.314.734,11.443a.454.454,0,0,1-.443.464Z" transform="translate(-839.175 -2469.897)" fill="url(#linear-gradient-36)"/>
              <path id="Trazado_121001" data-name="Trazado 121001" d="M768.256,2480.959a.908.908,0,0,1-.908-.859l-.605-11.6a.907.907,0,0,1,1.811-.094l.605,11.6a.909.909,0,0,1-.859.952Z" transform="translate(-766.743 -2467.545)" fill="url(#linear-gradient-37)"/>
            </g>
          </g>
        </g>
        <g id="Grupo_55539" data-name="Grupo 55539" transform="translate(45.289 21.688)">
          <g id="Grupo_55532" data-name="Grupo 55532" transform="translate(26.231 70.556)">
            <g id="Grupo_55531" data-name="Grupo 55531" transform="translate(1.306 1.83)">
              <g id="Grupo_55528" data-name="Grupo 55528" transform="translate(168.042 69.398)">
                <path id="Trazado_121002" data-name="Trazado 121002" d="M1683.015,1664.773a2.26,2.26,0,0,1-1.552-.614l-3.328-3.134a2.269,2.269,0,0,1,3.1-3.3l3.328,3.134a2.269,2.269,0,0,1-1.552,3.917Z" transform="translate(-1677.502 -1657.183)" fill="#fff"/>
                <path id="Trazado_121003" data-name="Trazado 121003" d="M1766.165,1742.953a2.258,2.258,0,0,1-1.552-.616l-9.125-8.58a2.269,2.269,0,1,1,3.106-3.3l9.125,8.582a2.269,2.269,0,0,1-1.553,3.917Zm-18.25-17.164a2.257,2.257,0,0,1-1.552-.615l-9.125-8.582a2.269,2.269,0,1,1,3.1-3.3l9.125,8.582a2.269,2.269,0,0,1-1.552,3.916Z" transform="translate(-1727.515 -1704.204)" fill="#fff"/>
                <path id="Trazado_121004" data-name="Trazado 121004" d="M1969.115,1939.525a2.345,2.345,0,0,1-.658-.1,2.269,2.269,0,0,1-1.512-2.826l.918-3.035-2.316-2.171a2.269,2.269,0,1,1,3.106-3.3l3.328,3.133a2.269,2.269,0,0,1,.615,2.307l-1.323,4.387A2.271,2.271,0,0,1,1969.115,1939.525Z" transform="translate(-1921.299 -1886.526)" fill="#fff"/>
                <path id="Trazado_121005" data-name="Trazado 121005" d="M1940.285,2047.12a2.312,2.312,0,0,1-.657-.1,2.269,2.269,0,0,1-1.512-2.826l3.77-12.467a2.269,2.269,0,0,1,4.339,1.313l-3.77,12.465A2.269,2.269,0,0,1,1940.285,2047.12Z" transform="translate(-1898.609 -1973.791)" fill="#fff"/>
              </g>
              <g id="Grupo_55529" data-name="Grupo 55529" transform="translate(95.494)">
                <path id="Trazado_121006" data-name="Trazado 121006" d="M1200.2,1510.663a2.269,2.269,0,0,1-2.269-2.269v-4.575a2.269,2.269,0,0,1,4.539,0v4.575A2.269,2.269,0,0,1,1200.2,1510.663Z" transform="translate(-1197.93 -1455.695)" fill="#fff"/>
                <path id="Trazado_121007" data-name="Trazado 121007" d="M1200.2,1289.96a2.269,2.269,0,0,1-2.269-2.269v-13.054a2.269,2.269,0,0,1,4.539,0v13.054A2.269,2.269,0,0,1,1200.2,1289.96Zm0-26.107a2.269,2.269,0,0,1-2.269-2.27v-2.714a2.269,2.269,0,0,1,4.539,0v2.714A2.269,2.269,0,0,1,1200.2,1263.853Z" transform="translate(-1197.93 -1247.801)" fill="#fff"/>
                <path id="Trazado_121008" data-name="Trazado 121008" d="M1200.2,1208.263a2.269,2.269,0,0,1-2.269-2.269v-4.574a2.269,2.269,0,0,1,2.269-2.27h4.574a2.269,2.269,0,0,1,0,4.539h-2.31V1206A2.269,2.269,0,0,1,1200.2,1208.263Z" transform="translate(-1197.93 -1199.041)" fill="#fff"/>
                <path id="Trazado_121009" data-name="Trazado 121009" d="M1291.329,1203.173a2.269,2.269,0,1,1,0-4.538l14.6-.015h0a2.269,2.269,0,1,1,0,4.538Zm29.2-.03a2.269,2.269,0,0,1,0-4.531l14.6-.017h0a2.269,2.269,0,0,1,0,4.539l-14.6.015Zm29.2-.028a2.269,2.269,0,0,1,0-4.539l14.6-.015h0a2.269,2.269,0,1,1,0,4.538l-14.6.017Z" transform="translate(-1275.275 -1198.541)" fill="#fff"/>
                <path id="Trazado_121010" data-name="Trazado 121010" d="M1900.27,1202.969a2.269,2.269,0,0,1,0-4.539h4.574a2.269,2.269,0,1,1,0,4.539Z" transform="translate(-1792.097 -1198.43)" fill="#fff"/>
              </g>
              <g id="Grupo_55530" data-name="Grupo 55530" transform="translate(0 64.725)">
                <path id="Trazado_121011" data-name="Trazado 121011" d="M573.512,1630.829h-4.573a2.269,2.269,0,1,1,0-4.538h4.573a2.269,2.269,0,1,1,0,4.538Z" transform="translate(-566.67 -1626.29)" fill="url(#linear-gradient-38)"/>
                <path id="Trazado_121012" data-name="Trazado 121012" d="M680.111,1630.829H677.48a2.269,2.269,0,0,1,0-4.538h2.631a2.269,2.269,0,0,1,0,4.538Zm-15.327,0H652.1a2.269,2.269,0,0,1,0-4.538h12.69a2.269,2.269,0,1,1,0,4.538Z" transform="translate(-637.25 -1626.29)" fill="url(#linear-gradient-39)"/>
                <path id="Trazado_121013" data-name="Trazado 121013" d="M871.473,1634.174a2.255,2.255,0,0,1-1.664-.721l-2.448-2.624h-3.582a2.269,2.269,0,0,1,0-4.538h4.573a2.269,2.269,0,0,1,1.664.72l3.119,3.346a2.269,2.269,0,0,1-1.664,3.812Z" transform="translate(-816.908 -1626.29)" fill="url(#linear-gradient-40)"/>
                <path id="Trazado_121014" data-name="Trazado 121014" d="M1017.474,1763.249a2.259,2.259,0,0,1-1.623-.685c-.684-.7-1.361-1.319-2.032-1.913a19.556,19.556,0,0,1-3.357-3.572c-.891-1.185-1.776-2.218-2.712-3.31q-.381-.443-.756-.888a2.269,2.269,0,0,1,3.457-2.933c.248.293.5.583.744.873.953,1.112,1.941,2.269,2.932,3.585l.073.1a15.712,15.712,0,0,0,2.655,2.773c.683.614,1.458,1.312,2.248,2.118a2.269,2.269,0,0,1-1.624,3.848Zm-18.135-19.432a2.255,2.255,0,0,1-1.637-.7c-2.92-3.048-5.77-6.165-8.526-9.18l-.775-.848a2.269,2.269,0,0,1,3.343-3.059l.778.855c2.738,3,5.57,6.093,8.453,9.1a2.269,2.269,0,0,1-1.637,3.834Zm-18.577-19.936a2.257,2.257,0,0,1-1.623-.685c-1.967-2.024-3.821-3.849-5.652-5.576-.038-.035-.074-.073-.109-.111q-1.92-2.08-3.794-4.115a2.269,2.269,0,0,1,3.328-3.071q1.849,2.009,3.738,4.054c1.856,1.756,3.732,3.607,5.729,5.655a2.269,2.269,0,0,1-1.623,3.849Zm-18.714-19.8a2.259,2.259,0,0,1-1.675-.74c-3.136-3.443-6.123-6.751-9.149-10.119a2.269,2.269,0,1,1,3.372-3.025c3.015,3.356,6,6.656,9.131,10.093a2.269,2.269,0,0,1-1.675,3.793Z" transform="translate(-892.479 -1679.801)" fill="url(#linear-gradient-41)"/>
                <path id="Trazado_121015" data-name="Trazado 121015" d="M1646.429,2203.414a2.258,2.258,0,0,1-1-.23,26.778,26.778,0,0,0-2.936-.253,2.269,2.269,0,0,1,.234-4.526c3.834.2,4.618.439,5.322,1.162a2.27,2.27,0,0,1-1.624,3.847Zm-.877-.2ZM1644.809,2202.732Zm0,0Zm-111.271.521a2.269,2.269,0,0,1,0-4.539c4.279-.015,8.857-.042,13.629-.075h.017a2.269,2.269,0,0,1,.017,4.531c-4.779.035-9.363.062-13.647.077Zm-13.633,0h-.014c-6.5-.037-11-.128-13.74-.284a2.269,2.269,0,0,1,.256-4.525c2.664.152,7.084.241,13.51.277a2.269,2.269,0,0,1-.012,4.539Zm40.905-.186a2.269,2.269,0,0,1-.02-4.538l13.634-.126h.023a2.269,2.269,0,0,1,.02,4.538l-13.636.125Zm27.27-.248a2.269,2.269,0,0,1-.018-4.538c4.651-.041,9.228-.077,13.639-.108h.017a2.269,2.269,0,0,1,.014,4.538c-4.411.031-8.983.067-13.63.108Zm40.908-.161h-.015c-2.6-.017-5.431-.02-8.45-.022h-5.163a2.269,2.269,0,1,1,0-4.538c1.913,0,3.781-.009,5.559,0,2.883,0,5.6,0,8.095.023a2.269,2.269,0,0,1-.014,4.538Z" transform="translate(-1362.314 -2111.594)" fill="url(#linear-gradient-42)"/>
              </g>
            </g>
            <ellipse id="Elipse_4215" data-name="Elipse 4215" cx="5.862" cy="5.862" rx="5.862" ry="5.862" transform="translate(0 61.757)" fill="#fff"/>
            <ellipse id="Elipse_4216" data-name="Elipse 4216" cx="5.862" cy="5.862" rx="5.862" ry="5.862" transform="translate(93.779 50.32)" fill="#fff"/>
            <ellipse id="Elipse_4217" data-name="Elipse 4217" cx="5.862" cy="5.862" rx="5.862" ry="5.862" transform="translate(93.779)" fill="#fff"/>
            <ellipse id="Elipse_4218" data-name="Elipse 4218" cx="5.862" cy="5.862" rx="5.862" ry="5.862" transform="translate(165.828 67.475)" fill="#fff"/>
            <ellipse id="Elipse_4219" data-name="Elipse 4219" cx="5.862" cy="5.862" rx="5.862" ry="5.862" transform="translate(129.232 150.961)" fill="#fff"/>
            <path id="Trazado_121016" data-name="Trazado 121016" d="M1273.614,1563.728a2.282,2.282,0,0,1-.532-.063l-14.1-3.388a2.269,2.269,0,1,1,1.059-4.407l14.1,3.388a2.269,2.269,0,0,1-.528,4.47Zm-28.2-6.778a2.287,2.287,0,0,1-.533-.062l-14.1-3.39a2.269,2.269,0,0,1,1.059-4.407l14.1,3.39a2.269,2.269,0,0,1-.528,4.469Zm-28.2-6.777a2.242,2.242,0,0,1-.532-.063l-14.1-3.388a2.269,2.269,0,0,1,1.059-4.407l14.1,3.389a2.269,2.269,0,0,1-.526,4.47Z" transform="translate(-1103.691 -1488.43)" fill="#fff"/>
          </g>
          <g id="Grupo_55534" data-name="Grupo 55534" transform="translate(0 49.085)">
            <g id="Grupo_55533" data-name="Grupo 55533" transform="translate(0 0)">
              <circle id="Elipse_4220" data-name="Elipse 4220" cx="21.737" cy="21.737" r="21.737" transform="translate(0 30.741) rotate(-45)" fill="url(#linear-gradient-43)"/>
              <path id="Trazado_121017" data-name="Trazado 121017" d="M487.362,1239.9H443.927s-1.731,12.065,17.669,45.11a4.748,4.748,0,0,0,8.133.015C489.127,1251.978,487.362,1239.9,487.362,1239.9Z" transform="translate(-434.925 -1210.325)" fill="url(#linear-gradient-44)"/>
            </g>
            <path id="Trazado_121018" data-name="Trazado 121018" d="M462.083,1170.481v.122h0a5.388,5.388,0,0,1-4.608-2.659c-11.346-19.316-15.5-31.53-16.984-38.365a21.887,21.887,0,0,1-.746-4.69,10.821,10.821,0,0,1-.018-2.369l.056-.348a22.367,22.367,0,0,1,44.634.222,9.885,9.885,0,0,1,.036,1.2v.081a22.423,22.423,0,0,1-.9,6.286c-1.54,6.828-5.721,18.922-16.867,37.912A5.266,5.266,0,0,1,462.083,1170.481Zm-21.135-47.144c0,.327,0,.791.062,1.493h0a20.539,20.539,0,0,0,.708,4.431l.008.024c1.466,6.743,5.577,18.8,16.841,37.99a4.085,4.085,0,0,0,3.517,2h0a4.28,4.28,0,0,0,3.525-2.02c11.075-18.869,15.211-30.86,16.727-37.6l.012-.04a21.08,21.08,0,0,0,.725-5.95l-.127-.089h0a8.348,8.348,0,0,1,.1-1.059l.06-.038a21.079,21.079,0,0,0-42.094.215l-.018.641Z" transform="translate(-431.352 -1092.785)" fill="#fff" opacity="0.8"/>
            <circle id="Elipse_4221" data-name="Elipse 4221" cx="12.551" cy="12.551" r="12.551" transform="translate(13.061 30.67) rotate(-45)" fill="#fff"/>
            <path id="Trazado_121019" data-name="Trazado 121019" d="M513.943,1186.027a13.253,13.253,0,1,1,13.253-13.253A13.253,13.253,0,0,1,513.943,1186.027Zm0-25.1a11.851,11.851,0,1,0,11.851,11.851A11.851,11.851,0,0,0,513.943,1160.924Z" transform="translate(-483.134 -1142.104)" fill="url(#linear-gradient-45)"/>
          </g>
          <g id="Grupo_55536" data-name="Grupo 55536" transform="translate(128.019 137.985)">
            <g id="Grupo_55535" data-name="Grupo 55535" transform="translate(0 0)">
              <circle id="Elipse_4222" data-name="Elipse 4222" cx="21.737" cy="21.737" r="21.737" transform="translate(0 30.741) rotate(-45)" fill="url(#linear-gradient-46)"/>
              <path id="Trazado_121020" data-name="Trazado 121020" d="M1333.622,1827.56h-43.434s-1.73,12.066,17.669,45.111a4.747,4.747,0,0,0,8.133.017C1335.387,1839.638,1333.622,1827.56,1333.622,1827.56Z" transform="translate(-1281.186 -1797.986)" fill="url(#linear-gradient-47)"/>
            </g>
            <path id="Trazado_121021" data-name="Trazado 121021" d="M1308.3,1758.124v.123h0a5.393,5.393,0,0,1-4.609-2.661c-11.346-19.316-15.5-31.53-16.984-38.365a21.963,21.963,0,0,1-.744-4.689,10.925,10.925,0,0,1-.02-2.37l.058-.348a22.367,22.367,0,0,1,44.634.221,9.742,9.742,0,0,1,.034,1.2v.08a22.367,22.367,0,0,1-.9,6.285c-1.539,6.829-5.72,18.922-16.866,37.913A5.268,5.268,0,0,1,1308.3,1758.124Zm-21.129-47.146c0,.325,0,.792.062,1.492h0a20.527,20.527,0,0,0,.708,4.43v.026c1.466,6.741,5.578,18.8,16.841,37.988a4.084,4.084,0,0,0,3.516,2v0a4.286,4.286,0,0,0,3.526-2.019c11.075-18.869,15.209-30.86,16.727-37.6l.01-.04a21.024,21.024,0,0,0,.726-5.95l-.127-.088h0a8,8,0,0,1,.1-1.058l.059-.037a21.078,21.078,0,0,0-42.093.213l-.018.643Z" transform="translate(-1277.576 -1680.429)" fill="#fff" opacity="0.8"/>
            <ellipse id="Elipse_4223" data-name="Elipse 4223" cx="12.551" cy="12.551" rx="12.551" ry="12.551" transform="matrix(0.957, -0.29, 0.29, 0.957, 15.142, 22.318)" fill="#fff"/>
            <path id="Trazado_121022" data-name="Trazado 121022" d="M1360.2,1773.7a13.253,13.253,0,1,1,13.253-13.253A13.253,13.253,0,0,1,1360.2,1773.7Zm0-25.1a11.851,11.851,0,1,0,11.851,11.85A11.851,11.851,0,0,0,1360.2,1748.594Z" transform="translate(-1329.396 -1729.774)" fill="url(#linear-gradient-48)"/>
          </g>
          <g id="Grupo_55538" data-name="Grupo 55538" transform="translate(213.85)">
            <g id="Grupo_55537" data-name="Grupo 55537" transform="translate(0.639 0.38)">
              <ellipse id="Elipse_4224" data-name="Elipse 4224" cx="21.737" cy="21.737" rx="21.737" ry="21.737" transform="translate(0.04)" fill="url(#linear-gradient-49)"/>
              <path id="Trazado_121023" data-name="Trazado 121023" d="M1845.98,858.42h-43.432s-1.731,12.064,17.669,45.111a4.748,4.748,0,0,0,8.132.017C1847.747,870.5,1845.98,858.42,1845.98,858.42Z" transform="translate(-1802.508 -837.848)" fill="url(#linear-gradient-49)"/>
            </g>
            <path id="Trazado_121024" data-name="Trazado 121024" d="M1820.69,788.991v.123h0a5.394,5.394,0,0,1-4.609-2.659c-11.346-19.316-15.5-31.53-16.983-38.365a21.99,21.99,0,0,1-.745-4.69,10.915,10.915,0,0,1-.019-2.369l.057-.348a22.366,22.366,0,0,1,44.632.222,9.909,9.909,0,0,1,.036,1.2v.08a22.414,22.414,0,0,1-.9,6.285c-1.54,6.829-5.72,18.922-16.867,37.913A5.265,5.265,0,0,1,1820.69,788.991Zm-21.133-47.142c0,.327,0,.791.062,1.493h0a20.47,20.47,0,0,0,.707,4.431v.024c1.467,6.742,5.579,18.8,16.844,37.99a4.083,4.083,0,0,0,3.515,2v0a4.278,4.278,0,0,0,3.526-2.02c11.074-18.869,15.209-30.86,16.726-37.6l.01-.039a21.059,21.059,0,0,0,.726-5.95l-.127-.089h0a8.569,8.569,0,0,1,.1-1.059l.06-.038a21.079,21.079,0,0,0-42.094.221l-.017.642Z" transform="translate(-1798.285 -719.92)" fill="#fff" opacity="0.8"/>
            <ellipse id="Elipse_4225" data-name="Elipse 4225" cx="12.551" cy="12.551" rx="12.551" ry="12.551" transform="matrix(0.957, -0.29, 0.29, 0.957, 6.832, 13.698)" fill="#fff"/>
            <path id="Trazado_121025" data-name="Trazado 121025" d="M1872.555,804.547a13.253,13.253,0,1,1,13.252-13.252A13.253,13.253,0,0,1,1872.555,804.547Zm0-25.1a11.851,11.851,0,1,0,11.85,11.851A11.851,11.851,0,0,0,1872.555,779.444Z" transform="translate(-1850.07 -769.248)" fill="url(#linear-gradient-51)"/>
          </g>
        </g>
        <g id="Grupo_55543" data-name="Grupo 55543" transform="translate(265.611 101.501)">
          <path id="Trazado_121026" data-name="Trazado 121026" d="M2352.911,2787.91c4.64.4,12.693,1.059,19.044,1.333,3.817.168,6.014-.206,7.28-.713,0,.143,0,.277-.012.4a1.315,1.315,0,0,1-1.248,1.241,223.625,223.625,0,0,1-24.935.019.935.935,0,0,1-.756-1.406A7.58,7.58,0,0,1,2352.911,2787.91Z" transform="translate(-2274.84 -2554.886)" fill="#7d97f4"/>
          <path id="Trazado_121027" data-name="Trazado 121027" d="M2376.155,2736.674c-6.353-.281-14.405-.933-19.044-1.333,4.562-5.6,19.044-9.37,19.044-9.37h4.084a17.155,17.155,0,0,1,3.19,9.985C2382.174,2736.468,2379.977,2736.842,2376.155,2736.674Z" transform="translate(-2279.047 -2502.316)" fill="url(#linear-gradient-52)"/>
          <path id="Trazado_121028" data-name="Trazado 121028" d="M2471.8,2681.831l-.383,7.574a1.733,1.733,0,0,1-1.478,1.627,6.759,6.759,0,0,1-3.075-.25,2.044,2.044,0,0,1-1.375-1.574l-1.323-7.373Z" transform="translate(-2369.91 -2464.854)" fill="url(#linear-gradient-53)"/>
          <g id="Grupo_55540" data-name="Grupo 55540" transform="translate(137.431 219.31)">
            <path id="Trazado_121029" data-name="Trazado 121029" d="M2789.149,2827.949a3.991,3.991,0,0,0,3.306-3.158l.008.04a3.6,3.6,0,0,1-1.763,3.853,9.239,9.239,0,0,1-4.88.988,4.512,4.512,0,0,1-3.659-2.181l-.011-.019C2783.666,2828.439,2785.794,2828.554,2789.149,2827.949Z" transform="translate(-2777.218 -2805.497)" fill="#7d97f4"/>
            <path id="Trazado_121030" data-name="Trazado 121030" d="M2751.991,2697.255h3.373c5.144-.136,8.364,13.869,9.42,19.292a3.989,3.989,0,0,1-3.305,3.158c-3.355.605-5.484.49-7-.478-2.776-4.721-4.152-11.635-4.813-15.671C2748.914,2698.969,2751.991,2697.255,2751.991,2697.255Z" transform="translate(-2749.548 -2697.254)" fill="url(#linear-gradient-54)"/>
          </g>
          <path id="Trazado_121031" data-name="Trazado 121031" d="M2744.773,2650.78l1.874,7.451a2.026,2.026,0,0,1-1.06,2.292,7.18,7.18,0,0,1-3.879.937,1.687,1.687,0,0,1-1.379-1.125l-2.75-7.838Z" transform="translate(-2601.96 -2438.501)" fill="url(#linear-gradient-55)"/>
          <path id="Trazado_121032" data-name="Trazado 121032" d="M2349.591,1990.389s16.738,104.624,16.462,105.2a13.934,13.934,0,0,0,9.663.267s-1.513-55.93-5.059-77.374c0,0,28.564,49.989,37.635,74.9a22.687,22.687,0,0,0,8.649-3.139s-30.758-89.981-38.963-101.961Z" transform="translate(-2272.664 -1876.221)" fill="url(#linear-gradient-56)"/>
          <path id="Trazado_121033" data-name="Trazado 121033" d="M2420.726,2117.574a.5.5,0,0,0,.42-.757l-6.255-9.984a.5.5,0,0,0-.322-.223l-4.6-.926a.494.494,0,1,0-.2.969l4.394.884,6.142,9.81A.5.5,0,0,0,2420.726,2117.574Z" transform="translate(-2323.404 -1975.857)" fill="url(#linear-gradient-57)"/>
          <path id="Trazado_121034" data-name="Trazado 121034" d="M1841.189,1325s11.295,2.49,18.164,5.662a6.27,6.27,0,0,1,3.072,3.089c2.055,4.5,8.2,15.786,20.12,21.178-1.716,2.28-4.481,7.02-5.686,14.986-7.159-5.33-13.339-14.229-16.307-28.825a5.825,5.825,0,0,1-5.079-.14,51.752,51.752,0,0,1-4.5-2.557,5.887,5.887,0,0,1-2.616-3.513,20.421,20.421,0,0,1-.2-5.446l-5.806-1.8A2.073,2.073,0,0,1,1841.189,1325Z" transform="translate(-1841.069 -1313.279)" fill="url(#linear-gradient-58)"/>
          <path id="Trazado_121035" data-name="Trazado 121035" d="M2077.67,1533.44c1.21-7.966,3.97-12.707,5.686-14.986,7.412,3.347,17.04,4.416,29.3.165a13.094,13.094,0,0,1,3.507-.691c6.53-.383,28.049-1.082,45.856,4.8a13.839,13.839,0,0,1,8.346,7.6c4.817,11.054,12.617,36.228-9.034,48.937a53.665,53.665,0,0,0-5.223-9.888c3.479-5.88,4.519-13.917-1.664-24.372-4.511,12.182-6.627,29.952-7.069,37.819a16.867,16.867,0,0,0,1.325,7.563l.11.26a.9.9,0,0,1-.629,1.224c-12.187,2.736-24.864,1.994-28.65,1.68a1.562,1.562,0,0,1-1.393-1.193c-5.927-24.971-5.94-42.006-4.49-52.774C2108.1,1540.828,2091.15,1543.472,2077.67,1533.44Z" transform="translate(-2041.878 -1476.813)" fill="url(#linear-gradient-59)"/>
          <path id="Trazado_121036" data-name="Trazado 121036" d="M2312.559,1575.274a.494.494,0,0,0,.489-.429c1.391-10.514,4.227-15.1,4.255-15.147a.495.495,0,0,0-.836-.53c-.119.191-2.974,4.786-4.4,15.547a.495.495,0,0,0,.491.56Z" transform="translate(-2240.813 -1511.827)" fill="url(#linear-gradient-60)"/>
          <path id="Trazado_121037" data-name="Trazado 121037" d="M2446.086,1423.14s1.232,13.035,2.319,16.893a1.32,1.32,0,0,1-.622,1.513c-1.842,1.059-6.26,2.77-12.305-.192a2.747,2.747,0,0,1-1.523-2.582l.533-12.6Z" transform="translate(-2344.262 -1396.573)" fill="url(#linear-gradient-61)"/>
          <g id="Grupo_55541" data-name="Grupo 55541" transform="translate(84.848)">
            <path id="Trazado_121038" data-name="Trazado 121038" d="M2410.723,1312.89s-3.944,9.06-4.209,13.815-1.289,7.839,4.209,8.8,10.135-1.78,12.638-6.517c0,0,3.934-7.3,3.049-10.287S2410.723,1312.89,2410.723,1312.89Z" transform="translate(-2405.613 -1303.001)" fill="url(#linear-gradient-62)"/>
            <path id="Trazado_121039" data-name="Trazado 121039" d="M2417.825,1270.1l-.313-.138a.756.756,0,0,1-.369-1.037c.774-1.5,2.286-4.93.334-5.731-2.516-1.032-12.483-3.065-14.632-6.6a6.578,6.578,0,0,1,2.516-9.034.379.379,0,0,1,.5.161l.229.435a.374.374,0,0,0,.691-.071h0a.371.371,0,0,1,.672-.1c.662,1.059,2.445,2.774,7.218,3.654,6.783,1.251,11.266,4,11.377,8.683a.375.375,0,0,0,.58.3c.5-.3,1.3-.454,2.371.454,1.865,1.565,1.1,5.629-2.982,8.97a.371.371,0,0,0,.018.606c.741.482,1.844,1.629-1.016,3.157a9.63,9.63,0,0,1-6.016,1.312.377.377,0,0,1-.25-.161.372.372,0,0,1-.052-.293l.907-4.119a.373.373,0,0,0-.364-.454Z" transform="translate(-2401.956 -1247.518)" fill="url(#linear-gradient-63)"/>
            <path id="Trazado_121040" data-name="Trazado 121040" d="M2505.73,1377.542s1.5-5.786,4.1-4.163-1.346,6.484-3.431,6.7Z" transform="translate(-2490.032 -1354.095)" fill="url(#linear-gradient-64)"/>
          </g>
          <path id="Trazado_121041" data-name="Trazado 121041" d="M1909.521,1370.738a.494.494,0,0,0,.382-.806c-.428-.525-4.217-5.16-5.678-5.985-.531-.3-.849-.605-.907-.9a.734.734,0,0,1,.065-.466l4.453.892,2.523,2.166a.5.5,0,1,0,.645-.756l-2.621-2.249a.475.475,0,0,0-.224-.11l-4.93-.988a.5.5,0,0,0-.516.212,1.876,1.876,0,0,0-.365,1.523,2.553,2.553,0,0,0,1.391,1.529c1.1.62,4.269,4.36,5.4,5.749A.492.492,0,0,0,1909.521,1370.738Z" transform="translate(-1893.042 -1344.282)" fill="#f8a570"/>
          <path id="Trazado_121042" data-name="Trazado 121042" d="M2409.21,1875.553l-17.43.215,6.1-5.748a4.556,4.556,0,0,1,5.582-.523,13.2,13.2,0,0,1,3.1,2.762s10.875-3.974,16.146-12.859a53.722,53.722,0,0,1,5.224,9.887C2423.2,1872.062,2417.077,1874.244,2409.21,1875.553Z" transform="translate(-2308.471 -1766.837)" fill="url(#linear-gradient-65)"/>
          <g id="Grupo_55542" data-name="Grupo 55542" transform="translate(11.805 71.215)">
            <path id="Trazado_121043" data-name="Trazado 121043" d="M2233.809,1958.708h-.1l-44.248-.047a1.967,1.967,0,1,1,0-3.919l44.247.048a1.966,1.966,0,0,1,.1,3.916Z" transform="translate(-2146.753 -1918.965)" fill="url(#linear-gradient-66)"/>
            <path id="Trazado_121044" data-name="Trazado 121044" d="M1922.035,1718.28h36.849a7.029,7.029,0,0,1,6.354,3.984l17.035,35.741h-45.788a4.27,4.27,0,0,1-3.97-2.67l-13.209-33.073a2.915,2.915,0,0,1,2.729-3.981Z" transform="translate(-1919.104 -1718.28)" fill="url(#linear-gradient-67)"/>
            <ellipse id="Elipse_4226" data-name="Elipse 4226" cx="2.9" cy="4.674" rx="2.9" ry="4.674" transform="translate(21.904 15.687) rotate(-18.24)" fill="#7d97f4"/>
          </g>
        </g>
      </g>
    </g>
  </g>
</svg>
