<svg xmlns="http://www.w3.org/2000/svg" width="393.978" height="266.693" viewBox="0 0 393.978 266.693">
  <g id="img17" transform="translate(-1014 -7055.103)">
    <g id="Image_Place_Holder" data-name="Image Place Holder" transform="translate(1014 7055.103)">
      <rect id="Image_Place_Holder-2" data-name="Image Place Holder" width="393.978" height="266.693" rx="10" fill="#f2f6fe"/>
    </g>
    <g id="empaques-01" transform="translate(1016 6919.734)">
      <path id="Trazado_130416" data-name="Trazado 130416" d="M132.024,204.724,131,260.119,0,257.71l30.53-54.86Z" transform="translate(0 -6.336)" fill="#b51f18"/>
      <path id="Trazado_130417" data-name="Trazado 130417" d="M117.009,204.447l-1.026,55.4L0,257.71l30.53-54.86Z" transform="translate(0 -6.336)" fill="#d3a283"/>
      <path id="Trazado_130418" data-name="Trazado 130418" d="M318.342,344.8,125.98,382.686l3.283-178.1,191.595,3.533Z" transform="translate(-13.584 -6.523)" fill="#9d6c4e"/>
      <path id="Trazado_130419" data-name="Trazado 130419" d="M122.791,382.7,91.44,396.623l2.525-136.672,32.1-55.351Z" transform="translate(-9.859 -6.524)" fill="#8d5c3e"/>
      <path id="Trazado_130420" data-name="Trazado 130420" d="M338.29,345.232l-32.1,55.351,2.516-136.672,32.1-55.351Z" transform="translate(-33.015 -6.951)" fill="#ad7c5e"/>
      <path id="Trazado_130421" data-name="Trazado 130421" d="M423.234,210.093l-30.539,54.851L309.33,263.41l30.539-54.86Z" transform="translate(-33.353 -6.95)" fill="#d3a283"/>
      <path id="Trazado_130422" data-name="Trazado 130422" d="M319.951,201.591,129.4,198.076l21.716-53.986,190.551,3.515Z" transform="translate(-13.952)" fill="#d3a283"/>
      <g id="Grupo_58679" data-name="Grupo 58679" transform="translate(131.534 176.162)">
        <g id="Grupo_58678" data-name="Grupo 58678" transform="translate(0 1.108)">
          <path id="Trazado_130423" data-name="Trazado 130423" d="M175.685,235.744c-.277-.339-.544-.687-.848-1.008l-.2-.178a18.584,18.584,0,0,0-5.353-3.774l.589-31.851a7.342,7.342,0,0,0-.286-2.222,7.539,7.539,0,0,0-3.185-4.3,7.074,7.074,0,0,0-2.382-1.017,6.406,6.406,0,0,0-1.615-.205,2.68,2.68,0,0,0-.464,0,5.833,5.833,0,0,0-.7.045,7.727,7.727,0,0,0-1.909.526,6.3,6.3,0,0,0-.981.491,7.628,7.628,0,0,0-3.328,4.184,7.262,7.262,0,0,0-.366,2.2l-.589,31.86a18,18,0,0,0-6.647,4.72Z" transform="translate(-147.43 -182.347)" fill="#b51f18"/>
          <path id="Trazado_130424" data-name="Trazado 130424" d="M164.931,196.738a7.627,7.627,0,0,1,.25,2.079l-.58,31.86a18.467,18.467,0,0,1,5.353,3.765l.2.187c.294.312.562.66.892,1.008l6.1.107c-.277-.339-.544-.687-.848-1.008l-.2-.178a18.584,18.584,0,0,0-5.353-3.774l.589-31.851a7.342,7.342,0,0,0-.285-2.222,7.539,7.539,0,0,0-3.185-4.3,7.075,7.075,0,0,0-2.382-1.017,6.406,6.406,0,0,0-1.615-.205,2.68,2.68,0,0,0-.464,0,5.83,5.83,0,0,0-.7.045,7.726,7.726,0,0,0-1.909.526c.321.161.642.33.955.526A7.592,7.592,0,0,1,164.931,196.738Z" transform="translate(-148.872 -182.347)" fill="#d53d33"/>
          <path id="Trazado_130425" data-name="Trazado 130425" d="M169.693,183.314l-.116,6.245a1.838,1.838,0,0,1-1.874,1.784l-8.529-.152a1.847,1.847,0,0,1-1.784-1.883l.116-6.245a1.856,1.856,0,0,1,1.883-1.784l8.529.161A1.847,1.847,0,0,1,169.693,183.314Z" transform="translate(-148.504 -181.28)" fill="#9d6c4e"/>
          <path id="Trazado_130426" data-name="Trazado 130426" d="M171.648,187.1l-.134,7.271a1.874,1.874,0,0,1-1.169,1.677,1.909,1.909,0,0,1-.714.125l-13.142-.241a1.7,1.7,0,0,1-.7-.152,1.874,1.874,0,0,1-1.115-1.722l.134-7.271A1.847,1.847,0,0,1,156.7,185l13.142.241a1.838,1.838,0,0,1,1.811,1.856Z" transform="translate(-148.211 -181.681)" fill="#c3d140"/>
          <path id="Trazado_130427" data-name="Trazado 130427" d="M171.648,186.7l-.134,7.271a1.874,1.874,0,0,1-1.169,1.677,7.342,7.342,0,0,1,.286,2.222l-.286,15.533-15.221-.25.294-15.533a7.262,7.262,0,0,1,.366-2.2,1.874,1.874,0,0,1-1.115-1.722l.134-7.271a1.847,1.847,0,0,1,1.891-1.784h.446v-1.508a1.856,1.856,0,0,1,1.882-1.784l8.529.161a1.847,1.847,0,0,1,1.784,1.883v1.5h.464A1.838,1.838,0,0,1,171.648,186.7Z" transform="translate(-148.211 -181.287)" fill="#4d4d4d"/>
          <path id="Trazado_130428" data-name="Trazado 130428" d="M165.528,186.587l-.134,7.271a1.874,1.874,0,0,1-1.151,1.686,7.6,7.6,0,0,1,.277,2.213l-.286,15.533-9.109-.134.294-15.533a7.262,7.262,0,0,1,.366-2.2,1.874,1.874,0,0,1-1.115-1.722l.134-7.271a1.847,1.847,0,0,1,1.891-1.784h.446v-1.508a1.856,1.856,0,0,1,1.882-1.784h2.418a1.847,1.847,0,0,1,1.784,1.882v1.508h.464a1.784,1.784,0,0,1,1.838,1.847Z" transform="translate(-148.211 -181.287)" fill="#333"/>
        </g>
        <path id="Trazado_130429" data-name="Trazado 130429" d="M169.214,182.475c0,1.285-2.587,2.284-5.746,2.23s-5.665-1.151-5.639-2.436,2.587-2.284,5.728-2.23S169.241,181.191,169.214,182.475Z" transform="translate(-148.551 -180.038)" fill="#4d4d4d"/>
      </g>
      <g id="Grupo_58681" data-name="Grupo 58681" transform="translate(189.231 204.158)">
        <g id="Grupo_58680" data-name="Grupo 58680" transform="translate(0 1.09)">
          <path id="Trazado_130430" data-name="Trazado 130430" d="M240.373,267.134c-.286-.348-.553-.687-.848-1.008l-.2-.187a18.878,18.878,0,0,0-5.353-3.774l.589-31.851a7.673,7.673,0,0,0-.286-2.222,7.557,7.557,0,0,0-3.185-4.291,7.137,7.137,0,0,0-2.391-1.026,6.78,6.78,0,0,0-1.615-.205h-.464a3.014,3.014,0,0,0-.7.054,7.2,7.2,0,0,0-1.909.526,5.353,5.353,0,0,0-.981.491,7.592,7.592,0,0,0-3.319,4.175,7.236,7.236,0,0,0-.375,2.213l-.589,31.851a18.316,18.316,0,0,0-4.827,2.953,19,19,0,0,0-1.829,1.784Z" transform="translate(-212.1 -213.71)" fill="#b51f18"/>
          <path id="Trazado_130431" data-name="Trazado 130431" d="M229.621,228.119a8.031,8.031,0,0,1,.25,2.088l-.589,31.851a18.637,18.637,0,0,1,5.353,3.765l.2.2a12.857,12.857,0,0,1,.892,1l6.12.116c-.286-.348-.553-.687-.848-1.008l-.2-.187a18.879,18.879,0,0,0-5.353-3.774l.589-31.851a7.672,7.672,0,0,0-.285-2.222,7.557,7.557,0,0,0-3.185-4.291,7.137,7.137,0,0,0-2.391-1.026,6.78,6.78,0,0,0-1.615-.205H228.1a3.014,3.014,0,0,0-.7.054,7.2,7.2,0,0,0-1.909.526,6.637,6.637,0,0,1,.955.526,7.6,7.6,0,0,1,3.176,4.443Z" transform="translate(-213.544 -213.71)" fill="#d53d33"/>
          <path id="Trazado_130432" data-name="Trazado 130432" d="M234.381,214.683l-.116,6.245a1.847,1.847,0,0,1-1.882,1.784l-8.538-.161a1.847,1.847,0,0,1-1.784-1.882l.116-6.245a1.847,1.847,0,0,1,1.882-1.784l8.538.161A1.838,1.838,0,0,1,234.381,214.683Z" transform="translate(-213.174 -212.64)" fill="#9d6c4e"/>
          <path id="Trazado_130433" data-name="Trazado 130433" d="M236.329,218.487l-.134,7.262a1.856,1.856,0,0,1-1.16,1.677,1.927,1.927,0,0,1-.723.125l-13.142-.241a1.5,1.5,0,0,1-.7-.152,1.838,1.838,0,0,1-1.115-1.722l.134-7.262a1.847,1.847,0,0,1,1.874-1.784l13.151.241A1.838,1.838,0,0,1,236.329,218.487Z" transform="translate(-212.883 -213.044)" fill="#c3d140"/>
          <path id="Trazado_130434" data-name="Trazado 130434" d="M236.329,218.089l-.134,7.262a1.856,1.856,0,0,1-1.16,1.677,7.672,7.672,0,0,1,.285,2.222l-.285,15.533-15.221-.285.285-15.524a7.236,7.236,0,0,1,.375-2.213,1.838,1.838,0,0,1-1.115-1.722l.134-7.262a1.847,1.847,0,0,1,1.874-1.784h.464v-1.508a1.847,1.847,0,0,1,1.882-1.784l8.538.161a1.838,1.838,0,0,1,1.784,1.865v1.508h.455a1.838,1.838,0,0,1,1.838,1.856Z" transform="translate(-212.883 -212.646)" fill="#4d4d4d"/>
          <path id="Trazado_130435" data-name="Trazado 130435" d="M230.209,217.973l-.134,7.262a1.847,1.847,0,0,1-1.151,1.686,7.949,7.949,0,0,1,.285,2.222l-.294,15.524-9.1-.17.285-15.524a7.236,7.236,0,0,1,.375-2.213,1.838,1.838,0,0,1-1.115-1.722l.134-7.262a1.847,1.847,0,0,1,1.874-1.784h.464v-1.508a1.847,1.847,0,0,1,1.883-1.784l2.409.045a1.838,1.838,0,0,1,1.784,1.874v1.508h.455a1.784,1.784,0,0,1,1.847,1.847Z" transform="translate(-212.883 -212.646)" fill="#333"/>
        </g>
        <path id="Trazado_130436" data-name="Trazado 130436" d="M233.9,213.855c0,1.285-2.6,2.284-5.746,2.23s-5.674-1.151-5.647-2.436,2.587-2.284,5.728-2.23S233.921,212.571,233.9,213.855Z" transform="translate(-213.222 -211.418)" fill="#4d4d4d"/>
      </g>
      <g id="Grupo_58683" data-name="Grupo 58683" transform="translate(256.545 205.282)">
        <g id="Grupo_58682" data-name="Grupo 58682" transform="translate(0 1.09)">
          <path id="Trazado_130437" data-name="Trazado 130437" d="M302.572,215.943l-.116,6.245a1.856,1.856,0,0,1-1.883,1.784l-8.529-.161a1.847,1.847,0,0,1-1.784-1.883l.116-6.245a1.847,1.847,0,0,1,1.874-1.784l8.538.152a1.847,1.847,0,0,1,1.784,1.891Z" transform="translate(-287.842 -213.9)" fill="#9d6c4e"/>
          <path id="Trazado_130438" data-name="Trazado 130438" d="M304.528,219.747,304.394,227a1.874,1.874,0,0,1-1.169,1.686,1.909,1.909,0,0,1-.714.125l-13.151-.241a1.686,1.686,0,0,1-.7-.152,1.874,1.874,0,0,1-1.115-1.731l.134-7.253a1.838,1.838,0,0,1,1.883-1.784l13.151.241A1.838,1.838,0,0,1,304.528,219.747Z" transform="translate(-287.55 -214.304)" fill="#c3d140"/>
          <path id="Trazado_130439" data-name="Trazado 130439" d="M304.528,219.349l-.134,7.253a1.874,1.874,0,0,1-1.169,1.686,7.672,7.672,0,0,1,.294,2.222l-.285,15.533L288,245.757l.285-15.524a7.521,7.521,0,0,1,.375-2.213,1.874,1.874,0,0,1-1.115-1.731l.134-7.253a1.838,1.838,0,0,1,1.883-1.784h.464v-1.508a1.847,1.847,0,0,1,1.874-1.784l8.538.152a1.847,1.847,0,0,1,1.784,1.874v1.508h.464a1.838,1.838,0,0,1,1.838,1.856Z" transform="translate(-287.55 -213.906)" fill="#4d4d4d"/>
          <path id="Trazado_130440" data-name="Trazado 130440" d="M298.4,219.233l-.134,7.262a1.856,1.856,0,0,1-1.151,1.686,7.566,7.566,0,0,1,.285,2.213l-.285,15.533-9.109-.17.285-15.524a7.519,7.519,0,0,1,.375-2.213,1.874,1.874,0,0,1-1.115-1.731l.134-7.253a1.838,1.838,0,0,1,1.883-1.784h.464v-1.508a1.847,1.847,0,0,1,1.874-1.784l2.418.045a1.829,1.829,0,0,1,1.784,1.874v1.5h.455a1.784,1.784,0,0,1,1.838,1.856Z" transform="translate(-287.55 -213.906)" fill="#333"/>
        </g>
        <path id="Trazado_130441" data-name="Trazado 130441" d="M302.093,215.115c0,1.285-2.605,2.284-5.737,2.23s-5.683-1.151-5.656-2.436,2.6-2.284,5.737-2.23S302.12,213.857,302.093,215.115Z" transform="translate(-287.89 -212.678)" fill="#4d4d4d"/>
      </g>
      <path id="Trazado_130442" data-name="Trazado 130442" d="M289.579,265.917l-160.369-1.4.651-26.257,174.215,3.212Z" transform="translate(-13.932 -10.154)" fill="#bd8c6d"/>
      <path id="Trazado_130443" data-name="Trazado 130443" d="M192.811,342.552,160.71,397.9l2.516-136.681,32.109-55.342Z" transform="translate(-17.328 -6.662)" fill="#ad7c5e"/>
      <path id="Trazado_130444" data-name="Trazado 130444" d="M267.48,343.932l-32.1,55.342L237.9,262.6,270,207.26Z" transform="translate(-25.38 -6.811)" fill="#ad7c5e"/>
      <g id="Grupo_58685" data-name="Grupo 58685" transform="translate(107.418 219.655)">
        <g id="Grupo_58684" data-name="Grupo 58684" transform="translate(0 1.108)">
          <path id="Trazado_130445" data-name="Trazado 130445" d="M148.5,268.548l.384-20.814a7.664,7.664,0,0,0-3.471-6.522,7.387,7.387,0,0,0-2.391-1.017,6.906,6.906,0,0,0-1.615-.205,4.029,4.029,0,0,0-.464,0,3.743,3.743,0,0,0-.7.045,7.217,7.217,0,0,0-1.909.535,6.618,6.618,0,0,0-.972.491,7.637,7.637,0,0,0-3.328,4.184,7.138,7.138,0,0,0-.366,2.2l-.393,20.814Z" transform="translate(-121.788 -231.103)" fill="#b51f18"/>
          <path id="Trazado_130446" data-name="Trazado 130446" d="M120.4,411.51a13.2,13.2,0,0,0,11.143,6.54l11.063.205a13.186,13.186,0,0,0,11.384-6.129Z" transform="translate(-120.4 -249.598)" fill="#b51f18"/>
          <path id="Trazado_130447" data-name="Trazado 130447" d="M143.124,245.489a7.655,7.655,0,0,1,.25,2.088l-.384,20.806,6.12.116.384-20.814a7.664,7.664,0,0,0-3.471-6.522,7.387,7.387,0,0,0-2.391-1.017,6.9,6.9,0,0,0-1.615-.205,4.015,4.015,0,0,0-.464,0,3.745,3.745,0,0,0-.7.045,7.218,7.218,0,0,0-1.909.535,7.139,7.139,0,0,1,.964.526A7.548,7.548,0,0,1,143.124,245.489Z" transform="translate(-122.399 -231.097)" fill="#d53d33"/>
          <path id="Trazado_130448" data-name="Trazado 130448" d="M149.814,412.07A13.16,13.16,0,0,1,138.43,418.2l6.12.116a13.186,13.186,0,0,0,11.384-6.129Z" transform="translate(-122.344 -249.658)" fill="#d53d33"/>
          <path id="Trazado_130449" data-name="Trazado 130449" d="M147.892,232.064l-.116,6.245a1.847,1.847,0,0,1-1.882,1.784l-8.529-.161a1.847,1.847,0,0,1-1.784-1.874l.116-6.245a1.856,1.856,0,0,1,1.882-1.784l8.529.161A1.847,1.847,0,0,1,147.892,232.064Z" transform="translate(-122.037 -230.03)" fill="#9d6c4e"/>
          <path id="Trazado_130450" data-name="Trazado 130450" d="M149.848,235.857l-.143,7.253a1.874,1.874,0,0,1-1.16,1.7,2.106,2.106,0,0,1-.714.116l-13.142-.241a1.784,1.784,0,0,1-.7-.143,1.891,1.891,0,0,1-1.115-1.731l.134-7.262a1.847,1.847,0,0,1,1.882-1.784l13.142.241a1.838,1.838,0,0,1,1.82,1.856Z" transform="translate(-121.745 -230.432)" fill="#c3d140"/>
          <path id="Trazado_130451" data-name="Trazado 130451" d="M149.848,235.457l-.143,7.253a1.874,1.874,0,0,1-1.16,1.7,7.573,7.573,0,0,1,.294,2.213l-.294,15.506-15.212-.277.286-15.533a7.137,7.137,0,0,1,.366-2.2,1.891,1.891,0,0,1-1.115-1.731l.134-7.262a1.847,1.847,0,0,1,1.882-1.784h.464v-1.5a1.856,1.856,0,0,1,1.882-1.784l8.529.161a1.847,1.847,0,0,1,1.784,1.883v1.5H148a1.838,1.838,0,0,1,1.847,1.865Z" transform="translate(-121.745 -230.032)" fill="#4d4d4d"/>
          <path id="Trazado_130452" data-name="Trazado 130452" d="M143.737,235.363l-.134,7.253a1.891,1.891,0,0,1-1.169,1.686,7.628,7.628,0,0,1,.286,2.222l-.286,15.533-9.1-.169.286-15.533a7.137,7.137,0,0,1,.366-2.2,1.891,1.891,0,0,1-1.115-1.731l.134-7.262a1.847,1.847,0,0,1,1.882-1.784h.464v-1.5a1.856,1.856,0,0,1,1.882-1.784h2.418a1.838,1.838,0,0,1,1.784,1.883v1.508h.473a1.838,1.838,0,0,1,1.829,1.882Z" transform="translate(-121.745 -230.036)" fill="#333"/>
        </g>
        <path id="Trazado_130453" data-name="Trazado 130453" d="M147.413,231.225c0,1.285-2.6,2.284-5.737,2.23s-5.683-1.151-5.656-2.436,2.6-2.284,5.737-2.23S147.44,229.941,147.413,231.225Z" transform="translate(-122.084 -228.788)" fill="#4d4d4d"/>
      </g>
      <rect id="Rectángulo_32898" data-name="Rectángulo 32898" width="24.678" height="38.319" transform="translate(169.506 253.981) rotate(-88.94)" fill="#bd8c6d"/>
      <rect id="Rectángulo_32899" data-name="Rectángulo 32899" width="24.508" height="25.026" transform="translate(235.592 255.189) rotate(-88.94)" fill="#bd8c6d"/>
      <g id="Grupo_58687" data-name="Grupo 58687" transform="translate(228.531 221.876)">
        <g id="Grupo_58686" data-name="Grupo 58686" transform="translate(0 1.118)">
          <path id="Trazado_130454" data-name="Trazado 130454" d="M256.15,414a13.177,13.177,0,0,0,11.152,6.54l11.054.205a13.213,13.213,0,0,0,11.393-6.12Z" transform="translate(-256.15 -252.097)" fill="#b51f18"/>
          <path id="Trazado_130455" data-name="Trazado 130455" d="M284.247,271l.384-20.814a7.316,7.316,0,0,0-.285-2.213,7.5,7.5,0,0,0-3.185-4.3,7.138,7.138,0,0,0-2.391-1.026,6.824,6.824,0,0,0-1.606-.205h-.473a6.1,6.1,0,0,0-.7.054,7.2,7.2,0,0,0-1.909.526,6.248,6.248,0,0,0-.972.491,7.628,7.628,0,0,0-3.328,4.184,7.457,7.457,0,0,0-.375,2.2L269,270.722Z" transform="translate(-257.536 -233.598)" fill="#b51f18"/>
          <path id="Trazado_130456" data-name="Trazado 130456" d="M285.624,414.58a13.2,13.2,0,0,1-11.384,6.129l6.111.107a13.213,13.213,0,0,0,11.393-6.12Z" transform="translate(-258.101 -252.159)" fill="#d53d33"/>
          <path id="Trazado_130457" data-name="Trazado 130457" d="M278.884,247.989a8.03,8.03,0,0,1,.25,2.088l-.384,20.814,6.111.107.384-20.814a7.317,7.317,0,0,0-.285-2.213,7.5,7.5,0,0,0-3.185-4.3,7.138,7.138,0,0,0-2.391-1.026,6.824,6.824,0,0,0-1.606-.205h-.473a6.1,6.1,0,0,0-.7.053,7.2,7.2,0,0,0-1.909.526,8.435,8.435,0,0,1,.964.526,7.575,7.575,0,0,1,3.221,4.443Z" transform="translate(-258.15 -233.598)" fill="#d53d33"/>
          <path id="Trazado_130458" data-name="Trazado 130458" d="M283.652,234.564l-.116,6.245a1.847,1.847,0,0,1-1.874,1.784l-8.538-.161a1.847,1.847,0,0,1-1.784-1.874l.116-6.245a1.847,1.847,0,0,1,1.874-1.784l8.538.152A1.847,1.847,0,0,1,283.652,234.564Z" transform="translate(-257.788 -232.53)" fill="#9d6c4e"/>
          <path id="Trazado_130459" data-name="Trazado 130459" d="M285.608,238.367l-.134,7.253a1.891,1.891,0,0,1-1.169,1.686,2.15,2.15,0,0,1-.723.116l-13.133-.241a1.66,1.66,0,0,1-.7-.143,1.865,1.865,0,0,1-1.115-1.731l.134-7.253a1.847,1.847,0,0,1,1.883-1.784l13.142.25A1.838,1.838,0,0,1,285.608,238.367Z" transform="translate(-257.496 -232.933)" fill="#c3d140"/>
          <path id="Trazado_130460" data-name="Trazado 130460" d="M285.608,237.969l-.134,7.253a1.891,1.891,0,0,1-1.169,1.686,7.315,7.315,0,0,1,.286,2.213l-.286,15.542-15.22-.286.285-15.533a7.458,7.458,0,0,1,.375-2.2,1.865,1.865,0,0,1-1.115-1.731l.134-7.253a1.847,1.847,0,0,1,1.883-1.784h.464v-1.508a1.847,1.847,0,0,1,1.874-1.784l8.538.152a1.847,1.847,0,0,1,1.784,1.882v1.508h.455a1.838,1.838,0,0,1,1.847,1.847Z" transform="translate(-257.496 -232.535)" fill="#4d4d4d"/>
          <path id="Trazado_130461" data-name="Trazado 130461" d="M279.488,237.853l-.134,7.253a1.856,1.856,0,0,1-1.16,1.686,7.341,7.341,0,0,1,.286,2.222l-.285,15.533-9.109-.169.285-15.533a7.458,7.458,0,0,1,.375-2.2,1.865,1.865,0,0,1-1.115-1.731l.134-7.253a1.847,1.847,0,0,1,1.883-1.784h.464v-1.508a1.847,1.847,0,0,1,1.874-1.784l2.418.045a1.838,1.838,0,0,1,1.784,1.874v1.508h.464a1.784,1.784,0,0,1,1.838,1.847Z" transform="translate(-257.496 -232.535)" fill="#333"/>
        </g>
        <path id="Trazado_130462" data-name="Trazado 130462" d="M283.164,233.706c0,1.285-2.587,2.293-5.737,2.23s-5.674-1.151-5.647-2.436,2.6-2.284,5.737-2.222S283.191,232.439,283.164,233.706Z" transform="translate(-257.835 -231.277)" fill="#4d4d4d"/>
      </g>
      <g id="Grupo_58689" data-name="Grupo 58689" transform="translate(167.435 220.762)">
        <g id="Grupo_58688" data-name="Grupo 58688" transform="translate(0 1.108)">
          <path id="Trazado_130463" data-name="Trazado 130463" d="M215.761,269.739l.384-20.814a7.316,7.316,0,0,0-.286-2.213,7.575,7.575,0,0,0-3.176-4.309,7.308,7.308,0,0,0-2.391-1.017,6.843,6.843,0,0,0-1.615-.205h-.464l-.7.054a7.058,7.058,0,0,0-1.9.535,6.3,6.3,0,0,0-.981.491,7.557,7.557,0,0,0-3.328,4.184,7.459,7.459,0,0,0-.375,2.2l-.384,20.814Z" transform="translate(-189.058 -232.338)" fill="#b51f18"/>
          <path id="Trazado_130464" data-name="Trazado 130464" d="M187.67,412.75a13.186,13.186,0,0,0,11.143,6.54l11.063.205a13.186,13.186,0,0,0,11.384-6.129Z" transform="translate(-187.67 -250.838)" fill="#b51f18"/>
          <path id="Trazado_130465" data-name="Trazado 130465" d="M210.4,246.729a7.324,7.324,0,0,1,.25,2.088l-.384,20.806,6.111.116.384-20.814a7.316,7.316,0,0,0-.286-2.213,7.575,7.575,0,0,0-3.176-4.309,7.308,7.308,0,0,0-2.391-1.017,6.843,6.843,0,0,0-1.615-.205h-.464l-.7.054a7.058,7.058,0,0,0-1.9.535,8.313,8.313,0,0,1,.955.526,7.583,7.583,0,0,1,3.221,4.434Z" transform="translate(-189.67 -232.338)" fill="#d53d33"/>
          <path id="Trazado_130466" data-name="Trazado 130466" d="M217.085,413.32a13.16,13.16,0,0,1-11.375,6.12l6.111.116a13.187,13.187,0,0,0,11.384-6.129Z" transform="translate(-189.615 -250.899)" fill="#d53d33"/>
          <path id="Trazado_130467" data-name="Trazado 130467" d="M215.163,233.3l-.107,6.245a1.856,1.856,0,0,1-1.882,1.784l-8.529-.161a1.847,1.847,0,0,1-1.784-1.874l.116-6.245a1.856,1.856,0,0,1,1.882-1.784l8.529.161a1.838,1.838,0,0,1,1.775,1.874Z" transform="translate(-189.308 -231.27)" fill="#9d6c4e"/>
          <path id="Trazado_130468" data-name="Trazado 130468" d="M217.119,237.1l-.134,7.253a1.9,1.9,0,0,1-1.169,1.7,2.105,2.105,0,0,1-.714.116l-13.142-.241a1.838,1.838,0,0,1-.7-.143,1.865,1.865,0,0,1-1.106-1.731l.134-7.253a1.838,1.838,0,0,1,1.882-1.784l13.133.241A1.847,1.847,0,0,1,217.119,237.1Z" transform="translate(-189.016 -231.673)" fill="#c3d140"/>
          <path id="Trazado_130469" data-name="Trazado 130469" d="M217.119,236.705l-.134,7.253a1.9,1.9,0,0,1-1.169,1.7,7.316,7.316,0,0,1,.286,2.213l-.286,15.533-15.221-.241.285-15.533a7.459,7.459,0,0,1,.375-2.2,1.865,1.865,0,0,1-1.106-1.731l.134-7.253a1.838,1.838,0,0,1,1.882-1.784h.455v-1.5a1.856,1.856,0,0,1,1.882-1.784l8.529.161a1.838,1.838,0,0,1,1.784,1.883v1.5h.446A1.847,1.847,0,0,1,217.119,236.705Z" transform="translate(-189.016 -231.281)" fill="#4d4d4d"/>
          <path id="Trazado_130470" data-name="Trazado 130470" d="M211,236.6l-.134,7.253a1.874,1.874,0,0,1-1.151,1.686,7.941,7.941,0,0,1,.277,2.222l-.286,15.533-9.109-.134.285-15.533a7.459,7.459,0,0,1,.375-2.2,1.865,1.865,0,0,1-1.106-1.731l.134-7.253a1.838,1.838,0,0,1,1.882-1.784h.455v-1.5a1.856,1.856,0,0,1,1.882-1.784l2.409.045A1.847,1.847,0,0,1,208.7,233.3V234.8h.464A1.784,1.784,0,0,1,211,236.6Z" transform="translate(-189.016 -231.281)" fill="#333"/>
        </g>
        <path id="Trazado_130471" data-name="Trazado 130471" d="M214.675,232.465c0,1.285-2.587,2.284-5.728,2.23s-5.674-1.151-5.647-2.436,2.587-2.284,5.728-2.23S214.7,231.181,214.675,232.465Z" transform="translate(-189.355 -230.028)" fill="#4d4d4d"/>
      </g>
      <rect id="Rectángulo_32900" data-name="Rectángulo 32900" width="136.699" height="191.622" transform="translate(81.595 390.117) rotate(-88.94)" fill="#bd8c6d"/>
      <path id="Trazado_130472" data-name="Trazado 130472" d="M262.265,365.921a4.149,4.149,0,0,1-4.22,4.068L128.608,367.6a4.14,4.14,0,0,1-4.068-4.22l.33-18.12a4.158,4.158,0,0,1,4.22-4.068l129.446,2.391a4.131,4.131,0,0,1,4.068,4.211Z" transform="translate(-13.428 -21.252)" fill="#e9b899"/>
      <path id="Trazado_130473" data-name="Trazado 130473" d="M239.929,352.678c-.464,24.874-20.19,44.689-44.074,44.252s-42.824-20.966-42.4-45.84,20.181-44.7,44.056-44.261S240.384,327.8,239.929,352.678Z" transform="translate(-16.546 -17.546)" fill="#e9b899"/>
      <g id="Grupo_58693" data-name="Grupo 58693" transform="translate(154.006 293.191)">
        <path id="Trazado_130474" data-name="Trazado 130474" d="M216,389.2a8.225,8.225,0,0,1-3.569-.892,10.117,10.117,0,0,1-4.461-13.579.669.669,0,1,1,1.2.6,8.788,8.788,0,0,0,3.881,11.795,6.923,6.923,0,0,0,9.261-3.06,5.353,5.353,0,0,0-2.382-7.209,4.149,4.149,0,0,0-5.6,1.838,3.167,3.167,0,0,0-.2,2.48,3.123,3.123,0,0,0,1.606,1.856,2.373,2.373,0,0,0,1.847.143,2.32,2.32,0,0,0,1.41-1.213,1.784,1.784,0,0,0-.8-2.427,1.32,1.32,0,0,0-1.784.58.664.664,0,1,1-1.187-.6,2.676,2.676,0,0,1,3.569-1.169,3.14,3.14,0,0,1,1.392,4.211,3.783,3.783,0,0,1-5.059,1.677,4.612,4.612,0,0,1-2-6.138,5.514,5.514,0,0,1,7.387-2.436,6.745,6.745,0,0,1,3.355,3.9,6.6,6.6,0,0,1-.393,5.121A8.2,8.2,0,0,1,216,389.2Z" transform="translate(-176.313 -318.016)" fill="#97922a"/>
        <path id="Trazado_130475" data-name="Trazado 130475" d="M206.233,398.056a5.068,5.068,0,0,1-4.809-3.8,4.175,4.175,0,0,1,3.007-5.068,3.479,3.479,0,0,1,4.229,2.5,2.917,2.917,0,0,1-2.1,3.569.66.66,0,0,1-.8-.491.651.651,0,0,1,.473-.8,1.651,1.651,0,0,0,.964-.732,1.561,1.561,0,0,0,.17-1.2,2.07,2.07,0,0,0-.981-1.3,2.106,2.106,0,0,0-1.624-.232,2.775,2.775,0,0,0-1.731,1.3,2.837,2.837,0,0,0-.312,2.15,3.729,3.729,0,0,0,4.523,2.677,4.818,4.818,0,0,0,3.462-5.862,6.307,6.307,0,0,0-1.258-2.453.66.66,0,0,1,.071-.892.678.678,0,0,1,.946.071,7.54,7.54,0,0,1,1.535,2.98,6.147,6.147,0,0,1-4.461,7.477A4.62,4.62,0,0,1,206.233,398.056Z" transform="translate(-175.71 -319.41)" fill="#97922a"/>
        <g id="Grupo_58690" data-name="Grupo 58690" transform="translate(10.958)">
          <path id="Trazado_130476" data-name="Trazado 130476" d="M221.256,324.093l2.507,1.624-1.954,1.954,9.216,10.117-3.569,1.784,3.569,8.993-4.461-1.624,4.541,10.6-1.16-.491-9.421-4.1,1.615,4.505-8.984-3.631-1.784,3.569-10.055-9.252-1.945,1.954-1.624-2.516-5.621,7.735-2.052-12.49-5.175,2.98a21.823,21.823,0,0,0,1.731-10.554c-.393-6.495,11.491-10.893,11.491-10.893s.045-.1.116-.3c.749-1.856,4.943-11.527,10.813-11.161a21.831,21.831,0,0,0,10.563-1.686l-3.024,5.166,12.49,2.1Z" transform="translate(-184.9 -311.21)" fill="#97922a"/>
          <path id="Trazado_130477" data-name="Trazado 130477" d="M198.211,325.6l31.753,32.948-9.421-4.1,1.615,4.505-8.984-3.631-1.784,3.569-10.055-9.252-1.945,1.954-1.624-2.516-5.639,7.789-2.052-12.49-5.175,2.98a21.823,21.823,0,0,0,1.731-10.554c-.393-6.495,11.491-10.893,11.491-10.893A2.153,2.153,0,0,1,198.211,325.6Z" transform="translate(-184.9 -312.762)" fill="#8f871c"/>
        </g>
        <path id="Trazado_130478" data-name="Trazado 130478" d="M200.684,344.208a1.294,1.294,0,0,1-1.338,1.276h0a1.3,1.3,0,0,1-1.276-1.329l.321-17.389a1.294,1.294,0,0,1,1.329-1.276h0a1.294,1.294,0,0,1,1.285,1.32Z" transform="translate(-175.362 -312.75)" fill="#8d5c3e"/>
        <g id="Grupo_58692" data-name="Grupo 58692" transform="translate(0 21.331)">
          <path id="Trazado_130479" data-name="Trazado 130479" d="M197.006,344.773c-.1,5.237-3.649,9.43-7.931,9.359s-7.664-4.407-7.575-9.653,3.649-9.439,7.931-9.359S197.113,339.518,197.006,344.773Z" transform="translate(-173.576 -335.119)" fill="#d53d33"/>
          <path id="Trazado_130480" data-name="Trazado 130480" d="M215.5,345.113c-.1,5.237-3.649,9.43-7.923,9.35s-7.673-4.4-7.575-9.635,3.64-9.448,7.931-9.368S215.595,339.858,215.5,345.113Z" transform="translate(-175.57 -335.155)" fill="#d53d33"/>
          <path id="Trazado_130481" data-name="Trazado 130481" d="M188.126,353.954c-.1,5.246-3.649,9.439-7.931,9.359s-7.664-4.4-7.575-9.653,3.649-9.43,7.931-9.35S188.242,348.708,188.126,353.954Z" transform="translate(-172.618 -336.11)" fill="#b51f18"/>
          <path id="Trazado_130482" data-name="Trazado 130482" d="M206.645,354.294c-.1,5.246-3.649,9.439-7.931,9.359s-7.682-4.4-7.583-9.644,3.649-9.439,7.931-9.359S206.743,349.048,206.645,354.294Z" transform="translate(-174.614 -336.146)" fill="#b51f18"/>
          <path id="Trazado_130483" data-name="Trazado 130483" d="M224.866,354.625c-.1,5.246-3.64,9.448-7.931,9.359s-7.664-4.4-7.575-9.644,3.649-9.43,7.931-9.35S224.964,349.379,224.866,354.625Z" transform="translate(-176.58 -336.183)" fill="#b51f18"/>
          <path id="Trazado_130484" data-name="Trazado 130484" d="M196.586,367.745c-.1,5.246-3.649,9.448-7.931,9.368s-7.673-4.407-7.575-9.653,3.64-9.448,7.958-9.35S196.684,362.473,196.586,367.745Z" transform="translate(-173.53 -337.598)" fill="#d53d33"/>
          <path id="Trazado_130485" data-name="Trazado 130485" d="M215.926,368.1c-.1,5.246-3.649,9.448-7.923,9.368s-7.682-4.407-7.583-9.653,3.64-9.43,7.931-9.359S216.024,362.858,215.926,368.1Z" transform="translate(-175.616 -337.635)" fill="#d53d33"/>
          <g id="Grupo_58691" data-name="Grupo 58691" transform="translate(15.952 32.832)">
            <path id="Trazado_130486" data-name="Trazado 130486" d="M206.006,381.564c-.1,5.246-3.649,9.448-7.931,9.359s-7.673-4.4-7.575-9.644,3.649-9.439,7.923-9.359S206.113,376.327,206.006,381.564Z" transform="translate(-190.498 -371.919)" fill="#f55d51"/>
            <path id="Trazado_130487" data-name="Trazado 130487" d="M203.971,377.895c0,1.7-.794,3.069-1.713,3.042s-1.615-1.4-1.588-3.1.8-3.051,1.7-3.042S204,376.191,203.971,377.895Z" transform="translate(-191.594 -372.228)" fill="#fff"/>
          </g>
          <path id="Trazado_130488" data-name="Trazado 130488" d="M194.27,363.965c0,1.7-.8,3.06-1.713,3.042s-1.624-1.4-1.6-3.1.8-3.06,1.713-3.042S194.3,362.261,194.27,363.965Z" transform="translate(-174.596 -337.894)" fill="#fff"/>
          <path id="Trazado_130489" data-name="Trazado 130489" d="M213.312,364.315c0,1.7-.794,3.06-1.7,3.042s-1.624-1.4-1.588-3.1.794-3.06,1.7-3.042S213.348,362.62,213.312,364.315Z" transform="translate(-176.651 -337.932)" fill="#fff"/>
          <path id="Trazado_130490" data-name="Trazado 130490" d="M222.6,351.895c0,1.7-.8,3.06-1.713,3.051s-1.624-1.41-1.6-3.1.8-3.069,1.7-3.051S222.645,350.2,222.6,351.895Z" transform="translate(-177.65 -336.593)" fill="#fff"/>
          <path id="Trazado_130491" data-name="Trazado 130491" d="M204.032,351.555c0,1.7-.794,3.06-1.7,3.042s-1.633-1.4-1.6-3.1.794-3.069,1.7-3.051S204.068,349.833,204.032,351.555Z" transform="translate(-175.65 -336.556)" fill="#fff"/>
          <path id="Trazado_130492" data-name="Trazado 130492" d="M185.742,350.285c0,1.7-.794,3.06-1.7,3.042s-1.624-1.4-1.588-3.1.794-3.06,1.7-3.042S185.769,348.581,185.742,350.285Z" transform="translate(-173.678 -336.419)" fill="#fff"/>
          <path id="Trazado_130493" data-name="Trazado 130493" d="M193.7,340.7c0,1.7-.8,3.069-1.713,3.051s-1.624-1.41-1.588-3.1.785-3.069,1.7-3.051S193.728,339.01,193.7,340.7Z" transform="translate(-174.535 -335.386)" fill="#fff"/>
          <path id="Trazado_130494" data-name="Trazado 130494" d="M212.922,341.065c0,1.7-.794,3.069-1.7,3.051S209.594,342.7,209.63,341s.785-3.06,1.7-3.042S212.958,339.361,212.922,341.065Z" transform="translate(-176.609 -335.425)" fill="#fff"/>
        </g>
      </g>
      <path id="Trazado_130495" data-name="Trazado 130495" d="M260.821,323,70.27,319.486,91.986,265.5l190.542,3.515Z" transform="translate(-7.577 -13.091)" fill="#d3a283"/>
    </g>
  </g>
</svg>
