<svg xmlns="http://www.w3.org/2000/svg" width="445.095" height="282.89" viewBox="0 0 445.095 282.89">
  <g id="fragil-01" transform="translate(-22.06 -19.96)">
    <ellipse id="Elipse_4287" data-name="Elipse 4287" cx="222.547" cy="101.953" rx="222.547" ry="101.953" transform="translate(22.06 98.943)" fill="#f2f6fe"/>
    <rect id="Rectángulo_32880" data-name="Rectángulo 32880" width="230.721" height="203.99" transform="translate(90.016 19.96)" fill="#eeb483"/>
    <rect id="Rectángulo_32881" data-name="Rectángulo 32881" width="70.363" height="203.99" transform="translate(320.737 19.96)" fill="#d99965"/>
    <path id="Trazado_129915" data-name="Trazado 129915" d="M201.023,201.539H140.65V145.42h60.373Zm-58.36-2.006h56.354v-52.1H142.663Z" transform="translate(-28.837 -30.507)" fill="#5f3926"/>
    <path id="Trazado_129916" data-name="Trazado 129916" d="M285.463,201.539H225.09V145.42h60.373ZM227.1,199.534H283.45v-52.1H227.1Z" transform="translate(-49.37 -30.507)" fill="#5f3926"/>
    <path id="Trazado_129917" data-name="Trazado 129917" d="M368.5,201.539H308.13V145.42H368.5Zm-58.352-2.006H366.5v-52.1H310.143Z" transform="translate(-69.562 -30.507)" fill="#5f3926"/>
    <path id="Trazado_129918" data-name="Trazado 129918" d="M173.409,171.808l-8.552-12.268-8.537,12.268h5.222v13.933h6.63V171.808Z" transform="translate(-32.647 -33.941)" fill="#5f3926"/>
    <path id="Trazado_129919" data-name="Trazado 129919" d="M199.262,171.808l-8.537-12.268-8.545,12.268h5.23v13.933h6.63V171.808Z" transform="translate(-38.936 -33.941)" fill="#5f3926"/>
    <rect id="Rectángulo_32882" data-name="Rectángulo 32882" width="36.661" height="6.97" transform="translate(123.673 153.799)" fill="#5f3926"/>
    <rect id="Rectángulo_32883" data-name="Rectángulo 32883" width="2.271" height="12.056" transform="translate(204.768 142.249)" fill="#5f3926"/>
    <path id="Trazado_129920" data-name="Trazado 129920" d="M263.15,197.47h-2.1l-7.916,4.064h17.922Z" transform="translate(-56.188 -43.164)" fill="#5f3926"/>
    <path id="Trazado_129921" data-name="Trazado 129921" d="M263.527,157l-1.468,2.452h4.276l-7.2,12,.651-8.7h-2.6L259.463,157h-7.644v9.907a9.915,9.915,0,1,0,19.822,0V157Z" transform="translate(-55.868 -33.323)" fill="#5f3926"/>
    <path id="Trazado_129922" data-name="Trazado 129922" d="M356.358,172.294a14.3,14.3,0,0,0-27.458,0Z" transform="translate(-74.613 -34.54)" fill="#5f3926"/>
    <path id="Trazado_129923" data-name="Trazado 129923" d="M347.526,189.1a.757.757,0,0,1-1.476,0v-29.29a.757.757,0,0,1,1.476,0Z" transform="translate(-78.783 -33.864)" fill="#5f3926"/>
    <path id="Trazado_129924" data-name="Trazado 129924" d="M346.056,198.7h1.468v2.543s.038,1.68,1.256,1.763a1.514,1.514,0,0,0,1.9-1.635s0-.613.537-.666a.583.583,0,0,1,.651.613s.31,3.027-3.088,2.906a2.67,2.67,0,0,1-2.732-2.891Z" transform="translate(-78.782 -43.463)" fill="#5f3926"/>
    <rect id="Rectángulo_32884" data-name="Rectángulo 32884" width="25.982" height="78.983" transform="translate(342.928 19.96)" fill="#5f3926"/>
    <rect id="Rectángulo_32885" data-name="Rectángulo 32885" width="53.304" height="54.114" transform="translate(329.267 115.919)" fill="#eeb483"/>
  </g>
</svg>
