<svg xmlns="http://www.w3.org/2000/svg" width="93.696" height="93.696" viewBox="0 0 93.696 93.696">
  <g id="ebook" transform="translate(0.5 0.5)">
    <path id="Trazado_118135" data-name="Trazado 118135" d="M46.348,0A46.348,46.348,0,1,1,0,46.348,46.348,46.348,0,0,1,46.348,0Z" fill="#57dbd8" stroke="#1a0f91" stroke-width="1"/>
    <g id="Grupo_54592" data-name="Grupo 54592" transform="translate(17.518 21.139)">
      <g id="Grupo_54590" data-name="Grupo 54590">
        <g id="Grupo_54575" data-name="Grupo 54575" transform="translate(1.689 1.689)">
          <g id="Grupo_54574" data-name="Grupo 54574">
            <path id="Trazado_118128" data-name="Trazado 118128" d="M112.906,117.906v40.655h54.282V117.906Z" transform="translate(-112.906 -117.906)" fill="#dae9fa"/>
          </g>
        </g>
        <g id="Grupo_54578" data-name="Grupo 54578" transform="translate(20.384 49.214)">
          <g id="Grupo_54577" data-name="Grupo 54577">
            <rect id="Rect치ngulo_29499" data-name="Rect치ngulo 29499" width="16.893" height="6.757" fill="#cbcbf7"/>
          </g>
        </g>
        <g id="Grupo_54579" data-name="Grupo 54579">
          <path id="Trazado_118129" data-name="Trazado 118129" d="M104,109v44.034l4.122,3.491h49.62l3.919-3.491V109Zm54.282,40.655h-50.9V112.379h50.9Z" transform="translate(-104 -109)" fill="#3e5959"/>
        </g>
        <g id="Grupo_54584" data-name="Grupo 54584" transform="translate(0 44.034)">
          <g id="Grupo_54583" data-name="Grupo 54583">
            <path id="Trazado_118131" data-name="Trazado 118131" d="M104,341.156v6.87h57.661v-6.87Z" transform="translate(-104 -341.156)" fill="#ebebfc"/>
          </g>
        </g>
        <g id="Grupo_54588" data-name="Grupo 54588" transform="translate(17.005 54.282)">
          <g id="Grupo_54587" data-name="Grupo 54587" transform="translate(0 0)">
            <rect id="Rect치ngulo_29502" data-name="Rect치ngulo 29502" width="23.65" height="3.379" fill="#ebebfc"/>
          </g>
        </g>
      </g>
      <path id="Trazado_118132" data-name="Trazado 118132" d="M195.2,145.185v27.028h-3.514a30.951,30.951,0,0,0-15.068,3.581,31.086,31.086,0,0,0-16.116-3.581h-2.466V145.185h2.432a42.19,42.19,0,0,1,4.325.135l1.96,2.4,1.419-1.993a33.279,33.279,0,0,1,8.446,2.635,35.424,35.424,0,0,1,16.15-3.176H195.2Z" transform="translate(-147.783 -138.315)" fill="#ff8f8b"/>
      <path id="Trazado_118133" data-name="Trazado 118133" d="M271.068,172.214A30.951,30.951,0,0,0,256,175.795V148.361a35.424,35.424,0,0,1,16.15-3.176h2.432v27.028Z" transform="translate(-227.17 -138.316)" fill="#fe7062"/>
      <g id="Grupo_54591" data-name="Grupo 54591" transform="translate(17.005 7.005)">
        <path id="Trazado_118134" data-name="Trazado 118134" d="M197.035,146.336v9.6h-3.379v-10A26.863,26.863,0,0,1,197.035,146.336Z" transform="translate(-193.656 -145.931)" fill="#3e5959"/>
      </g>
    </g>
  </g>
</svg>
