<svg xmlns="http://www.w3.org/2000/svg" width="393.978" height="266.693" viewBox="0 0 393.978 266.693">
  <g id="img15" transform="translate(-180 -7055.103)">
    <g id="Image_Place_Holder" data-name="Image Place Holder" transform="translate(180 7055.103)">
      <rect id="Image_Place_Holder-2" data-name="Image Place Holder" width="393.978" height="266.693" rx="10" fill="#f2f6fe"/>
    </g>
    <g id="empaques-03" transform="translate(183.72 6951.694)">
      <g id="Grupo_58702" data-name="Grupo 58702" transform="translate(180.082 112.13)">
        <path id="Trazado_130533" data-name="Trazado 130533" d="M191.49,202.348V322.973a17.7,17.7,0,0,0,17.721,17.7h14.83a17.7,17.7,0,0,0,17.68-17.7V202.348a25.046,25.046,0,0,0-14.92-22.939v-42.7a9.865,9.865,0,0,0-.441-2.964A10.151,10.151,0,0,0,222,128.025a8.166,8.166,0,0,0-1.3-.686,10.346,10.346,0,0,0-2.548-.751c-.294,0-.612-.073-.931-.09s-.416,0-.629,0a9.383,9.383,0,0,0-2.156.237,9.751,9.751,0,0,0-3.267,1.315,10.11,10.11,0,0,0-4.361,5.716,9.694,9.694,0,0,0-.449,2.964v42.71a24.8,24.8,0,0,0-7.293,4.9c-.09.073-.18.163-.269.245a25.16,25.16,0,0,0-6.206,10.257,24.874,24.874,0,0,0-1.1,7.5Z" transform="translate(-191.489 -114.763)" fill="#b51f18"/>
        <path id="Trazado_130534" data-name="Trazado 130534" d="M191.49,202.353V322.978a17.7,17.7,0,0,0,17.721,17.7h8.166a17.7,17.7,0,0,1-17.713-17.7V202.353a25.038,25.038,0,0,1,7.35-17.77c.082-.082.163-.172.253-.245a25.054,25.054,0,0,1,7.3-4.9V136.712a10.42,10.42,0,0,1,.384-2.785,10.1,10.1,0,0,1,4.426-5.872,11.6,11.6,0,0,1,1.3-.686,10.347,10.347,0,0,0-2.548-.751c-.294,0-.612-.074-.931-.09s-.416,0-.629,0a9.384,9.384,0,0,0-2.156.237,9.751,9.751,0,0,0-3.267,1.315,10.11,10.11,0,0,0-4.361,5.716,9.694,9.694,0,0,0-.449,2.964v42.71a24.8,24.8,0,0,0-7.293,4.9c-.09.074-.18.163-.269.245a25.16,25.16,0,0,0-6.206,10.257,24.875,24.875,0,0,0-1.078,7.48Z" transform="translate(-191.489 -114.769)" fill="#d53d33"/>
        <path id="Trazado_130535" data-name="Trazado 130535" d="M212.24,114.58v8.346a2.45,2.45,0,0,0,2.45,2.45h11.433a2.45,2.45,0,0,0,2.45-2.45V114.58a2.45,2.45,0,0,0-2.45-2.45H214.69a2.45,2.45,0,0,0-2.45,2.45Z" transform="translate(-195.294 -112.13)" fill="#9d6c4e"/>
        <path id="Trazado_130536" data-name="Trazado 130536" d="M191.49,270.54v65.992h50.231V270.54Z" transform="translate(-191.489 -141.177)" fill="#f8f7f3"/>
        <path id="Trazado_130537" data-name="Trazado 130537" d="M208.45,120.08v9.734a2.507,2.507,0,0,0,1.519,2.295,2.875,2.875,0,0,0,.955.18h17.623a2.45,2.45,0,0,0,.947-.18,2.515,2.515,0,0,0,1.527-2.295V120.08a2.45,2.45,0,0,0-2.45-2.45H210.924a2.45,2.45,0,0,0-2.474,2.45Z" transform="translate(-194.599 -113.138)" fill="#c3d140"/>
        <g id="Grupo_58701" data-name="Grupo 58701" transform="translate(3.023 135.709)">
          <g id="Grupo_58699" data-name="Grupo 58699">
            <path id="Trazado_130538" data-name="Trazado 130538" d="M202.442,287.219l-1.748,1.086,1.323,1.364-6.533,6.843,2.45,1.266-2.6,6.174,3.12-1.07-3.267,7.26.817-.327,6.533-2.7-1.16,3.087,6.255-2.393,1.176,2.45L215.867,304l1.323,1.364,1.151-1.715,3.814,5.463,1.576-8.6,3.528,2.123a15.059,15.059,0,0,1-1.053-7.309c.359-4.475-7.8-7.668-7.8-7.668a.483.483,0,0,0-.082-.212c-.49-1.29-3.267-8.019-7.35-7.832a15.059,15.059,0,0,1-7.268-1.307l2.009,3.6-8.656,1.29Z" transform="translate(-195.19 -278.31)" fill="#97922a"/>
            <path id="Trazado_130539" data-name="Trazado 130539" d="M218.525,289.53,196.19,311.873l6.533-2.7-1.16,3.087,6.255-2.393,1.176,2.45,7.056-6.255,1.323,1.364,1.151-1.715,3.814,5.463,1.576-8.6,3.528,2.123a15.059,15.059,0,0,1-1.053-7.309c.359-4.475-7.8-7.668-7.8-7.668A1.072,1.072,0,0,0,218.525,289.53Z" transform="translate(-195.373 -280.367)" fill="#8f871c"/>
          </g>
          <path id="Trazado_130540" data-name="Trazado 130540" d="M222.38,302.351a.906.906,0,0,0,.9.906h0a.906.906,0,0,0,.906-.906v-12a.906.906,0,0,0-.906-.906h0a.906.906,0,0,0-.9.906Z" transform="translate(-200.176 -280.351)" fill="#8d5c3e"/>
          <g id="Grupo_58700" data-name="Grupo 58700" transform="translate(6.435 15.067)">
            <path id="Trazado_130541" data-name="Trazado 130541" d="M224.22,303.293c0,3.626,2.4,6.533,5.357,6.533s5.357-2.94,5.357-6.533-2.4-6.533-5.357-6.533S224.22,299.667,224.22,303.293Z" transform="translate(-206.948 -296.76)" fill="#d53d33"/>
            <path id="Trazado_130542" data-name="Trazado 130542" d="M210.27,303.293c0,3.626,2.4,6.533,5.357,6.533s5.349-2.94,5.349-6.533-2.393-6.533-5.349-6.533S210.27,299.667,210.27,303.293Z" transform="translate(-204.39 -296.76)" fill="#d53d33"/>
            <path id="Trazado_130543" data-name="Trazado 130543" d="M230.78,310.343c0,3.626,2.393,6.533,5.357,6.533s5.349-2.94,5.349-6.533-2.393-6.533-5.349-6.533S230.78,306.717,230.78,310.343Z" transform="translate(-208.151 -298.053)" fill="#b51f18"/>
            <path id="Trazado_130544" data-name="Trazado 130544" d="M216.83,310.343c0,3.626,2.4,6.533,5.349,6.533s5.357-2.94,5.357-6.533-2.4-6.533-5.357-6.533S216.83,306.717,216.83,310.343Z" transform="translate(-205.593 -298.053)" fill="#b51f18"/>
            <path id="Trazado_130545" data-name="Trazado 130545" d="M203.07,310.343c0,3.626,2.4,6.533,5.357,6.533s5.357-2.94,5.357-6.533-2.4-6.533-5.357-6.533S203.07,306.717,203.07,310.343Z" transform="translate(-203.07 -298.053)" fill="#b51f18"/>
            <path id="Trazado_130546" data-name="Trazado 130546" d="M224.22,320.633c0,3.626,2.4,6.533,5.357,6.533s5.357-2.932,5.357-6.533-2.4-6.533-5.357-6.533S224.22,317.007,224.22,320.633Z" transform="translate(-206.948 -299.94)" fill="#d53d33"/>
            <path id="Trazado_130547" data-name="Trazado 130547" d="M209.63,320.633c0,3.626,2.393,6.533,5.357,6.533s5.349-2.932,5.349-6.533-2.393-6.533-5.349-6.533S209.63,317.007,209.63,320.633Z" transform="translate(-204.273 -299.94)" fill="#d53d33"/>
            <path id="Trazado_130548" data-name="Trazado 130548" d="M216.83,330.783c0,3.626,2.4,6.533,5.349,6.533s5.357-2.94,5.357-6.533-2.4-6.533-5.357-6.533S216.83,327.157,216.83,330.783Z" transform="translate(-205.593 -301.801)" fill="#f55d51"/>
          </g>
        </g>
        <rect id="Rectángulo_32903" data-name="Rectángulo 32903" width="50.256" height="2.564" transform="translate(0.001 130.931)" fill="#666"/>
        <rect id="Rectángulo_32904" data-name="Rectángulo 32904" width="50.256" height="2.556" transform="translate(0.001 190.113)" fill="#666"/>
        <path id="Trazado_130549" data-name="Trazado 130549" d="M208.45,119.077v9.734a2.507,2.507,0,0,0,1.519,2.295,9.694,9.694,0,0,0-.449,2.964v20.824h20.416V134.079a9.864,9.864,0,0,0-.441-2.964,2.515,2.515,0,0,0,1.527-2.295v-9.742a2.45,2.45,0,0,0-2.45-2.45h-.621V114.61a2.45,2.45,0,0,0-2.45-2.45H214.068a2.45,2.45,0,0,0-2.45,2.45v2.017H211a2.45,2.45,0,0,0-2.548,2.45Z" transform="translate(-194.599 -112.135)" fill="#4d4d4d"/>
        <path id="Trazado_130550" data-name="Trazado 130550" d="M218.49,119.077v9.734a2.5,2.5,0,0,0,1.51,2.295,10.207,10.207,0,0,0-.432,2.965v20.824h12.209V134.079a9.865,9.865,0,0,0-.441-2.964,2.515,2.515,0,0,0,1.527-2.295v-9.742a2.45,2.45,0,0,0-2.45-2.45h-.621V114.61a2.45,2.45,0,0,0-2.45-2.45h-3.267a2.45,2.45,0,0,0-2.45,2.45v2.017h-.621a2.45,2.45,0,0,0-2.515,2.45Z" transform="translate(-196.44 -112.135)" fill="#333"/>
        <path id="Trazado_130551" data-name="Trazado 130551" d="M198.61,374.242c0,1.429,8.73,2.581,19.493,2.581s19.477-1.151,19.477-2.581-8.722-2.572-19.477-2.572S198.61,372.821,198.61,374.242Z" transform="translate(-192.794 -159.72)" fill="#850309"/>
        <path id="Trazado_130552" data-name="Trazado 130552" d="M198.61,228.111c0,1.421,8.73,2.581,19.493,2.581s19.477-1.16,19.477-2.581-8.722-2.581-19.477-2.581S198.61,226.73,198.61,228.111Z" transform="translate(-192.794 -132.923)" fill="#f55d51"/>
        <path id="Trazado_130553" data-name="Trazado 130553" d="M196.08,268.776a2.45,2.45,0,0,0,2.45,2.45h1.241a2.45,2.45,0,0,0,2.45-2.45V221.77a2.45,2.45,0,0,0-2.45-2.45H198.53a2.45,2.45,0,0,0-2.45,2.45Z" transform="translate(-192.331 -131.785)" fill="#fff"/>
      </g>
      <g id="Grupo_58706" data-name="Grupo 58706" transform="translate(129.28 112.13)">
        <path id="Trazado_130554" data-name="Trazado 130554" d="M129.3,202.348V322.973a17.713,17.713,0,0,0,17.721,17.7h14.83a17.7,17.7,0,0,0,17.7-17.7V202.348a24.981,24.981,0,0,0-8.518-18.856,25.315,25.315,0,0,0-6.4-4.083v-42.7a9.62,9.62,0,0,0-.449-2.964,10.118,10.118,0,0,0-4.345-5.716,8.657,8.657,0,0,0-1.307-.686,10.5,10.5,0,0,0-2.54-.751c-.3,0-.629-.073-.939-.09s-.416,0-.629,0a9.449,9.449,0,0,0-2.164.237,9.734,9.734,0,0,0-3.226,1.315,10.143,10.143,0,0,0-4.377,5.716,9.946,9.946,0,0,0-.441,2.964v42.71a24.907,24.907,0,0,0-7.293,4.9c-.09.074-.18.163-.261.245a25.136,25.136,0,0,0-7.35,17.77Z" transform="translate(-129.284 -114.763)" fill="#b51f18"/>
        <path id="Trazado_130555" data-name="Trazado 130555" d="M129.3,202.353V322.978a17.713,17.713,0,0,0,17.721,17.7h8.166a17.7,17.7,0,0,1-17.713-17.7V202.353a24.629,24.629,0,0,1,1.151-7.513,25.071,25.071,0,0,1,6.206-10.257c.09-.082.172-.171.261-.245a24.842,24.842,0,0,1,7.3-4.9V136.712a10.421,10.421,0,0,1,.376-2.785,10.216,10.216,0,0,1,4.434-5.872,12.357,12.357,0,0,1,1.3-.686,10.5,10.5,0,0,0-2.54-.751c-.3,0-.629-.074-.939-.09s-.416,0-.629,0a9.449,9.449,0,0,0-2.164.237A9.734,9.734,0,0,0,149,128.08a10.143,10.143,0,0,0-4.377,5.716,9.948,9.948,0,0,0-.441,2.964v42.71a24.907,24.907,0,0,0-7.293,4.9c-.09.074-.18.163-.261.245a25.136,25.136,0,0,0-7.35,17.77Z" transform="translate(-129.28 -114.769)" fill="#d53d33"/>
        <path id="Trazado_130556" data-name="Trazado 130556" d="M150,114.58v8.346a2.45,2.45,0,0,0,2.45,2.45h11.433a2.45,2.45,0,0,0,2.45-2.45V114.58a2.45,2.45,0,0,0-2.45-2.45H152.45a2.45,2.45,0,0,0-2.45,2.45Z" transform="translate(-133.079 -112.13)" fill="#9d6c4e"/>
        <path id="Trazado_130557" data-name="Trazado 130557" d="M129.3,270.54v65.992h50.256V270.54Z" transform="translate(-129.284 -141.177)" fill="#f8f7f3"/>
        <path id="Trazado_130558" data-name="Trazado 130558" d="M146.26,120.08v9.734a2.507,2.507,0,0,0,1.511,2.295,2.915,2.915,0,0,0,.955.18h17.631a2.4,2.4,0,0,0,.939-.18,2.507,2.507,0,0,0,1.543-2.295V120.08a2.45,2.45,0,0,0-2.45-2.45H148.726a2.45,2.45,0,0,0-2.466,2.45Z" transform="translate(-132.394 -113.138)" fill="#c3d140"/>
        <g id="Grupo_58705" data-name="Grupo 58705" transform="translate(3.038 135.733)">
          <g id="Grupo_58703" data-name="Grupo 58703">
            <path id="Trazado_130559" data-name="Trazado 130559" d="M140.252,287.225l-1.748,1.086,1.323,1.364-6.533,6.843,2.45,1.266-2.6,6.174,3.12-1.07L133,310.148l.817-.327,6.533-2.7-1.151,3.087,6.239-2.393,1.184,2.45,7.056-6.255L155,305.371l1.151-1.715,3.814,5.463,1.617-8.575,3.528,2.123a15.059,15.059,0,0,1-1.053-7.309c.359-4.475-7.8-7.668-7.8-7.668l-.073-.212c-.49-1.29-3.267-8.019-7.35-7.832a15.1,15.1,0,0,1-7.268-1.307l2.009,3.6-8.656,1.29Z" transform="translate(-133 -278.34)" fill="#97922a"/>
            <path id="Trazado_130560" data-name="Trazado 130560" d="M156.343,289.53,134,311.873l6.533-2.7-1.151,3.087,6.239-2.393,1.184,2.45,7.056-6.255,1.323,1.364,1.151-1.715,3.814,5.463,1.617-8.575,3.528,2.123a15.059,15.059,0,0,1-1.053-7.309c.359-4.475-7.8-7.668-7.8-7.668Z" transform="translate(-133.183 -280.392)" fill="#8f871c"/>
          </g>
          <path id="Trazado_130561" data-name="Trazado 130561" d="M160.19,302.351a.906.906,0,0,0,.9.906h0a.906.906,0,0,0,.906-.906v-12a.906.906,0,0,0-.906-.906h0a.906.906,0,0,0-.9.906Z" transform="translate(-137.986 -280.375)" fill="#8d5c3e"/>
          <g id="Grupo_58704" data-name="Grupo 58704" transform="translate(6.435 15.042)">
            <path id="Trazado_130562" data-name="Trazado 130562" d="M162,303.293c0,3.626,2.393,6.533,5.349,6.533s5.357-2.94,5.357-6.533-2.4-6.533-5.357-6.533S162,299.667,162,303.293Z" transform="translate(-144.753 -296.76)" fill="#d53d33"/>
            <path id="Trazado_130563" data-name="Trazado 130563" d="M148.08,303.293c0,3.626,2.4,6.533,5.357,6.533s5.349-2.94,5.349-6.533-2.393-6.533-5.349-6.533S148.08,299.667,148.08,303.293Z" transform="translate(-142.2 -296.76)" fill="#d53d33"/>
            <path id="Trazado_130564" data-name="Trazado 130564" d="M168.59,310.343c0,3.626,2.4,6.533,5.357,6.533s5.349-2.94,5.349-6.533-2.393-6.533-5.349-6.533S168.59,306.717,168.59,310.343Z" transform="translate(-145.961 -298.053)" fill="#b51f18"/>
            <path id="Trazado_130565" data-name="Trazado 130565" d="M154.64,310.343c0,3.626,2.393,6.533,5.349,6.533s5.357-2.94,5.357-6.533-2.4-6.533-5.357-6.533S154.64,306.717,154.64,310.343Z" transform="translate(-143.403 -298.053)" fill="#b51f18"/>
            <path id="Trazado_130566" data-name="Trazado 130566" d="M140.88,310.343c0,3.626,2.4,6.533,5.357,6.533s5.357-2.94,5.357-6.533-2.4-6.533-5.357-6.533S140.88,306.717,140.88,310.343Z" transform="translate(-140.88 -298.053)" fill="#b51f18"/>
            <path id="Trazado_130567" data-name="Trazado 130567" d="M162,320.633c0,3.626,2.393,6.533,5.349,6.533s5.357-2.932,5.357-6.533-2.4-6.533-5.357-6.533S162,317.007,162,320.633Z" transform="translate(-144.753 -299.94)" fill="#d53d33"/>
            <path id="Trazado_130568" data-name="Trazado 130568" d="M147.44,320.633c0,3.626,2.4,6.533,5.357,6.533s5.349-2.932,5.349-6.533-2.393-6.533-5.349-6.533S147.44,317.007,147.44,320.633Z" transform="translate(-142.083 -299.94)" fill="#d53d33"/>
            <path id="Trazado_130569" data-name="Trazado 130569" d="M154.64,330.783c0,3.626,2.393,6.533,5.349,6.533s5.357-2.94,5.357-6.533-2.4-6.533-5.357-6.533S154.64,327.157,154.64,330.783Z" transform="translate(-143.403 -301.801)" fill="#f55d51"/>
          </g>
        </g>
        <rect id="Rectángulo_32905" data-name="Rectángulo 32905" width="50.256" height="2.564" transform="translate(0.016 130.931)" fill="#666"/>
        <rect id="Rectángulo_32906" data-name="Rectángulo 32906" width="50.256" height="2.556" transform="translate(0.016 190.113)" fill="#666"/>
        <path id="Trazado_130570" data-name="Trazado 130570" d="M146.26,119.077v9.734a2.507,2.507,0,0,0,1.511,2.295,9.948,9.948,0,0,0-.441,2.964v20.824h20.416V134.079a9.62,9.62,0,0,0-.449-2.964,2.507,2.507,0,0,0,1.543-2.295v-9.742a2.45,2.45,0,0,0-2.45-2.45h-.612V114.61a2.45,2.45,0,0,0-2.45-2.45H151.895a2.45,2.45,0,0,0-2.45,2.45v2.017h-.621a2.45,2.45,0,0,0-2.564,2.45Z" transform="translate(-132.394 -112.135)" fill="#4d4d4d"/>
        <path id="Trazado_130571" data-name="Trazado 130571" d="M156.3,119.077v9.734a2.5,2.5,0,0,0,1.51,2.295,10.207,10.207,0,0,0-.432,2.965v20.824h12.209V134.079a9.62,9.62,0,0,0-.449-2.964,2.507,2.507,0,0,0,1.543-2.295v-9.742a2.45,2.45,0,0,0-2.45-2.45h-.612V114.61a2.45,2.45,0,0,0-2.45-2.45H161.9a2.45,2.45,0,0,0-2.45,2.45v2.017h-.621a2.45,2.45,0,0,0-2.532,2.45Z" transform="translate(-134.234 -112.135)" fill="#333"/>
        <path id="Trazado_130572" data-name="Trazado 130572" d="M136.42,374.242c0,1.429,8.73,2.581,19.493,2.581s19.477-1.151,19.477-2.581-8.722-2.572-19.477-2.572S136.42,372.821,136.42,374.242Z" transform="translate(-130.589 -159.72)" fill="#850309"/>
        <path id="Trazado_130573" data-name="Trazado 130573" d="M136.42,228.111c0,1.421,8.73,2.581,19.493,2.581s19.477-1.16,19.477-2.581-8.722-2.581-19.477-2.581S136.42,226.73,136.42,228.111Z" transform="translate(-130.589 -132.923)" fill="#f55d51"/>
        <rect id="Rectángulo_32907" data-name="Rectángulo 32907" width="6.19" height="51.954" rx="3.03" transform="translate(3.773 87.511)" fill="#fff"/>
      </g>
      <g id="Grupo_58710" data-name="Grupo 58710" transform="translate(206.689 135.788)">
        <path id="Trazado_130574" data-name="Trazado 130574" d="M224.07,231.323V351.948a17.7,17.7,0,0,0,17.721,17.7h14.83a17.7,17.7,0,0,0,17.7-17.7V231.323a25.046,25.046,0,0,0-14.92-22.939V165.706a9.668,9.668,0,0,0-.449-2.973,10.126,10.126,0,0,0-4.353-5.716,8.925,8.925,0,0,0-1.3-.678,9.8,9.8,0,0,0-2.548-.751c-.294-.041-.621-.082-.923-.1H249.2a9.873,9.873,0,0,0-2.164.229,9.734,9.734,0,0,0-3.226,1.315,10.118,10.118,0,0,0-4.369,5.716,9.963,9.963,0,0,0-.449,2.973v42.7a25.218,25.218,0,0,0-7.3,4.9l-.253.245a25.03,25.03,0,0,0-6.215,10.265,24.572,24.572,0,0,0-1.151,7.489Z" transform="translate(-224.07 -143.739)" fill="#c2ca73"/>
        <path id="Trazado_130575" data-name="Trazado 130575" d="M224.07,231.328V351.954a17.7,17.7,0,0,0,17.721,17.7h8.166a17.7,17.7,0,0,1-17.713-17.7V231.328a24.573,24.573,0,0,1,1.151-7.5,25.014,25.014,0,0,1,6.206-10.265c.09-.074.172-.163.261-.245a25,25,0,0,1,7.3-4.9v-42.7a10.331,10.331,0,0,1,.376-2.785,10.216,10.216,0,0,1,4.426-5.88,10.437,10.437,0,0,1,1.307-.678,9.8,9.8,0,0,0-2.548-.751c-.294-.041-.621-.082-.923-.1h-.637a9.872,9.872,0,0,0-2.164.229,9.733,9.733,0,0,0-3.226,1.315,10.118,10.118,0,0,0-4.369,5.716,9.962,9.962,0,0,0-.449,2.973v42.7a25.218,25.218,0,0,0-7.3,4.9l-.253.245a25.03,25.03,0,0,0-6.215,10.265A24.573,24.573,0,0,0,224.07,231.328Z" transform="translate(-224.07 -143.744)" fill="#cad681"/>
        <path id="Trazado_130576" data-name="Trazado 130576" d="M244.81,143.55V151.9a2.45,2.45,0,0,0,2.45,2.45h11.433a2.45,2.45,0,0,0,2.45-2.45V143.55a2.45,2.45,0,0,0-2.45-2.45H247.26A2.45,2.45,0,0,0,244.81,143.55Z" transform="translate(-227.873 -141.1)" fill="#9d6c4e"/>
        <path id="Trazado_130577" data-name="Trazado 130577" d="M224.07,299.52V365.5h50.256V299.52Z" transform="translate(-224.07 -170.148)" fill="#f8f7f3"/>
        <path id="Trazado_130578" data-name="Trazado 130578" d="M241,149.05v9.742a2.5,2.5,0,0,0,1.527,2.287,2.645,2.645,0,0,0,.947.188h17.631a2.376,2.376,0,0,0,.939-.188,2.507,2.507,0,0,0,1.543-2.287V149.05a2.45,2.45,0,0,0-2.45-2.45H243.491A2.45,2.45,0,0,0,241,149.05Z" transform="translate(-227.174 -142.108)" fill="#c3d140"/>
        <g id="Grupo_58709" data-name="Grupo 58709" transform="translate(3.063 135.676)">
          <g id="Grupo_58707" data-name="Grupo 58707">
            <path id="Trazado_130579" data-name="Trazado 130579" d="M235.031,316.182l-1.756,1.086,1.323,1.372-6.533,6.835,2.45,1.274-2.548,6.157,3.12-1.062-3.267,7.268.817-.335,6.533-2.695-1.151,3.079,6.2-2.393,1.192,2.45,7.048-6.264,1.323,1.372,1.143-1.723,3.822,5.471,1.576-8.6,3.528,2.131a15.117,15.117,0,0,1-1.053-7.35c.359-4.475-7.8-7.66-7.8-7.66l-.073-.22c-.5-1.282-3.267-8.019-7.35-7.832a15.116,15.116,0,0,1-7.276-1.307l2.017,3.593-8.656,1.3Z" transform="translate(-227.82 -307.24)" fill="#97922a"/>
            <path id="Trazado_130580" data-name="Trazado 130580" d="M251.113,318.5,228.77,340.843l6.533-2.695-1.151,3.079,6.239-2.393,1.192,2.45,7.048-6.264,1.323,1.372,1.143-1.723,3.822,5.471,1.576-8.6,3.528,2.131a15.117,15.117,0,0,1-1.053-7.35c.359-4.475-7.8-7.66-7.8-7.66Z" transform="translate(-227.994 -309.305)" fill="#8f871c"/>
          </g>
          <path id="Trazado_130581" data-name="Trazado 130581" d="M255,331.321a.9.9,0,0,0,.9.906h0a.9.9,0,0,0,.9-.906v-12a.907.907,0,0,0-.9-.906h0a.906.906,0,0,0-.9.906Z" transform="translate(-232.804 -309.288)" fill="#8d5c3e"/>
          <g id="Grupo_58708" data-name="Grupo 58708" transform="translate(6.394 15.1)">
            <path id="Trazado_130582" data-name="Trazado 130582" d="M256.8,332.263c0,3.626,2.4,6.533,5.357,6.533s5.349-2.94,5.349-6.533-2.393-6.533-5.349-6.533S256.8,328.637,256.8,332.263Z" transform="translate(-239.528 -325.73)" fill="#d3e190"/>
            <path id="Trazado_130583" data-name="Trazado 130583" d="M242.85,332.263c0,3.626,2.4,6.533,5.357,6.533s5.357-2.94,5.357-6.533-2.4-6.533-5.357-6.533S242.85,328.637,242.85,332.263Z" transform="translate(-236.97 -325.73)" fill="#d3e190"/>
            <path id="Trazado_130584" data-name="Trazado 130584" d="M263.36,339.313c0,3.626,2.4,6.533,5.349,6.533s5.357-2.94,5.357-6.533-2.393-6.533-5.357-6.533S263.36,335.7,263.36,339.313Z" transform="translate(-240.731 -327.023)" fill="#cad681"/>
            <path id="Trazado_130585" data-name="Trazado 130585" d="M249.41,339.313c0,3.626,2.393,6.533,5.357,6.533s5.349-2.94,5.349-6.533-2.4-6.533-5.349-6.533S249.41,335.7,249.41,339.313Z" transform="translate(-238.173 -327.023)" fill="#cad681"/>
            <path id="Trazado_130586" data-name="Trazado 130586" d="M235.65,339.313c0,3.626,2.409,6.533,5.357,6.533s5.357-2.94,5.357-6.533-2.4-6.533-5.357-6.533S235.65,335.7,235.65,339.313Z" transform="translate(-235.65 -327.023)" fill="#cad681"/>
            <path id="Trazado_130587" data-name="Trazado 130587" d="M256.8,349.613c0,3.618,2.4,6.533,5.357,6.533s5.349-2.94,5.349-6.533-2.393-6.533-5.349-6.533S256.8,345.987,256.8,349.613Z" transform="translate(-239.528 -328.911)" fill="#d3e190"/>
            <path id="Trazado_130588" data-name="Trazado 130588" d="M242.21,349.613c0,3.618,2.4,6.533,5.357,6.533s5.349-2.94,5.349-6.533-2.393-6.533-5.349-6.533S242.21,345.987,242.21,349.613Z" transform="translate(-236.853 -328.911)" fill="#d3e190"/>
            <path id="Trazado_130589" data-name="Trazado 130589" d="M249.41,359.753c0,3.634,2.393,6.533,5.357,6.533s5.349-2.932,5.349-6.533-2.4-6.533-5.349-6.533S249.41,356.127,249.41,359.753Z" transform="translate(-238.173 -330.771)" fill="#e2f0b1"/>
          </g>
        </g>
        <rect id="Rectángulo_32908" data-name="Rectángulo 32908" width="50.256" height="2.556" transform="translate(0 130.94)" fill="#666"/>
        <rect id="Rectángulo_32909" data-name="Rectángulo 32909" width="50.256" height="2.556" transform="translate(0 190.121)" fill="#666"/>
        <path id="Trazado_130590" data-name="Trazado 130590" d="M241,148.041v9.742a2.5,2.5,0,0,0,1.527,2.287,9.962,9.962,0,0,0-.449,2.973v20.824h20.416v-20.8a9.669,9.669,0,0,0-.449-2.973,2.507,2.507,0,0,0,1.543-2.287v-9.767a2.45,2.45,0,0,0-2.45-2.45h-.612V143.55a2.45,2.45,0,0,0-2.45-2.45H246.643a2.45,2.45,0,0,0-2.45,2.45v2.017h-.621A2.45,2.45,0,0,0,241,148.041Z" transform="translate(-227.174 -141.1)" fill="#666"/>
        <path id="Trazado_130591" data-name="Trazado 130591" d="M251.07,148.041v9.742a2.45,2.45,0,0,0,1.5,2.287,10.5,10.5,0,0,0-.425,2.973v20.824h12.209v-20.8a9.667,9.667,0,0,0-.449-2.973,2.507,2.507,0,0,0,1.543-2.287v-9.767a2.45,2.45,0,0,0-2.45-2.45h-.612V143.55a2.45,2.45,0,0,0-2.45-2.45h-3.267a2.45,2.45,0,0,0-2.45,2.45v2.017H253.6a2.45,2.45,0,0,0-2.532,2.474Z" transform="translate(-229.02 -141.1)" fill="#4d4d4d"/>
        <path id="Trazado_130592" data-name="Trazado 130592" d="M231.19,403.221c0,1.421,8.722,2.581,19.485,2.581s19.493-1.16,19.493-2.581-8.73-2.581-19.493-2.581S231.19,401.791,231.19,403.221Z" transform="translate(-225.375 -188.69)" fill="#b1b456"/>
        <path id="Trazado_130593" data-name="Trazado 130593" d="M231.19,257.082c0,1.421,8.722,2.581,19.485,2.581s19.493-1.16,19.493-2.581-8.73-2.572-19.493-2.572S231.19,255.661,231.19,257.082Z" transform="translate(-225.375 -161.895)" fill="#dbec9e"/>
        <rect id="Rectángulo_32910" data-name="Rectángulo 32910" width="6.182" height="51.954" rx="3.03" transform="translate(3.749 87.511)" fill="#fff"/>
      </g>
      <g id="Grupo_58714" data-name="Grupo 58714" transform="translate(155.306 135.788)">
        <path id="Trazado_130594" data-name="Trazado 130594" d="M161.15,231.323V351.948a17.7,17.7,0,0,0,17.721,17.7h14.822a17.7,17.7,0,0,0,17.7-17.7V231.323a25.03,25.03,0,0,0-14.928-22.939V165.706a9.922,9.922,0,0,0-.441-2.973,10.2,10.2,0,0,0-4.353-5.716,8.925,8.925,0,0,0-1.3-.678,9.75,9.75,0,0,0-2.556-.751c-.294-.041-.612-.082-.923-.1h-.629a10.193,10.193,0,0,0-9.767,7.26,9.955,9.955,0,0,0-.441,2.973v42.7a25.218,25.218,0,0,0-7.3,4.9c-.09.082-.172.171-.261.245a25.209,25.209,0,0,0-6.215,10.265,24.826,24.826,0,0,0-1.135,7.489Z" transform="translate(-161.15 -143.739)" fill="#c2ca73"/>
        <path id="Trazado_130595" data-name="Trazado 130595" d="M161.15,231.328V351.954a17.7,17.7,0,0,0,17.721,17.7h8.166a17.7,17.7,0,0,1-17.713-17.7V231.328a24.825,24.825,0,0,1,1.151-7.5,25.1,25.1,0,0,1,6.206-10.265c.09-.073.18-.163.261-.245a25.217,25.217,0,0,1,7.3-4.9v-42.7a10.33,10.33,0,0,1,.384-2.785,10.151,10.151,0,0,1,4.426-5.88,10.436,10.436,0,0,1,1.307-.678,9.75,9.75,0,0,0-2.556-.751c-.294-.041-.612-.082-.923-.1h-.629a10.193,10.193,0,0,0-9.767,7.26,9.955,9.955,0,0,0-.441,2.973v42.7a25.218,25.218,0,0,0-7.3,4.9c-.09.082-.172.172-.261.245a25.209,25.209,0,0,0-6.215,10.265,24.826,24.826,0,0,0-1.119,7.464Z" transform="translate(-161.15 -143.744)" fill="#cad681"/>
        <path id="Trazado_130596" data-name="Trazado 130596" d="M181.9,143.55V151.9a2.45,2.45,0,0,0,2.45,2.45h11.433a2.45,2.45,0,0,0,2.45-2.45V143.55a2.45,2.45,0,0,0-2.45-2.45H184.35A2.45,2.45,0,0,0,181.9,143.55Z" transform="translate(-164.955 -141.1)" fill="#9d6c4e"/>
        <path id="Trazado_130597" data-name="Trazado 130597" d="M161.15,299.52V365.5h50.264V299.52Z" transform="translate(-161.15 -170.148)" fill="#f8f7f3"/>
        <path id="Trazado_130598" data-name="Trazado 130598" d="M178.11,149.05v9.742a2.491,2.491,0,0,0,1.519,2.287,2.687,2.687,0,0,0,.955.188h17.631a2.449,2.449,0,0,0,.939-.188,2.5,2.5,0,0,0,1.535-2.287V149.05a2.45,2.45,0,0,0-2.45-2.45H180.584a2.45,2.45,0,0,0-2.474,2.45Z" transform="translate(-164.26 -142.108)" fill="#c3d140"/>
        <g id="Grupo_58713" data-name="Grupo 58713" transform="translate(3.063 135.676)">
          <g id="Grupo_58711" data-name="Grupo 58711">
            <path id="Trazado_130599" data-name="Trazado 130599" d="M172.111,316.182l-1.748,1.086,1.315,1.372-6.484,6.835,2.45,1.274-2.589,6.157,3.111-1.062-3.267,7.268.817-.335,6.533-2.695-1.16,3.079,6.247-2.393,1.184,2.45,7.056-6.264,1.315,1.372,1.151-1.723,3.814,5.471,1.576-8.6,3.536,2.131a14.993,14.993,0,0,1-1.053-7.35c.351-4.475-7.8-7.66-7.8-7.66a.527.527,0,0,0-.082-.22c-.49-1.282-3.267-8.019-7.35-7.832a15.116,15.116,0,0,1-7.276-1.307l2.009,3.593-8.648,1.3Z" transform="translate(-164.9 -307.24)" fill="#97922a"/>
            <path id="Trazado_130600" data-name="Trazado 130600" d="M188.193,318.5,165.85,340.843l6.533-2.695-1.16,3.079,6.247-2.393,1.184,2.45,7.056-6.264,1.315,1.372,1.151-1.723,3.814,5.471,1.576-8.6,3.536,2.131a14.993,14.993,0,0,1-1.053-7.35c.351-4.475-7.8-7.66-7.8-7.66S188.242,318.647,188.193,318.5Z" transform="translate(-165.074 -309.305)" fill="#8f871c"/>
          </g>
          <path id="Trazado_130601" data-name="Trazado 130601" d="M192,331.321a.9.9,0,0,0,.9.906h0a.9.9,0,0,0,.906-.906v-12a.906.906,0,0,0-.906-.906h0a.906.906,0,0,0-.9.906Z" transform="translate(-169.869 -309.288)" fill="#8d5c3e"/>
          <g id="Grupo_58712" data-name="Grupo 58712" transform="translate(6.402 15.1)">
            <path id="Trazado_130602" data-name="Trazado 130602" d="M193.89,332.263c0,3.626,2.393,6.533,5.349,6.533s5.357-2.94,5.357-6.533-2.4-6.533-5.357-6.533S193.89,328.637,193.89,332.263Z" transform="translate(-176.618 -325.73)" fill="#d3e190"/>
            <path id="Trazado_130603" data-name="Trazado 130603" d="M179.94,332.263c0,3.626,2.393,6.533,5.349,6.533s5.357-2.94,5.357-6.533-2.4-6.533-5.357-6.533S179.94,328.637,179.94,332.263Z" transform="translate(-174.06 -325.73)" fill="#d3e190"/>
            <path id="Trazado_130604" data-name="Trazado 130604" d="M200.44,339.313c0,3.626,2.4,6.533,5.357,6.533s5.357-2.94,5.357-6.533-2.4-6.533-5.357-6.533S200.44,335.7,200.44,339.313Z" transform="translate(-177.819 -327.023)" fill="#cad681"/>
            <path id="Trazado_130605" data-name="Trazado 130605" d="M186.49,339.313c0,3.626,2.4,6.533,5.357,6.533s5.357-2.94,5.357-6.533-2.4-6.533-5.357-6.533S186.49,335.7,186.49,339.313Z" transform="translate(-175.261 -327.023)" fill="#cad681"/>
            <path id="Trazado_130606" data-name="Trazado 130606" d="M172.74,339.313c0,3.626,2.4,6.533,5.349,6.533s5.357-2.94,5.357-6.533-2.4-6.533-5.357-6.533S172.74,335.7,172.74,339.313Z" transform="translate(-172.74 -327.023)" fill="#cad681"/>
            <path id="Trazado_130607" data-name="Trazado 130607" d="M193.89,349.613c0,3.618,2.393,6.533,5.349,6.533s5.357-2.94,5.357-6.533-2.4-6.533-5.357-6.533S193.89,345.987,193.89,349.613Z" transform="translate(-176.618 -328.911)" fill="#d3e190"/>
            <path id="Trazado_130608" data-name="Trazado 130608" d="M179.29,349.613c0,3.618,2.4,6.533,5.357,6.533s5.357-2.94,5.357-6.533-2.4-6.533-5.357-6.533S179.29,345.987,179.29,349.613Z" transform="translate(-173.941 -328.911)" fill="#d3e190"/>
            <path id="Trazado_130609" data-name="Trazado 130609" d="M186.49,359.753c0,3.634,2.4,6.533,5.357,6.533s5.357-2.932,5.357-6.533-2.4-6.533-5.357-6.533S186.49,356.127,186.49,359.753Z" transform="translate(-175.261 -330.771)" fill="#e2f0b1"/>
          </g>
        </g>
        <rect id="Rectángulo_32911" data-name="Rectángulo 32911" width="50.256" height="2.556" transform="translate(0 130.94)" fill="#666"/>
        <rect id="Rectángulo_32912" data-name="Rectángulo 32912" width="50.256" height="2.556" transform="translate(0 190.121)" fill="#666"/>
        <path id="Trazado_130610" data-name="Trazado 130610" d="M178.11,148.041v9.742a2.491,2.491,0,0,0,1.519,2.287,9.955,9.955,0,0,0-.441,2.973v20.824H199.6v-20.8a9.922,9.922,0,0,0-.441-2.973,2.5,2.5,0,0,0,1.535-2.287v-9.767a2.45,2.45,0,0,0-2.45-2.45h-.629V143.55a2.45,2.45,0,0,0-2.45-2.45H183.737a2.45,2.45,0,0,0-2.45,2.45v2.017h-.621a2.45,2.45,0,0,0-2.556,2.474Z" transform="translate(-164.26 -141.1)" fill="#666"/>
        <path id="Trazado_130611" data-name="Trazado 130611" d="M188.15,148.041v9.742a2.45,2.45,0,0,0,1.511,2.287,10.224,10.224,0,0,0-.433,2.973v20.824h12.209v-20.8a9.922,9.922,0,0,0-.441-2.973,2.5,2.5,0,0,0,1.535-2.287v-9.767a2.45,2.45,0,0,0-2.45-2.45h-.621V143.55a2.45,2.45,0,0,0-2.45-2.45h-3.267a2.45,2.45,0,0,0-2.45,2.45v2.017h-.621a2.45,2.45,0,0,0-2.523,2.474Z" transform="translate(-166.101 -141.1)" fill="#4d4d4d"/>
        <path id="Trazado_130612" data-name="Trazado 130612" d="M168.27,403.221c0,1.421,8.73,2.581,19.493,2.581s19.485-1.16,19.485-2.581-8.73-2.581-19.485-2.581S168.27,401.791,168.27,403.221Z" transform="translate(-162.455 -188.69)" fill="#b1b456"/>
        <path id="Trazado_130613" data-name="Trazado 130613" d="M168.27,257.082c0,1.421,8.73,2.581,19.493,2.581s19.485-1.16,19.485-2.581-8.73-2.572-19.485-2.572S168.27,255.661,168.27,257.082Z" transform="translate(-162.455 -161.895)" fill="#dbec9e"/>
        <path id="Trazado_130614" data-name="Trazado 130614" d="M165.75,297.746a2.45,2.45,0,0,0,2.45,2.45h1.241a2.45,2.45,0,0,0,2.45-2.45V250.74a2.45,2.45,0,0,0-2.45-2.45H168.2a2.45,2.45,0,0,0-2.45,2.45Z" transform="translate(-161.993 -160.755)" fill="#fff"/>
      </g>
    </g>
  </g>
</svg>
