<svg xmlns="http://www.w3.org/2000/svg" width="211.08" height="208.284" viewBox="0 0 211.08 208.284">
  <g id="img20" transform="translate(-944 -13709.824)">
    <g id="user" transform="translate(944 13709.824)">
      <ellipse id="Elipse_4239" data-name="Elipse 4239" cx="105.54" cy="104.142" rx="105.54" ry="104.142" transform="translate(0)" fill="#1a0f91"/>
    </g>
    <g id="estabilidad-01" transform="translate(910.681 13707.708)">
      <g id="Capa_1" data-name="Capa 1" transform="translate(67.32 10.57)">
        <g id="Grupo_58737" data-name="Grupo 58737">
          <g id="Grupo_58731" data-name="Grupo 58731">
            <g id="Grupo_58728" data-name="Grupo 58728" transform="translate(0 70.311)">
              <path id="Trazado_130616" data-name="Trazado 130616" d="M238.4,216.232,152.31,231.85v-59.5L238.4,156.73Z" transform="translate(-94.495 -127.615)" fill="#b17f4a"/>
              <path id="Trazado_130617" data-name="Trazado 130617" d="M153.406,113.93,67.32,129.542l57.815,29.122,86.086-15.619Z" transform="translate(-67.32 -113.93)" fill="#ca9e67"/>
              <path id="Trazado_130618" data-name="Trazado 130618" d="M185.356,130.06,99.27,145.672l11.394,5.694,86.086-15.612Z" transform="translate(-77.536 -119.088)" fill="#432918"/>
              <path id="Trazado_130619" data-name="Trazado 130619" d="M67.32,196.382,125.135,225.5V166L67.32,136.88Z" transform="translate(-67.32 -121.268)" fill="#936037"/>
              <path id="Trazado_130620" data-name="Trazado 130620" d="M110.578,179.118V158.67L99.34,153.01v20.734Z" transform="translate(-77.558 -126.426)" fill="#241201"/>
            </g>
            <g id="Grupo_58729" data-name="Grupo 58729" transform="translate(18.829 25.707)">
              <path id="Trazado_130621" data-name="Trazado 130621" d="M228.916,128.447,161.53,140.671V94.087L228.916,81.87Z" transform="translate(-116.273 -59.075)" fill="#b17f4a"/>
              <path id="Trazado_130622" data-name="Trazado 130622" d="M162.386,48.36,95,60.584l45.257,22.788,67.386-12.217Z" transform="translate(-95 -48.36)" fill="#ca9e67"/>
              <path id="Trazado_130623" data-name="Trazado 130623" d="M187.4,60.99,120.01,73.207l8.918,4.462,67.386-12.224Z" transform="translate(-102.997 -52.398)" fill="#432918"/>
              <path id="Trazado_130624" data-name="Trazado 130624" d="M95,112.907l45.257,22.8V89.118L95,66.33Z" transform="translate(-95 -54.106)" fill="#936037"/>
              <path id="Trazado_130625" data-name="Trazado 130625" d="M128.866,99.392V83.385l-8.8-4.435V95.181Z" transform="translate(-103.016 -58.141)" fill="#241201"/>
            </g>
            <g id="Grupo_58730" data-name="Grupo 58730" transform="translate(38.938)">
              <path id="Trazado_130626" data-name="Trazado 130626" d="M210.665,62.065,167.34,69.928V39.977l43.325-7.857Z" transform="translate(-138.239 -17.461)" fill="#b17f4a"/>
              <path id="Trazado_130627" data-name="Trazado 130627" d="M167.885,10.57,124.56,18.434l29.1,14.653,43.325-7.857Z" transform="translate(-124.56 -10.57)" fill="#ca9e67"/>
              <path id="Trazado_130628" data-name="Trazado 130628" d="M183.972,18.69,140.64,26.547l5.735,2.871,43.332-7.857Z" transform="translate(-129.702 -13.166)" fill="#432918"/>
              <path id="Trazado_130629" data-name="Trazado 130629" d="M124.56,52.075l29.1,14.659V36.783L124.56,22.13Z" transform="translate(-124.56 -14.266)" fill="#936037"/>
              <path id="Trazado_130630" data-name="Trazado 130630" d="M146.333,43.386V33.093L140.68,30.25V40.678Z" transform="translate(-129.714 -16.863)" fill="#241201"/>
            </g>
          </g>
          <g id="Grupo_58736" data-name="Grupo 58736" transform="translate(68.039 117.602)">
            <g id="Grupo_58732" data-name="Grupo 58732" transform="translate(27.904 8.496)">
              <path id="Trazado_130631" data-name="Trazado 130631" d="M211.74,226.221a1.088,1.088,0,0,1,.422-.612c.354-.258,1.612-.544,1.619-1.395s.463-.122.68-.17.68-.891.68-.1,1.361.68,1.6.755a.979.979,0,0,1,.408.442Z" transform="translate(-209.441 -204.786)" fill="#432918"/>
              <path id="Trazado_130632" data-name="Trazado 130632" d="M217.219,211.73l-4.959.9s1.769.728,1.748,2.238-.061,5.952-.061,5.952l1.361-.272s.048-4.122.068-5.911A3.967,3.967,0,0,1,217.219,211.73Z" transform="translate(-209.607 -200.989)" fill="#432918"/>
              <path id="Trazado_130633" data-name="Trazado 130633" d="M213.163,196.892l-1.605,2.558,1.129.061-2.265,3.762.68-2.946-1.184.2,1.707-3.4-3.224.537-.041,4.442c0,3.748,2.252,6.36,5.1,5.837s5.2-3.939,5.252-7.626l.061-4.374Z" transform="translate(-208.36 -195.94)" fill="#432918"/>
            </g>
            <g id="Grupo_58734" data-name="Grupo 58734" transform="translate(49.835 5.432)">
              <path id="Trazado_130634" data-name="Trazado 130634" d="M250.627,191.717c0-.177-.109-.306-.252-.279a.374.374,0,0,0-.265.367Z" transform="translate(-243.641 -191.435)" fill="#432918"/>
              <path id="Trazado_130635" data-name="Trazado 130635" d="M252.017,210.085a.388.388,0,0,0-.265.374l-.034,1.626a1.218,1.218,0,0,1-.9,1.19.551.551,0,0,1-.517-.136.973.973,0,0,1-.218-.735l.2-10.075-.252.68-.265-.605-.2,10.081a1.517,1.517,0,0,0,.367,1.177.912.912,0,0,0,.864.238,1.98,1.98,0,0,0,1.429-1.932v-1.626A.2.2,0,0,0,252.017,210.085Z" transform="translate(-243.467 -194.918)" fill="#432918"/>
              <g id="Grupo_58733" data-name="Grupo 58733" transform="translate(0 0.351)">
                <path id="Trazado_130636" data-name="Trazado 130636" d="M251,191.984a1.422,1.422,0,0,1,.361.034.336.336,0,0,1,.218.054l.231.1a2.4,2.4,0,0,1,.469.333l.116.1.116.122a2.211,2.211,0,0,1,.211.272l.2.3c.054.116.116.231.177.34s.1.245.156.367a3.134,3.134,0,0,1,.136.381l.116.395c.041.136.061.272.1.408.068.265.1.537.143.8s.054.531.082.775,0,.483.034.68a3.516,3.516,0,0,1,0,.6v.809a2.34,2.34,0,0,1,1.687-1.891,1.361,1.361,0,0,1,1.544,1.027C256.714,194.2,254.184,191.624,251,191.984Z" transform="translate(-243.925 -191.951)" fill="#432918"/>
                <path id="Trazado_130637" data-name="Trazado 130637" d="M248.7,197.169v-1.361c0-.449,0-.939.034-1.361s0-.857.041-1.2a10.874,10.874,0,0,1,.061-1.184h-.082a1.66,1.66,0,0,0-.238.082,1.809,1.809,0,0,0-.361.184,2.721,2.721,0,0,0-.442.32,3.625,3.625,0,0,0-.456.5l-.122.143-.1.163a3.6,3.6,0,0,0-.218.34c-.068.122-.143.245-.2.367l-.184.4c-.068.129-.109.279-.17.415a3.952,3.952,0,0,0-.143.429l-.136.429c-.048.15-.082.293-.116.435-.075.293-.129.578-.177.857s-.088.551-.129.809-.068.5-.088.721-.048.435-.054.619a2.366,2.366,0,0,1-.034.469v.415a2.394,2.394,0,0,1,1.7-1.986,1.456,1.456,0,0,1,1.633,1.361v-1.163C248.693,198.012,248.693,197.6,248.7,197.169Z" transform="translate(-242.128 -191.986)" fill="#432918"/>
                <path id="Trazado_130638" data-name="Trazado 130638" d="M250.5,198.52v-1.048a2.612,2.612,0,0,0-.061-.68c-.061-.224-.048-.5-.1-.762s-.082-.531-.15-.789a1.8,1.8,0,0,0-.1-.4l-.122-.381a3.018,3.018,0,0,0-.129-.374c-.054-.122-.088-.252-.15-.361s-.116-.224-.17-.333l-.19-.3a1.673,1.673,0,0,0-.2-.272l-.1-.122-.116-.109a2.2,2.2,0,0,0-.442-.34,1.851,1.851,0,0,0-.429-.177,1.531,1.531,0,0,0-.354-.068,2.347,2.347,0,0,0-.238,0h-.1c-3.4.565-6.279,4.265-6.755,8.51a2.313,2.313,0,0,1,1.633-1.782,1.456,1.456,0,0,1,1.639,1.361v-.884a3.949,3.949,0,0,1,.034-.612,5.8,5.8,0,0,1,.068-.728c.068-.258.054-.537.116-.816s.1-.578.17-.871c.041-.15.068-.3.109-.442l.136-.442c.041-.15.1-.292.156-.435s.1-.292.17-.429.129-.272.2-.4l.211-.381a3.846,3.846,0,0,1,.231-.347l.109-.156.129-.15a4.131,4.131,0,0,1,.483-.49l.238-.177c.075-.054.156-.082.224-.129a2.936,2.936,0,0,1,.367-.156,1.864,1.864,0,0,1,.245-.054h.082v3.728c0,.456,0,.939-.041,1.361s0,.85-.041,1.2c-.034.68-.061,1.177-.061,1.177a2.4,2.4,0,0,1,1.7-1.952,1.442,1.442,0,0,1,1.626,1.36h0S250.5,198.691,250.5,198.52Z" transform="translate(-240.6 -191.963)" fill="#432918"/>
              </g>
            </g>
            <g id="Grupo_58735" data-name="Grupo 58735" transform="translate(2.993 13.411)">
              <path id="Trazado_130639" data-name="Trazado 130639" d="M177.04,227.34h.007l3.809-9.34Z" transform="translate(-173.435 -207.908)" fill="#432918"/>
              <path id="Trazado_130640" data-name="Trazado 130640" d="M186.48,204.407l-.007-.007-3.823,9.251Z" transform="translate(-175.228 -203.56)" fill="#432918"/>
              <path id="Trazado_130641" data-name="Trazado 130641" d="M183.53,216.626a2.526,2.526,0,0,1-1.68,2.551c-.925.17-1.66-.68-1.66-1.946a2.5,2.5,0,0,1,1.68-2.551C182.8,214.517,183.537,215.388,183.53,216.626Z" transform="translate(-174.442 -206.841)" fill="#432918"/>
              <path id="Trazado_130642" data-name="Trazado 130642" d="M180.991,210.345a1.544,1.544,0,0,1,1.1.211l2.721-6.551a5.367,5.367,0,0,0-3.8-.762,7.129,7.129,0,0,0-3.578,1.837l2.517,5.809A2.116,2.116,0,0,1,180.991,210.345Z" transform="translate(-173.563 -203.165)" fill="#432918"/>
              <path id="Trazado_130643" data-name="Trazado 130643" d="M185.289,216.986a3.8,3.8,0,0,1-1.129,2.721l2.5,5.721A13.244,13.244,0,0,0,190.548,216Z" transform="translate(-175.711 -207.269)" fill="#432918"/>
              <path id="Trazado_130644" data-name="Trazado 130644" d="M177,218.6l-5.258.952c0,3.687,1.449,6.632,3.612,7.973l2.721-6.639A2.619,2.619,0,0,1,177,218.6Z" transform="translate(-171.74 -208.1)" fill="#432918"/>
            </g>
            <path id="Trazado_130645" data-name="Trazado 130645" d="M187.822,221.626l-20.482,4.15V197.6l20.666-3.3Zm-19.727,2.98,19-3.823.17-25.367L168.1,198.5Z" transform="translate(-167.34 -186.919)" fill="#432918"/>
            <path id="Trazado_130646" data-name="Trazado 130646" d="M221.852,215.187l-20.482,4.143.211-27.21,20.673-3.3ZM202.125,218.2l19-3.823.367-24.489-19.17,3.082Z" transform="translate(-178.221 -185.167)" fill="#432918"/>
            <path id="Trazado_130647" data-name="Trazado 130647" d="M255.232,208.871l-20.482,4.143.422-26.265,20.673-3.3Zm-19.727,3.048,19-3.823.558-23.6L235.9,187.579Z" transform="translate(-188.894 -183.45)" fill="#432918"/>
          </g>
        </g>
      </g>
    </g>
  </g>
</svg>
