<svg xmlns="http://www.w3.org/2000/svg" width="606.799" height="402.997" viewBox="0 0 606.799 402.997">
  <g id="Object" transform="translate(-16.92 -9.3)">
    <g id="Grupo_58676" data-name="Grupo 58676" transform="translate(16.92 9.3)">
      <g id="Grupo_58595" data-name="Grupo 58595" transform="translate(155.336)">
        <g id="Grupo_58586" data-name="Grupo 58586" transform="translate(10.752 19.276)">
          <g id="Grupo_58582" data-name="Grupo 58582" transform="translate(108.026)">
            <path id="Trazado_130200" data-name="Trazado 130200" d="M638.71,175.711l.014,4.53,15.158-8.751-.014-4.53Z" transform="translate(-485.374 -77.853)" fill="#917251"/>
            <path id="Trazado_130201" data-name="Trazado 130201" d="M415.66,50.07l.014,4.53L569.01,143.708l-.014-4.53Z" transform="translate(-415.66 -41.319)" fill="#7a6044"/>
            <path id="Trazado_130202" data-name="Trazado 130202" d="M415.66,46.091,569,135.2l15.158-8.751L430.818,37.34Z" transform="translate(-415.66 -37.34)" fill="#bc946a"/>
          </g>
          <g id="Grupo_58583" data-name="Grupo 58583" transform="translate(72.017 20.94)">
            <path id="Trazado_130203" data-name="Trazado 130203" d="M586.33,206.171l.014,4.53L601.5,201.95l-.014-4.53Z" transform="translate(-432.994 -108.313)" fill="#917251"/>
            <path id="Trazado_130204" data-name="Trazado 130204" d="M363.28,80.53l.014,4.53L516.63,174.168l-.014-4.53Z" transform="translate(-363.28 -71.779)" fill="#7a6044"/>
            <path id="Trazado_130205" data-name="Trazado 130205" d="M363.28,76.551l153.336,89.107,15.158-8.751L378.438,67.8Z" transform="translate(-363.28 -67.8)" fill="#bc946a"/>
          </g>
          <g id="Grupo_58584" data-name="Grupo 58584" transform="translate(36.009 41.886)">
            <path id="Trazado_130206" data-name="Trazado 130206" d="M533.94,236.638l.014,4.53,15.158-8.751-.007-4.537Z" transform="translate(-380.611 -138.779)" fill="#917251"/>
            <path id="Trazado_130207" data-name="Trazado 130207" d="M310.9,111l.014,4.53,153.329,89.107-.014-4.53Z" transform="translate(-310.9 -102.249)" fill="#7a6044"/>
            <path id="Trazado_130208" data-name="Trazado 130208" d="M310.9,107.021l153.329,89.107,15.165-8.758L326.058,98.27Z" transform="translate(-310.9 -98.27)" fill="#bc946a"/>
          </g>
          <g id="Grupo_58585" data-name="Grupo 58585" transform="translate(0 62.826)">
            <path id="Trazado_130209" data-name="Trazado 130209" d="M481.56,267.1l.014,4.53,15.158-8.751-.014-4.53Z" transform="translate(-328.231 -169.243)" fill="#917251"/>
            <path id="Trazado_130210" data-name="Trazado 130210" d="M258.52,141.46l.014,4.53L411.863,235.1l-.014-4.53Z" transform="translate(-258.52 -132.709)" fill="#7a6044"/>
            <path id="Trazado_130211" data-name="Trazado 130211" d="M258.52,137.481l153.329,89.107,15.158-8.751L273.678,128.73Z" transform="translate(-258.52 -128.73)" fill="#bc946a"/>
          </g>
        </g>
        <g id="Grupo_58587" data-name="Grupo 58587" transform="translate(113.567 66.195)">
          <path id="Trazado_130212" data-name="Trazado 130212" d="M408.08,256.128l22.548,13.02.041-13.728L408.114,242.4Z" transform="translate(-408.08 -148.35)" fill="#7a6044"/>
          <path id="Trazado_130213" data-name="Trazado 130213" d="M440.88,232.309l161.84-94.05.041-13.728-161.84,94.05Z" transform="translate(-418.332 -111.51)" fill="#917251"/>
          <path id="Trazado_130214" data-name="Trazado 130214" d="M408.13,199.64l22.555,13.02,161.84-94.05L569.97,105.59Z" transform="translate(-408.096 -105.59)" fill="#bc946a"/>
        </g>
        <g id="Grupo_58588" data-name="Grupo 58588" transform="translate(56.783 33.101)">
          <path id="Trazado_130215" data-name="Trazado 130215" d="M325.48,207.988,348.028,221l.041-13.728L325.521,194.26Z" transform="translate(-325.48 -100.21)" fill="#7a6044"/>
          <path id="Trazado_130216" data-name="Trazado 130216" d="M358.28,184.162l161.84-94.05.041-13.722-161.84,94.043Z" transform="translate(-335.732 -63.37)" fill="#917251"/>
          <path id="Trazado_130217" data-name="Trazado 130217" d="M325.54,151.5l22.548,13.013L509.928,70.47,487.38,57.45Z" transform="translate(-325.499 -57.45)" fill="#bc946a"/>
        </g>
        <g id="Grupo_58589" data-name="Grupo 58589">
          <path id="Trazado_130218" data-name="Trazado 130218" d="M242.88,159.838l22.555,13.02.034-13.728-22.548-13.02Z" transform="translate(-242.88 -52.06)" fill="#7a6044"/>
          <path id="Trazado_130219" data-name="Trazado 130219" d="M275.69,136.019l161.833-94.05.041-13.728-161.84,94.05Z" transform="translate(-253.135 -15.22)" fill="#917251"/>
          <path id="Trazado_130220" data-name="Trazado 130220" d="M242.94,103.35l22.548,13.02,161.84-94.05L404.78,9.3Z" transform="translate(-242.899 -9.3)" fill="#bc946a"/>
        </g>
        <g id="Grupo_58594" data-name="Grupo 58594" transform="translate(10.752 4.022)">
          <g id="Grupo_58590" data-name="Grupo 58590" transform="translate(108.026)">
            <path id="Trazado_130221" data-name="Trazado 130221" d="M638.71,153.521l.014,4.53,15.158-8.751-.014-4.53Z" transform="translate(-485.374 -55.663)" fill="#917251"/>
            <path id="Trazado_130222" data-name="Trazado 130222" d="M415.66,27.88l.014,4.537,153.336,89.1-.014-4.53Z" transform="translate(-415.66 -19.129)" fill="#7a6044"/>
            <path id="Trazado_130223" data-name="Trazado 130223" d="M415.66,23.9,569,113.009l15.158-8.751L430.818,15.15Z" transform="translate(-415.66 -15.15)" fill="#bc946a"/>
          </g>
          <g id="Grupo_58591" data-name="Grupo 58591" transform="translate(72.017 20.947)">
            <path id="Trazado_130224" data-name="Trazado 130224" d="M586.33,183.991l.014,4.53L601.5,179.77l-.014-4.53Z" transform="translate(-432.994 -86.133)" fill="#917251"/>
            <path id="Trazado_130225" data-name="Trazado 130225" d="M363.28,58.35l.014,4.53L516.63,151.988l-.014-4.53Z" transform="translate(-363.28 -49.599)" fill="#7a6044"/>
            <path id="Trazado_130226" data-name="Trazado 130226" d="M363.28,54.371l153.336,89.107,15.158-8.751L378.438,45.62Z" transform="translate(-363.28 -45.62)" fill="#bc946a"/>
          </g>
          <g id="Grupo_58592" data-name="Grupo 58592" transform="translate(36.009 41.886)">
            <path id="Trazado_130227" data-name="Trazado 130227" d="M533.94,214.451l.014,4.537,15.158-8.758-.007-4.53Z" transform="translate(-380.611 -116.593)" fill="#917251"/>
            <path id="Trazado_130228" data-name="Trazado 130228" d="M310.9,88.81l.014,4.537,153.329,89.107-.014-4.537Z" transform="translate(-310.9 -80.059)" fill="#7a6044"/>
            <path id="Trazado_130229" data-name="Trazado 130229" d="M310.9,84.831l153.329,89.107,15.165-8.751L326.058,76.08Z" transform="translate(-310.9 -76.08)" fill="#bc946a"/>
          </g>
          <g id="Grupo_58593" data-name="Grupo 58593" transform="translate(0 62.833)">
            <path id="Trazado_130230" data-name="Trazado 130230" d="M481.56,244.921l.014,4.53,15.158-8.751-.014-4.53Z" transform="translate(-328.231 -147.063)" fill="#917251"/>
            <path id="Trazado_130231" data-name="Trazado 130231" d="M258.52,119.28l.014,4.53,153.329,89.107-.014-4.53Z" transform="translate(-258.52 -110.529)" fill="#7a6044"/>
            <path id="Trazado_130232" data-name="Trazado 130232" d="M258.52,115.3l153.329,89.107,15.158-8.751L273.678,106.55Z" transform="translate(-258.52 -106.55)" fill="#bc946a"/>
          </g>
        </g>
      </g>
      <g id="Grupo_58620" data-name="Grupo 58620" transform="translate(175.321 213.412)">
        <g id="Grupo_58601" data-name="Grupo 58601" transform="translate(0 4.592)">
          <g id="Grupo_58596" data-name="Grupo 58596" transform="translate(0.014 17.276)">
            <path id="Trazado_130233" data-name="Trazado 130233" d="M271.97,467.559l13.172,7.6.014-3.939-13.172-7.6Z" transform="translate(-271.97 -386.577)" fill="#b6b14a"/>
            <path id="Trazado_130234" data-name="Trazado 130234" d="M291.13,443.595l133.214-77.043.014-3.932L291.144,439.656Z" transform="translate(-277.958 -355.01)" fill="#9f9b40"/>
            <path id="Trazado_130235" data-name="Trazado 130235" d="M271.99,428.593l13.172,7.6L418.376,359.16,405.2,351.55Z" transform="translate(-271.976 -351.55)" fill="#e1da5c"/>
          </g>
          <g id="Grupo_58597" data-name="Grupo 58597" transform="translate(0 66.477)">
            <path id="Trazado_130236" data-name="Trazado 130236" d="M291.1,448.628l.034,13.488,24.92-14.388-.034-13.488Z" transform="translate(-277.935 -426.596)" fill="#9f9b40"/>
            <path id="Trazado_130237" data-name="Trazado 130237" d="M271.95,444.05l.041,13.481,13.158,7.651-.034-13.488Z" transform="translate(-271.95 -429.662)" fill="#b6b14a"/>
            <path id="Trazado_130238" data-name="Trazado 130238" d="M271.95,437.508l13.165,7.644,24.92-14.388L296.87,423.12Z" transform="translate(-271.95 -423.12)" fill="#e1da5c"/>
          </g>
          <g id="Grupo_58598" data-name="Grupo 58598" transform="translate(60.998 31.176)">
            <path id="Trazado_130239" data-name="Trazado 130239" d="M379.82,397.281l.041,13.488,24.92-14.388L404.74,382.9Z" transform="translate(-366.662 -375.249)" fill="#9f9b40"/>
            <path id="Trazado_130240" data-name="Trazado 130240" d="M360.68,392.7l.034,13.481,13.165,7.651-.041-13.488Z" transform="translate(-360.68 -378.312)" fill="#b6b14a"/>
            <path id="Trazado_130241" data-name="Trazado 130241" d="M360.68,386.158l13.158,7.644,24.92-14.381L385.6,371.77Z" transform="translate(-360.68 -371.77)" fill="#e1da5c"/>
          </g>
          <g id="Grupo_58599" data-name="Grupo 58599" transform="translate(108.329 3.863)">
            <path id="Trazado_130242" data-name="Trazado 130242" d="M448.68,357.558l.034,13.481,24.927-14.381L473.6,343.17Z" transform="translate(-435.515 -335.519)" fill="#9f9b40"/>
            <path id="Trazado_130243" data-name="Trazado 130243" d="M429.53,352.97l.041,13.488,13.158,7.644-.034-13.481Z" transform="translate(-429.53 -338.582)" fill="#b6b14a"/>
            <path id="Trazado_130244" data-name="Trazado 130244" d="M429.53,346.428l13.165,7.651,24.92-14.388L454.45,332.04Z" transform="translate(-429.53 -332.04)" fill="#e1da5c"/>
          </g>
          <g id="Grupo_58600" data-name="Grupo 58600" transform="translate(0.007)">
            <path id="Trazado_130245" data-name="Trazado 130245" d="M271.96,442.992l13.172,7.61.007-3.939-13.172-7.6Z" transform="translate(-271.96 -361.626)" fill="#b6b14a"/>
            <path id="Trazado_130246" data-name="Trazado 130246" d="M291.12,418.857l133.235-77.435.014-3.932L291.127,414.918Z" transform="translate(-277.948 -329.88)" fill="#9f9b40"/>
            <path id="Trazado_130247" data-name="Trazado 130247" d="M271.97,403.854l13.172,7.6L418.383,334.03l-13.172-7.61Z" transform="translate(-271.963 -326.42)" fill="#e1da5c"/>
          </g>
        </g>
        <g id="Grupo_58619" data-name="Grupo 58619" transform="translate(6.82)">
          <g id="Grupo_58607" data-name="Grupo 58607" transform="translate(128.918 83.725)">
            <g id="Grupo_58602" data-name="Grupo 58602" transform="translate(0.014 17.276)">
              <path id="Trazado_130248" data-name="Trazado 130248" d="M469.42,582.669l13.172,7.6.014-3.939-13.172-7.6Z" transform="translate(-469.42 -501.687)" fill="#b6b14a"/>
              <path id="Trazado_130249" data-name="Trazado 130249" d="M488.58,558.7l133.214-77.043.007-3.932L488.594,554.766Z" transform="translate(-475.408 -470.12)" fill="#9f9b40"/>
              <path id="Trazado_130250" data-name="Trazado 130250" d="M469.44,543.7l13.172,7.6L615.819,474.27l-13.172-7.61Z" transform="translate(-469.426 -466.66)" fill="#e1da5c"/>
            </g>
            <g id="Grupo_58603" data-name="Grupo 58603" transform="translate(0 66.477)">
              <path id="Trazado_130251" data-name="Trazado 130251" d="M488.54,563.738l.041,13.488,24.92-14.388-.041-13.488Z" transform="translate(-475.382 -541.706)" fill="#9f9b40"/>
              <path id="Trazado_130252" data-name="Trazado 130252" d="M469.4,559.16l.034,13.481,13.165,7.651-.041-13.488Z" transform="translate(-469.4 -544.772)" fill="#b6b14a"/>
              <path id="Trazado_130253" data-name="Trazado 130253" d="M469.4,552.618l13.158,7.644,24.92-14.388L494.32,538.23Z" transform="translate(-469.4 -538.23)" fill="#e1da5c"/>
            </g>
            <g id="Grupo_58604" data-name="Grupo 58604" transform="translate(60.991 31.176)">
              <path id="Trazado_130254" data-name="Trazado 130254" d="M577.26,512.4l.041,13.481,24.92-14.388L602.187,498Z" transform="translate(-564.102 -490.356)" fill="#9f9b40"/>
              <path id="Trazado_130255" data-name="Trazado 130255" d="M558.12,507.81l.041,13.488,13.158,7.644-.041-13.481Z" transform="translate(-558.12 -493.422)" fill="#b6b14a"/>
              <path id="Trazado_130256" data-name="Trazado 130256" d="M558.12,501.268l13.158,7.651,24.927-14.4L583.04,486.88Z" transform="translate(-558.12 -486.88)" fill="#e1da5c"/>
            </g>
            <g id="Grupo_58605" data-name="Grupo 58605" transform="translate(108.329 3.863)">
              <path id="Trazado_130257" data-name="Trazado 130257" d="M646.12,472.668l.041,13.481,24.92-14.388-.041-13.481Z" transform="translate(-632.962 -450.629)" fill="#9f9b40"/>
              <path id="Trazado_130258" data-name="Trazado 130258" d="M626.98,468.08l.034,13.488,13.165,7.644-.041-13.481Z" transform="translate(-626.98 -453.692)" fill="#b6b14a"/>
              <path id="Trazado_130259" data-name="Trazado 130259" d="M626.98,461.538l13.158,7.651,24.92-14.388L651.9,447.15Z" transform="translate(-626.98 -447.15)" fill="#e1da5c"/>
            </g>
            <g id="Grupo_58606" data-name="Grupo 58606">
              <path id="Trazado_130260" data-name="Trazado 130260" d="M469.4,558.1l13.172,7.6.014-3.932-13.172-7.61Z" transform="translate(-469.4 -476.732)" fill="#b6b14a"/>
              <path id="Trazado_130261" data-name="Trazado 130261" d="M488.56,533.96,621.8,456.532l.007-3.932L488.574,530.028Z" transform="translate(-475.388 -444.99)" fill="#9f9b40"/>
              <path id="Trazado_130262" data-name="Trazado 130262" d="M469.42,518.958l13.172,7.61L615.826,449.14l-13.172-7.61Z" transform="translate(-469.406 -441.53)" fill="#e1da5c"/>
            </g>
          </g>
          <g id="Grupo_58613" data-name="Grupo 58613" transform="translate(61.197 44.251)">
            <g id="Grupo_58608" data-name="Grupo 58608" transform="translate(0.021 17.276)">
              <path id="Trazado_130263" data-name="Trazado 130263" d="M370.92,525.249l13.172,7.6.007-3.939-13.172-7.6Z" transform="translate(-370.92 -444.267)" fill="#b6b14a"/>
              <path id="Trazado_130264" data-name="Trazado 130264" d="M390.08,501.285l133.214-77.043.007-3.932L390.087,497.346Z" transform="translate(-376.908 -412.7)" fill="#9f9b40"/>
              <path id="Trazado_130265" data-name="Trazado 130265" d="M370.93,486.283l13.172,7.6L517.316,416.85l-13.172-7.61Z" transform="translate(-370.923 -409.24)" fill="#e1da5c"/>
            </g>
            <g id="Grupo_58609" data-name="Grupo 58609" transform="translate(0 66.477)">
              <path id="Trazado_130266" data-name="Trazado 130266" d="M390.04,506.318l.034,13.488,24.92-14.388-.034-13.488Z" transform="translate(-376.875 -484.286)" fill="#9f9b40"/>
              <path id="Trazado_130267" data-name="Trazado 130267" d="M370.89,501.74l.041,13.481,13.158,7.651-.034-13.488Z" transform="translate(-370.89 -487.352)" fill="#b6b14a"/>
              <path id="Trazado_130268" data-name="Trazado 130268" d="M370.89,495.2l13.165,7.644,24.92-14.388L395.81,480.81Z" transform="translate(-370.89 -480.81)" fill="#e1da5c"/>
            </g>
            <g id="Grupo_58610" data-name="Grupo 58610" transform="translate(60.998 31.176)">
              <path id="Trazado_130269" data-name="Trazado 130269" d="M478.76,454.968l.041,13.488,24.92-14.388-.041-13.488Z" transform="translate(-465.602 -432.936)" fill="#9f9b40"/>
              <path id="Trazado_130270" data-name="Trazado 130270" d="M459.62,450.39l.034,13.481,13.165,7.651-.041-13.488Z" transform="translate(-459.62 -436.002)" fill="#b6b14a"/>
              <path id="Trazado_130271" data-name="Trazado 130271" d="M459.62,443.848l13.158,7.644L497.7,437.1,484.54,429.46Z" transform="translate(-459.62 -429.46)" fill="#e1da5c"/>
            </g>
            <g id="Grupo_58611" data-name="Grupo 58611" transform="translate(108.335 3.863)">
              <path id="Trazado_130272" data-name="Trazado 130272" d="M547.62,415.248l.041,13.481,24.92-14.388-.041-13.481Z" transform="translate(-534.462 -393.209)" fill="#9f9b40"/>
              <path id="Trazado_130273" data-name="Trazado 130273" d="M528.48,410.66l.034,13.488,13.165,7.644-.041-13.481Z" transform="translate(-528.48 -396.272)" fill="#b6b14a"/>
              <path id="Trazado_130274" data-name="Trazado 130274" d="M528.48,404.118l13.158,7.651,24.92-14.388L553.4,389.73Z" transform="translate(-528.48 -389.73)" fill="#e1da5c"/>
            </g>
            <g id="Grupo_58612" data-name="Grupo 58612" transform="translate(0.007)">
              <path id="Trazado_130275" data-name="Trazado 130275" d="M370.9,500.679l13.172,7.6.014-3.932-13.172-7.61Z" transform="translate(-370.9 -419.312)" fill="#b6b14a"/>
              <path id="Trazado_130276" data-name="Trazado 130276" d="M390.06,476.54l133.235-77.428.014-3.932L390.074,472.608Z" transform="translate(-376.888 -387.57)" fill="#9f9b40"/>
              <path id="Trazado_130277" data-name="Trazado 130277" d="M370.92,461.538l13.172,7.61L517.326,391.72l-13.172-7.61Z" transform="translate(-370.906 -384.11)" fill="#e1da5c"/>
            </g>
          </g>
          <g id="Grupo_58618" data-name="Grupo 58618">
            <g id="Grupo_58614" data-name="Grupo 58614" transform="translate(108.033)">
              <path id="Trazado_130278" data-name="Trazado 130278" d="M662.06,458.111l.014,4.53,15.158-8.751-.007-4.53Z" transform="translate(-508.731 -360.253)" fill="#b6b14a"/>
              <path id="Trazado_130279" data-name="Trazado 130279" d="M439.02,332.47l.014,4.53,153.329,89.107-.014-4.53Z" transform="translate(-439.02 -323.719)" fill="#9f9b40"/>
              <path id="Trazado_130280" data-name="Trazado 130280" d="M439.02,328.491,592.349,417.6l15.165-8.751L454.178,319.74Z" transform="translate(-439.02 -319.74)" fill="#e1da5c"/>
            </g>
            <g id="Grupo_58615" data-name="Grupo 58615" transform="translate(72.024 20.947)">
              <path id="Trazado_130281" data-name="Trazado 130281" d="M609.68,488.581l.014,4.53,15.158-8.751-.014-4.53Z" transform="translate(-456.351 -390.723)" fill="#b6b14a"/>
              <path id="Trazado_130282" data-name="Trazado 130282" d="M386.64,362.94l.007,4.53,153.336,89.107-.014-4.53Z" transform="translate(-386.64 -354.189)" fill="#9f9b40"/>
              <path id="Trazado_130283" data-name="Trazado 130283" d="M386.64,358.961l153.329,89.107,15.158-8.751L401.8,350.21Z" transform="translate(-386.64 -350.21)" fill="#e1da5c"/>
            </g>
            <g id="Grupo_58616" data-name="Grupo 58616" transform="translate(36.009 41.886)">
              <path id="Trazado_130284" data-name="Trazado 130284" d="M557.3,519.041l.014,4.53,15.158-8.751-.014-4.53Z" transform="translate(-403.964 -421.183)" fill="#b6b14a"/>
              <path id="Trazado_130285" data-name="Trazado 130285" d="M334.25,393.4l.014,4.53L487.6,487.038l-.014-4.53Z" transform="translate(-334.25 -384.649)" fill="#9f9b40"/>
              <path id="Trazado_130286" data-name="Trazado 130286" d="M334.25,389.421l153.336,89.107,15.158-8.751L349.408,380.67Z" transform="translate(-334.25 -380.67)" fill="#e1da5c"/>
            </g>
            <g id="Grupo_58617" data-name="Grupo 58617" transform="translate(0 62.833)">
              <path id="Trazado_130287" data-name="Trazado 130287" d="M504.92,549.511l.007,4.53,15.165-8.751-.014-4.53Z" transform="translate(-351.584 -451.653)" fill="#b6b14a"/>
              <path id="Trazado_130288" data-name="Trazado 130288" d="M281.87,423.87l.014,4.53,153.329,89.107-.007-4.53Z" transform="translate(-281.87 -415.119)" fill="#9f9b40"/>
              <path id="Trazado_130289" data-name="Trazado 130289" d="M281.87,419.891,435.206,509l15.158-8.751L297.028,411.14Z" transform="translate(-281.87 -411.14)" fill="#e1da5c"/>
            </g>
          </g>
        </g>
      </g>
      <g id="Grupo_58645" data-name="Grupo 58645" transform="translate(323.446 112.831)">
        <g id="Grupo_58626" data-name="Grupo 58626" transform="translate(0 4.592)">
          <g id="Grupo_58621" data-name="Grupo 58621" transform="translate(0.014 17.276)">
            <path id="Trazado_130290" data-name="Trazado 130290" d="M487.44,321.249l13.172,7.6.014-3.939-13.172-7.6Z" transform="translate(-487.44 -240.267)" fill="#4a7cb6"/>
            <path id="Trazado_130291" data-name="Trazado 130291" d="M506.6,297.285l133.214-77.043.014-3.932L506.614,293.346Z" transform="translate(-493.428 -208.7)" fill="#406a9f"/>
            <path id="Trazado_130292" data-name="Trazado 130292" d="M487.46,282.283l13.172,7.6L633.846,212.85l-13.172-7.61Z" transform="translate(-487.446 -205.24)" fill="#5c9ce1"/>
          </g>
          <g id="Grupo_58622" data-name="Grupo 58622" transform="translate(0 66.477)">
            <path id="Trazado_130293" data-name="Trazado 130293" d="M506.56,302.318l.041,13.488,24.92-14.388-.041-13.488Z" transform="translate(-493.402 -280.286)" fill="#406a9f"/>
            <path id="Trazado_130294" data-name="Trazado 130294" d="M487.42,297.74l.034,13.481,13.165,7.651-.041-13.488Z" transform="translate(-487.42 -283.352)" fill="#4a7cb6"/>
            <path id="Trazado_130295" data-name="Trazado 130295" d="M487.42,291.2l13.158,7.644,24.92-14.388L512.34,276.81Z" transform="translate(-487.42 -276.81)" fill="#5c9ce1"/>
          </g>
          <g id="Grupo_58623" data-name="Grupo 58623" transform="translate(60.991 31.176)">
            <path id="Trazado_130296" data-name="Trazado 130296" d="M595.29,250.971l.034,13.488,24.92-14.388-.034-13.481Z" transform="translate(-582.125 -228.939)" fill="#406a9f"/>
            <path id="Trazado_130297" data-name="Trazado 130297" d="M576.14,246.39l.041,13.488,13.158,7.644-.034-13.488Z" transform="translate(-576.14 -232.002)" fill="#4a7cb6"/>
            <path id="Trazado_130298" data-name="Trazado 130298" d="M576.14,239.848l13.165,7.644,24.92-14.382L601.06,225.46Z" transform="translate(-576.14 -225.46)" fill="#5c9ce1"/>
          </g>
          <g id="Grupo_58624" data-name="Grupo 58624" transform="translate(108.329 3.863)">
            <path id="Trazado_130299" data-name="Trazado 130299" d="M664.15,211.248l.034,13.481,24.92-14.388-.034-13.481Z" transform="translate(-650.985 -189.209)" fill="#406a9f"/>
            <path id="Trazado_130300" data-name="Trazado 130300" d="M645,206.66l.041,13.488,13.158,7.644-.034-13.481Z" transform="translate(-645 -192.272)" fill="#4a7cb6"/>
            <path id="Trazado_130301" data-name="Trazado 130301" d="M645,200.118l13.165,7.651,24.92-14.388L669.92,185.73Z" transform="translate(-645 -185.73)" fill="#5c9ce1"/>
          </g>
          <g id="Grupo_58625" data-name="Grupo 58625" transform="translate(0.007)">
            <path id="Trazado_130302" data-name="Trazado 130302" d="M487.43,296.682l13.172,7.61.007-3.939-13.172-7.6Z" transform="translate(-487.43 -215.316)" fill="#4a7cb6"/>
            <path id="Trazado_130303" data-name="Trazado 130303" d="M506.59,272.547l133.235-77.435.007-3.932L506.6,268.608Z" transform="translate(-493.418 -183.57)" fill="#406a9f"/>
            <path id="Trazado_130304" data-name="Trazado 130304" d="M487.44,257.544l13.172,7.6L633.846,187.72l-13.172-7.61Z" transform="translate(-487.433 -180.11)" fill="#5c9ce1"/>
          </g>
        </g>
        <g id="Grupo_58644" data-name="Grupo 58644" transform="translate(6.82)">
          <g id="Grupo_58632" data-name="Grupo 58632" transform="translate(128.911 83.725)">
            <g id="Grupo_58627" data-name="Grupo 58627" transform="translate(0.014 17.276)">
              <path id="Trazado_130305" data-name="Trazado 130305" d="M684.88,436.359l13.178,7.6.007-3.939-13.172-7.6Z" transform="translate(-684.88 -355.377)" fill="#4a7cb6"/>
              <path id="Trazado_130306" data-name="Trazado 130306" d="M704.05,412.395l133.214-77.043.007-3.932L704.057,408.456Z" transform="translate(-690.872 -323.81)" fill="#406a9f"/>
              <path id="Trazado_130307" data-name="Trazado 130307" d="M684.9,397.393l13.172,7.6L831.286,327.96l-13.172-7.61Z" transform="translate(-684.886 -320.35)" fill="#5c9ce1"/>
            </g>
            <g id="Grupo_58628" data-name="Grupo 58628" transform="translate(0 66.477)">
              <path id="Trazado_130308" data-name="Trazado 130308" d="M704.01,417.428l.034,13.488,24.92-14.388-.034-13.488Z" transform="translate(-690.845 -395.396)" fill="#406a9f"/>
              <path id="Trazado_130309" data-name="Trazado 130309" d="M684.86,412.85l.041,13.481,13.158,7.651-.034-13.488Z" transform="translate(-684.86 -398.462)" fill="#4a7cb6"/>
              <path id="Trazado_130310" data-name="Trazado 130310" d="M684.86,406.308l13.165,7.644,24.92-14.388L709.78,391.92Z" transform="translate(-684.86 -391.92)" fill="#5c9ce1"/>
            </g>
            <g id="Grupo_58629" data-name="Grupo 58629" transform="translate(60.998 31.176)">
              <path id="Trazado_130311" data-name="Trazado 130311" d="M792.73,366.085l.041,13.481,24.92-14.388-.041-13.488Z" transform="translate(-779.572 -344.046)" fill="#406a9f"/>
              <path id="Trazado_130312" data-name="Trazado 130312" d="M773.59,361.5l.034,13.488,13.165,7.644-.041-13.481Z" transform="translate(-773.59 -347.112)" fill="#4a7cb6"/>
              <path id="Trazado_130313" data-name="Trazado 130313" d="M773.59,354.958l13.158,7.651,24.92-14.4L798.51,340.57Z" transform="translate(-773.59 -340.57)" fill="#5c9ce1"/>
            </g>
            <g id="Grupo_58630" data-name="Grupo 58630" transform="translate(108.335 3.863)">
              <path id="Trazado_130314" data-name="Trazado 130314" d="M861.59,326.358l.041,13.481,24.92-14.388-.041-13.481Z" transform="translate(-848.432 -304.319)" fill="#406a9f"/>
              <path id="Trazado_130315" data-name="Trazado 130315" d="M842.45,321.77l.034,13.488,13.165,7.644-.041-13.481Z" transform="translate(-842.45 -307.382)" fill="#4a7cb6"/>
              <path id="Trazado_130316" data-name="Trazado 130316" d="M842.45,315.228l13.158,7.651,24.92-14.388L867.37,300.84Z" transform="translate(-842.45 -300.84)" fill="#5c9ce1"/>
            </g>
            <g id="Grupo_58631" data-name="Grupo 58631" transform="translate(0.007)">
              <path id="Trazado_130317" data-name="Trazado 130317" d="M684.87,411.792l13.172,7.6.014-3.932-13.178-7.6Z" transform="translate(-684.87 -330.426)" fill="#4a7cb6"/>
              <path id="Trazado_130318" data-name="Trazado 130318" d="M704.03,387.65l133.235-77.428.014-3.932L704.044,383.718Z" transform="translate(-690.858 -298.68)" fill="#406a9f"/>
              <path id="Trazado_130319" data-name="Trazado 130319" d="M684.88,372.655l13.178,7.6L831.293,302.83l-13.172-7.61Z" transform="translate(-684.873 -295.22)" fill="#5c9ce1"/>
            </g>
          </g>
          <g id="Grupo_58638" data-name="Grupo 58638" transform="translate(61.197 44.251)">
            <g id="Grupo_58633" data-name="Grupo 58633" transform="translate(0.014 17.276)">
              <path id="Trazado_130320" data-name="Trazado 130320" d="M586.38,378.939l13.172,7.6.014-3.939L586.394,375Z" transform="translate(-586.38 -297.957)" fill="#4a7cb6"/>
              <path id="Trazado_130321" data-name="Trazado 130321" d="M605.54,354.975l133.214-77.043.014-3.932L605.554,351.036Z" transform="translate(-592.368 -266.39)" fill="#406a9f"/>
              <path id="Trazado_130322" data-name="Trazado 130322" d="M586.4,339.973l13.172,7.6L732.786,270.54l-13.172-7.61Z" transform="translate(-586.386 -262.93)" fill="#5c9ce1"/>
            </g>
            <g id="Grupo_58634" data-name="Grupo 58634" transform="translate(0 66.477)">
              <path id="Trazado_130323" data-name="Trazado 130323" d="M605.5,360.008l.041,13.488,24.92-14.388-.034-13.488Z" transform="translate(-592.342 -337.976)" fill="#406a9f"/>
              <path id="Trazado_130324" data-name="Trazado 130324" d="M586.36,355.43l.041,13.481,13.158,7.651-.041-13.488Z" transform="translate(-586.36 -341.042)" fill="#4a7cb6"/>
              <path id="Trazado_130325" data-name="Trazado 130325" d="M586.36,348.888l13.158,7.644,24.927-14.388L611.28,334.5Z" transform="translate(-586.36 -334.5)" fill="#5c9ce1"/>
            </g>
            <g id="Grupo_58635" data-name="Grupo 58635" transform="translate(60.998 31.176)">
              <path id="Trazado_130326" data-name="Trazado 130326" d="M694.23,308.658l.041,13.488,24.92-14.388-.041-13.488Z" transform="translate(-681.072 -286.626)" fill="#406a9f"/>
              <path id="Trazado_130327" data-name="Trazado 130327" d="M675.09,304.08l.034,13.481,13.165,7.651-.041-13.488Z" transform="translate(-675.09 -289.692)" fill="#4a7cb6"/>
              <path id="Trazado_130328" data-name="Trazado 130328" d="M675.09,297.538l13.158,7.644,24.92-14.388L700.01,283.15Z" transform="translate(-675.09 -283.15)" fill="#5c9ce1"/>
            </g>
            <g id="Grupo_58636" data-name="Grupo 58636" transform="translate(108.329 3.863)">
              <path id="Trazado_130329" data-name="Trazado 130329" d="M763.09,268.938l.034,13.481,24.92-14.388-.034-13.481Z" transform="translate(-749.925 -246.899)" fill="#406a9f"/>
              <path id="Trazado_130330" data-name="Trazado 130330" d="M743.94,264.35l.041,13.488,13.158,7.644L757.1,272Z" transform="translate(-743.94 -249.962)" fill="#4a7cb6"/>
              <path id="Trazado_130331" data-name="Trazado 130331" d="M743.94,257.808,757.1,265.46l24.92-14.388-13.158-7.651Z" transform="translate(-743.94 -243.42)" fill="#5c9ce1"/>
            </g>
            <g id="Grupo_58637" data-name="Grupo 58637" transform="translate(0.007)">
              <path id="Trazado_130332" data-name="Trazado 130332" d="M586.37,354.369l13.172,7.6.007-3.932-13.172-7.61Z" transform="translate(-586.37 -273.002)" fill="#4a7cb6"/>
              <path id="Trazado_130333" data-name="Trazado 130333" d="M605.53,330.23,738.765,252.8l.014-3.932L605.537,326.3Z" transform="translate(-592.358 -241.26)" fill="#406a9f"/>
              <path id="Trazado_130334" data-name="Trazado 130334" d="M586.38,315.228l13.172,7.61L732.793,245.41l-13.172-7.61Z" transform="translate(-586.373 -237.8)" fill="#5c9ce1"/>
            </g>
          </g>
          <g id="Grupo_58643" data-name="Grupo 58643">
            <g id="Grupo_58639" data-name="Grupo 58639" transform="translate(108.033)">
              <path id="Trazado_130335" data-name="Trazado 130335" d="M877.53,311.8l.014,4.53L892.7,307.58l-.014-4.53Z" transform="translate(-724.201 -213.943)" fill="#4a7cb6"/>
              <path id="Trazado_130336" data-name="Trazado 130336" d="M654.49,186.16l.007,4.53L807.833,279.8l-.014-4.53Z" transform="translate(-654.49 -177.409)" fill="#406a9f"/>
              <path id="Trazado_130337" data-name="Trazado 130337" d="M654.49,182.181l153.329,89.107,15.158-8.751L669.648,173.43Z" transform="translate(-654.49 -173.43)" fill="#5c9ce1"/>
            </g>
            <g id="Grupo_58640" data-name="Grupo 58640" transform="translate(72.017 20.947)">
              <path id="Trazado_130338" data-name="Trazado 130338" d="M825.15,342.271l.014,4.53,15.158-8.751-.014-4.53Z" transform="translate(-671.814 -244.413)" fill="#4a7cb6"/>
              <path id="Trazado_130339" data-name="Trazado 130339" d="M602.1,216.63l.014,4.53L755.45,310.268l-.014-4.53Z" transform="translate(-602.1 -207.879)" fill="#406a9f"/>
              <path id="Trazado_130340" data-name="Trazado 130340" d="M602.1,212.651l153.336,89.107,15.158-8.751L617.258,203.9Z" transform="translate(-602.1 -203.9)" fill="#5c9ce1"/>
            </g>
            <g id="Grupo_58641" data-name="Grupo 58641" transform="translate(36.009 41.886)">
              <path id="Trazado_130341" data-name="Trazado 130341" d="M772.77,372.731l.007,4.53,15.165-8.751-.014-4.53Z" transform="translate(-619.434 -274.873)" fill="#4a7cb6"/>
              <path id="Trazado_130342" data-name="Trazado 130342" d="M549.72,247.09l.014,4.53,153.329,89.107-.007-4.53Z" transform="translate(-549.72 -238.339)" fill="#406a9f"/>
              <path id="Trazado_130343" data-name="Trazado 130343" d="M549.72,243.111l153.336,89.107,15.158-8.751L564.878,234.36Z" transform="translate(-549.72 -234.36)" fill="#5c9ce1"/>
            </g>
            <g id="Grupo_58642" data-name="Grupo 58642" transform="translate(0 62.833)">
              <path id="Trazado_130344" data-name="Trazado 130344" d="M720.38,403.2l.014,4.53,15.158-8.751-.014-4.53Z" transform="translate(-567.051 -305.343)" fill="#4a7cb6"/>
              <path id="Trazado_130345" data-name="Trazado 130345" d="M497.34,277.56l.014,4.53L650.683,371.2l-.014-4.53Z" transform="translate(-497.34 -268.809)" fill="#406a9f"/>
              <path id="Trazado_130346" data-name="Trazado 130346" d="M497.34,273.581l153.329,89.107,15.158-8.751L512.5,264.83Z" transform="translate(-497.34 -264.83)" fill="#5c9ce1"/>
            </g>
          </g>
        </g>
      </g>
      <g id="Grupo_58675" data-name="Grupo 58675" transform="translate(0 97.577)">
        <g id="Grupo_58650" data-name="Grupo 58650" transform="translate(6.82 25.993)">
          <g id="Grupo_58646" data-name="Grupo 58646" transform="translate(108.026)">
            <path id="Trazado_130347" data-name="Trazado 130347" d="M407.03,327.421l.014,4.537L422.2,323.2l-.014-4.53Z" transform="translate(-253.694 -229.563)" fill="#4a7cb6"/>
            <path id="Trazado_130348" data-name="Trazado 130348" d="M183.98,201.78l.014,4.537L337.33,295.425l-.014-4.537Z" transform="translate(-183.98 -193.029)" fill="#406a9f"/>
            <path id="Trazado_130349" data-name="Trazado 130349" d="M183.98,197.8l153.336,89.107,15.158-8.751L199.138,189.05Z" transform="translate(-183.98 -189.05)" fill="#5c9ce1"/>
          </g>
          <g id="Grupo_58647" data-name="Grupo 58647" transform="translate(72.017 20.947)">
            <path id="Trazado_130350" data-name="Trazado 130350" d="M354.65,357.891l.014,4.53,15.158-8.751-.014-4.53Z" transform="translate(-201.314 -260.033)" fill="#4a7cb6"/>
            <path id="Trazado_130351" data-name="Trazado 130351" d="M131.6,232.25l.014,4.53L284.95,325.888l-.014-4.53Z" transform="translate(-131.6 -223.499)" fill="#406a9f"/>
            <path id="Trazado_130352" data-name="Trazado 130352" d="M131.6,228.271l153.336,89.107,15.158-8.751L146.758,219.52Z" transform="translate(-131.6 -219.52)" fill="#5c9ce1"/>
          </g>
          <g id="Grupo_58648" data-name="Grupo 58648" transform="translate(36.009 41.886)">
            <path id="Trazado_130353" data-name="Trazado 130353" d="M302.26,388.351l.014,4.537,15.158-8.758-.014-4.53Z" transform="translate(-148.931 -290.493)" fill="#4a7cb6"/>
            <path id="Trazado_130354" data-name="Trazado 130354" d="M79.22,262.71l.014,4.537,153.329,89.107-.014-4.537Z" transform="translate(-79.22 -253.959)" fill="#406a9f"/>
            <path id="Trazado_130355" data-name="Trazado 130355" d="M79.22,258.731l153.329,89.107,15.158-8.751L94.378,249.98Z" transform="translate(-79.22 -249.98)" fill="#5c9ce1"/>
          </g>
          <g id="Grupo_58649" data-name="Grupo 58649" transform="translate(0 62.833)">
            <path id="Trazado_130356" data-name="Trazado 130356" d="M249.88,418.821l.014,4.53,15.158-8.751-.014-4.53Z" transform="translate(-96.551 -320.963)" fill="#4a7cb6"/>
            <path id="Trazado_130357" data-name="Trazado 130357" d="M26.84,293.18l.014,4.53,153.329,89.107-.014-4.53Z" transform="translate(-26.84 -284.429)" fill="#406a9f"/>
            <path id="Trazado_130358" data-name="Trazado 130358" d="M26.84,289.2l153.329,89.107,15.158-8.751L42,280.45Z" transform="translate(-26.84 -280.45)" fill="#5c9ce1"/>
          </g>
        </g>
        <g id="Grupo_58656" data-name="Grupo 58656" transform="translate(0 4.592)">
          <g id="Grupo_58651" data-name="Grupo 58651" transform="translate(0.014 17.276)">
            <path id="Trazado_130359" data-name="Trazado 130359" d="M16.94,299.052l13.172,7.6.014-3.932-13.172-7.6Z" transform="translate(-16.94 -218.077)" fill="#4a7cb6"/>
            <path id="Trazado_130360" data-name="Trazado 130360" d="M36.1,275.085l133.214-77.036.014-3.939L36.114,271.153Z" transform="translate(-22.928 -186.507)" fill="#406a9f"/>
            <path id="Trazado_130361" data-name="Trazado 130361" d="M16.96,260.093l13.172,7.6,133.214-77.043-13.178-7.6Z" transform="translate(-16.946 -183.05)" fill="#5c9ce1"/>
          </g>
          <g id="Grupo_58652" data-name="Grupo 58652" transform="translate(0 66.47)">
            <path id="Trazado_130362" data-name="Trazado 130362" d="M36.06,280.128l.041,13.481,24.92-14.388L60.98,265.74Z" transform="translate(-22.902 -258.089)" fill="#406a9f"/>
            <path id="Trazado_130363" data-name="Trazado 130363" d="M16.92,275.54l.034,13.488,13.165,7.644-.041-13.481Z" transform="translate(-16.92 -261.152)" fill="#4a7cb6"/>
            <path id="Trazado_130364" data-name="Trazado 130364" d="M16.92,269l13.158,7.651L55,262.261,41.84,254.61Z" transform="translate(-16.92 -254.61)" fill="#5c9ce1"/>
          </g>
          <g id="Grupo_58653" data-name="Grupo 58653" transform="translate(60.991 31.169)">
            <path id="Trazado_130365" data-name="Trazado 130365" d="M124.79,228.778l.034,13.488,24.92-14.388-.034-13.488Z" transform="translate(-111.625 -206.739)" fill="#406a9f"/>
            <path id="Trazado_130366" data-name="Trazado 130366" d="M105.64,224.19l.041,13.488,13.158,7.651-.034-13.488Z" transform="translate(-105.64 -209.802)" fill="#4a7cb6"/>
            <path id="Trazado_130367" data-name="Trazado 130367" d="M105.64,217.648,118.8,225.3l24.92-14.388L130.56,203.26Z" transform="translate(-105.64 -203.26)" fill="#5c9ce1"/>
          </g>
          <g id="Grupo_58654" data-name="Grupo 58654" transform="translate(108.329 3.863)">
            <path id="Trazado_130368" data-name="Trazado 130368" d="M193.64,189.048l.041,13.488,24.92-14.388-.034-13.488Z" transform="translate(-180.482 -167.016)" fill="#406a9f"/>
            <path id="Trazado_130369" data-name="Trazado 130369" d="M174.5,184.47l.041,13.481L187.7,205.6l-.041-13.488Z" transform="translate(-174.5 -170.082)" fill="#4a7cb6"/>
            <path id="Trazado_130370" data-name="Trazado 130370" d="M174.5,177.928l13.158,7.644,24.927-14.388L199.42,163.54Z" transform="translate(-174.5 -163.54)" fill="#5c9ce1"/>
          </g>
          <g id="Grupo_58655" data-name="Grupo 58655">
            <path id="Trazado_130371" data-name="Trazado 130371" d="M16.92,274.489l13.178,7.6.007-3.939-13.172-7.6Z" transform="translate(-16.92 -193.122)" fill="#4a7cb6"/>
            <path id="Trazado_130372" data-name="Trazado 130372" d="M36.09,250.347l133.235-77.428.007-3.939L36.1,246.408Z" transform="translate(-22.912 -161.377)" fill="#406a9f"/>
            <path id="Trazado_130373" data-name="Trazado 130373" d="M16.94,235.348l13.172,7.6,133.235-77.428-13.172-7.6Z" transform="translate(-16.926 -157.92)" fill="#5c9ce1"/>
          </g>
        </g>
        <g id="Grupo_58674" data-name="Grupo 58674" transform="translate(6.82)">
          <g id="Grupo_58662" data-name="Grupo 58662" transform="translate(128.911 83.725)">
            <g id="Grupo_58657" data-name="Grupo 58657" transform="translate(0.014 17.276)">
              <path id="Trazado_130374" data-name="Trazado 130374" d="M214.38,414.162l13.172,7.6.014-3.932-13.172-7.6Z" transform="translate(-214.38 -333.187)" fill="#4a7cb6"/>
              <path id="Trazado_130375" data-name="Trazado 130375" d="M233.54,390.195l133.214-77.036.014-3.939L233.554,386.263Z" transform="translate(-220.368 -301.617)" fill="#406a9f"/>
              <path id="Trazado_130376" data-name="Trazado 130376" d="M214.4,375.2l13.172,7.6,133.214-77.043-13.172-7.6Z" transform="translate(-214.386 -298.16)" fill="#5c9ce1"/>
            </g>
            <g id="Grupo_58658" data-name="Grupo 58658" transform="translate(0 66.47)">
              <path id="Trazado_130377" data-name="Trazado 130377" d="M233.5,395.238l.041,13.481,24.92-14.388-.034-13.481Z" transform="translate(-220.342 -373.199)" fill="#406a9f"/>
              <path id="Trazado_130378" data-name="Trazado 130378" d="M214.36,390.65l.041,13.488,13.158,7.644-.041-13.481Z" transform="translate(-214.36 -376.262)" fill="#4a7cb6"/>
              <path id="Trazado_130379" data-name="Trazado 130379" d="M214.36,384.108l13.158,7.651,24.927-14.388L239.28,369.72Z" transform="translate(-214.36 -369.72)" fill="#5c9ce1"/>
            </g>
            <g id="Grupo_58659" data-name="Grupo 58659" transform="translate(60.998 31.169)">
              <path id="Trazado_130380" data-name="Trazado 130380" d="M322.23,343.888l.041,13.488,24.92-14.388L347.15,329.5Z" transform="translate(-309.072 -321.849)" fill="#406a9f"/>
              <path id="Trazado_130381" data-name="Trazado 130381" d="M303.09,339.3l.034,13.488,13.165,7.651-.041-13.488Z" transform="translate(-303.09 -324.912)" fill="#4a7cb6"/>
              <path id="Trazado_130382" data-name="Trazado 130382" d="M303.09,332.758l13.158,7.651,24.92-14.388L328.01,318.37Z" transform="translate(-303.09 -318.37)" fill="#5c9ce1"/>
            </g>
            <g id="Grupo_58660" data-name="Grupo 58660" transform="translate(108.329 3.863)">
              <path id="Trazado_130383" data-name="Trazado 130383" d="M391.09,304.158l.034,13.488,24.92-14.388-.034-13.488Z" transform="translate(-377.925 -282.126)" fill="#406a9f"/>
              <path id="Trazado_130384" data-name="Trazado 130384" d="M371.94,299.58l.041,13.481,13.158,7.651-.034-13.488Z" transform="translate(-371.94 -285.192)" fill="#4a7cb6"/>
              <path id="Trazado_130385" data-name="Trazado 130385" d="M371.94,293.038l13.165,7.645,24.92-14.388L396.86,278.65Z" transform="translate(-371.94 -278.65)" fill="#5c9ce1"/>
            </g>
            <g id="Grupo_58661" data-name="Grupo 58661" transform="translate(0.007)">
              <path id="Trazado_130386" data-name="Trazado 130386" d="M214.37,389.6l13.172,7.6.007-3.939-13.172-7.6Z" transform="translate(-214.37 -308.232)" fill="#4a7cb6"/>
              <path id="Trazado_130387" data-name="Trazado 130387" d="M233.53,365.457l133.235-77.428.014-3.939L233.537,361.518Z" transform="translate(-220.358 -276.487)" fill="#406a9f"/>
              <path id="Trazado_130388" data-name="Trazado 130388" d="M214.38,350.458l13.172,7.6,133.242-77.428-13.172-7.6Z" transform="translate(-214.373 -273.03)" fill="#5c9ce1"/>
            </g>
          </g>
          <g id="Grupo_58668" data-name="Grupo 58668" transform="translate(61.197 44.251)">
            <g id="Grupo_58663" data-name="Grupo 58663" transform="translate(0.014 17.276)">
              <path id="Trazado_130389" data-name="Trazado 130389" d="M115.88,356.739l13.172,7.6.014-3.932-13.172-7.61Z" transform="translate(-115.88 -275.764)" fill="#4a7cb6"/>
              <path id="Trazado_130390" data-name="Trazado 130390" d="M135.04,332.775l133.214-77.036.014-3.939L135.054,328.843Z" transform="translate(-121.868 -244.197)" fill="#406a9f"/>
              <path id="Trazado_130391" data-name="Trazado 130391" d="M115.9,317.776l13.172,7.61,133.214-77.043-13.172-7.6Z" transform="translate(-115.886 -240.74)" fill="#5c9ce1"/>
            </g>
            <g id="Grupo_58664" data-name="Grupo 58664" transform="translate(0 66.47)">
              <path id="Trazado_130392" data-name="Trazado 130392" d="M135,337.818l.041,13.481,24.92-14.388-.041-13.481Z" transform="translate(-121.842 -315.779)" fill="#406a9f"/>
              <path id="Trazado_130393" data-name="Trazado 130393" d="M115.86,333.23l.041,13.488,13.158,7.644-.041-13.481Z" transform="translate(-115.86 -318.842)" fill="#4a7cb6"/>
              <path id="Trazado_130394" data-name="Trazado 130394" d="M115.86,326.688l13.158,7.651,24.92-14.388L140.78,312.3Z" transform="translate(-115.86 -312.3)" fill="#5c9ce1"/>
            </g>
            <g id="Grupo_58665" data-name="Grupo 58665" transform="translate(60.998 31.169)">
              <path id="Trazado_130395" data-name="Trazado 130395" d="M223.73,286.468l.034,13.481,24.927-14.388-.041-13.481Z" transform="translate(-210.572 -264.429)" fill="#406a9f"/>
              <path id="Trazado_130396" data-name="Trazado 130396" d="M204.59,281.88l.034,13.488,13.158,7.644-.034-13.481Z" transform="translate(-204.59 -267.492)" fill="#4a7cb6"/>
              <path id="Trazado_130397" data-name="Trazado 130397" d="M204.59,275.338l13.158,7.651,24.92-14.388L229.51,260.95Z" transform="translate(-204.59 -260.95)" fill="#5c9ce1"/>
            </g>
            <g id="Grupo_58666" data-name="Grupo 58666" transform="translate(108.329 3.863)">
              <path id="Trazado_130398" data-name="Trazado 130398" d="M292.59,246.738l.034,13.488,24.92-14.388-.034-13.488Z" transform="translate(-279.425 -224.706)" fill="#406a9f"/>
              <path id="Trazado_130399" data-name="Trazado 130399" d="M273.44,242.16l.041,13.481,13.158,7.651L286.6,249.8Z" transform="translate(-273.44 -227.772)" fill="#4a7cb6"/>
              <path id="Trazado_130400" data-name="Trazado 130400" d="M273.44,235.618l13.165,7.644,24.92-14.388L298.36,221.23Z" transform="translate(-273.44 -221.23)" fill="#5c9ce1"/>
            </g>
            <g id="Grupo_58667" data-name="Grupo 58667" transform="translate(0.007)">
              <path id="Trazado_130401" data-name="Trazado 130401" d="M115.87,332.172l13.172,7.61.007-3.939-13.172-7.6Z" transform="translate(-115.87 -250.812)" fill="#4a7cb6"/>
              <path id="Trazado_130402" data-name="Trazado 130402" d="M135.03,308.037l133.235-77.428.014-3.939L135.037,304.1Z" transform="translate(-121.858 -219.067)" fill="#406a9f"/>
              <path id="Trazado_130403" data-name="Trazado 130403" d="M115.88,293.038l13.172,7.6,133.242-77.428-13.178-7.6Z" transform="translate(-115.873 -215.61)" fill="#5c9ce1"/>
            </g>
          </g>
          <g id="Grupo_58673" data-name="Grupo 58673">
            <g id="Grupo_58669" data-name="Grupo 58669" transform="translate(108.026)">
              <path id="Trazado_130404" data-name="Trazado 130404" d="M407.03,289.611l.014,4.53L422.2,285.39l-.014-4.53Z" transform="translate(-253.694 -191.753)" fill="#4a7cb6"/>
              <path id="Trazado_130405" data-name="Trazado 130405" d="M183.98,163.97l.014,4.53L337.33,257.608l-.014-4.53Z" transform="translate(-183.98 -155.219)" fill="#406a9f"/>
              <path id="Trazado_130406" data-name="Trazado 130406" d="M183.98,159.991,337.316,249.1l15.158-8.751L199.138,151.24Z" transform="translate(-183.98 -151.24)" fill="#5c9ce1"/>
            </g>
            <g id="Grupo_58670" data-name="Grupo 58670" transform="translate(72.017 20.94)">
              <path id="Trazado_130407" data-name="Trazado 130407" d="M354.65,320.071l.014,4.53,15.158-8.751-.014-4.53Z" transform="translate(-201.314 -222.213)" fill="#4a7cb6"/>
              <path id="Trazado_130408" data-name="Trazado 130408" d="M131.6,194.43l.014,4.53L284.95,288.068l-.014-4.53Z" transform="translate(-131.6 -185.679)" fill="#406a9f"/>
              <path id="Trazado_130409" data-name="Trazado 130409" d="M131.6,190.451l153.336,89.107,15.158-8.751L146.758,181.7Z" transform="translate(-131.6 -181.7)" fill="#5c9ce1"/>
            </g>
            <g id="Grupo_58671" data-name="Grupo 58671" transform="translate(36.009 41.886)">
              <path id="Trazado_130410" data-name="Trazado 130410" d="M302.26,350.541l.014,4.53,15.158-8.751-.014-4.53Z" transform="translate(-148.931 -252.683)" fill="#4a7cb6"/>
              <path id="Trazado_130411" data-name="Trazado 130411" d="M79.22,224.9l.014,4.53,153.329,89.107-.014-4.53Z" transform="translate(-79.22 -216.149)" fill="#406a9f"/>
              <path id="Trazado_130412" data-name="Trazado 130412" d="M79.22,220.921l153.329,89.107,15.158-8.751L94.378,212.17Z" transform="translate(-79.22 -212.17)" fill="#5c9ce1"/>
            </g>
            <g id="Grupo_58672" data-name="Grupo 58672" transform="translate(0 62.826)">
              <path id="Trazado_130413" data-name="Trazado 130413" d="M249.88,381l.014,4.53,15.158-8.751-.014-4.53Z" transform="translate(-96.551 -283.143)" fill="#4a7cb6"/>
              <path id="Trazado_130414" data-name="Trazado 130414" d="M26.84,255.36l.014,4.53L180.183,349l-.014-4.53Z" transform="translate(-26.84 -246.609)" fill="#406a9f"/>
              <path id="Trazado_130415" data-name="Trazado 130415" d="M26.84,251.381l153.329,89.107,15.158-8.751L42,242.63Z" transform="translate(-26.84 -242.63)" fill="#5c9ce1"/>
            </g>
          </g>
        </g>
      </g>
    </g>
  </g>
</svg>
