<svg xmlns="http://www.w3.org/2000/svg" width="407.425" height="268.354" viewBox="0 0 407.425 268.354">
  <g id="sobre-02" transform="translate(3.445 -74.948)">
    <path id="Trazado_119207" data-name="Trazado 119207" d="M317.661,43.043c-10.611,3.29-21.068,7.349-31.847,10.119-9.855,2.533-20.686,1.921-30.915,1.48-21.662-.928-43.126-4.4-64.223-9.06-28.91-6.4-57.629-18.423-87.5-19.344-19.21-.592-35.556,3.06-48.972,16.64-3.723,3.77-7.049,8.027-8.812,12.916-3.5,9.554.3,21.8,3.393,31.023,4.237,12.633,12.8,31.023.624,42.11-10.163,9.258-22.029,14.942-29.6,26.661A69.19,69.19,0,0,0,9.161,190.513c-.507,13.949,2.622,27.779,7.461,40.9,4.56,12.35,10.53,20.028,23.74,25.43,12.564,5.132,29.718,2.744,43.038,2.744H266.575c27.963,0,56.836,1.875,84.689-.605,13.57-1.211,27.566-3.9,38.7-11.607a44.162,44.162,0,0,0,18.872-34.214c.683-17.936-11.749-33.859-12.241-51.321-.264-9.277,4.1-20.4,6.418-29.411q3.76-14.666,8.54-29.089c2.3-6.915,4.788-13.9,4.971-21.127.4-16-11.132-30.964-26.377-38.557s-33.521-8.606-50.587-5.922a156.97,156.97,0,0,0-21.9,5.31Z" transform="translate(-12.552 83.036)" fill="#f2f6fe"/>
    <g id="Grupo_58253" data-name="Grupo 58253" transform="translate(23.136 74.948)">
      <path id="Trazado_128070" data-name="Trazado 128070" d="M142.345,39.27H77.679c-19.794,0-34.4,14.941-32.381,38.146l2.354-2.162c.913-22.2,15.086-31.709,30.027-31.709s29.114,9.609,30.027,31.709l2.258,2.066h0l2.258-2.066c.913-22.2,15.038-31.709,30.027-31.709s29.114,9.609,30.027,31.709l2.354,2.162C176.744,54.211,162.139,39.27,142.345,39.27Z" transform="translate(158.411 143.967)" fill="#3c3d3f"/>
      <path id="Trazado_128071" data-name="Trazado 128071" d="M126.263,55.509H25.18V39.27H156.674l-20.322,5.573Z" transform="translate(82.586 143.967)" fill="#3c3d3f"/>
      <path id="Trazado_128072" data-name="Trazado 128072" d="M269.384,46.422H25.18V37.39H298.258v2.787Z" transform="translate(82.586 136.815)" fill="#ffc90d"/>
      <path id="Trazado_128073" data-name="Trazado 128073" d="M62.8,69.216A28.826,28.826,0,1,1,33.976,40.39,28.826,28.826,0,0,1,62.8,69.216Z" transform="translate(6.385 148.228)" fill="#3c3d3f"/>
      <path id="Trazado_128074" data-name="Trazado 128074" d="M39.34,58.83a15.662,15.662,0,1,1-4.587-11.123A15.71,15.71,0,0,1,39.34,58.83ZM23.63,45.955a2.114,2.114,0,1,0,0,4.228,2.066,2.066,0,0,0,2.114-2.114,2.114,2.114,0,0,0-2.114-2.114ZM12.484,52.392a2.162,2.162,0,0,0,.769,2.883,2.114,2.114,0,1,0-.769-2.883Zm0,12.876a2.114,2.114,0,1,0,.769-2.883,2.162,2.162,0,0,0-.769,2.883ZM23.63,71.706a2.114,2.114,0,1,0-2.114-2.114A2.114,2.114,0,0,0,23.63,71.706Zm11.146-6.438a2.114,2.114,0,1,0-2.883.769,2.114,2.114,0,0,0,2.883-.769Zm0-12.876a2.114,2.114,0,1,0-.769,2.883A2.114,2.114,0,0,0,34.776,52.392Z" transform="translate(16.923 158.614)" fill="#fff"/>
      <path id="Trazado_128075" data-name="Trazado 128075" d="M103.5,69.216A28.826,28.826,0,1,1,74.676,40.39,28.826,28.826,0,0,1,103.5,69.216Z" transform="translate(161.222 148.228)" fill="#3c3d3f"/>
      <path id="Trazado_128076" data-name="Trazado 128076" d="M80.04,58.83a15.662,15.662,0,1,1-4.587-11.123A15.71,15.71,0,0,1,80.04,58.83ZM64.33,45.955a2.114,2.114,0,1,0,2.114,2.114,2.114,2.114,0,0,0-2.114-2.114ZM53.184,52.392a2.114,2.114,0,1,0,2.883-.769,2.114,2.114,0,0,0-2.883.769Zm0,12.876a2.114,2.114,0,1,0,.769-2.883,2.114,2.114,0,0,0-.769,2.883ZM64.33,71.706a2.114,2.114,0,1,0-2.114-2.114A2.114,2.114,0,0,0,64.33,71.706Zm11.146-6.438a2.114,2.114,0,1,0-2.883.769,2.114,2.114,0,0,0,2.883-.769Zm0-12.876a2.114,2.114,0,1,0-.769,2.883,2.114,2.114,0,0,0,.769-2.883Z" transform="translate(171.76 158.614)" fill="#fff"/>
      <path id="Trazado_128077" data-name="Trazado 128077" d="M116.962,69.216A28.826,28.826,0,1,1,88.136,40.39,28.826,28.826,0,0,1,116.962,69.216Z" transform="translate(212.428 148.228)" fill="#3c3d3f"/>
      <path id="Trazado_128078" data-name="Trazado 128078" d="M93.5,58.83A15.71,15.71,0,1,1,77.79,43.12,15.71,15.71,0,0,1,93.5,58.83ZM77.79,45.955A2.114,2.114,0,1,0,79.9,48.068a2.114,2.114,0,0,0-2.114-2.114ZM66.5,52.392a2.114,2.114,0,1,0,2.883-.769,2.114,2.114,0,0,0-2.883.769Zm0,12.876a2.114,2.114,0,1,0,.769-2.883,2.114,2.114,0,0,0-.769,2.883Zm11.146,6.438a2.312,2.312,0,1,1,.144,0Zm11.146-6.438a1.294,1.294,0,1,0,.144,0Zm0-12.876a.833.833,0,1,0,.144,0Z" transform="translate(222.966 158.614)" fill="#fff"/>
      <rect id="Rectángulo_32873" data-name="Rectángulo 32873" width="72.113" height="30.027" rx="0.59" transform="translate(120.978 187.129)" fill="#a8b8b5"/>
      <rect id="Rectángulo_32874" data-name="Rectángulo 32874" width="4.708" height="30.027" transform="translate(128.04 187.129)" fill="#3c3d3f"/>
      <rect id="Rectángulo_32875" data-name="Rectángulo 32875" width="4.708" height="30.027" transform="translate(186.029 217.108) rotate(180)" fill="#3c3d3f"/>
      <path id="Trazado_128079" data-name="Trazado 128079" d="M42.747,45.044a4.084,4.084,0,1,1-4.084-4.084,4.084,4.084,0,0,1,4.084,4.084Z" transform="translate(118.347 150.396)" fill="#3c3d3f"/>
      <path id="Trazado_128080" data-name="Trazado 128080" d="M104.777,24.616A4.276,4.276,0,0,0,100.5,20.34H55.1c-5.669,0-8.167,2.4-11.05,7.783-1.489,2.883-9.609,20.226-17.632,38.435C24.929,69.969,4.27,78.328,4.27,97.113v17.872l5.717,11.338A33.63,33.63,0,0,1,71.1,145.156H96.609a8.167,8.167,0,0,0,8.167-8.119Z" transform="translate(3.038 71.951)" fill="#1a0f91"/>
      <path id="Trazado_128081" data-name="Trazado 128081" d="M29.034,40.08h-22a4.276,4.276,0,0,0-4.276,4.276V66.071A4.132,4.132,0,0,0,7.174,70.4H9.72A33.63,33.63,0,0,1,29.034,40.08Z" transform="translate(-2.749 147.049)" fill="#456785"/>
      <path id="Trazado_128082" data-name="Trazado 128082" d="M77.047,66.234H9.45L28.667,24.052a3.7,3.7,0,0,1,3.411-2.162H73.348a3.651,3.651,0,0,1,3.7,3.7Z" transform="translate(22.744 77.848)" fill="#fff"/>
      <path id="Trazado_128083" data-name="Trazado 128083" d="M4.39,36.36V54.232h6.966V42.654C11.356,37.465,4.39,36.36,4.39,36.36Z" transform="translate(3.494 132.896)" fill="#fff"/>
      <path id="Trazado_128084" data-name="Trazado 128084" d="M73.728,123.2H51.82v-.336A27.673,27.673,0,0,0,22.995,101.82H13.578A4.18,4.18,0,0,1,9.35,97.593V66.46L28.568,24.278a4.132,4.132,0,0,1,3.843-2.5H73.68a4.276,4.276,0,0,1,4.228,4.228v92.916a4.228,4.228,0,0,1-4.18,4.276Zm-21.139-.961H73.728a3.219,3.219,0,0,0,3.219-3.219V26.008a3.219,3.219,0,0,0-3.219-3.219H32.459a3.123,3.123,0,0,0-2.931,1.874L10.311,66.8v30.8a3.219,3.219,0,0,0,3.219,3.219h9.176a28.826,28.826,0,0,1,29.883,21.427Z" transform="translate(22.363 77.429)" fill="#767a79"/>
      <path id="Trazado_128085" data-name="Trazado 128085" d="M19.85,32.71H32.485V35.3A2.066,2.066,0,0,1,30.42,37.37h-8.5A2.066,2.066,0,0,1,19.85,35.3Z" transform="translate(62.309 119.011)" fill="#3c3d3f"/>
      <path id="Trazado_128086" data-name="Trazado 128086" d="M46.995,126.908H26V17.081L38.251,13.91Z" transform="translate(85.706 47.489)" fill="#3c3d3f"/>
      <path id="Trazado_128087" data-name="Trazado 128087" d="M286.675,8.481,26.761,74.444,23.11,61.088,51.6,41.582,252.709,1.13,285.33,2.187Z" transform="translate(74.711 -1.13)" fill="#fe7062"/>
      <path id="Trazado_128088" data-name="Trazado 128088" d="M60.55,11.123l4.228,17.536L144.241,8.481,142.9,2.187,110.275,1.13Z" transform="translate(217.145 -1.13)" fill="#3c3d3f"/>
      <path id="Trazado_128089" data-name="Trazado 128089" d="M45.75,37.39H35.8L25.86,46.422H35.8Z" transform="translate(85.173 136.815)" fill="#3c3d3f"/>
      <path id="Trazado_128090" data-name="Trazado 128090" d="M50.742,37.39h-9.9L30.9,46.422h9.945Z" transform="translate(104.347 136.815)" fill="#3c3d3f"/>
      <path id="Trazado_128091" data-name="Trazado 128091" d="M55.82,37.39H45.875L35.93,46.422h9.945Z" transform="translate(123.483 136.815)" fill="#3c3d3f"/>
      <path id="Trazado_128092" data-name="Trazado 128092" d="M60.86,37.39H50.915L40.97,46.422h9.945Z" transform="translate(142.656 136.815)" fill="#3c3d3f"/>
      <path id="Trazado_128093" data-name="Trazado 128093" d="M65.89,37.39H55.945L46,46.422h9.945Z" transform="translate(161.792 136.815)" fill="#3c3d3f"/>
      <path id="Trazado_128094" data-name="Trazado 128094" d="M70.93,37.39H60.985L51.04,46.422h9.945Z" transform="translate(180.966 136.815)" fill="#3c3d3f"/>
      <path id="Trazado_128095" data-name="Trazado 128095" d="M75.97,37.39H66.025L56.08,46.422h9.945Z" transform="translate(200.14 136.815)" fill="#3c3d3f"/>
      <path id="Trazado_128096" data-name="Trazado 128096" d="M81,37.39H71.055L61.11,46.422h9.945Z" transform="translate(219.276 136.815)" fill="#3c3d3f"/>
      <path id="Trazado_128097" data-name="Trazado 128097" d="M86.04,37.39H76.095L66.15,46.422h9.945Z" transform="translate(238.449 136.815)" fill="#3c3d3f"/>
    </g>
  </g>
</svg>
