<svg xmlns="http://www.w3.org/2000/svg" xmlns:xlink="http://www.w3.org/1999/xlink" width="500" height="302" viewBox="0 0 500 302">
  <defs>
    <linearGradient id="linear-gradient" x1="-46.625" y1="0.5" x2="-45.625" y2="0.5" gradientUnits="objectBoundingBox">
      <stop offset="0" stop-color="#008764"/>
      <stop offset="1" stop-color="#00654d"/>
    </linearGradient>
    <linearGradient id="linear-gradient-2" x1="-17.69" y1="0.5" x2="-16.69" y2="0.5" gradientUnits="objectBoundingBox">
      <stop offset="0" stop-color="#b2daa7"/>
      <stop offset="1" stop-color="#82bc55"/>
    </linearGradient>
  </defs>
  <g id="img8" transform="translate(-284 -3096.649)">
    <rect id="Rect치ngulo_30444" data-name="Rect치ngulo 30444" width="500" height="302" rx="18" transform="translate(284 3096.649)" fill="#57dbd8" opacity="0.13"/>
    <g id="cargas-02" transform="translate(377 3107.251)">
      <g id="Layer_2" data-name="Layer 2" transform="translate(0 0)">
        <g id="Grupo_58516" data-name="Grupo 58516">
          <path id="Trazado_129695" data-name="Trazado 129695" d="M81.55,321.92,235.317,410.7l85.027-49.09L166.577,272.83Z" transform="translate(-81.55 -195.925)" fill="#596876"/>
          <g id="Grupo_58511" data-name="Grupo 58511" transform="translate(10.394)">
            <path id="Trazado_129696" data-name="Trazado 129696" d="M369.052,441.688l33.079-20.012-3.794-1.686-33.5,19.383Z" transform="translate(-253.106 -279.643)" fill="#e2dfea"/>
            <path id="Trazado_129697" data-name="Trazado 129697" d="M326.046,415.3l33.074-20.016-3.789-1.686-33.5,19.383Z" transform="translate(-228.638 -264.63)" fill="#e2dfea"/>
            <path id="Trazado_129698" data-name="Trazado 129698" d="M263.23,360.21l2.625,19.719,16.74-8.484Z" transform="translate(-195.301 -245.635)" fill="#f14290"/>
            <path id="Trazado_129699" data-name="Trazado 129699" d="M246,168.427v55.268c1.474.862,33.342,19.111,33.342,19.111l12.429-6.743.862-54.931V141.47Z" transform="translate(-185.499 -121.195)" fill="#af8eff"/>
            <rect id="Rect치ngulo_32879" data-name="Rect치ngulo 32879" width="39.925" height="41.709" transform="translate(127.219 99.922) rotate(180)" fill="#2c60a2"/>
            <path id="Trazado_129700" data-name="Trazado 129700" d="M155.119,235.57q-1.746,1-3.479,2.009l2.018,17.322h0l3.975,2.293Q156.374,246.386,155.119,235.57Z" transform="translate(-131.818 -174.728)" fill="#e2dfea"/>
            <path id="Trazado_129701" data-name="Trazado 129701" d="M170.275,365.658c-1.362-.789-2.729-1.569-4.1-2.358a19.292,19.292,0,0,0,4.979,9.006Q170.72,368.982,170.275,365.658Z" transform="translate(-140.089 -247.393)" fill="#e2dfea"/>
            <path id="Trazado_129702" data-name="Trazado 129702" d="M183.583,273.74q-5.846,3.367-11.683,6.747l6.747,3.88,4.936-2.837Z" transform="translate(-143.344 -196.443)" fill="#e2dfea"/>
            <path id="Trazado_129703" data-name="Trazado 129703" d="M165.341,323.508q-.914-6.863-1.828-13.718l-3.263,1.88q.754,6.4,1.492,12.774c1.341.78,2.69,1.556,4.035,2.332C165.63,325.689,165.488,324.6,165.341,323.508Z" transform="translate(-136.716 -216.951)" fill="#e2dfea"/>
            <path id="Trazado_129704" data-name="Trazado 129704" d="M181.78,386.309h0a3.449,3.449,0,0,0,.841,2,2.655,2.655,0,0,0,2.871.147c5.173-2.91,3.781-2.121,6.38-3.621l-11.148-6.436Q181.258,382.355,181.78,386.309Zm28.673,4.984v.509l3.1,1.789c.181,1.354.362,2.7.539,4.057l-18.538-10.7-4.169,2.44a29.511,29.511,0,0,1-5.889,2.923,6.416,6.416,0,0,1-.668.121c-3.544.457-6.208-1.884-6.686-5.63h0q-.759-5.691-1.513-11.368l-.862-6.648c1.345.776,2.686,1.556,4.027,2.324h0q.168,1.255.332,2.509a9.458,9.458,0,0,0,1.293.923h0l14.162,8.191c.716-.431,1.431-.823,2.156-1.242l3.682,2.13-2.156,1.237Z" transform="translate(-145.545 -250.51)" fill="#e2dfea"/>
            <path id="Trazado_129705" data-name="Trazado 129705" d="M199,323.11v17.675q10.131,5.854,20.262,11.7V334.806Z" transform="translate(-158.761 -224.529)" fill="#f14290"/>
            <path id="Trazado_129706" data-name="Trazado 129706" d="M199,226.416V232.1l20.262,11.7V188.56L199,176.86v49.577Z" transform="translate(-158.761 -141.328)" fill="#923eff"/>
            <path id="Trazado_129707" data-name="Trazado 129707" d="M198.96,141.285l20.262,11.7,46.65-26.935-20.258-11.7-6.01,3.47-5.268,3.039Z" transform="translate(-158.738 -105.767)" fill="#af8eff"/>
            <path id="Trazado_129708" data-name="Trazado 129708" d="M204.34,143.055l44.335-25.595,17.938,10.355-44.331,25.6Z" transform="translate(-161.798 -107.536)" fill="#923eff"/>
            <path id="Trazado_129709" data-name="Trazado 129709" d="M246,350.24v17.675l4.423,2.556v-10.7q-.5-3.776-1-7.553Z" transform="translate(-185.499 -239.963)" fill="#f14290"/>
            <path id="Trazado_129710" data-name="Trazado 129710" d="M256.22,372.34v10.717l1.548.892h0Z" transform="translate(-191.313 -252.536)" fill="#f14290"/>
            <path id="Trazado_129711" data-name="Trazado 129711" d="M269.318,438.418c.94.914,2.561.4,3.686-.263h0l5.561-3.207-11.153-6.441q.539,3.958,1.056,7.911h0A3.4,3.4,0,0,0,269.318,438.418Zm17.063-3.212q6.311,3.647,12.618,7.286h0v4.251q-8.376-4.841-16.748-9.687l-7.4,4.311c-4.863,2.845-9.394.625-10.032-4.44h0q-.711-5.359-1.431-10.717c-.177-1.354-.358-2.7-.539-4.057-.142-1.082-.289-2.156-.431-3.242l4.027,2.328c.142,1.078.289,2.156.431,3.238L285.95,435.46Z" transform="translate(-194.84 -279.029)" fill="#e2dfea"/>
            <path id="Trazado_129712" data-name="Trazado 129712" d="M402.572,269.389a1.026,1.026,0,0,1-.211-.733.1.1,0,0,1,0-.034c.065-.569.134-1.142.2-1.724-1.569-.905-34.7-18.538-36.269-19.447v5.057l29.5,16.434c1.884-.026,5.841.862,7.7,1.1l.03-.224A1.246,1.246,0,0,1,402.572,269.389Z" transform="translate(-253.931 -181.486)" fill="#e2dfea"/>
            <g id="Grupo_58496" data-name="Grupo 58496" transform="translate(14.491 56.838)">
              <path id="Trazado_129713" data-name="Trazado 129713" d="M168.024,226.29a8.424,8.424,0,0,0-4.682,1.19l-9.959,5.751a11.209,11.209,0,0,0-3.246,2.871,14.227,14.227,0,0,0-2.337,4.574,16.994,16.994,0,0,0,.086,10.015l7.169,22.418.039.121a13.955,13.955,0,0,0,2.156,4.169,8.626,8.626,0,0,0,6.32,3.565h0l2.156.116a7.717,7.717,0,0,1-2.875-.776,11.449,11.449,0,0,1-5.535-7.07l-7.169-22.439a16.942,16.942,0,0,1-.082-10.01,12.786,12.786,0,0,1,5.579-7.449l9.959-5.751a8.428,8.428,0,0,1,4.6-1.194Z" transform="translate(-143.72 -226.283)" fill="#c61c6f"/>
              <path id="Trazado_129714" data-name="Trazado 129714" d="M190.383,266.766a11.048,11.048,0,0,1-5.044,8.583l-9.959,5.751a6.413,6.413,0,0,1-6.592.151,7.329,7.329,0,0,1-1.574-1.207,10.7,10.7,0,0,1-2.544-4.346L157.5,253.259a13.852,13.852,0,0,1-.591-5.574,11.063,11.063,0,0,1,5.044-8.579l9.959-5.751a7.558,7.558,0,0,1,1.38-.625,6.432,6.432,0,0,1,6.8,1.677,10.777,10.777,0,0,1,2.539,4.35l7.169,22.418a13.942,13.942,0,0,1,.578,5.591Zm-26.668-19.542a2.131,2.131,0,0,0,2.022-.246,3.389,3.389,0,0,0,1.582-1.845,3.733,3.733,0,0,0,0-2.414,2.475,2.475,0,0,0-1.293-1.612,2.219,2.219,0,0,0-2.048.272l-.207.129q.72,2.25,1.44,4.505a1.531,1.531,0,0,1-1.362.116,1.574,1.574,0,0,1-.815-1.026,2.155,2.155,0,0,1,.453-2.156l-.431-1a3.074,3.074,0,0,0-.819,1.569,3.88,3.88,0,0,0,.155,1.957,2.686,2.686,0,0,0,1.323,1.746Zm3.018,6.165c-.065-.358-.134-.72-.2-1.082a.94.94,0,0,1-.862-.056,1.69,1.69,0,0,1-.6-.944,2.2,2.2,0,0,1-.112-1.177.935.935,0,0,1,.431-.642.431.431,0,0,1,.517.056c.315.267.974,1.655,1.483,2.233a1.017,1.017,0,0,0,1.358.263,1.806,1.806,0,0,0,.8-1.293c.211-1.19-.5-3.173-1.405-3.427a1.44,1.44,0,0,0-.836.065c.069.354.142.707.216,1.065a.711.711,0,0,1,.69.069,1.492,1.492,0,0,1,.5.806,2.311,2.311,0,0,1,.142,1.112.754.754,0,0,1-.328.543c-.25.147-.474,0-.655-.233s-.905-1.556-1.341-2.091a1.212,1.212,0,0,0-.634-.431,1.009,1.009,0,0,0-.759.151,1.668,1.668,0,0,0-.651.729,3.518,3.518,0,0,0-.052,2.561c.358,1.28,1.013,2.138,2.281,1.724Zm.931,6.139a2.15,2.15,0,0,0,2.022-.25,3.363,3.363,0,0,0,1.582-1.841,3.764,3.764,0,0,0,0-2.414,2.475,2.475,0,0,0-1.293-1.612,2.2,2.2,0,0,0-2.048.272l-.207.129q.716,2.25,1.44,4.505a1.53,1.53,0,0,1-1.362.116,1.573,1.573,0,0,1-.815-1.026,2.156,2.156,0,0,1,.453-2.156l-.431-1a3.1,3.1,0,0,0-.819,1.574,3.88,3.88,0,0,0,.155,1.957,2.686,2.686,0,0,0,1.306,1.746Zm2.069,6.467a2.15,2.15,0,0,0,2.022-.25,3.358,3.358,0,0,0,1.582-1.845,3.69,3.69,0,0,0,0-2.41,2.453,2.453,0,0,0-1.272-1.612,2.184,2.184,0,0,0-2.043.272l-.211.129,1.44,4.5a1.517,1.517,0,0,1-1.362.121,1.608,1.608,0,0,1-.815-1.026,2.156,2.156,0,0,1,.431-2.156l-.431-1a3.139,3.139,0,0,0-.819,1.574,3.88,3.88,0,0,0,.155,1.957,2.686,2.686,0,0,0,1.306,1.759Zm3.406,1.608a1.065,1.065,0,0,1,.97-.168,1.194,1.194,0,0,1,.573.785,2.125,2.125,0,0,1-.224,1.819,2.586,2.586,0,0,1-.806.668l-2.565,1.483c.112.341.22.681.328,1.022l6.467-3.733c-.112-.341-.22-.681-.328-1.022l-2.319,1.336a3.2,3.2,0,0,0,.065-2.177,2.63,2.63,0,0,0-.578-1.048,1.1,1.1,0,0,0-.793-.384,2.423,2.423,0,0,0-1.117.392l-2.97,1.724c.112.341.22.681.328,1.022Zm.69-26.974a2.01,2.01,0,0,1,.72-.293.578.578,0,0,1,.431.164,1.233,1.233,0,0,1,.323.543,2.018,2.018,0,0,1,0,1.246,1.884,1.884,0,0,1-.918,1.03l-2.72,1.569c.112.341.22.681.328,1.022l3.044-1.755a1.173,1.173,0,0,1,.862-.207c.233.065.405.285.53.664a1.966,1.966,0,0,1-1.194,2.462l-2.431,1.4c.112.345.22.685.328,1.026l4.682-2.7c-.095-.306-.194-.612-.289-.918l-.66.379a2.88,2.88,0,0,0,.31-1.073,2.949,2.949,0,0,0-.134-1.2,2.1,2.1,0,0,0-.569-.974,1.013,1.013,0,0,0-.793-.259,3.018,3.018,0,0,0,.22-2.337,1.8,1.8,0,0,0-.823-1.16,1.418,1.418,0,0,0-1.345.2l-3.216,1.854c.112.341.22.681.328,1.017Zm-.172,37.666A2.212,2.212,0,0,0,175.7,278a3.8,3.8,0,0,0,1.224-1.091,2.932,2.932,0,0,0,.539-1.479,4.1,4.1,0,0,0-.177-1.6c-.366-1.142-1.1-1.91-2.255-1.556.069.354.134.707.2,1.065a1.082,1.082,0,0,1,.862.091,1.293,1.293,0,0,1,.513.737,2.2,2.2,0,0,1-.026,1.5,2.587,2.587,0,0,1-1.207,1.267,1.825,1.825,0,0,1-1.517.328,1.405,1.405,0,0,1-.819-.97,2.018,2.018,0,0,1-.035-1.173,2,2,0,0,1,.724-1.009l-.431-.948a3.2,3.2,0,0,0-.914,3.509,2.488,2.488,0,0,0,1.259,1.63Zm.9-26.591a4.51,4.51,0,0,0,.03,2.617,2.229,2.229,0,0,0,.862,1.315,1.073,1.073,0,0,0,1.138-.022,1.918,1.918,0,0,0,.862-1.358,4.816,4.816,0,0,0-.147-1.867,12.31,12.31,0,0,1-.31-1.983l.2-.125a.767.767,0,0,1,.78-.1,1.755,1.755,0,0,1,.638,1.009,2.508,2.508,0,0,1,.147,1.181,1.811,1.811,0,0,1-.53.91c.138.315.28.625.431.94a2.621,2.621,0,0,0,.625-.879,4.993,4.993,0,0,0-.634-3.82,1.375,1.375,0,0,0-.582-.5,1.048,1.048,0,0,0-.642,0,3.846,3.846,0,0,0-.75.375c-.405.237-2.035,1.19-2.479,1.345a1.414,1.414,0,0,1-.642.073c.112.358.228.711.341,1.069a1.449,1.449,0,0,0,.642-.16Zm3.143,10.015a2.122,2.122,0,0,0,2.022-.25,3.363,3.363,0,0,0,1.582-1.841,3.763,3.763,0,0,0,0-2.414,2.466,2.466,0,0,0-1.293-1.612,2.217,2.217,0,0,0-2.043.272l-.207.129q.716,2.25,1.44,4.505a1.548,1.548,0,0,1-1.362.121,1.6,1.6,0,0,1-.815-1.026,2.156,2.156,0,0,1,.453-2.156l-.431-1a3.074,3.074,0,0,0-.819,1.569,3.88,3.88,0,0,0,.155,1.957,2.656,2.656,0,0,0,1.3,1.755Zm5.51,1.94c-.1-.306-.194-.616-.293-.923l-.711.41a3.074,3.074,0,0,0,.431-1.03,1.819,1.819,0,0,0-.642-1.651l-.621.776a1.418,1.418,0,0,1,.134,1.979,3.389,3.389,0,0,1-.862.7q-1.229.7-2.453,1.414c.108.345.22.685.328,1.026Zm-2.444,7.76a2.2,2.2,0,0,0,2.043-.285,3.85,3.85,0,0,0,1.224-1.091,2.988,2.988,0,0,0,.539-1.479,4.13,4.13,0,0,0-.177-1.608c-.366-1.138-1.1-1.905-2.255-1.556.069.353.134.711.2,1.065a1.065,1.065,0,0,1,.862.095,1.267,1.267,0,0,1,.517.733,2.225,2.225,0,0,1-.026,1.5,2.587,2.587,0,0,1-1.207,1.272,1.836,1.836,0,0,1-1.517.323,1.405,1.405,0,0,1-.819-.97,2.018,2.018,0,0,1-.035-1.173,2,2,0,0,1,.72-1.022l-.431-.948a3.2,3.2,0,0,0-.914,3.509,2.466,2.466,0,0,0,1.28,1.655Z" transform="translate(-149.27 -229.748)" fill="#fcf"/>
              <path id="Trazado_129715" data-name="Trazado 129715" d="M176.313,227.359a11.444,11.444,0,0,1,5.535,7.074l7.169,22.439a16.977,16.977,0,0,1,.086,10.01,12.743,12.743,0,0,1-5.6,7.445l-9.959,5.751a8.351,8.351,0,0,1-4.794,1.186,7.716,7.716,0,0,1-2.875-.776,11.449,11.449,0,0,1-5.535-7.07l-7.169-22.439a16.942,16.942,0,0,1-.082-10.01,12.786,12.786,0,0,1,5.579-7.45l9.959-5.751a8.428,8.428,0,0,1,4.6-1.194h0A7.76,7.76,0,0,1,176.313,227.359Zm10.937,30.531-7.169-22.417a10.778,10.778,0,0,0-2.539-4.35,6.432,6.432,0,0,0-6.794-1.694,7.559,7.559,0,0,0-1.367.625l-9.967,5.755a11.043,11.043,0,0,0-5.044,8.579,13.852,13.852,0,0,0,.591,5.574l7.165,22.435a10.7,10.7,0,0,0,2.544,4.367,7.329,7.329,0,0,0,1.574,1.207,6.443,6.443,0,0,0,6.592-.151l9.959-5.751a11.021,11.021,0,0,0,5.044-8.583A13.942,13.942,0,0,0,187.251,257.89Z" transform="translate(-146.724 -226.446)" fill="#f14290"/>
              <path id="Trazado_129716" data-name="Trazado 129716" d="M139.932,263.941l2.763,8.622,2.1,6.583.2.629a9.5,9.5,0,0,0,4.173,5.583.06.06,0,0,0,.034,0l1.449.815a.152.152,0,0,0-.039-.129l-2.781-8.678-2.1-6.579-2.3-7.178a16.943,16.943,0,0,1-.078-10.01,14.17,14.17,0,0,1,2.337-4.578l-1.293.742a9.639,9.639,0,0,0-3.557,3.725A13.425,13.425,0,0,0,139.932,263.941Z" transform="translate(-139.274 -239.218)" fill="#ff74b8"/>
              <path id="Trazado_129717" data-name="Trazado 129717" d="M170.169,253.3l.431,1a2.156,2.156,0,0,0-.453,2.156,1.574,1.574,0,0,0,.815,1.026,1.53,1.53,0,0,0,1.362-.116q-.724-2.25-1.44-4.505l.207-.129a2.2,2.2,0,0,1,2.048-.272,2.475,2.475,0,0,1,1.293,1.612,3.733,3.733,0,0,1,0,2.414,3.388,3.388,0,0,1-1.582,1.845,2.143,2.143,0,0,1-2.022.246,2.686,2.686,0,0,1-1.293-1.724,3.88,3.88,0,0,1-.155-1.957,3.074,3.074,0,0,1,.789-1.591Zm3.608,2.522a2.276,2.276,0,0,0,0-1.4,1.462,1.462,0,0,0-.862-1,1.349,1.349,0,0,0-1.009.125q.539,1.69,1.078,3.371A2,2,0,0,0,173.778,255.822Z" transform="translate(-156.367 -241.088)" fill="#c61c6f"/>
              <path id="Trazado_129718" data-name="Trazado 129718" d="M174.106,268.81a3.518,3.518,0,0,0-.052,2.561c.405,1.267,1.061,2.125,2.328,1.724-.065-.358-.134-.72-.2-1.082a.94.94,0,0,1-.862-.056,1.69,1.69,0,0,1-.6-.944,2.2,2.2,0,0,1-.112-1.177.936.936,0,0,1,.431-.642.431.431,0,0,1,.517.056c.315.267.974,1.655,1.483,2.233a1.017,1.017,0,0,0,1.358.263,1.806,1.806,0,0,0,.8-1.293c.211-1.19-.5-3.173-1.405-3.427a1.44,1.44,0,0,0-.836.065c.069.354.142.707.216,1.065a.711.711,0,0,1,.69.069,1.492,1.492,0,0,1,.5.806,2.311,2.311,0,0,1,.142,1.112.754.754,0,0,1-.328.543c-.25.147-.474,0-.655-.233s-.905-1.556-1.341-2.091a1.211,1.211,0,0,0-.634-.431,1.009,1.009,0,0,0-.759.151A1.669,1.669,0,0,0,174.106,268.81Z" transform="translate(-158.938 -249.441)" fill="#c61c6f"/>
              <path id="Trazado_129719" data-name="Trazado 129719" d="M175.28,254.95q.539,1.69,1.078,3.371a2,2,0,0,0,.81-1.1,2.276,2.276,0,0,0,0-1.4,1.462,1.462,0,0,0-.862-1A1.349,1.349,0,0,0,175.28,254.95Z" transform="translate(-159.758 -242.492)" fill="#fcf"/>
              <path id="Trazado_129720" data-name="Trazado 129720" d="M179.289,281.836l.431,1a2.155,2.155,0,0,0-.453,2.156,1.574,1.574,0,0,0,.815,1.026,1.53,1.53,0,0,0,1.362-.116q-.724-2.259-1.44-4.505l.207-.129A2.2,2.2,0,0,1,182.26,281a2.475,2.475,0,0,1,1.293,1.612,3.764,3.764,0,0,1,0,2.414,3.363,3.363,0,0,1-1.582,1.841,2.131,2.131,0,0,1-2.022.25,2.686,2.686,0,0,1-1.293-1.724,3.88,3.88,0,0,1-.155-1.957A3.1,3.1,0,0,1,179.289,281.836Zm3.608,2.526a2.272,2.272,0,0,0,0-1.4,1.462,1.462,0,0,0-.862-1,1.35,1.35,0,0,0-1.009.125c.358,1.125.716,2.246,1.078,3.371A2.009,2.009,0,0,0,182.9,284.362Z" transform="translate(-161.555 -257.324)" fill="#c61c6f"/>
              <path id="Trazado_129721" data-name="Trazado 129721" d="M184.089,296.871l.431,1a2.156,2.156,0,0,0-.431,2.156,1.608,1.608,0,0,0,.815,1.026,1.517,1.517,0,0,0,1.362-.121q-.716-2.25-1.44-4.5l.211-.129a2.239,2.239,0,0,1,2.043-.272,2.453,2.453,0,0,1,1.272,1.612,3.69,3.69,0,0,1,0,2.41,3.358,3.358,0,0,1-1.582,1.845,2.129,2.129,0,0,1-2.022.25,2.686,2.686,0,0,1-1.293-1.724,3.88,3.88,0,0,1-.155-1.957,3.138,3.138,0,0,1,.789-1.6Zm3.608,2.522a2.276,2.276,0,0,0,0-1.4,1.466,1.466,0,0,0-.862-1,1.332,1.332,0,0,0-1.009.125c.358,1.121.72,2.246,1.078,3.371a2.018,2.018,0,0,0,.793-1.108Z" transform="translate(-164.286 -265.88)" fill="#c61c6f"/>
              <path id="Trazado_129722" data-name="Trazado 129722" d="M184.4,283.49c.358,1.125.716,2.246,1.078,3.371a2.009,2.009,0,0,0,.81-1.1,2.272,2.272,0,0,0,0-1.4,1.461,1.461,0,0,0-.862-1,1.349,1.349,0,0,0-1.026.125Z" transform="translate(-164.946 -258.728)" fill="#fcf"/>
              <path id="Trazado_129723" data-name="Trazado 129723" d="M187,312.921c.112.341.22.681.328,1.022l2.97-1.724a1.065,1.065,0,0,1,.97-.168,1.194,1.194,0,0,1,.573.785,2.125,2.125,0,0,1-.224,1.819,2.586,2.586,0,0,1-.806.668l-2.565,1.483c.112.341.22.681.328,1.022l6.467-3.733c-.112-.341-.22-.681-.328-1.022l-2.319,1.336a3.2,3.2,0,0,0,.065-2.177,2.63,2.63,0,0,0-.578-1.048,1.1,1.1,0,0,0-.793-.384,2.423,2.423,0,0,0-1.117.392Z" transform="translate(-166.425 -274.364)" fill="#c61c6f"/>
              <path id="Trazado_129724" data-name="Trazado 129724" d="M188.6,250.313c.112.341.22.681.328,1.017l2.949-1.7a2.009,2.009,0,0,1,.72-.293.578.578,0,0,1,.431.164,1.233,1.233,0,0,1,.323.543,2.018,2.018,0,0,1,0,1.246,1.884,1.884,0,0,1-.918,1.03l-2.72,1.569c.112.341.22.681.328,1.022l3.044-1.755a1.173,1.173,0,0,1,.862-.207c.233.065.405.285.53.664a1.966,1.966,0,0,1-1.194,2.462l-2.431,1.4c.112.345.22.685.328,1.026l4.682-2.7c-.095-.306-.194-.612-.289-.918l-.66.379a2.88,2.88,0,0,0,.31-1.073,2.949,2.949,0,0,0-.134-1.2,2.1,2.1,0,0,0-.569-.974,1.013,1.013,0,0,0-.793-.259,3.018,3.018,0,0,0,.22-2.337,1.8,1.8,0,0,0-.823-1.16,1.418,1.418,0,0,0-1.345.2Z" transform="translate(-167.335 -238.734)" fill="#c61c6f"/>
              <path id="Trazado_129725" data-name="Trazado 129725" d="M189.2,298.518c.358,1.121.72,2.246,1.078,3.371a2.018,2.018,0,0,0,.81-1.1,2.276,2.276,0,0,0,0-1.4,1.466,1.466,0,0,0-.862-1,1.332,1.332,0,0,0-1.026.125Z" transform="translate(-167.677 -267.277)" fill="#fcf"/>
              <path id="Trazado_129726" data-name="Trazado 129726" d="M193.541,325.725a3.2,3.2,0,0,0-.914,3.509,2.488,2.488,0,0,0,1.263,1.63,2.211,2.211,0,0,0,2.043-.289,3.8,3.8,0,0,0,1.224-1.091,2.932,2.932,0,0,0,.539-1.479,4.1,4.1,0,0,0-.177-1.6c-.366-1.142-1.1-1.91-2.255-1.556.069.354.134.707.2,1.065a1.082,1.082,0,0,1,.862.091,1.293,1.293,0,0,1,.513.737,2.2,2.2,0,0,1-.026,1.5,2.586,2.586,0,0,1-1.207,1.267,1.825,1.825,0,0,1-1.518.328,1.405,1.405,0,0,1-.819-.97,2.017,2.017,0,0,1-.035-1.173,2,2,0,0,1,.737-1.022Z" transform="translate(-169.517 -282.305)" fill="#c61c6f"/>
              <path id="Trazado_129727" data-name="Trazado 129727" d="M196.224,272.554c.431-.155,2.074-1.108,2.479-1.345a3.849,3.849,0,0,1,.75-.375,1.048,1.048,0,0,1,.642,0,1.375,1.375,0,0,1,.582.5,4.078,4.078,0,0,1,.543,1.177,4.008,4.008,0,0,1,.091,2.643,2.621,2.621,0,0,1-.664.914c-.142-.315-.285-.625-.431-.94a1.81,1.81,0,0,0,.53-.91,2.509,2.509,0,0,0-.147-1.181,1.755,1.755,0,0,0-.638-1.009.767.767,0,0,0-.78.1l-.2.125a12.313,12.313,0,0,0,.31,1.983,4.816,4.816,0,0,1,.147,1.867,1.918,1.918,0,0,1-.862,1.358,1.073,1.073,0,0,1-1.138.022,2.229,2.229,0,0,1-.862-1.315,4.509,4.509,0,0,1-.03-2.617,1.449,1.449,0,0,1-.642.129c-.112-.358-.228-.711-.341-1.069a1.414,1.414,0,0,0,.664-.065Zm1.414,3.815a.582.582,0,0,0,.629,0,1.039,1.039,0,0,0,.461-.914c0-.612-.362-1.8-.362-2.832a3.018,3.018,0,0,0-1.035.793,2.557,2.557,0,0,0-.194,2.156A1.367,1.367,0,0,0,197.638,276.369Z" transform="translate(-171.295 -251.599)" fill="#c61c6f"/>
              <path id="Trazado_129728" data-name="Trazado 129728" d="M199.213,275.842a2.557,2.557,0,0,0-.194,2.156,1.367,1.367,0,0,0,.5.789.582.582,0,0,0,.629,0,1.039,1.039,0,0,0,.461-.914c0-.612-.362-1.8-.362-2.832a3.018,3.018,0,0,0-1.035.8Z" transform="translate(-173.175 -254.02)" fill="#fcf"/>
              <path id="Trazado_129729" data-name="Trazado 129729" d="M202.564,286.944l.431,1a2.155,2.155,0,0,0-.453,2.156,1.6,1.6,0,0,0,.815,1.026,1.548,1.548,0,0,0,1.362-.121q-.724-2.25-1.44-4.505l.207-.129a2.195,2.195,0,0,1,2.043-.272,2.466,2.466,0,0,1,1.293,1.612,3.764,3.764,0,0,1,0,2.414,3.363,3.363,0,0,1-1.582,1.841,2.145,2.145,0,0,1-2.022.25,2.655,2.655,0,0,1-1.293-1.724,3.88,3.88,0,0,1-.155-1.957A3.074,3.074,0,0,1,202.564,286.944Zm3.608,2.522a2.306,2.306,0,0,0,0-1.4,1.448,1.448,0,0,0-.862-1,1.349,1.349,0,0,0-1.009.125c.358,1.125.716,2.246,1.078,3.371a2,2,0,0,0,.793-1.1Z" transform="translate(-174.793 -260.226)" fill="#c61c6f"/>
              <path id="Trazado_129730" data-name="Trazado 129730" d="M206.4,302.4c.108.345.22.685.328,1.026l4.673-2.7c-.1-.306-.194-.616-.293-.923l-.711.41a3.074,3.074,0,0,0,.431-1.03,1.819,1.819,0,0,0-.642-1.651l-.621.776a1.418,1.418,0,0,1,.134,1.979,3.389,3.389,0,0,1-.862.7Z" transform="translate(-177.462 -266.815)" fill="#c61c6f"/>
              <path id="Trazado_129731" data-name="Trazado 129731" d="M207.68,288.6c.358,1.125.716,2.246,1.078,3.371a2,2,0,0,0,.81-1.1,2.306,2.306,0,0,0,0-1.4,1.449,1.449,0,0,0-.862-1A1.349,1.349,0,0,0,207.68,288.6Z" transform="translate(-178.19 -261.635)" fill="#fcf"/>
              <path id="Trazado_129732" data-name="Trazado 129732" d="M210.081,309.777a3.2,3.2,0,0,0-.914,3.509,2.466,2.466,0,0,0,1.263,1.63,2.2,2.2,0,0,0,2.043-.285,3.85,3.85,0,0,0,1.224-1.091,2.988,2.988,0,0,0,.539-1.479,4.13,4.13,0,0,0-.177-1.608c-.366-1.138-1.1-1.906-2.255-1.556.069.354.134.711.2,1.065a1.065,1.065,0,0,1,.862.095,1.267,1.267,0,0,1,.517.733,2.225,2.225,0,0,1-.026,1.5,2.587,2.587,0,0,1-1.207,1.272,1.836,1.836,0,0,1-1.518.323,1.405,1.405,0,0,1-.819-.97,2.018,2.018,0,0,1-.034-1.173,2,2,0,0,1,.72-1.022Z" transform="translate(-178.927 -273.234)" fill="#c61c6f"/>
            </g>
            <path id="Trazado_129733" data-name="Trazado 129733" d="M452.57,298.362a32.335,32.335,0,0,1,8.251,2.156l-5.7-3.3v.129h0q0,.078-.116.155a1.939,1.939,0,0,1-.388.2,4.823,4.823,0,0,1-2,.431Z" transform="translate(-303.015 -209.8)" fill="#e2dfea"/>
            <path id="Trazado_129734" data-name="Trazado 129734" d="M453.636,262.207l2.832-24.543q-1.724-1.009-3.475-2-1.423,12.274-2.832,24.543c-.065.569-.134,1.142-.2,1.724a.1.1,0,0,0,0,.034,1.026,1.026,0,0,0,.211.733,1.246,1.246,0,0,0,.944.431,4.823,4.823,0,0,0,2-.431,1.939,1.939,0,0,0,.388-.2q.116-.078.116-.155h0C453.628,262.294,453.632,262.255,453.636,262.207Z" transform="translate(-301.529 -174.779)" fill="#e2dfea"/>
            <path id="Trazado_129735" data-name="Trazado 129735" d="M515.652,385.591a17.329,17.329,0,0,1-4.471,7.493c-.142,1.069-.289,2.156-.431,3.216q2.5-1.453,5.018-2.9h0a19.954,19.954,0,0,0,3.449-6.9h0q1.862-7.424,3.716-14.86-2.225,1.293-4.436,2.556Q517.079,379.9,515.652,385.591Z" transform="translate(-336.113 -252.137)" fill="#e2dfea"/>
            <path id="Trazado_129736" data-name="Trazado 129736" d="M538.317,315.388a6.061,6.061,0,0,0,1.513-.431c.1-.052.28-.147.306-.25h0l.039-.155q2.858-11.446,5.712-22.887-1.664-.966-3.32-1.914-2.863,11.433-5.708,22.874c-.116.479-.241.957-.358,1.44h0a1.009,1.009,0,0,0,.832,1.319A2.764,2.764,0,0,0,538.317,315.388Z" transform="translate(-350.734 -205.551)" fill="#e2dfea"/>
            <path id="Trazado_129737" data-name="Trazado 129737" d="M445.24,292.338a6.061,6.061,0,0,1-1.513.431,2.763,2.763,0,0,1-.979,0,1.009,1.009,0,0,1-.832-1.319h0c.116-.483.241-.961.358-1.44l-23.1-13.334c2.9,2.328-48.034-29.345-48.133-26.5,0,.754-.862,4.311-.862,5.053,5.475,3.164,64.209,38.028,69.68,41.184l6.751-3.88-1.035-.595-.039.155h0C445.52,292.192,445.339,292.287,445.24,292.338Z" transform="translate(-256.144 -182.937)" fill="#e2dfea"/>
            <path id="Trazado_129738" data-name="Trazado 129738" d="M547.5,363.154q2,1.16,4,2.311c.22-1.668.431-3.337.673-5.005Z" transform="translate(-357.02 -245.777)" fill="#e2dfea"/>
            <path id="Trazado_129739" data-name="Trazado 129739" d="M552.988,377.972c.828.517,2,.94,2.587.172a1.294,1.294,0,0,0,.241-.552.786.786,0,0,0,.026-.151c.142-1.082.293-2.156.431-3.255q.664-4.9,1.323-9.808l.961-7.23c.1-.7.194-1.4.284-2.1l-4.031,2.332c-.224,1.668-.453,3.337-.672,5.005q-.957,7.061-1.906,14.123c-.022.19-.047.379-.073.569h0a.789.789,0,0,0,.319.522,3.669,3.669,0,0,0,.509.371Z" transform="translate(-359.671 -242.7)" fill="#e2dfea"/>
            <g id="Grupo_58497" data-name="Grupo 58497" transform="translate(75.875)">
              <path id="Trazado_129740" data-name="Trazado 129740" d="M284.393,132.37l47.741,27.561v22.357q-1.151,1.668-2.294,3.345l-7.562,11.023L281.66,173.2Zm40.352,56.656q.392-11.933.785-23.862L290.42,144.9l-.789,23.862Z" transform="translate(-281.66 -116.018)" fill="#826c5e"/>
              <path id="Trazado_129741" data-name="Trazado 129741" d="M288,118.455l47.741,27.561V135.07l-47.025-27.16Z" transform="translate(-285.267 -102.103)" fill="#9c8272"/>
              <path id="Trazado_129742" data-name="Trazado 129742" d="M300.959,161.42l-.789,23.862,35.114,20.262q.392-11.933.785-23.862Z" transform="translate(-292.19 -132.545)" fill="#ffb229"/>
              <path id="Trazado_129743" data-name="Trazado 129743" d="M299.735,94.44l-10.075,5.816,47.025,27.151,10.075-5.816Z" transform="translate(-286.211 -94.44)" fill="#b89784"/>
              <path id="Trazado_129744" data-name="Trazado 129744" d="M398.75,188.047V210.4q1.582-2.337,3.207-4.669a.692.692,0,0,1,.073-.129c1.634-2.393,4.82-4.639,8.661-6.363l-.134-1.91-.535-8.118-.5-7.415c-2.061,1.186-4.117,2.371-6.178,3.578C401.811,186.266,400.289,187.154,398.75,188.047Z" transform="translate(-348.272 -144.139)" fill="#9e8272"/>
              <path id="Trazado_129745" data-name="Trazado 129745" d="M409.522,167.956l-.707-10.536-10.075,5.816v10.946Z" transform="translate(-348.266 -130.269)" fill="#c5a18d"/>
            </g>
            <g id="Grupo_58498" data-name="Grupo 58498" transform="translate(66.36 39.182)">
              <path id="Trazado_129746" data-name="Trazado 129746" d="M287.909,249.033a53.306,53.306,0,0,1,1.724,12.933,102.635,102.635,0,0,1-.509,13.623c-.276,2.617-.634,4.949-1.03,6.833a20.755,20.755,0,0,1-2.087,6.035,9.785,9.785,0,0,1-5.109,4.014,18.662,18.662,0,0,1-9.821.759,12,12,0,0,1-7.126-3.794,12.153,12.153,0,0,1-2.03-4.1c-2.156-6.975-3.251-22.754-1.367-32.893,1.651-8.881,5.488-12.662,7.294-16.128,1.138-2.177,1.66-16.748,1.155-20.137a8.622,8.622,0,0,0,3.367,1.362,10.955,10.955,0,0,0,7.674-1.22l.207-.147c-.953,6.518,1.772,20.887,4.552,25.629a30.8,30.8,0,0,1,3.1,7.234Zm-18,26.043a25.073,25.073,0,0,0,12.183-.7c-.034-3.6.022-7.376.2-10.9a24.142,24.142,0,0,1-12.252.823c-3.259-.625-7.083-2.156-8.967-4.889-.155,3.018-.246,6.833-.207,10.9C262.87,272.964,266.638,274.451,269.906,275.076Z" transform="translate(-259.589 -202.874)" fill="url(#linear-gradient)"/>
              <path id="Trazado_129747" data-name="Trazado 129747" d="M262.715,316.48c-.155,3.018-.246,6.833-.207,10.9,2,2.651,5.773,4.139,9.053,4.764a25.073,25.073,0,0,0,12.183-.7c-.034-3.6.022-7.376.2-10.9a24.142,24.142,0,0,1-12.252.823C268.436,320.744,264.612,319.226,262.715,316.48Z" transform="translate(-261.245 -259.939)" fill="#ffba00"/>
              <path id="Trazado_129748" data-name="Trazado 129748" d="M292.211,202.365V196.48a2.884,2.884,0,0,1-.862,1.97,6.7,6.7,0,0,1-2.871,1.66,11.886,11.886,0,0,1-5.682.293,8.51,8.51,0,0,1-3.332-1.336,3.367,3.367,0,0,1-1.574-2.587v5.928a2.841,2.841,0,0,0,.759,1.849,4.518,4.518,0,0,0,.78.707h0a8.623,8.623,0,0,0,3.367,1.362,10.955,10.955,0,0,0,7.674-1.22l.207-.147A3.257,3.257,0,0,0,292.211,202.365Z" transform="translate(-270 -191.672)" fill="#99264b"/>
              <path id="Trazado_129749" data-name="Trazado 129749" d="M284.378,186.438c-3.018,1-3.677,3.281-1.574,4.8a8.457,8.457,0,0,0,8.282.259c2.44-1.405,2.069-3.716-.66-4.867A9.118,9.118,0,0,0,284.378,186.438Z" transform="translate(-272.099 -185.717)" fill="#99264b"/>
              <path id="Trazado_129750" data-name="Trazado 129750" d="M288.985,191.1c2.44-1.405,2.069-3.716-.66-4.867a9.118,9.118,0,0,0-6.035-.19c-3.018,1-3.677,3.281-1.574,4.8A8.433,8.433,0,0,0,288.985,191.1Zm-9.1-4.35c3.069-2.108,8.622-1.862,11.114.651a3.9,3.9,0,0,1,1.211,2.669v.065a2.884,2.884,0,0,1-.862,1.97,6.7,6.7,0,0,1-2.871,1.66,11.886,11.886,0,0,1-5.682.293,8.509,8.509,0,0,1-3.332-1.336,3.367,3.367,0,0,1-1.574-2.587h0a1.043,1.043,0,0,1,0-.116A4.19,4.19,0,0,1,279.884,186.751Z" transform="translate(-269.998 -185.327)" fill="#ac3861"/>
            </g>
            <g id="Grupo_58500" data-name="Grupo 58500" transform="translate(78.763 71.79)">
              <path id="Trazado_129751" data-name="Trazado 129751" d="M307.523,321.643l18.969-1.293-10.213-7.29-19.49-3.19S271.966,319.143,307.523,321.643Z" transform="translate(-288.361 -288.787)" fill="#c3bccf"/>
              <g id="Grupo_58499" data-name="Grupo 58499" transform="translate(8.415)">
                <path id="Trazado_129752" data-name="Trazado 129752" d="M320.619,303.022c.763-1.539,2.927-2.25,5.1-1.457a5.173,5.173,0,0,1,2.444,1.845,3.5,3.5,0,0,1,.664,2l8.76,1.168V293.163l-12.528-1.677.147.112c1.66,1.319,1.69,3.449,0,4.341a3.961,3.961,0,0,1-4.9-1.457,2.29,2.29,0,0,1,.974-3.5l-4.928-.66a3.138,3.138,0,0,1-.228,1.186,3.225,3.225,0,0,1-.948,1.293,4.682,4.682,0,0,1-3.6.892,3.29,3.29,0,0,1-2.216-1.345,6.035,6.035,0,0,1-1.009-3.065c-.052-.535-.086-1.125-.086-1.677a6.281,6.281,0,0,1-.379-2v13.274a6.29,6.29,0,0,0,.466,2.354,2.94,2.94,0,0,0,1.664,1.453,6.372,6.372,0,0,0,1.561.431l8.764,1.168a2.785,2.785,0,0,1,.25-1.181Z" transform="translate(-307.88 -274.985)" fill="#f6b216"/>
                <path id="Trazado_129753" data-name="Trazado 129753" d="M316.973,291.415a2.1,2.1,0,0,0-.823-1.66,5.8,5.8,0,0,0-2.975-1.19,7.673,7.673,0,0,0-4.415.673c0,.552.034,1.142.086,1.677a6.036,6.036,0,0,0,1.009,3.065,3.289,3.289,0,0,0,2.216,1.345,4.682,4.682,0,0,0,3.6-.892,3.225,3.225,0,0,0,.948-1.293,3.139,3.139,0,0,0,.228-1.186A1.859,1.859,0,0,0,316.973,291.415Z" transform="translate(-308.381 -276.621)" fill="#e6a015"/>
                <path id="Trazado_129754" data-name="Trazado 129754" d="M326.161,267.786a1.724,1.724,0,0,0-.371,1.043,1.944,1.944,0,0,0,.729,1.431c1.724,1.552,5.6,1.642,7.536.177,1.651-1.246,1.086-3.091-1.345-3.906a7.635,7.635,0,0,0-4.311-.1,4.16,4.16,0,0,0-2.237,1.354Z" transform="translate(-318.069 -263.926)" fill="#e6a015"/>
                <path id="Trazado_129755" data-name="Trazado 129755" d="M316.335,267.3c1.724,1.552,5.6,1.642,7.536.177,1.651-1.246,1.086-3.091-1.345-3.906a7.635,7.635,0,0,0-4.311-.1,4.16,4.16,0,0,0-2.246,1.354,1.724,1.724,0,0,0-.371,1.043A1.944,1.944,0,0,0,316.335,267.3Zm16.563,4.212a6.871,6.871,0,0,0,3.052.819,8.7,8.7,0,0,0,1.724-.082l2.483,5.359a.738.738,0,0,1,.073.323.862.862,0,0,1-.285.616,3.028,3.028,0,0,1-2.354.595l-12.528-1.677a6.091,6.091,0,0,0-3.781-.5l-4.928-.66a1.858,1.858,0,0,0,.125-.547,2.1,2.1,0,0,0-.823-1.66,5.8,5.8,0,0,0-2.975-1.19,7.674,7.674,0,0,0-4.414.673,6.281,6.281,0,0,1-.379-2,7.135,7.135,0,0,1,1.9-4.8,16.337,16.337,0,0,1,7.182-4.41,30.048,30.048,0,0,1,13.261-1.117c1.177.164,2.664.707,3.16,1.776l1.724,3.712a5.6,5.6,0,0,0-2.944,1.272,2.061,2.061,0,0,0-.716,1.479v.069A2.493,2.493,0,0,0,332.9,271.512Z" transform="translate(-307.886 -260.965)" fill="#f7ba56"/>
                <path id="Trazado_129756" data-name="Trazado 129756" d="M337.02,323.688a2.785,2.785,0,0,0-.25,1.181,2.457,2.457,0,0,1,.966-1.091,6.615,6.615,0,0,1,4.259-.793A5.238,5.238,0,0,1,344.581,324a5.173,5.173,0,0,0-2.444-1.845c-2.156-.793-4.333-.082-5.1,1.457Z" transform="translate(-324.315 -295.591)" fill="#e6a015"/>
                <path id="Trazado_129757" data-name="Trazado 129757" d="M337.144,297.94a2.313,2.313,0,0,0-.974,3.5,3.961,3.961,0,0,0,4.9,1.457c1.69-.888,1.66-3.018,0-4.341l-.147-.112A6.091,6.091,0,0,0,337.144,297.94Z" transform="translate(-323.728 -281.939)" fill="#e6a015"/>
                <path id="Trazado_129758" data-name="Trazado 129758" d="M366.17,274.37a5.6,5.6,0,0,0-2.944,1.272,2.061,2.061,0,0,0-.716,1.479v.069a2.509,2.509,0,0,0,1.444,1.949,6.872,6.872,0,0,0,3.052.819A21.384,21.384,0,0,1,366.17,274.37Z" transform="translate(-338.959 -268.591)" fill="#e6a015"/>
                <path id="Trazado_129759" data-name="Trazado 129759" d="M379.418,313.723v-13.4a.862.862,0,0,1-.285.616,3.028,3.028,0,0,1-2.354.595v13.4a3.126,3.126,0,0,0,2.242-.487.931.931,0,0,0,.4-.724Z" transform="translate(-347.077 -283.354)" fill="#f6b216"/>
              </g>
            </g>
            <g id="Grupo_58506" data-name="Grupo 58506" transform="translate(70.284 65.239)">
              <path id="Trazado_129760" data-name="Trazado 129760" d="M273.158,394.105c-5.954,3.449-5.954,9.014,0,12.455s15.606,3.449,21.555,0,5.954-9.014,0-12.455S279.111,390.665,273.158,394.105Z" transform="translate(-268.693 -328.689)" fill="#c3bccf"/>
              <g id="Grupo_58505" data-name="Grupo 58505" transform="translate(6.315)">
                <g id="Grupo_58501" data-name="Grupo 58501" transform="translate(0 6.82)">
                  <path id="Trazado_129761" data-name="Trazado 129761" d="M283.34,288.17v42.869c0,2.13,1.405,4.246,4.212,5.872a19.016,19.016,0,0,0,7.092,2.242,22.033,22.033,0,0,0,13.256-2.242c2.807-1.625,4.212-3.742,4.212-5.872V288.17h-.034a5.091,5.091,0,0,0-.254-1.634l-5.035-14.623-12.476-.379-5.514-.164-5.173,15.188a.112.112,0,0,0-.022.052v.039h0a4.884,4.884,0,0,0-.216,1.522Z" transform="translate(-283.34 -267.154)" fill="#aec4ca"/>
                  <path id="Trazado_129762" data-name="Trazado 129762" d="M295.76,265.806c-.586,1.677.246,3.475,2.475,4.742a14.211,14.211,0,0,0,12.877,0c2-1.151,2.88-2.7,2.621-4.216h0l.039-4.742h0a3.707,3.707,0,0,1-1.216,2.63,6.629,6.629,0,0,1-1.449,1.091,9.857,9.857,0,0,1-2.087.9,14.865,14.865,0,0,1-9.523-.289,9.053,9.053,0,0,1-1.267-.608,6.641,6.641,0,0,1-1.436-1.091,3.8,3.8,0,0,1-1.216-2.362l.177,3.936Z" transform="translate(-290.302 -261.59)" fill="#aec4ca"/>
                </g>
                <path id="Trazado_129763" data-name="Trazado 129763" d="M290.121,392.912c-5.122,2.957-5.122,7.76,0,10.713s13.429,2.962,18.538,0,5.122-7.76,0-10.713S295.247,389.967,290.121,392.912Z" transform="translate(-285.013 -328.22)" fill="#bbd1d6"/>
                <path id="Trazado_129764" data-name="Trazado 129764" d="M337.74,266.372l.039-4.742Z" transform="translate(-314.288 -254.793)" fill="#aec4ca"/>
                <path id="Trazado_129765" data-name="Trazado 129765" d="M295.66,274.72a3.957,3.957,0,0,0,1.2,2.418,8.023,8.023,0,0,0,2.281,1.539,13.467,13.467,0,0,0,5.35,1.151,14.128,14.128,0,0,0,5.389-.961,9.247,9.247,0,0,0,2.362-1.41,4.38,4.38,0,0,0,1.47-2.268,4.527,4.527,0,0,1-1.63,2.074,9.053,9.053,0,0,1-2.345,1.233,14.525,14.525,0,0,1-5.238.819,13.989,13.989,0,0,1-5.2-1,7.923,7.923,0,0,1-2.268-1.362A4.026,4.026,0,0,1,295.66,274.72Z" transform="translate(-290.349 -262.239)" fill="#c8dfe3"/>
                <path id="Trazado_129766" data-name="Trazado 129766" d="M295.59,254.657v.267a3.8,3.8,0,0,0,1.216,2.362,6.638,6.638,0,0,0,1.436,1.091,9.053,9.053,0,0,0,1.267.608,14.864,14.864,0,0,0,9.523.289,9.854,9.854,0,0,0,2.087-.9,6.629,6.629,0,0,0,1.449-1.091,3.708,3.708,0,0,0,1.216-2.63c0-1.349-.884-2.686-2.664-3.712a14.211,14.211,0,0,0-12.877,0C296.482,251.971,295.59,253.307,295.59,254.657Z" transform="translate(-290.309 -247.837)" fill="#c0d8de"/>
                <path id="Trazado_129767" data-name="Trazado 129767" d="M306.01,260.249a13.57,13.57,0,0,0,4.057-.6,8.539,8.539,0,0,0,1.88-.8,5.756,5.756,0,0,0,1.242-.927,2.712,2.712,0,0,0,.91-1.905c0-1.017-.763-2.022-2.156-2.819a13.187,13.187,0,0,0-11.847,0c-1.388.8-2.156,1.806-2.156,2.819v.267a2.789,2.789,0,0,0,.905,1.634,5.864,5.864,0,0,0,1.224.927,8.383,8.383,0,0,0,1.134.543,12.934,12.934,0,0,0,4.807.862Z" transform="translate(-291.646 -249.195)" fill="#aec4ca"/>
                <path id="Trazado_129768" data-name="Trazado 129768" d="M312.53,307.776v43.848H286.349l-.039-44.063Z" transform="translate(-285.03 -280.922)" fill="#bbd1d6"/>
                <path id="Trazado_129769" data-name="Trazado 129769" d="M290.121,292.713c-5.122,2.957-5.122,7.76,0,10.713s13.429,2.962,18.538,0,5.122-7.76,0-10.713S295.247,289.751,290.121,292.713Z" transform="translate(-285.013 -271.214)" fill="#d9e4e6"/>
                <path id="Trazado_129770" data-name="Trazado 129770" d="M312.366,314.65a7.76,7.76,0,0,1-2.638,2.914,14.656,14.656,0,0,1-3.5,1.763,24.141,24.141,0,0,1-7.76,1.259,24.6,24.6,0,0,1-7.76-1.177,14.878,14.878,0,0,1-3.539-1.7,8.127,8.127,0,0,1-2.742-2.828,7.76,7.76,0,0,0,2.44,3.238,15.567,15.567,0,0,0,3.57,2.035,21.469,21.469,0,0,0,8.044,1.466,26.6,26.6,0,0,0,4.091-.384,20.38,20.38,0,0,0,3.94-1.173,14.989,14.989,0,0,0,3.531-2.1A7.415,7.415,0,0,0,312.366,314.65Z" transform="translate(-283.96 -284.955)" fill="#c8dfe3"/>
                <path id="Trazado_129771" data-name="Trazado 129771" d="M339.6,364.391h0a4.318,4.318,0,0,0,2.069-3.268V326.842c0-1.138-.931-1.53-2.069-.862h0a4.3,4.3,0,0,0-2.069,3.263v34.286C337.53,364.654,338.461,365.033,339.6,364.391Z" transform="translate(-314.168 -291.215)" fill="#c8dfe3"/>
                <g id="Grupo_58504" data-name="Grupo 58504" transform="translate(2.38 47.048)">
                  <g id="Grupo_58502" data-name="Grupo 58502">
                    <path id="Trazado_129772" data-name="Trazado 129772" d="M310.773,355.673a31.838,31.838,0,0,1-19.952-.595c-1.194-.431-1.91-.056-1.962,1v4.1a3.263,3.263,0,0,0,1.974,2.763,31.824,31.824,0,0,0,19.947.591,3.018,3.018,0,0,0,2.074-2.621v-4.1c-.073-1.259-1.125-1.41-2.087-1.134Z" transform="translate(-288.86 -354.903)" fill="#f5e9da"/>
                  </g>
                  <g id="Grupo_58503" data-name="Grupo 58503" transform="translate(5.172 3.58)">
                    <path id="Trazado_129773" data-name="Trazado 129773" d="M316.861,365.169a.379.379,0,0,0-.431.328v2.108a.4.4,0,0,0,.431.345h.082a.379.379,0,0,0,.431-.332V365.51c0-.194-.177-.323-.431-.341Zm0-1a.457.457,0,0,0-.323.112c-.207.2-.065.535.328.56h.082a.47.47,0,0,0,.328-.121c.207-.2.065-.53-.328-.552Z" transform="translate(-309.717 -363.754)" fill="#6c635c"/>
                    <path id="Trazado_129774" data-name="Trazado 129774" d="M311.164,363.918a.461.461,0,0,1,.431.4v3.018c-.022.371-.552.431-.8.155a.336.336,0,0,1-.1-.237v-3.018c0-.28.3-.332.453-.319Z" transform="translate(-306.451 -363.61)" fill="#6c635c"/>
                    <path id="Trazado_129775" data-name="Trazado 129775" d="M303.17,363.217a.483.483,0,0,1,.431.431v3.018c0,.371-.526.384-.763.1a.375.375,0,0,1-.1-.246v-.151a.927.927,0,0,0-.043-.267h0l-.039-.086a.375.375,0,0,0-.25-.172h0a.25.25,0,0,0-.241.056l-.026.039c-.552.7-.552.7-.806.647h-.06c-.336-.1-.513-.41-.358-.629.832-.983.832-.983.612-1.237-.431-.487-.431-.487-.431-.569-.043-.211.112-.31.285-.3h.073a.6.6,0,0,1,.315.194c.78.9.974.22.979.211V363.5c0-.28.289-.306.431-.285Z" transform="translate(-300.858 -363.206)" fill="#6c635c"/>
                    <path id="Trazado_129776" data-name="Trazado 129776" d="M322.761,363.635h.272a.569.569,0,0,1,.616.345,14.368,14.368,0,0,0,.591,1.97.185.185,0,0,0,.3-.034.062.062,0,0,1,0-.026c.578-2.125.578-2.125.595-2.156a.755.755,0,0,1,.582-.392l.272-.043c.366-.047.6.108.625.4v2.884a.513.513,0,0,1-.815.345.263.263,0,0,1-.073-.194v-1.724h0c-.03-.155-.25-.121-.319,0h0c-.457,1.487-.457,1.487-.565,1.6a.664.664,0,0,1-1-.026.565.565,0,0,1-.034-.073c-.147-.431-.289-.862-.431-1.267a.194.194,0,0,0-.332.034.056.056,0,0,0,0,.026h0a13.152,13.152,0,0,1,0,1.828.526.526,0,0,1-.793.168.323.323,0,0,1-.108-.228v-2.88a.629.629,0,0,1,.638-.543Z" transform="translate(-312.965 -363.254)" fill="#6c635c"/>
                  </g>
                </g>
                <path id="Trazado_129777" data-name="Trazado 129777" d="M283.34,285v42.869c0,2.13,1.405,4.246,4.212,5.872a19.015,19.015,0,0,0,7.092,2.242,3.449,3.449,0,0,1-2.375-2.88V286.04c0-4.311,1.4-13.584,2.048-17.675l-5.647-2.565.138,2.4-5.182,15.188a.113.113,0,0,0-.022.052v.039h0a4.884,4.884,0,0,0-.216,1.522Z" transform="translate(-283.34 -257.165)" fill="#c3bccf"/>
                <path id="Trazado_129778" data-name="Trazado 129778" d="M294.49,254.294v.276a3.927,3.927,0,0,0,1.293,2.492,7.3,7.3,0,0,0,1.513,1.151,9.316,9.316,0,0,0,1.336.634,14.83,14.83,0,0,0,6.247.957h0a15.248,15.248,0,0,0,3.764-.655,10.259,10.259,0,0,0,2.2-.936,7.363,7.363,0,0,0,1.543-1.155,3.91,3.91,0,0,0,1.272-2.768c0-1.418-.923-2.828-2.794-3.906a14.949,14.949,0,0,0-10.1-1.267,11.394,11.394,0,0,0-3.449,1.267C295.425,251.453,294.49,252.875,294.49,254.294Z" transform="translate(-289.683 -247.473)" fill="#c7b599"/>
                <path id="Trazado_129779" data-name="Trazado 129779" d="M294.49,254.763v.276a3.927,3.927,0,0,0,1.293,2.492,7.3,7.3,0,0,0,1.513,1.151,9.326,9.326,0,0,0,1.336.634,14.83,14.83,0,0,0,6.247.957c-1.41-.573-1.552-1.293-1.552-1.293l-2.587-9.389a11.394,11.394,0,0,0-3.449,1.267C295.425,251.922,294.49,253.345,294.49,254.763Z" transform="translate(-289.683 -247.943)" fill="#938673"/>
                <path id="Trazado_129780" data-name="Trazado 129780" d="M294.49,251.288v.28a4.018,4.018,0,0,0,1.293,2.487A7.136,7.136,0,0,0,297.3,255.2a9.989,9.989,0,0,0,1.332.638,15.658,15.658,0,0,0,10.023.306,10.244,10.244,0,0,0,2.194-.944,7.125,7.125,0,0,0,1.539-1.142,3.915,3.915,0,0,0,1.293-2.768c0-1.418-.931-2.824-2.8-3.906a15,15,0,0,0-13.55,0C295.43,248.456,294.49,249.87,294.49,251.288Z" transform="translate(-289.683 -245.77)" fill="#daceba"/>
              </g>
            </g>
            <g id="Grupo_58508" data-name="Grupo 58508" transform="translate(40.998 95.693)">
              <path id="Trazado_129781" data-name="Trazado 129781" d="M243.789,358.855l-.319-2.1L253.42,351l1.181,1.6Z" transform="translate(-225.057 -336.088)" fill="#fdd96f"/>
              <path id="Trazado_129782" data-name="Trazado 129782" d="M266.55,348.83l1.181,2.548-1.181-1.612Z" transform="translate(-238.188 -334.854)" fill="#fdd96f"/>
              <path id="Trazado_129783" data-name="Trazado 129783" d="M243.47,345.237l9.95-5.747v4.962l-9.95,5.747Z" transform="translate(-225.057 -329.54)" fill="#e6792e"/>
              <path id="Trazado_129784" data-name="Trazado 129784" d="M210,361.388l.862-1.918,13.588,2.1.319,2.1Z" transform="translate(-206.017 -340.907)" fill="#edc767"/>
              <path id="Trazado_129785" data-name="Trazado 129785" d="M212,347.94l13.588,2.1v4.971L212,352.911Z" transform="translate(-207.154 -334.347)" fill="#c46019"/>
              <path id="Trazado_129786" data-name="Trazado 129786" d="M200.77,342.5l1.181-1.237,3.66,7.85-.862,1.918Z" transform="translate(-200.766 -330.547)" fill="#fcbc3c"/>
              <path id="Trazado_129787" data-name="Trazado 129787" d="M203.51,329.74l3.639,7.846v4.971l-3.639-7.85Z" transform="translate(-202.324 -323.993)" fill="#ab5418"/>
              <path id="Trazado_129788" data-name="Trazado 129788" d="M204.778,377.506l-3.958-8.532V344.13l3.958,8.532Z" transform="translate(-200.794 -332.18)" fill="#fda800"/>
              <path id="Trazado_129789" data-name="Trazado 129789" d="M204.76,356l-2.656-5.729a.221.221,0,0,0-.431.095v21.749a.707.707,0,0,0,.069.31l2.681,5.781a.207.207,0,0,0,.392-.086v-21.81A.694.694,0,0,0,204.76,356Z" transform="translate(-201.276 -335.575)" fill="#f59702"/>
              <path id="Trazado_129790" data-name="Trazado 129790" d="M224.748,391.049,210,388.765V363.92l14.77,2.285Z" transform="translate(-206.017 -343.438)" fill="#ecb730"/>
              <path id="Trazado_129791" data-name="Trazado 129791" d="M224.2,367.247l-12.48-1.931a.737.737,0,0,0-.862.729V388.57a.742.742,0,0,0,.625.729l12.481,1.931a.737.737,0,0,0,.862-.729V367.976a.737.737,0,0,0-.625-.729Z" transform="translate(-206.506 -344.226)" fill="#e6a015"/>
              <path id="Trazado_129792" data-name="Trazado 129792" d="M255.022,379.58l-10.812,6.247V360.982l10.812-6.242Z" transform="translate(-225.478 -338.216)" fill="#fcca33"/>
              <path id="Trazado_129793" data-name="Trazado 129793" d="M255.142,380.564v-22.2a.737.737,0,0,0-1.108-.638l-8.523,4.919a.746.746,0,0,0-.371.642v22.193a.742.742,0,0,0,1.108.642l8.523-4.923A.737.737,0,0,0,255.142,380.564Z" transform="translate(-226.008 -339.859)" fill="#f6b216"/>
              <path id="Trazado_129794" data-name="Trazado 129794" d="M207.2,330l-3.639-7.846,9.946-5.747,13.588,2.1,3.643,7.85-9.95,5.747Z" transform="translate(-202.353 -316.41)" fill="#de6001"/>
              <path id="Trazado_129795" data-name="Trazado 129795" d="M231.188,325.785l-1.224-2.63a5.173,5.173,0,0,0-3.88-2.923l-8.355-1.293a5.139,5.139,0,0,0-3.363.629l-5.6,3.242a2.362,2.362,0,0,0-.961,3.039l1.078,2.319a5.173,5.173,0,0,0,3.88,2.923l8.359,1.293a5.143,5.143,0,0,0,3.363-.629l5.91-3.419a1.979,1.979,0,0,0,.8-2.552Z" transform="translate(-204.64 -317.814)" fill="#cd4f00"/>
              <path id="Trazado_129796" data-name="Trazado 129796" d="M224.748,423.835l-.362,1.354-13.425-2.078L210,421.55Z" transform="translate(-206.017 -376.224)" fill="#e09e2d"/>
              <path id="Trazado_129797" data-name="Trazado 129797" d="M243.37,419.97l.362-1.354,10.812-6.247-1.345,1.923Z" transform="translate(-225.001 -371.001)" fill="#f0b030"/>
              <path id="Trazado_129798" data-name="Trazado 129798" d="M219.173,351.214l-3.639,1.487-10.816-1.673L200.76,342.5l1.186-1.237,3.639,7.85Z" transform="translate(-200.76 -330.547)" fill="#c3bccf"/>
              <g id="Grupo_58507" data-name="Grupo 58507" transform="translate(22.292 24.271)">
                <path id="Trazado_129799" data-name="Trazado 129799" d="M256.091,373.046l-1.776,1.026v2.156l1.776-1.022v.341l-3.621,2.091V377.3l1.552-.9v-2.156l-1.552.9V374.8l3.621-2.091Z" transform="translate(-252.47 -372.71)" fill="#fdd96f"/>
                <path id="Trazado_129800" data-name="Trazado 129800" d="M257.316,383a2.255,2.255,0,0,1-.276.547,3.071,3.071,0,0,1-.431.491,2.971,2.971,0,0,1-.56.431,2.61,2.61,0,0,1-.539.241.862.862,0,0,1-.431.026.479.479,0,0,1-.293-.211.862.862,0,0,1-.108-.47,1.763,1.763,0,0,1,.108-.591,2.418,2.418,0,0,1,.3-.547,2.809,2.809,0,0,1,.431-.479,3.691,3.691,0,0,1,.539-.384,2.12,2.12,0,0,1,.6-.25.776.776,0,0,1,.431,0,.461.461,0,0,1,.254.233,1.013,1.013,0,0,1,.091.431,1.573,1.573,0,0,1-.112.53Zm-.862.841a2.314,2.314,0,0,0,.354-.358,1.8,1.8,0,0,0,.25-.431,1.2,1.2,0,0,0,.091-.457.608.608,0,0,0-.078-.336.332.332,0,0,0-.228-.147.729.729,0,0,0-.349.034,1.857,1.857,0,0,0-.431.2,2.9,2.9,0,0,0-.431.285,2.543,2.543,0,0,0-.353.362,1.69,1.69,0,0,0-.246.431,1.147,1.147,0,0,0-.095.461.616.616,0,0,0,.086.358.328.328,0,0,0,.233.138.814.814,0,0,0,.349-.047,2.381,2.381,0,0,0,.431-.2,2.793,2.793,0,0,0,.414-.293Z" transform="translate(-253.725 -377.869)" fill="#fdd96f"/>
                <path id="Trazado_129801" data-name="Trazado 129801" d="M255.908,388.627c-.091.052-.172.1-.25.155a1.838,1.838,0,0,0-.241.194,2.271,2.271,0,0,0-.19.211,1.969,1.969,0,0,0-.164.254,2.114,2.114,0,0,0-.112.272,1.082,1.082,0,0,0-.043.285c0,.241.06.379.177.431a.741.741,0,0,0,.53-.147l1.7-.983v.3l-1.724.983c-.108.065-.207.116-.306.164a.59.59,0,0,1-.289.052.332.332,0,0,1-.289-.181.832.832,0,0,1-.086-.4,1.294,1.294,0,0,1,.121-.535,4.149,4.149,0,0,1,.315-.556l-.362.207v-.323l2.587-1.5v.3Z" transform="translate(-253.693 -381.13)" fill="#fdd96f"/>
                <path id="Trazado_129802" data-name="Trazado 129802" d="M256.094,397.363a1.591,1.591,0,0,1-1.073.315c-.246-.06-.371-.272-.371-.629a1.638,1.638,0,0,1,.108-.565,2.517,2.517,0,0,1,.3-.547,3.138,3.138,0,0,1,.979-.884,2.586,2.586,0,0,1,.535-.241.862.862,0,0,1,.431-.03.457.457,0,0,1,.289.2.919.919,0,0,1,.1.479,1.672,1.672,0,0,1-.065.47,1.724,1.724,0,0,1-.185.431,2.189,2.189,0,0,1-.276.388,3.256,3.256,0,0,1-.345.345v-.336a1.686,1.686,0,0,0,.431-.539,1.293,1.293,0,0,0,.155-.6.565.565,0,0,0-.082-.332.349.349,0,0,0-.22-.147.682.682,0,0,0-.328.026,1.938,1.938,0,0,0-.4.172Zm-.25-1.88a2.8,2.8,0,0,0-.354.289,2.437,2.437,0,0,0-.293.345,1.651,1.651,0,0,0-.2.375,1.087,1.087,0,0,0-.078.4.6.6,0,0,0,.073.315.315.315,0,0,0,.2.142.6.6,0,0,0,.289,0,1.577,1.577,0,0,0,.362-.155Z" transform="translate(-253.71 -385.258)" fill="#fdd96f"/>
                <path id="Trazado_129803" data-name="Trazado 129803" d="M258.414,399.13a1.393,1.393,0,0,1,.034.263.746.746,0,0,1-.073.315,1.723,1.723,0,0,1-.211.328,4.086,4.086,0,0,1-.336.371l-.431.431-2.587,2.457v-.341l2.237-2.13-2.237.457v-.336l2.621-.5a1.859,1.859,0,0,1,.207-.2c.082-.069.16-.147.237-.224a1.728,1.728,0,0,0,.194-.246.483.483,0,0,0,.078-.254,1.077,1.077,0,0,0,0-.121.209.209,0,0,0-.022-.112Z" transform="translate(-253.801 -387.74)" fill="#fdd96f"/>
              </g>
            </g>
            <g id="Grupo_58510" data-name="Grupo 58510" transform="translate(91.024 39.998)">
              <g id="Grupo_58509" data-name="Grupo 58509" transform="translate(15.453)">
                <path id="Trazado_129804" data-name="Trazado 129804" d="M354.894,308.57a12.826,12.826,0,1,0,21.159,14.5,2.781,2.781,0,0,1-2.315.862c-5.876.052-16.736-7.454-18.809-12.873A2.886,2.886,0,0,1,354.894,308.57Z" transform="translate(-352.646 -256.256)" fill="#991820"/>
                <path id="Trazado_129805" data-name="Trazado 129805" d="M357.552,252.78c2.074,5.415,12.933,12.933,18.818,12.869a2.815,2.815,0,0,0,2.315-.862.33.33,0,0,1,.039-.056c.017-.017,0-.039.039-.056q14.291-20.853,28.6-41.714c1.293-1.875,2.561-3.729,3.841-5.6,2.587-3.746,5.134-7.51,7.712-11.256a14.482,14.482,0,0,1-2.781,2.914c-6.1,4.984-17.115,8.191-24.573,7.156-2.242-.319-5.044-1.19-6.035-3.246a4.233,4.233,0,0,1,.28-3.764,7.256,7.256,0,0,1,.461-.815c-1.147,1.668-2.281,3.354-3.427,5.022-.819,1.186-1.651,2.375-2.466,3.578a1.953,1.953,0,0,0-.3,1.1,5.6,5.6,0,0,0,.862,2.587,21.776,21.776,0,0,0,5.005,5.544q-8.109,11.786-16.218,23.625c-1.983-1.651-4.544-4.152-5.505-6.544a2.987,2.987,0,0,1-.073-2.634q-3.285,4.742-6.527,9.51l-.056.078s-.039.034-.039.052v.022A2.881,2.881,0,0,0,357.552,252.78Z" transform="translate(-355.27 -197.961)" fill="#991820"/>
                <path id="Trazado_129806" data-name="Trazado 129806" d="M372.969,254.784l-.095.138a3.019,3.019,0,0,0,.086,2.634c.966,2.384,3.514,4.906,5.5,6.544l16.2-23.625a22.111,22.111,0,0,1-5.005-5.527c-.651-1.142-1.229-2.681-.547-3.7h0l-8.092,11.8Z" transform="translate(-364.001 -212.269)" fill="#ffb716"/>
                <path id="Trazado_129807" data-name="Trazado 129807" d="M456.5,190.428a3.565,3.565,0,0,1,.388,2.423,6.466,6.466,0,0,1-1.1,2.513A14.455,14.455,0,0,1,453,198.278c-6.1,4.971-17.119,8.191-24.573,7.143-2.255-.315-5.053-1.177-6.035-3.233a4.223,4.223,0,0,1,.267-3.768,8.778,8.778,0,0,1,.47-.815c.03-.043.065-.086.095-.134,1.724-2.561,5.173-4.962,9.273-6.8a37.3,37.3,0,0,1,16.675-3.4C451.78,187.449,455.229,188.186,456.5,190.428Zm-26.078,8.846c.241-.237.479-.578.349-.888-.164-.4-.8-.487-1.242-.487a4.778,4.778,0,0,0-3.212,1.259c-.431.491-.336.936.241,1.138a4.673,4.673,0,0,0,3.863-1.022Zm6.945-6.467c.8-.763.306-1.375-.892-1.375a4.8,4.8,0,0,0-3.212,1.259c-.431.479-.353.931.241,1.142a4.756,4.756,0,0,0,3.863-1.043Zm1.483,7.566c.8-.767.3-1.375-.892-1.375a4.8,4.8,0,0,0-3.212,1.259c-.431.483-.345.936.241,1.138A4.7,4.7,0,0,0,438.847,200.373Zm1-4.38c.246-.233.483-.578.349-.888-.164-.392-.8-.487-1.242-.487a4.8,4.8,0,0,0-3.212,1.263c-.431.491-.332.936.246,1.138a4.66,4.66,0,0,0,3.85-1.026Zm4.557,5.454c.246-.233.479-.578.349-.888-.168-.4-.8-.487-1.242-.487a4.79,4.79,0,0,0-3.212,1.259c-.431.5-.332.94.246,1.142a4.678,4.678,0,0,0,3.85-1.026Zm1.177-10.924c.246-.237.483-.578.349-.892-.164-.392-.8-.483-1.237-.483a4.794,4.794,0,0,0-3.212,1.255c-.431.483-.349.936.241,1.142a4.679,4.679,0,0,0,3.85-1.022Zm2.19,4.841c.246-.233.483-.578.349-.888-.164-.4-.8-.487-1.242-.487a4.8,4.8,0,0,0-3.212,1.259c-.431.483-.345.935.246,1.142a4.686,4.686,0,0,0,3.85-1.026Zm7.273-1.931c.241-.237.483-.578.349-.892-.168-.392-.8-.483-1.242-.483a4.8,4.8,0,0,0-3.212,1.259c-.431.479-.345.931.246,1.138a4.668,4.668,0,0,0,3.85-1.022Z" transform="translate(-392.135 -187.22)" fill="#bc4757"/>
                <path id="Trazado_129808" data-name="Trazado 129808" d="M431.576,213.249c-.431.491-.336.935.241,1.138a4.725,4.725,0,0,0,3.88-1.022c.241-.237.479-.578.349-.888-.164-.4-.8-.487-1.242-.487A4.81,4.81,0,0,0,431.576,213.249Z" transform="translate(-397.397 -201.312)" fill="#f1b3bd"/>
                <path id="Trazado_129809" data-name="Trazado 129809" d="M447.639,198.209c-.431.479-.354.931.241,1.142a4.754,4.754,0,0,0,3.88-1.026c.8-.763.306-1.375-.892-1.375A4.993,4.993,0,0,0,447.639,198.209Z" transform="translate(-406.532 -192.756)" fill="#f1b3bd"/>
                <path id="Trazado_129810" data-name="Trazado 129810" d="M451.1,215.8c-.431.483-.345.936.241,1.138a4.739,4.739,0,0,0,3.88-1.022c.8-.767.3-1.375-.892-1.375A4.849,4.849,0,0,0,451.1,215.8Z" transform="translate(-408.504 -202.762)" fill="#f1b3bd"/>
                <path id="Trazado_129811" data-name="Trazado 129811" d="M453.428,205.643c-.431.491-.332.936.246,1.138a4.671,4.671,0,0,0,3.858-1.026c.246-.233.483-.578.349-.888-.164-.392-.8-.487-1.242-.487A4.822,4.822,0,0,0,453.428,205.643Z" transform="translate(-409.829 -196.982)" fill="#f1b3bd"/>
                <path id="Trazado_129812" data-name="Trazado 129812" d="M464,218.337c-.431.5-.332.94.246,1.142a4.689,4.689,0,0,0,3.858-1.026c.246-.233.479-.578.349-.888-.168-.4-.8-.487-1.242-.487A4.535,4.535,0,0,0,464,218.337Z" transform="translate(-415.842 -204.206)" fill="#f1b3bd"/>
                <path id="Trazado_129813" data-name="Trazado 129813" d="M466.731,192.945c-.431.483-.349.936.241,1.142a4.762,4.762,0,0,0,3.88-1.022c.246-.237.483-.578.349-.892-.164-.392-.8-.483-1.237-.483A4.809,4.809,0,0,0,466.731,192.945Z" transform="translate(-417.394 -189.763)" fill="#f1b3bd"/>
                <path id="Trazado_129814" data-name="Trazado 129814" d="M471.8,204.179c-.431.483-.345.936.246,1.142a4.7,4.7,0,0,0,3.858-1.026c.246-.233.483-.578.349-.888-.164-.4-.8-.487-1.242-.487A4.8,4.8,0,0,0,471.8,204.179Z" transform="translate(-420.28 -196.152)" fill="#f1b3bd"/>
                <path id="Trazado_129815" data-name="Trazado 129815" d="M488.643,199.7c-.431.479-.345.931.246,1.138a4.679,4.679,0,0,0,3.858-1.022c.241-.237.483-.578.349-.892-.168-.392-.8-.483-1.242-.483A4.85,4.85,0,0,0,488.643,199.7Z" transform="translate(-429.86 -193.603)" fill="#f1b3bd"/>
              </g>
              <path id="Trazado_129816" data-name="Trazado 129816" d="M316.8,376.23V418.9l37.015,21.379V397.6Z" transform="translate(-316.8 -294.747)" fill="#c61c6f"/>
              <path id="Trazado_129817" data-name="Trazado 129817" d="M335.17,368.846l8.622,4.984A82.232,82.232,0,0,1,344.9,363.25h-.039Z" transform="translate(-327.251 -287.363)" fill="#f14290"/>
              <path id="Trazado_129818" data-name="Trazado 129818" d="M386.517,295.38c-2.018-3.354-3.311-6.76-2.453-12.67h0a7.457,7.457,0,0,1-.785.517,15.739,15.739,0,0,1-14.226,0,7.88,7.88,0,0,1-.785-.509c1.905,12.843-6.523,13.8-10.816,29.483a52.6,52.6,0,0,0-1.16,5.238,82.231,82.231,0,0,0-1.112,10.579l20.465,11.817,21.473-12.394h0c-.134-2.548-.332-4.971-.629-7.3a56.651,56.651,0,0,0-1.1-6.074,45.063,45.063,0,0,0-4.427-11.528c-.194-.353-.4-.707-.6-1.065l-.431-.754c-.431-.7-.862-1.362-1.255-2C387.9,297.553,387.172,296.471,386.517,295.38Z" transform="translate(-338.634 -241.544)" fill="#008764"/>
              <path id="Trazado_129819" data-name="Trazado 129819" d="M386.244,243.285c-1.224,1.849-.147,3.69,1.772,4.8,3.255,1.875,8.691,1.75,11.64-.375,2.018-1.457,2.186-3.38.862-4.889C397.379,239.366,388.623,239.689,386.244,243.285Z" transform="translate(-356.01 -217.475)" fill="#ff74b8"/>
              <path id="Trazado_129820" data-name="Trazado 129820" d="M402.66,376.949v42.679l64.118-37.015V339.93Z" transform="translate(-365.645 -274.096)" fill="#f14290"/>
              <path id="Trazado_129821" data-name="Trazado 129821" d="M400.652,246.166a4.16,4.16,0,0,1-1.384,2.936c-3.449,3.393-11.3,3.751-15.779,1.168-1.552-.9-2.94-2.319-2.94-4.1a5.056,5.056,0,0,1,.737-2.613c2.531-4.255,10.273-5.221,15.179-2.923,2.186,1.026,4.031,2.841,4.169,5.221a2.582,2.582,0,0,1,.017.315ZM383.3,242.717c-1.224,1.849-.147,3.69,1.772,4.8,3.255,1.875,8.691,1.75,11.64-.375,2.018-1.457,2.186-3.38.862-4.889-3.138-3.449-11.894-3.126-14.274.47Z" transform="translate(-353.067 -216.915)" fill="#c61c6f"/>
              <path id="Trazado_129822" data-name="Trazado 129822" d="M399.3,258.006c-3.449,3.393-11.3,3.751-15.779,1.168-1.552-.9-2.94-2.319-2.94-4.1v8.325a4.617,4.617,0,0,0,2.156,3.591,7.874,7.874,0,0,0,.785.509,15.739,15.739,0,0,0,14.227,0,7.454,7.454,0,0,0,.785-.517,4.562,4.562,0,0,0,2.156-3.583V255.07A4.16,4.16,0,0,1,399.3,258.006Z" transform="translate(-353.084 -225.82)" fill="#f14290"/>
              <path id="Trazado_129823" data-name="Trazado 129823" d="M441.467,293.9l-13.6,7.846c.655,1.091,1.384,2.156,2.156,3.332l5.376-3.1h0A95.109,95.109,0,0,1,441.467,293.9Z" transform="translate(-379.987 -247.91)" fill="#ff74b8"/>
              <path id="Trazado_129824" data-name="Trazado 129824" d="M438.226,312.65l-5.376,3.1c.41.634.832,1.293,1.255,2l.431.754C435.7,316.53,436.928,314.568,438.226,312.65Z" transform="translate(-382.82 -258.577)" fill="#f14290"/>
              <path id="Trazado_129825" data-name="Trazado 129825" d="M442.972,317.444c-1.992.569-3.725,2.975-4.742,4.768a45.064,45.064,0,0,1,4.428,11.528c2.061,1.168,4.38,2.44,6.648,2.673,4.488.461,7.76-3.449,8.1-7.174.349-3.621-1.893-5.906-4.958-7.889-1.16-.75-3.147-1.9-4.233-2.5C446.5,317.9,444.7,316.952,442.972,317.444Z" transform="translate(-385.881 -261.228)" fill="#d98e00"/>
              <path id="Trazado_129826" data-name="Trazado 129826" d="M451,369.51c.3,2.328.5,4.742.629,7.3l3.018-1.746h0C454.406,372.679,452.893,370.937,451,369.51Z" transform="translate(-393.146 -290.924)" fill="#d98e00"/>
              <path id="Trazado_129827" data-name="Trazado 129827" d="M460.234,285.643c-1,1.431-2.052,3.371-1.436,5a6.225,6.225,0,0,0,2.587,2.617,51.923,51.923,0,0,0,7.005,3.781,7.655,7.655,0,0,0,6.436.069,8.168,8.168,0,0,0,4.229-8.467c-.543-2.789-2.763-4.436-5.173-5.919a25.7,25.7,0,0,0-4.927-2.526c-1.384-.392-2.742-.259-4.639,1.147A19.711,19.711,0,0,0,460.234,285.643Z" transform="translate(-397.478 -240.006)" fill="#d98e00"/>
              <path id="Trazado_129828" data-name="Trazado 129828" d="M448.957,281.772a51.928,51.928,0,0,0,7.006,3.781,7.655,7.655,0,0,0,6.436.069,8.168,8.168,0,0,0,4.229-8.467c-.543-2.789-2.763-4.436-5.173-5.919a25.7,25.7,0,0,0-4.928-2.526c-1.384-.392-2.742-.259-4.639,1.147a19.711,19.711,0,0,0-4.078,4.311c-1,1.431-2.052,3.371-1.436,5A6.336,6.336,0,0,0,448.957,281.772Zm-8.493.81a95.118,95.118,0,0,1,6.07-8.075c.491-.586.983-1.16,1.487-1.724,3.88-4.341,9.127-9.264,14.425-11.64,4.971-2.212,9.687-1.949,11.95,2.949,1.332,2.875,1.448,6.6,1.2,9.777a55.878,55.878,0,0,1-2.75,12.774c-.431,1.272-.862,2.539-1.345,3.785a103.4,103.4,0,0,1-4.772,10.579l-20.15,11.64c-.263-2.375-1.776-4.117-3.664-5.544a56.666,56.666,0,0,0-1.095-6.074c2.061,1.168,4.38,2.44,6.648,2.673,4.488.461,7.76-3.449,8.1-7.174.349-3.621-1.893-5.906-4.958-7.889-1.16-.75-3.147-1.9-4.233-2.5-1.7-.94-3.509-1.893-5.234-1.4-1.992.569-3.725,2.975-4.742,4.768-.194-.354-.4-.707-.6-1.065,1.147-1.966,2.375-3.927,3.673-5.846Z" transform="translate(-385.067 -228.518)" fill="#ffb716"/>
              <path id="Trazado_129829" data-name="Trazado 129829" d="M506.25,341.451l11.532-6.669-6.768-3.9h0a103.407,103.407,0,0,1-4.764,10.571Z" transform="translate(-424.577 -268.948)" fill="#c61c6f"/>
              <path id="Trazado_129830" data-name="Trazado 129830" d="M404.59,322.08c-.431,1.272-.862,2.539-1.345,3.785h0l6.768,3.9-11.541,6.678-20.15,11.64h0l-3.018,1.746h0l-21.491,12.394L333.35,350.408l-8.622-4.984,9.7-5.6h.039a52.6,52.6,0,0,1,1.16-5.238h-.039L316.8,345.424l37.015,21.37,64.118-37.019-13.338-7.7Z" transform="translate(-316.8 -263.941)" fill="#ff74b8"/>
            </g>
            <path id="Trazado_129831" data-name="Trazado 129831" d="M122.82,314.17c0,3.078,2.039,5.639,4.742,7.156v.022q6.975,4.031,13.946,8.031c1.371.8,2.746,1.578,4.1,2.375s2.686,1.556,4.022,2.315q8.984,5.2,17.964,10.347l3.673,2.134,9.053,5.229c.888.517,1.78,1.035,2.669,1.535l4.022,2.337q9.765,5.6,19.5,11.256l2.587,1.5q5.225,3.018,10.472,6.035l3.673,2.112q7.329,4.255,14.683,8.493h0a2.347,2.347,0,0,0,.259.151,16.067,16.067,0,0,0,4.544,1.63,17.674,17.674,0,0,0,3.173.388,18.775,18.775,0,0,0,10.122-2.155c2.242-1.293,4.483-2.587,6.747-3.88,1.336-.78,2.69-1.556,4.022-2.337l15.908-9.178c.707-.405,1.427-.815,2.156-1.242,1.336-.776,2.669-1.539,4.022-2.315q8.954-5.208,17.947-10.347c1.336-.78,2.673-1.539,4.027-2.319l11.364-6.561a10.393,10.393,0,0,0,3.376-3.018,7.2,7.2,0,0,0,1.371-4.173c0-3.078-2.039-5.635-4.742-7.174s-5.285-3.061-7.937-4.578c-.315,2.41-.647,4.82-.961,7.23l5.522,3.19h0A4.349,4.349,0,0,1,320,339.3a.716.716,0,0,1,.2.388v.056a1.754,1.754,0,0,1-.539.685,4.742,4.742,0,0,1-.8.578h0c-2.281,1.315-4.561,2.63-6.859,3.966-.151,1.073-.3,2.156-.431,3.246a2.515,2.515,0,0,1-.28.7c-.591.78-1.724.354-2.587-.168a4.845,4.845,0,0,1-.5-.371.862.862,0,0,1-.319-.517,5.3,5.3,0,0,1,.078-.578c-4.311,2.487-8.622,4.988-12.933,7.454v.022c-1.668.961-3.354,1.927-5.022,2.893-.151,1.112-.3,2.242-.431,3.354a1.112,1.112,0,0,1-.259.595c-.591.776-1.759.349-2.587-.168a3.66,3.66,0,0,1-.5-.371.763.763,0,0,1-.315-.522c0-.185.056-.371.073-.573-1.091.629-2.186,1.293-3.281,1.91l-14.774,8.51c-.129,1.1-.28,2.156-.431,3.263v.147a1.224,1.224,0,0,1-.259.556c-.573.763-1.759.354-2.587-.164-.276-.185-.815-.578-.815-.91v-.056c.022-.185.056-.349.073-.517l-11.261,6.518a13.052,13.052,0,0,1-11.329,0c-1.483-.862-2.983-1.724-4.466-2.587q-6.816-3.923-13.593-7.863v.569c0,.556-1.186,1.151-1.78,1.336a1.4,1.4,0,0,1-1.78-.522,1.125,1.125,0,0,1-.129-.556c0-.983,0-1.944.022-2.927-1.263-.724-2.5-1.449-3.746-2.156q-4.678-2.72-9.346-5.393-10.312-5.979-20.633-11.924c.034.185.056.371.091.556v.03c0,.259-.349.535-.573.7a3.039,3.039,0,0,1-2.337.7,1.194,1.194,0,0,1-.759-.961h0c-.151-1.117-.3-2.229-.431-3.32-.522-.3-1.022-.595-1.539-.892l-4.406-2.578q-10.127-5.837-20.262-11.7l-7.118-4.117h0c.034.168.052.336.073.5.056.28-.241.56-.556.78a3.13,3.13,0,0,1-2.337.707,1.207,1.207,0,0,1-.759-.966V326.6c-.151-1.1-.3-2.186-.431-3.3-1.332-.776-2.686-1.535-4.022-2.315q-4.742-2.755-9.51-5.488h0a3.979,3.979,0,0,1-1.151-.927c-.224-.28-.2-.371-.2-.392a.164.164,0,0,1,0-.056,1.983,1.983,0,0,1,.539-.7,5.98,5.98,0,0,1,.8-.556h0c1.5-.862,2.983-1.724,4.488-2.587l-2.1-6.583c-1.931,1.1-3.88,2.207-5.768,3.32C124.9,308.505,122.82,311.062,122.82,314.17Z" transform="translate(-115.422 -213.481)" fill="#e2dfea"/>
            <path id="Trazado_129832" data-name="Trazado 129832" d="M351.029,429.177v-.539q0-4.285.022-8.579,0-4.544.022-9.083c-1.224-.711-2.457-1.418-3.682-2.125q0,6.674-.03,13.338v7.238h0a1.293,1.293,0,0,0,.121.56c.332.673,1.069.72,1.785.513.595-.177,1.776-.776,1.776-1.336Z" transform="translate(-243.162 -273.306)" fill="#e2dfea"/>
            <path id="Trazado_129833" data-name="Trazado 129833" d="M391.7,493.4a15.494,15.494,0,0,0,4.052,1.38Z" transform="translate(-268.387 -321.406)" fill="#e2dfea"/>
            <path id="Trazado_129834" data-name="Trazado 129834" d="M516.66,435.094,513,437.219l7.428,4.311h0c4.8,2.811,9.368.685,10.028-4.427h0l2.423-18c-1.345.772-2.681,1.548-4.026,2.324q-1.022,7.6-2.048,15.2h0a3.474,3.474,0,0,1-.862,1.983c-.944.91-2.561.4-3.69-.259h0Z" transform="translate(-337.393 -279.137)" fill="#e2dfea"/>
            <path id="Trazado_129835" data-name="Trazado 129835" d="M501.23,406.505a.806.806,0,0,0,.319.526,3.814,3.814,0,0,0,.5.371c.828.513,1.992.935,2.587.172a1.293,1.293,0,0,0,.254-.6c.155-1.117.3-2.237.453-3.354s.289-2.156.431-3.216q1.073-7.958,2.156-15.921L503.89,386.8h0q-1.112,8.3-2.229,16.589c-.116.862-.228,1.694-.349,2.544-.022.19-.047.375-.073.565Z" transform="translate(-330.697 -259.442)" fill="#e2dfea"/>
            <path id="Trazado_129836" data-name="Trazado 129836" d="M450.812,436.978c.815.517,1.992.931,2.587.172a1.293,1.293,0,0,0,.246-.56v-.151h0l.431-3.246q1.293-9.57,2.587-19.132l-4.026,2.324q-1.293,9.571-2.587,19.137c-.022.168-.047.341-.069.513v.043C449.989,436.413,450.523,436.792,450.812,436.978Z" transform="translate(-301.542 -276.27)" fill="#e2dfea"/>
            <path id="Trazado_129837" data-name="Trazado 129837" d="M105.66,222.494c0,3.078,2.039,5.635,4.742,7.174,5.673,3.281,11.368,6.566,17.037,9.846l4.742,2.725c1.336.78,2.669,1.539,4.022,2.319,3.229,1.871,6.467,3.725,9.678,5.6q10.153,5.837,20.262,11.7c1.151.651,2.281,1.315,3.449,1.966,1.336.776,2.673,1.556,4.027,2.337q11.592,6.674,23.172,13.364,6.561,3.815,13.127,7.583c1.224.707,2.449,1.41,3.673,2.134l7.859,4.522c1.893,1.1,3.785,2.19,5.695,3.285.371.22.742.431,1.129.664a18.018,18.018,0,0,0,9.01,2.207,18.343,18.343,0,0,0,9.053-2.207h0c3.449-2.018,6.954-4.022,10.42-6.036,1.354-.78,2.69-1.561,4.022-2.319,4.061-2.354,8.139-4.708,12.2-7.044,1.949-1.129,3.88-2.263,5.859-3.376h0c1.336-.759,2.69-1.539,4.022-2.319,1.724-1,3.449-1.983,5.173-2.983l4.44-2.6c1.2-.7,2.427-1.405,3.651-2.112,1.556-.91,3.113-1.8,4.669-2.707,1.336-.776,2.69-1.556,4.027-2.315q7.553-4.341,15.071-8.7a10.347,10.347,0,0,0,3.371-3.018,7.329,7.329,0,0,0,1.354-4.173c0-3.057-2.018-5.6-4.742-7.156h0q-25.9-14.968-51.8-29.927c-1.293,1.871-2.561,3.725-3.841,5.6q16.632,9.622,33.264,19.206c1.112.629,2.2,1.259,3.315,1.91q7.876,4.531,15.705,9.053a3.816,3.816,0,0,1,1.151.927c.22.3.2.371.2.388v.078a2.4,2.4,0,0,1-.539.685,4.431,4.431,0,0,1-.815.573q-10.178,5.893-20.374,11.765l-6.751,3.91q-8.191,4.742-16.408,9.484-15,8.639-30.035,17.326a13.043,13.043,0,0,1-11.325,0l-4.505-2.617q-15.188-8.756-30.35-17.52l-26.194-15.128c-1.483-.862-2.949-1.686-4.432-2.561l-20.262-11.679c-1.63-.966-3.281-1.91-4.932-2.854l-6.747-3.88c-.91-.539-1.819-1.056-2.725-1.578-1.319-.759-2.651-1.539-3.97-2.3q-6.876-3.962-13.726-7.95a4.346,4.346,0,0,1-1.168-.944c-.224-.276-.185-.354-.185-.371V222.4a1.755,1.755,0,0,1,.539-.685,4.432,4.432,0,0,1,.815-.578l11.7-6.747c1.147-.668,2.315-1.354,3.483-2.022q8.458-4.863,16.908-9.769V194.83s-37.209,21.654-37.209,21.689A7.9,7.9,0,0,0,105.66,222.494Z" transform="translate(-105.66 -151.551)" fill="#e2dfea"/>
            <path id="Trazado_129838" data-name="Trazado 129838" d="M365.811,478.656l.591.2a3.609,3.609,0,0,1-.5-.25A.168.168,0,0,1,365.811,478.656Zm12.5,9.592-3.69,2.13c2.483,1.431,4.949,2.858,7.432,4.285h0c4.8,2.819,9.364.685,10.032-4.432.332-2.444.647-4.876,1-7.329.466-3.544.948-7.122,1.427-10.7-1.354.8-2.686,1.556-4.039,2.337-.392,2.91-.763,5.8-1.151,8.734l-.888,6.467a3.38,3.38,0,0,1-.836,1.983c-.944.91-2.556.431-3.69-.241-1.858-1.065-3.751-2.138-5.6-3.233Zm-31.083-8.7v4.8A5.218,5.218,0,0,0,349.489,489a4.035,4.035,0,0,0,.668.336c1.612.647,3.785.431,6.195-.983h0q1.086-.642,2.225-1.293c.224-.129,1.151-.621,1.724-.935l-3.574-2.065c-.241.168-1.267.573-1.509.72a1.99,1.99,0,0,0-.315.168c-.147.073-.259.147-.388.2a5.337,5.337,0,0,1-2.466.832h-.177a.707.707,0,0,1-.556-.22c-.056,0-.073-.056-.091-.112a1.117,1.117,0,0,1-.216-.5,2.975,2.975,0,0,1-.091-.763v-7.674a.071.071,0,0,1,.056.034l-.022-4.311h0v-2.487l-3.673-2.112v6.73C347.247,476.234,347.23,477.9,347.23,479.549Z" transform="translate(-243.088 -306.865)" fill="#e2dfea"/>
            <path id="Trazado_129839" data-name="Trazado 129839" d="M468.312,470.935a7.169,7.169,0,0,0,6.488.772,6.282,6.282,0,0,0,3.514-5.208h0q.948-7.031,1.9-14.058c.172-1.293.354-2.63.53-3.94q-2.018,1.151-4.031,2.324-1.022,7.592-2.048,15.188h0a3.4,3.4,0,0,1-.841,1.983c-.94.914-2.561.4-3.69-.259h0c-.047-.026-4.824-3.673-4.824-3.673L460,467.124s6.152,2.224,5.824,2.375l2.466,1.423h0Z" transform="translate(-307.242 -295.863)" fill="#e2dfea"/>
            <path id="Trazado_129840" data-name="Trazado 129840" d="M257.645,378.3a3.052,3.052,0,0,0,2.337-.7c.224-.164.552-.431.56-.716h0c-.026-.185-.052-.366-.073-.552q-1.293-9.583-2.552-19.167c-1.345-.772-2.681-1.548-4.027-2.324q.5,3.776,1,7.553L256.446,374c.142,1.108.293,2.216.431,3.32h0A1.168,1.168,0,0,0,257.645,378.3Z" transform="translate(-189.987 -242.58)" fill="#e2dfea"/>
            <path id="Trazado_129841" data-name="Trazado 129841" d="M170.9,328.209a3.069,3.069,0,0,0,2.337-.7c.3-.224.6-.5.548-.785l-.065-.491q-1.293-9.584-2.548-19.167l-4.027-2.324c.095.724.194,1.448.289,2.177l1.828,13.718q.22,1.636.431,3.268c.142,1.086.293,2.194.431,3.294v.06A1.16,1.16,0,0,0,170.9,328.209Z" transform="translate(-140.641 -214.078)" fill="#e2dfea"/>
          </g>
          <g id="Grupo_58515" data-name="Grupo 58515" transform="translate(0 121.533)">
            <g id="Grupo_58512" data-name="Grupo 58512">
              <path id="Trazado_129842" data-name="Trazado 129842" d="M489.141,558.218l-.151.073v7.829l.19.034,60.075-34.7V523.51l-.073.039Z" transform="translate(-313.34 -460.068)" fill="#a4b0bd"/>
              <path id="Trazado_129843" data-name="Trazado 129843" d="M237.05,476.491,92.44,392.977,81.55,386.7v7.975l10.89,6.277,144.61,83.479Z" transform="translate(-81.55 -382.238)" fill="#1b2738"/>
              <path id="Trazado_129844" data-name="Trazado 129844" d="M442.25,594.98v7.941l20.15,3.858V598.95l.151-.073Z" transform="translate(-286.75 -500.727)" fill="#1b2738"/>
              <path id="Trazado_129845" data-name="Trazado 129845" d="M92.44,387.089,237.05,470.6l20.3,3.9,60.04-34.67-6.73-11.722-7.674-4.462h-.039l-65.9,38.036L89.262,376.35l-7.712,4.462Z" transform="translate(-81.55 -376.35)" fill="#596876"/>
            </g>
            <g id="Grupo_58513" data-name="Grupo 58513" transform="translate(175.65 1.435)">
              <path id="Trazado_129846" data-name="Trazado 129846" d="M566.882,556.357l-.392,17.318,1.108.336-.263-16.671c0-1.724,1.625-3.88,4.346-4.311l8.825-1.362V550.61l-7.941,1.207v.039l-1.362.19C568.62,552.464,566.882,554.542,566.882,556.357Z" transform="translate(-533.079 -476.92)" fill="#7c8b9c"/>
              <path id="Trazado_129847" data-name="Trazado 129847" d="M488.99,592.866v7.863l.116.039-.116.078,7.562,4.384v-16.3l-7.562-4.384v8.2l.116.039Z" transform="translate(-488.99 -496.229)" fill="#578030"/>
              <path id="Trazado_129848" data-name="Trazado 129848" d="M488.99,568.76v6.807l7.562,4.384v-6.807Z" transform="translate(-488.99 -487.246)" fill="#3d611d"/>
              <path id="Trazado_129849" data-name="Trazado 129849" d="M488.99,508.148v.492l7.562,4.384V467.469l-7.562-4.389Z" transform="translate(-488.99 -427.125)" fill="#3d611d"/>
              <path id="Trazado_129850" data-name="Trazado 129850" d="M495.306,440.2l-6.316,9.864,7.562,4.389,6.354-9.868Z" transform="translate(-488.99 -414.109)" fill="#578030"/>
              <path id="Trazado_129851" data-name="Trazado 129851" d="M506.53,594.72v16.3l15.653,9,.039-.039c1.323-.754,2.608-1.513,3.88-2.229v-.056c3.479-2,8.131-1.173,12.325,1.25v-5.807Z" transform="translate(-498.968 -502.014)" fill="#456826"/>
              <path id="Trazado_129852" data-name="Trazado 129852" d="M506.53,578.93v6.807l31.91,18.413v-6.807Z" transform="translate(-498.968 -493.031)" fill="#2f4715"/>
              <path id="Trazado_129853" data-name="Trazado 129853" d="M506.53,473.26v45.555l31.9,18.413v-5.6l-.862.155a3.7,3.7,0,0,1-4.083-1.724v-.039c-.151-.341-.3-.642-.431-.944a3.349,3.349,0,0,1-.263-1.246V512.353c0-1.815,1.724-3.88,4.311-4.311l1.362-.19V491.685Z" transform="translate(-498.968 -432.916)" fill="#072444"/>
              <path id="Trazado_129854" data-name="Trazado 129854" d="M512.884,450.37l-6.354,9.868,31.91,18.413,6.316-9.868Z" transform="translate(-498.968 -419.894)" fill="#578030"/>
              <path id="Trazado_129855" data-name="Trazado 129855" d="M529.42,661.888c.681.431,1.362.793,2.043,1.168a11.023,11.023,0,0,1,2.156-5.781,8.316,8.316,0,0,1,8.506-2.686,18.706,18.706,0,0,1,6.958,3.449,29.663,29.663,0,0,1,2.759,2.419c5.255,5.173,9.338,12.856,10.131,20.227.569-.341,1.134-.642,1.724-.983a31.931,31.931,0,0,0-1.724-6.311,41.258,41.258,0,0,0-9.415-14.709c-3.664-3.63-9.562-7.562-14.632-6.9a10.222,10.222,0,0,0-2.587.72,9.484,9.484,0,0,0-3.552,2.759A13.115,13.115,0,0,0,529.42,661.888Z" transform="translate(-511.99 -534.435)" fill="#596876"/>
              <path id="Trazado_129856" data-name="Trazado 129856" d="M544.821,658.02a8.316,8.316,0,0,0-8.506,2.686,11.023,11.023,0,0,0-2.155,5.781c1.293-.716,2.587-1.474,3.854-2.229a9.167,9.167,0,0,1,.793-1.724,7.255,7.255,0,0,1,3.97-3.138c2.949-.905,6.126.155,9,2.043A19.1,19.1,0,0,0,544.821,658.02Z" transform="translate(-514.687 -537.866)" fill="#283c48"/>
              <path id="Trazado_129857" data-name="Trazado 129857" d="M543.01,664.335a7.255,7.255,0,0,1,3.97-3.138c2.949-.905,6.126.155,9,2.043a29.654,29.654,0,0,1,2.759,2.419c5.255,5.173,9.338,12.856,10.131,20.227h-.039a11.86,11.86,0,0,1-.716,5.031,9.531,9.531,0,0,1-3.367,4.156,7.4,7.4,0,0,1-1.724.832c-2.988.862-6.467-.681-9.264-2.587-7.329-4.992-12.213-15.162-12.213-22.685a14.583,14.583,0,0,1,.681-4.574A9.16,9.16,0,0,1,543.01,664.335Zm20.344,26.582a7.327,7.327,0,0,0,1.436-1.815,6.644,6.644,0,0,0,.754-2.043,13.364,13.364,0,0,0,.078-4.083,24.164,24.164,0,0,0-6.768-13.8,14.177,14.177,0,0,0-5.936-3.88,6.312,6.312,0,0,0-4.5,0c-2.384.944-3.88,3.514-3.781,7.1C544.942,684.524,557.3,695.983,563.354,690.917Z" transform="translate(-518.89 -539.646)" fill="#283c48"/>
              <path id="Trazado_129858" data-name="Trazado 129858" d="M542.84,648.873l.112.078a10.222,10.222,0,0,1,2.587-.72c5.07-.681,10.967,3.25,14.632,6.9a41.256,41.256,0,0,1,9.437,14.7v-2.8l3.669-2.121c-3.367-6.035-8.471-13.192-14.179-17.085-4.195-2.423-8.846-3.255-12.325-1.25v.039c-1.293.716-2.587,1.474-3.88,2.229Z" transform="translate(-519.625 -530.874)" fill="#707f8e"/>
              <path id="Trazado_129859" data-name="Trazado 129859" d="M552.495,671.11c-2.384.944-3.88,3.513-3.781,7.1.3,12.136,12.662,23.594,18.714,18.538l-.039-.039c-1.966.642-4.311.039-6.277-.983a17.593,17.593,0,0,1-6.9-6.768c-2.229-3.518-3.932-7.562-3.932-11.64a8.339,8.339,0,0,1,1.625-5.522c.19-.224.379-.431.569-.642Z" transform="translate(-522.964 -545.472)" fill="#596876"/>
              <path id="Trazado_129860" data-name="Trazado 129860" d="M554.025,671.252a8.328,8.328,0,0,0-1.625,5.522c0,4.083,1.724,8.126,3.932,11.64a17.286,17.286,0,0,0,6.9,6.768c1.966,1.022,4.311,1.625,6.277.983l.039.039a7.329,7.329,0,0,0,1.436-1.815,6.645,6.645,0,0,0,.755-2.043h-.108c-2.587,2.457-6.656.72-9.415-1.724-1.134.185-2.587-.379-4.044-1.854a10.4,10.4,0,0,1-3.018-6.73,3.617,3.617,0,0,1,.72-2.419h-.039a14.449,14.449,0,0,1-.3-2.837c0-2.686.983-5.406,3.552-6.2a6.311,6.311,0,0,0-4.5,0v.035C554.4,670.8,554.215,671.028,554.025,671.252Z" transform="translate(-525.064 -544.937)" fill="#596876"/>
              <path id="Trazado_129861" data-name="Trazado 129861" d="M559.509,690.925a3.617,3.617,0,0,0-.72,2.419,10.4,10.4,0,0,0,3.018,6.73c1.474,1.474,2.91,2.039,4.044,1.854a1.807,1.807,0,0,0,.785-.254c.983-.53,1.552-1.854,1.323-3.7a10.251,10.251,0,0,0-2.988-6.035c-1.724-1.776-3.475-2.19-4.647-1.664A2.216,2.216,0,0,0,559.509,690.925Z" transform="translate(-528.694 -556.251)" fill="#a4b0bd"/>
              <path id="Trazado_129862" data-name="Trazado 129862" d="M560.83,679.488c.983-.569,2-1.134,2.983-1.724,1.138-.681,2.686-.073,3.858.72a10.471,10.471,0,0,1,3.971,6.842c.112,1.436-.19,3.061-1.323,3.742l-3.195,1.849a1.806,1.806,0,0,1-.793.267c2.759,2.457,6.807,4.195,9.415,1.724h.073a13.364,13.364,0,0,0,.078-4.083,24.164,24.164,0,0,0-6.768-13.8,14.176,14.176,0,0,0-5.936-3.88c-2.587.793-3.552,3.514-3.552,6.2a14.449,14.449,0,0,0,.3,2.837h.039a2.217,2.217,0,0,1,.832-.647Z" transform="translate(-529.182 -545.495)" fill="#495560"/>
              <path id="Trazado_129863" data-name="Trazado 129863" d="M562.4,687.882v.035c1.173-.526,2.91-.112,4.647,1.664a10.252,10.252,0,0,1,2.988,6.035c.229,1.849-.341,3.173-1.324,3.7l3.177-1.815c1.134-.681,1.436-2.306,1.323-3.742a10.471,10.471,0,0,0-3.971-6.842c-1.173-.793-2.72-1.4-3.858-.72C564.383,686.748,563.383,687.313,562.4,687.882Z" transform="translate(-530.753 -553.889)" fill="#707f8e"/>
              <path id="Trazado_129864" data-name="Trazado 129864" d="M573.666,577.029l7.941-1.207V553.06l-8.812,1.362c-2.72.431-4.346,2.587-4.346,4.311v15.5a2.509,2.509,0,0,0,.263,1.173v.047a3.659,3.659,0,0,0,4.083,1.724Z" transform="translate(-534.194 -478.314)" fill="#aabcce"/>
              <path id="Trazado_129865" data-name="Trazado 129865" d="M580.55,637.43v5.824c5.708,3.88,10.812,11.036,14.179,17.085l1.056-.6,12.4,7.109-8.622-14.783Z" transform="translate(-541.078 -526.312)" fill="#578030"/>
              <path id="Trazado_129866" data-name="Trazado 129866" d="M580.55,621.64v6.807l19.016,14.632-11.075-16.865Z" transform="translate(-541.078 -517.329)" fill="#3d611d"/>
              <path id="Trazado_129867" data-name="Trazado 129867" d="M580.55,607.067v5.6l7.941,4.574V605.86Z" transform="translate(-541.078 -508.352)" fill="#3d611d"/>
              <path id="Trazado_129868" data-name="Trazado 129868" d="M580.55,515.97v16.141l7.941-1.207V520.583Z" transform="translate(-541.078 -457.214)" fill="#3d611d"/>
              <path id="Trazado_129869" data-name="Trazado 129869" d="M586.866,493.08l-6.316,9.868,7.941,4.613,6.35-9.868Z" transform="translate(-541.078 -444.192)" fill="#578030"/>
              <path id="Trazado_129870" data-name="Trazado 129870" d="M594.232,724.844l-.862.487c3.25-1.893,7.449-4.156,10.7-6.005a8.352,8.352,0,0,0,3.669-5.523l-1.06-.6c-2.117,1.211-4.195,2.419-6.311,3.63-.681-.379-1.362-.754-2-1.173h-.039a11.861,11.861,0,0,1-.716,5.031,9.532,9.532,0,0,1-3.376,4.156Z" transform="translate(-548.371 -569.417)" fill="#090000"/>
              <path id="Trazado_129871" data-name="Trazado 129871" d="M598.97,560.809v11.377l18.977,3.669-3.138-47.37L598.97,526.67v34.139Z" transform="translate(-551.557 -463.301)" fill="#a37667"/>
              <path id="Trazado_129872" data-name="Trazado 129872" d="M615.52,532.977l-12.17-1.4v41.843l15.041,2.906Z" transform="translate(-554.049 -466.094)" fill="#072444"/>
              <path id="Trazado_129873" data-name="Trazado 129873" d="M605.32,500.185l-6.35,9.868,15.839,1.815-4.8-14.408Z" transform="translate(-551.557 -446.684)" fill="#82bc55"/>
              <path id="Trazado_129874" data-name="Trazado 129874" d="M598.97,632.25l11.075,16.865,26.845-.91-18.943-12.286Z" transform="translate(-551.557 -523.365)" fill="#78b942"/>
              <path id="Trazado_129875" data-name="Trazado 129875" d="M604.93,695.49v2.8l8.316,4.837,1.061.6,8.583,4.953v-2.8Z" transform="translate(-554.948 -559.342)" fill="#7c8b9c"/>
              <path id="Trazado_129876" data-name="Trazado 129876" d="M604.93,648.642l17.96,10.394,21.172-4.876L684.021,631.1l8.471-12.248-9.868-5.708,1.513,7.294-5.859,8.471-6.316,3.664-25.22,14.558-6.462,3.742-15.766,3.591-2.457-1.4v-.039l-12.4-7.109-1.056.6Z" transform="translate(-554.948 -512.493)" fill="#cfe0ec"/>
              <path id="Trazado_129877" data-name="Trazado 129877" d="M613.246,706.828,604.93,702a31.932,31.932,0,0,1,1.724,6.311c.151.72.224,1.436.3,2.156C609.051,709.247,611.129,708.035,613.246,706.828Z" transform="translate(-554.948 -563.045)" fill="#707f8e"/>
              <path id="Trazado_129878" data-name="Trazado 129878" d="M604.93,717.6c.642.431,1.323.793,2,1.173a21.745,21.745,0,0,0-.3-2.156C606.064,716.961,605.5,717.262,604.93,717.6Z" transform="translate(-554.948 -571.362)" fill="#596876"/>
              <path id="Trazado_129879" data-name="Trazado 129879" d="M624.58,492.522l4.8,14.408,11.153-6.428-9.489-11.722Z" transform="translate(-566.126 -441.746)" fill="#82bc55"/>
              <path id="Trazado_129880" data-name="Trazado 129880" d="M651.5,669.26V682.8l-15.766,3.6-2.457-1.4v-.039l-8.622-14.783Zm-2.725,10.058c2.194-5.255-6.992-7.863-11.64-4.652-4.083,2.875-1.4,8.281,3.557,8.963C644.167,684.12,647.724,681.965,648.78,679.318Z" transform="translate(-566.172 -544.42)" fill="#82bc55"/>
              <path id="Trazado_129881" data-name="Trazado 129881" d="M635.71,494.755l3.138,47.37L650,535.7,675.26,521.1l11-6.35-.457-6.54-2.19-33.083-.53-7.751-11,6.354-25.22,14.593Z" transform="translate(-572.458 -429.571)" fill="#eededa"/>
              <path id="Trazado_129882" data-name="Trazado 129882" d="M686.885,517.871l-.371-5.363L684,474.7l-33.592,19.426-10.135,5.841,2.858,43.171Z" transform="translate(-575.052 -433.736)" fill="#4e5774"/>
              <path id="Trazado_129883" data-name="Trazado 129883" d="M639.57,469.574l9.489,11.722,25.22-14.593L664.79,455.02Z" transform="translate(-574.654 -422.54)" fill="#82bc55"/>
              <path id="Trazado_129884" data-name="Trazado 129884" d="M642.99,632.278l18.943,12.286,6.462-3.7L654.143,625.85Z" transform="translate(-576.6 -519.724)" fill="#78b942"/>
              <path id="Trazado_129885" data-name="Trazado 129885" d="M646.59,713.166v2.8l21.172-4.876v-2.8Z" transform="translate(-578.648 -566.623)" fill="#aabcce"/>
              <path id="Trazado_129886" data-name="Trazado 129886" d="M650.969,679.946c-4.083,2.875-1.4,8.282,3.557,8.963,3.475.491,7.031-1.664,8.088-4.311C664.807,679.343,655.62,676.734,650.969,679.946Z" transform="translate(-580.005 -549.7)" fill="#f2f3f4"/>
              <path id="Trazado_129887" data-name="Trazado 129887" d="M668.86,606.593,683.112,621.6l25.22-14.558L694.118,592Z" transform="translate(-591.317 -500.467)" fill="#b3e0b9"/>
              <path id="Trazado_129888" data-name="Trazado 129888" d="M686.93,664.373V677.91l6.462-3.742v-13.5Z" transform="translate(-601.597 -539.533)" fill="#82bc55"/>
              <path id="Trazado_129889" data-name="Trazado 129889" d="M695.7,677.854v2.8l39.959-23.064v-2.8Z" transform="translate(-606.586 -536.188)" fill="#aabcce"/>
              <path id="Trazado_129890" data-name="Trazado 129890" d="M698.07,450.23l9.489,11.683,11-6.354L704.381,446.6Z" transform="translate(-607.934 -417.75)" fill="#82bc55"/>
              <path id="Trazado_129891" data-name="Trazado 129891" d="M701.92,641.458v13.5L727.14,640.4V626.9Z" transform="translate(-610.125 -520.321)" fill="#cce3cf"/>
              <path id="Trazado_129892" data-name="Trazado 129892" d="M555.23,380.787,598.5,405.769l-47.422,27.41-47.435-27.41,43.3-24.983a8.3,8.3,0,0,1,8.286,0Z" transform="translate(-497.324 -379.678)" fill="url(#linear-gradient-2)"/>
              <path id="Trazado_129893" data-name="Trazado 129893" d="M628.551,384.37a16.613,16.613,0,0,1,2.026.992l6.622,3.824,16.011,9.252,19.7,11.342-6.354-2.587-4.742-2.725-9.566-5.518-21.413-12.355-7.562-4.384Z" transform="translate(-565.381 -381.118)" fill="#6ea44b"/>
              <path id="Trazado_129894" data-name="Trazado 129894" d="M725.566,447.986l-1.776-5.216-6.355-2.569-4.725,2.759,14.179,8.958-.832-2.457Z" transform="translate(-616.263 -414.109)" fill="#82bc55"/>
              <path id="Trazado_129895" data-name="Trazado 129895" d="M727.45,583.62l14.214,15.046L747.979,595l-9.527-17.731Z" transform="translate(-624.648 -492.087)" fill="#78b942"/>
              <path id="Trazado_129896" data-name="Trazado 129896" d="M743.67,460.047l.832,2.457.53,7.76v-9.527c0-1.134-.19-1.854-.491-1.927H744.5C744.273,458.8,743.972,459.176,743.67,460.047Z" transform="translate(-633.876 -424.696)" fill="#aabcce"/>
              <path id="Trazado_129897" data-name="Trazado 129897" d="M751.91,562.1l.457,6.54,9.527,17.731,1.587-15.5Z" transform="translate(-638.564 -483.457)" fill="#78b942"/>
              <path id="Trazado_129898" data-name="Trazado 129898" d="M760.42,622.064v13.5l6.316-3.664V618.4Z" transform="translate(-643.405 -515.486)" fill="#82bc55"/>
              <path id="Trazado_129899" data-name="Trazado 129899" d="M776.651,582.44l2.759,13.235,1.513,7.294-5.863,8.471v-13.5Zm-.078,24.612c.681-.3,1.211-1.548,1.44-2.229,1.548-4.953-.647-12.325-1.591-10.437-.681,1.44-.983,8.622-.905,10.346C775.551,605.694,775.707,607.431,776.573,607.052Z" transform="translate(-651.734 -495.028)" fill="#82bc55"/>
              <path id="Trazado_129900" data-name="Trazado 129900" d="M777.01,609.751c-.681,1.44-.983,8.622-.905,10.346.034.983.19,2.72,1.056,2.341.681-.3,1.211-1.548,1.44-2.229C780.148,615.234,777.954,607.863,777.01,609.751Z" transform="translate(-652.321 -510.393)" fill="#f2f3f4"/>
              <path id="Trazado_129901" data-name="Trazado 129901" d="M788.39,638.628v2.8l8.471-12.248v-2.8Z" transform="translate(-659.317 -520.025)" fill="#aabcce"/>
            </g>
            <g id="Grupo_58514" data-name="Grupo 58514" transform="translate(4.427 9.931)">
              <path id="Trazado_129902" data-name="Trazado 129902" d="M132.539,446.709c-6.389-.681-9.717-4.156-12.36-8.355-2.194-3.514-3.932-7.523-3.932-11.605a8.28,8.28,0,0,1,2.19-6.2c-2.38.944-3.854,3.513-3.781,7.1C115,439.225,126.266,450.227,132.539,446.709Z" transform="translate(-104.809 -411.426)" fill="#7c8b9c"/>
              <path id="Trazado_129903" data-name="Trazado 129903" d="M137.64,441.779c-2.531,2.384-6.389.832-9.109-1.435-1.173.3-2.725-.229-4.272-1.815a10.234,10.234,0,0,1-3.018-6.73,3.582,3.582,0,0,1,.681-2.384,13.182,13.182,0,0,1-.379-3.212c0-3.63,1.552-5.635,3.591-6.2a6.523,6.523,0,0,0-4.574,0,8.331,8.331,0,0,0-2.19,6.2c0,4.083,1.724,8.092,3.932,11.605,2.643,4.2,5.971,7.674,12.36,8.355a5.88,5.88,0,0,0,2.268-2.341,6.612,6.612,0,0,0,.759-2.043Z" transform="translate(-106.923 -410.879)" fill="#3f4f5d"/>
              <path id="Trazado_129904" data-name="Trazado 129904" d="M139.439,443.941a10.631,10.631,0,0,0-3.97-6.842c-1.173-.8-2.72-1.4-3.88-.72L128.64,438.1v.034c1.168-.526,2.91-.112,4.647,1.664a10.588,10.588,0,0,1,2.988,6.035c.228,1.854-.341,3.138-1.324,3.669l3.177-1.815C139.25,447,139.573,445.377,139.439,443.941Z" transform="translate(-112.766 -420.263)" fill="#7c8b9c"/>
              <path id="Trazado_129905" data-name="Trazado 129905" d="M141.928,438.265a23.711,23.711,0,0,0-6.764-13.8,15.218,15.218,0,0,0-5.863-3.88c-2.039.565-3.591,2.587-3.591,6.2a13.182,13.182,0,0,0,.379,3.212,2.212,2.212,0,0,1,.862-.681v-.034l2.949-1.724c1.173-.681,2.72-.078,3.88.72a10.631,10.631,0,0,1,3.97,6.842c.112,1.436-.19,3.061-1.324,3.742l-3.177,1.815a1.875,1.875,0,0,1-.565.228c2.72,2.268,6.579,3.82,9.109,1.436h.039A13.484,13.484,0,0,0,141.928,438.265Z" transform="translate(-111.099 -411.449)" fill="#5e6571"/>
              <path id="Trazado_129906" data-name="Trazado 129906" d="M134.195,448.249a10.588,10.588,0,0,0-2.988-6.035c-1.724-1.776-3.479-2.19-4.647-1.664a2.212,2.212,0,0,0-.862.681,3.583,3.583,0,0,0-.681,2.384,10.234,10.234,0,0,0,3.018,6.73c1.548,1.586,3.1,2.117,4.272,1.815a1.875,1.875,0,0,0,.565-.229C133.854,451.4,134.423,450.107,134.195,448.249Z" transform="translate(-110.699 -422.683)" fill="#aabcce"/>
              <path id="Trazado_129907" data-name="Trazado 129907" d="M107.56,420.076c0-.53.039-1.056.073-1.548.306-3.557,1.724-6.014,3.88-7.26,2.078-1.211,4.837-1.25,7.863.039.039,0,.039.035.073.035,8.019,5.031,15.766,16.787,15.274,27.828l2.5,1.586,2.043-1.173a7.05,7.05,0,0,0,1.323-.6c-3.216,1.854-6.428,3.708-9.605,5.557V444.5c-1.815,1.138-4.16,1.362-7.031.457C116.518,442.571,107.56,431,107.56,420.076Zm23.969,16.447a13.485,13.485,0,0,0,.073-4.083,23.711,23.711,0,0,0-6.764-13.8,15.218,15.218,0,0,0-5.863-3.88,6.523,6.523,0,0,0-4.574,0c-2.38.944-3.854,3.514-3.781,7.1.341,11.571,11.61,22.573,17.882,19.055a5.88,5.88,0,0,0,2.268-2.341A6.614,6.614,0,0,0,131.529,436.522Z" transform="translate(-100.773 -405.623)" fill="#213844"/>
              <path id="Trazado_129908" data-name="Trazado 129908" d="M113.7,409.315c-3.406-2.121-6.9-3.018-9.756-2.121a9.249,9.249,0,0,0-5.255,4.8,14.433,14.433,0,0,0-1.1,7.031l4.311-2.492h.034c.306-3.557,1.724-6.014,3.88-7.26C107.923,408.065,110.687,408.026,113.7,409.315Z" transform="translate(-95.088 -403.631)" fill="#1b2738"/>
              <path id="Trazado_129909" data-name="Trazado 129909" d="M128.282,434.518c.6-13.761-10.4-29.716-20.909-33.911-2.608-1.061-5.6-1.664-8.191-.832a9.539,9.539,0,0,0-.944.375,10.967,10.967,0,0,0-5.1,5.173,16.969,16.969,0,0,0-1.293,7.941v.224l2.5,1.293a14.908,14.908,0,0,1,1.1-7.031,9.12,9.12,0,0,1,5.255-4.8c2.875-.905,6.35,0,9.756,2.121.039,0,.039.034.073.034,8.019,5.031,15.766,16.787,15.274,27.828Z" transform="translate(-91.818 -399.386)" fill="#283c48"/>
            </g>
          </g>
          <path id="Trazado_129910" data-name="Trazado 129910" d="M130.184,385.948c-3.177-1.625-6.958-2.725-10.209-2a6.3,6.3,0,0,0-2.457.862c-2.268,1.293-4.5,2.608-6.73,3.88-1.4.832-2.8,1.625-4.2,2.457l.039.073a9.524,9.524,0,0,1,.944-.375c2.587-.832,5.6-.228,8.191.832,10.51,4.195,21.512,20.15,20.909,33.911l2.043-1.173,9.868-5.686a29.835,29.835,0,0,0-1.966-11.532,51.246,51.246,0,0,0-4.449-9.127c-.431-.681-.862-1.4-1.323-2.043A29.241,29.241,0,0,0,130.184,385.948Z" transform="translate(-95.795 -259.009)" fill="#578030"/>
        </g>
      </g>
    </g>
  </g>
</svg>
