<svg xmlns="http://www.w3.org/2000/svg" width="60" height="60" viewBox="0 0 60 60">
  <g id="Grupo_61712" data-name="Grupo 61712" transform="translate(-180.5 -958.323)">
    <circle id="Elipse_1195" data-name="Elipse 1195" cx="30" cy="30" r="30" transform="translate(180.5 958.323)" fill="#91b3fa"/>
    <path id="Trazado_144554" data-name="Trazado 144554" d="M19.072,28.363A8.267,8.267,0,0,1,15.6,30.487a14.974,14.974,0,0,1-5.01.806A8.933,8.933,0,0,1,3.9,28.729,10.377,10.377,0,0,1,1.216,21.6L1.2,19.75a12.728,12.728,0,0,1,1.113-5.5A8.267,8.267,0,0,1,5.5,10.631a9.012,9.012,0,0,1,4.8-1.267,9.448,9.448,0,0,1,6.189,1.824,7.728,7.728,0,0,1,2.571,5.442H14.106a4.044,4.044,0,0,0-1.143-2.549,3.687,3.687,0,0,0-2.49-.762A3.355,3.355,0,0,0,7.485,14.96a8.76,8.76,0,0,0-1.069,4.688v1.289a8.576,8.576,0,0,0,1.091,4.8,3.86,3.86,0,0,0,3.435,1.6,4.32,4.32,0,0,0,2.988-.894V23.134H10.356V19.6h8.716Z" transform="translate(199.5 969.323)" fill="#fff"/>
  </g>
</svg>
