<svg xmlns="http://www.w3.org/2000/svg" width="60" height="60" viewBox="0 0 60 60">
  <g id="Grupo_58721" data-name="Grupo 58721" transform="translate(-180.5 -958.323)">
    <g id="Grupo_61702" data-name="Grupo 61702">
      <circle id="Elipse_1195" data-name="Elipse 1195" cx="30" cy="30" r="30" transform="translate(180.5 958.323)" fill="#91b3fa"/>
      <path id="Trazado_144408" data-name="Trazado 144408" d="M1.611,31V9.672h6.87a10.106,10.106,0,0,1,5.083,1.282,9.009,9.009,0,0,1,3.523,3.618,10.924,10.924,0,0,1,1.282,5.237v.981a10.987,10.987,0,0,1-1.238,5.251,9.048,9.048,0,0,1-3.486,3.633A9.884,9.884,0,0,1,8.628,31ZM6.753,13.642v13.4H8.54a4,4,0,0,0,3.4-1.575,7.717,7.717,0,0,0,1.187-4.68v-.923a7.653,7.653,0,0,0-1.187-4.658,4.069,4.069,0,0,0-3.457-1.567Z" transform="translate(199.5 969.323)" fill="#fff"/>
    </g>
  </g>
</svg>
