<svg xmlns="http://www.w3.org/2000/svg" width="60" height="60" viewBox="0 0 60 60">
  <g id="Grupo_58720" data-name="Grupo 58720" transform="translate(-180.5 -958.323)">
    <g id="Grupo_61701" data-name="Grupo 61701">
      <circle id="Elipse_1195" data-name="Elipse 1195" cx="30" cy="30" r="30" transform="translate(180.5 958.323)" fill="#91b3fa"/>
      <path id="Trazado_144407" data-name="Trazado 144407" d="M18.867,23.778a7.789,7.789,0,0,1-1.2,3.933,7.249,7.249,0,0,1-3.083,2.644,10.5,10.5,0,0,1-4.534.938,8.375,8.375,0,0,1-6.621-2.739q-2.417-2.739-2.417-7.734V19.765A12.91,12.91,0,0,1,2.1,14.279a8.269,8.269,0,0,1,3.142-3.633A8.767,8.767,0,0,1,9.99,9.364a9.193,9.193,0,0,1,6.24,2.043,8.074,8.074,0,0,1,2.681,5.632H13.784a3.82,3.82,0,0,0-.981-2.8,4.037,4.037,0,0,0-2.812-.85,3.071,3.071,0,0,0-2.812,1.436,9.226,9.226,0,0,0-.937,4.585v1.509A10.209,10.209,0,0,0,7.1,25.8a3.136,3.136,0,0,0,2.952,1.465,3.948,3.948,0,0,0,2.71-.835,3.544,3.544,0,0,0,1-2.651Z" transform="translate(199.5 969.323)" fill="#fff"/>
    </g>
  </g>
</svg>
