<svg xmlns="http://www.w3.org/2000/svg" width="1226.999" height="331.96" viewBox="0 0 1226.999 331.96">
  <g id="Grupo_61274" data-name="Grupo 61274" transform="translate(-180 -513)">
    <g id="tipo-cargas-01" transform="translate(180 513)">
      <g id="OBJECTS" transform="translate(0 0)">
        <g id="Grupo_55592" data-name="Grupo 55592" transform="translate(0 0)">
          <g id="Grupo_55591" data-name="Grupo 55591">
            <path id="Trazado_121182" data-name="Trazado 121182" d="M152.6,63.52V296.15c.008,5.109-5.64,9.256-12.615,9.262H16.1C9.13,305.407,3.482,301.26,3.49,296.15V63.761H148.47A38.006,38.006,0,0,0,152.6,63.52Z" transform="translate(-3.49 26.547)" fill="#f2f6fe"/>
            <path id="Trazado_121183" data-name="Trazado 121183" d="M139.981,3.26H16.1A12.615,12.615,0,0,0,3.49,15.89V93.507H62.334l15.156,18.16,16.232-18.16H148.53a30.248,30.248,0,0,0,4.065-.314V15.89A12.615,12.615,0,0,0,139.981,3.26Z" transform="translate(-3.49 -3.26)" fill="#57dbd8"/>
          </g>
        </g>
        <path id="Trazado_140388" data-name="Trazado 140388" d="M-12.727-4.333a4.673,4.673,0,0,1-.721,2.36A4.35,4.35,0,0,1-15.3-.387a6.3,6.3,0,0,1-2.72.563A5.025,5.025,0,0,1-21.99-1.468a6.786,6.786,0,0,1-1.45-4.641v-.633a7.746,7.746,0,0,1,.655-3.292,4.961,4.961,0,0,1,1.885-2.18,5.26,5.26,0,0,1,2.848-.769,5.516,5.516,0,0,1,3.744,1.226A4.844,4.844,0,0,1-12.7-8.376h-3.076a2.292,2.292,0,0,0-.589-1.679,2.422,2.422,0,0,0-1.687-.51A1.843,1.843,0,0,0-19.74-9.7,5.536,5.536,0,0,0-20.3-6.952v.905a6.126,6.126,0,0,0,.514,2.927,1.882,1.882,0,0,0,1.771.879,2.369,2.369,0,0,0,1.626-.5,2.126,2.126,0,0,0,.6-1.591ZM-6.047,0a3.344,3.344,0,0,1-.281-.853A2.754,2.754,0,0,1-8.613.176,3.374,3.374,0,0,1-10.9-.637a2.588,2.588,0,0,1-.94-2.043A2.66,2.66,0,0,1-10.7-5.019,5.821,5.821,0,0,1-7.374-5.81h.914v-.5q0-1.316-1.134-1.316A.927.927,0,0,0-8.648-6.587H-11.61a2.655,2.655,0,0,1,1.173-2.239,4.931,4.931,0,0,1,2.993-.86A4.323,4.323,0,0,1-4.57-8.8,3.086,3.086,0,0,1-3.489-6.363v4.21a4.311,4.311,0,0,0,.4,2V0ZM-7.9-1.934a1.652,1.652,0,0,0,.918-.237,1.487,1.487,0,0,0,.523-.536V-4.228h-.861q-1.547,0-1.547,1.389a.848.848,0,0,0,.272.655A.986.986,0,0,0-7.9-1.934Zm11.8-4.9L2.927-6.9a1.752,1.752,0,0,0-1.793.879V0H-1.828V-9.51H.949l.1,1.222a2.294,2.294,0,0,1,2.083-1.4,2.888,2.888,0,0,1,.826.105Zm.721,2A6.421,6.421,0,0,1,5.1-7.374,3.821,3.821,0,0,1,6.46-9.083a3.591,3.591,0,0,1,2.065-.6,2.855,2.855,0,0,1,2.32,1l.105-.826h2.689V-.36a4.009,4.009,0,0,1-.584,2.184,3.75,3.75,0,0,1-1.692,1.424,6.219,6.219,0,0,1-2.566.5,5.365,5.365,0,0,1-2.026-.4,3.657,3.657,0,0,1-1.5-1.028L6.513.58a2.716,2.716,0,0,0,2.18.976A1.764,1.764,0,0,0,10.661-.466v-.3a2.781,2.781,0,0,1-2.153.94A3.437,3.437,0,0,1,5.7-1.156,5.517,5.517,0,0,1,4.623-4.72Zm2.971.185a3.383,3.383,0,0,0,.439,1.85,1.386,1.386,0,0,0,1.23.681,1.573,1.573,0,0,0,1.4-.642v-4a1.534,1.534,0,0,0-1.38-.65,1.4,1.4,0,0,0-1.239.708A3.858,3.858,0,0,0,7.594-4.641ZM20.681,0A3.344,3.344,0,0,1,20.4-.853,2.754,2.754,0,0,1,18.114.176a3.374,3.374,0,0,1-2.285-.813,2.588,2.588,0,0,1-.94-2.043,2.66,2.66,0,0,1,1.143-2.338,5.821,5.821,0,0,1,3.322-.791h.914v-.5q0-1.316-1.134-1.316a.927.927,0,0,0-1.055,1.042H15.117a2.655,2.655,0,0,1,1.173-2.239,4.931,4.931,0,0,1,2.993-.86,4.323,4.323,0,0,1,2.874.888,3.086,3.086,0,0,1,1.081,2.435v4.21a4.311,4.311,0,0,0,.4,2V0ZM18.826-1.934a1.652,1.652,0,0,0,.918-.237,1.487,1.487,0,0,0,.523-.536V-4.228h-.861q-1.547,0-1.547,1.389a.848.848,0,0,0,.272.655A.986.986,0,0,0,18.826-1.934ZM-20.1,18.418a4.96,4.96,0,0,1-2.083,1.274,8.984,8.984,0,0,1-3.006.483A5.36,5.36,0,0,1-29.2,18.638a6.226,6.226,0,0,1-1.608-4.28l-.009-1.107a7.637,7.637,0,0,1,.668-3.3,4.96,4.96,0,0,1,1.912-2.171,5.407,5.407,0,0,1,2.878-.76,5.669,5.669,0,0,1,3.713,1.094A4.637,4.637,0,0,1-20.1,11.378h-2.971a2.426,2.426,0,0,0-.686-1.529,2.212,2.212,0,0,0-1.494-.457,2.013,2.013,0,0,0-1.793.984,5.256,5.256,0,0,0-.642,2.813v.773a5.145,5.145,0,0,0,.655,2.878,2.316,2.316,0,0,0,2.061.962,2.592,2.592,0,0,0,1.793-.536V15.28h-2.145V13.162H-20.1Zm6.258,1.758a4.889,4.889,0,0,1-3.542-1.305,4.507,4.507,0,0,1-1.354-3.4v-.246a5.84,5.84,0,0,1,.541-2.575,3.955,3.955,0,0,1,1.578-1.727,4.763,4.763,0,0,1,2.461-.611,4.117,4.117,0,0,1,3.164,1.244,4.887,4.887,0,0,1,1.16,3.467v1.151h-5.889a2.135,2.135,0,0,0,.694,1.257,2.066,2.066,0,0,0,1.389.457,2.662,2.662,0,0,0,2.2-.984l1.354,1.6a3.784,3.784,0,0,1-1.569,1.217A5.3,5.3,0,0,1-13.838,20.176Zm-.334-7.576q-1.3,0-1.547,1.723h2.988v-.229a1.467,1.467,0,0,0-.36-1.1A1.434,1.434,0,0,0-14.172,12.6Zm8.253-2.109.1,1.116a3.225,3.225,0,0,1,2.716-1.292A2.713,2.713,0,0,1-.888,11.2a4.226,4.226,0,0,1,.76,2.672V20H-3.1V14a1.6,1.6,0,0,0-.29-1.059A1.342,1.342,0,0,0-4.443,12.6a1.413,1.413,0,0,0-1.292.686V20H-8.7V10.49ZM6.113,20.176a4.889,4.889,0,0,1-3.542-1.305,4.507,4.507,0,0,1-1.354-3.4v-.246a5.84,5.84,0,0,1,.541-2.575,3.955,3.955,0,0,1,1.578-1.727A4.763,4.763,0,0,1,5.8,10.314,4.117,4.117,0,0,1,8.96,11.558a4.887,4.887,0,0,1,1.16,3.467v1.151H4.232a2.135,2.135,0,0,0,.694,1.257,2.066,2.066,0,0,0,1.389.457,2.662,2.662,0,0,0,2.2-.984l1.354,1.6A3.784,3.784,0,0,1,8.3,19.723,5.3,5.3,0,0,1,6.113,20.176ZM5.779,12.6q-1.3,0-1.547,1.723H7.22v-.229a1.467,1.467,0,0,0-.36-1.1A1.434,1.434,0,0,0,5.779,12.6Zm11.285.571-.976-.07a1.752,1.752,0,0,0-1.793.879V20H11.333V10.49h2.777l.1,1.222a2.294,2.294,0,0,1,2.083-1.4,2.888,2.888,0,0,1,.826.105ZM23.225,20a3.344,3.344,0,0,1-.281-.853,2.754,2.754,0,0,1-2.285,1.028,3.374,3.374,0,0,1-2.285-.813,2.588,2.588,0,0,1-.94-2.043,2.66,2.66,0,0,1,1.143-2.338A5.821,5.821,0,0,1,21.9,14.19h.914v-.5q0-1.316-1.134-1.316a.927.927,0,0,0-1.055,1.042H17.662a2.655,2.655,0,0,1,1.173-2.239,4.931,4.931,0,0,1,2.993-.86A4.323,4.323,0,0,1,24.7,11.2a3.086,3.086,0,0,1,1.081,2.435v4.21a4.311,4.311,0,0,0,.4,2V20Zm-1.854-1.934a1.652,1.652,0,0,0,.918-.237,1.487,1.487,0,0,0,.523-.536V15.772h-.861q-1.547,0-1.547,1.389a.848.848,0,0,0,.272.655A.986.986,0,0,0,21.371,18.066ZM30.546,20H27.576V6.5h2.971Z" transform="translate(74.277 140.377)" fill="#111e61"/>
        <text id="_1" data-name="1" transform="translate(65.678 60.58)" fill="#fff" font-size="46" font-family="BebasNeueBold, Bebas Neue" letter-spacing="-0.01em"><tspan x="0" y="0">1</tspan></text>
        <g id="Grupo_55595" data-name="Grupo 55595" transform="translate(21.301 203.14)">
          <ellipse id="Elipse_4232" data-name="Elipse 4232" cx="42.149" cy="42.149" rx="42.149" ry="42.149" transform="translate(0 31.715) rotate(-22.1)" fill="#57dbd8"/>
        </g>
      </g>
    </g>
    <g id="tipo-cargas-01-2" data-name="tipo-cargas-01" transform="translate(487.97 513)">
      <g id="OBJECTS-2" data-name="OBJECTS" transform="translate(0 0)">
        <g id="Grupo_55592-2" data-name="Grupo 55592" transform="translate(0 0)">
          <g id="Grupo_55591-2" data-name="Grupo 55591">
            <path id="Trazado_121182-2" data-name="Trazado 121182" d="M152.6,63.52V296.15c.008,5.109-5.64,9.256-12.615,9.262H16.1C9.13,305.407,3.482,301.26,3.49,296.15V63.761H148.47A38.006,38.006,0,0,0,152.6,63.52Z" transform="translate(-3.49 26.547)" fill="#f2f6fe"/>
            <path id="Trazado_121183-2" data-name="Trazado 121183" d="M139.981,3.26H16.1A12.615,12.615,0,0,0,3.49,15.89V93.507H62.334l15.156,18.16,16.232-18.16H148.53a30.248,30.248,0,0,0,4.065-.314V15.89A12.615,12.615,0,0,0,139.981,3.26Z" transform="translate(-3.49 -3.26)" fill="#57dbd8"/>
          </g>
        </g>
        <text id="_3" data-name="3" transform="translate(65.678 60.58)" fill="#fff" font-size="46" font-family="BebasNeueBold, Bebas Neue" letter-spacing="-0.01em"><tspan x="0" y="0">3</tspan></text>
        <g id="Grupo_55595-2" data-name="Grupo 55595" transform="translate(21.301 203.318)">
          <ellipse id="Elipse_4232-2" data-name="Elipse 4232" cx="42.149" cy="42.149" rx="42.149" ry="42.149" transform="translate(0 31.715) rotate(-22.1)" fill="#57dbd8"/>
          <g id="shipment" transform="translate(-132.271 21.682)">
            <path id="Trazado_137080" data-name="Trazado 137080" d="M50,49a3,3,0,1,0,3,3A3,3,0,0,0,50,49Zm0,4a1,1,0,1,1,1-1A1,1,0,0,1,50,53Z" fill="#fff"/>
            <path id="Trazado_137081" data-name="Trazado 137081" d="M18,49a3,3,0,1,0,3,3A3,3,0,0,0,18,49Zm0,4a1,1,0,1,1,1-1A1,1,0,0,1,18,53Z" fill="#fff"/>
            <path id="Trazado_137082" data-name="Trazado 137082" d="M60.236,36,58.9,35.333l-1.359-8.154A4.984,4.984,0,0,0,52.611,23H42a4.977,4.977,0,0,0-3.974,2H35V15H29V5H15V15H9V25H3V35a2,2,0,0,0-2,2v2a2,2,0,0,0,2,2v9a3,3,0,0,0,3,3h5.08a6.991,6.991,0,0,0,13.84,0H43.08a6.991,6.991,0,0,0,13.84,0H60a3,3,0,0,0,3-3V40.472A4.974,4.974,0,0,0,60.236,36ZM61,45.382l-2-1V43h2ZM21,27h2v2H21Zm4,4V27h2v8H17V27h2v4Zm12,4H29V27h2v4h6Zm0-7v1H33V27h4.1a5,5,0,0,0-.1,1Zm-4-3H23V17h2v4h6V17h2Zm-6-8h2v2H27ZM21,7h2V9H21ZM17,7h2v4h6V7h2v8H17ZM15,17h2v2H15Zm-4,0h2v4h6V17h2v8H11ZM9,27h2v2H9ZM5,27H7v4h6V27h2v8H5ZM3,37H37v2H3Zm2,8H8.719l-.5,2H5Zm0,5V49H9.781l1.5-6H5V41H37V51H24.92a6.991,6.991,0,0,0-13.84,0H6A1,1,0,0,1,5,50Zm13,7a5,5,0,1,1,5-5A5.006,5.006,0,0,1,18,57ZM49,35h4v2H51A2,2,0,0,1,49,35Zm0-2a2,2,0,0,0-2,2,3.959,3.959,0,0,0,.556,2H43V29h9.046l.749,4Zm-6,6H53v6.685A6.974,6.974,0,0,0,43.08,51H43Zm7,18a5,5,0,1,1,5-5A5.006,5.006,0,0,1,50,57Zm10-6H56.92A6.977,6.977,0,0,0,55,47.111V34l-.987-5.366A2,2,0,0,0,52.047,27H43a2,2,0,0,0-2,2V51H39V28a3,3,0,0,1,3-3H52.611a2.991,2.991,0,0,1,2.959,2.507l1.527,9.16,2.244,1.122A2.985,2.985,0,0,1,61,40.472V41H57v4.618l4,2V50A1,1,0,0,1,60,51Z" fill="#fff"/>
          </g>
          <g id="shipment-2" data-name="shipment" transform="translate(-132.271 21.682)">
            <path id="Trazado_137080-2" data-name="Trazado 137080" d="M50,49a3,3,0,1,0,3,3A3,3,0,0,0,50,49Zm0,4a1,1,0,1,1,1-1A1,1,0,0,1,50,53Z" fill="#fff"/>
            <path id="Trazado_137081-2" data-name="Trazado 137081" d="M18,49a3,3,0,1,0,3,3A3,3,0,0,0,18,49Zm0,4a1,1,0,1,1,1-1A1,1,0,0,1,18,53Z" fill="#fff"/>
            <path id="Trazado_137082-2" data-name="Trazado 137082" d="M60.236,36,58.9,35.333l-1.359-8.154A4.984,4.984,0,0,0,52.611,23H42a4.977,4.977,0,0,0-3.974,2H35V15H29V5H15V15H9V25H3V35a2,2,0,0,0-2,2v2a2,2,0,0,0,2,2v9a3,3,0,0,0,3,3h5.08a6.991,6.991,0,0,0,13.84,0H43.08a6.991,6.991,0,0,0,13.84,0H60a3,3,0,0,0,3-3V40.472A4.974,4.974,0,0,0,60.236,36ZM61,45.382l-2-1V43h2ZM21,27h2v2H21Zm4,4V27h2v8H17V27h2v4Zm12,4H29V27h2v4h6Zm0-7v1H33V27h4.1a5,5,0,0,0-.1,1Zm-4-3H23V17h2v4h6V17h2Zm-6-8h2v2H27ZM21,7h2V9H21ZM17,7h2v4h6V7h2v8H17ZM15,17h2v2H15Zm-4,0h2v4h6V17h2v8H11ZM9,27h2v2H9ZM5,27H7v4h6V27h2v8H5ZM3,37H37v2H3Zm2,8H8.719l-.5,2H5Zm0,5V49H9.781l1.5-6H5V41H37V51H24.92a6.991,6.991,0,0,0-13.84,0H6A1,1,0,0,1,5,50Zm13,7a5,5,0,1,1,5-5A5.006,5.006,0,0,1,18,57ZM49,35h4v2H51A2,2,0,0,1,49,35Zm0-2a2,2,0,0,0-2,2,3.959,3.959,0,0,0,.556,2H43V29h9.046l.749,4Zm-6,6H53v6.685A6.974,6.974,0,0,0,43.08,51H43Zm7,18a5,5,0,1,1,5-5A5.006,5.006,0,0,1,50,57Zm10-6H56.92A6.977,6.977,0,0,0,55,47.111V34l-.987-5.366A2,2,0,0,0,52.047,27H43a2,2,0,0,0-2,2V51H39V28a3,3,0,0,1,3-3H52.611a2.991,2.991,0,0,1,2.959,2.507l1.527,9.16,2.244,1.122A2.985,2.985,0,0,1,61,40.472V41H57v4.618l4,2V50A1,1,0,0,1,60,51Z" fill="#fff"/>
          </g>
        </g>
        <path id="Trazado_140390" data-name="Trazado 140390" d="M61.773,14.667a4.673,4.673,0,0,1-.721,2.36,4.35,4.35,0,0,1-1.85,1.586,6.3,6.3,0,0,1-2.72.563,5.025,5.025,0,0,1-3.973-1.644,6.786,6.786,0,0,1-1.45-4.641v-.633a7.746,7.746,0,0,1,.655-3.292A4.961,4.961,0,0,1,53.6,6.788a5.26,5.26,0,0,1,2.848-.769,5.516,5.516,0,0,1,3.744,1.226A4.844,4.844,0,0,1,61.8,10.624H58.724a2.292,2.292,0,0,0-.589-1.679,2.422,2.422,0,0,0-1.687-.51A1.843,1.843,0,0,0,54.76,9.3a5.536,5.536,0,0,0-.562,2.751v.905a6.126,6.126,0,0,0,.514,2.927,1.882,1.882,0,0,0,1.771.879,2.369,2.369,0,0,0,1.626-.5,2.126,2.126,0,0,0,.6-1.591ZM68.453,19a3.344,3.344,0,0,1-.281-.853,2.754,2.754,0,0,1-2.285,1.028,3.374,3.374,0,0,1-2.285-.813,2.588,2.588,0,0,1-.94-2.043A2.66,2.66,0,0,1,63.8,13.981a5.821,5.821,0,0,1,3.322-.791h.914v-.5q0-1.316-1.134-1.316a.927.927,0,0,0-1.055,1.042H62.89a2.655,2.655,0,0,1,1.173-2.239,4.931,4.931,0,0,1,2.993-.86,4.323,4.323,0,0,1,2.874.888,3.086,3.086,0,0,1,1.081,2.435v4.21a4.311,4.311,0,0,0,.4,2V19ZM66.6,17.066a1.652,1.652,0,0,0,.918-.237,1.487,1.487,0,0,0,.523-.536V14.772h-.861q-1.547,0-1.547,1.389a.848.848,0,0,0,.272.655A.986.986,0,0,0,66.6,17.066Zm11.8-4.9-.976-.07a1.752,1.752,0,0,0-1.793.879V19H72.672V9.49h2.777l.1,1.222a2.294,2.294,0,0,1,2.083-1.4,2.888,2.888,0,0,1,.826.105Zm.721,2a6.421,6.421,0,0,1,.475-2.549A3.821,3.821,0,0,1,80.96,9.917a3.591,3.591,0,0,1,2.065-.6,2.855,2.855,0,0,1,2.32,1l.105-.826h2.689V18.64a4.009,4.009,0,0,1-.584,2.184,3.75,3.75,0,0,1-1.692,1.424,6.219,6.219,0,0,1-2.566.5,5.365,5.365,0,0,1-2.026-.4,3.657,3.657,0,0,1-1.5-1.028l1.239-1.74a2.716,2.716,0,0,0,2.18.976,1.764,1.764,0,0,0,1.969-2.021v-.3a2.781,2.781,0,0,1-2.153.94A3.437,3.437,0,0,1,80.2,17.844a5.517,5.517,0,0,1-1.072-3.564Zm2.971.185a3.383,3.383,0,0,0,.439,1.85,1.387,1.387,0,0,0,1.23.681,1.573,1.573,0,0,0,1.4-.642v-4a1.534,1.534,0,0,0-1.38-.65,1.4,1.4,0,0,0-1.239.708A3.858,3.858,0,0,0,82.094,14.359ZM95.181,19a3.344,3.344,0,0,1-.281-.853,2.754,2.754,0,0,1-2.285,1.028,3.374,3.374,0,0,1-2.285-.813,2.588,2.588,0,0,1-.94-2.043,2.66,2.66,0,0,1,1.143-2.338,5.821,5.821,0,0,1,3.322-.791h.914v-.5q0-1.316-1.134-1.316a.927.927,0,0,0-1.055,1.042H89.617a2.655,2.655,0,0,1,1.173-2.239,4.931,4.931,0,0,1,2.993-.86,4.323,4.323,0,0,1,2.874.888,3.086,3.086,0,0,1,1.081,2.435v4.21a4.311,4.311,0,0,0,.4,2V19Zm-1.854-1.934a1.652,1.652,0,0,0,.918-.237,1.487,1.487,0,0,0,.523-.536V14.772h-.861q-1.547,0-1.547,1.389a.848.848,0,0,0,.272.655A.986.986,0,0,0,93.326,17.066ZM8.434,36.625a.608.608,0,0,0-.352-.539,5.347,5.347,0,0,0-1.336-.422,6.092,6.092,0,0,1-1.625-.574,2.722,2.722,0,0,1-.977-.863,2.061,2.061,0,0,1-.336-1.164,2.336,2.336,0,0,1,.961-1.918,3.958,3.958,0,0,1,2.516-.754,4.386,4.386,0,0,1,2.688.758,2.37,2.37,0,0,1,1.016,1.992H8.348q0-1.016-1.07-1.016a1.061,1.061,0,0,0-.7.23.714.714,0,0,0-.281.574.655.655,0,0,0,.344.57,3.248,3.248,0,0,0,1.1.359,9.486,9.486,0,0,1,1.324.336,2.406,2.406,0,0,1,1.906,2.352A2.214,2.214,0,0,1,9.945,38.43a4.505,4.505,0,0,1-2.66.727,4.6,4.6,0,0,1-1.937-.391A3.24,3.24,0,0,1,4.02,37.7a2.406,2.406,0,0,1-.477-1.414H6a1.017,1.017,0,0,0,.391.855,1.607,1.607,0,0,0,.961.27,1.264,1.264,0,0,0,.809-.219A.7.7,0,0,0,8.434,36.625Zm3.438-1.93a4.989,4.989,0,0,1,.492-2.254,3.52,3.52,0,0,1,1.414-1.52,4.259,4.259,0,0,1,2.164-.531,3.887,3.887,0,0,1,2.992,1.176,4.512,4.512,0,0,1,1.094,3.2v.094A4.378,4.378,0,0,1,18.93,38a3.9,3.9,0,0,1-2.973,1.16,3.942,3.942,0,0,1-2.9-1.082,4.232,4.232,0,0,1-1.18-2.934Zm2.633.164a3.145,3.145,0,0,0,.367,1.719,1.223,1.223,0,0,0,1.086.547q1.406,0,1.438-2.164V34.7q0-2.273-1.453-2.273-1.32,0-1.43,1.961Zm14.531-.016a5.152,5.152,0,0,1-.859,3.2,2.878,2.878,0,0,1-2.422,1.117,2.5,2.5,0,0,1-2.078-1.023L23.566,39H21.207V27H23.84v4.227a2.41,2.41,0,0,1,1.9-.836,2.879,2.879,0,0,1,2.438,1.133,5.179,5.179,0,0,1,.859,3.188Zm-2.641-.168a3.437,3.437,0,0,0-.324-1.735,1.093,1.093,0,0,0-1-.519,1.261,1.261,0,0,0-1.234.679v3.354a1.268,1.268,0,0,0,1.25.671,1.118,1.118,0,0,0,1.18-.9A6.5,6.5,0,0,0,26.395,34.676Zm8.914-1.746-.867-.062a1.558,1.558,0,0,0-1.594.781V39H30.215V30.547h2.469l.086,1.086a2.039,2.039,0,0,1,1.852-1.242,2.567,2.567,0,0,1,.734.094Zm5.039,6.227A4.345,4.345,0,0,1,37.2,38a4.006,4.006,0,0,1-1.2-3.02v-.219a5.191,5.191,0,0,1,.48-2.289,3.516,3.516,0,0,1,1.4-1.535,4.233,4.233,0,0,1,2.188-.543A3.659,3.659,0,0,1,42.879,31.5a4.344,4.344,0,0,1,1.031,3.082V35.6H38.676a1.9,1.9,0,0,0,.617,1.117,1.836,1.836,0,0,0,1.234.406,2.366,2.366,0,0,0,1.953-.875l1.2,1.422a3.363,3.363,0,0,1-1.395,1.082A4.713,4.713,0,0,1,40.348,39.156Zm-.3-6.734q-1.156,0-1.375,1.531h2.656v-.2a1.3,1.3,0,0,0-.32-.98A1.275,1.275,0,0,0,40.051,32.422Zm4.586,2.289a5.164,5.164,0,0,1,.867-3.164,2.854,2.854,0,0,1,2.422-1.156,2.428,2.428,0,0,1,1.906.891V27h2.641V39H50.105l-.133-.906a2.493,2.493,0,0,1-2.062,1.063A2.849,2.849,0,0,1,45.52,38,5.327,5.327,0,0,1,44.637,34.711Zm2.633.164q0,2.25,1.313,2.25a1.3,1.3,0,0,0,1.25-.734V33.172a1.261,1.261,0,0,0-1.234-.75q-1.219,0-1.32,1.969ZM56.746,39H54.105V30.547h2.641Zm-2.8-10.633a1.175,1.175,0,0,1,.406-.922,1.727,1.727,0,0,1,2.109,0,1.249,1.249,0,0,1,0,1.844,1.727,1.727,0,0,1-2.109,0A1.175,1.175,0,0,1,53.949,28.367Zm6.906,2.18.086.992a2.906,2.906,0,0,1,2.414-1.148,2.14,2.14,0,0,1,2.164,1.273A2.813,2.813,0,0,1,68,30.391q2.57,0,2.641,3.109V39H68V33.664a1.611,1.611,0,0,0-.219-.945.931.931,0,0,0-.8-.3,1.247,1.247,0,0,0-1.164.7l.008.109V39H63.191V33.68a1.694,1.694,0,0,0-.211-.961.929.929,0,0,0-.8-.3,1.263,1.263,0,0,0-1.156.7V39H58.387V30.547Zm15.383,8.609A4.345,4.345,0,0,1,73.09,38a4.006,4.006,0,0,1-1.2-3.02v-.219a5.191,5.191,0,0,1,.48-2.289,3.516,3.516,0,0,1,1.4-1.535,4.233,4.233,0,0,1,2.188-.543A3.659,3.659,0,0,1,78.77,31.5,4.344,4.344,0,0,1,79.8,34.578V35.6H74.566a1.9,1.9,0,0,0,.617,1.117,1.836,1.836,0,0,0,1.234.406,2.366,2.366,0,0,0,1.953-.875l1.2,1.422a3.363,3.363,0,0,1-1.395,1.082A4.713,4.713,0,0,1,76.238,39.156Zm-.3-6.734q-1.156,0-1.375,1.531h2.656v-.2a1.3,1.3,0,0,0-.32-.98A1.275,1.275,0,0,0,75.941,32.422Zm7.336-1.875.086.992a2.867,2.867,0,0,1,2.414-1.148,2.412,2.412,0,0,1,1.973.789,3.757,3.757,0,0,1,.676,2.375V39H85.785V33.664a1.426,1.426,0,0,0-.258-.941,1.193,1.193,0,0,0-.937-.3,1.256,1.256,0,0,0-1.148.609V39H80.809V30.547Zm11.031,6.078a.608.608,0,0,0-.352-.539,5.347,5.347,0,0,0-1.336-.422A6.092,6.092,0,0,1,91,35.09a2.722,2.722,0,0,1-.977-.863,2.061,2.061,0,0,1-.336-1.164,2.336,2.336,0,0,1,.961-1.918,3.958,3.958,0,0,1,2.516-.754,4.386,4.386,0,0,1,2.688.758,2.37,2.37,0,0,1,1.016,1.992H94.223q0-1.016-1.07-1.016a1.061,1.061,0,0,0-.7.23.714.714,0,0,0-.281.574.655.655,0,0,0,.344.57,3.248,3.248,0,0,0,1.1.359,9.486,9.486,0,0,1,1.324.336,2.406,2.406,0,0,1,1.906,2.352A2.214,2.214,0,0,1,95.82,38.43a4.505,4.505,0,0,1-2.66.727,4.6,4.6,0,0,1-1.937-.391A3.24,3.24,0,0,1,89.895,37.7a2.406,2.406,0,0,1-.477-1.414h2.461a1.017,1.017,0,0,0,.391.855,1.607,1.607,0,0,0,.961.27,1.264,1.264,0,0,0,.809-.219A.7.7,0,0,0,94.309,36.625ZM100.855,39H98.215V30.547h2.641Zm-2.8-10.633a1.175,1.175,0,0,1,.406-.922,1.727,1.727,0,0,1,2.109,0,1.249,1.249,0,0,1,0,1.844,1.727,1.727,0,0,1-2.109,0A1.175,1.175,0,0,1,98.059,28.367Zm4.086,6.328a4.989,4.989,0,0,1,.492-2.254,3.52,3.52,0,0,1,1.414-1.52,4.259,4.259,0,0,1,2.164-.531,3.887,3.887,0,0,1,2.992,1.176,4.512,4.512,0,0,1,1.094,3.2v.094A4.378,4.378,0,0,1,109.2,38a3.9,3.9,0,0,1-2.973,1.16,3.942,3.942,0,0,1-2.9-1.082,4.232,4.232,0,0,1-1.18-2.934Zm2.633.164a3.145,3.145,0,0,0,.367,1.719,1.223,1.223,0,0,0,1.086.547q1.406,0,1.438-2.164V34.7q0-2.273-1.453-2.273-1.32,0-1.43,1.961Zm9.1-4.312.086.992a2.867,2.867,0,0,1,2.414-1.148,2.412,2.412,0,0,1,1.973.789,3.757,3.757,0,0,1,.676,2.375V39h-2.641V33.664a1.426,1.426,0,0,0-.258-.941,1.193,1.193,0,0,0-.937-.3,1.256,1.256,0,0,0-1.148.609V39H111.41V30.547ZM125.246,39a2.973,2.973,0,0,1-.25-.758,2.448,2.448,0,0,1-2.031.914,3,3,0,0,1-2.031-.723,2.3,2.3,0,0,1-.836-1.816,2.364,2.364,0,0,1,1.016-2.078,5.174,5.174,0,0,1,2.953-.7h.813v-.448q0-1.17-1.008-1.17a.824.824,0,0,0-.937.926H120.3a2.36,2.36,0,0,1,1.043-1.99,4.383,4.383,0,0,1,2.66-.765,3.843,3.843,0,0,1,2.555.789,2.743,2.743,0,0,1,.961,2.164v3.742a3.832,3.832,0,0,0,.359,1.781V39ZM123.6,37.281a1.469,1.469,0,0,0,.816-.211,1.322,1.322,0,0,0,.465-.477V35.242h-.766q-1.375,0-1.375,1.234a.754.754,0,0,0,.242.582A.876.876,0,0,0,123.6,37.281Zm5.047-2.57a5.164,5.164,0,0,1,.867-3.164,2.854,2.854,0,0,1,2.422-1.156,2.428,2.428,0,0,1,1.906.891V27h2.641V39h-2.367l-.133-.906a2.493,2.493,0,0,1-2.062,1.063A2.849,2.849,0,0,1,129.527,38,5.327,5.327,0,0,1,128.645,34.711Zm2.633.164q0,2.25,1.313,2.25a1.3,1.3,0,0,0,1.25-.734V33.172a1.261,1.261,0,0,0-1.234-.75q-1.219,0-1.32,1.969ZM142.738,39a2.973,2.973,0,0,1-.25-.758,2.448,2.448,0,0,1-2.031.914,3,3,0,0,1-2.031-.723,2.3,2.3,0,0,1-.836-1.816,2.364,2.364,0,0,1,1.016-2.078,5.174,5.174,0,0,1,2.953-.7h.813v-.448q0-1.17-1.008-1.17a.824.824,0,0,0-.937.926h-2.633a2.36,2.36,0,0,1,1.043-1.99,4.383,4.383,0,0,1,2.66-.765,3.843,3.843,0,0,1,2.555.789,2.743,2.743,0,0,1,.961,2.164v3.742a3.832,3.832,0,0,0,.359,1.781V39Zm-1.648-1.719a1.469,1.469,0,0,0,.816-.211,1.322,1.322,0,0,0,.465-.477V35.242h-.766q-1.375,0-1.375,1.234a.754.754,0,0,0,.242.582A.876.876,0,0,0,141.09,37.281Z" transform="translate(0.03 123)" fill="#111e61"/>
      </g>
    </g>
    <g id="tipo-cargas-01-3" data-name="tipo-cargas-01" transform="translate(1103.909 513)">
      <g id="OBJECTS-3" data-name="OBJECTS" transform="translate(0 0)">
        <g id="Grupo_55592-3" data-name="Grupo 55592" transform="translate(0 0)">
          <g id="Grupo_55591-3" data-name="Grupo 55591">
            <path id="Trazado_121182-3" data-name="Trazado 121182" d="M152.6,63.52V296.15c.008,5.109-5.64,9.256-12.615,9.262H16.1C9.13,305.407,3.482,301.26,3.49,296.15V63.761H148.47A38.006,38.006,0,0,0,152.6,63.52Z" transform="translate(-3.49 26.547)" fill="#f2f6fe"/>
            <path id="Trazado_121183-3" data-name="Trazado 121183" d="M139.981,3.26H16.1A12.615,12.615,0,0,0,3.49,15.89V93.507H62.334l15.156,18.16,16.232-18.16H148.53a30.248,30.248,0,0,0,4.065-.314V15.89A12.615,12.615,0,0,0,139.981,3.26Z" transform="translate(-3.49 -3.26)" fill="#57dbd8"/>
          </g>
        </g>
        <text id="_7" data-name="7" transform="translate(65.678 60.58)" fill="#fff" font-size="46" font-family="BebasNeueBold, Bebas Neue" letter-spacing="-0.01em"><tspan x="0" y="0">7</tspan></text>
        <g id="Grupo_55595-3" data-name="Grupo 55595" transform="translate(21.301 202.318)">
          <ellipse id="Elipse_4232-3" data-name="Elipse 4232" cx="42.149" cy="42.149" rx="42.149" ry="42.149" transform="translate(0 31.715) rotate(-22.1)" fill="#57dbd8"/>
          <g id="shipment-3" data-name="shipment" transform="translate(24.791 19.682)">
            <path id="Trazado_137080-3" data-name="Trazado 137080" d="M50,49a3,3,0,1,0,3,3A3,3,0,0,0,50,49Zm0,4a1,1,0,1,1,1-1A1,1,0,0,1,50,53Z" fill="#fff"/>
            <path id="Trazado_137081-3" data-name="Trazado 137081" d="M18,49a3,3,0,1,0,3,3A3,3,0,0,0,18,49Zm0,4a1,1,0,1,1,1-1A1,1,0,0,1,18,53Z" fill="#fff"/>
            <path id="Trazado_137082-3" data-name="Trazado 137082" d="M60.236,36,58.9,35.333l-1.359-8.154A4.984,4.984,0,0,0,52.611,23H42a4.977,4.977,0,0,0-3.974,2H35V15H29V5H15V15H9V25H3V35a2,2,0,0,0-2,2v2a2,2,0,0,0,2,2v9a3,3,0,0,0,3,3h5.08a6.991,6.991,0,0,0,13.84,0H43.08a6.991,6.991,0,0,0,13.84,0H60a3,3,0,0,0,3-3V40.472A4.974,4.974,0,0,0,60.236,36ZM61,45.382l-2-1V43h2ZM21,27h2v2H21Zm4,4V27h2v8H17V27h2v4Zm12,4H29V27h2v4h6Zm0-7v1H33V27h4.1a5,5,0,0,0-.1,1Zm-4-3H23V17h2v4h6V17h2Zm-6-8h2v2H27ZM21,7h2V9H21ZM17,7h2v4h6V7h2v8H17ZM15,17h2v2H15Zm-4,0h2v4h6V17h2v8H11ZM9,27h2v2H9ZM5,27H7v4h6V27h2v8H5ZM3,37H37v2H3Zm2,8H8.719l-.5,2H5Zm0,5V49H9.781l1.5-6H5V41H37V51H24.92a6.991,6.991,0,0,0-13.84,0H6A1,1,0,0,1,5,50Zm13,7a5,5,0,1,1,5-5A5.006,5.006,0,0,1,18,57ZM49,35h4v2H51A2,2,0,0,1,49,35Zm0-2a2,2,0,0,0-2,2,3.959,3.959,0,0,0,.556,2H43V29h9.046l.749,4Zm-6,6H53v6.685A6.974,6.974,0,0,0,43.08,51H43Zm7,18a5,5,0,1,1,5-5A5.006,5.006,0,0,1,50,57Zm10-6H56.92A6.977,6.977,0,0,0,55,47.111V34l-.987-5.366A2,2,0,0,0,52.047,27H43a2,2,0,0,0-2,2V51H39V28a3,3,0,0,1,3-3H52.611a2.991,2.991,0,0,1,2.959,2.507l1.527,9.16,2.244,1.122A2.985,2.985,0,0,1,61,40.472V41H57v4.618l4,2V50A1,1,0,0,1,60,51Z" fill="#fff"/>
          </g>
        </g>
        <path id="Trazado_140394" data-name="Trazado 140394" d="M8.747,6.2l2.856,8.9,2.848-8.9h4.061V19H15.417V16.012l.3-6.117L12.623,19H10.583l-3.1-9.114.3,6.126V19H4.695V6.2ZM24.936,19.176a4.889,4.889,0,0,1-3.542-1.305,4.507,4.507,0,0,1-1.354-3.4v-.246a5.84,5.84,0,0,1,.541-2.575,3.955,3.955,0,0,1,1.578-1.727,4.763,4.763,0,0,1,2.461-.611,4.117,4.117,0,0,1,3.164,1.244,4.887,4.887,0,0,1,1.16,3.467v1.151H23.055a2.135,2.135,0,0,0,.694,1.257,2.066,2.066,0,0,0,1.389.457,2.662,2.662,0,0,0,2.2-.984l1.354,1.6a3.784,3.784,0,0,1-1.569,1.217A5.3,5.3,0,0,1,24.936,19.176ZM24.6,11.6q-1.3,0-1.547,1.723h2.988v-.229a1.467,1.467,0,0,0-.36-1.1A1.434,1.434,0,0,0,24.6,11.6Zm11.285.571-.976-.07a1.752,1.752,0,0,0-1.793.879V19H30.157V9.49h2.777l.1,1.222a2.294,2.294,0,0,1,2.083-1.4,2.888,2.888,0,0,1,.826.105Zm4.922,4.72a1.317,1.317,0,0,0,.967-.338,1.241,1.241,0,0,0,.334-.945h2.777a3.288,3.288,0,0,1-1.121,2.566,4.168,4.168,0,0,1-2.887,1,4.22,4.22,0,0,1-3.27-1.3,5.125,5.125,0,0,1-1.2-3.6v-.123a5.792,5.792,0,0,1,.532-2.544,3.872,3.872,0,0,1,1.534-1.7,4.573,4.573,0,0,1,2.373-.593A4.116,4.116,0,0,1,43.8,10.343a3.647,3.647,0,0,1,1.09,2.786H42.11A1.626,1.626,0,0,0,41.75,12a1.244,1.244,0,0,0-.967-.4q-1.151,0-1.345,1.468a10.357,10.357,0,0,0-.062,1.283,4.068,4.068,0,0,0,.343,1.986A1.187,1.187,0,0,0,40.809,16.891ZM51.5,19a3.344,3.344,0,0,1-.281-.853,2.754,2.754,0,0,1-2.285,1.028,3.374,3.374,0,0,1-2.285-.813,2.588,2.588,0,0,1-.94-2.043,2.66,2.66,0,0,1,1.143-2.338,5.821,5.821,0,0,1,3.322-.791h.914v-.5q0-1.316-1.134-1.316A.927.927,0,0,0,48.9,12.413H45.933a2.655,2.655,0,0,1,1.173-2.239,4.931,4.931,0,0,1,2.993-.86,4.323,4.323,0,0,1,2.874.888,3.086,3.086,0,0,1,1.081,2.435v4.21a4.311,4.311,0,0,0,.4,2V19Zm-1.854-1.934a1.652,1.652,0,0,0,.918-.237,1.487,1.487,0,0,0,.523-.536V14.772h-.861q-1.547,0-1.547,1.389a.848.848,0,0,0,.272.655A.986.986,0,0,0,49.642,17.066ZM58.414,9.49l.1,1.116a3.225,3.225,0,0,1,2.716-1.292,2.713,2.713,0,0,1,2.219.888,4.226,4.226,0,0,1,.76,2.672V19H61.235V13a1.6,1.6,0,0,0-.29-1.059A1.342,1.342,0,0,0,59.89,11.6a1.413,1.413,0,0,0-1.292.686V19H55.636V9.49Zm11.452,7.4a1.317,1.317,0,0,0,.967-.338,1.241,1.241,0,0,0,.334-.945h2.777a3.288,3.288,0,0,1-1.121,2.566,4.168,4.168,0,0,1-2.887,1,4.22,4.22,0,0,1-3.27-1.3,5.125,5.125,0,0,1-1.2-3.6v-.123A5.792,5.792,0,0,1,66,11.6a3.872,3.872,0,0,1,1.534-1.7,4.573,4.573,0,0,1,2.373-.593,4.116,4.116,0,0,1,2.944,1.028,3.647,3.647,0,0,1,1.09,2.786H71.167A1.626,1.626,0,0,0,70.806,12a1.244,1.244,0,0,0-.967-.4q-1.151,0-1.345,1.468a10.357,10.357,0,0,0-.062,1.283,4.068,4.068,0,0,0,.343,1.986A1.187,1.187,0,0,0,69.866,16.891ZM78.426,19H75.447V9.49h2.979ZM77.319,5.676h3.129L78,8.436l-2.417,0ZM85.686,19a3.344,3.344,0,0,1-.281-.853,2.754,2.754,0,0,1-2.285,1.028,3.374,3.374,0,0,1-2.285-.813,2.588,2.588,0,0,1-.94-2.043,2.66,2.66,0,0,1,1.143-2.338,5.821,5.821,0,0,1,3.322-.791h.914v-.5q0-1.316-1.134-1.316a.927.927,0,0,0-1.055,1.042H80.123A2.655,2.655,0,0,1,81.3,10.175a4.931,4.931,0,0,1,2.993-.86,4.323,4.323,0,0,1,2.874.888,3.086,3.086,0,0,1,1.081,2.435v4.21a4.311,4.311,0,0,0,.4,2V19Zm-1.854-1.934a1.652,1.652,0,0,0,.918-.237,1.487,1.487,0,0,0,.523-.536V14.772h-.861q-1.547,0-1.547,1.389a.848.848,0,0,0,.272.655A.986.986,0,0,0,83.832,17.066Zm11.03-.738a.684.684,0,0,0-.4-.606,6.016,6.016,0,0,0-1.5-.475,6.853,6.853,0,0,1-1.828-.646,3.062,3.062,0,0,1-1.1-.971,2.319,2.319,0,0,1-.378-1.31,2.628,2.628,0,0,1,1.081-2.158,4.453,4.453,0,0,1,2.83-.848,4.934,4.934,0,0,1,3.023.853,2.666,2.666,0,0,1,1.143,2.241H94.765q0-1.143-1.2-1.143a1.194,1.194,0,0,0-.782.259.8.8,0,0,0-.316.646.737.737,0,0,0,.387.642,3.654,3.654,0,0,0,1.235.4,10.671,10.671,0,0,1,1.49.378,2.706,2.706,0,0,1,2.145,2.646,2.491,2.491,0,0,1-1.156,2.118,5.068,5.068,0,0,1-2.993.817,5.172,5.172,0,0,1-2.18-.439,3.645,3.645,0,0,1-1.494-1.2,2.707,2.707,0,0,1-.536-1.591h2.769a1.145,1.145,0,0,0,.439.962,1.808,1.808,0,0,0,1.081.3,1.422,1.422,0,0,0,.91-.246A.787.787,0,0,0,94.862,16.328Zm-76.6,17.987a5.735,5.735,0,0,1-1,3.538,3.2,3.2,0,0,1-2.694,1.323,2.742,2.742,0,0,1-2.153-.958v4.438H9.458V29.49h2.769l.088.879a2.742,2.742,0,0,1,2.241-1.055,3.224,3.224,0,0,1,2.733,1.3,5.805,5.805,0,0,1,.976,3.564ZM15.3,34.131q0-2.531-1.477-2.531a1.394,1.394,0,0,0-1.406.756V36.1a1.439,1.439,0,0,0,1.424.791q1.415,0,1.459-2.443Zm8.868,5.045a4.889,4.889,0,0,1-3.542-1.305,4.507,4.507,0,0,1-1.354-3.4v-.246a5.84,5.84,0,0,1,.541-2.575,3.955,3.955,0,0,1,1.578-1.727,4.763,4.763,0,0,1,2.461-.611,4.117,4.117,0,0,1,3.164,1.244,4.887,4.887,0,0,1,1.16,3.467v1.151H22.291a2.135,2.135,0,0,0,.694,1.257,2.066,2.066,0,0,0,1.389.457,2.662,2.662,0,0,0,2.2-.984l1.354,1.6a3.784,3.784,0,0,1-1.569,1.217A5.3,5.3,0,0,1,24.171,39.176ZM23.837,31.6q-1.3,0-1.547,1.723h2.988v-.229a1.467,1.467,0,0,0-.36-1.1A1.434,1.434,0,0,0,23.837,31.6ZM32.495,39H29.524V25.5h2.971Zm4.948,0H34.472V29.49h2.971ZM34.3,27.038A1.322,1.322,0,0,1,34.753,26a1.943,1.943,0,0,1,2.373,0,1.405,1.405,0,0,1,0,2.074,1.943,1.943,0,0,1-2.373,0A1.322,1.322,0,0,1,34.3,27.038Zm4.623,7.137a6.421,6.421,0,0,1,.475-2.549,3.821,3.821,0,0,1,1.362-1.709,3.591,3.591,0,0,1,2.065-.6,2.855,2.855,0,0,1,2.32,1l.105-.826h2.689V38.64a4.009,4.009,0,0,1-.584,2.184,3.75,3.75,0,0,1-1.692,1.424,6.219,6.219,0,0,1-2.566.5,5.365,5.365,0,0,1-2.026-.4,3.657,3.657,0,0,1-1.5-1.028l1.239-1.74a2.716,2.716,0,0,0,2.18.976,1.764,1.764,0,0,0,1.969-2.021v-.3a2.781,2.781,0,0,1-2.153.94,3.437,3.437,0,0,1-2.812-1.332,5.517,5.517,0,0,1-1.072-3.564Zm2.971.185a3.383,3.383,0,0,0,.439,1.85,1.387,1.387,0,0,0,1.23.681,1.573,1.573,0,0,0,1.4-.642v-4a1.534,1.534,0,0,0-1.38-.65,1.4,1.4,0,0,0-1.239.708A3.858,3.858,0,0,0,41.89,34.359Zm13.482-2.188L54.4,32.1a1.752,1.752,0,0,0-1.793.879V39H49.642V29.49h2.777l.1,1.222a2.294,2.294,0,0,1,2.083-1.4,2.888,2.888,0,0,1,.826.105Zm.378,1.986a5.613,5.613,0,0,1,.554-2.536A3.96,3.96,0,0,1,57.9,29.912a4.791,4.791,0,0,1,2.435-.6A4.373,4.373,0,0,1,63.7,30.637a5.076,5.076,0,0,1,1.23,3.6v.105a4.925,4.925,0,0,1-1.235,3.529,4.384,4.384,0,0,1-3.344,1.305,4.434,4.434,0,0,1-3.261-1.217,4.761,4.761,0,0,1-1.327-3.3Zm2.962.185a3.538,3.538,0,0,0,.413,1.934,1.376,1.376,0,0,0,1.222.615q1.582,0,1.617-2.435v-.3q0-2.558-1.635-2.558-1.485,0-1.608,2.206Zm12.5,1.986a.684.684,0,0,0-.4-.606,6.016,6.016,0,0,0-1.5-.475,6.853,6.853,0,0,1-1.828-.646,3.062,3.062,0,0,1-1.1-.971,2.319,2.319,0,0,1-.378-1.31,2.628,2.628,0,0,1,1.081-2.158,4.453,4.453,0,0,1,2.83-.848,4.934,4.934,0,0,1,3.023.853,2.666,2.666,0,0,1,1.143,2.241H71.114q0-1.143-1.2-1.143a1.194,1.194,0,0,0-.782.259.8.8,0,0,0-.316.646.737.737,0,0,0,.387.642,3.654,3.654,0,0,0,1.235.4,10.671,10.671,0,0,1,1.49.378,2.706,2.706,0,0,1,2.145,2.646,2.491,2.491,0,0,1-1.156,2.118,5.068,5.068,0,0,1-2.993.817,5.172,5.172,0,0,1-2.18-.439,3.645,3.645,0,0,1-1.494-1.2,2.707,2.707,0,0,1-.536-1.591h2.769a1.145,1.145,0,0,0,.439.962,1.808,1.808,0,0,0,1.081.3,1.422,1.422,0,0,0,.91-.246A.787.787,0,0,0,71.21,36.328ZM80.808,39a3.344,3.344,0,0,1-.281-.853,2.754,2.754,0,0,1-2.285,1.028,3.374,3.374,0,0,1-2.285-.813,2.588,2.588,0,0,1-.94-2.043,2.66,2.66,0,0,1,1.143-2.338,5.821,5.821,0,0,1,3.322-.791H80.4v-.5q0-1.316-1.134-1.316a.927.927,0,0,0-1.055,1.042H75.245a2.655,2.655,0,0,1,1.173-2.239,4.931,4.931,0,0,1,2.993-.86,4.323,4.323,0,0,1,2.874.888,3.086,3.086,0,0,1,1.081,2.435v4.21a4.311,4.311,0,0,0,.4,2V39Zm-1.854-1.934a1.652,1.652,0,0,0,.918-.237,1.487,1.487,0,0,0,.523-.536V34.772h-.861q-1.547,0-1.547,1.389a.848.848,0,0,0,.272.655A.986.986,0,0,0,78.954,37.066Zm11.03-.738a.684.684,0,0,0-.4-.606,6.016,6.016,0,0,0-1.5-.475,6.853,6.853,0,0,1-1.828-.646,3.062,3.062,0,0,1-1.1-.971,2.319,2.319,0,0,1-.378-1.31,2.628,2.628,0,0,1,1.081-2.158,4.453,4.453,0,0,1,2.83-.848,4.934,4.934,0,0,1,3.023.853,2.666,2.666,0,0,1,1.143,2.241H89.887q0-1.143-1.2-1.143a1.194,1.194,0,0,0-.782.259.8.8,0,0,0-.316.646.737.737,0,0,0,.387.642,3.654,3.654,0,0,0,1.235.4,10.671,10.671,0,0,1,1.49.378A2.706,2.706,0,0,1,92.84,36.24a2.491,2.491,0,0,1-1.156,2.118,5.068,5.068,0,0,1-2.993.817,5.172,5.172,0,0,1-2.18-.439,3.645,3.645,0,0,1-1.494-1.2,2.707,2.707,0,0,1-.536-1.591H87.25a1.145,1.145,0,0,0,.439.962,1.808,1.808,0,0,0,1.081.3,1.422,1.422,0,0,0,.91-.246A.787.787,0,0,0,89.984,36.328Z" transform="translate(24.03 123)" fill="#111e61"/>
      </g>
    </g>
    <g id="tipo-cargas-01-4" data-name="tipo-cargas-01" transform="translate(795.939 513)">
      <g id="OBJECTS-4" data-name="OBJECTS" transform="translate(0 0)">
        <g id="Grupo_55592-4" data-name="Grupo 55592" transform="translate(0 0)">
          <g id="Grupo_55591-4" data-name="Grupo 55591">
            <path id="Trazado_121182-4" data-name="Trazado 121182" d="M152.6,63.52V296.15c.008,5.109-5.64,9.256-12.615,9.262H16.1C9.13,305.407,3.482,301.26,3.49,296.15V63.761H148.47A38.006,38.006,0,0,0,152.6,63.52Z" transform="translate(-3.49 26.547)" fill="#f2f6fe"/>
            <path id="Trazado_121183-4" data-name="Trazado 121183" d="M139.981,3.26H16.1A12.615,12.615,0,0,0,3.49,15.89V93.507H62.334l15.156,18.16,16.232-18.16H148.53a30.248,30.248,0,0,0,4.065-.314V15.89A12.615,12.615,0,0,0,139.981,3.26Z" transform="translate(-3.49 -3.26)" fill="#57dbd8"/>
          </g>
        </g>
        <text id="_5" data-name="5" transform="translate(65.678 60.58)" fill="#fff" font-size="46" font-family="BebasNeueBold, Bebas Neue" letter-spacing="-0.01em"><tspan x="0" y="0">5</tspan></text>
        <g id="Grupo_55595-4" data-name="Grupo 55595" transform="translate(21.301 203.318)">
          <ellipse id="Elipse_4232-4" data-name="Elipse 4232" cx="42.149" cy="42.149" rx="42.149" ry="42.149" transform="translate(0 31.715) rotate(-22.1)" fill="#57dbd8"/>
          <g id="shipment-4" data-name="shipment" transform="translate(22.76 19.682)">
            <path id="Trazado_137080-4" data-name="Trazado 137080" d="M50,49a3,3,0,1,0,3,3A3,3,0,0,0,50,49Zm0,4a1,1,0,1,1,1-1A1,1,0,0,1,50,53Z" fill="#fff"/>
            <path id="Trazado_137081-4" data-name="Trazado 137081" d="M18,49a3,3,0,1,0,3,3A3,3,0,0,0,18,49Zm0,4a1,1,0,1,1,1-1A1,1,0,0,1,18,53Z" fill="#fff"/>
            <path id="Trazado_137082-4" data-name="Trazado 137082" d="M60.236,36,58.9,35.333l-1.359-8.154A4.984,4.984,0,0,0,52.611,23H42a4.977,4.977,0,0,0-3.974,2H35V15H29V5H15V15H9V25H3V35a2,2,0,0,0-2,2v2a2,2,0,0,0,2,2v9a3,3,0,0,0,3,3h5.08a6.991,6.991,0,0,0,13.84,0H43.08a6.991,6.991,0,0,0,13.84,0H60a3,3,0,0,0,3-3V40.472A4.974,4.974,0,0,0,60.236,36ZM61,45.382l-2-1V43h2ZM21,27h2v2H21Zm4,4V27h2v8H17V27h2v4Zm12,4H29V27h2v4h6Zm0-7v1H33V27h4.1a5,5,0,0,0-.1,1Zm-4-3H23V17h2v4h6V17h2Zm-6-8h2v2H27ZM21,7h2V9H21ZM17,7h2v4h6V7h2v8H17ZM15,17h2v2H15Zm-4,0h2v4h6V17h2v8H11ZM9,27h2v2H9ZM5,27H7v4h6V27h2v8H5ZM3,37H37v2H3Zm2,8H8.719l-.5,2H5Zm0,5V49H9.781l1.5-6H5V41H37V51H24.92a6.991,6.991,0,0,0-13.84,0H6A1,1,0,0,1,5,50Zm13,7a5,5,0,1,1,5-5A5.006,5.006,0,0,1,18,57ZM49,35h4v2H51A2,2,0,0,1,49,35Zm0-2a2,2,0,0,0-2,2,3.959,3.959,0,0,0,.556,2H43V29h9.046l.749,4Zm-6,6H53v6.685A6.974,6.974,0,0,0,43.08,51H43Zm7,18a5,5,0,1,1,5-5A5.006,5.006,0,0,1,50,57Zm10-6H56.92A6.977,6.977,0,0,0,55,47.111V34l-.987-5.366A2,2,0,0,0,52.047,27H43a2,2,0,0,0-2,2V51H39V28a3,3,0,0,1,3-3H52.611a2.991,2.991,0,0,1,2.959,2.507l1.527,9.16,2.244,1.122A2.985,2.985,0,0,1,61,40.472V41H57v4.618l4,2V50A1,1,0,0,1,60,51Z" fill="#fff"/>
          </g>
        </g>
        <path id="Trazado_140392" data-name="Trazado 140392" d="M38.273,14.667a4.673,4.673,0,0,1-.721,2.36,4.35,4.35,0,0,1-1.85,1.586,6.3,6.3,0,0,1-2.72.563,5.025,5.025,0,0,1-3.973-1.644,6.786,6.786,0,0,1-1.45-4.641v-.633a7.746,7.746,0,0,1,.655-3.292A4.961,4.961,0,0,1,30.1,6.788a5.26,5.26,0,0,1,2.848-.769,5.516,5.516,0,0,1,3.744,1.226A4.844,4.844,0,0,1,38.3,10.624H35.224a2.292,2.292,0,0,0-.589-1.679,2.422,2.422,0,0,0-1.687-.51A1.843,1.843,0,0,0,31.26,9.3a5.536,5.536,0,0,0-.562,2.751v.905a6.126,6.126,0,0,0,.514,2.927,1.882,1.882,0,0,0,1.771.879,2.369,2.369,0,0,0,1.626-.5,2.126,2.126,0,0,0,.6-1.591ZM44.953,19a3.344,3.344,0,0,1-.281-.853,2.754,2.754,0,0,1-2.285,1.028,3.374,3.374,0,0,1-2.285-.813,2.588,2.588,0,0,1-.94-2.043A2.66,2.66,0,0,1,40.3,13.981a5.821,5.821,0,0,1,3.322-.791h.914v-.5q0-1.316-1.134-1.316a.927.927,0,0,0-1.055,1.042H39.39a2.655,2.655,0,0,1,1.173-2.239,4.931,4.931,0,0,1,2.993-.86,4.323,4.323,0,0,1,2.874.888,3.086,3.086,0,0,1,1.081,2.435v4.21a4.311,4.311,0,0,0,.4,2V19ZM43.1,17.066a1.652,1.652,0,0,0,.918-.237,1.487,1.487,0,0,0,.523-.536V14.772h-.861q-1.547,0-1.547,1.389a.848.848,0,0,0,.272.655A.986.986,0,0,0,43.1,17.066Zm11.8-4.9-.976-.07a1.752,1.752,0,0,0-1.793.879V19H49.172V9.49h2.777l.1,1.222a2.294,2.294,0,0,1,2.083-1.4,2.888,2.888,0,0,1,.826.105Zm.721,2a6.421,6.421,0,0,1,.475-2.549A3.821,3.821,0,0,1,57.46,9.917a3.591,3.591,0,0,1,2.065-.6,2.855,2.855,0,0,1,2.32,1l.105-.826h2.689V18.64a4.009,4.009,0,0,1-.584,2.184,3.75,3.75,0,0,1-1.692,1.424,6.219,6.219,0,0,1-2.566.5,5.365,5.365,0,0,1-2.026-.4,3.657,3.657,0,0,1-1.5-1.028l1.239-1.74a2.716,2.716,0,0,0,2.18.976,1.764,1.764,0,0,0,1.969-2.021v-.3a2.781,2.781,0,0,1-2.153.94A3.437,3.437,0,0,1,56.7,17.844a5.517,5.517,0,0,1-1.072-3.564Zm2.971.185a3.383,3.383,0,0,0,.439,1.85,1.387,1.387,0,0,0,1.23.681,1.573,1.573,0,0,0,1.4-.642v-4a1.534,1.534,0,0,0-1.38-.65,1.4,1.4,0,0,0-1.239.708A3.858,3.858,0,0,0,58.594,14.359ZM71.681,19a3.344,3.344,0,0,1-.281-.853,2.754,2.754,0,0,1-2.285,1.028,3.374,3.374,0,0,1-2.285-.813,2.588,2.588,0,0,1-.94-2.043,2.66,2.66,0,0,1,1.143-2.338,5.821,5.821,0,0,1,3.322-.791h.914v-.5q0-1.316-1.134-1.316a.927.927,0,0,0-1.055,1.042H66.117a2.655,2.655,0,0,1,1.173-2.239,4.931,4.931,0,0,1,2.993-.86,4.323,4.323,0,0,1,2.874.888,3.086,3.086,0,0,1,1.081,2.435v4.21a4.311,4.311,0,0,0,.4,2V19Zm-1.854-1.934a1.652,1.652,0,0,0,.918-.237,1.487,1.487,0,0,0,.523-.536V14.772h-.861q-1.547,0-1.547,1.389a.848.848,0,0,0,.272.655A.986.986,0,0,0,69.826,17.066ZM14.789,34.315a5.735,5.735,0,0,1-1,3.538A3.2,3.2,0,0,1,11.1,39.176a2.742,2.742,0,0,1-2.153-.958v4.438H5.982V29.49H8.751l.088.879a2.742,2.742,0,0,1,2.241-1.055,3.224,3.224,0,0,1,2.733,1.3,5.805,5.805,0,0,1,.976,3.564Zm-2.962-.185q0-2.531-1.477-2.531a1.394,1.394,0,0,0-1.406.756V36.1a1.439,1.439,0,0,0,1.424.791q1.415,0,1.459-2.443ZM20.7,39.176a4.889,4.889,0,0,1-3.542-1.305,4.507,4.507,0,0,1-1.354-3.4v-.246a5.84,5.84,0,0,1,.541-2.575,3.955,3.955,0,0,1,1.578-1.727,4.763,4.763,0,0,1,2.461-.611,4.117,4.117,0,0,1,3.164,1.244,4.887,4.887,0,0,1,1.16,3.467v1.151H18.814a2.135,2.135,0,0,0,.694,1.257,2.066,2.066,0,0,0,1.389.457,2.662,2.662,0,0,0,2.2-.984l1.354,1.6a3.784,3.784,0,0,1-1.569,1.217A5.3,5.3,0,0,1,20.7,39.176ZM20.361,31.6q-1.3,0-1.547,1.723H21.8v-.229a1.467,1.467,0,0,0-.36-1.1A1.434,1.434,0,0,0,20.361,31.6Zm11.285.571-.976-.07a1.752,1.752,0,0,0-1.793.879V39H25.916V29.49h2.777l.1,1.222a2.294,2.294,0,0,1,2.083-1.4,2.888,2.888,0,0,1,.826.105Zm5.669,7a4.889,4.889,0,0,1-3.542-1.305,4.507,4.507,0,0,1-1.354-3.4v-.246a5.84,5.84,0,0,1,.541-2.575,3.955,3.955,0,0,1,1.578-1.727A4.763,4.763,0,0,1,37,29.314a4.117,4.117,0,0,1,3.164,1.244,4.887,4.887,0,0,1,1.16,3.467v1.151H35.435a2.135,2.135,0,0,0,.694,1.257,2.066,2.066,0,0,0,1.389.457,2.662,2.662,0,0,0,2.2-.984l1.354,1.6A3.784,3.784,0,0,1,39.5,38.723,5.3,5.3,0,0,1,37.315,39.176ZM36.981,31.6q-1.3,0-1.547,1.723h2.988v-.229a1.467,1.467,0,0,0-.36-1.1A1.434,1.434,0,0,0,36.981,31.6Zm9.554,5.291a1.317,1.317,0,0,0,.967-.338,1.241,1.241,0,0,0,.334-.945h2.777a3.288,3.288,0,0,1-1.121,2.566,4.168,4.168,0,0,1-2.887,1,4.22,4.22,0,0,1-3.27-1.3,5.125,5.125,0,0,1-1.2-3.6v-.123a5.792,5.792,0,0,1,.532-2.544,3.872,3.872,0,0,1,1.534-1.7,4.573,4.573,0,0,1,2.373-.593,4.116,4.116,0,0,1,2.944,1.028,3.647,3.647,0,0,1,1.09,2.786H47.836A1.626,1.626,0,0,0,47.476,32a1.244,1.244,0,0,0-.967-.4q-1.151,0-1.345,1.468a10.357,10.357,0,0,0-.062,1.283,4.068,4.068,0,0,0,.343,1.986A1.187,1.187,0,0,0,46.535,36.891Zm9.932,2.285a4.889,4.889,0,0,1-3.542-1.305,4.507,4.507,0,0,1-1.354-3.4v-.246a5.84,5.84,0,0,1,.541-2.575,3.955,3.955,0,0,1,1.578-1.727,4.763,4.763,0,0,1,2.461-.611,4.117,4.117,0,0,1,3.164,1.244,4.887,4.887,0,0,1,1.16,3.467v1.151H54.586a2.135,2.135,0,0,0,.694,1.257,2.066,2.066,0,0,0,1.389.457,2.662,2.662,0,0,0,2.2-.984l1.354,1.6a3.784,3.784,0,0,1-1.569,1.217A5.3,5.3,0,0,1,56.467,39.176ZM56.133,31.6q-1.3,0-1.547,1.723h2.988v-.229a1.467,1.467,0,0,0-.36-1.1A1.434,1.434,0,0,0,56.133,31.6Zm5.159,2.575a5.809,5.809,0,0,1,.976-3.56,3.211,3.211,0,0,1,2.725-1.3,2.731,2.731,0,0,1,2.145,1V25.5h2.971V39H67.444l-.149-1.02a2.8,2.8,0,0,1-2.32,1.2,3.205,3.205,0,0,1-2.689-1.3A5.993,5.993,0,0,1,61.292,34.175Zm2.962.185q0,2.531,1.477,2.531a1.458,1.458,0,0,0,1.406-.826V32.443a1.419,1.419,0,0,0-1.389-.844q-1.371,0-1.485,2.215Zm12.138,4.816a4.889,4.889,0,0,1-3.542-1.305,4.507,4.507,0,0,1-1.354-3.4v-.246a5.84,5.84,0,0,1,.541-2.575,3.955,3.955,0,0,1,1.578-1.727,4.763,4.763,0,0,1,2.461-.611,4.117,4.117,0,0,1,3.164,1.244,4.887,4.887,0,0,1,1.16,3.467v1.151H74.511a2.135,2.135,0,0,0,.694,1.257,2.066,2.066,0,0,0,1.389.457,2.662,2.662,0,0,0,2.2-.984l1.354,1.6a3.784,3.784,0,0,1-1.569,1.217A5.3,5.3,0,0,1,76.392,39.176ZM76.058,31.6q-1.3,0-1.547,1.723H77.5v-.229a1.467,1.467,0,0,0-.36-1.1A1.434,1.434,0,0,0,76.058,31.6Zm11.285.571-.976-.07a1.752,1.752,0,0,0-1.793.879V39H81.612V29.49H84.39l.1,1.222a2.294,2.294,0,0,1,2.083-1.4,2.888,2.888,0,0,1,.826.105ZM93.5,39a3.344,3.344,0,0,1-.281-.853,2.754,2.754,0,0,1-2.285,1.028,3.374,3.374,0,0,1-2.285-.813,2.588,2.588,0,0,1-.94-2.043,2.66,2.66,0,0,1,1.143-2.338,5.821,5.821,0,0,1,3.322-.791h.914v-.5q0-1.316-1.134-1.316A.927.927,0,0,0,90.9,32.413H87.94a2.655,2.655,0,0,1,1.173-2.239,4.931,4.931,0,0,1,2.993-.86,4.323,4.323,0,0,1,2.874.888,3.086,3.086,0,0,1,1.081,2.435v4.21a4.311,4.311,0,0,0,.4,2V39Zm-1.854-1.934a1.652,1.652,0,0,0,.918-.237,1.487,1.487,0,0,0,.523-.536V34.772h-.861q-1.547,0-1.547,1.389a.848.848,0,0,0,.272.655A.986.986,0,0,0,91.649,37.066Z" transform="translate(24.03 123)" fill="#111e61"/>
      </g>
    </g>
    <g id="tipo-cargas-01-5" data-name="tipo-cargas-01" transform="translate(333.985 513)">
      <g id="OBJECTS-5" data-name="OBJECTS" transform="translate(0 0)">
        <g id="Grupo_55592-5" data-name="Grupo 55592" transform="translate(0 0)">
          <g id="Grupo_55591-5" data-name="Grupo 55591">
            <path id="Trazado_121182-5" data-name="Trazado 121182" d="M152.6,63.52V296.15c.008,5.109-5.64,9.256-12.615,9.262H16.1C9.13,305.407,3.482,301.26,3.49,296.15V63.761H148.47A38.006,38.006,0,0,0,152.6,63.52Z" transform="translate(-3.49 26.547)" fill="#f2f6fe"/>
            <path id="Trazado_121183-5" data-name="Trazado 121183" d="M139.981,3.26H16.1A12.615,12.615,0,0,0,3.49,15.89V93.507H62.334l15.156,18.16,16.232-18.16H148.53a30.248,30.248,0,0,0,4.065-.314V15.89A12.615,12.615,0,0,0,139.981,3.26Z" transform="translate(-3.49 -3.26)" fill="#91b3fa"/>
          </g>
        </g>
        <text id="_2" data-name="2" transform="translate(65.678 60.58)" fill="#fff" font-size="46" font-family="BebasNeueBold, Bebas Neue" letter-spacing="-0.01em"><tspan x="0" y="0">2</tspan></text>
        <g id="Grupo_55595-5" data-name="Grupo 55595" transform="translate(21.301 202.42)">
          <ellipse id="Elipse_4232-5" data-name="Elipse 4232" cx="42.149" cy="42.149" rx="42.149" ry="42.149" transform="translate(0 31.715) rotate(-22.1)" fill="#91b3fa"/>
          <g id="shipment-5" data-name="shipment" transform="translate(-129.286 21.58)">
            <path id="Trazado_137080-5" data-name="Trazado 137080" d="M50,49a3,3,0,1,0,3,3A3,3,0,0,0,50,49Zm0,4a1,1,0,1,1,1-1A1,1,0,0,1,50,53Z" fill="#fff"/>
            <path id="Trazado_137081-5" data-name="Trazado 137081" d="M18,49a3,3,0,1,0,3,3A3,3,0,0,0,18,49Zm0,4a1,1,0,1,1,1-1A1,1,0,0,1,18,53Z" fill="#fff"/>
            <path id="Trazado_137082-5" data-name="Trazado 137082" d="M60.236,36,58.9,35.333l-1.359-8.154A4.984,4.984,0,0,0,52.611,23H42a4.977,4.977,0,0,0-3.974,2H35V15H29V5H15V15H9V25H3V35a2,2,0,0,0-2,2v2a2,2,0,0,0,2,2v9a3,3,0,0,0,3,3h5.08a6.991,6.991,0,0,0,13.84,0H43.08a6.991,6.991,0,0,0,13.84,0H60a3,3,0,0,0,3-3V40.472A4.974,4.974,0,0,0,60.236,36ZM61,45.382l-2-1V43h2ZM21,27h2v2H21Zm4,4V27h2v8H17V27h2v4Zm12,4H29V27h2v4h6Zm0-7v1H33V27h4.1a5,5,0,0,0-.1,1Zm-4-3H23V17h2v4h6V17h2Zm-6-8h2v2H27ZM21,7h2V9H21ZM17,7h2v4h6V7h2v8H17ZM15,17h2v2H15Zm-4,0h2v4h6V17h2v8H11ZM9,27h2v2H9ZM5,27H7v4h6V27h2v8H5ZM3,37H37v2H3Zm2,8H8.719l-.5,2H5Zm0,5V49H9.781l1.5-6H5V41H37V51H24.92a6.991,6.991,0,0,0-13.84,0H6A1,1,0,0,1,5,50Zm13,7a5,5,0,1,1,5-5A5.006,5.006,0,0,1,18,57ZM49,35h4v2H51A2,2,0,0,1,49,35Zm0-2a2,2,0,0,0-2,2,3.959,3.959,0,0,0,.556,2H43V29h9.046l.749,4Zm-6,6H53v6.685A6.974,6.974,0,0,0,43.08,51H43Zm7,18a5,5,0,1,1,5-5A5.006,5.006,0,0,1,50,57Zm10-6H56.92A6.977,6.977,0,0,0,55,47.111V34l-.987-5.366A2,2,0,0,0,52.047,27H43a2,2,0,0,0-2,2V51H39V28a3,3,0,0,1,3-3H52.611a2.991,2.991,0,0,1,2.959,2.507l1.527,9.16,2.244,1.122A2.985,2.985,0,0,1,61,40.472V41H57v4.618l4,2V50A1,1,0,0,1,60,51Z" fill="#fff"/>
          </g>
        </g>
        <path id="Trazado_140389" data-name="Trazado 140389" d="M31.255,14.667a4.673,4.673,0,0,1-.721,2.36,4.35,4.35,0,0,1-1.85,1.586,6.3,6.3,0,0,1-2.72.563,5.025,5.025,0,0,1-3.973-1.644,6.786,6.786,0,0,1-1.45-4.641v-.633A7.746,7.746,0,0,1,21.2,8.967a4.961,4.961,0,0,1,1.885-2.18,5.26,5.26,0,0,1,2.848-.769,5.516,5.516,0,0,1,3.744,1.226,4.844,4.844,0,0,1,1.608,3.379H28.206a2.292,2.292,0,0,0-.589-1.679,2.422,2.422,0,0,0-1.687-.51,1.843,1.843,0,0,0-1.687.861,5.536,5.536,0,0,0-.562,2.751v.905a6.126,6.126,0,0,0,.514,2.927,1.882,1.882,0,0,0,1.771.879,2.369,2.369,0,0,0,1.626-.5,2.126,2.126,0,0,0,.6-1.591ZM37.935,19a3.344,3.344,0,0,1-.281-.853,2.754,2.754,0,0,1-2.285,1.028,3.374,3.374,0,0,1-2.285-.813,2.588,2.588,0,0,1-.94-2.043,2.66,2.66,0,0,1,1.143-2.338,5.821,5.821,0,0,1,3.322-.791h.914v-.5q0-1.316-1.134-1.316a.927.927,0,0,0-1.055,1.042H32.372a2.655,2.655,0,0,1,1.173-2.239,4.931,4.931,0,0,1,2.993-.86,4.323,4.323,0,0,1,2.874.888,3.086,3.086,0,0,1,1.081,2.435v4.21a4.311,4.311,0,0,0,.4,2V19Zm-1.854-1.934A1.652,1.652,0,0,0,37,16.829a1.487,1.487,0,0,0,.523-.536V14.772h-.861q-1.547,0-1.547,1.389a.848.848,0,0,0,.272.655A.986.986,0,0,0,36.081,17.066Zm11.8-4.9-.976-.07a1.752,1.752,0,0,0-1.793.879V19H42.154V9.49h2.777l.1,1.222a2.294,2.294,0,0,1,2.083-1.4,2.888,2.888,0,0,1,.826.105Zm.721,2a6.421,6.421,0,0,1,.475-2.549,3.821,3.821,0,0,1,1.362-1.709,3.591,3.591,0,0,1,2.065-.6,2.855,2.855,0,0,1,2.32,1l.105-.826h2.689V18.64a4.009,4.009,0,0,1-.584,2.184,3.75,3.75,0,0,1-1.692,1.424,6.219,6.219,0,0,1-2.566.5,5.365,5.365,0,0,1-2.026-.4,3.657,3.657,0,0,1-1.5-1.028l1.239-1.74a2.716,2.716,0,0,0,2.18.976,1.764,1.764,0,0,0,1.969-2.021v-.3a2.781,2.781,0,0,1-2.153.94,3.437,3.437,0,0,1-2.812-1.332A5.517,5.517,0,0,1,48.6,14.28Zm2.971.185a3.383,3.383,0,0,0,.439,1.85,1.387,1.387,0,0,0,1.23.681,1.573,1.573,0,0,0,1.4-.642v-4a1.534,1.534,0,0,0-1.38-.65,1.4,1.4,0,0,0-1.239.708A3.858,3.858,0,0,0,51.576,14.359ZM64.663,19a3.344,3.344,0,0,1-.281-.853A2.754,2.754,0,0,1,62.1,19.176a3.374,3.374,0,0,1-2.285-.813,2.588,2.588,0,0,1-.94-2.043,2.66,2.66,0,0,1,1.143-2.338,5.821,5.821,0,0,1,3.322-.791h.914v-.5q0-1.316-1.134-1.316a.927.927,0,0,0-1.055,1.042H59.1a2.655,2.655,0,0,1,1.173-2.239,4.931,4.931,0,0,1,2.993-.86,4.323,4.323,0,0,1,2.874.888,3.086,3.086,0,0,1,1.081,2.435v4.21a4.311,4.311,0,0,0,.4,2V19Zm-1.854-1.934a1.652,1.652,0,0,0,.918-.237,1.487,1.487,0,0,0,.523-.536V14.772h-.861q-1.547,0-1.547,1.389a.848.848,0,0,0,.272.655A.986.986,0,0,0,62.808,17.066ZM78.7,19a3.344,3.344,0,0,1-.281-.853,2.754,2.754,0,0,1-2.285,1.028,3.374,3.374,0,0,1-2.285-.813,2.588,2.588,0,0,1-.94-2.043,2.66,2.66,0,0,1,1.143-2.338,5.821,5.821,0,0,1,3.322-.791h.914v-.5q0-1.316-1.134-1.316A.927.927,0,0,0,76.1,12.413H73.135a2.655,2.655,0,0,1,1.173-2.239,4.931,4.931,0,0,1,2.993-.86,4.323,4.323,0,0,1,2.874.888,3.086,3.086,0,0,1,1.081,2.435v4.21a4.311,4.311,0,0,0,.4,2V19Zm-1.854-1.934a1.652,1.652,0,0,0,.918-.237,1.487,1.487,0,0,0,.523-.536V14.772h-.861q-1.547,0-1.547,1.389a.848.848,0,0,0,.272.655A.986.986,0,0,0,76.844,17.066ZM25.8,34.175a6.421,6.421,0,0,1,.475-2.549,3.821,3.821,0,0,1,1.362-1.709,3.591,3.591,0,0,1,2.065-.6,2.855,2.855,0,0,1,2.32,1l.105-.826h2.689V38.64a4.009,4.009,0,0,1-.584,2.184,3.75,3.75,0,0,1-1.692,1.424,6.219,6.219,0,0,1-2.566.5,5.365,5.365,0,0,1-2.026-.4,3.657,3.657,0,0,1-1.5-1.028l1.239-1.74a2.716,2.716,0,0,0,2.18.976,1.764,1.764,0,0,0,1.969-2.021v-.3a2.781,2.781,0,0,1-2.153.94,3.437,3.437,0,0,1-2.812-1.332A5.517,5.517,0,0,1,25.8,34.28Zm2.971.185a3.383,3.383,0,0,0,.439,1.85,1.387,1.387,0,0,0,1.23.681,1.573,1.573,0,0,0,1.4-.642v-4a1.534,1.534,0,0,0-1.38-.65,1.4,1.4,0,0,0-1.239.708A3.858,3.858,0,0,0,28.772,34.359Zm13.482-2.188-.976-.07a1.752,1.752,0,0,0-1.793.879V39H36.524V29.49H39.3l.1,1.222a2.294,2.294,0,0,1,2.083-1.4,2.888,2.888,0,0,1,.826.105ZM48.416,39a3.344,3.344,0,0,1-.281-.853,2.754,2.754,0,0,1-2.285,1.028,3.374,3.374,0,0,1-2.285-.813,2.588,2.588,0,0,1-.94-2.043,2.66,2.66,0,0,1,1.143-2.338,5.821,5.821,0,0,1,3.322-.791H48v-.5q0-1.316-1.134-1.316a.927.927,0,0,0-1.055,1.042H42.853a2.655,2.655,0,0,1,1.173-2.239,4.931,4.931,0,0,1,2.993-.86,4.323,4.323,0,0,1,2.874.888,3.086,3.086,0,0,1,1.081,2.435v4.21a4.311,4.311,0,0,0,.4,2V39Zm-1.854-1.934a1.652,1.652,0,0,0,.918-.237A1.487,1.487,0,0,0,48,36.293V34.772h-.861q-1.547,0-1.547,1.389a.848.848,0,0,0,.272.655A.986.986,0,0,0,46.562,37.066Zm8.771-7.576.1,1.116a3.225,3.225,0,0,1,2.716-1.292,2.713,2.713,0,0,1,2.219.888,4.226,4.226,0,0,1,.76,2.672V39H58.154V33a1.6,1.6,0,0,0-.29-1.059A1.342,1.342,0,0,0,56.81,31.6a1.413,1.413,0,0,0-1.292.686V39H52.556V29.49Zm12.032,9.686a4.889,4.889,0,0,1-3.542-1.305,4.507,4.507,0,0,1-1.354-3.4v-.246a5.84,5.84,0,0,1,.541-2.575,3.955,3.955,0,0,1,1.578-1.727,4.763,4.763,0,0,1,2.461-.611,4.117,4.117,0,0,1,3.164,1.244,4.887,4.887,0,0,1,1.16,3.467v1.151H65.484a2.135,2.135,0,0,0,.694,1.257,2.066,2.066,0,0,0,1.389.457,2.662,2.662,0,0,0,2.2-.984l1.354,1.6a3.784,3.784,0,0,1-1.569,1.217A5.3,5.3,0,0,1,67.365,39.176ZM67.031,31.6q-1.3,0-1.547,1.723h2.988v-.229a1.467,1.467,0,0,0-.36-1.1A1.434,1.434,0,0,0,67.031,31.6ZM75.688,39H72.718V25.5h2.971Z" transform="translate(24.015 123)" fill="#111e61"/>
      </g>
    </g>
    <g id="tipo-cargas-01-6" data-name="tipo-cargas-01" transform="translate(949.924 513)">
      <g id="OBJECTS-6" data-name="OBJECTS" transform="translate(0 0)">
        <g id="Grupo_55592-6" data-name="Grupo 55592" transform="translate(0 0)">
          <g id="Grupo_55591-6" data-name="Grupo 55591">
            <path id="Trazado_121182-6" data-name="Trazado 121182" d="M152.6,63.52V296.15c.008,5.109-5.64,9.256-12.615,9.262H16.1C9.13,305.407,3.482,301.26,3.49,296.15V63.761H148.47A38.006,38.006,0,0,0,152.6,63.52Z" transform="translate(-3.49 26.547)" fill="#f2f6fe"/>
            <path id="Trazado_121183-6" data-name="Trazado 121183" d="M139.981,3.26H16.1A12.615,12.615,0,0,0,3.49,15.89V93.507H62.334l15.156,18.16,16.232-18.16H148.53a30.248,30.248,0,0,0,4.065-.314V15.89A12.615,12.615,0,0,0,139.981,3.26Z" transform="translate(-3.49 -3.26)" fill="#91b3fa"/>
          </g>
        </g>
        <g id="Grupo_55595-6" data-name="Grupo 55595" transform="translate(21.301 203.318)">
          <ellipse id="Elipse_4232-6" data-name="Elipse 4232" cx="42.149" cy="42.149" rx="42.149" ry="42.149" transform="translate(0 31.715) rotate(-22.1)" fill="#91b3fa"/>
          <g id="shipment-6" data-name="shipment" transform="translate(19.775 22.682)">
            <path id="Trazado_137080-6" data-name="Trazado 137080" d="M50,49a3,3,0,1,0,3,3A3,3,0,0,0,50,49Zm0,4a1,1,0,1,1,1-1A1,1,0,0,1,50,53Z" fill="#fff"/>
            <path id="Trazado_137081-6" data-name="Trazado 137081" d="M18,49a3,3,0,1,0,3,3A3,3,0,0,0,18,49Zm0,4a1,1,0,1,1,1-1A1,1,0,0,1,18,53Z" fill="#fff"/>
            <path id="Trazado_137082-6" data-name="Trazado 137082" d="M60.236,36,58.9,35.333l-1.359-8.154A4.984,4.984,0,0,0,52.611,23H42a4.977,4.977,0,0,0-3.974,2H35V15H29V5H15V15H9V25H3V35a2,2,0,0,0-2,2v2a2,2,0,0,0,2,2v9a3,3,0,0,0,3,3h5.08a6.991,6.991,0,0,0,13.84,0H43.08a6.991,6.991,0,0,0,13.84,0H60a3,3,0,0,0,3-3V40.472A4.974,4.974,0,0,0,60.236,36ZM61,45.382l-2-1V43h2ZM21,27h2v2H21Zm4,4V27h2v8H17V27h2v4Zm12,4H29V27h2v4h6Zm0-7v1H33V27h4.1a5,5,0,0,0-.1,1Zm-4-3H23V17h2v4h6V17h2Zm-6-8h2v2H27ZM21,7h2V9H21ZM17,7h2v4h6V7h2v8H17ZM15,17h2v2H15Zm-4,0h2v4h6V17h2v8H11ZM9,27h2v2H9ZM5,27H7v4h6V27h2v8H5ZM3,37H37v2H3Zm2,8H8.719l-.5,2H5Zm0,5V49H9.781l1.5-6H5V41H37V51H24.92a6.991,6.991,0,0,0-13.84,0H6A1,1,0,0,1,5,50Zm13,7a5,5,0,1,1,5-5A5.006,5.006,0,0,1,18,57ZM49,35h4v2H51A2,2,0,0,1,49,35Zm0-2a2,2,0,0,0-2,2,3.959,3.959,0,0,0,.556,2H43V29h9.046l.749,4Zm-6,6H53v6.685A6.974,6.974,0,0,0,43.08,51H43Zm7,18a5,5,0,1,1,5-5A5.006,5.006,0,0,1,50,57Zm10-6H56.92A6.977,6.977,0,0,0,55,47.111V34l-.987-5.366A2,2,0,0,0,52.047,27H43a2,2,0,0,0-2,2V51H39V28a3,3,0,0,1,3-3H52.611a2.991,2.991,0,0,1,2.959,2.507l1.527,9.16,2.244,1.122A2.985,2.985,0,0,1,61,40.472V41H57v4.618l4,2V50A1,1,0,0,1,60,51Z" fill="#fff"/>
          </g>
        </g>
        <path id="Trazado_140393" data-name="Trazado 140393" d="M38.273,14.667a4.673,4.673,0,0,1-.721,2.36,4.35,4.35,0,0,1-1.85,1.586,6.3,6.3,0,0,1-2.72.563,5.025,5.025,0,0,1-3.973-1.644,6.786,6.786,0,0,1-1.45-4.641v-.633a7.746,7.746,0,0,1,.655-3.292A4.961,4.961,0,0,1,30.1,6.788a5.26,5.26,0,0,1,2.848-.769,5.516,5.516,0,0,1,3.744,1.226A4.844,4.844,0,0,1,38.3,10.624H35.224a2.292,2.292,0,0,0-.589-1.679,2.422,2.422,0,0,0-1.687-.51A1.843,1.843,0,0,0,31.26,9.3a5.536,5.536,0,0,0-.562,2.751v.905a6.126,6.126,0,0,0,.514,2.927,1.882,1.882,0,0,0,1.771.879,2.369,2.369,0,0,0,1.626-.5,2.126,2.126,0,0,0,.6-1.591ZM44.953,19a3.344,3.344,0,0,1-.281-.853,2.754,2.754,0,0,1-2.285,1.028,3.374,3.374,0,0,1-2.285-.813,2.588,2.588,0,0,1-.94-2.043A2.66,2.66,0,0,1,40.3,13.981a5.821,5.821,0,0,1,3.322-.791h.914v-.5q0-1.316-1.134-1.316a.927.927,0,0,0-1.055,1.042H39.39a2.655,2.655,0,0,1,1.173-2.239,4.931,4.931,0,0,1,2.993-.86,4.323,4.323,0,0,1,2.874.888,3.086,3.086,0,0,1,1.081,2.435v4.21a4.311,4.311,0,0,0,.4,2V19ZM43.1,17.066a1.652,1.652,0,0,0,.918-.237,1.487,1.487,0,0,0,.523-.536V14.772h-.861q-1.547,0-1.547,1.389a.848.848,0,0,0,.272.655A.986.986,0,0,0,43.1,17.066Zm11.8-4.9-.976-.07a1.752,1.752,0,0,0-1.793.879V19H49.172V9.49h2.777l.1,1.222a2.294,2.294,0,0,1,2.083-1.4,2.888,2.888,0,0,1,.826.105Zm.721,2a6.421,6.421,0,0,1,.475-2.549A3.821,3.821,0,0,1,57.46,9.917a3.591,3.591,0,0,1,2.065-.6,2.855,2.855,0,0,1,2.32,1l.105-.826h2.689V18.64a4.009,4.009,0,0,1-.584,2.184,3.75,3.75,0,0,1-1.692,1.424,6.219,6.219,0,0,1-2.566.5,5.365,5.365,0,0,1-2.026-.4,3.657,3.657,0,0,1-1.5-1.028l1.239-1.74a2.716,2.716,0,0,0,2.18.976,1.764,1.764,0,0,0,1.969-2.021v-.3a2.781,2.781,0,0,1-2.153.94A3.437,3.437,0,0,1,56.7,17.844a5.517,5.517,0,0,1-1.072-3.564Zm2.971.185a3.383,3.383,0,0,0,.439,1.85,1.387,1.387,0,0,0,1.23.681,1.573,1.573,0,0,0,1.4-.642v-4a1.534,1.534,0,0,0-1.38-.65,1.4,1.4,0,0,0-1.239.708A3.858,3.858,0,0,0,58.594,14.359ZM71.681,19a3.344,3.344,0,0,1-.281-.853,2.754,2.754,0,0,1-2.285,1.028,3.374,3.374,0,0,1-2.285-.813,2.588,2.588,0,0,1-.94-2.043,2.66,2.66,0,0,1,1.143-2.338,5.821,5.821,0,0,1,3.322-.791h.914v-.5q0-1.316-1.134-1.316a.927.927,0,0,0-1.055,1.042H66.117a2.655,2.655,0,0,1,1.173-2.239,4.931,4.931,0,0,1,2.993-.86,4.323,4.323,0,0,1,2.874.888,3.086,3.086,0,0,1,1.081,2.435v4.21a4.311,4.311,0,0,0,.4,2V19Zm-1.854-1.934a1.652,1.652,0,0,0,.918-.237,1.487,1.487,0,0,0,.523-.536V14.772h-.861q-1.547,0-1.547,1.389a.848.848,0,0,0,.272.655A.986.986,0,0,0,69.826,17.066ZM30.913,39V31.547h-1.38V29.49h1.38v-.756a3.286,3.286,0,0,1,.958-2.522,3.785,3.785,0,0,1,2.689-.9,5.89,5.89,0,0,1,1.389.185l.009,2.18a2.706,2.706,0,0,0-.729-.079q-1.345,0-1.345,1.16v.729h1.854v2.057H33.883V39Zm11.619-6.829-.976-.07a1.752,1.752,0,0,0-1.793.879V39H36.8V29.49h2.777l.1,1.222a2.294,2.294,0,0,1,2.083-1.4,2.888,2.888,0,0,1,.826.105ZM48.957,39a3.344,3.344,0,0,1-.281-.853,2.754,2.754,0,0,1-2.285,1.028,3.374,3.374,0,0,1-2.285-.813,2.588,2.588,0,0,1-.94-2.043,2.66,2.66,0,0,1,1.143-2.338,5.821,5.821,0,0,1,3.322-.791h.914v-.5q0-1.316-1.134-1.316a.927.927,0,0,0-1.055,1.042H43.393a2.655,2.655,0,0,1,1.173-2.239,4.931,4.931,0,0,1,2.993-.86,4.323,4.323,0,0,1,2.874.888,3.086,3.086,0,0,1,1.081,2.435v4.21a4.311,4.311,0,0,0,.4,2V39ZM47.1,37.066a1.652,1.652,0,0,0,.918-.237,1.487,1.487,0,0,0,.523-.536V34.772h-.861q-1.547,0-1.547,1.389a.848.848,0,0,0,.272.655A.986.986,0,0,0,47.1,37.066ZM47.84,25.5h3.129l-2.443,2.76-2.417,0Zm4.966,8.675a6.421,6.421,0,0,1,.475-2.549,3.821,3.821,0,0,1,1.362-1.709,3.591,3.591,0,0,1,2.065-.6,2.855,2.855,0,0,1,2.32,1l.105-.826h2.689V38.64a4.009,4.009,0,0,1-.584,2.184,3.75,3.75,0,0,1-1.692,1.424,6.219,6.219,0,0,1-2.566.5,5.365,5.365,0,0,1-2.026-.4,3.657,3.657,0,0,1-1.5-1.028L54.7,39.58a2.716,2.716,0,0,0,2.18.976,1.764,1.764,0,0,0,1.969-2.021v-.3a2.781,2.781,0,0,1-2.153.94,3.437,3.437,0,0,1-2.812-1.332,5.517,5.517,0,0,1-1.072-3.564Zm2.971.185a3.383,3.383,0,0,0,.439,1.85,1.387,1.387,0,0,0,1.23.681,1.573,1.573,0,0,0,1.4-.642v-4a1.534,1.534,0,0,0-1.38-.65,1.4,1.4,0,0,0-1.239.708A3.858,3.858,0,0,0,55.777,34.359ZM66.631,39H63.661V29.49h2.971ZM63.485,27.038A1.322,1.322,0,0,1,63.942,26a1.943,1.943,0,0,1,2.373,0,1.405,1.405,0,0,1,0,2.074,1.943,1.943,0,0,1-2.373,0A1.322,1.322,0,0,1,63.485,27.038ZM71.58,39H68.609V25.5H71.58Z" transform="translate(24.015 123)" fill="#111e61"/>
        <text id="_6" data-name="6" transform="translate(65.553 60.58)" fill="#fff" font-size="46" font-family="BebasNeueBold, Bebas Neue" letter-spacing="-0.01em"><tspan x="0" y="0">6</tspan></text>
      </g>
    </g>
    <g id="tipo-cargas-01-7" data-name="tipo-cargas-01" transform="translate(641.954 513)">
      <g id="OBJECTS-7" data-name="OBJECTS" transform="translate(0 0)">
        <g id="Grupo_55592-7" data-name="Grupo 55592" transform="translate(0 0)">
          <g id="Grupo_55591-7" data-name="Grupo 55591">
            <path id="Trazado_121182-7" data-name="Trazado 121182" d="M152.6,63.52V296.15c.008,5.109-5.64,9.256-12.615,9.262H16.1C9.13,305.407,3.482,301.26,3.49,296.15V63.761H148.47A38.006,38.006,0,0,0,152.6,63.52Z" transform="translate(-3.49 26.547)" fill="#f2f6fe"/>
            <path id="Trazado_121183-7" data-name="Trazado 121183" d="M139.981,3.26H16.1A12.615,12.615,0,0,0,3.49,15.89V93.507H62.334l15.156,18.16,16.232-18.16H148.53a30.248,30.248,0,0,0,4.065-.314V15.89A12.615,12.615,0,0,0,139.981,3.26Z" transform="translate(-3.49 -3.26)" fill="#91b3fa"/>
          </g>
        </g>
        <g id="Grupo_55595-7" data-name="Grupo 55595" transform="translate(21.301 202.318)">
          <ellipse id="Elipse_4232-7" data-name="Elipse 4232" cx="42.149" cy="42.149" rx="42.149" ry="42.149" transform="translate(0 31.715) rotate(-22.1)" fill="#91b3fa"/>
          <g id="shipment-7" data-name="shipment" transform="translate(22.745 20.682)">
            <path id="Trazado_137080-7" data-name="Trazado 137080" d="M50,49a3,3,0,1,0,3,3A3,3,0,0,0,50,49Zm0,4a1,1,0,1,1,1-1A1,1,0,0,1,50,53Z" fill="#fff"/>
            <path id="Trazado_137081-7" data-name="Trazado 137081" d="M18,49a3,3,0,1,0,3,3A3,3,0,0,0,18,49Zm0,4a1,1,0,1,1,1-1A1,1,0,0,1,18,53Z" fill="#fff"/>
            <path id="Trazado_137082-7" data-name="Trazado 137082" d="M60.236,36,58.9,35.333l-1.359-8.154A4.984,4.984,0,0,0,52.611,23H42a4.977,4.977,0,0,0-3.974,2H35V15H29V5H15V15H9V25H3V35a2,2,0,0,0-2,2v2a2,2,0,0,0,2,2v9a3,3,0,0,0,3,3h5.08a6.991,6.991,0,0,0,13.84,0H43.08a6.991,6.991,0,0,0,13.84,0H60a3,3,0,0,0,3-3V40.472A4.974,4.974,0,0,0,60.236,36ZM61,45.382l-2-1V43h2ZM21,27h2v2H21Zm4,4V27h2v8H17V27h2v4Zm12,4H29V27h2v4h6Zm0-7v1H33V27h4.1a5,5,0,0,0-.1,1Zm-4-3H23V17h2v4h6V17h2Zm-6-8h2v2H27ZM21,7h2V9H21ZM17,7h2v4h6V7h2v8H17ZM15,17h2v2H15Zm-4,0h2v4h6V17h2v8H11ZM9,27h2v2H9ZM5,27H7v4h6V27h2v8H5ZM3,37H37v2H3Zm2,8H8.719l-.5,2H5Zm0,5V49H9.781l1.5-6H5V41H37V51H24.92a6.991,6.991,0,0,0-13.84,0H6A1,1,0,0,1,5,50Zm13,7a5,5,0,1,1,5-5A5.006,5.006,0,0,1,18,57ZM49,35h4v2H51A2,2,0,0,1,49,35Zm0-2a2,2,0,0,0-2,2,3.959,3.959,0,0,0,.556,2H43V29h9.046l.749,4Zm-6,6H53v6.685A6.974,6.974,0,0,0,43.08,51H43Zm7,18a5,5,0,1,1,5-5A5.006,5.006,0,0,1,50,57Zm10-6H56.92A6.977,6.977,0,0,0,55,47.111V34l-.987-5.366A2,2,0,0,0,52.047,27H43a2,2,0,0,0-2,2V51H39V28a3,3,0,0,1,3-3H52.611a2.991,2.991,0,0,1,2.959,2.507l1.527,9.16,2.244,1.122A2.985,2.985,0,0,1,61,40.472V41H57v4.618l4,2V50A1,1,0,0,1,60,51Z" fill="#fff"/>
          </g>
        </g>
        <path id="Trazado_140391" data-name="Trazado 140391" d="M31.255,14.667a4.673,4.673,0,0,1-.721,2.36,4.35,4.35,0,0,1-1.85,1.586,6.3,6.3,0,0,1-2.72.563,5.025,5.025,0,0,1-3.973-1.644,6.786,6.786,0,0,1-1.45-4.641v-.633A7.746,7.746,0,0,1,21.2,8.967a4.961,4.961,0,0,1,1.885-2.18,5.26,5.26,0,0,1,2.848-.769,5.516,5.516,0,0,1,3.744,1.226,4.844,4.844,0,0,1,1.608,3.379H28.206a2.292,2.292,0,0,0-.589-1.679,2.422,2.422,0,0,0-1.687-.51,1.843,1.843,0,0,0-1.687.861,5.536,5.536,0,0,0-.562,2.751v.905a6.126,6.126,0,0,0,.514,2.927,1.882,1.882,0,0,0,1.771.879,2.369,2.369,0,0,0,1.626-.5,2.126,2.126,0,0,0,.6-1.591ZM37.935,19a3.344,3.344,0,0,1-.281-.853,2.754,2.754,0,0,1-2.285,1.028,3.374,3.374,0,0,1-2.285-.813,2.588,2.588,0,0,1-.94-2.043,2.66,2.66,0,0,1,1.143-2.338,5.821,5.821,0,0,1,3.322-.791h.914v-.5q0-1.316-1.134-1.316a.927.927,0,0,0-1.055,1.042H32.372a2.655,2.655,0,0,1,1.173-2.239,4.931,4.931,0,0,1,2.993-.86,4.323,4.323,0,0,1,2.874.888,3.086,3.086,0,0,1,1.081,2.435v4.21a4.311,4.311,0,0,0,.4,2V19Zm-1.854-1.934A1.652,1.652,0,0,0,37,16.829a1.487,1.487,0,0,0,.523-.536V14.772h-.861q-1.547,0-1.547,1.389a.848.848,0,0,0,.272.655A.986.986,0,0,0,36.081,17.066Zm11.8-4.9-.976-.07a1.752,1.752,0,0,0-1.793.879V19H42.154V9.49h2.777l.1,1.222a2.294,2.294,0,0,1,2.083-1.4,2.888,2.888,0,0,1,.826.105Zm.721,2a6.421,6.421,0,0,1,.475-2.549,3.821,3.821,0,0,1,1.362-1.709,3.591,3.591,0,0,1,2.065-.6,2.855,2.855,0,0,1,2.32,1l.105-.826h2.689V18.64a4.009,4.009,0,0,1-.584,2.184,3.75,3.75,0,0,1-1.692,1.424,6.219,6.219,0,0,1-2.566.5,5.365,5.365,0,0,1-2.026-.4,3.657,3.657,0,0,1-1.5-1.028l1.239-1.74a2.716,2.716,0,0,0,2.18.976,1.764,1.764,0,0,0,1.969-2.021v-.3a2.781,2.781,0,0,1-2.153.94,3.437,3.437,0,0,1-2.812-1.332A5.517,5.517,0,0,1,48.6,14.28Zm2.971.185a3.383,3.383,0,0,0,.439,1.85,1.387,1.387,0,0,0,1.23.681,1.573,1.573,0,0,0,1.4-.642v-4a1.534,1.534,0,0,0-1.38-.65,1.4,1.4,0,0,0-1.239.708A3.858,3.858,0,0,0,51.576,14.359ZM64.663,19a3.344,3.344,0,0,1-.281-.853A2.754,2.754,0,0,1,62.1,19.176a3.374,3.374,0,0,1-2.285-.813,2.588,2.588,0,0,1-.94-2.043,2.66,2.66,0,0,1,1.143-2.338,5.821,5.821,0,0,1,3.322-.791h.914v-.5q0-1.316-1.134-1.316a.927.927,0,0,0-1.055,1.042H59.1a2.655,2.655,0,0,1,1.173-2.239,4.931,4.931,0,0,1,2.993-.86,4.323,4.323,0,0,1,2.874.888,3.086,3.086,0,0,1,1.081,2.435v4.21a4.311,4.311,0,0,0,.4,2V19Zm-1.854-1.934a1.652,1.652,0,0,0,.918-.237,1.487,1.487,0,0,0,.523-.536V14.772h-.861q-1.547,0-1.547,1.389a.848.848,0,0,0,.272.655A.986.986,0,0,0,62.808,17.066ZM78.7,19a3.344,3.344,0,0,1-.281-.853,2.754,2.754,0,0,1-2.285,1.028,3.374,3.374,0,0,1-2.285-.813,2.588,2.588,0,0,1-.94-2.043,2.66,2.66,0,0,1,1.143-2.338,5.821,5.821,0,0,1,3.322-.791h.914v-.5q0-1.316-1.134-1.316A.927.927,0,0,0,76.1,12.413H73.135a2.655,2.655,0,0,1,1.173-2.239,4.931,4.931,0,0,1,2.993-.86,4.323,4.323,0,0,1,2.874.888,3.086,3.086,0,0,1,1.081,2.435v4.21a4.311,4.311,0,0,0,.4,2V19Zm-1.854-1.934a1.652,1.652,0,0,0,.918-.237,1.487,1.487,0,0,0,.523-.536V14.772h-.861q-1.547,0-1.547,1.389a.848.848,0,0,0,.272.655A.986.986,0,0,0,76.844,17.066ZM5.3,27.126V29.49H6.861v2.057H5.3V35.9a1.111,1.111,0,0,0,.193.747,1.037,1.037,0,0,0,.765.211,4.345,4.345,0,0,0,.738-.053v2.118a5.466,5.466,0,0,1-1.67.255,3.1,3.1,0,0,1-2.259-.721,2.954,2.954,0,0,1-.729-2.188v-4.72H1.122V29.49H2.335V27.126Zm7.33,12.05a4.889,4.889,0,0,1-3.542-1.305,4.507,4.507,0,0,1-1.354-3.4v-.246a5.84,5.84,0,0,1,.541-2.575A3.955,3.955,0,0,1,9.85,29.925a4.763,4.763,0,0,1,2.461-.611,4.117,4.117,0,0,1,3.164,1.244,4.887,4.887,0,0,1,1.16,3.467v1.151H10.746a2.135,2.135,0,0,0,.694,1.257,2.066,2.066,0,0,0,1.389.457,2.662,2.662,0,0,0,2.2-.984l1.354,1.6a3.784,3.784,0,0,1-1.569,1.217A5.3,5.3,0,0,1,12.627,39.176ZM12.293,31.6q-1.3,0-1.547,1.723h2.988v-.229a1.467,1.467,0,0,0-.36-1.1A1.434,1.434,0,0,0,12.293,31.6Zm8.332-2.109.1,1.116a3.27,3.27,0,0,1,2.716-1.292,2.407,2.407,0,0,1,2.435,1.433,3.165,3.165,0,0,1,2.795-1.433q2.892,0,2.971,3.5V39H28.667V33a1.813,1.813,0,0,0-.246-1.063,1.048,1.048,0,0,0-.9-.334,1.4,1.4,0,0,0-1.31.782l.009.123V39H23.253V33.015a1.906,1.906,0,0,0-.237-1.081,1.045,1.045,0,0,0-.905-.334,1.42,1.42,0,0,0-1.3.782V39H17.848V29.49Zm21.533,4.825a5.735,5.735,0,0,1-1,3.538,3.2,3.2,0,0,1-2.694,1.323,2.742,2.742,0,0,1-2.153-.958v4.438H33.352V29.49H36.12l.088.879a2.742,2.742,0,0,1,2.241-1.055,3.224,3.224,0,0,1,2.733,1.3,5.805,5.805,0,0,1,.976,3.564ZM39.2,34.131q0-2.531-1.477-2.531a1.394,1.394,0,0,0-1.406.756V36.1a1.439,1.439,0,0,0,1.424.791q1.415,0,1.459-2.443Zm8.868,5.045a4.889,4.889,0,0,1-3.542-1.305,4.507,4.507,0,0,1-1.354-3.4v-.246a5.84,5.84,0,0,1,.541-2.575,3.955,3.955,0,0,1,1.578-1.727,4.763,4.763,0,0,1,2.461-.611,4.117,4.117,0,0,1,3.164,1.244,4.887,4.887,0,0,1,1.16,3.467v1.151H46.184a2.135,2.135,0,0,0,.694,1.257,2.066,2.066,0,0,0,1.389.457,2.662,2.662,0,0,0,2.2-.984l1.354,1.6a3.784,3.784,0,0,1-1.569,1.217A5.3,5.3,0,0,1,48.064,39.176ZM47.73,31.6q-1.3,0-1.547,1.723h2.988v-.229a1.467,1.467,0,0,0-.36-1.1A1.434,1.434,0,0,0,47.73,31.6Zm11.285.571-.976-.07a1.752,1.752,0,0,0-1.793.879V39H53.285V29.49h2.777l.1,1.222a2.294,2.294,0,0,1,2.083-1.4,2.888,2.888,0,0,1,.826.105ZM65.177,39a3.344,3.344,0,0,1-.281-.853,2.754,2.754,0,0,1-2.285,1.028,3.374,3.374,0,0,1-2.285-.813,2.588,2.588,0,0,1-.94-2.043,2.66,2.66,0,0,1,1.143-2.338,5.821,5.821,0,0,1,3.322-.791h.914v-.5q0-1.316-1.134-1.316a.927.927,0,0,0-1.055,1.042H59.613a2.655,2.655,0,0,1,1.173-2.239,4.931,4.931,0,0,1,2.993-.86,4.323,4.323,0,0,1,2.874.888,3.086,3.086,0,0,1,1.081,2.435v4.21a4.311,4.311,0,0,0,.4,2V39Zm-1.854-1.934a1.652,1.652,0,0,0,.918-.237,1.487,1.487,0,0,0,.523-.536V34.772H63.9q-1.547,0-1.547,1.389a.848.848,0,0,0,.272.655A.986.986,0,0,0,63.322,37.066Zm9.5-9.94V29.49h1.564v2.057H72.823V35.9a1.111,1.111,0,0,0,.193.747,1.037,1.037,0,0,0,.765.211,4.345,4.345,0,0,0,.738-.053v2.118a5.466,5.466,0,0,1-1.67.255,3.1,3.1,0,0,1-2.259-.721,2.954,2.954,0,0,1-.729-2.188v-4.72H68.648V29.49h1.213V27.126Zm8.394,10.846a3.054,3.054,0,0,1-2.54,1.2,3,3,0,0,1-2.369-.91,3.826,3.826,0,0,1-.8-2.615V29.49h2.962v6.179a1.065,1.065,0,0,0,1.187,1.222,1.548,1.548,0,0,0,1.45-.729V29.49h2.979V39H81.3Zm10.239-5.8-.976-.07a1.752,1.752,0,0,0-1.793.879V39H85.726V29.49H88.5l.1,1.222a2.294,2.294,0,0,1,2.083-1.4,2.888,2.888,0,0,1,.826.105ZM97.617,39a3.344,3.344,0,0,1-.281-.853,2.754,2.754,0,0,1-2.285,1.028,3.374,3.374,0,0,1-2.285-.813,2.588,2.588,0,0,1-.94-2.043,2.66,2.66,0,0,1,1.143-2.338,5.821,5.821,0,0,1,3.322-.791H97.2v-.5q0-1.316-1.134-1.316a.927.927,0,0,0-1.055,1.042H92.054a2.655,2.655,0,0,1,1.173-2.239,4.931,4.931,0,0,1,2.993-.86,4.323,4.323,0,0,1,2.874.888,3.086,3.086,0,0,1,1.081,2.435v4.21a4.311,4.311,0,0,0,.4,2V39Zm-1.854-1.934a1.652,1.652,0,0,0,.918-.237,1.487,1.487,0,0,0,.523-.536V34.772h-.861q-1.547,0-1.547,1.389a.848.848,0,0,0,.272.655A.986.986,0,0,0,95.763,37.066Zm-83.2,19.824a1.317,1.317,0,0,0,.967-.338,1.241,1.241,0,0,0,.334-.945h2.777a3.288,3.288,0,0,1-1.121,2.566,4.168,4.168,0,0,1-2.887,1,4.22,4.22,0,0,1-3.27-1.3,5.125,5.125,0,0,1-1.2-3.6v-.123A5.792,5.792,0,0,1,8.7,51.6a3.872,3.872,0,0,1,1.534-1.7,4.573,4.573,0,0,1,2.373-.593,4.116,4.116,0,0,1,2.944,1.028,3.647,3.647,0,0,1,1.09,2.786H13.862A1.626,1.626,0,0,0,13.5,52a1.244,1.244,0,0,0-.967-.4q-1.151,0-1.345,1.468a10.357,10.357,0,0,0-.062,1.283,4.068,4.068,0,0,0,.343,1.986A1.187,1.187,0,0,0,12.561,56.891Zm4.957-2.733a5.613,5.613,0,0,1,.554-2.536,3.96,3.96,0,0,1,1.591-1.709,4.791,4.791,0,0,1,2.435-.6,4.373,4.373,0,0,1,3.366,1.323,5.076,5.076,0,0,1,1.23,3.6v.105a4.925,4.925,0,0,1-1.235,3.529,4.384,4.384,0,0,1-3.344,1.305,4.434,4.434,0,0,1-3.261-1.217,4.761,4.761,0,0,1-1.327-3.3Zm2.962.185a3.538,3.538,0,0,0,.413,1.934,1.376,1.376,0,0,0,1.222.615q1.582,0,1.617-2.435v-.3q0-2.558-1.635-2.558-1.485,0-1.608,2.206ZM30.719,49.49l.1,1.116a3.225,3.225,0,0,1,2.716-1.292,2.713,2.713,0,0,1,2.219.888,4.226,4.226,0,0,1,.76,2.672V59H33.541V53a1.6,1.6,0,0,0-.29-1.059A1.342,1.342,0,0,0,32.2,51.6a1.413,1.413,0,0,0-1.292.686V59H27.942V49.49ZM41.6,47.126V49.49h1.564v2.057H41.6V55.9a1.111,1.111,0,0,0,.193.747,1.037,1.037,0,0,0,.765.211A4.345,4.345,0,0,0,43.3,56.8v2.118a5.466,5.466,0,0,1-1.67.255,3.1,3.1,0,0,1-2.259-.721,2.954,2.954,0,0,1-.729-2.188v-4.72H37.425V49.49h1.213V47.126Zm8.481,5.045-.976-.07a1.752,1.752,0,0,0-1.793.879V59H44.351V49.49h2.777l.1,1.222a2.294,2.294,0,0,1,2.083-1.4,2.888,2.888,0,0,1,.826.105Zm.378,1.986a5.613,5.613,0,0,1,.554-2.536A3.96,3.96,0,0,1,52.6,49.912a4.791,4.791,0,0,1,2.435-.6A4.373,4.373,0,0,1,58.4,50.637a5.076,5.076,0,0,1,1.23,3.6v.105A4.925,4.925,0,0,1,58.4,57.871a4.384,4.384,0,0,1-3.344,1.305A4.434,4.434,0,0,1,51.8,57.958a4.761,4.761,0,0,1-1.327-3.3Zm2.962.185a3.538,3.538,0,0,0,.413,1.934,1.376,1.376,0,0,0,1.222.615q1.582,0,1.617-2.435v-.3q0-2.558-1.635-2.558-1.485,0-1.608,2.206ZM64.065,59H61.094V45.5h2.971Zm7.181,0a3.344,3.344,0,0,1-.281-.853,2.754,2.754,0,0,1-2.285,1.028,3.374,3.374,0,0,1-2.285-.813,2.588,2.588,0,0,1-.94-2.043A2.66,2.66,0,0,1,66.6,53.981a5.821,5.821,0,0,1,3.322-.791h.914v-.5q0-1.316-1.134-1.316a.927.927,0,0,0-1.055,1.042H65.682a2.655,2.655,0,0,1,1.173-2.239,4.931,4.931,0,0,1,2.993-.86,4.323,4.323,0,0,1,2.874.888A3.086,3.086,0,0,1,73.8,52.637v4.21a4.311,4.311,0,0,0,.4,2V59Zm-1.854-1.934a1.652,1.652,0,0,0,.918-.237,1.487,1.487,0,0,0,.523-.536V54.772h-.861q-1.547,0-1.547,1.389a.848.848,0,0,0,.272.655A.986.986,0,0,0,69.391,57.066Zm5.678-2.892a5.809,5.809,0,0,1,.976-3.56,3.211,3.211,0,0,1,2.725-1.3,2.731,2.731,0,0,1,2.145,1V45.5h2.971V59H81.221l-.149-1.02a2.8,2.8,0,0,1-2.32,1.2,3.205,3.205,0,0,1-2.689-1.3A5.993,5.993,0,0,1,75.069,54.175Zm2.962.185q0,2.531,1.477,2.531a1.458,1.458,0,0,0,1.406-.826V52.443a1.419,1.419,0,0,0-1.389-.844q-1.371,0-1.485,2.215ZM90.924,59a3.344,3.344,0,0,1-.281-.853,2.754,2.754,0,0,1-2.285,1.028,3.374,3.374,0,0,1-2.285-.813,2.588,2.588,0,0,1-.94-2.043,2.66,2.66,0,0,1,1.143-2.338A5.821,5.821,0,0,1,89.6,53.19h.914v-.5q0-1.316-1.134-1.316a.927.927,0,0,0-1.055,1.042H85.361a2.655,2.655,0,0,1,1.173-2.239,4.931,4.931,0,0,1,2.993-.86A4.323,4.323,0,0,1,92.4,50.2a3.086,3.086,0,0,1,1.081,2.435v4.21a4.311,4.311,0,0,0,.4,2V59ZM89.07,57.066a1.652,1.652,0,0,0,.918-.237,1.487,1.487,0,0,0,.523-.536V54.772H89.65q-1.547,0-1.547,1.389a.848.848,0,0,0,.272.655A.986.986,0,0,0,89.07,57.066Z" transform="translate(24.015 123)" fill="#111e61"/>
      </g>
      <text id="_4" data-name="4" transform="translate(65.553 60.58)" fill="#fff" font-size="46" font-family="BebasNeueBold, Bebas Neue" letter-spacing="-0.01em"><tspan x="0" y="0">4</tspan></text>
    </g>
    <g id="tipo-cargas-01-8" data-name="tipo-cargas-01" transform="translate(1257.893 513)">
      <g id="OBJECTS-8" data-name="OBJECTS" transform="translate(0 0)">
        <g id="Grupo_55592-8" data-name="Grupo 55592" transform="translate(0 0)">
          <g id="Grupo_55591-8" data-name="Grupo 55591">
            <path id="Trazado_121182-8" data-name="Trazado 121182" d="M152.6,63.52V296.15c.008,5.109-5.64,9.256-12.615,9.262H16.1C9.13,305.407,3.482,301.26,3.49,296.15V63.761H148.47A38.006,38.006,0,0,0,152.6,63.52Z" transform="translate(-3.49 26.547)" fill="#f2f6fe"/>
            <path id="Trazado_121183-8" data-name="Trazado 121183" d="M139.981,3.26H16.1A12.615,12.615,0,0,0,3.49,15.89V93.507H62.334l15.156,18.16,16.232-18.16H148.53a30.248,30.248,0,0,0,4.065-.314V15.89A12.615,12.615,0,0,0,139.981,3.26Z" transform="translate(-3.49 -3.26)" fill="#91b3fa"/>
          </g>
        </g>
        <text id="_8" data-name="8" transform="translate(65.678 60.58)" fill="#fff" font-size="46" font-family="BebasNeueBold, Bebas Neue" letter-spacing="-0.01em"><tspan x="0" y="0">8</tspan></text>
        <g id="Grupo_55595-8" data-name="Grupo 55595" transform="translate(21.301 203.318)">
          <ellipse id="Elipse_4232-8" data-name="Elipse 4232" cx="42.149" cy="42.149" rx="42.149" ry="42.149" transform="translate(0 31.715) rotate(-22.1)" fill="#91b3fa"/>
          <g id="shipment-8" data-name="shipment" transform="translate(23.806 19.682)">
            <path id="Trazado_137080-8" data-name="Trazado 137080" d="M50,49a3,3,0,1,0,3,3A3,3,0,0,0,50,49Zm0,4a1,1,0,1,1,1-1A1,1,0,0,1,50,53Z" fill="#fff"/>
            <path id="Trazado_137081-8" data-name="Trazado 137081" d="M18,49a3,3,0,1,0,3,3A3,3,0,0,0,18,49Zm0,4a1,1,0,1,1,1-1A1,1,0,0,1,18,53Z" fill="#fff"/>
            <path id="Trazado_137082-8" data-name="Trazado 137082" d="M60.236,36,58.9,35.333l-1.359-8.154A4.984,4.984,0,0,0,52.611,23H42a4.977,4.977,0,0,0-3.974,2H35V15H29V5H15V15H9V25H3V35a2,2,0,0,0-2,2v2a2,2,0,0,0,2,2v9a3,3,0,0,0,3,3h5.08a6.991,6.991,0,0,0,13.84,0H43.08a6.991,6.991,0,0,0,13.84,0H60a3,3,0,0,0,3-3V40.472A4.974,4.974,0,0,0,60.236,36ZM61,45.382l-2-1V43h2ZM21,27h2v2H21Zm4,4V27h2v8H17V27h2v4Zm12,4H29V27h2v4h6Zm0-7v1H33V27h4.1a5,5,0,0,0-.1,1Zm-4-3H23V17h2v4h6V17h2Zm-6-8h2v2H27ZM21,7h2V9H21ZM17,7h2v4h6V7h2v8H17ZM15,17h2v2H15Zm-4,0h2v4h6V17h2v8H11ZM9,27h2v2H9ZM5,27H7v4h6V27h2v8H5ZM3,37H37v2H3Zm2,8H8.719l-.5,2H5Zm0,5V49H9.781l1.5-6H5V41H37V51H24.92a6.991,6.991,0,0,0-13.84,0H6A1,1,0,0,1,5,50Zm13,7a5,5,0,1,1,5-5A5.006,5.006,0,0,1,18,57ZM49,35h4v2H51A2,2,0,0,1,49,35Zm0-2a2,2,0,0,0-2,2,3.959,3.959,0,0,0,.556,2H43V29h9.046l.749,4Zm-6,6H53v6.685A6.974,6.974,0,0,0,43.08,51H43Zm7,18a5,5,0,1,1,5-5A5.006,5.006,0,0,1,50,57Zm10-6H56.92A6.977,6.977,0,0,0,55,47.111V34l-.987-5.366A2,2,0,0,0,52.047,27H43a2,2,0,0,0-2,2V51H39V28a3,3,0,0,1,3-3H52.611a2.991,2.991,0,0,1,2.959,2.507l1.527,9.16,2.244,1.122A2.985,2.985,0,0,1,61,40.472V41H57v4.618l4,2V50A1,1,0,0,1,60,51Z" fill="#fff"/>
          </g>
        </g>
        <path id="Trazado_140395" data-name="Trazado 140395" d="M40.585,12.865a7.546,7.546,0,0,1-.694,3.313A5.132,5.132,0,0,1,37.917,18.4,5.494,5.494,0,0,1,35,19.176a5.572,5.572,0,0,1-2.9-.751,5.123,5.123,0,0,1-1.973-2.149,7.329,7.329,0,0,1-.743-3.208v-.721a7.58,7.58,0,0,1,.69-3.318A5.119,5.119,0,0,1,32.055,6.81,5.854,5.854,0,0,1,37.887,6.8,5.211,5.211,0,0,1,39.869,9a7.362,7.362,0,0,1,.716,3.274Zm-3.138-.536a5.381,5.381,0,0,0-.637-2.9,2.044,2.044,0,0,0-1.824-.989q-2.32,0-2.452,3.48l-.009.94a5.535,5.535,0,0,0,.624,2.892A2.041,2.041,0,0,0,35,16.768a2.016,2.016,0,0,0,1.8-.993,5.383,5.383,0,0,0,.642-2.856Zm8.042-5.2V9.49h1.564v2.057H45.489V15.9a1.111,1.111,0,0,0,.193.747,1.037,1.037,0,0,0,.765.211,4.345,4.345,0,0,0,.738-.053v2.118a5.466,5.466,0,0,1-1.67.255,3.1,3.1,0,0,1-2.259-.721,2.954,2.954,0,0,1-.729-2.188v-4.72H41.314V9.49h1.213V7.126Zm8.481,5.045L53,12.1a1.752,1.752,0,0,0-1.793.879V19H48.24V9.49h2.777l.1,1.222a2.294,2.294,0,0,1,2.083-1.4,2.888,2.888,0,0,1,.826.105Zm.378,1.986a5.613,5.613,0,0,1,.554-2.536,3.96,3.96,0,0,1,1.591-1.709,4.791,4.791,0,0,1,2.435-.6,4.373,4.373,0,0,1,3.366,1.323,5.076,5.076,0,0,1,1.23,3.6v.105a4.925,4.925,0,0,1-1.235,3.529,4.384,4.384,0,0,1-3.344,1.305,4.434,4.434,0,0,1-3.261-1.217,4.761,4.761,0,0,1-1.327-3.3Zm2.962.185a3.538,3.538,0,0,0,.413,1.934,1.376,1.376,0,0,0,1.222.615q1.582,0,1.617-2.435v-.3q0-2.558-1.635-2.558-1.485,0-1.608,2.206Zm12.5,1.986a.684.684,0,0,0-.4-.606,6.016,6.016,0,0,0-1.5-.475,6.853,6.853,0,0,1-1.828-.646,3.062,3.062,0,0,1-1.1-.971,2.319,2.319,0,0,1-.378-1.31,2.628,2.628,0,0,1,1.081-2.158,4.453,4.453,0,0,1,2.83-.848,4.934,4.934,0,0,1,3.023.853,2.666,2.666,0,0,1,1.143,2.241H69.712q0-1.143-1.2-1.143a1.194,1.194,0,0,0-.782.259.8.8,0,0,0-.316.646.737.737,0,0,0,.387.642,3.654,3.654,0,0,0,1.235.4,10.671,10.671,0,0,1,1.49.378,2.706,2.706,0,0,1,2.145,2.646,2.491,2.491,0,0,1-1.156,2.118,5.068,5.068,0,0,1-2.993.817,5.172,5.172,0,0,1-2.18-.439,3.645,3.645,0,0,1-1.494-1.2,2.707,2.707,0,0,1-.536-1.591h2.769a1.145,1.145,0,0,0,.439.962,1.808,1.808,0,0,0,1.081.3,1.422,1.422,0,0,0,.91-.246A.787.787,0,0,0,69.809,16.328Zm-34.822,10.8V29.49h1.564v2.057H34.986V35.9a1.111,1.111,0,0,0,.193.747,1.037,1.037,0,0,0,.765.211,4.345,4.345,0,0,0,.738-.053v2.118a5.466,5.466,0,0,1-1.67.255,3.1,3.1,0,0,1-2.259-.721,2.954,2.954,0,0,1-.729-2.188v-4.72H30.812V29.49h1.213V27.126ZM40.84,39H37.869V29.49H40.84ZM37.693,27.038A1.322,1.322,0,0,1,38.15,26a1.943,1.943,0,0,1,2.373,0,1.405,1.405,0,0,1,0,2.074,1.943,1.943,0,0,1-2.373,0A1.322,1.322,0,0,1,37.693,27.038Zm13.8,7.277a5.735,5.735,0,0,1-1,3.538A3.2,3.2,0,0,1,47.8,39.176a2.742,2.742,0,0,1-2.153-.958v4.438H42.686V29.49h2.769l.088.879a2.742,2.742,0,0,1,2.241-1.055,3.224,3.224,0,0,1,2.733,1.3,5.805,5.805,0,0,1,.976,3.564Zm-2.962-.185q0-2.531-1.477-2.531a1.394,1.394,0,0,0-1.406.756V36.1a1.439,1.439,0,0,0,1.424.791q1.415,0,1.459-2.443Zm3.894.026a5.613,5.613,0,0,1,.554-2.536,3.96,3.96,0,0,1,1.591-1.709,4.791,4.791,0,0,1,2.435-.6,4.373,4.373,0,0,1,3.366,1.323,5.076,5.076,0,0,1,1.23,3.6v.105a4.925,4.925,0,0,1-1.235,3.529,4.384,4.384,0,0,1-3.344,1.305,4.434,4.434,0,0,1-3.261-1.217,4.761,4.761,0,0,1-1.327-3.3Zm2.962.185a3.538,3.538,0,0,0,.413,1.934,1.376,1.376,0,0,0,1.222.615q1.582,0,1.617-2.435v-.3Q58.638,31.6,57,31.6q-1.485,0-1.608,2.206Zm12.5,1.986a.684.684,0,0,0-.4-.606,6.016,6.016,0,0,0-1.5-.475,6.853,6.853,0,0,1-1.828-.646,3.062,3.062,0,0,1-1.1-.971,2.319,2.319,0,0,1-.378-1.31,2.628,2.628,0,0,1,1.081-2.158,4.453,4.453,0,0,1,2.83-.848,4.934,4.934,0,0,1,3.023.853,2.666,2.666,0,0,1,1.143,2.241H67.787q0-1.143-1.2-1.143a1.194,1.194,0,0,0-.782.259.8.8,0,0,0-.316.646.737.737,0,0,0,.387.642,3.654,3.654,0,0,0,1.235.4,10.671,10.671,0,0,1,1.49.378A2.706,2.706,0,0,1,70.74,36.24a2.491,2.491,0,0,1-1.156,2.118,5.068,5.068,0,0,1-2.993.817,5.172,5.172,0,0,1-2.18-.439,3.645,3.645,0,0,1-1.494-1.2,2.707,2.707,0,0,1-.536-1.591H65.15a1.145,1.145,0,0,0,.439.962,1.808,1.808,0,0,0,1.081.3,1.422,1.422,0,0,0,.91-.246A.787.787,0,0,0,67.884,36.328Z" transform="translate(24.015 123)" fill="#111e61"/>
      </g>
    </g>
    <g id="shipment-9" data-name="shipment" transform="translate(533 738)">
      <path id="Trazado_137080-9" data-name="Trazado 137080" d="M50,49a3,3,0,1,0,3,3A3,3,0,0,0,50,49Zm0,4a1,1,0,1,1,1-1A1,1,0,0,1,50,53Z" fill="#fff"/>
      <path id="Trazado_137081-9" data-name="Trazado 137081" d="M18,49a3,3,0,1,0,3,3A3,3,0,0,0,18,49Zm0,4a1,1,0,1,1,1-1A1,1,0,0,1,18,53Z" fill="#fff"/>
      <path id="Trazado_137082-9" data-name="Trazado 137082" d="M60.236,36,58.9,35.333l-1.359-8.154A4.984,4.984,0,0,0,52.611,23H42a4.977,4.977,0,0,0-3.974,2H35V15H29V5H15V15H9V25H3V35a2,2,0,0,0-2,2v2a2,2,0,0,0,2,2v9a3,3,0,0,0,3,3h5.08a6.991,6.991,0,0,0,13.84,0H43.08a6.991,6.991,0,0,0,13.84,0H60a3,3,0,0,0,3-3V40.472A4.974,4.974,0,0,0,60.236,36ZM61,45.382l-2-1V43h2ZM21,27h2v2H21Zm4,4V27h2v8H17V27h2v4Zm12,4H29V27h2v4h6Zm0-7v1H33V27h4.1a5,5,0,0,0-.1,1Zm-4-3H23V17h2v4h6V17h2Zm-6-8h2v2H27ZM21,7h2V9H21ZM17,7h2v4h6V7h2v8H17ZM15,17h2v2H15Zm-4,0h2v4h6V17h2v8H11ZM9,27h2v2H9ZM5,27H7v4h6V27h2v8H5ZM3,37H37v2H3Zm2,8H8.719l-.5,2H5Zm0,5V49H9.781l1.5-6H5V41H37V51H24.92a6.991,6.991,0,0,0-13.84,0H6A1,1,0,0,1,5,50Zm13,7a5,5,0,1,1,5-5A5.006,5.006,0,0,1,18,57ZM49,35h4v2H51A2,2,0,0,1,49,35Zm0-2a2,2,0,0,0-2,2,3.959,3.959,0,0,0,.556,2H43V29h9.046l.749,4Zm-6,6H53v6.685A6.974,6.974,0,0,0,43.08,51H43Zm7,18a5,5,0,1,1,5-5A5.006,5.006,0,0,1,50,57Zm10-6H56.92A6.977,6.977,0,0,0,55,47.111V34l-.987-5.366A2,2,0,0,0,52.047,27H43a2,2,0,0,0-2,2V51H39V28a3,3,0,0,1,3-3H52.611a2.991,2.991,0,0,1,2.959,2.507l1.527,9.16,2.244,1.122A2.985,2.985,0,0,1,61,40.472V41H57v4.618l4,2V50A1,1,0,0,1,60,51Z" fill="#fff"/>
    </g>
    <g id="shipment-10" data-name="shipment" transform="translate(377 738)">
      <path id="Trazado_137080-10" data-name="Trazado 137080" d="M50,49a3,3,0,1,0,3,3A3,3,0,0,0,50,49Zm0,4a1,1,0,1,1,1-1A1,1,0,0,1,50,53Z" fill="#fff"/>
      <path id="Trazado_137081-10" data-name="Trazado 137081" d="M18,49a3,3,0,1,0,3,3A3,3,0,0,0,18,49Zm0,4a1,1,0,1,1,1-1A1,1,0,0,1,18,53Z" fill="#fff"/>
      <path id="Trazado_137082-10" data-name="Trazado 137082" d="M60.236,36,58.9,35.333l-1.359-8.154A4.984,4.984,0,0,0,52.611,23H42a4.977,4.977,0,0,0-3.974,2H35V15H29V5H15V15H9V25H3V35a2,2,0,0,0-2,2v2a2,2,0,0,0,2,2v9a3,3,0,0,0,3,3h5.08a6.991,6.991,0,0,0,13.84,0H43.08a6.991,6.991,0,0,0,13.84,0H60a3,3,0,0,0,3-3V40.472A4.974,4.974,0,0,0,60.236,36ZM61,45.382l-2-1V43h2ZM21,27h2v2H21Zm4,4V27h2v8H17V27h2v4Zm12,4H29V27h2v4h6Zm0-7v1H33V27h4.1a5,5,0,0,0-.1,1Zm-4-3H23V17h2v4h6V17h2Zm-6-8h2v2H27ZM21,7h2V9H21ZM17,7h2v4h6V7h2v8H17ZM15,17h2v2H15Zm-4,0h2v4h6V17h2v8H11ZM9,27h2v2H9ZM5,27H7v4h6V27h2v8H5ZM3,37H37v2H3Zm2,8H8.719l-.5,2H5Zm0,5V49H9.781l1.5-6H5V41H37V51H24.92a6.991,6.991,0,0,0-13.84,0H6A1,1,0,0,1,5,50Zm13,7a5,5,0,1,1,5-5A5.006,5.006,0,0,1,18,57ZM49,35h4v2H51A2,2,0,0,1,49,35Zm0-2a2,2,0,0,0-2,2,3.959,3.959,0,0,0,.556,2H43V29h9.046l.749,4Zm-6,6H53v6.685A6.974,6.974,0,0,0,43.08,51H43Zm7,18a5,5,0,1,1,5-5A5.006,5.006,0,0,1,50,57Zm10-6H56.92A6.977,6.977,0,0,0,55,47.111V34l-.987-5.366A2,2,0,0,0,52.047,27H43a2,2,0,0,0-2,2V51H39V28a3,3,0,0,1,3-3H52.611a2.991,2.991,0,0,1,2.959,2.507l1.527,9.16,2.244,1.122A2.985,2.985,0,0,1,61,40.472V41H57v4.618l4,2V50A1,1,0,0,1,60,51Z" fill="#fff"/>
    </g>
  </g>
</svg>
