<svg xmlns="http://www.w3.org/2000/svg" width="119.753" height="119.753" viewBox="0 0 119.753 119.753">
  <g id="avt2" transform="translate(-1038.222 -1150.033)">
    <g id="Grupo_61690" data-name="Grupo 61690" transform="translate(1041.09 1159.967)">
      <path id="Trazado_121314" data-name="Trazado 121314" d="M45.962,0A45.962,45.962,0,1,1,0,45.962,45.962,45.962,0,0,1,45.962,0Z" transform="translate(-2.869 24.649) rotate(-22.1)" fill="#fff"/>
    </g>
    <g id="talento-humano-2" transform="translate(1069.091 1177.5)">
      <path id="Trazado_138075" data-name="Trazado 138075" d="M222.96,110.471,214,107.97a2.775,2.775,0,1,1,1.492-5.346l8.3,2.316,7.728-1.694a2.775,2.775,0,1,1,1.188,5.421l-8.4,1.841a2.771,2.771,0,0,1-1.34-.038Zm0,0" transform="translate(-184.799 -89.382)" fill="#80391b"/>
      <path id="Trazado_138076" data-name="Trazado 138076" d="M333.743,109.85a2.775,2.775,0,0,0-3.3-2.116l-5,1.1.866,5.491,5.327-1.168A2.775,2.775,0,0,0,333.743,109.85Zm0,0" transform="translate(-283.722 -93.869)" fill="#e83e29"/>
      <path id="Trazado_138077" data-name="Trazado 138077" d="M99.6,283.249a3.162,3.162,0,0,1-2.621-3.623l2.2-13.733-3.079-12.272a3.162,3.162,0,0,1,6.134-1.539l3.237,12.9a3.158,3.158,0,0,1,.055,1.27l-2.307,14.374a3.162,3.162,0,0,1-3.622,2.621Zm0,0" transform="translate(-83.706 -217.686)" fill="#414b82"/>
      <path id="Trazado_138078" data-name="Trazado 138078" d="M1.734,303.744a3.162,3.162,0,0,1-1.39-4.25l6.664-13.148L5.25,277.284a3.162,3.162,0,0,1,6.208-1.2l1.964,10.127a3.163,3.163,0,0,1-.283,2.031L5.984,302.353a3.162,3.162,0,0,1-4.25,1.391Zm0,0" transform="translate(-0.001 -238.463)" fill="#5f6e9b"/>
      <path id="Trazado_138079" data-name="Trazado 138079" d="M75.1,121.565l-8.608-3.187a2.7,2.7,0,1,1,1.877-5.07l7.825,2.9,9.142-2.286a2.7,2.7,0,1,1,1.311,5.245l-9.953,2.488a2.7,2.7,0,0,1-1.594-.087Zm0,0" transform="translate(-56.43 -98.639)" fill="#ffb69e"/>
      <path id="Trazado_138080" data-name="Trazado 138080" d="M54.845,129.477H40.629V108.742a3.71,3.71,0,0,1,3.71-3.71h6.795a3.71,3.71,0,0,1,3.71,3.71Zm0,0" transform="translate(-35.422 -91.57)" fill="#55c7a6"/>
      <path id="Trazado_138081" data-name="Trazado 138081" d="M185.279,113.841H169.516a2,2,0,0,1-2-2V98.7a2,2,0,0,1,2-2h15.763a2,2,0,0,1,2,2v13.143A2,2,0,0,1,185.279,113.841Zm0,0" transform="translate(-146.049 -84.313)" fill="#965028"/>
      <path id="Trazado_138082" data-name="Trazado 138082" d="M267.336,173.524l-2.26-2.26a.432.432,0,0,0-.611,0l-2.26,2.26a.432.432,0,0,0,.305.737h.109a.432.432,0,0,1,.432.432V178.3a.432.432,0,0,0,.432.432h2.574a.432.432,0,0,0,.432-.432v-3.607a.432.432,0,0,1,.432-.432h.11A.432.432,0,0,0,267.336,173.524Zm0,0" transform="translate(-228.487 -149.203)" fill="#fa503c"/>
      <path id="Trazado_138083" data-name="Trazado 138083" d="M72.138,5.655A5.643,5.643,0,1,1,66.494.012a5.644,5.644,0,0,1,5.644,5.643Zm0,0" transform="translate(-53.052 -0.011)" fill="#ffb69e"/>
      <path id="Trazado_138084" data-name="Trazado 138084" d="M72.129,5.913a5.643,5.643,0,1,0-11.274,0Zm0,0" transform="translate(-53.05 0)" fill="#fa503c"/>
      <path id="Trazado_138085" data-name="Trazado 138085" d="M122.724,27.711l-7.634-.022a2.724,2.724,0,0,1,2.735-2.712l4.911.021a1.357,1.357,0,1,1-.012,2.713Zm0,0" transform="translate(-100.338 -21.775)" fill="#e83e29"/>
      <path id="Trazado_138086" data-name="Trazado 138086" d="M82.017,131.73l-9.2-4.548a2.7,2.7,0,0,1-.975-.816l-6.584-8.909a2.7,2.7,0,0,1,4.347-3.213l6.195,8.382,8.61,4.258a2.7,2.7,0,1,1-2.4,4.845Zm0,0" transform="translate(-56.436 -98.645)" fill="#ffb69e"/>
      <path id="Trazado_138087" data-name="Trazado 138087" d="M73.115,118.986l-3.505-4.743a2.7,2.7,0,0,0-4.347,3.213l3.489,4.721Zm0,0" transform="translate(-56.436 -98.645)" fill="#39ae96"/>
      <path id="Trazado_138088" data-name="Trazado 138088" d="M347.825,281.922h0A3.125,3.125,0,0,1,344.7,278.8l0-27.574a3.125,3.125,0,0,1,3.125-3.125h0a3.125,3.125,0,0,1,3.125,3.126l0,27.574A3.125,3.125,0,0,1,347.825,281.922Zm0,0" transform="translate(-300.519 -216.299)" fill="#55696e"/>
      <path id="Trazado_138089" data-name="Trazado 138089" d="M406.644,280.247a3.125,3.125,0,0,1-3.125-3.117l-.07-27.82a3.125,3.125,0,0,1,3.116-3.134,3.178,3.178,0,0,1,3.187,3.116v27.821a3.111,3.111,0,0,1-3.1,3.134h-.009Zm0,0" transform="translate(-351.738 -214.623)" fill="#748488"/>
      <path id="Trazado_138090" data-name="Trazado 138090" d="M344.7,131.256h13.833v-20.2a3.6,3.6,0,0,0-3.6-3.615h-6.62a3.615,3.615,0,0,0-3.615,3.615Zm0,0" transform="translate(-300.518 -93.668)" fill="#fa503c"/>
      <path id="Trazado_138091" data-name="Trazado 138091" d="M367.385,6.055A5.751,5.751,0,1,1,361.634.3a5.751,5.751,0,0,1,5.751,5.751Zm0,0" transform="translate(-310.269 -0.266)" fill="#80391b"/>
      <path id="Trazado_138092" data-name="Trazado 138092" d="M266.017,139.192l10.009-2.4a2.575,2.575,0,0,0,1.818-1.619l4.317-11.781a2.576,2.576,0,1,0-4.838-1.772L273.482,132.1l-8.666,2.077a2.576,2.576,0,1,0,1.2,5.01Zm0,0" transform="translate(-229.151 -104.559)" fill="#80391b"/>
      <path id="Trazado_138093" data-name="Trazado 138093" d="M364.919,128.827l1.991-5.433a2.576,2.576,0,1,0-4.838-1.772l-2.025,5.526Zm0,0" transform="translate(-313.899 -104.559)" fill="#e83e29"/>
    </g>
  </g>
</svg>
