<svg xmlns="http://www.w3.org/2000/svg" width="119.753" height="119.753" viewBox="0 0 119.753 119.753">
  <g id="avt3" transform="translate(-1038.222 -1535.964)">
    <g id="Grupo_61691" data-name="Grupo 61691">
      <g id="Grupo_60573" data-name="Grupo 60573" transform="translate(1041.09 1545.897)">
        <path id="Trazado_121314" data-name="Trazado 121314" d="M45.962,0A45.962,45.962,0,1,1,0,45.962,45.962,45.962,0,0,1,45.962,0Z" transform="translate(-2.869 24.65) rotate(-22.1)" fill="#fff"/>
      </g>
      <g id="talento-humano-3" transform="translate(1070.491 1563.028)">
        <path id="Trazado_138094" data-name="Trazado 138094" d="M107.69,127.863,99.156,125.4a2.556,2.556,0,0,1-1-.557L88.9,116.492a2.552,2.552,0,1,1,3.419-3.789l8.814,7.954,7.969,2.3a2.552,2.552,0,1,1-1.416,4.9Zm0,0" transform="translate(-76.838 -97.685)" fill="#f7a78d"/>
        <path id="Trazado_138095" data-name="Trazado 138095" d="M2.347,292.957a3.19,3.19,0,0,1-1.552-4.236L6.91,275.532l-.553-11.088a3.19,3.19,0,1,1,6.372-.318L13.321,276a3.182,3.182,0,0,1-.292,1.5l-6.447,13.9a3.19,3.19,0,0,1-4.236,1.552Zm0,0" transform="translate(-0.498 -227.631)" fill="#414b82"/>
        <path id="Trazado_138096" data-name="Trazado 138096" d="M106.432,276.54l-1.319-15.107-4.022-11.961a3.19,3.19,0,0,1,6.047-2.033l4.143,12.321a3.192,3.192,0,0,1,.155.739l1.351,15.486a3.19,3.19,0,1,1-6.355.555Zm0,0" transform="translate(-88.052 -213.829)" fill="#414b82"/>
        <path id="Trazado_138097" data-name="Trazado 138097" d="M46.285,126.6l14.632.978,1.327-19.842a3.876,3.876,0,0,0-3.609-4.126l-6.9-.462a3.876,3.876,0,0,0-4.126,3.609Zm0,0" transform="translate(-40.417 -89.923)" fill="#64afff"/>
        <path id="Trazado_138098" data-name="Trazado 138098" d="M79.253,5.738A5.738,5.738,0,1,1,73.516,0,5.738,5.738,0,0,1,79.253,5.738Zm0,0" transform="translate(-59.154 0)" fill="#ffb69e"/>
        <path id="Trazado_138099" data-name="Trazado 138099" d="M402.311,457.023a1.37,1.37,0,1,1-1.37,1.37,1.372,1.372,0,0,1,1.37-1.37m0-2.3a3.67,3.67,0,1,0,3.67,3.67A3.671,3.671,0,0,0,402.311,454.723Zm0,0" transform="translate(-347.61 -396.441)" fill="#373c41"/>
        <path id="Trazado_138100" data-name="Trazado 138100" d="M297.3,457.023a1.37,1.37,0,1,1-1.37,1.37,1.372,1.372,0,0,1,1.37-1.37m0-2.3a3.67,3.67,0,1,0,3.67,3.67A3.671,3.671,0,0,0,297.3,454.723Zm0,0" transform="translate(-256.054 -396.441)" fill="#373c41"/>
        <path id="Trazado_138101" data-name="Trazado 138101" d="M314.079,256.905H329.95a2.009,2.009,0,0,0,2.009-2.009v-23.2a2.01,2.01,0,0,0-2.009-2.01H314.079a2.01,2.01,0,0,0-2.009,2.01v23.2A2.009,2.009,0,0,0,314.079,256.905Zm0,0" transform="translate(-272.135 -200.245)" fill="#965028"/>
        <path id="Trazado_138102" data-name="Trazado 138102" d="M329.874,384.82l2.276-2.276a.435.435,0,0,1,.615,0l2.275,2.276a.435.435,0,0,1-.307.742h-.111a.435.435,0,0,0-.435.435v3.632a.435.435,0,0,1-.435.435h-2.592a.435.435,0,0,1-.435-.435V386a.434.434,0,0,0-.435-.435h-.11A.435.435,0,0,1,329.874,384.82Zm0,0" transform="translate(-287.546 -333.402)" fill="#fa503c"/>
        <path id="Trazado_138103" data-name="Trazado 138103" d="M228.759,237.264h-21.61l-4.255-28.49a1.916,1.916,0,0,0-1.9-1.634h-5.717a1.917,1.917,0,1,0,0,3.834h4.064c1.027,6.871,4.241,28.4,4.265,28.538a1.92,1.92,0,0,0,1.884,1.586h23.265a1.917,1.917,0,0,0,0-3.834Zm0,0" transform="translate(-168.644 -180.592)" fill="#9bb9c3"/>
        <path id="Trazado_138104" data-name="Trazado 138104" d="M102.176,131.426l-9.065-4.236a2.553,2.553,0,0,1-1.33-1.472L88.2,115.432a2.552,2.552,0,1,1,4.819-1.679l3.228,9.268,8.09,3.78a2.552,2.552,0,1,1-2.16,4.624Zm0,0" transform="translate(-76.834 -97.68)" fill="#ffb69e"/>
        <path id="Trazado_138105" data-name="Trazado 138105" d="M90.03,120.683l4.8-1.723-1.813-5.206a2.552,2.552,0,1,0-4.819,1.678Zm0,0" transform="translate(-76.835 -97.68)" fill="#4699f2"/>
      </g>
    </g>
  </g>
</svg>
