<svg xmlns="http://www.w3.org/2000/svg" width="119.753" height="119.753" viewBox="0 0 119.753 119.753">
  <g id="avt4" transform="translate(-1038 -1925.997)">
    <g id="Grupo_60574" data-name="Grupo 60574" transform="translate(1040.869 1935.931)">
      <path id="Trazado_121314" data-name="Trazado 121314" d="M45.962,0A45.962,45.962,0,1,1,0,45.962,45.962,45.962,0,0,1,45.962,0Z" transform="translate(-2.869 24.65) rotate(-22.1)" fill="#fff"/>
    </g>
    <g id="talento-humano-4" transform="translate(1062 1957.114)">
      <path id="Trazado_138106" data-name="Trazado 138106" d="M182.639,179.746l-7.267-4.589a1.1,1.1,0,1,1,1.177-1.864l7.267,4.589a1.1,1.1,0,0,1-1.177,1.864Zm0,0" transform="translate(-150.206 -148.786)" fill="#3c5a73"/>
      <path id="Trazado_138107" data-name="Trazado 138107" d="M78.1,138.612a1.7,1.7,0,0,1-.6-.108l-5.714-2.146a1.7,1.7,0,1,1,1.2-3.186l5.217,1.959,5.752-1.438a1.7,1.7,0,1,1,.826,3.3l-6.267,1.567a1.715,1.715,0,0,1-.412.051Zm0,0" transform="translate(-60.721 -114.374)" fill="#a65433"/>
      <path id="Trazado_138108" data-name="Trazado 138108" d="M67.931,144.8h-8.95V131.746a2.336,2.336,0,0,1,2.336-2.336h4.277a2.336,2.336,0,0,1,2.336,2.336V144.8Zm0,0" transform="translate(-50.665 -111.236)" fill="#55c7a6"/>
      <path id="Trazado_138109" data-name="Trazado 138109" d="M36.21,56.037l-6.02-26.9a2.941,2.941,0,0,0-2.8-2.049H6.02a2.94,2.94,0,0,0-2.94,2.94V56.037H1.831A1.832,1.832,0,0,0,0,57.869V69.832a1.831,1.831,0,0,0,1.832,1.831H34.378a1.831,1.831,0,0,0,1.832-1.831ZM6.073,30.083H27.334l5.139,22.961H6.073Zm0,0" transform="translate(0 -23.341)" fill="#ffc305"/>
      <path id="Trazado_138110" data-name="Trazado 138110" d="M215.63,263.705h-9.689V254.6h9.689a1.791,1.791,0,0,1,1.791,1.792v5.525A1.791,1.791,0,0,1,215.63,263.705Zm0,0" transform="translate(-176.907 -218.774)" fill="#3c4646"/>
      <path id="Trazado_138111" data-name="Trazado 138111" d="M259.021,279.278h-8.447a1.5,1.5,0,1,1,0-2.993h8.447a1.5,1.5,0,0,1,0,2.993Zm0,0" transform="translate(-213.962 -237.405)" fill="#55696e"/>
      <path id="Trazado_138112" data-name="Trazado 138112" d="M76.388,73.6a3.43,3.43,0,1,1-3.43-3.43A3.43,3.43,0,0,1,76.388,73.6Zm0,0" transform="translate(-59.726 -60.346)" fill="#ba6746"/>
      <path id="Trazado_138113" data-name="Trazado 138113" d="M76.384,73.755a3.43,3.43,0,1,0-6.853,0Zm0,0" transform="translate(-59.725 -60.34)" fill="#fa503c"/>
      <path id="Trazado_138114" data-name="Trazado 138114" d="M104.14,85.623,99.5,85.61a1.656,1.656,0,0,1,1.663-1.649l2.985.013a.825.825,0,1,1-.007,1.649Zm0,0" transform="translate(-85.472 -72.195)" fill="#e83e29"/>
      <path id="Trazado_138115" data-name="Trazado 138115" d="M379.435,201.918H362.357a2.162,2.162,0,0,1-2.162-2.163V185.517a2.162,2.162,0,0,1,2.162-2.162h17.078a2.162,2.162,0,0,1,2.162,2.162v14.238A2.162,2.162,0,0,1,379.435,201.918Zm0,0" transform="translate(-309.413 -157.576)" fill="#965028"/>
      <path id="Trazado_138116" data-name="Trazado 138116" d="M459.022,259.252l-2.449-2.448a.468.468,0,0,0-.661,0l-2.449,2.448a.468.468,0,0,0,.33.8h.119a.467.467,0,0,1,.468.468v3.908a.468.468,0,0,0,.468.468h2.789a.468.468,0,0,0,.468-.468v-3.908a.468.468,0,0,1,.468-.468h.119A.468.468,0,0,0,459.022,259.252Zm0,0" transform="translate(-389.413 -220.552)" fill="#fa503c"/>
      <path id="Trazado_138117" data-name="Trazado 138117" d="M361.037,70.872H343.959A2.162,2.162,0,0,1,341.8,68.71V54.472a2.162,2.162,0,0,1,2.162-2.163h17.078a2.162,2.162,0,0,1,2.162,2.163V68.71A2.162,2.162,0,0,1,361.037,70.872Zm0,0" transform="translate(-293.609 -45.006)" fill="#ba6746"/>
      <path id="Trazado_138118" data-name="Trazado 138118" d="M440.624,128.206l-2.449-2.449a.468.468,0,0,0-.661,0l-2.448,2.449a.467.467,0,0,0,.331.8h.118a.468.468,0,0,1,.468.468v3.908a.468.468,0,0,0,.468.468h2.789a.468.468,0,0,0,.468-.468v-3.908a.468.468,0,0,1,.468-.468h.119A.467.467,0,0,0,440.624,128.206Zm0,0" transform="translate(-373.61 -107.981)" fill="#fa503c"/>
      <path id="Trazado_138119" data-name="Trazado 138119" d="M168.141,162.528a1.1,1.1,0,0,1-1.009-1.545l2.2-5.026a1.1,1.1,0,1,1,2.018.886l-2.2,5.026A1.1,1.1,0,0,1,168.141,162.528Zm0,0" transform="translate(-143.489 -133.474)" fill="#55879b"/>
      <path id="Trazado_138120" data-name="Trazado 138120" d="M332.645,47.843H311.9a1.5,1.5,0,0,1-1.5-1.5V2A1.5,1.5,0,0,1,313.4,2V44.85h19.247a1.5,1.5,0,1,1,0,2.993Zm0,0" transform="translate(-266.643 -0.501)" fill="#9bb9c3"/>
      <path id="Trazado_138121" data-name="Trazado 138121" d="M84.586,141.139a1.818,1.818,0,0,1-.2-.012l-6.414-.767a1.7,1.7,0,0,1-.751-.28l-5.779-3.9a1.7,1.7,0,0,1,1.9-2.82l5.438,3.674,6,.718a1.7,1.7,0,0,1-.2,3.392Zm0,0" transform="translate(-60.723 -114.376)" fill="#ba6746"/>
      <path id="Trazado_138122" data-name="Trazado 138122" d="M76.445,135.452l-3.1-2.1a1.7,1.7,0,0,0-1.905,2.82l3.14,2.121Zm0,0" transform="translate(-60.72 -114.375)" fill="#39ae96"/>
      <path id="Trazado_138123" data-name="Trazado 138123" d="M35.073,304.508a6.031,6.031,0,1,1-6.031-6.031A6.031,6.031,0,0,1,35.073,304.508Zm0,0" transform="translate(-19.767 -256.468)" fill="#373c41"/>
      <path id="Trazado_138124" data-name="Trazado 138124" d="M55.644,329.117a1.992,1.992,0,1,1-1.992-1.992A1.992,1.992,0,0,1,55.644,329.117Zm0,0" transform="translate(-44.377 -281.077)" fill="#fff"/>
      <path id="Trazado_138125" data-name="Trazado 138125" d="M163.859,304.508a6.031,6.031,0,1,1-6.031-6.031A6.031,6.031,0,0,1,163.859,304.508Zm0,0" transform="translate(-130.396 -256.468)" fill="#373c41"/>
      <path id="Trazado_138126" data-name="Trazado 138126" d="M184.429,329.117a1.992,1.992,0,1,1-1.992-1.992A1.992,1.992,0,0,1,184.429,329.117Zm0,0" transform="translate(-155.005 -281.077)" fill="#fff"/>
    </g>
  </g>
</svg>
