<svg xmlns="http://www.w3.org/2000/svg" width="119.753" height="119.753" viewBox="0 0 119.753 119.753">
  <g id="avt5" transform="translate(-1038.222 -2337.464)">
    <g id="Grupo_60575" data-name="Grupo 60575" transform="translate(1041.09 2347.397)">
      <path id="Trazado_121314" data-name="Trazado 121314" d="M45.962,0A45.962,45.962,0,1,1,0,45.962,45.962,45.962,0,0,1,45.962,0Z" transform="translate(-2.869 24.65) rotate(-22.1)" fill="#fff"/>
    </g>
    <g id="talento-humano-5" transform="translate(1065.286 2364.528)">
      <path id="Trazado_138127" data-name="Trazado 138127" d="M272.478,126.724V101.632H255.887v25.092Zm0,0" transform="translate(-223.089 -88.606)" fill="#ffda52"/>
      <path id="Trazado_138128" data-name="Trazado 138128" d="M240.975,98.832l-2.233-11.917a7.03,7.03,0,0,0-6.907-5.733h-2.588c-.5-.087-.154-.031-9.917-.048a6.8,6.8,0,0,0-6.79,6.165l-1.072,11.1a3.2,3.2,0,1,0,6.365.615l1.073-11.1a.425.425,0,0,1,.424-.386c5.865.068,5.188.036,12.505.048a.633.633,0,0,1,.622.516l1.524,8.131h-9.074a3.2,3.2,0,0,0,0,6.4h12.926a3.2,3.2,0,0,0,3.143-3.787Zm0,0" transform="translate(-184.35 -70.733)" fill="#ba6746"/>
      <path id="Trazado_138129" data-name="Trazado 138129" d="M233.21,92.114h6.506l-.974-5.2a7.03,7.03,0,0,0-6.907-5.733h-2.588c-.5-.087-.153-.031-9.917-.048a6.8,6.8,0,0,0-6.79,6.165l-1.072,11.1a3.2,3.2,0,1,0,6.365.615Zm0,0" transform="translate(-184.35 -70.733)" fill="#ffda52"/>
      <path id="Trazado_138130" data-name="Trazado 138130" d="M218.5,277.935l-2.584-16.715a3.5,3.5,0,0,1,1.431-3.39l6.075-4.321a3.5,3.5,0,0,1,4.061,5.71l-4.313,3.067,2.255,14.578a3.5,3.5,0,1,1-6.924,1.07Zm0,0" transform="translate(-188.207 -220.452)" fill="#55696e"/>
      <path id="Trazado_138131" data-name="Trazado 138131" d="M319.343,276.936a3.5,3.5,0,0,1-2.927-4l2.254-14.57-5.163-3.646A3.5,3.5,0,1,1,317.548,249l6.936,4.9a3.5,3.5,0,0,1,1.441,3.4l-2.585,16.715a3.5,3.5,0,0,1-4,2.927Zm0,0" transform="translate(-272.031 -216.526)" fill="#55696e"/>
      <g id="Grupo_60570" data-name="Grupo 60570" transform="translate(3.699 0)">
        <path id="Trazado_138132" data-name="Trazado 138132" d="M31.461,277.178a2.6,2.6,0,0,1-2.6-2.6V248.235a2.6,2.6,0,1,1,5.2,0v26.342A2.6,2.6,0,0,1,31.461,277.178Zm0,0" transform="translate(-28.859 -214.15)" fill="#ba6746"/>
        <path id="Trazado_138133" data-name="Trazado 138133" d="M445.153,277.178a2.6,2.6,0,0,1-2.6-2.6V248.235a2.6,2.6,0,1,1,5.2,0v26.342A2.6,2.6,0,0,1,445.153,277.178Zm0,0" transform="translate(-389.527 -214.15)" fill="#ba6746"/>
        <path id="Trazado_138134" data-name="Trazado 138134" d="M283.425,6.455A6.455,6.455,0,1,1,276.97,0a6.454,6.454,0,0,1,6.455,6.455Zm0,0" transform="translate(-239.542 0)" fill="#ba6746"/>
        <path id="Trazado_138135" data-name="Trazado 138135" d="M228.993,150.235a3.2,3.2,0,0,0-4.29-1.429l-6.317,3.161.135-1.4H212.1l-.632,6.536a3.2,3.2,0,0,0,4.614,3.167l11.486-5.748a3.2,3.2,0,0,0,1.428-4.29Zm0,0" transform="translate(-188.047 -129.438)" fill="#ba6746"/>
      </g>
      <path id="Trazado_138136" data-name="Trazado 138136" d="M342.8,149.393a1.064,1.064,0,0,1-1.064,1.064H322.81a1.064,1.064,0,0,1-1.064-1.064V138.044a1.064,1.064,0,0,1,1.064-1.064h18.926a1.064,1.064,0,0,1,1.064,1.064Zm0,0" transform="translate(-280.507 -119.424)" fill="#b9cdd2"/>
      <path id="Trazado_138137" data-name="Trazado 138137" d="M391.879,175.49a2.068,2.068,0,1,1-2.068-2.068A2.068,2.068,0,0,1,391.879,175.49Zm0,0" transform="translate(-338.045 -151.195)" fill="#fff"/>
      <path id="Trazado_138138" data-name="Trazado 138138" d="M0,247.974a1.279,1.279,0,0,0,1.278,1.279H64.346a1.279,1.279,0,0,0,1.278-1.279v-4.621a1.278,1.278,0,0,0-1.278-1.278H1.278A1.278,1.278,0,0,0,0,243.353Zm0,0" transform="translate(0 -211.048)" fill="#e28c71"/>
      <path id="Trazado_138139" data-name="Trazado 138139" d="M47,126.852H31.408a1.974,1.974,0,0,1-1.974-1.975v-13a1.974,1.974,0,0,1,1.974-1.974H47a1.974,1.974,0,0,1,1.974,1.974v13A1.974,1.974,0,0,1,47,126.852Zm0,0" transform="translate(-25.661 -95.817)" fill="#965028"/>
      <path id="Trazado_138140" data-name="Trazado 138140" d="M128.168,185.889l-2.235-2.236a.427.427,0,0,0-.6,0l-2.236,2.236a.427.427,0,0,0,.3.729h.109a.427.427,0,0,1,.427.427v3.568a.427.427,0,0,0,.427.427H126.9a.427.427,0,0,0,.427-.427v-3.568a.427.427,0,0,1,.427-.427h.108A.427.427,0,0,0,128.168,185.889Zm0,0" transform="translate(-107.206 -160.006)" fill="#fa503c"/>
    </g>
  </g>
</svg>
