<svg xmlns="http://www.w3.org/2000/svg" width="708" height="345" viewBox="0 0 708 345">
  <g id="img4" transform="translate(-700 -4461)">
    <rect id="Rectángulo_30532" data-name="Rectángulo 30532" width="708" height="345" rx="18" transform="translate(700 4461)" fill="#f2f6fe"/>
    <g id="maquinaria-04" transform="translate(946 4494.622)">
      <g id="Grupo_60933" data-name="Grupo 60933" transform="translate(6.62 191.913)">
        <g id="Grupo_60931" data-name="Grupo 60931" transform="translate(1.546 11.674)">
          <g id="Grupo_60929" data-name="Grupo 60929" transform="translate(3.912)">
            <path id="Trazado_139229" data-name="Trazado 139229" d="M18.4,81.155V80.4a1.94,1.94,0,0,0,0-.212.879.879,0,0,0,0-.273v-.455h0l-.182-.425h0a1.85,1.85,0,0,0,0-.364h0l-.182-.334h0l-.243-.394h0l-.182-.273h0l-.97-.819H16.4l-.273-.273v-.182h0l-.212-.212h-.152L15.55,76h0l-.364-.212-.485-.243h-2l2.486-1.455h1.85l.455.243.364.212h0l.243.182h0l.212.182h0l.243.273h0v.182h0v.152h0V75.7h0l.182.3h0a.909.909,0,0,1,0,.243h0a1.092,1.092,0,0,0,0,.273h0v.515a.425.425,0,0,1,0,.182h0v.637h0v1.122a2.82,2.82,0,0,1-.849,2.274h-.243L15.156,82.7a2.668,2.668,0,0,0,1.092-2.426,1.729,1.729,0,0,0,0-.394Z" transform="translate(-10.881 -74.09)" fill="#231f20"/>
            <path id="Trazado_139230" data-name="Trazado 139230" d="M15.89,74.81c-2.092-1.213-3.76-.243-3.79,2.153a8.278,8.278,0,0,0,3.76,6.489c2.092,1.213,3.79.243,3.79-2.153a8.218,8.218,0,0,0-3.76-6.489Z" transform="translate(-12.1 -73.689)" fill="#2b2b2b"/>
          </g>
          <g id="Grupo_60930" data-name="Grupo 60930" transform="translate(0 1.832)">
            <path id="Trazado_139231" data-name="Trazado 139231" d="M16.968,82.383a.849.849,0,0,1,0-.273s0-.212,0-.3V81.14h0v-.3h0a2.365,2.365,0,0,0-.152-.425h0l-.728-.667h0V79.29h0a.485.485,0,0,0-.212-.394h0l-.182-.273h0l-.182-.212v-.182l-.152-.182-.243-.273h-.152l-.243-.182h0l-.243-.182h0l-.364-.243-.485-.212H11.48l1.577-2.244h0a.334.334,0,0,1,.212,0h2l.455.243.364.212h0l.243.182h0l.212.182h0l.273.243h0l.152.182h0v.152h0l.182.3h0a1.79,1.79,0,0,1,0,.243h0a1.092,1.092,0,0,1,0,.273h0a1.638,1.638,0,0,1,.152.334v.182a.425.425,0,0,1,0,.182h0v.243a.394.394,0,0,1,0,.182.424.424,0,0,1,0,.182v.212a1.334,1.334,0,0,1,0,.3h0a.394.394,0,0,1,0,.182v.546a2.85,2.85,0,0,1-.849,2.244l-.243.182-2.517,1.456a2.608,2.608,0,0,0,1.122-2.426,2.153,2.153,0,0,0,0-.424Z" transform="translate(-9.448 -74.694)" fill="#231f20"/>
            <path id="Trazado_139232" data-name="Trazado 139232" d="M14.6,75.6c-2.092-1.183-3.79-.212-3.79,2.153a8.248,8.248,0,0,0,3.76,6.519c2.092,1.213,3.79.243,3.79-2.153A8.308,8.308,0,0,0,14.6,75.6Z" transform="translate(-10.81 -73.882)" fill="#2b2b2b"/>
          </g>
        </g>
        <g id="Grupo_60932" data-name="Grupo 60932">
          <path id="Trazado_139233" data-name="Trazado 139233" d="M10.3,71.57l.03,12.068,9.552,5.549-.03-12.038Z" transform="translate(-10.3 -67.537)" fill="#7e2a39"/>
          <path id="Trazado_139234" data-name="Trazado 139234" d="M13.45,76.133l.03,12.038,7-4.033-.03-12.068Z" transform="translate(-3.898 -66.521)" fill="#9c2a34"/>
          <path id="Trazado_139235" data-name="Trazado 139235" d="M10.3,74.273l9.552,5.579,7-4.063L17.3,70.24Z" transform="translate(-10.3 -70.24)" fill="#dcb102"/>
        </g>
      </g>
      <g id="Grupo_60938" data-name="Grupo 60938" transform="translate(70.692 159.498)">
        <g id="Grupo_60936" data-name="Grupo 60936" transform="translate(1.546 11.401)">
          <g id="Grupo_60934" data-name="Grupo 60934" transform="translate(3.912)">
            <path id="Trazado_139236" data-name="Trazado 139236" d="M39.673,70.648v-.97a.879.879,0,0,0,0-.273h0v-.3h0l-.606-.667h0a1.85,1.85,0,0,0,0-.364h0l-.182-.334h0s-.152-.273-.212-.394h0l-.182-.273h0l-.182-.212-.152-.182v-.182a.91.91,0,0,0-.243-.243l-.152-.182h0l-.97-.667h0l-.212-.182h0l-.364-.212a1.819,1.819,0,0,0-.485-.243H34a.606.606,0,0,0-.243,0l2.486-1.455h1.546l.455.243.364.212h0l.243.182h0l.212.212h0l.273.273h0v.182h0l1.213.788h0v.182h0l.182.3h0v.243h0a1.091,1.091,0,0,0,0,.273h0v.7h0v.819a1.334,1.334,0,0,1,0,.3v.819a2.82,2.82,0,0,1-.849,2.274h-.243l-2.486,1.455a2.668,2.668,0,0,0,1.092-2.426,2.155,2.155,0,0,0,0-.425Z" transform="translate(-32.153 -63.31)" fill="#231f20"/>
            <path id="Trazado_139237" data-name="Trazado 139237" d="M37.02,64.12c-2.092-1.213-3.76-.243-3.79,2.153a8.278,8.278,0,0,0,3.76,6.489c2.092,1.213,3.79.243,3.79-2.153A8.217,8.217,0,0,0,37.02,64.12Z" transform="translate(-33.23 -62.726)" fill="#2b2b2b"/>
          </g>
          <g id="Grupo_60935" data-name="Grupo 60935" transform="translate(0 2.153)">
            <path id="Trazado_139238" data-name="Trazado 139238" d="M38.667,71.661a.849.849,0,0,1,0-.273v-.97h0v-.3h0a2.366,2.366,0,0,0-.152-.425h0l-.182-.394h0a1.243,1.243,0,0,0-.212-.334h0l-.728-.849h0l-.182-.273h0a1.06,1.06,0,0,0,0-.243l-.152-.152v-.182l-.243-.273h-.152l-.212-.182h-.243l-.364-.243-1.486-1.092H32.33l2.517-1.455h2.062l.485.212.364.243h0l.243.182h0l.212.182h0l.273.273h0l.152.182h0l.182.334h0v.212h0a1.091,1.091,0,0,1,0,.273h0a3.546,3.546,0,0,1,.152.334v.364h0v.152h0v.364h0v.3h0a.394.394,0,0,1,0,.182h0a2.153,2.153,0,0,1,0,.425,2.85,2.85,0,0,1,1.456,4.821l-.243.182-2.517,1.455a2.608,2.608,0,0,0,1.122-2.426s0-.273,0-.424Z" transform="translate(-31.147 -64.02)" fill="#231f20"/>
            <path id="Trazado_139239" data-name="Trazado 139239" d="M35.73,64.908c-2.092-1.183-3.79-.212-3.79,2.153A8.308,8.308,0,0,0,35.7,73.58c2.092,1.213,3.76.243,3.79-2.153A8.4,8.4,0,0,0,35.73,64.908Z" transform="translate(-31.94 -63.24)" fill="#2b2b2b"/>
          </g>
        </g>
        <g id="Grupo_60937" data-name="Grupo 60937">
          <path id="Trazado_139240" data-name="Trazado 139240" d="M31.43,60.88l.03,12.068L41.012,78.5l-.03-12.068Z" transform="translate(-31.43 -56.847)" fill="#7e2a39"/>
          <path id="Trazado_139241" data-name="Trazado 139241" d="M34.58,65.413l.03,12.068,7.035-4.063L41.585,61.38Z" transform="translate(-25.028 -55.831)" fill="#e67e22"/>
          <path id="Trazado_139242" data-name="Trazado 139242" d="M31.43,63.583l9.552,5.549,7-4.033L38.435,59.55Z" transform="translate(-31.43 -59.55)" fill="#dcb102"/>
        </g>
      </g>
      <g id="Grupo_60939" data-name="Grupo 60939" transform="translate(6.711 149.552)">
        <path id="Trazado_139243" data-name="Trazado 139243" d="M20.64,69.069l.03,8.945L53.571,67.8l-.03-8.945Z" transform="translate(10.623 -51.027)" fill="#c72f21"/>
        <path id="Trazado_139244" data-name="Trazado 139244" d="M31.49,58.85l.03,8.945L53.353,80.47l-.03-8.945Z" transform="translate(32.673 -51.027)" fill="#9c2a34"/>
        <path id="Trazado_139245" data-name="Trazado 139245" d="M38.69,66.038l.03,8.945L46.483,70.5l-.03-8.945Z" transform="translate(47.306 -45.54)" fill="#7e2a39"/>
        <path id="Trazado_139246" data-name="Trazado 139246" d="M14.79,81.232l.03,8.945L32.559,71.165l-.03-8.945Z" transform="translate(-1.266 -44.178)" fill="#c72f21"/>
        <path id="Trazado_139247" data-name="Trazado 139247" d="M19.42,77.188l.03,8.945,7.793-4.488-.03-8.976Z" transform="translate(8.143 -22.941)" fill="#7e2a39"/>
        <path id="Trazado_139248" data-name="Trazado 139248" d="M10.33,68.87l.03,8.945L37.924,93.856l-.03-8.945Z" transform="translate(-10.33 -30.663)" fill="#c72f21"/>
        <path id="Trazado_139249" data-name="Trazado 139249" d="M33.527,69.642,10.33,94.477l27.563,16.041L45.686,106,23.854,93.324,41.593,74.312l32.9-10.219L96.326,76.768l7.763-4.488L76.525,56.27Z" transform="translate(-10.33 -56.27)" fill="#fe5236"/>
      </g>
      <g id="Grupo_60940" data-name="Grupo 60940" transform="translate(32.061 171.809)">
        <path id="Trazado_139250" data-name="Trazado 139250" d="M89.251,69.22l-9.643-5.61L18.69,98.754l9.673,5.61Z" transform="translate(-18.69 -63.61)" fill="#fe5236"/>
        <path id="Trazado_139251" data-name="Trazado 139251" d="M21.88,100.6v4.488L82.8,69.917l-.03-4.457Z" transform="translate(-12.207 -59.85)" fill="#c72f21"/>
      </g>
      <g id="Grupo_60943" data-name="Grupo 60943" transform="translate(0 76.458)">
        <g id="Grupo_60941" data-name="Grupo 60941" transform="translate(22.084 33.007)">
          <path id="Trazado_139252" data-name="Trazado 139252" d="M18.25,44.3l-2.85-1,9.036,56.976,2.85,1Z" transform="translate(-15.4 -42.542)" fill="#323133"/>
          <path id="Trazado_139253" data-name="Trazado 139253" d="M19.554,44.051l-2.82-1-1.334.758,2.85,1Z" transform="translate(-15.4 -43.05)" fill="#373638"/>
          <path id="Trazado_139254" data-name="Trazado 139254" d="M16.34,44.138l9.036,56.976,1.3-.758L17.644,43.38Z" transform="translate(-13.49 -42.379)" fill="#262527"/>
        </g>
        <g id="Grupo_60942" data-name="Grupo 60942">
          <path id="Trazado_139255" data-name="Trazado 139255" d="M11.851,69.5h0a6.85,6.85,0,0,0,1.365,0h0a6.427,6.427,0,0,0,1.425-.334h0a8.249,8.249,0,0,0,1.516-.667l17.981-9.855A13.011,13.011,0,0,0,35.9,57.432h0a18.983,18.983,0,0,0,1.577-1.546h0a11.189,11.189,0,0,0,1.213-1.668c0-.152.212-.334.334-.515l.819-1.516a1.849,1.849,0,0,1,.152-.364,16.981,16.981,0,0,0,.788-2.062v-.182a18.193,18.193,0,0,0,.515-2.214h0a19.649,19.649,0,0,0,.212-2.335h0a14.858,14.858,0,0,0,.121-2.547l-1.092-7.247a4.276,4.276,0,0,0-.243-.94h0a4.123,4.123,0,0,0-.394-.728h0a2.608,2.608,0,0,0-.394-.424h-.182a2.365,2.365,0,0,0-.606-.334h0l2.82.97a2.366,2.366,0,0,1,.606.334h.182l.3.273h0a.758.758,0,0,1,0,.212.758.758,0,0,1,0,.212v.182h0v.546a.394.394,0,0,0,0,.182h0l1.092,7.247v1.243a2.76,2.76,0,0,1,0,.515V45.3h0v.425a3.307,3.307,0,0,0,0,.546,4.153,4.153,0,0,0,0,.576v.788h0a1.517,1.517,0,0,0,0,.364v.667l-.182.758v.91a14.1,14.1,0,0,1-.606,1.577V52.1a1.85,1.85,0,0,1,0,.364c-.152.273-.273.576-.425.849l-.394.667c0,.182-.212.364-.334.515l-.182.3a8.579,8.579,0,0,1-.606.849,6.331,6.331,0,0,1-.425.515h0a3.912,3.912,0,0,1-.485.515l-.425.455-.455.364v.152h0l-.212.182-.394.3L38.2,58.4l-.394.243-.364.212L19.158,69.47h0l-.394.212-.394.182-.394.152H14.4a3.184,3.184,0,0,1-.728-.182h0l-2.82-.97a4.548,4.548,0,0,0,1,.637Z" transform="translate(-2.563 -30.854)" fill="#414042"/>
          <path id="Trazado_139256" data-name="Trazado 139256" d="M42.672,32.787c3.032-1.607,5.731,0,6.277,3.669l1.061,7.277a20.134,20.134,0,0,1-8.854,19.528L23.175,73.146c-6.065,3.305-11.826,0-12.948-7.581L9.135,58.319a9.855,9.855,0,0,1,4.336-9.491ZM12.137,64.535c.91,6.065,5.7,9.1,10.674,6.246l17.981-9.855a16.738,16.738,0,0,0,7.338-16.162l-1.092-7.247c-.334-2.335-2.153-3.4-4.033-2.365l-29.2,16.041a6.307,6.307,0,0,0-2.759,6.065L12.137,64.5Z" transform="translate(-6.215 -32.165)" fill="#262627"/>
          <path id="Trazado_139257" data-name="Trazado 139257" d="M8.126,55.669h0v-.576a1.122,1.122,0,0,0,0-.334s0-.212,0-.334v-.182a.606.606,0,0,1,0-.212V52.94h0v-.182l.364-.94h0v-.212l.243-.515.243-.394.182-.3v-.182l1.122-.606.273-.3h0l.273-.3.243-.273.273-.212h0l.212-.182h.667L41.451,32.29H44.7l2.85.97a3.366,3.366,0,0,0-.758,0h-.91a3.973,3.973,0,0,0-.819.182h0l-.879.394-29.2,16.041a6.064,6.064,0,0,0-1.031.7h0a6.459,6.459,0,0,0-.91.91h0a11.556,11.556,0,0,0-.728.97l-.182.3c-.182.3-.334.606-.485.91v.212a8.308,8.308,0,0,0-.455,1.213h0a10.127,10.127,0,0,0-.3,1.3h0a6.914,6.914,0,0,0,0,1.365h0a10.309,10.309,0,0,0,0,1.365l1.092,7.247a11.582,11.582,0,0,0,.334,1.546h0a13.828,13.828,0,0,0,.425,1.334h0a10.278,10.278,0,0,0,.546,1.183h0l.606,1,.243.3.364.455a9.369,9.369,0,0,0,1.395,1.3h.243a7.521,7.521,0,0,0,1.7.879l-2.82-.97a7.52,7.52,0,0,1-1.7-.879h-.243a9.37,9.37,0,0,1-1.395-1.3v-.152l-.243-.3-.243-.3v-.212a5.337,5.337,0,0,1-.394-1.456h0a3.3,3.3,0,0,1-.243-.455l-.273-.637h0v-.364a4.215,4.215,0,0,1-.182-.576,2.82,2.82,0,0,1,0-.394V64.735L9.006,57.488h0a.849.849,0,0,1,0-.273,1.152,1.152,0,0,1,0-.3,1.031,1.031,0,0,0,0-.3v-.94Z" transform="translate(-8.117 -31.911)" fill="#414042"/>
        </g>
      </g>
      <g id="Grupo_60944" data-name="Grupo 60944" transform="translate(58.199 15.374)">
        <path id="Trazado_139258" data-name="Trazado 139258" d="M29.4,187.092A2.123,2.123,0,0,0,31.525,185V18.952A2.123,2.123,0,0,0,29.4,16.86a2.092,2.092,0,0,0-2.092,2.092V185.091a2.092,2.092,0,0,0,2.092,2Z" transform="translate(-27.31 -2.184)"/>
        <path id="Trazado_139259" data-name="Trazado 139259" d="M36.3,182.373a2.123,2.123,0,0,0,2.123-2.123V14.143A2.123,2.123,0,0,0,36.3,12.02a2.092,2.092,0,0,0-2.092,2.123V180.251a2.092,2.092,0,0,0,2.092,2.123Z" transform="translate(-13.287 -12.02)"/>
      </g>
      <g id="Grupo_60945" data-name="Grupo 60945" transform="translate(32 0)">
        <path id="Trazado_139260" data-name="Trazado 139260" d="M48.4,13.66,38.76,8.05l.485,171.627,9.643,5.61Z" transform="translate(22.159 -4.714)" fill="#c72f21"/>
        <path id="Trazado_139261" data-name="Trazado 139261" d="M28.343,24.52,18.67,18.91l.485,173.871,9.673,5.579Z" transform="translate(-18.67 17.356)" fill="#c72f21"/>
        <path id="Trazado_139262" data-name="Trazado 139262" d="M91.172,12.56,81.5,6.95,18.67,43.216l9.673,5.61Z" transform="translate(-18.67 -6.95)" fill="#ff7464"/>
        <path id="Trazado_139263" data-name="Trazado 139263" d="M21.86,45.066l.485,173.84,1.941-1.092L23.8,46.188,82.748,12.135l.485,171.627,1.941-1.122L84.689,8.8Z" transform="translate(-12.187 -3.19)" fill="#fe5236"/>
      </g>
      <g id="Grupo_60946" data-name="Grupo 60946" transform="translate(66.113 78.506)">
        <path id="Trazado_139264" data-name="Trazado 139264" d="M34.408,35.878,29.92,33.27l.3,111.1,4.488,2.608Z" transform="translate(-29.92 -31.966)" fill="#323133"/>
        <path id="Trazado_139265" data-name="Trazado 139265" d="M36.652,35.478,32.164,32.84l-2.244,1.3,4.488,2.608Z" transform="translate(-29.92 -32.84)" fill="#383739"/>
        <path id="Trazado_139266" data-name="Trazado 139266" d="M31.4,34.984l.3,111.1,2.244-1.3-.3-111.072Z" transform="translate(-26.912 -31.072)" fill="#232223"/>
      </g>
      <g id="Grupo_60961" data-name="Grupo 60961" transform="translate(32.061 176.023)">
        <g id="Grupo_60951" data-name="Grupo 60951" transform="translate(96.942 82.478)">
          <g id="Grupo_60949" data-name="Grupo 60949" transform="translate(1.516 11.31)">
            <g id="Grupo_60947" data-name="Grupo 60947" transform="translate(3.942)">
              <path id="Trazado_139267" data-name="Trazado 139267" d="M59.157,103.389a.849.849,0,0,0,0-.273,1.091,1.091,0,0,0,0-.3.606.606,0,0,0,0-.212.424.424,0,0,0,0-.182.879.879,0,0,0,0-.273h0v-.3h0l-.182-.425h0l-.182-.364h0l-.182-.334h0l-.243-.394h0l-.212-.273h0l-.849-.879v-.364l-.273-.243v-.182h0l-.7-.364h0l-.243-.182h0l-.364-.212a1.669,1.669,0,0,0-.455-.243H53.093a.607.607,0,0,0-.243,0l2.486-1.456h2.032l.485.243.334.212h0l.243.182h0l.212.182h0l.243.273h0V97.2h0v.152h0l.212.3h0a1.7,1.7,0,0,1,.152.243h0v.273h0v.334h0a.425.425,0,0,0,0,.182v.758h0v1.122a2.7,2.7,0,0,1-.849,2.244.728.728,0,0,1-.243.182l-2.486,1.455a2.668,2.668,0,0,0,1.092-2.426v-.546Z" transform="translate(-51.667 -95.93)" fill="#231f20"/>
              <path id="Trazado_139268" data-name="Trazado 139268" d="M56.22,96.78c-2.062-1.213-3.76-.243-3.76,2.153a8.187,8.187,0,0,0,3.73,6.489c2.092,1.213,3.79.243,3.79-2.153a8.217,8.217,0,0,0-3.76-6.489Z" transform="translate(-52.46 -95.264)" fill="#2b2b2b"/>
            </g>
            <g id="Grupo_60948" data-name="Grupo 60948" transform="translate(0 3.063)">
              <path id="Trazado_139269" data-name="Trazado 139269" d="M57.379,103.793v-.97a.879.879,0,0,0,0-.273v-.455h0l-.182-.425h0a1.849,1.849,0,0,0,0-.364h0l-.182-.334h0l-.94-.819h0l-.182-.273h0l-.455-.394v-.182h0l-.273-.273h-.152L54.8,98.85H54.59l-.364-.243-.485-.212h0a.485.485,0,0,0-.273,0H52.043a.607.607,0,0,0-.243,0l2.486-1.456h2.032l.455.212.364.243h0l.243.182h0l.212.182h0l.243.273h0v.182h0v.152h0l.182.334h0v.212h0a1.092,1.092,0,0,0,0,.273h0V99.7a.425.425,0,0,1,0,.182h0v.819a1.091,1.091,0,0,1,0,.3v.819a2.759,2.759,0,0,1-.849,2.244l-.243.182L54.438,105.7a2.668,2.668,0,0,0,1.092-2.426,2,2,0,0,0,0-.424Z" transform="translate(-49.859 -96.94)" fill="#231f20"/>
              <path id="Trazado_139270" data-name="Trazado 139270" d="M54.95,97.572c-2.092-1.183-3.76-.243-3.79,2.153a8.4,8.4,0,0,0,3.76,6.519c2.092,1.213,3.79.243,3.79-2.153A8.308,8.308,0,0,0,54.95,97.572Z" transform="translate(-51.16 -96.692)" fill="#2b2b2b"/>
            </g>
          </g>
          <g id="Grupo_60950" data-name="Grupo 60950" transform="translate(0)">
            <path id="Trazado_139271" data-name="Trazado 139271" d="M50.66,93.54l.03,12.068,9.552,5.549-.03-12.068Z" transform="translate(-50.66 -89.477)" fill="#7e2a39"/>
            <path id="Trazado_139272" data-name="Trazado 139272" d="M53.81,98.073l.03,12.068,7-4.063-.03-12.038Z" transform="translate(-44.258 -88.461)" fill="#9c2a34"/>
            <path id="Trazado_139273" data-name="Trazado 139273" d="M50.66,96.263l9.552,5.549,7-4.033L57.665,92.2Z" transform="translate(-50.66 -92.2)" fill="#dcb102"/>
          </g>
        </g>
        <g id="Grupo_60956" data-name="Grupo 60956" transform="translate(148.006 52.398)">
          <g id="Grupo_60954" data-name="Grupo 60954" transform="translate(1.546 11.401)">
            <g id="Grupo_60952" data-name="Grupo 60952" transform="translate(3.912)">
              <path id="Trazado_139274" data-name="Trazado 139274" d="M75.662,93.378v-.273a1.092,1.092,0,0,0,0-.3.606.606,0,0,0,0-.212.425.425,0,0,0,0-.182.878.878,0,0,0,0-.273h0a1.272,1.272,0,0,1,0-.3h0l-.182-.425h0l-.182-.364h0l-.182-.334h0l-.243-.394h0l-.182-.273h0l-.182-.212v-.364L73.3,88.5v-.182h0l-.212-.182h0l-.243-.182h0l-.364-.212a1.668,1.668,0,0,0-.455-.243h-1.91a.607.607,0,0,0-.243,0l2.486-1.455h2.032l.455.243.364.212h0l.243.182h0a.7.7,0,0,1,.212.212h0l.243.273h0v.182h0v.182h0l.212.3h0a.606.606,0,0,1,0,.243h0v.273h0v.334h0a.424.424,0,0,0,0,.182v.758h0V90.74a2.82,2.82,0,0,1-.849,2.274h-.243L72.538,94.47a2.669,2.669,0,0,0,1.092-2.426V91.5Z" transform="translate(-68.142 -86.04)" fill="#231f20"/>
              <path id="Trazado_139275" data-name="Trazado 139275" d="M73.09,86.85c-2.062-1.213-3.76-.243-3.79,2.153a8.278,8.278,0,0,0,3.76,6.489c2.092,1.213,3.79.243,3.79-2.153a8.217,8.217,0,0,0-3.76-6.489Z" transform="translate(-69.3 -85.456)" fill="#2b2b2b"/>
            </g>
            <g id="Grupo_60953" data-name="Grupo 60953" transform="translate(0 3.002)">
              <path id="Trazado_139276" data-name="Trazado 139276" d="M74.006,93.822v-.97a.879.879,0,0,0,0-.273h0v-.3h0l-.182-.424h0v-.394h0l-.182-.334h0l-.212-.364h0l-.91-.788h0l-.182-.243h0v-.182l-.243-.273v-.152h0l-.212-.182h-.364l-.364-.243-.485-.212h0a.333.333,0,0,0-.243,0H68.76l2.486-1.456H73.43l.455.212.364.243h0l.243.182h0l.212.182h0l.273.273h0V88.3h0l.182.334h0v.212h0a1.092,1.092,0,0,0,0,.273h0v.515a.425.425,0,0,1,0,.182h0v.819a1.094,1.094,0,0,1,0,.3V93a2.759,2.759,0,0,1-.849,2.244l-.243.182L71.58,96.885a2.668,2.668,0,0,0,1.092-2.426,2,2,0,0,0,0-.424Z" transform="translate(-66.486 -87.03)" fill="#231f20"/>
              <path id="Trazado_139277" data-name="Trazado 139277" d="M71.8,87.642c-2.092-1.183-3.76-.243-3.79,2.153a8.4,8.4,0,0,0,3.76,6.519c2.092,1.213,3.79.243,3.79-2.153A8.308,8.308,0,0,0,71.8,87.642Z" transform="translate(-68.01 -86.823)" fill="#2b2b2b"/>
            </g>
          </g>
          <g id="Grupo_60955" data-name="Grupo 60955">
            <path id="Trazado_139278" data-name="Trazado 139278" d="M67.5,83.61l.061,12.068,9.552,5.549-.03-12.068Z" transform="translate(-67.5 -79.577)" fill="#7e2a39"/>
            <path id="Trazado_139279" data-name="Trazado 139279" d="M70.66,88.143l.03,12.068,7-4.033-.03-12.068Z" transform="translate(-61.078 -78.561)" fill="#9c2a34"/>
            <path id="Trazado_139280" data-name="Trazado 139280" d="M67.5,86.313l9.582,5.549,7-4.033L74.535,82.28Z" transform="translate(-67.5 -82.28)" fill="#dcb102"/>
          </g>
        </g>
        <g id="Grupo_60960" data-name="Grupo 60960">
          <g id="Grupo_60957" data-name="Grupo 60957" transform="translate(61.586)">
            <path id="Trazado_139281" data-name="Trazado 139281" d="M129.969,119.953h0a16,16,0,0,0,1.607.819l.606.212a7.888,7.888,0,0,0,1.092.394,14.014,14.014,0,0,0,2.153.546l1.546.243h0a14.5,14.5,0,0,0,1.607,0h0a9.1,9.1,0,0,0,1.577,0h0a9.1,9.1,0,0,0,1.365-.3h0a6.974,6.974,0,0,0,1.183-.515,3.032,3.032,0,0,0,1.819-2.759v4.366a3.214,3.214,0,0,1-1.85,2.759l-.788.364h-5.064l-1.395-.182h0a18.019,18.019,0,0,1-2.123-.515h0l-1.061-.394-.576-.212a13.311,13.311,0,0,1-1.7-.3h0L39,71.527V67.07Z" transform="translate(-39 -60.793)" fill="#c72f21"/>
            <path id="Trazado_139282" data-name="Trazado 139282" d="M39,71.277l90.969,52.883a14.828,14.828,0,0,0,13.1,1.274c3.032-1.789,2.153-5.185-2.062-7.641L49.947,65Z" transform="translate(-39 -65)" fill="#fe5236"/>
          </g>
          <g id="Grupo_60959" data-name="Grupo 60959" transform="translate(0 30.323)">
            <g id="Grupo_60958" data-name="Grupo 60958" transform="translate(0 0.606)">
              <path id="Trazado_139283" data-name="Trazado 139283" d="M28.363,80.81v.061l90.969,52.853v4.457l-91-52.883v-.03L18.72,79.688,18.69,75.2Z" transform="translate(-18.69 -75.2)" fill="#c72f21"/>
              <path id="Trazado_139284" data-name="Trazado 139284" d="M51.88,95.354a13.313,13.313,0,0,0,1.607.819l.606.212,1.183.485a18.013,18.013,0,0,0,2.123.515l1.546.243h0a10.1,10.1,0,0,0,1.637,0h.152a9.1,9.1,0,0,0,1.577,0h0a9.1,9.1,0,0,0,1.365-.3h.182a4.941,4.941,0,0,0,1.152-.515,3.032,3.032,0,0,0,1.819-2.729v4.457a3.214,3.214,0,0,1-1.85,2.759,4.761,4.761,0,0,1-.788.364,1.273,1.273,0,0,1-.364,0h-.334l-.637.152H58.976a10.525,10.525,0,0,1-1.365-.182h-.182l-2.123-.546h0l-1.061-.425-.576-.212a16.012,16.012,0,0,1-1.607-.819Z" transform="translate(48.762 -36.831)" fill="#c72f21"/>
            </g>
            <path id="Trazado_139285" data-name="Trazado 139285" d="M21.87,81.246l90.969,52.883a14.767,14.767,0,0,0,13.069,1.274c3.032-1.789,2.123-5.185-2.092-7.641L32.877,75Z" transform="translate(-12.227 -75)" fill="#fe5236"/>
          </g>
        </g>
      </g>
      <g id="Grupo_60964" data-name="Grupo 60964" transform="translate(40.976 99.701)">
        <g id="Grupo_60962" data-name="Grupo 60962" transform="translate(0 43.938)">
          <path id="Trazado_139286" data-name="Trazado 139286" d="M21.63,55.67v3l.061.03V55.731Z" transform="translate(-21.63 -51.576)" fill="#d98851"/>
          <path id="Trazado_139287" data-name="Trazado 139287" d="M21.65,58.454v2.972L28.776,57.3V54.33Z" transform="translate(-21.589 -54.3)" fill="#f5bc6f"/>
          <path id="Trazado_139288" data-name="Trazado 139288" d="M28.756,54.32,21.63,58.414l.061.061,7.126-4.124Z" transform="translate(-21.63 -54.32)" fill="#ffd18d"/>
        </g>
        <g id="Grupo_60963" data-name="Grupo 60963" transform="translate(0.061)">
          <path id="Trazado_139289" data-name="Trazado 139289" d="M49.17,39.83v3l6.974,4.033V43.893Z" transform="translate(34.278 -39.83)" fill="#d98851"/>
          <path id="Trazado_139290" data-name="Trazado 139290" d="M49.12,45.294v2.972l7.126-4.124V41.17Z" transform="translate(34.177 -37.107)" fill="#f5bc6f"/>
          <path id="Trazado_139291" data-name="Trazado 139291" d="M38.86,60.481l.03,2.972L69.971,45.5V42.53Z" transform="translate(13.326 -34.343)" fill="#f5bc6f"/>
          <path id="Trazado_139292" data-name="Trazado 139292" d="M49.12,42.53V45.5L83.87,65.7V62.725Z" transform="translate(34.177 -34.343)" fill="#d98851"/>
          <path id="Trazado_139293" data-name="Trazado 139293" d="M36.52,52.544v3l7.126-4.124-.03-2.972Z" transform="translate(8.57 -22.312)" fill="#f5bc6f"/>
          <path id="Trazado_139294" data-name="Trazado 139294" d="M60.58,49.19v2.972l7.1,4.124-.03-3Z" transform="translate(57.467 -20.808)" fill="#d98851"/>
          <path id="Trazado_139295" data-name="Trazado 139295" d="M26.33,67.63l.03,3L57.229,52.8v-3Z" transform="translate(-12.139 -19.568)" fill="#f5bc6f"/>
          <path id="Trazado_139296" data-name="Trazado 139296" d="M36.52,49.8v3L71.27,73V70.025Z" transform="translate(8.57 -19.568)" fill="#d98851"/>
          <path id="Trazado_139297" data-name="Trazado 139297" d="M50.33,55.11v2.972L57.4,62.206V59.234Z" transform="translate(36.636 -8.777)" fill="#d98851"/>
          <path id="Trazado_139298" data-name="Trazado 139298" d="M52.66,68.521v2.972L83.771,53.542l-.03-3Z" transform="translate(41.371 -18.064)" fill="#f5bc6f"/>
          <path id="Trazado_139299" data-name="Trazado 139299" d="M88.476,53.284,81.411,49.19,50.33,67.141,57.4,71.265Z" transform="translate(36.636 -20.808)" fill="#ffd18d"/>
          <path id="Trazado_139300" data-name="Trazado 139300" d="M23.98,59.8v2.972l7.156-4.094-.03-3Z" transform="translate(-16.915 -7.618)" fill="#f5bc6f"/>
          <path id="Trazado_139301" data-name="Trazado 139301" d="M21.65,55.69v2.972l7.065,4.094V59.784Z" transform="translate(-21.65 -7.598)" fill="#d98851"/>
          <path id="Trazado_139302" data-name="Trazado 139302" d="M21.65,87.922l7.065,4.094,7.126-4.124,30.9-17.83,7.1-4.094,31.111-17.951,7.126-4.124L105.1,39.83,28.776,83.8Z" transform="translate(-21.65 -39.83)" fill="#ffd18d"/>
          <path id="Trazado_139303" data-name="Trazado 139303" d="M62.91,50.54l.03,3L97.9,73.858V70.887Z" transform="translate(62.202 -18.064)" fill="#d98851"/>
          <path id="Trazado_139304" data-name="Trazado 139304" d="M76.8,55.89v2.972l7.065,4.124V60.014Z" transform="translate(90.431 -7.192)" fill="#d98851"/>
          <path id="Trazado_139305" data-name="Trazado 139305" d="M47.98,56.47v2.972l7.065,4.094V60.564Z" transform="translate(31.86 -6.013)" fill="#d98851"/>
          <path id="Trazado_139306" data-name="Trazado 139306" d="M49.272,39.83l6.974,4.063L49.12,48.017,83.87,68.212l7.065,4.094,34.993,20.347,7.065,4.094,7.126-4.094-7.065-4.124Z" transform="translate(34.177 -39.83)" fill="#ffd18d"/>
          <path id="Trazado_139307" data-name="Trazado 139307" d="M74.45,57.25v2.972l7.065,4.094V61.344Z" transform="translate(85.655 -4.428)" fill="#d98851"/>
          <path id="Trazado_139308" data-name="Trazado 139308" d="M61.84,64.52v2.972l7.1,4.124V68.644Z" transform="translate(60.028 10.347)" fill="#d98851"/>
          <path id="Trazado_139309" data-name="Trazado 139309" d="M51.66,70.4v2.972L58.6,77.4l-.03-2.972Z" transform="translate(39.339 22.297)" fill="#d98851"/>
          <path id="Trazado_139310" data-name="Trazado 139310" d="M51.59,75.854v2.972L58.746,74.7l-.03-2.972Z" transform="translate(39.197 25)" fill="#f5bc6f"/>
          <path id="Trazado_139311" data-name="Trazado 139311" d="M51.59,105.281v2.972L135.1,60.222V57.25Z" transform="translate(39.197 -4.428)" fill="#f5bc6f"/>
          <path id="Trazado_139312" data-name="Trazado 139312" d="M76.78,61.344v2.972l7.126-4.094V57.25Z" transform="translate(90.39 -4.428)" fill="#f5bc6f"/>
          <path id="Trazado_139313" data-name="Trazado 139313" d="M40.13,75.65v2.972L71,60.792V57.82Z" transform="translate(15.907 -3.269)" fill="#f5bc6f"/>
          <path id="Trazado_139314" data-name="Trazado 139314" d="M68.689,56.47l-30.9,17.8,7.1,4.124,30.869-17.83Z" transform="translate(11.151 -6.013)" fill="#ffd18d"/>
          <path id="Trazado_139315" data-name="Trazado 139315" d="M37.79,62.34l.03,3,7.065,4.094V66.464Z" transform="translate(11.151 5.916)" fill="#d98851"/>
          <path id="Trazado_139316" data-name="Trazado 139316" d="M50.31,57.82v2.972L85.272,81.108V78.136Z" transform="translate(36.595 -3.269)" fill="#d98851"/>
          <path id="Trazado_139317" data-name="Trazado 139317" d="M64.19,63.17v2.972l7.1,4.094V67.264Z" transform="translate(64.803 7.603)" fill="#d98851"/>
          <path id="Trazado_139318" data-name="Trazado 139318" d="M36.52,52.544,71.27,72.769l7.065,4.094L113.3,97.179l7.1,4.124,7.126-4.124-7.1-4.094L85.461,72.769,78.4,68.645,43.616,48.45Z" transform="translate(8.57 -22.312)" fill="#ffd18d"/>
          <path id="Trazado_139319" data-name="Trazado 139319" d="M64.18,68.644v2.972l7.126-4.124V64.52Z" transform="translate(64.783 10.347)" fill="#f5bc6f"/>
          <path id="Trazado_139320" data-name="Trazado 139320" d="M65.856,75.875,31.106,55.68,23.98,59.8,107.7,108.472l7.126-4.124-6.914-4.033L72.951,80Z" transform="translate(-16.915 -7.618)" fill="#ffd18d"/>
          <path id="Trazado_139321" data-name="Trazado 139321" d="M23.98,57.04v2.972L107.7,108.68v-2.972Z" transform="translate(-16.915 -4.855)" fill="#d98851"/>
          <path id="Trazado_139322" data-name="Trazado 139322" d="M51.8,99.888l6.914,4.033-7.126,4.124L135.1,60.014l-7.065-4.124,7.065,4.124-7.126,4.094-7.065-4.094L89.8,77.965l7.1,4.094-7.126,4.124-7.1-4.124Z" transform="translate(39.197 -7.192)" fill="#ffd18d"/>
        </g>
      </g>
      <g id="Grupo_60969" data-name="Grupo 60969" transform="translate(41.825 56.188)">
        <g id="Grupo_60965" data-name="Grupo 60965">
          <path id="Trazado_139323" data-name="Trazado 139323" d="M25.761,39.594,21.91,37.35l.121,40.905L25.882,80.5Z" transform="translate(-21.91 -1.357)" fill="#444546"/>
          <path id="Trazado_139324" data-name="Trazado 139324" d="M88.135,27.724,84.254,25.48,21.91,61.473l3.851,2.244Z" transform="translate(-21.91 -25.48)" fill="#4c4d4e"/>
          <path id="Trazado_139325" data-name="Trazado 139325" d="M23.18,62.213l.121,40.905L85.645,67.125,85.554,26.22Z" transform="translate(-19.329 -23.976)" fill="#2f3031"/>
        </g>
        <g id="Grupo_60968" data-name="Grupo 60968" transform="translate(3.942 40.996)">
          <g id="Grupo_60966" data-name="Grupo 60966" transform="translate(51.094)">
            <path id="Trazado_139326" data-name="Trazado 139326" d="M130.754,94.206a18.014,18.014,0,0,0,3.032,1.365h.182a18.006,18.006,0,0,0,2.123.515l1.577.243h0a14.486,14.486,0,0,0,1.607,0h0a9.1,9.1,0,0,0,1.577,0h0a9.1,9.1,0,0,0,1.365-.3h.182a5.762,5.762,0,0,0,1.152-.515,3.032,3.032,0,0,0,1.819-2.729v2.214a3.245,3.245,0,0,1-1.819,2.759,6.7,6.7,0,0,1-.819.364,1.274,1.274,0,0,1-.364,0h-.182l-.637.152H137.7a10.526,10.526,0,0,1-1.365-.182h0a16.773,16.773,0,0,1-2.123-.546h0a18.014,18.014,0,0,1-3.032-1.365L40.21,43.294V41.05Z" transform="translate(-39.755 -34.834)" fill="#222122"/>
            <path id="Trazado_139327" data-name="Trazado 139327" d="M40.06,45.489l90.969,52.883a14.828,14.828,0,0,0,13.1,1.274c3.032-1.789,2.153-5.185-2.062-7.641L51.1,39Z" transform="translate(-40.06 -39)" fill="#383739"/>
          </g>
          <g id="Grupo_60967" data-name="Grupo 60967" transform="translate(0 29.595)">
            <path id="Trazado_139328" data-name="Trazado 139328" d="M114,104a17.194,17.194,0,0,0,3.032,1.395h.182a16.645,16.645,0,0,0,2.123.515,13.647,13.647,0,0,0,1.546.243h0a9.851,9.851,0,0,0,1.637,0h0a8.429,8.429,0,0,0,1.546,0h0a9.1,9.1,0,0,0,1.365-.3h0a6.881,6.881,0,0,0,1.183-.485,3.184,3.184,0,0,0,1.819-2.759v2.244a3.032,3.032,0,0,1-1.819,2.729,6.366,6.366,0,0,1-.788.394h-5.246l-1.365-.212h.212a18.192,18.192,0,0,1-2.123-.546h0a18.013,18.013,0,0,1-3.032-1.365L23.3,52.964V50.72Z" transform="translate(-23.027 -44.777)" fill="#222122"/>
            <path id="Trazado_139329" data-name="Trazado 139329" d="M23.21,55.1l90.969,52.883a14.919,14.919,0,0,0,13.1,1.3c3.032-1.819,2.123-5.216-2.092-7.672L34.217,48.76Z" transform="translate(-23.21 -48.76)" fill="#383739"/>
          </g>
        </g>
      </g>
      <g id="Grupo_60989" data-name="Grupo 60989" transform="translate(40.976 89.452)">
        <g id="Grupo_60979" data-name="Grupo 60979" transform="translate(0 1.819)">
          <g id="Grupo_60970" data-name="Grupo 60970" transform="translate(0 43.907)">
            <path id="Trazado_139330" data-name="Trazado 139330" d="M21.63,52.89V61.8l.061.03-.03-8.915Z" transform="translate(-21.63 -48.766)" fill="#d98851"/>
            <path id="Trazado_139331" data-name="Trazado 139331" d="M21.64,55.664l.03,8.915L28.8,60.455l-.03-8.915Z" transform="translate(-21.61 -51.51)" fill="#f5bc6f"/>
            <path id="Trazado_139332" data-name="Trazado 139332" d="M23.99,51.54l.03,8.915,7.065,4.124V55.664Z" transform="translate(-16.834 -51.51)" fill="#d98851"/>
            <path id="Trazado_139333" data-name="Trazado 139333" d="M23.98,56.994v8.945l7.126-4.124V52.9Z" transform="translate(-16.854 -48.746)" fill="#f5bc6f"/>
            <path id="Trazado_139334" data-name="Trazado 139334" d="M21.64,55.664l7.1,4.094,7.126-4.094-7.1-4.124Z" transform="translate(-21.61 -51.51)" fill="#ffd18d"/>
            <path id="Trazado_139335" data-name="Trazado 139335" d="M21.64,52.9l.03,8.915,7.065,4.124V56.994Z" transform="translate(-21.61 -48.746)" fill="#d98851"/>
            <path id="Trazado_139336" data-name="Trazado 139336" d="M23.98,56.994v8.945l7.126-4.124V52.9Z" transform="translate(-16.854 -48.746)" fill="#f5bc6f"/>
            <path id="Trazado_139337" data-name="Trazado 139337" d="M21.63,55.654l.03.03,7.126-4.124,7.1,4.124-7.126,4.094,7.126-4.094L28.756,51.53Z" transform="translate(-21.63 -51.53)" fill="#ffd18d"/>
          </g>
          <g id="Grupo_60971" data-name="Grupo 60971" transform="translate(41.876 68.256)">
            <path id="Trazado_139338" data-name="Trazado 139338" d="M35.44,60.91l.03,8.945,7.065,4.124-.03-8.945Z" transform="translate(-35.44 -56.816)" fill="#d98851"/>
            <path id="Trazado_139339" data-name="Trazado 139339" d="M37.77,65.034l.03,8.945,7.126-4.124L44.9,60.91Z" transform="translate(-30.705 -56.816)" fill="#f5bc6f"/>
            <path id="Trazado_139340" data-name="Trazado 139340" d="M35.44,63.654l7.065,4.124,7.126-4.124L42.566,59.56Z" transform="translate(-35.44 -59.56)" fill="#ffd18d"/>
          </g>
          <g id="Grupo_60972" data-name="Grupo 60972" transform="translate(83.903 92.697)">
            <path id="Trazado_139341" data-name="Trazado 139341" d="M49.3,68.97l.03,8.945,6.944,4L56.244,73Z" transform="translate(-49.3 -64.876)" fill="#d98851"/>
            <path id="Trazado_139342" data-name="Trazado 139342" d="M51.59,73.064l.03,8.915,7.126-4.094-.03-8.945Z" transform="translate(-44.646 -64.937)" fill="#f5bc6f"/>
            <path id="Trazado_139343" data-name="Trazado 139343" d="M49.3,71.714l6.944,4.033,7.126-4.124-6.914-4Z" transform="translate(-49.3 -67.62)" fill="#ffd18d"/>
          </g>
          <g id="Grupo_60973" data-name="Grupo 60973" transform="translate(79.87 46.303)">
            <path id="Trazado_139344" data-name="Trazado 139344" d="M47.97,53.68,48,62.595l7.065,4.124-.03-8.945Z" transform="translate(-47.97 -49.556)" fill="#d98851"/>
            <path id="Trazado_139345" data-name="Trazado 139345" d="M50.3,57.774l.03,8.945,7.126-4.124V53.68Z" transform="translate(-43.235 -49.556)" fill="#f5bc6f"/>
            <path id="Trazado_139346" data-name="Trazado 139346" d="M47.97,56.444l7.065,4.094,7.156-4.094L55.1,52.32Z" transform="translate(-47.97 -52.32)" fill="#ffd18d"/>
          </g>
          <g id="Grupo_60974" data-name="Grupo 60974" transform="translate(121.928 70.743)">
            <path id="Trazado_139347" data-name="Trazado 139347" d="M61.84,61.74l.03,8.915,7.065,4.124-.03-8.945Z" transform="translate(-61.84 -57.616)" fill="#d98851"/>
            <path id="Trazado_139348" data-name="Trazado 139348" d="M64.17,65.834l.03,8.945,7.126-4.124L71.3,61.74Z" transform="translate(-57.105 -57.616)" fill="#f5bc6f"/>
            <path id="Trazado_139349" data-name="Trazado 139349" d="M61.84,64.5,68.905,68.6,76.031,64.5,68.966,60.38Z" transform="translate(-61.84 -60.38)" fill="#ffd18d"/>
          </g>
          <g id="Grupo_60975" data-name="Grupo 60975" transform="translate(118.108 24.228)">
            <path id="Trazado_139350" data-name="Trazado 139350" d="M60.58,46.4v8.915l7.1,4.124-.03-8.915Z" transform="translate(-60.58 -42.276)" fill="#d98851"/>
            <path id="Trazado_139351" data-name="Trazado 139351" d="M62.91,50.524l.03,8.915,7.126-4.124-.03-8.915Z" transform="translate(-55.845 -42.276)" fill="#f5bc6f"/>
            <path id="Trazado_139352" data-name="Trazado 139352" d="M60.58,49.164l7.065,4.124,7.126-4.124L67.706,45.04Z" transform="translate(-60.58 -45.04)" fill="#ffd18d"/>
          </g>
          <g id="Grupo_60976" data-name="Grupo 60976" transform="translate(160.135 48.668)">
            <path id="Trazado_139353" data-name="Trazado 139353" d="M74.44,54.46l.03,8.915,7.1,4.124-.03-8.945Z" transform="translate(-74.44 -50.336)" fill="#d98851"/>
            <path id="Trazado_139354" data-name="Trazado 139354" d="M76.78,58.554l.03,8.945,7.126-4.124-.03-8.915Z" transform="translate(-69.684 -50.336)" fill="#f5bc6f"/>
            <path id="Trazado_139355" data-name="Trazado 139355" d="M74.44,57.224l7.1,4.094,7.126-4.094-7.1-4.124Z" transform="translate(-74.44 -53.1)" fill="#ffd18d"/>
          </g>
          <g id="Grupo_60977" data-name="Grupo 60977" transform="translate(76.383)">
            <path id="Trazado_139356" data-name="Trazado 139356" d="M46.82,38.4l.03,8.945,6.944,4.063V42.463Z" transform="translate(-46.82 -34.306)" fill="#d98851"/>
            <path id="Trazado_139357" data-name="Trazado 139357" d="M49.12,42.5v8.945l7.126-4.124V38.38Z" transform="translate(-42.146 -34.347)" fill="#f5bc6f"/>
            <path id="Trazado_139358" data-name="Trazado 139358" d="M46.82,41.144l6.974,4.063,7.126-4.124L53.946,37.05Z" transform="translate(-46.82 -37.05)" fill="#ffd18d"/>
          </g>
          <g id="Grupo_60978" data-name="Grupo 60978" transform="translate(38.146 22.045)">
            <path id="Trazado_139359" data-name="Trazado 139359" d="M34.21,45.68l.03,8.945,6.974,4.033-.03-8.915Z" transform="translate(-34.21 -41.556)" fill="#d98851"/>
            <path id="Trazado_139360" data-name="Trazado 139360" d="M36.51,49.784l.03,8.915,7.126-4.124-.03-8.915Z" transform="translate(-29.536 -41.597)" fill="#f5bc6f"/>
            <path id="Trazado_139361" data-name="Trazado 139361" d="M34.21,48.444l6.974,4.063,7.126-4.124L41.336,44.32Z" transform="translate(-34.21 -44.32)" fill="#ffd18d"/>
          </g>
        </g>
        <g id="Grupo_60982" data-name="Grupo 60982" transform="translate(0 0.212)">
          <g id="Grupo_60980" data-name="Grupo 60980" transform="translate(0 43.907)">
            <path id="Trazado_139362" data-name="Trazado 139362" d="M21.63,52.36v2.972l.061.03V52.39Z" transform="translate(-21.63 -48.236)" fill="#d98851"/>
            <path id="Trazado_139363" data-name="Trazado 139363" d="M21.65,55.114v2.972l7.126-4.094V51.02Z" transform="translate(-21.589 -50.959)" fill="#f5bc6f"/>
            <path id="Trazado_139364" data-name="Trazado 139364" d="M28.756,51,21.63,55.124l.061.03,7.126-4.094Z" transform="translate(-21.63 -51)" fill="#ffd18d"/>
          </g>
          <g id="Grupo_60981" data-name="Grupo 60981" transform="translate(0.061)">
            <path id="Trazado_139365" data-name="Trazado 139365" d="M49.17,36.52v2.972l6.974,4.063V40.583Z" transform="translate(34.278 -36.52)" fill="#d98851"/>
            <path id="Trazado_139366" data-name="Trazado 139366" d="M49.12,41.984v2.972l7.126-4.124V37.86Z" transform="translate(34.177 -33.797)" fill="#f5bc6f"/>
            <path id="Trazado_139367" data-name="Trazado 139367" d="M38.86,57.171l.03,2.972L69.971,42.192V39.22Z" transform="translate(13.326 -31.033)" fill="#f5bc6f"/>
            <path id="Trazado_139368" data-name="Trazado 139368" d="M49.12,39.22v2.972L83.87,62.387V59.415Z" transform="translate(34.177 -31.033)" fill="#d98851"/>
            <path id="Trazado_139369" data-name="Trazado 139369" d="M36.52,49.234v2.972l7.126-4.094-.03-2.972Z" transform="translate(8.57 -19.002)" fill="#f5bc6f"/>
            <path id="Trazado_139370" data-name="Trazado 139370" d="M60.58,45.88v2.972l7.1,4.094-.03-2.972Z" transform="translate(57.467 -17.498)" fill="#d98851"/>
            <path id="Trazado_139371" data-name="Trazado 139371" d="M26.33,64.32l.03,2.972,30.869-17.83V46.49Z" transform="translate(-12.139 -16.258)" fill="#f5bc6f"/>
            <path id="Trazado_139372" data-name="Trazado 139372" d="M36.52,46.49v2.972L71.27,69.657V66.685Z" transform="translate(8.57 -16.258)" fill="#d98851"/>
            <path id="Trazado_139373" data-name="Trazado 139373" d="M50.33,51.8v2.972L57.4,58.865V55.894Z" transform="translate(36.636 -5.467)" fill="#d98851"/>
            <path id="Trazado_139374" data-name="Trazado 139374" d="M52.66,65.181v2.972L83.771,50.2l-.03-2.972Z" transform="translate(41.371 -14.754)" fill="#f5bc6f"/>
            <path id="Trazado_139375" data-name="Trazado 139375" d="M88.476,49.974,81.411,45.88,50.33,63.831,57.4,67.925Z" transform="translate(36.636 -17.498)" fill="#ffd18d"/>
            <path id="Trazado_139376" data-name="Trazado 139376" d="M23.98,56.494v2.972l7.156-4.124-.03-2.972Z" transform="translate(-16.915 -4.308)" fill="#f5bc6f"/>
            <path id="Trazado_139377" data-name="Trazado 139377" d="M21.65,52.37v2.972l7.065,4.124V56.494Z" transform="translate(-21.65 -4.308)" fill="#d98851"/>
            <path id="Trazado_139378" data-name="Trazado 139378" d="M21.65,84.582l7.065,4.124,7.126-4.124,30.9-17.83,7.1-4.094,31.111-17.951,7.126-4.124L105.1,36.52,28.776,80.488Z" transform="translate(-21.65 -36.52)" fill="#ffd18d"/>
            <path id="Trazado_139379" data-name="Trazado 139379" d="M62.91,47.23l.03,2.972L97.9,70.518V67.546Z" transform="translate(62.202 -14.754)" fill="#d98851"/>
            <path id="Trazado_139380" data-name="Trazado 139380" d="M76.8,52.58v2.972l7.065,4.094V56.674Z" transform="translate(90.431 -3.882)" fill="#d98851"/>
            <path id="Trazado_139381" data-name="Trazado 139381" d="M47.98,53.15v2.972l7.065,4.124V57.274Z" transform="translate(31.86 -2.723)" fill="#d98851"/>
            <path id="Trazado_139382" data-name="Trazado 139382" d="M49.272,36.52l6.974,4.063L49.12,44.707,83.87,64.9,90.935,69l34.993,20.316,7.065,4.124,7.126-4.124-7.065-4.094Z" transform="translate(34.177 -36.52)" fill="#ffd18d"/>
            <path id="Trazado_139383" data-name="Trazado 139383" d="M74.45,53.93V56.9l7.065,4.124V58.054Z" transform="translate(85.655 -1.138)" fill="#d98851"/>
            <path id="Trazado_139384" data-name="Trazado 139384" d="M61.84,61.21v2.972l7.1,4.124V65.334Z" transform="translate(60.028 13.657)" fill="#d98851"/>
            <path id="Trazado_139385" data-name="Trazado 139385" d="M51.66,67.09v2.972L58.6,74.095l-.03-2.972Z" transform="translate(39.339 25.607)" fill="#d98851"/>
            <path id="Trazado_139386" data-name="Trazado 139386" d="M51.59,72.514v2.972l7.156-4.094-.03-2.972Z" transform="translate(39.197 28.31)" fill="#f5bc6f"/>
            <path id="Trazado_139387" data-name="Trazado 139387" d="M51.59,101.961v2.972L135.1,56.9V53.93Z" transform="translate(39.197 -1.138)" fill="#f5bc6f"/>
            <path id="Trazado_139388" data-name="Trazado 139388" d="M76.78,58.054v2.972L83.906,56.9V53.93Z" transform="translate(90.39 -1.138)" fill="#f5bc6f"/>
            <path id="Trazado_139389" data-name="Trazado 139389" d="M40.13,72.34v2.972L71,57.482V54.51Z" transform="translate(15.907 0.041)" fill="#f5bc6f"/>
            <path id="Trazado_139390" data-name="Trazado 139390" d="M68.689,53.15,37.79,70.98l7.1,4.124,30.869-17.83Z" transform="translate(11.151 -2.723)" fill="#ffd18d"/>
            <path id="Trazado_139391" data-name="Trazado 139391" d="M37.79,59.03,37.82,62l7.065,4.124V63.154Z" transform="translate(11.151 9.226)" fill="#d98851"/>
            <path id="Trazado_139392" data-name="Trazado 139392" d="M50.31,54.51v2.972L85.272,77.8V74.826Z" transform="translate(36.595 0.041)" fill="#d98851"/>
            <path id="Trazado_139393" data-name="Trazado 139393" d="M64.19,59.85v3l7.1,4.094V63.974Z" transform="translate(64.803 10.893)" fill="#d98851"/>
            <path id="Trazado_139394" data-name="Trazado 139394" d="M36.52,49.234,71.27,69.429l7.065,4.124L113.3,93.869l7.1,4.124,7.126-4.124-7.1-4.124L85.461,69.429,78.4,65.335,43.616,45.14Z" transform="translate(8.57 -19.002)" fill="#ffd18d"/>
            <path id="Trazado_139395" data-name="Trazado 139395" d="M64.18,65.334v2.972l7.126-4.124V61.21Z" transform="translate(64.783 13.657)" fill="#f5bc6f"/>
            <path id="Trazado_139396" data-name="Trazado 139396" d="M65.856,72.565,31.106,52.37,23.98,56.494,107.7,105.132l7.126-4.094-6.914-4.033L72.951,76.689Z" transform="translate(-16.915 -4.308)" fill="#ffd18d"/>
            <path id="Trazado_139397" data-name="Trazado 139397" d="M23.98,53.73V56.7L107.7,105.339v-2.972Z" transform="translate(-16.915 -1.545)" fill="#d98851"/>
            <path id="Trazado_139398" data-name="Trazado 139398" d="M51.8,96.578l6.914,4.033L51.59,104.7,135.1,56.674l-7.065-4.094,7.065,4.094L127.973,60.8l-7.065-4.124L89.8,74.625l7.1,4.124-7.126,4.124-7.1-4.124Z" transform="translate(39.197 -3.882)" fill="#ffd18d"/>
          </g>
        </g>
        <g id="Grupo_60988" data-name="Grupo 60988" transform="translate(0.03)">
          <g id="Grupo_60983" data-name="Grupo 60983" transform="translate(68.226)">
            <path id="Trazado_139399" data-name="Trazado 139399" d="M44.14,39.33v1.486L135.109,93.7V92.183Z" transform="translate(-44.14 -30.597)" fill="#d98851"/>
            <path id="Trazado_139400" data-name="Trazado 139400" d="M74.14,62.593v1.516l15.1-8.733V53.89Z" transform="translate(16.829 -1.007)" fill="#f5bc6f"/>
            <path id="Trazado_139401" data-name="Trazado 139401" d="M44.14,45.183l90.969,52.853,15.1-8.7L59.271,36.45Z" transform="translate(-44.14 -36.45)" fill="#ffd18d"/>
          </g>
          <g id="Grupo_60984" data-name="Grupo 60984" transform="translate(51.185 9.855)">
            <path id="Trazado_139402" data-name="Trazado 139402" d="M38.52,42.58v1.486l90.938,52.853V95.433Z" transform="translate(-38.52 -33.847)" fill="#d98851"/>
            <path id="Trazado_139403" data-name="Trazado 139403" d="M68.51,65.863v1.486l15.131-8.7V57.13Z" transform="translate(22.428 -4.277)" fill="#f5bc6f"/>
            <path id="Trazado_139404" data-name="Trazado 139404" d="M38.52,48.433l90.938,52.853,15.131-8.733L53.621,39.7Z" transform="translate(-38.52 -39.7)" fill="#ffd18d"/>
          </g>
          <g id="Grupo_60985" data-name="Grupo 60985" transform="translate(34.113 19.71)">
            <path id="Trazado_139405" data-name="Trazado 139405" d="M32.89,45.83v1.486l90.969,52.853-.03-1.486Z" transform="translate(-32.89 -37.097)" fill="#d98851"/>
            <path id="Trazado_139406" data-name="Trazado 139406" d="M62.88,69.113l.03,1.486,15.1-8.733V60.38Z" transform="translate(28.058 -7.527)" fill="#f5bc6f"/>
            <path id="Trazado_139407" data-name="Trazado 139407" d="M32.89,51.683l90.938,52.853L138.959,95.8,48.021,42.95Z" transform="translate(-32.89 -42.95)" fill="#ffd18d"/>
          </g>
          <g id="Grupo_60986" data-name="Grupo 60986" transform="translate(17.041 29.565)">
            <path id="Trazado_139408" data-name="Trazado 139408" d="M27.26,49.08l.03,1.486,90.938,52.853v-1.486Z" transform="translate(-27.26 -40.347)" fill="#d98851"/>
            <path id="Trazado_139409" data-name="Trazado 139409" d="M57.26,72.363v1.486l15.131-8.733-.03-1.486Z" transform="translate(33.709 -10.777)" fill="#f5bc6f"/>
            <path id="Trazado_139410" data-name="Trazado 139410" d="M27.26,54.933l90.969,52.853,15.1-8.733L42.391,46.2Z" transform="translate(-27.26 -46.2)" fill="#ffd18d"/>
          </g>
          <g id="Grupo_60987" data-name="Grupo 60987" transform="translate(0 39.42)">
            <path id="Trazado_139411" data-name="Trazado 139411" d="M21.64,52.33v1.486l90.938,52.853v-1.486Z" transform="translate(-21.64 -43.597)" fill="#d98851"/>
            <path id="Trazado_139412" data-name="Trazado 139412" d="M51.63,75.613V77.1l15.131-8.733V66.88Z" transform="translate(39.308 -14.027)" fill="#f5bc6f"/>
            <path id="Trazado_139413" data-name="Trazado 139413" d="M21.64,58.183l90.938,52.853,15.131-8.733L36.741,49.45Z" transform="translate(-21.64 -49.45)" fill="#ffd18d"/>
          </g>
        </g>
      </g>
      <g id="Grupo_61003" data-name="Grupo 61003" transform="translate(77.636 60.16)">
        <g id="Grupo_61000" data-name="Grupo 61000">
          <g id="Grupo_60990" data-name="Grupo 60990">
            <path id="Trazado_139414" data-name="Trazado 139414" d="M103.982,36.88l-.152,57.825L51.19,125.271l.182-57.8Z" transform="translate(1.784 -6.284)" fill="#ffcf7a"/>
            <path id="Trazado_139415" data-name="Trazado 139415" d="M86.876,67.476l-.182,57.8L33.72,94.705,33.9,36.88Z" transform="translate(-33.72 -6.284)" fill="#e8ae69"/>
            <path id="Trazado_139416" data-name="Trazado 139416" d="M139.364,57.386l-52.61,30.6L33.78,57.386l52.61-30.6Z" transform="translate(-33.598 -26.79)" fill="#fcd495"/>
          </g>
          <g id="Grupo_60998" data-name="Grupo 60998" transform="translate(4.17 78.718)">
            <g id="Grupo_60992" data-name="Grupo 60992" transform="translate(9.809 3.79)">
              <path id="Trazado_139417" data-name="Trazado 139417" d="M40.362,60.337h0A4.457,4.457,0,0,1,38.33,56.85V54l4.063,2.365v2.79C42.484,60.459,41.6,60.974,40.362,60.337Z" transform="translate(-38.33 -54)" fill="#bc896d"/>
              <g id="Grupo_60991" data-name="Grupo 60991" transform="translate(0.121 4.639)">
                <path id="Trazado_139418" data-name="Trazado 139418" d="M39.192,61.17a.394.394,0,0,1-.182-.3V55.53h.182a.364.364,0,0,1,0,.3V61.14S39.283,61.2,39.192,61.17Z" transform="translate(-37.069 -55.53)" fill="#bc896d"/>
                <path id="Trazado_139419" data-name="Trazado 139419" d="M42.464,59.538,38.522,57.2a.364.364,0,0,1-.152-.3h.152l3.942,2.274a.364.364,0,0,1,.152.273S42.555,59.6,42.464,59.538Z" transform="translate(-38.37 -52.746)" fill="#bc896d"/>
              </g>
            </g>
            <g id="Grupo_60993" data-name="Grupo 60993" transform="translate(16.146 8.76)">
              <path id="Trazado_139420" data-name="Trazado 139420" d="M41.39,58.189a1.061,1.061,0,0,0-.97,0c0-2.3,1.759-3.214,3.821-2.032a8.43,8.43,0,0,1,3.821,6.58,3.032,3.032,0,0,0-1.092-1.183c-.606-.364-1.152-.243-1.395.243a3.335,3.335,0,0,0-1.395-1.85c-.606-.364-1.152-.243-1.395.243A3.336,3.336,0,0,0,41.39,58.189Z" transform="translate(-40.42 -55.639)" fill="#bc896d"/>
              <path id="Trazado_139421" data-name="Trazado 139421" d="M41.735,62.521l-.667-.394a.364.364,0,0,1,0-.273h0l.667.364a.675.675,0,0,0,1.092-.606V56.76h0a.333.333,0,0,1,.182.273v4.761C43.16,62.612,42.523,62.946,41.735,62.521Z" transform="translate(-39.157 -53.361)" fill="#bc896d"/>
            </g>
            <g id="Grupo_60997" data-name="Grupo 60997">
              <g id="Grupo_60994" data-name="Grupo 60994" transform="translate(0 2.881)">
                <path id="Trazado_139422" data-name="Trazado 139422" d="M37.839,56.763l-.455-2.608-2-.455.425.515-.667.94a.455.455,0,0,0,0,.394l1,2.517,1.274-1.819Z" transform="translate(-35.095 -53.7)" fill="#bc896d"/>
                <path id="Trazado_139423" data-name="Trazado 139423" d="M36.642,54.72,35.55,56.236l2.577,1.516V55.6Z" transform="translate(-34.171 -51.627)" fill="#bc896d"/>
              </g>
              <g id="Grupo_60995" data-name="Grupo 60995" transform="translate(4.654 5.974)">
                <path id="Trazado_139424" data-name="Trazado 139424" d="M38.146,55.816V55.24L36.63,56l1.516,2.517v-.546l1.334.758h.3l.97-1.395Z" transform="translate(-36.63 -53.663)" fill="#bc896d"/>
                <path id="Trazado_139425" data-name="Trazado 139425" d="M39.951,58.086l-1.3-3.366-1.607.152.728,1.941Z" transform="translate(-35.797 -54.72)" fill="#bc896d"/>
              </g>
              <g id="Grupo_60996" data-name="Grupo 60996" transform="translate(1.925)">
                <path id="Trazado_139426" data-name="Trazado 139426" d="M39.141,55.964l-.637-1.7a.728.728,0,0,0-.3-.364L36.26,52.78l1.274,3.336h-.425l2,1.85L39.6,55.9Z" transform="translate(-34.653 -52.689)" fill="#bc896d"/>
                <path id="Trazado_139427" data-name="Trazado 139427" d="M37.034,52.75l-1.3,1.819,1.607,2,.788-1.061Z" transform="translate(-35.73 -52.75)" fill="#bc896d"/>
              </g>
            </g>
          </g>
          <g id="Grupo_60999" data-name="Grupo 60999" transform="translate(25.259 13.585)">
            <path id="Trazado_139428" data-name="Trazado 139428" d="M99.239,61.9,95.358,64.14,42.05,33.484l3.881-2.214Z" transform="translate(-42.05 -31.27)" fill="#cf9975"/>
            <path id="Trazado_139429" data-name="Trazado 139429" d="M63.511,50.315,59.63,52.559V43.614l3.881-2.244Z" transform="translate(-6.322 -10.744)" fill="#cf9975"/>
          </g>
        </g>
        <g id="Grupo_61002" data-name="Grupo 61002" transform="translate(58.705 53.641)">
          <path id="Trazado_139430" data-name="Trazado 139430" d="M68.3,60.369,53.08,69.163V53.274L68.3,44.48Z" transform="translate(-53.08 -44.48)" fill="#f1f2f2"/>
          <g id="Grupo_61001" data-name="Grupo 61001" transform="translate(1.728 2.729)">
            <path id="Trazado_139431" data-name="Trazado 139431" d="M58.209,50.232l-.819.455V45.865l.819-.485Z" transform="translate(-46.049 -45.38)" fill="#6d6e71"/>
            <path id="Trazado_139432" data-name="Trazado 139432" d="M57.679,50.542,56.86,51V46.145l.819-.455Z" transform="translate(-47.126 -44.75)" fill="#6d6e71"/>
            <path id="Trazado_139433" data-name="Trazado 139433" d="M57.149,50.821l-.819.485V46.455L57.149,46Z" transform="translate(-48.203 -44.12)" fill="#6d6e71"/>
            <path id="Trazado_139434" data-name="Trazado 139434" d="M56.619,52.092l-.819.455V46.785l.819-.485Z" transform="translate(-49.281 -43.51)" fill="#6d6e71"/>
            <path id="Trazado_139435" data-name="Trazado 139435" d="M56.089,51.462l-.819.455V47.065l.819-.455Z" transform="translate(-50.358 -42.88)" fill="#6d6e71"/>
            <path id="Trazado_139436" data-name="Trazado 139436" d="M55.559,51.741l-.819.485V47.375l.819-.455Z" transform="translate(-51.435 -42.25)" fill="#6d6e71"/>
            <path id="Trazado_139437" data-name="Trazado 139437" d="M55.029,52.981l-.819.485V47.705l.819-.485Z" transform="translate(-52.512 -41.641)" fill="#6d6e71"/>
            <path id="Trazado_139438" data-name="Trazado 139438" d="M54.5,52.382l-.819.455V47.985l.819-.455Z" transform="translate(-53.589 -41.011)" fill="#6d6e71"/>
            <path id="Trazado_139439" data-name="Trazado 139439" d="M65.9,49.585l-12.25,7.1v-.455l12.25-7.1Z" transform="translate(-53.65 -37.759)" fill="#6d6e71"/>
            <path id="Trazado_139440" data-name="Trazado 139440" d="M65.9,48.975l-12.25,7.1v-.455l12.25-7.1Z" transform="translate(-53.65 -38.999)" fill="#6d6e71"/>
            <path id="Trazado_139441" data-name="Trazado 139441" d="M65.9,48.4,53.65,55.46v-.455l12.25-7.1Z" transform="translate(-53.65 -40.238)" fill="#6d6e71"/>
          </g>
        </g>
      </g>
    </g>
  </g>
</svg>
