<svg xmlns="http://www.w3.org/2000/svg" width="708" height="345" viewBox="0 0 708 345">
  <g id="Grupo_61696" data-name="Grupo 61696" transform="translate(-700 -4847)">
    <rect id="Rectángulo_30533" data-name="Rectángulo 30533" width="708" height="345" rx="18" transform="translate(700 4847)" fill="#f2f6fe"/>
    <g id="carretillas-01" transform="translate(740.841 4965)">
      <path id="Trazado_144480" data-name="Trazado 144480" d="M128.753,26.76a2.34,2.34,0,0,0-3.313.29l-18.631,22.2a5.926,5.926,0,0,0-1.383,3.791V188.719a3.142,3.142,0,0,1-3.142,3.159H13.637a2.357,2.357,0,1,0,0,4.713h21.62l-8.112,14.037a1.247,1.247,0,0,0,2.152,1.247l8.829-15.25H107a3.142,3.142,0,0,0,3.159-3.142V54.715a5.823,5.823,0,0,1,1.4-3.791l17.487-20.851a2.34,2.34,0,0,0-.29-3.313Z" transform="translate(-11.28 -9.563)" fill="#db4d4d"/>
      <rect id="Rectángulo_38147" data-name="Rectángulo 38147" width="89.655" height="92.882" transform="translate(4.44 89.381)" fill="#eeb584"/>
      <rect id="Rectángulo_38148" data-name="Rectángulo 38148" width="78.521" height="76.471" transform="translate(9.649 97.322)" fill="#d1986f"/>
      <path id="Trazado_144481" data-name="Trazado 144481" d="M18.809,155.571l-2.869-6.438,79.033-77.8,2.869,6.455Z" transform="translate(-7.982 22.372)" fill="#eeb584"/>
      <path id="Trazado_144482" data-name="Trazado 144482" d="M94.973,154.724l2.869-6.438L18.809,70.5,15.94,76.938Z" transform="translate(-7.982 21.784)" fill="#eeb584"/>
      <ellipse id="Elipse_4611" data-name="Elipse 4611" cx="15.147" cy="15.147" rx="15.147" ry="15.147" transform="translate(80.945 172.581)" fill="#403a49"/>
      <ellipse id="Elipse_4612" data-name="Elipse 4612" cx="10.024" cy="10.024" rx="10.024" ry="10.024" transform="translate(86.069 177.704)" fill="#e9e4e0"/>
      <rect id="Rectángulo_38149" data-name="Rectángulo 38149" width="86.273" height="89.381" transform="translate(6.131 0)" fill="#e8a879"/>
      <rect id="Rectángulo_38150" data-name="Rectángulo 38150" width="75.549" height="73.585" transform="translate(11.134 7.633)" fill="#d1986f"/>
      <rect id="Rectángulo_38151" data-name="Rectángulo 38151" width="19.451" height="7.668" transform="translate(63.39 67.403)" fill="#f4ebe3"/>
      <path id="Trazado_144483" data-name="Trazado 144483" d="M19.616,99.948l-2.766-6.2L92.894,18.9l2.766,6.182Z" transform="translate(-7.338 -14.733)" fill="#e8a879"/>
    </g>
    <g id="carretillas-02" transform="translate(1175.393 4991.751)">
      <path id="Trazado_144484" data-name="Trazado 144484" d="M50.014,46.1a14.7,14.7,0,1,1-14.7,14.7A14.7,14.7,0,0,1,50.014,46.1Z" transform="translate(9.202 100.616)" fill="#363543"/>
      <path id="Trazado_144485" data-name="Trazado 144485" d="M46.156,47.25a9.759,9.759,0,1,1-9.716,9.716,9.759,9.759,0,0,1,9.716-9.716Z" transform="translate(13.06 104.454)" fill="#647b92"/>
      <path id="Trazado_144486" data-name="Trazado 144486" d="M43.147,51.386A2.516,2.516,0,1,1,40.632,49a2.516,2.516,0,0,1,2.516,2.386Z" transform="translate(18.584 110.295)" fill="#363543"/>
      <path id="Trazado_144487" data-name="Trazado 144487" d="M24.174,46.1A14.7,14.7,0,1,1,9.47,60.8a14.7,14.7,0,0,1,14.7-14.7Z" transform="translate(147.123 100.616)" fill="#363543"/>
      <path id="Trazado_144488" data-name="Trazado 144488" d="M20.316,47.25A9.759,9.759,0,1,1,10.6,56.966a9.759,9.759,0,0,1,9.716-9.716Z" transform="translate(150.981 104.454)" fill="#647b92"/>
      <path id="Trazado_144489" data-name="Trazado 144489" d="M17.312,51.486A2.516,2.516,0,1,1,14.8,48.97a2.516,2.516,0,0,1,2.516,2.516Z" transform="translate(156.501 110.194)" fill="#363543"/>
      <path id="Trazado_144490" data-name="Trazado 144490" d="M207.37,159.077H30.921V15.94A3.687,3.687,0,0,0,27.277,12.3H8.886a3.687,3.687,0,1,0,0,7.33H23.677V162.895a3.687,3.687,0,0,0,3.687,3.687H207.37a3.687,3.687,0,1,0,0-7.374Z" transform="translate(-4.8 -12.275)" fill="#363543"/>
      <rect id="Rectángulo_38152" data-name="Rectángulo 38152" width="98.852" height="61.809" transform="translate(42.56 84.95)" fill="#326880"/>
      <rect id="Rectángulo_38153" data-name="Rectángulo 38153" width="19.172" height="4.684" transform="translate(107.548 97.511) rotate(-2.26)" fill="#f4ebe3"/>
      <rect id="Rectángulo_38154" data-name="Rectángulo 38154" width="6.55" height="61.809" transform="translate(87.8 84.95)" fill="#cd8967"/>
      <rect id="Rectángulo_38155" data-name="Rectángulo 38155" width="98.852" height="61.809" transform="translate(34.709 23.01)" fill="#326880"/>
      <rect id="Rectángulo_38156" data-name="Rectángulo 38156" width="98.852" height="2.602" transform="translate(34.709 82.174)" fill="#2f5569"/>
      <rect id="Rectángulo_38157" data-name="Rectángulo 38157" width="19.172" height="4.685" transform="matrix(0.999, 0.04, -0.04, 0.999, 105.787, 30.947)" fill="#f4ebe3"/>
      <rect id="Rectángulo_38158" data-name="Rectángulo 38158" width="6.55" height="61.809" transform="translate(79.949 23.01)" fill="#cd8967"/>
    </g>
    <g id="carretillas-03" transform="translate(885.392 4973.544)">
      <rect id="Rectángulo_38159" data-name="Rectángulo 38159" width="125.562" height="29.792" transform="translate(93.847 135.253)" fill="#db4d4d"/>
      <rect id="Rectángulo_38160" data-name="Rectángulo 38160" width="5.095" height="12.308" transform="translate(125.218 135.253)" fill="#fff" opacity="0.4"/>
      <rect id="Rectángulo_38161" data-name="Rectángulo 38161" width="5.095" height="12.308" transform="translate(183.243 135.253)" fill="#fff" opacity="0.4"/>
      <rect id="Rectángulo_38162" data-name="Rectángulo 38162" width="16.504" height="7.453" transform="translate(199.069 154.934)" fill="#fff" opacity="0.7"/>
      <path id="Trazado_144491" data-name="Trazado 144491" d="M28.2,19.91H12.8a2.618,2.618,0,0,0-2.6,2.618v124.5h4V26.324a2.618,2.618,0,0,1,2.6-2.618H28.283a1.9,1.9,0,1,0,0-3.8Z" transform="translate(-1.473 -9.76)" fill="#3e3947"/>
      <path id="Trazado_144492" data-name="Trazado 144492" d="M10.2,78.44h.32A19.981,19.981,0,0,1,30.5,98.421v25.1H10.2Z" transform="translate(-1.473 48.66)" fill="#748ccf"/>
      <path id="Trazado_144493" data-name="Trazado 144493" d="M131.708,116.395a8.692,8.692,0,1,1-2.338-11.989,8.692,8.692,0,0,1,2.338,11.989Z" transform="translate(103.906 73.067)" fill="#3e3947"/>
      <rect id="Rectángulo_38163" data-name="Rectángulo 38163" width="253.302" height="14.187" rx="3.49" transform="translate(10.466 165.045)" fill="#748ccf"/>
      <path id="Trazado_144494" data-name="Trazado 144494" d="M37.638,121.754a17.364,17.364,0,1,1,2.651-13.032,17.384,17.384,0,0,1-2.651,13.032Z" transform="translate(-5.832 64.85)" fill="#3e3947"/>
      <path id="Trazado_144495" data-name="Trazado 144495" d="M18.073,99.8A7.133,7.133,0,1,1,11,106.913,7.133,7.133,0,0,1,18.073,99.8Z" transform="translate(-0.674 69.98)" fill="#faf3e9"/>
      <path id="Trazado_144496" data-name="Trazado 144496" d="M140.851,116.88a8.692,8.692,0,1,1-2.358-11.989A8.692,8.692,0,0,1,140.851,116.88Z" transform="translate(113.026 73.56)" fill="#3e3947"/>
      <path id="Trazado_144497" data-name="Trazado 144497" d="M131.057,105.64a3.537,3.537,0,1,1-2.521,1.036A3.557,3.557,0,0,1,131.057,105.64Z" transform="translate(115.607 75.809)" fill="#faf3e9"/>
      <rect id="Rectángulo_38164" data-name="Rectángulo 38164" width="4.276" height="24.817" rx="1.05" transform="matrix(0.664, -0.748, 0.748, 0.664, 227.997, 171.231)" fill="#748ccf"/>
      <path id="Trazado_144498" data-name="Trazado 144498" d="M11.369,91.436h-2a5.535,5.535,0,0,1-.38-2.2,6.154,6.154,0,0,1,.38-2h2a2,2,0,0,1,2,2.1h0a2,2,0,0,1-2,2.1Z" transform="translate(-2.682 57.444)" fill="#3e3947"/>
      <rect id="Rectángulo_38165" data-name="Rectángulo 38165" width="83.402" height="82.522" transform="translate(32.785 82.522)" fill="#eeb584"/>
      <rect id="Rectángulo_38166" data-name="Rectángulo 38166" width="73.031" height="67.936" transform="translate(37.62 89.576)" fill="#cd8967"/>
      <rect id="Rectángulo_38167" data-name="Rectángulo 38167" width="1.179" height="70.653" transform="translate(53.625 88.557)" fill="#eeb584"/>
      <rect id="Rectángulo_38168" data-name="Rectángulo 38168" width="1.179" height="70.653" transform="translate(73.986 88.217)" fill="#eeb584"/>
      <rect id="Rectángulo_38169" data-name="Rectángulo 38169" width="1.179" height="70.653" transform="translate(92.669 88.217)" fill="#eeb584"/>
      <path id="Trazado_144499" data-name="Trazado 144499" d="M25.928,135.666l-2.5-5.775L99.279,57.06l2.5,5.755Z" transform="translate(11.733 27.321)" fill="#eeb584"/>
      <rect id="Rectángulo_38170" data-name="Rectángulo 38170" width="83.402" height="82.522" transform="translate(35.043 0)" fill="#eeb584"/>
      <rect id="Rectángulo_38171" data-name="Rectángulo 38171" width="73.031" height="67.936" transform="translate(39.878 7.053)" fill="#cd8967"/>
      <rect id="Rectángulo_38172" data-name="Rectángulo 38172" width="1.179" height="70.653" transform="translate(55.883 6.034)" fill="#eeb584"/>
      <rect id="Rectángulo_38173" data-name="Rectángulo 38173" width="1.179" height="70.653" transform="translate(76.244 5.695)" fill="#eeb584"/>
      <rect id="Rectángulo_38174" data-name="Rectángulo 38174" width="1.179" height="70.653" transform="translate(94.926 5.695)" fill="#eeb584"/>
      <path id="Trazado_144500" data-name="Trazado 144500" d="M27.058,94.366l-2.5-5.775L100.409,15.76l2.5,5.755Z" transform="translate(12.86 -13.902)" fill="#eeb584"/>
      <rect id="Rectángulo_38175" data-name="Rectángulo 38175" width="83.402" height="1.678" transform="translate(35.043 80.844)" fill="#cd8967" opacity="0.48"/>
      <rect id="Rectángulo_38176" data-name="Rectángulo 38176" width="92.353" height="31.53" transform="translate(118.864 103.722)" fill="#eeb584"/>
      <rect id="Rectángulo_38177" data-name="Rectángulo 38177" width="92.353" height="1.678" transform="translate(118.864 133.574)" fill="#cd8967" opacity="0.48"/>
      <rect id="Rectángulo_38178" data-name="Rectángulo 38178" width="13.407" height="8.172" transform="translate(192.135 121.745)" fill="#fff" opacity="0.5"/>
    </g>
  </g>
</svg>
