<svg xmlns="http://www.w3.org/2000/svg" width="708" height="345" viewBox="0 0 708 345">
  <g id="img5" transform="translate(-700 -4847)">
    <rect id="Rectángulo_30533" data-name="Rectángulo 30533" width="708" height="345" rx="18" transform="translate(700 4847)" fill="#f2f6fe"/>
    <g id="maquinaria-05-05" transform="translate(958 4975.975)">
      <g id="Grupo_61006" data-name="Grupo 61006" transform="translate(0.477 71.036)">
        <g id="Grupo_61004" data-name="Grupo 61004" transform="translate(0 36.451)">
          <path id="Trazado_139442" data-name="Trazado 139442" d="M97.46,64.9c-11.026-6.312-20.012-1.268-20.15,11.412a44.269,44.269,0,0,0,19.9,34.483c11.164,6.34,20.04,1.268,20.15-11.412A43.855,43.855,0,0,0,97.46,64.9Zm0,38.591A30.046,30.046,0,0,1,83.677,79.924c0-8.766,6.2-12.68,13.782-7.856a30.128,30.128,0,0,1,13.782,23.678c-.083,8.71-6.285,12.79-13.782,7.828Z" transform="translate(-77.31 -59.18)" fill="#303335"/>
          <path id="Trazado_139443" data-name="Trazado 139443" d="M93.352,66.991c-7.5-4.328-13.782-.91-13.782,7.856A30.018,30.018,0,0,0,93.352,98.415c7.47,4.438,13.782.882,13.782-7.746A30.1,30.1,0,0,0,93.352,66.991Z" transform="translate(-73.313 -54.021)" fill="#e54217"/>
          <path id="Trazado_139444" data-name="Trazado 139444" d="M81.28,62.405a14.058,14.058,0,0,1,14.2,1.378,43.855,43.855,0,0,1,19.9,34.483,13.948,13.948,0,0,1-5.844,12.68l-6.064,3.032a13.975,13.975,0,0,0,5.816-12.68,43.855,43.855,0,0,0-19.9-34.483,14.527,14.527,0,0,0-14.306-1.378Z" transform="translate(-69.235 -61.095)"/>
        </g>
        <g id="Grupo_61005" data-name="Grupo 61005" transform="translate(61.993)">
          <path id="Trazado_139445" data-name="Trazado 139445" d="M74.832,51.617C63.806,45.277,54.82,50.459,54.82,63A44.3,44.3,0,0,0,74.832,98.119c11.026,6.34,20.04,1.13,20.04-11.522a44.1,44.1,0,0,0-20.04-34.98Zm0,38.784A30.514,30.514,0,0,1,61.05,66.695c0-8.628,6.2-12.68,13.782-7.856A30.1,30.1,0,0,1,88.614,82.545c.028,8.6-6.174,12.652-13.782,7.966Z" transform="translate(-54.82 -46.051)" fill="#303335"/>
          <path id="Trazado_139446" data-name="Trazado 139446" d="M70.872,53.685c-7.608-4.328-13.782-.772-13.782,7.856A30.6,30.6,0,0,0,70.872,85.247c7.58,4.3,13.782.744,13.782-7.856A30.128,30.128,0,0,0,70.872,53.685Z" transform="translate(-50.86 -40.897)" fill="#e54217"/>
          <path id="Trazado_139447" data-name="Trazado 139447" d="M58.532,49.247a14.168,14.168,0,0,1,14.334,1.268A43.773,43.773,0,0,1,92.63,85a13.782,13.782,0,0,1-5.816,12.652L80.749,100.6a14,14,0,0,0,5.844-12.68A44.1,44.1,0,0,0,66.8,53.547a14.334,14.334,0,0,0-14.2-1.378Z" transform="translate(-46.541 -47.871)"/>
        </g>
      </g>
      <g id="Grupo_61007" data-name="Grupo 61007" transform="translate(0 0)">
        <path id="Trazado_139448" data-name="Trazado 139448" d="M143.6,22.352a3.528,3.528,0,0,0-1.516,0l-38.012,9.372a3.969,3.969,0,0,0-2.756,2.536L71.741,110.312,25.736,65.96h-.882a3.335,3.335,0,0,0-2.536,0,5.32,5.32,0,0,0,1.626,4.934L72.6,117.782l.744.634H76.1l30.321-79.221a1.158,1.158,0,0,1,.772-.744l38.067-9.262c1.268,0,1.516-2.012.634-3.914A5.237,5.237,0,0,0,143.6,22.352Z" transform="translate(45.968 -21.801)" fill="#7fcae5"/>
        <path id="Trazado_139449" data-name="Trazado 139449" d="M117.5,38.074a1.709,1.709,0,0,1,1.9,0h.882l46.143,44.407L98.367,121.954,52.224,77.6h-.882a1.819,1.819,0,0,0-1.9,0Z" transform="translate(-49.073 5.451)" fill="#7fcae5"/>
        <path id="Trazado_139450" data-name="Trazado 139450" d="M168.7,36.745a2.15,2.15,0,0,0-1.654,0l-38.012,9.262a4.135,4.135,0,0,0-2.756,2.536L96.7,125.338,50.583,80.987h-.91a3.335,3.335,0,0,0-2.536,0,5.348,5.348,0,0,0,1.654,4.934L97.222,132.45a1.461,1.461,0,0,0,.882.744c1.13,0,2.15,0,2.536-.634l30.321-79.083a1.158,1.158,0,0,1,.772-.744l38.094-9.262c1.268,0,1.544-2.15.634-4.052a6.23,6.23,0,0,0-1.764-2.674Z" transform="translate(-47.046 3.334)" fill="#4c7c89"/>
        <path id="Trazado_139451" data-name="Trazado 139451" d="M90.266,22.265a1.819,1.819,0,0,1,1.516,0A5.513,5.513,0,0,1,94.07,24.8a3.776,3.776,0,0,1,0,3.942L26.013,68.271c.882,0,1.02-2.15,0-3.914a6.009,6.009,0,0,0-2.15-2.536,2.15,2.15,0,0,0-1.654,0Z" transform="translate(97.789 -22.1)" fill="#e54217"/>
      </g>
    </g>
  </g>
</svg>
