<svg xmlns="http://www.w3.org/2000/svg" width="708" height="345" viewBox="0 0 708 345">
  <g id="img6" transform="translate(-700 -5229)">
    <g id="Grupo_61277" data-name="Grupo 61277">
      <rect id="Rectángulo_30534" data-name="Rectángulo 30534" width="708" height="345" rx="18" transform="translate(700 5229)" fill="#f2f6fe"/>
    </g>
    <g id="maquinaria-03" transform="translate(913 5261.43)">
      <g id="Grupo_60887" data-name="Grupo 60887" transform="translate(0 77.232)">
        <g id="Grupo_60885" data-name="Grupo 60885">
          <g id="Grupo_60870" data-name="Grupo 60870" transform="translate(0.182 22.287)">
            <path id="Trazado_139067" data-name="Trazado 139067" d="M14.313,81.238,85.087,40.12c-4,2.3-6.489,7.247-6.489,14.252v.849L8.006,96.369v-.879C7.824,88.485,10.311,83.572,14.313,81.238Z" transform="translate(-3.579 -33.843)" fill="#eaa61f"/>
            <path id="Trazado_139068" data-name="Trazado 139068" d="M17.252,85.262,88.026,44.145,77.474,38.05,6.7,79.168Z" transform="translate(-6.215 -38.05)" fill="#ffe24e"/>
            <path id="Trazado_139069" data-name="Trazado 139069" d="M7.025,51.61c-.273,0-.485,0-.485.3V70.5l4.427,2.517v-.879c0-7.186,2.608-12.129,6.792-14.434Z" transform="translate(-6.54 -10.492)" fill="#fdd506"/>
          </g>
          <g id="Grupo_60880" data-name="Grupo 60880" transform="translate(4.124 67.62)">
            <path id="Trazado_139070" data-name="Trazado 139070" d="M10.319,66.61v-1.3a2.366,2.366,0,0,1,0-.425h0v-.273a94482.555,94482.555,0,0,1,0-.849L10.5,63.3h0v-.273A6.064,6.064,0,0,1,11.228,62h0a6.065,6.065,0,0,1,1.092-.879h0l2.335-1.365L20.72,56.27h0a4.366,4.366,0,0,0-1.152.97h0a4.851,4.851,0,0,0-.849,1.3h0a7.429,7.429,0,0,0-.546,1.7h0a9.1,9.1,0,0,0-.212,2.092,14.676,14.676,0,0,0,.182,2.274h0c.152.788.334,1.546.546,2.335h0a24.59,24.59,0,0,0,.849,2.365h0c.273.637.606,1.243.94,1.88a9.356,9.356,0,0,0,.485.819c.152.273.758,1.213,1.152,1.759h0c.515.7,1.061,1.334,1.607,1.941h0a17.615,17.615,0,0,0,1.759,1.637h0a18.192,18.192,0,0,0,1.91,1.334l.97.485h0l.879.334h0a4.185,4.185,0,0,0,.819.243h1.759l1.819-.03a3.548,3.548,0,0,0,.606-.182h.182l.7-.334-8.46,4.821h0l-.7.334H24.51a1.637,1.637,0,0,1-.546,0H20.932l-.394-.182-.394-.212h-.364l-.394-.243-.546-.97-.364-.3-.364-.3h0l-.212-.182-.364-.334-.364-.334-.364-.334-.3-.334h0l-.273-.3-.788-.606-.243-.273-.243-.3-.243-.3-.182-.273h0a2.306,2.306,0,0,1-.243-.334l-.273-.394-.3-.455a4.908,4.908,0,0,1-.3-.546,7.7,7.7,0,0,1-.485-.849,5.279,5.279,0,0,1-.334-.546l-.182-.667-.212-.455-.152-.364h0a1.85,1.85,0,0,1,0-.364,1.121,1.121,0,0,1-.152-.334l-.152-.364v-.364a1.516,1.516,0,0,1,0-.394v-.394h0V69.612a.606.606,0,0,1,0-.212h0a.758.758,0,0,0,0-.243v-.94a2.3,2.3,0,0,1,0-.455,2.3,2.3,0,0,1,0-.455v-.455Z" transform="translate(-2.829 -46.354)" fill="#313132"/>
            <g id="Grupo_60871" data-name="Grupo 60871" transform="translate(10.067 7.096)">
              <path id="Trazado_139071" data-name="Trazado 139071" d="M16.911,60.737h0L16,60.374H12.817l-.7.3h0l8.339-4.852a5.308,5.308,0,0,1,.728-.334h.243l.515-.152h3.426l.425.152h.3l.364.182.394.212h.394l.394.243.394.243.364.273.394.3h0l.243.182.364.3.364.334.334.334.334.334h.152l.273.3.273.3.243.273a1.183,1.183,0,0,0,.243.3l.212.3.212.273h0l.243.334.273.394.3.455a4.912,4.912,0,0,0,.3.546c.182.273.334.576.485.849l.334.546a2.426,2.426,0,0,0,.243.485,3.033,3.033,0,0,0,.212.455,1.85,1.85,0,0,0,.152.364h0a3.548,3.548,0,0,1,.152.334l.152.364v.334l.152.364v.394a2.823,2.823,0,0,1,0,.394h0v.243a2.517,2.517,0,0,0,0,.455v.485a2.274,2.274,0,0,1,0,.485v.7h0v.243a2.668,2.668,0,0,0,0,.485v2.274a2.152,2.152,0,0,0,0,.425v.849h0v1.122l-.182.425h0a1.092,1.092,0,0,0,0,.273c0,.182-.212.334-.3.485a4.033,4.033,0,0,1-.425.576h0a4.367,4.367,0,0,1-1.183.94l-8.308,4.852a4.881,4.881,0,0,0,1.152-.94h0a6.671,6.671,0,0,0,.849-1.334h0a7.187,7.187,0,0,0,.546-1.668h0a10.765,10.765,0,0,0,.212-2.062,12.129,12.129,0,0,0-.212-2.3h0a17.252,17.252,0,0,0-.546-2.335h0a18.679,18.679,0,0,0-.879-2.365h0c-.273-.637-.606-1.243-.94-1.85a7.7,7.7,0,0,0-.485-.849c-.364-.606-.728-1.183-1.122-1.759h0a19.469,19.469,0,0,0-1.607-1.941h0c-.576-.576-1.152-1.122-1.759-1.637h0a13.281,13.281,0,0,0-1.91-1.3,7.217,7.217,0,0,0-.94-.515h0Z" transform="translate(-9.209 -55.34)" fill="#b7b8b8"/>
              <path id="Trazado_139072" data-name="Trazado 139072" d="M20.742,58.285c-5.276-3.032-9.552-.606-9.582,5.458a21.014,21.014,0,0,0,9.521,16.5c5.276,3.032,9.582.606,9.612-5.458A21.044,21.044,0,0,0,20.742,58.285Z" transform="translate(-11.16 -52.008)" fill="#7b7c7c"/>
            </g>
            <g id="Grupo_60879" data-name="Grupo 60879" transform="translate(12.918 17.322)">
              <g id="Grupo_60877" data-name="Grupo 60877">
                <g id="Grupo_60872" data-name="Grupo 60872" transform="translate(9.976 7.209)">
                  <path id="Trazado_139073" data-name="Trazado 139073" d="M16.723,62.515a2.092,2.092,0,0,0-.152-.394h0l-.243-.334h0a1.183,1.183,0,0,0-.3-.243.576.576,0,0,0-.3,0h0a.333.333,0,0,0-.243,0h0l.3-.182.485-.273h.425l.273.212h0v.212h0v.364a.576.576,0,0,1-.243.515l-.758.455a.637.637,0,0,0,.212-.515.971.971,0,0,0,0-.394Z" transform="translate(-15.207 -61.09)" fill="#262626"/>
                  <path id="Trazado_139074" data-name="Trazado 139074" d="M16.178,61.3a.491.491,0,0,0-.788.455,1.85,1.85,0,0,0,.788,1.365c.455.243.788,0,.788-.455a1.668,1.668,0,0,0-.788-1.365Z" transform="translate(-15.39 -60.849)" fill="#2b2b2b"/>
                </g>
                <g id="Grupo_60873" data-name="Grupo 60873" transform="translate(8.005 13.001)">
                  <path id="Trazado_139075" data-name="Trazado 139075" d="M15.971,64.365a1.516,1.516,0,0,0,0-.394h0a1.334,1.334,0,0,0-.243-.334h0a.97.97,0,0,0-.273-.243.789.789,0,0,0-.3,0h0a.334.334,0,0,0-.243,0L15.486,63h.455l.273.212h0v.152h0v.394h0v.364a.516.516,0,0,1-.212.485l-.788.455a.576.576,0,0,0,.243-.485,1.546,1.546,0,0,0,0-.394Z" transform="translate(-14.395 -63)" fill="#262626"/>
                  <path id="Trazado_139076" data-name="Trazado 139076" d="M15.528,63.2a.477.477,0,0,0-.788.425,1.637,1.637,0,0,0,.758,1.365.5.5,0,0,0,.819-.425A1.728,1.728,0,0,0,15.528,63.2Z" transform="translate(-14.74 -62.809)" fill="#2b2b2b"/>
                </g>
                <g id="Grupo_60874" data-name="Grupo 60874" transform="translate(1.934 9.393)">
                  <path id="Trazado_139077" data-name="Trazado 139077" d="M14.043,63.175a1.85,1.85,0,0,0-.152-.364h0l-.243-.3h0a1.183,1.183,0,0,0-.3-.243.576.576,0,0,0-.3,0h0a.333.333,0,0,0-.243,0l.455-.273.334-.182h.425l.273.212h0V62.3h0v.364a.576.576,0,0,1-.243.515l-.758.455a.637.637,0,0,0,.212-.515.97.97,0,0,0,0-.394Z" transform="translate(-12.611 -61.81)" fill="#262626"/>
                  <path id="Trazado_139078" data-name="Trazado 139078" d="M13.533,62.015a.485.485,0,0,0-.788.455,1.728,1.728,0,0,0,.788,1.365c.455.243.788,0,.788-.455A1.759,1.759,0,0,0,13.533,62.015Z" transform="translate(-12.738 -61.621)" fill="#2b2b2b"/>
                </g>
                <g id="Grupo_60875" data-name="Grupo 60875" transform="translate(0 1.448)">
                  <path id="Trazado_139079" data-name="Trazado 139079" d="M13.474,60.615l-.182-.394h0a1.334,1.334,0,0,0-.243-.334h0a1.061,1.061,0,0,0-.3-.243H12.17l.3-.182.455-.273h.455l.243.182h0v.364h0V60.1a.515.515,0,0,1-.212.485l-.788.455a.515.515,0,0,0,.243-.485,1.789,1.789,0,0,0,0-.394Z" transform="translate(-11.958 -59.19)" fill="#262626"/>
                  <path id="Trazado_139080" data-name="Trazado 139080" d="M12.888,59.413c-.425-.273-.788,0-.788.455a1.637,1.637,0,0,0,.788,1.334.481.481,0,0,0,.788-.425,1.728,1.728,0,0,0-.788-1.365Z" transform="translate(-12.1 -58.958)" fill="#2b2b2b"/>
                </g>
                <g id="Grupo_60876" data-name="Grupo 60876" transform="translate(4.761)">
                  <path id="Trazado_139081" data-name="Trazado 139081" d="M14.913,58.857h.576l.243.212h0V59.4h0v.182a.546.546,0,0,1-.243.515l-.788.455a.576.576,0,0,0,.243-.515,1.516,1.516,0,0,0,0-.364h0a1.031,1.031,0,0,0-.182-.364h0a1.334,1.334,0,0,0-.243-.334h0a1.183,1.183,0,0,0-.3-.243h-.3a.333.333,0,0,0-.243,0Z" transform="translate(-13.67 -58.712)" fill="#262626"/>
                  <path id="Trazado_139082" data-name="Trazado 139082" d="M14.533,59a.485.485,0,0,0-.788.455,1.668,1.668,0,0,0,.788,1.365.491.491,0,0,0,.788-.455A1.85,1.85,0,0,0,14.533,59Z" transform="translate(-13.532 -58.366)" fill="#2b2b2b"/>
                </g>
              </g>
              <g id="Grupo_60878" data-name="Grupo 60878" transform="translate(3.154 4.238)">
                <path id="Trazado_139083" data-name="Trazado 139083" d="M17.15,63.9a5.579,5.579,0,0,0-.515-1.152h0a6.063,6.063,0,0,0-.728-1h0a4.883,4.883,0,0,0-.879-.728l-.455-.182h0a.819.819,0,0,0-.364,0h-.455a.637.637,0,0,0-.334,0l1.243-.728h1.213l.334.182A3.669,3.669,0,0,1,17,60.9h0l.182.243.182.212a1.3,1.3,0,0,1,0,.212v.182h0v.576l.849.485v.212h0v.273a1.3,1.3,0,0,0,0,.334v.485a1.728,1.728,0,0,1-.7,1.516l-1.243.7a1.637,1.637,0,0,0,.7-1.516,3.972,3.972,0,0,0-.182-1.152Z" transform="translate(-12.571 -60.11)" fill="#262626"/>
                <path id="Trazado_139084" data-name="Trazado 139084" d="M15.536,60.591a1.486,1.486,0,0,0-2.4,1.395,5.276,5.276,0,0,0,2.365,4.094,1.484,1.484,0,0,0,2.4-1.365,5.276,5.276,0,0,0-2.365-4.124Z" transform="translate(-13.14 -59.742)" fill="#2b2b2b"/>
              </g>
            </g>
            <path id="Trazado_139085" data-name="Trazado 139085" d="M35.4,98.12h0c.273-.334.515-.667.758-1.031v-.182a11.063,11.063,0,0,0,.546-1.031.757.757,0,0,0,0-.212,9.1,9.1,0,0,0,.485-1.274v-.182c.152-.485.273-.97.394-1.456h0c0-.546.182-1.122.243-1.7h0V87.113h0a5.587,5.587,0,0,0-.243-1.971V84.96a15.556,15.556,0,0,0-.394-2h0c-.152-.7-.334-1.365-.546-2.062h0c-.212-.667-.425-1.365-.667-2.032h0c-.273-.7-.546-1.395-.849-2.092h0c-.3-.667-.606-1.334-.94-1.971h0l-.243-.425c-.546-1.031-1.122-2.062-1.728-3.032l-.273-.425h0c-.394-.637-.819-1.213-1.243-1.819h0c-.425-.576-.879-1.183-1.365-1.728h0c-.455-.546-.94-1.061-1.395-1.577h0c-.485-.515-1-1.031-1.516-1.516h0l-1.516-1.334h0c-.546-.425-1.092-.849-1.637-1.213h0l-1.728-1.092q-.879-.485-1.728-.91h0l-1.577-.637h0c-.515-.182-1-.3-1.486-.425H16.6a7.792,7.792,0,0,0-1.395-.212h-.243a10.249,10.249,0,0,0-1.365,0h-.3a6.066,6.066,0,0,0-1.031,0l-.91.243H10.9a6.065,6.065,0,0,0-1.274.606l8.339-4.852a8.216,8.216,0,0,1,1.274-.606H19.7l.91-.243h0a4.942,4.942,0,0,1,.94,0h3.912L25.913,53h.728l.728.273.576.243h0l.7.364.7.364.273.152.425.243.7.455.576.394h0l.667.515.7.515h.334l.364.3.667.576.485.425h0l.606.606.576.576.212.243h0l.243.243.485.546.485.546.212.273h0v.182l.425.546.425.546.364.455h0l.394.576.515.728a3.944,3.944,0,0,0,.3.455h0v.212a.758.758,0,0,1,0,.212c.637,1,1.213,2,1.759,3.032v.425h0a2.7,2.7,0,0,1,.243.515c.152.273.273.515.394.788l.273.667h0a3.608,3.608,0,0,1,.243.606l.273.637a5.462,5.462,0,0,1,.243.637v.182h0v.364l.243.7a2.662,2.662,0,0,0,.212.7V74.8a8.1,8.1,0,0,0,.212.788,6.944,6.944,0,0,1,.212.849h0l.182.819.182.879v.516a1.516,1.516,0,0,1,0,.364v1.577h0a7.427,7.427,0,0,1,0,.819V83.02a7.128,7.128,0,0,0,0,.788v.667h0v1.486h0a2.516,2.516,0,0,1,0,.455l-.182.758V87.9a2.5,2.5,0,0,1-.3.788v.425l-.182.394-.364.606a.486.486,0,0,0,0,.212h0a10.769,10.769,0,0,1-.7.94h0a5.458,5.458,0,0,1-.606.576,4.129,4.129,0,0,1-.364.364,7.884,7.884,0,0,1-1.092.758l-8.339,4.852a7,7,0,0,0,1.092-.758l.273-.273A7.247,7.247,0,0,0,35.4,98.12Z" transform="translate(-4.202 -53)" fill="#313132"/>
            <path id="Trazado_139086" data-name="Trazado 139086" d="M41.953,86.131c0,10.825-7.7,15.161-17.1,9.764A37.54,37.54,0,0,1,7.84,66.421c0-10.825,7.7-15.161,17.1-9.734A37.418,37.418,0,0,1,41.953,86.131Zm-17.1,1.122c5.276,3.032,9.582.606,9.612-5.458A21.044,21.044,0,0,0,24.912,65.42c-5.276-3.032-9.552-.606-9.582,5.458a21.014,21.014,0,0,0,9.521,16.5Z" transform="translate(-7.84 -50.259)" fill="#212122"/>
          </g>
          <g id="Grupo_60881" data-name="Grupo 60881">
            <path id="Trazado_139087" data-name="Trazado 139087" d="M16.43,99.415l1.092,1.152c.606.637,1.183,1.3,1.789,1.971l.334.455h.212l21.62-12.584,45.7-26.563V34.16L16.46,75.278V99.536Z" transform="translate(13.741 -23.668)" fill="#fdd506"/>
            <path id="Trazado_139088" data-name="Trazado 139088" d="M15.652,72.091l-1.031-.364-.637-.182H9.891l-.788.212H8.86a6.672,6.672,0,0,0-.94.455L78.6,31.064h0l.728-.364h6.186l1.031.334h.546a19.412,19.412,0,0,1,1.789.879l15.8,9.1-70.895,41.3-15.8-9.1a19.414,19.414,0,0,0-1.789-.879Z" transform="translate(-3.554 -30.7)" fill="#ffe24e"/>
            <path id="Trazado_139089" data-name="Trazado 139089" d="M6.571,67.525l9.976,5.731c3.487-2.123,8.369-1.85,13.767,1.274A31.749,31.749,0,0,1,36.56,79.32h0V55.062l-15.768-9.1C12.908,41.417,6.51,45.116,6.48,54.152Z" transform="translate(-6.48 -3.634)" fill="#fdd506"/>
          </g>
          <g id="Grupo_60882" data-name="Grupo 60882" transform="translate(31.263 36.418)">
            <path id="Trazado_139090" data-name="Trazado 139090" d="M17.38,56.71l.334.455c.425.515.849,1.061,1.243,1.607a40.935,40.935,0,0,1,8.43,23.076,19.527,19.527,0,0,1-.94,6.277l44.847,26.441V88.428L54.222,78.391l-.606-.364L17.926,57.074Z" transform="translate(-15.591 -14.258)" fill="#fdd506"/>
            <path id="Trazado_139091" data-name="Trazado 139091" d="M34.97,67.11l.061,26.108,28.443,16.526-.091-26.108Z" transform="translate(20.157 6.877)" fill="#fdd506"/>
            <path id="Trazado_139092" data-name="Trazado 139092" d="M44.34,99.975l.03,26.108,71.835-39.147-.03-27.867Z" transform="translate(39.199 -9.462)" fill="#eaa61f"/>
            <path id="Trazado_139093" data-name="Trazado 139093" d="M16.79,83.191c.606.637,1.183,1.3,1.789,1.971l.546.364,35.629,20.953.606.364,17.072,10.037-.425-.182,28.443,16.526,71.623-40.905L125.528,65.209l-15.586-9.1L97.631,48.956,86.836,42.71l-.394.243-48.789,28.2h0Z" transform="translate(-16.79 -42.71)" fill="#ffe24e"/>
          </g>
          <g id="Grupo_60884" data-name="Grupo 60884" transform="translate(30.141 11.037)">
            <path id="Trazado_139094" data-name="Trazado 139094" d="M29.31,104.28l70.774-41.148.061-18.982L29.371,85.268Z" transform="translate(9.776 -14.403)" fill="#231f20"/>
            <path id="Trazado_139095" data-name="Trazado 139095" d="M120.154,53.383,49.381,94.5,16.42,75.488,87.194,34.34Z" transform="translate(-16.42 -34.34)" fill="#2b2b2b"/>
            <path id="Trazado_139096" data-name="Trazado 139096" d="M33.223,90.8a11.19,11.19,0,0,0-.334-1.365h0a14.192,14.192,0,0,0-.515-1.577h0a10.856,10.856,0,0,0-.728-1.455h0a12.644,12.644,0,0,0-.879-1.334h0l-.91-1.092a1.4,1.4,0,0,1-.212-.212,9.1,9.1,0,0,0-.788-.728l-.364-.3a7.277,7.277,0,0,0-1.152-.819l70.622-41.3a7.064,7.064,0,0,1,1.152.788l.364.334.546.485.243.243.212.212a1.822,1.822,0,0,0,.243.243l.485.637.182.212h0l.182.212.546.819.3.515h0l.243.425.273.546.212.455h0l.212.576a4.427,4.427,0,0,1,.212.576v.3h0v.212a5.733,5.733,0,0,1,.152.7v.879a8.16,8.16,0,0,1,0,1.213L33.374,92.442a11.8,11.8,0,0,0,0-1.425S33.223,90.865,33.223,90.8Z" transform="translate(5.773 -21.577)" fill="#262626"/>
            <g id="Grupo_60883" data-name="Grupo 60883" transform="translate(0 41.148)">
              <path id="Trazado_139097" data-name="Trazado 139097" d="M16.42,47.91h0L33.34,83.873,20.908,76.656c-.394-.546-.819-1.092-1.243-1.607l-.334-.455c-.606-.667-1.183-1.334-1.789-1.971L16.45,71.471h0Z" transform="translate(-16.42 -47.91)" fill="#fdd506"/>
              <path id="Trazado_139098" data-name="Trazado 139098" d="M16.481,47.94,38.374,60.585h0l3.032,1.789,7.884,4.548a13.615,13.615,0,0,1,6.065,10.7V96.7L33.34,83.873,16.42,47.91Z" transform="translate(-16.42 -47.91)" fill="#231f20"/>
            </g>
          </g>
        </g>
        <g id="Grupo_60886" data-name="Grupo 60886" transform="translate(30.99 104.492)">
          <path id="Trazado_139099" data-name="Trazado 139099" d="M16.7,68.31v1.759L46.416,87.322V85.594Z" transform="translate(-16.7 -58.758)" fill="#323133"/>
          <path id="Trazado_139100" data-name="Trazado 139100" d="M26.5,80.412V82.14l16.556-9.552V70.86Z" transform="translate(3.216 -53.576)" fill="#232223"/>
          <path id="Trazado_139101" data-name="Trazado 139101" d="M16.7,74.712,46.416,92l16.556-9.552L33.256,65.16Z" transform="translate(-16.7 -65.16)" fill="#383739"/>
        </g>
      </g>
      <g id="Grupo_60890" data-name="Grupo 60890" transform="translate(50.821 60.683)">
        <g id="Grupo_60888" data-name="Grupo 60888" transform="translate(0.061 31.983)">
          <path id="Trazado_139102" data-name="Trazado 139102" d="M23.26,41.74v7.55L54.311,67.363V59.782Z" transform="translate(-23.26 -23.698)" fill="#212021"/>
          <path id="Trazado_139103" data-name="Trazado 139103" d="M33.5,59.782v7.581L64.763,49.29l-.03-7.55Z" transform="translate(-2.449 -23.698)" fill="#2b2b2c"/>
          <path id="Trazado_139104" data-name="Trazado 139104" d="M23.26,53.832,54.311,71.874,85.543,53.832,54.493,35.79Z" transform="translate(-23.26 -35.79)" fill="#3a393b"/>
        </g>
        <g id="Grupo_60889" data-name="Grupo 60889">
          <path id="Trazado_139105" data-name="Trazado 139105" d="M29.79,36.48l-6.55-3.79.091,27.776,6.519,3.821Z" transform="translate(-23.24 -10.107)" fill="#212021"/>
          <path id="Trazado_139106" data-name="Trazado 139106" d="M33.892,41.639h0a18.2,18.2,0,0,0-1.152,1.425h0a17.251,17.251,0,0,0-1,1.577h0q-.455.819-.819,1.637h0c-.212.515-.394,1.061-.576,1.577a8.8,8.8,0,0,0-.3,1.213,1.274,1.274,0,0,0,0,.606,9.1,9.1,0,0,0-.152,1.789l-6.55-3.79a12.128,12.128,0,0,1,.152-1.789,3.548,3.548,0,0,1,.152-.606,7.883,7.883,0,0,1,.3-1.213h0s.182-.606.3-.91l.243-.546v-.182l.3-.606.273-.546.212-.394h0l.273-.485a2.153,2.153,0,0,1,.3-.425,3.942,3.942,0,0,1,.3-.455h0l.182-.212a4.456,4.456,0,0,1,.3-.394l.334-.394.334-.394h0a2.062,2.062,0,0,1,.364-.364,2.426,2.426,0,0,1,.394-.394l.455-.394h0l.394-.334.728-.485L29.89,36l17.132-9.855a9.1,9.1,0,0,1,1.456-.7h.485l.91-.182h0a2.244,2.244,0,0,1,.637,0h1.425l6.762,3.79a2.517,2.517,0,0,0-1.031-.394h0a4.578,4.578,0,0,0-1.122,0,5.185,5.185,0,0,0-.91,0h-.455a7.035,7.035,0,0,0-1.486.667l-17.1,9.885a8.4,8.4,0,0,0-1.365.94h0a9.582,9.582,0,0,0-1.334,1.486Z" transform="translate(-23.037 -25.243)" fill="#222122"/>
          <path id="Trazado_139107" data-name="Trazado 139107" d="M32.435,37.345A15.4,15.4,0,0,0,25.4,49.474V77.28L56.663,59.086V31.28c0-4.488-3.184-6.307-7.1-4.033Z" transform="translate(-18.85 -23.161)" fill="#2b2b2c"/>
        </g>
      </g>
      <g id="Grupo_60906" data-name="Grupo 60906" transform="translate(31.687 0)">
        <g id="Grupo_60894" data-name="Grupo 60894" transform="translate(68.023 99.346)">
          <g id="Grupo_60891" data-name="Grupo 60891" transform="translate(0 0)">
            <path id="Trazado_139108" data-name="Trazado 139108" d="M41.32,53.386h0a6.582,6.582,0,0,0,1.334-.334h0l1.637-.667h0c.606-.3,1.243-.606,1.91-1s1.88-1.152,2.82-1.819h0c.94-.667,1.88-1.395,2.79-2.153h0c.91-.758,1.819-1.546,2.668-2.365h0c.849-.819,1.7-1.668,2.456-2.517l1.819,2.032h0v.152h0v.152H58.6v.152h-.152l-.182.152-.152.182-.243.243-.273.243h0l-1.092,1-.273.243L56,47.291h-.182l-.182.152H54.45l-.182.152-.243.182-.243.152-.212.182h0l-.3.212-.334.243-.364.243-.394.273-.425.273-.485.273-.455.273h0l-.425.273-.485.243-.425.243-.455.212h-.273l-.425.182-.455.182H44.9l-1.819-2a6.823,6.823,0,0,0-1.759,4.154Z" transform="translate(-35.385 -28.772)" fill="#646162"/>
            <path id="Trazado_139109" data-name="Trazado 139109" d="M48.177,44.578h0a15.435,15.435,0,0,0,.94-1.668,10.489,10.489,0,0,0,.516-1.3h0a5.458,5.458,0,0,0,.212-1.061h0a2.182,2.182,0,0,0,0-.788h0a1.3,1.3,0,0,0-.334-.606h0l1.819,2a1.637,1.637,0,0,1,.334.546h0a1.336,1.336,0,0,0,0,.3v.546a.759.759,0,0,1,0,.243,2.092,2.092,0,0,1,0,.394v.364h0v.637a3.4,3.4,0,0,0-.152.394v.273h0l-.182.394a2.274,2.274,0,0,0-.212.364L50.876,46l-.243.425h0a3.031,3.031,0,0,1-.243.425l-.3.455-.334.455-.334.455L47.6,46.185C47.419,45.73,47.813,45.154,48.177,44.578Z" transform="translate(-22.714 -35.641)" fill="#211d1e"/>
            <path id="Trazado_139110" data-name="Trazado 139110" d="M45.19,42.217l1.819,2.032,6.61-.7L51.77,41.52Z" transform="translate(-27.52 -30.824)" fill="#211d1e"/>
            <path id="Trazado_139111" data-name="Trazado 139111" d="M40.56,53.125l1.819,2.032L53.3,44.392,51.476,42.36Z" transform="translate(-36.93 -29.117)" fill="#211d1e"/>
            <path id="Trazado_139112" data-name="Trazado 139112" d="M44.16,47.116l1.819,2.032,2.82-7.1L46.95,40.02Z" transform="translate(-29.614 -33.873)" fill="#191617"/>
            <path id="Trazado_139113" data-name="Trazado 139113" d="M39.385,63.668v-1a1.365,1.365,0,0,1,0-.485,2.85,2.85,0,0,1,0-.485h0v-.334l.182-.485a.489.489,0,0,1,.212-.485,1.851,1.851,0,0,0,0-.364h0l.91-.788.273-.515.3-.515a4.944,4.944,0,0,1,.334-.515v-.243h0a1.062,1.062,0,0,1,.152-.243l.364-.546.394-.576.394-.515a3.305,3.305,0,0,1,.394-.515h0l.212-.273.334-.425.334-.394.243-.3.243-.3.243-.273.243-.273.182-.212.182-.212h0l.212-.212.182-.212.182-.212V51.6l.182-.182.152-.182.182-.182.152-.182.182-.182.182-.182.182-.182v-.182l.182-.182.182-.182h0l.152-.152.273-.273.3-.273.273-.273,1.395-1.274.334-.3h0l.273-.243.3-.273h.212l.182-.182h.212l.182-.182.212-.152.182-.182h.182l.182-.152H52.7l.182-.152h.364l.212-.182h.212l.97-1.455h.212l.212-.152.212-.182.3-.212.273-.212.3-.212.3-.212.425-.3h.212l.455-.3.546-.364.515-.334.606-.364.576-.334h0l.576-.3.576-.334.546-.273h0l.576-.273.546-.243.394-.182h0l.576-.212.546-.212h.546l.879-.849h.606a2.306,2.306,0,0,1,.637,0h1.789a2.426,2.426,0,0,1,.637.455L71.042,40.5a1.638,1.638,0,0,0-.637-.455H68.737a5.7,5.7,0,0,0-.94,0h-.152a5.64,5.64,0,0,0-1.122.3h0a4.2,4.2,0,0,0-1.334.485h0l-1.516.7h0l-1.7.91c-1,.576-1.971,1.183-3.032,1.88h0a63.193,63.193,0,0,0-5.883,4.609h0c-.97.849-1.88,1.728-2.759,2.608h0a57.619,57.619,0,0,0-4.73,5.337h0c-.667.849-1.274,1.728-1.819,2.547h0a17.98,17.98,0,0,0-1.365,2.426,10.036,10.036,0,0,0-.667,1.668h0a6.761,6.761,0,0,0-.273,1.365h0a3.548,3.548,0,0,0,0,1,1.759,1.759,0,0,0,.394.788l-1.819-2.032a1.759,1.759,0,0,1-.394-.7,1.548,1.548,0,0,1-.243-.273Z" transform="translate(-39.363 -37.993)" fill="#231f20"/>
            <path id="Trazado_139114" data-name="Trazado 139114" d="M40.972,60.762A55.551,55.551,0,0,1,60.621,41.2c7.823-4.518,11.8-3.032,8.824,3.032A55.733,55.733,0,0,1,49.8,63.764C41.942,68.4,37.97,67.16,40.972,60.762ZM57.316,44.994A43,43,0,0,0,44.034,58.973c-.879,1.85-.97,3.032-.455,3.881L54.5,52l2.82-7.1Zm-2.092,8.248-10.4,10.219A11.1,11.1,0,0,0,50.887,61.4a46.273,46.273,0,0,0,10.765-8.854Zm11.159-7.156c2.214-4.639-.425-5.852-6.065-3.032L57.5,50.179l6.823-.637a20.408,20.408,0,0,0,2.153-3.457Z" transform="translate(-38.13 -36.815)" fill="#121010"/>
          </g>
          <g id="Grupo_60892" data-name="Grupo 60892" transform="translate(13.788 18.7)">
            <path id="Trazado_139115" data-name="Trazado 139115" d="M43.91,45.009h0V44.8h0v-.152h0v-.152h0l.364-.334h1.759a.607.607,0,0,1,.425.152l19.68,21.559a.576.576,0,0,0-.394-.152.91.91,0,0,0-.485,0h0a4.365,4.365,0,0,0-.7.212h0l-.849.455-.819.515h0a7.516,7.516,0,0,0-.788.576h0a8.342,8.342,0,0,0-.788.667h0a8.277,8.277,0,0,0-.758.7h0a13.857,13.857,0,0,0-1.274,1.425h0l-.485.7h0a3.427,3.427,0,0,0-.364.637,1.425,1.425,0,0,0-.182.455h0a2.246,2.246,0,0,0,0,.364h0v.273h0a.455.455,0,0,0,0,.212L44.183,45.373a.637.637,0,0,1,0-.182h0S43.91,45.07,43.91,45.009Z" transform="translate(-43.91 -44.16)" fill="#191617"/>
            <path id="Trazado_139116" data-name="Trazado 139116" d="M53.07,56.065a15.161,15.161,0,0,0,5.216-5.276c.788-1.668-.273-2.032-2.365-.819a14.8,14.8,0,0,0-5.276,5.246C49.886,56.914,50.947,57.278,53.07,56.065Z" transform="translate(-30.722 -33.808)" fill="#121010"/>
          </g>
          <g id="Grupo_60893" data-name="Grupo 60893" transform="translate(27.252 28.071)">
            <path id="Trazado_139117" data-name="Trazado 139117" d="M58.417,57.112,48.35,51.26l.03,13.1,10.067,5.852Z" transform="translate(-48.35 -39.101)" fill="#1b1819"/>
            <path id="Trazado_139118" data-name="Trazado 139118" d="M79.522,53.1l-10.1-5.852L48.35,59.409l10.067,5.852Z" transform="translate(-48.35 -47.25)" fill="#1e1b1c"/>
            <path id="Trazado_139119" data-name="Trazado 139119" d="M51.67,61.339l.03,13.1,21.1-12.159-.03-13.1Z" transform="translate(-41.603 -43.328)" fill="#131111"/>
          </g>
        </g>
        <g id="Grupo_60898" data-name="Grupo 60898">
          <path id="Trazado_139120" data-name="Trazado 139120" d="M99.544,14.88v3.426L33.38,56.877V53.329Z" transform="translate(16.501 14.381)" fill="#131111"/>
          <path id="Trazado_139121" data-name="Trazado 139121" d="M111.665,46.149l-2.729-1.789L43.53,82.9l2.032,2.274Z" transform="translate(37.129 74.293)" fill="#1b1819"/>
          <g id="Grupo_60895" data-name="Grupo 60895" transform="translate(67.711)">
            <path id="Trazado_139122" data-name="Trazado 139122" d="M41.711,96.274,41.65,9.126,44.288,7.58l.061,87.148Z" transform="translate(-34.403 -0.454)" fill="#131111"/>
            <path id="Trazado_139123" data-name="Trazado 139123" d="M41.9,5.23l48.122,27.9.3.182h0l.212.152h0l.243.243h0l.364.364h0l.273.3h0l.3.334v.152l.485.546h0l.455.515h0l.849,1h0l1,1.243h0a9.6,9.6,0,0,1,.819,1.092l.212.273.91,1.243h0v.182l.728,1.031.243.364c.273.455.576.91.879,1.365h0l.879,1.395.243.455.7,1.122v.455l.819,1.486h0l.91,1.7V50.5l.182.334.7,1.334.3.606c.273.515.546,1.061.788,1.607l.152.273h0l.97,2.092.273.576c.243.546.485,1.122.758,1.7s0,.243.152.394l.334.7c.7,1.7,1.395,3.4,2.062,5.155h0c.606,1.546,1.152,3.032,1.728,4.7a4.521,4.521,0,0,0,.394,1.183c.121.394.3.819.425,1.213l.819,2.577a6.715,6.715,0,0,0,.455,1.455c.515,1.668,1.031,3.336,1.486,5.034v.152c.546,2,1.061,4.033,1.577,6.065l.182.758q.637,2.729,1.274,5.549v.212c.394,1.819.758,3.639,1.122,5.519l.273,1.546c.273,1.455.516,3.032.758,4.4l.364,2.153c.212,1.365.394,2.7.606,4.094a19.366,19.366,0,0,0,.3,2.214l.182,1.3.364,3.032a6.008,6.008,0,0,0,.243,2.062c.243,2.123.455,4.276.667,6.489h0q.3,3.275.546,6.641a10.877,10.877,0,0,0,.152,2.214c0,1.546.212,3.032.3,4.7v2.577l.182,4.548v18.8l-2.668,1.516V149.2a32.639,32.639,0,0,0-.212-4.548v-2.577c0-1.607-.182-3.032-.3-4.73v-2.183c-.182-2.244-.364-4.488-.546-6.671h0c-.212-2.214-.455-4.4-.7-6.55a16.1,16.1,0,0,0-.243-2.032,28.634,28.634,0,0,0-.546-4.366,13.412,13.412,0,0,0-.3-2.214c-.182-1.395-.394-2.759-.606-4.094a13.22,13.22,0,0,0-.334-2.153c-.243-1.486-.515-3.032-.788-4.4l-.273-1.546c-.364-1.941-.758-3.851-1.152-5.761s-.819-3.669-1.243-5.488a1.12,1.12,0,0,0-.212-.788c-.485-2.062-1.031-4.094-1.577-6.065s-1-3.487-1.516-5.185l-.455-1.455c-.425-1.274-.819-2.547-1.243-3.79a4.152,4.152,0,0,0-.424-1.213c-.546-1.577-1.122-3.032-1.7-4.67s-1.365-3.457-2.092-5.155l-.485-1.092c-.243-.576-.485-1.152-.758-1.7l-.273-.576c-.3-.728-.637-1.425-.97-2.092v-.334l-.819-1.607-.273-.606c-.243-.455-.485-.879-.7-1.334l1.213.819-.94-1.7h0l-.849-1.516-.273-.455c-.212-.394-.455-.758-.667-1.122l-.273-.455-.879-1.395h0c-.3-.485-.606-.91-.91-1.365l-.243-.364-.7-1.031-.182-.243-.879-1.243-.212-.273Q93.3,41.284,92.9,40.8h0l-1-1.243h0l-.879-1v-.182l-.485-.546h0l-.515-.546h0l-.334-.364h0l-.273-.3h0l-.394-.364h0a2.214,2.214,0,0,1-.273-.243h0l-1.031-1.152h0l-.273-.182L39.26,6.776Z" transform="translate(-39.26 -5.23)" fill="#1c191a"/>
            <path id="Trazado_139124" data-name="Trazado 139124" d="M103.352,62.686C95.771,44.765,88.191,37.518,87.1,36.609L46.467,12.866v87.178L39.28,95.98V5.74l48.062,27.9.273.182c.364.3,9.1,7.672,17.83,27.988,11.4,26.684,17.1,61.98,16.981,104.917v1.516l-2.668-1.486v-3.032C119.666,112.173,110.812,80.364,103.352,62.686Z" transform="translate(-39.219 -4.194)" fill="#1b1819"/>
          </g>
          <g id="Grupo_60896" data-name="Grupo 60896" transform="translate(0.728 1.759)">
            <path id="Trazado_139125" data-name="Trazado 139125" d="M39.47,5.81l.03,1.971,2.881,1.7v-2Z" transform="translate(28.15 -5.81)" fill="#1b1819"/>
            <path id="Trazado_139126" data-name="Trazado 139126" d="M37.63,9.024,37.66,11,43.24,7.781l-.03-1.971Z" transform="translate(24.411 -5.81)" fill="#131111"/>
            <path id="Trazado_139127" data-name="Trazado 139127" d="M38.59,9.574v2l5.579-3.214v-2Z" transform="translate(26.362 -4.692)" fill="#131111"/>
            <path id="Trazado_139128" data-name="Trazado 139128" d="M37.02,10.21v1.971l4.761-2.759v-2Z" transform="translate(23.171 -2.538)" fill="#131111"/>
            <path id="Trazado_139129" data-name="Trazado 139129" d="M35.18,11.554v1.971l5.579-3.214V8.34Z" transform="translate(19.431 -0.668)" fill="#131111"/>
            <path id="Trazado_139130" data-name="Trazado 139130" d="M33.61,12.129v2l4.761-2.759V9.4Z" transform="translate(16.241 1.486)" fill="#131111"/>
            <path id="Trazado_139131" data-name="Trazado 139131" d="M31.77,13.545v1.971L37.349,12.3v-2Z" transform="translate(12.501 3.315)" fill="#131111"/>
            <path id="Trazado_139132" data-name="Trazado 139132" d="M30.2,14.129V16.1l4.761-2.759V11.37Z" transform="translate(9.311 5.489)" fill="#131111"/>
            <path id="Trazado_139133" data-name="Trazado 139133" d="M27.4,13.857v2l2.79-1.607v-2Z" transform="translate(3.62 7.278)" fill="#131111"/>
            <path id="Trazado_139134" data-name="Trazado 139134" d="M28.36,15.494v1.971l5.579-3.214V12.28Z" transform="translate(5.571 7.339)" fill="#131111"/>
            <path id="Trazado_139135" data-name="Trazado 139135" d="M26.79,16.069v2l4.761-2.759V13.34Z" transform="translate(2.381 9.493)" fill="#131111"/>
            <path id="Trazado_139136" data-name="Trazado 139136" d="M24.95,17.485v2l5.579-3.245v-2Z" transform="translate(-1.359 11.322)" fill="#131111"/>
            <path id="Trazado_139137" data-name="Trazado 139137" d="M86.47,32.039,41.258,5.81l2.911,1.668L38.59,10.692l42.3,24.592Z" transform="translate(26.362 -5.81)" fill="#1e1b1c"/>
            <path id="Trazado_139138" data-name="Trazado 139138" d="M38.59,7.42v2l42.3,24.561V32.012Z" transform="translate(26.362 -2.538)" fill="#1b1819"/>
            <path id="Trazado_139139" data-name="Trazado 139139" d="M52.54,17.7v1.971l5.579-3.214v-2Z" transform="translate(54.712 11.769)" fill="#131111"/>
            <path id="Trazado_139140" data-name="Trazado 139140" d="M23.38,18.069V20.04l4.761-2.729v-2Z" transform="translate(-4.55 13.497)" fill="#131111"/>
            <path id="Trazado_139141" data-name="Trazado 139141" d="M21.54,19.434v1.971l5.579-3.214V16.22Z" transform="translate(-8.289 15.346)" fill="#131111"/>
            <path id="Trazado_139142" data-name="Trazado 139142" d="M49.13,19.675l.03,1.971,5.549-3.214v-2Z" transform="translate(47.782 15.773)" fill="#131111"/>
            <path id="Trazado_139143" data-name="Trazado 139143" d="M35.18,9.4v1.971L77.511,35.932l-.03-1.971Z" transform="translate(19.431 1.486)" fill="#1b1819"/>
            <path id="Trazado_139144" data-name="Trazado 139144" d="M40.759,8.34,35.18,11.554l42.3,24.561,5.579-3.245Z" transform="translate(19.431 -0.668)" fill="#1e1b1c"/>
            <path id="Trazado_139145" data-name="Trazado 139145" d="M19.97,20.039V22.01l4.761-2.759V17.28Z" transform="translate(-11.48 17.5)" fill="#131111"/>
            <path id="Trazado_139146" data-name="Trazado 139146" d="M28.36,13.34v1.971L70.66,39.9v-2Z" transform="translate(5.571 9.493)" fill="#1b1819"/>
            <path id="Trazado_139147" data-name="Trazado 139147" d="M84.79,5.81,79.211,9.024,50.98,25.338l-2.79,1.607L17.17,44.9l2.911,1.668L25.66,43.35l4.761-2.759L36,37.376l4.761-2.759,5.579-3.245L51.1,28.643l5.579-3.214,4.761-2.759,5.579-3.245L71.781,16.7l5.579-3.214,4.761-2.79L87.7,7.478Z" transform="translate(-17.17 -5.81)" fill="#1e1b1c"/>
            <path id="Trazado_139148" data-name="Trazado 139148" d="M18.13,21.4v2l5.579-3.245V18.19Z" transform="translate(-15.219 19.35)" fill="#131111"/>
            <path id="Trazado_139149" data-name="Trazado 139149" d="M17.17,18.7v1.971l2.911,1.7v-2Z" transform="translate(-17.17 20.386)" fill="#1b1819"/>
            <path id="Trazado_139150" data-name="Trazado 139150" d="M45.72,21.624V23.6L51.3,20.381V18.41Z" transform="translate(40.852 19.797)" fill="#131111"/>
            <path id="Trazado_139151" data-name="Trazado 139151" d="M31.77,11.37v1.971L74.07,37.9V35.931Z" transform="translate(12.501 5.489)" fill="#1b1819"/>
            <path id="Trazado_139152" data-name="Trazado 139152" d="M37.349,10.3,31.77,13.545l42.3,24.561,5.579-3.214Z" transform="translate(12.501 3.315)" fill="#1e1b1c"/>
            <path id="Trazado_139153" data-name="Trazado 139153" d="M47.17,29.332V31.3L71.944,17.021v-2Z" transform="translate(43.799 12.907)" fill="#131111"/>
            <path id="Trazado_139154" data-name="Trazado 139154" d="M46.68,20.589v2l1.486-.879V19.74Z" transform="translate(42.803 22.5)" fill="#131111"/>
            <path id="Trazado_139155" data-name="Trazado 139155" d="M46.68,20.589v2l1.486-.879V19.74Z" transform="translate(42.803 22.5)" fill="#131111"/>
            <path id="Trazado_139156" data-name="Trazado 139156" d="M46.68,20.589l1.486-.849-1.486.849Z" transform="translate(42.803 22.5)" fill="#1e1b1c"/>
            <rect id="Rectángulo_36171" data-name="Rectángulo 36171" height="2.001" transform="matrix(1, -0.003, 0.003, 1, 89.47, 43.088)" fill="#1b1819"/>
            <path id="Trazado_139157" data-name="Trazado 139157" d="M45.11,22.779v2l4.761-2.759v-2Z" transform="translate(39.612 23.069)" fill="#131111"/>
            <path id="Trazado_139158" data-name="Trazado 139158" d="M42.31,23.594v2l5.579-3.245V20.38Z" transform="translate(33.922 23.8)" fill="#131111"/>
            <path id="Trazado_139159" data-name="Trazado 139159" d="M76.24,36.841,33.939,12.28,28.36,15.494l42.3,24.561Z" transform="translate(5.571 7.339)" fill="#1e1b1c"/>
            <path id="Trazado_139160" data-name="Trazado 139160" d="M44.19,22.537v2l2.79-1.607v-2Z" transform="translate(37.742 24.918)" fill="#131111"/>
            <path id="Trazado_139161" data-name="Trazado 139161" d="M44.19,22.537v2l2.79-1.607v-2Z" transform="translate(37.742 24.918)" fill="#131111"/>
            <path id="Trazado_139162" data-name="Trazado 139162" d="M38.9,25.564v2l5.579-3.245V22.35Z" transform="translate(26.992 27.804)" fill="#131111"/>
            <path id="Trazado_139163" data-name="Trazado 139163" d="M24.95,15.31v2l42.3,24.561v-2Z" transform="translate(-1.359 13.497)" fill="#1b1819"/>
            <path id="Trazado_139164" data-name="Trazado 139164" d="M30.529,14.24,24.95,17.485l42.3,24.561,5.579-3.214Z" transform="translate(-1.359 11.322)" fill="#1e1b1c"/>
            <path id="Trazado_139165" data-name="Trazado 139165" d="M27.119,16.22,21.54,19.434,63.84,44l5.579-3.214Z" transform="translate(-8.289 15.346)" fill="#1e1b1c"/>
            <path id="Trazado_139166" data-name="Trazado 139166" d="M21.54,17.28v1.971l42.3,24.592v-2Z" transform="translate(-8.289 17.5)" fill="#1b1819"/>
            <path id="Trazado_139167" data-name="Trazado 139167" d="M35.49,27.534v2l5.579-3.245V24.32Z" transform="translate(20.061 31.807)" fill="#131111"/>
            <path id="Trazado_139168" data-name="Trazado 139168" d="M34.88,37.774v2L63.111,23.461v-2Z" transform="translate(18.822 25.995)" fill="#131111"/>
            <path id="Trazado_139169" data-name="Trazado 139169" d="M32.08,29.5v2l5.579-3.245V26.29Z" transform="translate(13.131 35.811)" fill="#131111"/>
            <path id="Trazado_139170" data-name="Trazado 139170" d="M32.08,27.35v2l2.911,1.668V29.048Z" transform="translate(13.131 37.965)" fill="#1b1819"/>
            <path id="Trazado_139171" data-name="Trazado 139171" d="M99.7,14.46,94.121,17.7,89.36,20.434,83.78,23.678,79.02,26.437,73.44,29.652,68.68,32.411,63.1,35.625,58.34,38.385,52.76,41.6,48,44.358,42.42,47.572l-4.761,2.759L32.08,53.546l2.911,1.7L40.57,52,68.8,35.686l2.79-1.607,4.761-2.759,1.486-.849,24.774-14.312Z" transform="translate(13.131 11.769)" fill="#1e1b1c"/>
            <path id="Trazado_139172" data-name="Trazado 139172" d="M17.17,19.736,65.292,47.664l5.579-3.245-5.579,3.245-2.911-1.7,5.579-3.214L25.66,18.19,20.081,21.4Z" transform="translate(-17.17 19.35)" fill="#1e1b1c"/>
            <path id="Trazado_139173" data-name="Trazado 139173" d="M33.04,30.085v1.971l5.579-3.214v-2Z" transform="translate(15.082 36.929)" fill="#131111"/>
            <path id="Trazado_139174" data-name="Trazado 139174" d="M33.04,30.085v1.971l5.579-3.214v-2Z" transform="translate(15.082 36.929)" fill="#131111"/>
            <path id="Trazado_139175" data-name="Trazado 139175" d="M17.17,18.7v1.971L65.292,48.6V46.627Z" transform="translate(-17.17 20.386)" fill="#1b1819"/>
          </g>
          <g id="Grupo_60897" data-name="Grupo 60897" transform="translate(0 39.632)">
            <path id="Trazado_139176" data-name="Trazado 139176" d="M19.381,109.344,19.32,22.166l2.668-1.516.061,87.148Z" transform="translate(-12.073 -13.524)" fill="#131111"/>
            <path id="Trazado_139177" data-name="Trazado 139177" d="M19.6,18.3,67.66,46.2l.273.182h.212l.273.212h0l.394.364h0l.273.3h.152a3.46,3.46,0,0,0,.334.334h0l.515.546h0l.485.515h0l.879,1h0l1,1.243h0l.819,1.092.182.273c.3.394.606.788.91,1.243h0v.182l.728,1.031.243.364q.455.637.91,1.365h0l.879,1.395.273.425.667,1.152.182.273v.182c.273.485.576.97.849,1.486h0l.94,1.7v.182l.182.334.7,1.334.273.606L82,67.12v.273h0q.485,1,1,2.092a.643.643,0,0,0,.243.576,7.66,7.66,0,0,1,.758,1.7l.182.394c0,.243.212.455.3.7.728,1.7,1.395,3.4,2.092,5.155h0c.576,1.546,1.152,3.032,1.7,4.67a3.87,3.87,0,0,0,.425,1.213c.152.394.273.788.425,1.213l.819,2.577.455,1.455c.515,1.637,1,3.335,1.486,5.034h0c.546,2,1.092,4.033,1.577,6.065l.182.758c.455,1.819.879,3.669,1.274,5.519a.728.728,0,0,0,0,.243c.364,1.789.728,3.639,1.092,5.519a9.762,9.762,0,0,0,.273,1.546c.273,1.455.546,3.032.788,4.4a13.219,13.219,0,0,0,.334,2.153c.212,1.334.425,2.7.606,4.094a19.357,19.357,0,0,0,.3,2.214l.182,1.3a25.844,25.844,0,0,0,.364,3.032c.121,1,.182,1.365.243,2.062.243,2.123.485,4.276.7,6.459h0q.273,3.275.546,6.641v2.214c0,1.546.212,3.032.3,4.67v2.608a32.852,32.852,0,0,0,.212,4.548v18.77L98.2,180.527v-18.77L99.62,159a14.881,14.881,0,0,0-.152-2.577c0-1.577-.182-3.032-.273-4.7a10.583,10.583,0,0,0-.152-2.183c0-2.244-.334-4.488-.546-6.7h0c-.212-2.183-.425-4.366-.667-6.519a5.838,5.838,0,0,0-.243-2.032l-.546-4.366a17.677,17.677,0,0,0-.3-2.214q-.3-2.092-.758-4.185a13.218,13.218,0,0,0-.334-2.153c-.243-1.486-.485-3.032-.758-4.427l-.273-1.546c-.394-1.91-.758-3.851-1.183-5.731s-.819-3.669-1.243-5.488l-.182-.788c-.515-2.092-1.031-4.094-1.577-6.065s-1-3.487-1.546-5.185l-.455-1.455c-.394-1.274-.819-2.547-1.243-3.79a4.37,4.37,0,0,0-.394-1.213l-1.607-4.609c-.667-1.728-1.365-3.457-2.092-5.125l-.485-1.122-.728-1.668-.273-.576-.97-2.092-.182-.364c-.273-.546-.515-1.061-.788-1.577s-.212-.425-.3-.606-.455-.91-.7-1.334l-.273-.515-.91-1.7h0l-.91-1.516-.3-.455L75.6,61.267a1.941,1.941,0,0,1-.243-.425l-.879-1.395h0L73.6,58.083l-.273-.364a12.133,12.133,0,0,0-.7-1.031v-.243l-.91-1.243-.212-.273a9.6,9.6,0,0,0-.819-1.092h0c-.334-.455-.667-.849-1-1.243h0l-1-1.334-.152-.182-.485-.546h0l-.485-.546-.152-.152-.3-.334V49.35l-.273-.273h0a2.062,2.062,0,0,0-.364-.364h0l-.819-.485h0l-.212-.182h0l-.3-.212L16.93,19.846Z" transform="translate(-16.93 -18.3)" fill="#1c191a"/>
            <path id="Trazado_139178" data-name="Trazado 139178" d="M80.921,75.756C73.37,57.835,65.759,50.588,64.7,49.679L24.035,25.906v87.208L17,109.05V18.81L64.849,46.677l.3.212c.364.3,9.1,7.672,17.8,27.988,11.4,26.684,17.132,61.98,17.011,104.917v1.516l-2.638-1.516v-3.032C97.265,125.243,88.41,93.434,80.921,75.756Z" transform="translate(-16.788 -17.264)" fill="#1b1819"/>
          </g>
          <path id="Trazado_139179" data-name="Trazado 139179" d="M57.019,38.814l2.7-1.546,2.638-1.516L96.1,16.466l2.668-1.516h0l.273.182c.364.3,9.1,7.672,17.83,27.988a218.323,218.323,0,0,1,14.828,62.1L66.752,143.427l-.182-1.819a16.1,16.1,0,0,0-.243-2.032l-.364-3.032-.182-1.3a17.674,17.674,0,0,0-.3-2.214c-.212-1.395-.394-2.759-.606-4.094a17.614,17.614,0,0,0-.334-2.153c-.273-1.486-.515-3.032-.788-4.4l-.273-1.577c-.364-1.85-.728-3.7-1.122-5.488v-.243c-.394-1.85-.819-3.669-1.274-5.488L60.9,108.8c-.485-2.062-1.031-4.094-1.577-6.065a.273.273,0,0,1,0-.152c-.485-1.7-.97-3.4-1.486-5.034a4.574,4.574,0,0,0-.485-1.455c-.182-.485-.515-1.728-.819-2.577s-.273-.819-.425-1.213l-.394-1.213c-.546-1.577-1.122-3.032-1.7-4.67h0c-.667-1.728-1.365-3.426-2.062-5.125,0-.243-.212-.485-.3-.7L51.47,80.2c-.243-.576-.515-1.152-.758-1.7l-.273-.576c-.334-.728-.637-1.425-.97-2.092h0a1.09,1.09,0,0,1,0-.273l-.819-1.637-.3-.576c-.212-.455-.455-.91-.7-1.334l-.152-.334V71.5l-1.274-1.819h0L45.375,68.2v-.182l-.182-.273-.7-1.152-.243-.425-.879-1.395h0l-.91-1.365-.243-.364-.728-1.031v-.182h0c-.3-.455-.606-.849-.91-1.243l-.182-.273-.849-1.122h0l-1.3-1.637h0l-.849-1h0l-.455-.546h0l-.515-.546V55.31l-.334-.334h0l-.273-.3h0l-1.152-.819h0l-.273-.243h0l-.212-.182h0l-.273-.182L33.67,53.1Z" transform="translate(17.09 14.524)" fill="#d9d9f9" opacity="0.2"/>
          <path id="Trazado_139180" data-name="Trazado 139180" d="M111.553,83.055h0v4.609l-.152.788L46.359,126.538v-.788h0V108.5a32.634,32.634,0,0,0-.212-4.548V101.37l-.515-4.821V94.365c-.182-2.244-.334-4.488-.546-6.671h0c-.152-1.607-.334-3.032-.485-4.73L109.491,45a376,376,0,0,1,2.062,38.055Z" transform="translate(39.303 75.594)" fill="#131111"/>
        </g>
        <g id="Grupo_60905" data-name="Grupo 60905" transform="translate(44.381 13.66)">
          <g id="Grupo_60901" data-name="Grupo 60901" transform="translate(61.527)">
            <g id="Grupo_60899" data-name="Grupo 60899" transform="translate(1.222 3.017)">
              <path id="Trazado_139181" data-name="Trazado 139181" d="M54.534,13.384,52.26,12.05,52.29,23l2.274,1.334Z" transform="translate(-52.26 -8.047)" fill="#1b1819"/>
              <path id="Trazado_139182" data-name="Trazado 139182" d="M61.448,12.064,59.174,10.73l-6.914,4,2.274,1.334Z" transform="translate(-52.26 -10.73)" fill="#1e1b1c"/>
              <path id="Trazado_139183" data-name="Trazado 139183" d="M53.01,15.173l.03,10.947,6.914-3.972-.03-10.977Z" transform="translate(-50.736 -9.836)" fill="#131111"/>
            </g>
            <g id="Grupo_60900" data-name="Grupo 60900">
              <path id="Trazado_139184" data-name="Trazado 139184" d="M51.866,19.786V18.543h0V17h0v-.334a1.486,1.486,0,0,1,0-.334h0v-.212a1.275,1.275,0,0,0,0-.3.758.758,0,0,1,0-.212h0v-.3l.182-.334h0v-.273l.182-.3v-.182h0l.182-.273.273-.394h0l.394-.546h0a3.8,3.8,0,0,1,.273-.364l.243-.3h0l.243-.3.273-.273h0l.182-.182.273-.273h0l.273-.243h0l.273-.212h.212l.273-.182.273-.152h.182l.273-.152h5.792l.485.243,2.3,1.334L64.42,9.81H62.358l-.576.152h0l-.606.243h0l-.637.334-.637.394h0l-.576.455h0l-.546.485h0a4.154,4.154,0,0,0-.515.515h0a4.945,4.945,0,0,0-.515.606h0l-.546.637h0c-.152.182-.273.394-.425.606a3.034,3.034,0,0,0-.243.425L56.324,15v.182c0,.182-.212.364-.3.576h0a7.763,7.763,0,0,0-.334.728h0a7.4,7.4,0,0,0-.3.728h0l-.273.758h0a6.365,6.365,0,0,0-.182.728h0a6.065,6.065,0,0,0-.152.728h0v.728h0a6.063,6.063,0,0,0,0,.728,5.122,5.122,0,0,0,0,.7h0v.606h0a3.516,3.516,0,0,0,0,.546h0l.182.455h0a1.607,1.607,0,0,0,.243.455,2.607,2.607,0,0,0,.425.546h0a3.032,3.032,0,0,0,.546.394l-2.3-1.3-.515-.425h0a2.608,2.608,0,0,1-.425-.546h0s-.152-.273-.243-.425h0a.382.382,0,0,0-.152-.3c-.152-.091,0,0,0-.152V20.6a.941.941,0,0,1,0-.3.334.334,0,0,1,0-.152v-.061h0Z" transform="translate(-51.857 -9.583)" fill="#262626"/>
              <path id="Trazado_139185" data-name="Trazado 139185" d="M58.917,10.539A13.979,13.979,0,0,0,52.61,21.455c0,4.033,2.85,5.64,6.337,3.639a13.827,13.827,0,0,0,6.307-10.916C65.255,10.235,62.4,8.628,58.917,10.539Z" transform="translate(-50.326 -9.735)" fill="#2b2b2b"/>
            </g>
            <path id="Trazado_139186" data-name="Trazado 139186" d="M53.161,21.057a5.488,5.488,0,0,0,.364,2.092h0a7.338,7.338,0,0,0,2.729,2,7.247,7.247,0,0,0,3.032.606,7.884,7.884,0,0,0,7.672-8.066,8.308,8.308,0,0,0-2.85-6.307,8.582,8.582,0,0,0-1.789-1.152,4.943,4.943,0,0,0-3.245.758,12.736,12.736,0,0,0-5.913,10.067Z" transform="translate(-49.21 -8.791)" fill="#fe5236"/>
          </g>
          <g id="Grupo_60904" data-name="Grupo 60904" transform="translate(0 35.623)">
            <g id="Grupo_60902" data-name="Grupo 60902" transform="translate(1.225 2.993)">
              <path id="Trazado_139187" data-name="Trazado 139187" d="M34.244,25.124,31.97,23.79,32,34.736l2.274,1.334Z" transform="translate(-31.97 -19.787)" fill="#1b1819"/>
              <path id="Trazado_139188" data-name="Trazado 139188" d="M41.158,23.8,38.884,22.47l-6.914,4,2.274,1.334Z" transform="translate(-31.97 -22.47)" fill="#1e1b1c"/>
              <path id="Trazado_139189" data-name="Trazado 139189" d="M32.72,26.913l.03,10.947,6.914-4-.03-10.947Z" transform="translate(-30.446 -21.576)" fill="#131111"/>
            </g>
            <g id="Grupo_60903" data-name="Grupo 60903">
              <path id="Trazado_139190" data-name="Trazado 139190" d="M31.578,31.16V29.917h0v-1.3a.94.94,0,0,0,0-.243h0V27.7h0a1.944,1.944,0,0,1,0-.212,1.273,1.273,0,0,0,0-.3.485.485,0,0,1,0-.212h0a3.031,3.031,0,0,1,0-.3l.182-.334h0v-.273l.182-.3v-.182h0l.182-.273a3.032,3.032,0,0,0,.243-.425h0l.394-.546h0l.273-.364.243-.273h0l.243-.273.273-.273h0l.182-.182.273-.273h0l.273-.243h0l.273-.212.182-.152h0l.273-.182.273-.182h3.821a2.426,2.426,0,0,1,.485.243l2.274,1.3-.485-.212h-2l-.546.152h0l-.606.243h0l-.637.334-.637.394h0l-.576.425h0l-.546.485h0a4.153,4.153,0,0,0-.515.515h0c-.182.212-.364.394-.515.606h0l-.515.637h0c0,.182-.273.394-.425.606l1.819-1.274-.182.334v.152l-.3.606h0l-.364.728h0a7.4,7.4,0,0,0-.3.728h0l-.273.758h0a6.577,6.577,0,0,0-.212.728h0a6.061,6.061,0,0,0,0,.728h0v.728h0a5.857,5.857,0,0,0,0,.728,5.124,5.124,0,0,0,0,.7h0v.606h0a2.577,2.577,0,0,0,0,.515h0l.182.425h0a3.307,3.307,0,0,0,.243.455,2.608,2.608,0,0,0,.425.546h0l.546.394-2.3-1.334a2.123,2.123,0,0,1-.515-.394h0a2.608,2.608,0,0,1-.424-.546h0a.534.534,0,0,0-.243-.425h0l-.152-.3a1.305,1.305,0,0,0,0-.152V30.857h0Z" transform="translate(-31.566 -20.981)" fill="#262626"/>
              <path id="Trazado_139191" data-name="Trazado 139191" d="M38.627,22.354A13.979,13.979,0,0,0,32.32,33.27c0,4.033,2.85,5.64,6.337,3.639a13.827,13.827,0,0,0,6.307-10.825C44.965,21.959,42.114,20.322,38.627,22.354Z" transform="translate(-30.034 -21.483)" fill="#2b2b2b"/>
            </g>
            <path id="Trazado_139192" data-name="Trazado 139192" d="M32.871,32.766a5.549,5.549,0,0,0,.364,2.123h0a7.338,7.338,0,0,0,2.729,2A7.247,7.247,0,0,0,39,37.5a7.884,7.884,0,0,0,7.672-8.066,8.308,8.308,0,0,0-2.85-6.307A8.035,8.035,0,0,0,42,21.971a4.882,4.882,0,0,0-3.214.758,12.736,12.736,0,0,0-5.913,10.037Z" transform="translate(-28.917 -20.555)" fill="#fe5236"/>
          </g>
        </g>
      </g>
      <g id="Grupo_60917" data-name="Grupo 60917" transform="translate(115.015 26.563)">
        <g id="Grupo_60910" data-name="Grupo 60910" transform="translate(2.608 7.005)">
          <g id="Grupo_60907" data-name="Grupo 60907" transform="translate(0 30.11)">
            <path id="Trazado_139193" data-name="Trazado 139193" d="M59.067,35.326,45.27,27.29l.455,156.738,13.8,8.035Z" transform="translate(-45.27 -24.076)" fill="#212122"/>
            <path id="Trazado_139194" data-name="Trazado 139194" d="M64.616,34.266l-13.8-8.036L45.27,29.444l13.8,8.036Z" transform="translate(-45.27 -26.23)" fill="#343335"/>
            <path id="Trazado_139195" data-name="Trazado 139195" d="M49.82,32.094l.455,156.738,5.549-3.214L55.369,28.88Z" transform="translate(-36.023 -20.844)" fill="#353435"/>
          </g>
          <g id="Grupo_60908" data-name="Grupo 60908" transform="translate(52.155)">
            <path id="Trazado_139196" data-name="Trazado 139196" d="M76.267,25.365,62.47,17.36,62.925,174.1l13.8,8.005Z" transform="translate(-62.47 -14.146)" fill="#212122"/>
            <path id="Trazado_139197" data-name="Trazado 139197" d="M81.816,24.336,68.019,16.3,62.47,19.514l13.8,8.005Z" transform="translate(-62.47 -16.3)" fill="#343335"/>
            <path id="Trazado_139198" data-name="Trazado 139198" d="M67.02,22.134l.455,156.738,5.549-3.184L72.569,18.95Z" transform="translate(-53.223 -10.914)" fill="#353435"/>
          </g>
          <g id="Grupo_60909" data-name="Grupo 60909" transform="translate(24.531 12.25)">
            <rect id="Rectángulo_36172" data-name="Rectángulo 36172" width="4.821" height="161.074" transform="translate(0 7.217)"/>
            <rect id="Rectángulo_36173" data-name="Rectángulo 36173" width="4.821" height="161.074" transform="translate(24.076)"/>
          </g>
        </g>
        <g id="Grupo_60915" data-name="Grupo 60915" transform="translate(16.86 133.966)">
          <g id="Grupo_60911" data-name="Grupo 60911">
            <path id="Trazado_139199" data-name="Trazado 139199" d="M53.548,71.232,49.97,69.17l.091,37.843,3.578,2.092Z" transform="translate(-49.97 -35.815)" fill="#444546"/>
            <path id="Trazado_139200" data-name="Trazado 139200" d="M111.283,60.262,107.7,58.17,49.97,91.525l3.578,2.062Z" transform="translate(-49.97 -58.17)" fill="#4c4d4e"/>
            <path id="Trazado_139201" data-name="Trazado 139201" d="M51.15,92.185l.091,37.873,57.735-33.325-.091-37.873Z" transform="translate(-47.572 -56.768)" fill="#2f3031"/>
          </g>
          <g id="Grupo_60914" data-name="Grupo 60914" transform="translate(3.608 38.085)">
            <g id="Grupo_60912" data-name="Grupo 60912" transform="translate(47.364)">
              <path id="Trazado_139202" data-name="Trazado 139202" d="M151.047,121.641a15.372,15.372,0,0,0,3.032,1.274h.182a14.373,14.373,0,0,0,1.971.485l1.425.243h1.516a11.769,11.769,0,0,0,1.456,0h0a8.613,8.613,0,0,0,1.274-.273h0a4.787,4.787,0,0,0,1.061-.485,3.032,3.032,0,0,0,1.7-2.547v2.092a3.032,3.032,0,0,1-1.7,2.547,4.035,4.035,0,0,1-.728.334h-4.761l-1.274-.182h0a15.737,15.737,0,0,1-1.971-.515h0a15.678,15.678,0,0,1-3.032-1.273L66.78,74.732V72.67Z" transform="translate(-66.78 -66.787)" fill="#222122"/>
              <path id="Trazado_139203" data-name="Trazado 139203" d="M66.78,76.613l84.267,48.971a13.706,13.706,0,0,0,12.129,1.183c3.032-1.668,2-4.791-1.91-7.065L76.968,70.73Z" transform="translate(-66.78 -70.73)" fill="#383739"/>
            </g>
            <g id="Grupo_60913" data-name="Grupo 60913" transform="translate(0 27.26)">
              <path id="Trazado_139204" data-name="Trazado 139204" d="M135.579,130.631a12.828,12.828,0,0,0,3.032,1.274h.182c.637.182,1.3.364,1.971.485l1.425.212h0a12.92,12.92,0,0,0,1.516,0h0a11.044,11.044,0,0,0,1.456,0h0a7.853,7.853,0,0,0,1.274-.273h0a5.881,5.881,0,0,0,1.092-.455,3.032,3.032,0,0,0,1.7-2.547v2.062a3.032,3.032,0,0,1-1.7,2.547l-.728.334h-3.154a3.672,3.672,0,0,1-.576,0h-.94a9.1,9.1,0,0,1-1.274-.182h0a15.549,15.549,0,0,1-1.971-.485h-.576a16.31,16.31,0,0,1-3.032-1.274L51.16,83.752V81.66Z" transform="translate(-51.16 -75.777)" fill="#222122"/>
              <path id="Trazado_139205" data-name="Trazado 139205" d="M51.16,85.6l84.419,48.971a13.8,13.8,0,0,0,12.129,1.213c3.032-1.668,1.971-4.821-1.941-7.1L61.348,79.72Z" transform="translate(-51.16 -79.72)" fill="#383739"/>
            </g>
          </g>
        </g>
        <g id="Grupo_60916" data-name="Grupo 60916">
          <path id="Trazado_139206" data-name="Trazado 139206" d="M58.48,34.187,44.41,26l.03,10.34L58.51,44.5Z" transform="translate(-44.41 10.418)" fill="#eaa61f"/>
          <path id="Trazado_139207" data-name="Trazado 139207" d="M121.582,22.177l-14.1-8.187L44.41,50.408l14.07,8.187Z" transform="translate(-44.41 -13.99)" fill="#ffe24e"/>
          <path id="Trazado_139208" data-name="Trazado 139208" d="M49.05,53.108l.03,10.31L112.152,27V16.69Z" transform="translate(-34.98 -8.503)" fill="#fdd506"/>
        </g>
      </g>
      <g id="Grupo_60928" data-name="Grupo 60928" transform="translate(67.317 180.549)">
        <path id="Trazado_139209" data-name="Trazado 139209" d="M43.491,68.035h0a14.615,14.615,0,0,0-1.152,1.546l-.212.182a14.16,14.16,0,0,0-.819,1.486l-.152.334a15.162,15.162,0,0,0-.728,1.88v.243c-.212.7-.394,1.395-.546,2.123a1.945,1.945,0,0,1,0,.212c0,.788-.273,1.637-.364,2.486h0a27.289,27.289,0,0,0,0,2.79l-10.4,6.065a4.7,4.7,0,0,1,0-.667V84.592h0V83.5l.182-1.092v-.515a1,1,0,0,1,.152-.637l.273-1.092a.912.912,0,0,0,.152-.637.749.749,0,0,1,.152-.455l.455-1.152v-.273l.182-.334.273-.606.879-.879.152-.273a17.071,17.071,0,0,1,1.092-1.395h0c.3-.364.667-.667,1-1l.485-.364A14.553,14.553,0,0,1,36.123,71.7l10.4-6.065a14.948,14.948,0,0,0-1.607,1.092,4.125,4.125,0,0,1-.364.364C44.188,67.338,43.946,67.672,43.491,68.035Z" transform="translate(-27.814 -63.01)" fill="#e29205"/>
        <g id="Grupo_60927" data-name="Grupo 60927" transform="translate(2.759 5.451)">
          <path id="Trazado_139210" data-name="Trazado 139210" d="M32.658,83.468a3.307,3.307,0,0,1,0-.546c0-.182,0-.364,0-.515a3.336,3.336,0,0,0,0-.546V80.315l.182-.515.212-.546h0a3.548,3.548,0,0,0,.152-.334l.364-.606.546-.7h0a5.823,5.823,0,0,1,1.334-1.122h0l3.032-1.7,7.49-4.336h0a5.307,5.307,0,0,0-1.425,1.183h0a9.1,9.1,0,0,0-1.061,1.637h0a8.885,8.885,0,0,0-.667,2.092h0a16.557,16.557,0,0,0-.243,2.577,18.408,18.408,0,0,0,.243,2.85h0a21.684,21.684,0,0,0,.7,3.032h0A28.864,28.864,0,0,0,44.6,86.865h0c.334.788.758,1.546,1.152,2.3l.637,1.061c.425.758.91,1.486,1.395,2.183h0a21.8,21.8,0,0,0,2,2.426h0a22.8,22.8,0,0,0,2.183,2.032h0a20.56,20.56,0,0,0,2.365,1.637,9.1,9.1,0,0,0,1.213.606h0a8.34,8.34,0,0,0,1.092.455h0a7.1,7.1,0,0,0,1,.273h0a5.369,5.369,0,0,0,.97,0h1.213a7.287,7.287,0,0,0,.849,0l.758-.212h.212a4.7,4.7,0,0,0,.879-.425l-10.37,6.065h0a5.611,5.611,0,0,1-.879.394h-.212l-.758.212h0a3.487,3.487,0,0,1-.788,0H46.788L46.3,105.7l-.455-.7h0l-.485-.243-.485-.273H44.7l-.273-.182-.485-.3-.97-.667-.485-.364h0l-.3-.212-.455-.425-.455-.394-.425-.425-.394-.394-.667-.485h0v-.243l-.334-.364-.334-.394-.3-.364-.3-.364-.273-.364-.273-.364h0l-.273-.394-.364-.515-.576-.576-.394-.7a12.124,12.124,0,0,1-.606-1.061l-.394-.667c0-.212-.212-.394-.3-.606l-.273-.576-.182-.425h0l-.182-.425-.182-.455a2.668,2.668,0,0,1,0-.455l-.182-.425a3.306,3.306,0,0,1-.334-.606v-.606h0v-.3a.8.8,0,0,0-.152-.576c-.152-.182,0-.394,0-.576V86.743h0V86.47a4.545,4.545,0,0,1,0-.606,4.156,4.156,0,0,1,0-.576,4.062,4.062,0,0,1,0-.606,3.305,3.305,0,0,1,0-.546v-.576Z" transform="translate(-23.379 -58.665)" fill="#313132"/>
          <g id="Grupo_60918" data-name="Grupo 60918" transform="translate(12.493 8.72)">
            <path id="Trazado_139211" data-name="Trazado 139211" d="M40.955,75.857h0l-1.031-.3h0a5.369,5.369,0,0,0-.97,0h-.182a4.882,4.882,0,0,0-.94,0H36.71l-.667.182h-.3l-.879.394h0l10.37-6.065a4.7,4.7,0,0,1,.879-.425h.334l.637-.182h0a4.427,4.427,0,0,1,.667,0h2.7l.546.152h.394l.485.182.394.182h0l.485.243.485.273h.182l.3.182.485.3.485.334.485.334.485.364h0l.273.212.485.425.455.394.425.425.394.394.182.182h0v.182l.364.394.334.394.3.364.273.364.3.364.273.364h0l.273.394.364.515.364.546.394.7c.212.334.394.7.606,1.061l.394.667.3.606.273.576.182.425h0l.182.425.182.455a2.668,2.668,0,0,0,0,.455l.182.425a3.305,3.305,0,0,0,0,.515,2.272,2.272,0,0,1,0,.485v.182h0v.273a3.182,3.182,0,0,0,.152.576c0,.182,0,.394,0,.576v.606a3.577,3.577,0,0,0,0,.606.849.849,0,0,0,0,.273h0v.273a4.548,4.548,0,0,1,0,.606,4.127,4.127,0,0,1,0,.606v2.79a3.03,3.03,0,0,0,0,.515v.515h0a1.092,1.092,0,0,1,0,.334v.546l-.182.515-.212.546h0a3.557,3.557,0,0,0-.152.334l-.364.606-.546.7h0a5.428,5.428,0,0,1-1.456,1.183l-10.37,6.065a5.793,5.793,0,0,0,1.425-1.183h0a8,8,0,0,0,1.061-1.637h0a9.43,9.43,0,0,0,.667-2.092h0a11.644,11.644,0,0,0,.243-2.577,15.554,15.554,0,0,0-.212-2.881h0a20.135,20.135,0,0,0-.667-3.032h0A28.872,28.872,0,0,0,51.72,87.5h0a23.619,23.619,0,0,0-1.183-2.3,12.137,12.137,0,0,0-.606-1.061c-.455-.758-.91-1.486-1.425-2.183h0c-.637-.849-1.3-1.668-2-2.426h0a22.8,22.8,0,0,0-2.183-2.032h0a20.559,20.559,0,0,0-2.365-1.637c-.394-.243-.819-.425-1.213-.637h0q.093.323.212.637Z" transform="translate(-31.373 -69.446)" fill="#b7b8b8"/>
            <path id="Trazado_139212" data-name="Trazado 139212" d="M45.657,73.014c-6.58-3.79-11.917-.758-11.947,6.823a26.2,26.2,0,0,0,11.856,20.71c6.58,3.79,11.947.758,11.947-6.792A26.108,26.108,0,0,0,45.657,73.014Z" transform="translate(-33.71 -65.511)" fill="#7b7c7c"/>
          </g>
          <g id="Grupo_60926" data-name="Grupo 60926" transform="translate(16.01 21.317)">
            <g id="Grupo_60924" data-name="Grupo 60924">
              <g id="Grupo_60919" data-name="Grupo 60919" transform="translate(12.463 8.824)">
                <path id="Trazado_139213" data-name="Trazado 139213" d="M40.636,78.3a2.3,2.3,0,0,0-.182-.485h0a1.365,1.365,0,0,0-.3-.424h0a1.607,1.607,0,0,0-.364-.3.728.728,0,0,0-.394,0h0a.334.334,0,0,0-.3,0h0l.364-.243.576-.334h.728a2.453,2.453,0,0,1,.3.273h0V78a.4.4,0,0,1,0,.182.7.7,0,0,1-.3.637l-.97.576a.728.728,0,0,0,.3-.637,1.365,1.365,0,0,0,0-.485Z" transform="translate(-38.756 -76.51)" fill="#262626"/>
                <path id="Trazado_139214" data-name="Trazado 139214" d="M39.981,76.781a.619.619,0,0,0-1,.546,2.123,2.123,0,0,0,.97,1.7.613.613,0,0,0,1-.546A2.123,2.123,0,0,0,39.981,76.781Z" transform="translate(-38.98 -76.204)" fill="#2b2b2b"/>
              </g>
              <g id="Grupo_60920" data-name="Grupo 60920" transform="translate(10.098 15.95)">
                <path id="Trazado_139215" data-name="Trazado 139215" d="M39.9,80.649a2.334,2.334,0,0,0-.212-.485h0l-.3-.425h0a1.244,1.244,0,0,0-.394-.3.576.576,0,0,0-.364,0h0a.425.425,0,0,0-.334,0l.97-.576h.576a1.455,1.455,0,0,1,.606.425h0v.3h0v.182c0,.182,0,.546-.3.637l-.97.576a.728.728,0,0,0,.3-.637,1.364,1.364,0,0,0,0-.485Z" transform="translate(-38.017 -78.86)" fill="#262626"/>
                <path id="Trazado_139216" data-name="Trazado 139216" d="M39.17,79.131a.6.6,0,0,0-.97.546,2.123,2.123,0,0,0,.97,1.7.613.613,0,0,0,1-.546,2.153,2.153,0,0,0-1-1.7Z" transform="translate(-38.2 -78.554)" fill="#2b2b2b"/>
              </g>
              <g id="Grupo_60921" data-name="Grupo 60921" transform="translate(2.426 11.614)">
                <path id="Trazado_139217" data-name="Trazado 139217" d="M37.3,79.158a2.852,2.852,0,0,0-.182-.455h0a4.458,4.458,0,0,0-.3-.394h0l-.364-.3a1.152,1.152,0,0,0-.394,0h0a.485.485,0,0,0-.3,0l.576-.334.394-.243h.425l.3.243h0v.243h0v.152h0v.243a.515.515,0,0,1,0,.212.728.728,0,0,1-.3.637l-.94.546a.758.758,0,0,0,.273-.637,1.516,1.516,0,0,0,0-.485Z" transform="translate(-35.507 -77.43)" fill="#262626"/>
                <path id="Trazado_139218" data-name="Trazado 139218" d="M36.671,77.65a.624.624,0,0,0-1,.576,2.3,2.3,0,0,0,.97,1.7.624.624,0,0,0,1-.576,2.214,2.214,0,0,0-.97-1.7Z" transform="translate(-35.67 -77.226)" fill="#2b2b2b"/>
              </g>
              <g id="Grupo_60922" data-name="Grupo 60922" transform="translate(0 1.668)">
                <path id="Trazado_139219" data-name="Trazado 139219" d="M36.557,75.909a2.333,2.333,0,0,0-.212-.485h0l-.3-.425h0a1.607,1.607,0,0,0-.364-.3,1.3,1.3,0,0,0-.394,0h0a.516.516,0,0,0-.3,0h0l.394-.212.576-.334h.7a1.182,1.182,0,0,1,.3.243h0v.273h0v.182h0v.182a.788.788,0,0,1-.273.637l-.97.546a.607.607,0,0,0,.273-.606,2.669,2.669,0,0,0,0-.485Z" transform="translate(-34.646 -74.15)" fill="#262626"/>
                <path id="Trazado_139220" data-name="Trazado 139220" d="M35.871,74.419c-.546-.334-.97,0-1,.546a2.153,2.153,0,0,0,1,1.7.6.6,0,0,0,.97-.546,2.183,2.183,0,0,0-.97-1.7Z" transform="translate(-34.87 -73.874)" fill="#2b2b2b"/>
              </g>
              <g id="Grupo_60923" data-name="Grupo 60923" transform="translate(5.883)">
                <path id="Trazado_139221" data-name="Trazado 139221" d="M38.447,73.6h.546l.334.243h0v.97h0v.212a.7.7,0,0,1-.273.606l-.97.576a.758.758,0,0,0,.273-.637,3.03,3.03,0,0,0,0-.485h0a1.576,1.576,0,0,0-.182-.485h0a4.459,4.459,0,0,0-.3-.394h0l-.364-.3a1.152,1.152,0,0,0-.394,0h0a.485.485,0,0,0-.3,0Z" transform="translate(-36.81 -73.6)" fill="#262626"/>
                <path id="Trazado_139222" data-name="Trazado 139222" d="M37.931,73.89a.624.624,0,0,0-1,.576,2.244,2.244,0,0,0,1,1.7.608.608,0,0,0,.97-.576,2.214,2.214,0,0,0-.97-1.7Z" transform="translate(-36.566 -73.253)" fill="#2b2b2b"/>
              </g>
            </g>
            <g id="Grupo_60925" data-name="Grupo 60925" transform="translate(3.881 5.064)">
              <path id="Trazado_139223" data-name="Trazado 139223" d="M41.281,80.061a6.609,6.609,0,0,0-.637-1.425h0a6.246,6.246,0,0,0-.91-1.243h0a5.275,5.275,0,0,0-1.122-.91l-.515-.334H36.46l1.546-.879h1.183l.425.212a4.428,4.428,0,0,1,.97.758l.152.152h0l.243.3.212.273v.243a1.243,1.243,0,0,1,.152.273h0v.455a1.092,1.092,0,0,1,0,.273v.546h0v.334a2.062,2.062,0,0,1,0,.425,3.882,3.882,0,0,1,0,.576A2.092,2.092,0,0,1,40.493,82l-1.546.879A2.032,2.032,0,0,0,39.826,81a4.882,4.882,0,0,0-.243-1.455Z" transform="translate(-35.52 -75.27)" fill="#262626"/>
              <path id="Trazado_139224" data-name="Trazado 139224" d="M39.182,75.91c-1.637-.94-3.032-.182-3.032,1.728a6.519,6.519,0,0,0,3.032,5.125c1.607.94,3.032.182,3.032-1.7A6.55,6.55,0,0,0,39.182,75.91Z" transform="translate(-36.15 -74.788)" fill="#2b2b2b"/>
            </g>
          </g>
          <path id="Trazado_139225" data-name="Trazado 139225" d="M63.851,122.455h0a14.034,14.034,0,0,0,.97-1.274.667.667,0,0,1,.152-.243c.243-.424.485-.819.7-1.274v-.273a12.675,12.675,0,0,0,.637-1.607v-.212a15.94,15.94,0,0,0,.455-1.819v-.182c0-.667.243-1.395.3-2.123h0v-2.4a23.683,23.683,0,0,0,0-2.517h0a22.627,22.627,0,0,0-.3-2.456v-.243a10.838,10.838,0,0,0-.485-2.517h0c-.212-.849-.425-1.7-.7-2.547h0c-.273-.849-.546-1.7-.849-2.547h0c-.334-.849-.667-1.728-1.061-2.577h0c-.364-.849-.758-1.668-1.152-2.486v-.182l-.3-.515c-.667-1.3-1.395-2.547-2.153-3.79,0-.152-.212-.334-.334-.515v-.182c-.485-.758-1-1.516-1.546-2.244h0c-.546-.728-1.122-1.456-1.7-2.153h0c-.546-.7-1.152-1.365-1.728-2h0c-.606-.637-1.243-1.274-1.85-1.85h0c-.606-.576-1.243-1.122-1.88-1.668h0c-.667-.546-1.334-1.031-2.032-1.516h0c-.7-.485-1.395-.94-2.123-1.365s-1.455-.788-2.153-1.122h0a20.521,20.521,0,0,0-1.971-.788h-.182a15.459,15.459,0,0,0-1.85-.515h-.182L38.8,72.483h-2.4a9.1,9.1,0,0,0-1.274.152l-1.152.3-.576.182a14.849,14.849,0,0,0-1.577.728l10.4-6.065a9.339,9.339,0,0,1,1.577-.728l.546-.182,1.152-.3h4a6.482,6.482,0,0,1,1.061.182h.97l.94.273h.91l.879.334.7.334h.182l.879.425.849.485.334.182.546.3.849.546a6.67,6.67,0,0,1,.758.515h0l.849.637.849.667.243.182h.182L61.91,72a9.431,9.431,0,0,1,.849.7l.606.576h0l.758.728a8.282,8.282,0,0,1,.7.758l.273.273h0l.273.3L66,76l.576.7.273.334h0a1.4,1.4,0,0,1,.212.212l.515.667.546.667.425.606h0l.515.728c.212.3.425.606.606.91l.394.546v.182l.182.243.152.273c.788,1.243,1.516,2.486,2.183,3.79a1.245,1.245,0,0,1,0,.273.91.91,0,0,1,0,.243v.182l.334.637.455,1,.364.819h0a2.076,2.076,0,0,0,.334.758,8.4,8.4,0,0,1,.3.788c.091.243.212.546.3.819v.212h0l.182.485a3.8,3.8,0,0,0,.3.879l.273.879v.455a3.033,3.033,0,0,0,.152.485l.273,1A5.678,5.678,0,0,0,76.1,96.8h0a1.766,1.766,0,0,0,.212,1.031c.212.334,0,.728.212,1.092a1.787,1.787,0,0,0,0,.394v.243a2.336,2.336,0,0,1,0,.455,2.58,2.58,0,0,0,.152,1.061v5.064a8,8,0,0,0,1.152,1.152h0v.94l-.182.94a.394.394,0,0,1,0,.182v.728a8.518,8.518,0,0,1-.243.94,1.487,1.487,0,0,1,0,.334v.606a9.252,9.252,0,0,1-.394.97v.515a.505.505,0,0,1-.243.515l-.455.758a1.694,1.694,0,0,0-.152.243h0a11.524,11.524,0,0,1-.879,1.152h0a8.246,8.246,0,0,1-.728.728l-.455.455a12.129,12.129,0,0,1-1.365.94l-10.4,6.065a8.4,8.4,0,0,0,1.365-.94l.364-.364q-.095-.277-.212-.546Z" transform="translate(-25.038 -66.57)" fill="#313132"/>
          <path id="Trazado_139226" data-name="Trazado 139226" d="M72.042,107.732c0,13.494-9.582,18.952-21.226,12.129A46.576,46.576,0,0,1,29.59,83.17c0-13.494,9.582-18.952,21.226-12.129a46.788,46.788,0,0,1,21.226,36.691Zm-21.226,1.425c6.58,3.79,11.947.758,11.947-6.823A26.108,26.108,0,0,0,50.907,81.775c-6.58-3.79-11.917-.758-11.947,6.823a26.2,26.2,0,0,0,11.856,20.559Z" transform="translate(-29.59 -63.461)" fill="#212122"/>
        </g>
        <path id="Trazado_139227" data-name="Trazado 139227" d="M75.027,112.523v-.273a12.809,12.809,0,0,0-.606-3.032h0c-.243-1.031-.515-2.062-.819-3.032V106c-.334-1.031-.667-2.062-1.031-3.032h0c-.394-1.061-.819-2.092-1.274-3.032h0c-.455-1.031-.91-2.032-1.425-3.032v-.243c-.515-1-1.031-2-1.607-3.032h0c-.576-.97-1.152-1.91-1.759-2.85V90.57c-.637-.94-1.243-1.85-1.91-2.729h0c-.667-.91-1.365-1.789-2.062-2.668h0c-.7-.819-1.425-1.637-2.153-2.426h0A31.716,31.716,0,0,0,58.107,80.5h0c-.758-.7-1.546-1.365-2.3-2l-.91-1.092c-.788-.637-1.607-1.274-2.456-1.85h0c-.879-.606-1.728-1.152-2.608-1.668l-1.122-.606h-.273l-1.213-.576h-.3l-.91-.394-.425-.152-.758-.3H44.34l-.7-.212H43.1l-.637-.182H38.852a7.7,7.7,0,0,0-1.183,0h-.212a16.434,16.434,0,0,0-1.759.182H34.334l-.637.212H33.3l-.849-.334H32.12l-.94.485,10.37-6.065a9.645,9.645,0,0,1,.97-.485h.3l.667-.273h.425l.606-.212H45.8a15.863,15.863,0,0,1,1.728-.182h0a7.7,7.7,0,0,1,1.183,0H54.2l.7.667h.334l.425.182h.667l.667.3h.3l1.061.515h.273l.728.364.394.243.667.394,1.031.637.91.637h0l1.031.758,1.061.788a1.182,1.182,0,0,0,.3.243l.182.182.546.425,1,.879.758.7h0l.91.91a12.127,12.127,0,0,1,.879.879l.364.364h0l.334.364.758.819.728.849.334.394h0l.212.273.667.788.637.849.546.758h0l.606.849L75,81.928l.455.7v.212l.182.3q.819,1.213,1.546,2.547h0c.485.879,1,1.789,1.456,2.7l.152.273a.607.607,0,0,0,0,.243l.364.788c.212.394.394.819.606,1.213s.273.667.425,1h0c0,.334.273.637.394.94s.273.667.394,1l.364.94a1.091,1.091,0,0,1,0,.273h0l.212.576.364,1.092.364,1.061v.546l.182.637a6.628,6.628,0,0,0,.334,1.213c.091.425.212.849.334,1.274h0l.273,1.274a10.284,10.284,0,0,0,.243,1.334V105.4l.182,1.3v3.76a3.03,3.03,0,0,1,0,.515l-10.37,6.065v-3.032h0C75.3,114.494,75.178,113.524,75.027,112.523Z" transform="translate(-23.599 -64.773)" fill="#ffe24e"/>
        <path id="Trazado_139228" data-name="Trazado 139228" d="M54.727,70.144C40.415,61.9,28.71,68.537,28.68,85l1.031.606c0-15.8,11.28-22.2,25.016-14.252s24.865,27.29,24.834,43l1.031.606C80.653,98.527,69.07,78.423,54.727,70.144Z" transform="translate(-28.68 -61.055)" fill="#ffa800"/>
      </g>
    </g>
  </g>
</svg>
