<svg xmlns="http://www.w3.org/2000/svg" width="119.753" height="119.753" viewBox="0 0 119.753 119.753">
  <g id="avt1" transform="translate(-1038.222 -744.066)">
    <g id="Grupo_58573" data-name="Grupo 58573" transform="translate(1041.09 754)">
      <path id="Trazado_121314" data-name="Trazado 121314" d="M45.962,0A45.962,45.962,0,1,1,0,45.962,45.962,45.962,0,0,1,45.962,0Z" transform="translate(-2.869 24.65) rotate(-22.1)" fill="#fff"/>
    </g>
    <g id="talento-humano-1" transform="translate(1065.286 772.05)">
      <g id="Grupo_60569" data-name="Grupo 60569" transform="translate(20.692 54.162)">
        <path id="Trazado_138058" data-name="Trazado 138058" d="M284.309,422.582h9.5v7.749h-9.5Zm0,0" transform="translate(-268.561 -422.582)" fill="#ba6746"/>
        <path id="Trazado_138059" data-name="Trazado 138059" d="M161.441,422.582h9.5v7.749h-9.5Zm0,0" transform="translate(-161.441 -422.582)" fill="#ba6746"/>
        <path id="Trazado_138060" data-name="Trazado 138060" d="M407.176,422.582h9.5v7.749h-9.5Zm0,0" transform="translate(-375.68 -422.582)" fill="#ba6746"/>
      </g>
      <path id="Trazado_138061" data-name="Trazado 138061" d="M177.72,472.164H132.6a1.875,1.875,0,1,1,0-3.75H177.72a1.875,1.875,0,0,1,0,3.75Zm0,0" transform="translate(-113.971 -408.377)" fill="#e28c71"/>
      <path id="Trazado_138062" data-name="Trazado 138062" d="M177.72,411.707H132.6a1.875,1.875,0,1,1,0-3.749H177.72a1.875,1.875,0,0,1,0,3.749Zm0,0" transform="translate(-113.971 -355.669)" fill="#e28c71"/>
      <path id="Trazado_138063" data-name="Trazado 138063" d="M193.458,295.424H178.243a1.926,1.926,0,0,1-1.926-1.926V280.813a1.926,1.926,0,0,1,1.926-1.927h15.215a1.926,1.926,0,0,1,1.926,1.927V293.5A1.926,1.926,0,0,1,193.458,295.424Zm0,0" transform="translate(-153.718 -243.142)" fill="#965028"/>
      <path id="Trazado_138064" data-name="Trazado 138064" d="M272.653,353.031l-2.182-2.181a.417.417,0,0,0-.589,0l-2.181,2.181a.417.417,0,0,0,.295.711h.106a.416.416,0,0,1,.417.417v3.482a.417.417,0,0,0,.417.417h2.485a.417.417,0,0,0,.417-.417v-3.482a.417.417,0,0,1,.417-.417h.106A.417.417,0,0,0,272.653,353.031Zm0,0" transform="translate(-233.281 -305.775)" fill="#fa503c"/>
      <path id="Trazado_138065" data-name="Trazado 138065" d="M365.751,295.424H350.536a1.926,1.926,0,0,1-1.926-1.926V280.813a1.927,1.927,0,0,1,1.926-1.927h15.215a1.927,1.927,0,0,1,1.927,1.927V293.5A1.926,1.926,0,0,1,365.751,295.424Zm0,0" transform="translate(-303.928 -243.142)" fill="#965028"/>
      <path id="Trazado_138066" data-name="Trazado 138066" d="M444.949,353.031l-2.181-2.181a.417.417,0,0,0-.589,0L440,353.031a.417.417,0,0,0,.294.711h.106a.417.417,0,0,1,.417.417v3.482a.417.417,0,0,0,.417.417h2.485a.417.417,0,0,0,.417-.417v-3.482a.416.416,0,0,1,.417-.417h.106A.417.417,0,0,0,444.949,353.031Zm0,0" transform="translate(-383.494 -305.775)" fill="#fa503c"/>
      <path id="Trazado_138067" data-name="Trazado 138067" d="M294.544,166.768H279.329a1.926,1.926,0,0,1-1.926-1.926V152.157a1.926,1.926,0,0,1,1.926-1.926h15.215a1.926,1.926,0,0,1,1.926,1.926v12.685A1.926,1.926,0,0,1,294.544,166.768Zm0,0" transform="translate(-241.847 -130.976)" fill="#965028"/>
      <path id="Trazado_138068" data-name="Trazado 138068" d="M373.741,224.375l-2.181-2.181a.417.417,0,0,0-.589,0l-2.181,2.181a.417.417,0,0,0,.294.711h.106a.417.417,0,0,1,.417.417v3.482a.417.417,0,0,0,.417.417h2.485a.417.417,0,0,0,.417-.417V225.5a.416.416,0,0,1,.417-.417h.106A.417.417,0,0,0,373.741,224.375Zm0,0" transform="translate(-321.413 -193.609)" fill="#fa503c"/>
      <path id="Trazado_138069" data-name="Trazado 138069" d="M108.821,291.041a3.039,3.039,0,0,1-3.04-3.04V263.7a3.04,3.04,0,1,1,6.08,0V288A3.04,3.04,0,0,1,108.821,291.041Zm0,0" transform="translate(-92.223 -227.255)" fill="#414b82"/>
      <path id="Trazado_138070" data-name="Trazado 138070" d="M51.567,291.041a3.039,3.039,0,0,1-3.04-3.04V263.7a3.04,3.04,0,1,1,6.08,0V288A3.04,3.04,0,0,1,51.567,291.041Zm0,0" transform="translate(-42.308 -227.255)" fill="#5f6e9b"/>
      <path id="Trazado_138071" data-name="Trazado 138071" d="M70.2,5.25A5.25,5.25,0,1,1,64.945,0,5.25,5.25,0,0,1,70.2,5.25Zm0,0" transform="translate(-52.044 0)" fill="#ffb69e"/>
      <path id="Trazado_138072" data-name="Trazado 138072" d="M31.154,80.014A2.533,2.533,0,0,0,27.8,81.272l-2.089,4.6-3.026-2.7a5.539,5.539,0,0,0-3.68-1.407c-4.974-.008-8.414.04-12.917.019A6.019,6.019,0,0,0,0,87.7v18.562a2.573,2.573,0,0,0,2.441,2.592,2.533,2.533,0,0,0,2.626-2.531v-18.6A1.02,1.02,0,0,1,6.088,86.8H6.22v19.21H19.638V87.255l5.281,4.679a2.534,2.534,0,0,0,3.986-.848l3.508-7.718a2.533,2.533,0,0,0-1.258-3.354Zm0,0" transform="translate(0 -69.56)" fill="#ffb69e"/>
      <path id="Trazado_138073" data-name="Trazado 138073" d="M22.685,96.569a5.542,5.542,0,0,0-3.68-1.407c-1.205,0-2.32,0-3.382,0,0,.013,0,.025,0,.038a2.849,2.849,0,0,1-5.7,0v-.018c-1.231,0-2.487,0-3.839,0A6.019,6.019,0,0,0,0,101.1v5.074H5.066v-5.053a1.02,1.02,0,0,1,1.022-.919H6.22v19.21H19.638V100.659l2.961,2.624,2.569-4.5Zm0,0" transform="translate(0 -82.964)" fill="#64afff"/>
    </g>
  </g>
</svg>
