<svg xmlns="http://www.w3.org/2000/svg" width="119.753" height="119.753" viewBox="0 0 119.753 119.753">
  <g id="avt6" transform="translate(-1038 -2725)">
    <g id="Grupo_60576" data-name="Grupo 60576" transform="translate(1040.869 2734.934)">
      <path id="Trazado_121314" data-name="Trazado 121314" d="M45.962,0A45.962,45.962,0,1,1,0,45.962,45.962,45.962,0,0,1,45.962,0Z" transform="translate(-2.869 24.65) rotate(-22.1)" fill="#fff"/>
    </g>
    <g id="talento-humano-6" transform="translate(1068 2750)">
      <path id="Trazado_138141" data-name="Trazado 138141" d="M52.33,6.185A6.184,6.184,0,1,1,46.146,0,6.184,6.184,0,0,1,52.33,6.185Zm0,0" transform="translate(-34.539 0)" fill="#ffb69e"/>
      <path id="Trazado_138142" data-name="Trazado 138142" d="M54.342,8.959A6.185,6.185,0,1,0,43.05,3.944Zm0,0" transform="translate(-37.209 0.001)" fill="#fa503c"/>
      <path id="Trazado_138143" data-name="Trazado 138143" d="M101.957,44.044l-7.636-3.418a2.985,2.985,0,0,1,3.946-1.5l4.909,2.205a1.487,1.487,0,1,1-1.219,2.712Zm0,0" transform="translate(-81.523 -33.591)" fill="#e83e29"/>
      <path id="Trazado_138144" data-name="Trazado 138144" d="M64.241,280.91a3.312,3.312,0,0,1-3.313-3.313l0-29.652a3.313,3.313,0,0,1,6.626,0l0,29.652a3.313,3.313,0,0,1-3.313,3.313Zm0,0" transform="translate(-52.659 -211.441)" fill="#414b82"/>
      <path id="Trazado_138145" data-name="Trazado 138145" d="M3.393,284.739a3.312,3.312,0,0,1-3.313-3.3L0,252.386a3.313,3.313,0,0,1,6.626-.02l.08,29.051a3.312,3.312,0,0,1-3.3,3.323h-.01Zm0,0" transform="translate(0 -215.27)" fill="#5f6e9b"/>
      <path id="Trazado_138146" data-name="Trazado 138146" d="M181.739,201.172h-12.3a1.6,1.6,0,0,1-1.6-1.6v-7.991a1.6,1.6,0,0,1,1.6-1.6h12.3a1.6,1.6,0,0,1,1.6,1.6v7.991A1.6,1.6,0,0,1,181.739,201.172Zm0,0" transform="translate(-145.07 -164.208)" fill="#ba6746"/>
      <path id="Trazado_138147" data-name="Trazado 138147" d="M40.672,116.819,30.58,111.784a2.832,2.832,0,1,1,2.529-5.068l9.217,4.6L51,109.543a2.832,2.832,0,1,1,1.134,5.549L42.5,117.06a2.832,2.832,0,0,1-1.832-.241Zm0,0" transform="translate(-25.075 -91.979)" fill="#ffb69e"/>
      <path id="Trazado_138148" data-name="Trazado 138148" d="M14.894,127H0V105.274a3.888,3.888,0,0,1,3.888-3.888h7.119a3.888,3.888,0,0,1,3.888,3.888Zm0,0" transform="translate(0 -87.631)" fill="#55c7a6"/>
      <path id="Trazado_138149" data-name="Trazado 138149" d="M47.127,125.893l-9.635-4.765a2.829,2.829,0,0,1-1.022-.855l-6.9-9.334a2.832,2.832,0,0,1,4.554-3.366l6.491,8.783,9.02,4.461a2.832,2.832,0,1,1-2.511,5.077Zm0,0" transform="translate(-25.08 -91.984)" fill="#ffb69e"/>
      <path id="Trazado_138150" data-name="Trazado 138150" d="M37.819,112.567l-3.693-5a2.832,2.832,0,0,0-4.554,3.366l3.551,4.805Zm0,0" transform="translate(-25.08 -91.983)" fill="#39ae96"/>
      <path id="Trazado_138151" data-name="Trazado 138151" d="M155.625,110.687a1.357,1.357,0,0,1,.625-1.814l8.066-3.932a1.357,1.357,0,0,1,1.189,2.439l-8.066,3.932A1.357,1.357,0,0,1,155.625,110.687Zm0,0" transform="translate(-134.391 -90.584)" fill="#55879b"/>
      <path id="Trazado_138152" data-name="Trazado 138152" d="M241.873,466.168a1.212,1.212,0,1,1-1.212,1.212,1.214,1.214,0,0,1,1.212-1.212m0-2.035a3.247,3.247,0,1,0,3.247,3.247A3.247,3.247,0,0,0,241.873,464.133Zm0,0" transform="translate(-206.248 -401.159)" fill="#373c41"/>
      <path id="Trazado_138153" data-name="Trazado 138153" d="M329.642,466.168a1.212,1.212,0,1,1-1.213,1.212,1.214,1.214,0,0,1,1.213-1.212m0-2.035a3.247,3.247,0,1,0,3.247,3.247A3.248,3.248,0,0,0,329.642,464.133Zm0,0" transform="translate(-282.108 -401.159)" fill="#373c41"/>
      <path id="Trazado_138154" data-name="Trazado 138154" d="M236.125,240.207h-5.058a1.7,1.7,0,0,0-1.7,1.693l-.043,27.265H207.454a1.7,1.7,0,1,0,0,3.392h23.566a1.7,1.7,0,0,0,1.7-1.693l.043-27.265h3.365a1.7,1.7,0,0,0,0-3.392Zm0,0" transform="translate(-177.84 -207.615)" fill="#b9cdd2"/>
      <path id="Trazado_138155" data-name="Trazado 138155" d="M244.976,356.88H230.934a1.778,1.778,0,0,1-1.778-1.778V343.4a1.777,1.777,0,0,1,1.778-1.778h14.042a1.778,1.778,0,0,1,1.778,1.778V355.1A1.778,1.778,0,0,1,244.976,356.88Zm0,0" transform="translate(-198.064 -295.266)" fill="#965028"/>
      <path id="Trazado_138156" data-name="Trazado 138156" d="M313.4,406.372l-2.014-2.013a.384.384,0,0,0-.544,0l-2.013,2.013a.385.385,0,0,0,.272.657h.1a.385.385,0,0,1,.384.384v3.213a.385.385,0,0,0,.385.384h2.293a.385.385,0,0,0,.385-.384v-3.213a.385.385,0,0,1,.384-.384h.1A.385.385,0,0,0,313.4,406.372Zm0,0" transform="translate(-266.83 -349.397)" fill="#fa503c"/>
    </g>
  </g>
</svg>
