<svg id="_1" data-name=" 1" xmlns="http://www.w3.org/2000/svg" width="673.875" height="504.583" viewBox="0 0 673.875 504.583">
  <g id="Grupo_54583" data-name="Grupo 54583">
    <rect id="Rectángulo_29462" data-name="Rectángulo 29462" width="39.993" height="448.279" transform="translate(211.972 0.556)" fill="#7d97f4"/>
    <rect id="Rectángulo_29463" data-name="Rectángulo 29463" width="39.993" height="448.835" transform="translate(449.182 0)" fill="#7d97f4"/>
    <g id="Grupo_54547" data-name="Grupo 54547" transform="translate(117.884 201.455)">
      <rect id="Rectángulo_29465" data-name="Rectángulo 29465" width="46.48" height="37.841" fill="#c8d8fa"/>
      <rect id="Rectángulo_29466" data-name="Rectángulo 29466" width="46.48" height="37.841" transform="translate(23.245)" fill="#8eb4f9"/>
      <path id="Trazado_117938" data-name="Trazado 117938" d="M139.18,279.9h7.369l-.65-2.03.65-1.472H139.18Z" transform="translate(-139.15 -251.663)" fill="#a6c1f0"/>
      <path id="Trazado_117939" data-name="Trazado 117939" d="M162.05,263.612h7.369l-.65-2.03.65-1.452H162.05Z" transform="translate(-138.805 -251.908)" fill="#e5effd"/>
      <path id="Trazado_117940" data-name="Trazado 117940" d="M162.159,260.11H154.8l.639,2.03L154.8,263.6h7.359Z" transform="translate(-138.914 -251.908)" fill="#a6c1f0"/>
      <path id="Trazado_117941" data-name="Trazado 117941" d="M207.959,280.25H200.59l.65,2.03-.65,1.462h7.369Z" transform="translate(-138.225 -251.605)" fill="#e5effd"/>
      <rect id="Rectángulo_29467" data-name="Rectángulo 29467" width="13.379" height="5.136" transform="translate(53.311 2.558)" fill="#fff"/>
    </g>
    <g id="Grupo_54548" data-name="Grupo 54548" transform="translate(380.799 214.062)">
      <rect id="Rectángulo_29468" data-name="Rectángulo 29468" width="30.99" height="25.224" fill="#c8d8fa"/>
      <rect id="Rectángulo_29469" data-name="Rectángulo 29469" width="30.99" height="25.224" transform="translate(15.5)" fill="#8eb4f9"/>
      <path id="Trazado_117942" data-name="Trazado 117942" d="M415.33,283.035h4.913l-.436-1.38.436-.964H415.33Z" transform="translate(-415.31 -264.205)" fill="#a6c1f0"/>
      <path id="Trazado_117943" data-name="Trazado 117943" d="M430.58,272.175h4.9l-.416-1.36.426-1.015h-4.9Z" transform="translate(-415.08 -264.369)" fill="#e5effd"/>
      <path id="Trazado_117944" data-name="Trazado 117944" d="M430.653,269.84H425.74l.426,1.36-.426,1.015h4.913Z" transform="translate(-415.153 -264.369)" fill="#a6c1f0"/>
      <path id="Trazado_117945" data-name="Trazado 117945" d="M461.183,283.27H456.27l.436,1.37-.436,1.015h4.913Z" transform="translate(-414.693 -264.167)" fill="#e5effd"/>
      <rect id="Rectángulo_29470" data-name="Rectángulo 29470" width="8.912" height="3.421" transform="translate(35.537 1.715)" fill="#fff"/>
    </g>
    <g id="Grupo_54549" data-name="Grupo 54549" transform="translate(316.605 206.591)">
      <rect id="Rectángulo_29471" data-name="Rectángulo 29471" width="40.176" height="32.705" fill="#c8d8fa"/>
      <rect id="Rectángulo_29472" data-name="Rectángulo 29472" width="40.176" height="32.705" transform="translate(20.088)" fill="#8eb4f9"/>
      <path id="Trazado_117946" data-name="Trazado 117946" d="M348.31,281.175h6.364l-.558-1.766.558-1.259H348.31Z" transform="translate(-348.28 -256.773)" fill="#a6c1f0"/>
      <path id="Trazado_117947" data-name="Trazado 117947" d="M368.08,267.105h6.364l-.558-1.776.558-1.259H368.08Z" transform="translate(-347.982 -256.985)" fill="#e5effd"/>
      <path id="Trazado_117948" data-name="Trazado 117948" d="M368.174,264.07H361.81l.558,1.766-.558,1.269h6.364Z" transform="translate(-348.076 -256.985)" fill="#a6c1f0"/>
      <path id="Trazado_117949" data-name="Trazado 117949" d="M407.754,281.48H401.39l.558,1.766-.558,1.269h6.364Z" transform="translate(-347.48 -256.723)" fill="#e5effd"/>
      <rect id="Rectángulo_29473" data-name="Rectángulo 29473" width="11.562" height="4.436" transform="translate(46.084 2.213)" fill="#fff"/>
    </g>
    <g id="Grupo_54550" data-name="Grupo 54550" transform="translate(44.043 201.455)">
      <rect id="Rectángulo_29474" data-name="Rectángulo 29474" width="46.48" height="37.841" fill="#c8d8fa"/>
      <rect id="Rectángulo_29475" data-name="Rectángulo 29475" width="46.48" height="37.841" transform="translate(23.245)" fill="#8eb4f9"/>
      <path id="Trazado_117950" data-name="Trazado 117950" d="M58.31,279.9h7.369l-.65-2.03.65-1.472H58.31Z" transform="translate(-58.28 -251.663)" fill="#a6c1f0"/>
      <path id="Trazado_117951" data-name="Trazado 117951" d="M81.18,263.612h7.369l-.65-2.03.65-1.452H81.18Z" transform="translate(-57.935 -251.908)" fill="#e5effd"/>
      <path id="Trazado_117952" data-name="Trazado 117952" d="M81.289,260.11H73.92l.66,2.03-.66,1.462h7.369Z" transform="translate(-58.044 -251.908)" fill="#a6c1f0"/>
      <path id="Trazado_117953" data-name="Trazado 117953" d="M127.109,280.25H119.74l.65,2.03-.65,1.462h7.369Z" transform="translate(-57.354 -251.605)" fill="#e5effd"/>
      <rect id="Rectángulo_29476" data-name="Rectángulo 29476" width="13.379" height="5.136" transform="translate(53.311 2.558)" fill="#fff"/>
    </g>
    <rect id="Rectángulo_29477" data-name="Rectángulo 29477" width="197.876" height="195.236" transform="translate(475.998 252.513)" fill="#1e168c"/>
    <g id="Grupo_54551" data-name="Grupo 54551" transform="translate(482.201 258.137)">
      <rect id="Rectángulo_29478" data-name="Rectángulo 29478" width="185.492" height="17.855" fill="#e5effd"/>
      <rect id="Rectángulo_29479" data-name="Rectángulo 29479" width="185.492" height="17.855" transform="translate(0 38.309)" fill="#e5effd"/>
      <rect id="Rectángulo_29480" data-name="Rectángulo 29480" width="185.492" height="17.855" transform="translate(0 17.703)" fill="#99b0f6"/>
      <rect id="Rectángulo_29481" data-name="Rectángulo 29481" width="185.492" height="17.855" transform="translate(0 76.606)" fill="#e5effd"/>
      <rect id="Rectángulo_29482" data-name="Rectángulo 29482" width="185.492" height="17.855" transform="translate(0 57.457)" fill="#99b0f6"/>
      <rect id="Rectángulo_29483" data-name="Rectángulo 29483" width="185.492" height="17.855" transform="translate(0 114.487)" fill="#e5effd"/>
      <rect id="Rectángulo_29484" data-name="Rectángulo 29484" width="185.492" height="17.855" transform="translate(0 95.338)" fill="#99b0f6"/>
      <rect id="Rectángulo_29485" data-name="Rectángulo 29485" width="185.492" height="17.855" transform="translate(0 133.471)" fill="#99b0f6"/>
      <rect id="Rectángulo_29486" data-name="Rectángulo 29486" width="185.492" height="17.855" transform="translate(0 154.207)" fill="#e5effd"/>
      <rect id="Rectángulo_29487" data-name="Rectángulo 29487" width="185.492" height="17.855" transform="translate(0 171.757)" fill="#99b0f6"/>
    </g>
    <rect id="Rectángulo_29488" data-name="Rectángulo 29488" width="197.876" height="33.832" transform="translate(475.999 218.68)" fill="#7d97f4"/>
    <g id="Grupo_54559" data-name="Grupo 54559" transform="translate(13.976 239.296)">
      <rect id="Rectángulo_29489" data-name="Rectángulo 29489" width="17.875" height="210.544" fill="#1e168c"/>
      <rect id="Rectángulo_29490" data-name="Rectángulo 29490" width="14.861" height="210.544" transform="translate(196.019)" fill="#1e168c"/>
      <rect id="Rectángulo_29491" data-name="Rectángulo 29491" width="193.004" height="5.481" transform="translate(17.885)" fill="#1e168c"/>
      <rect id="Rectángulo_29492" data-name="Rectángulo 29492" width="193.004" height="5.481" transform="translate(17.885 99.791)" fill="#1e168c"/>
      <rect id="Rectángulo_29493" data-name="Rectángulo 29493" width="193.004" height="5.481" transform="translate(17.885 183.483)" fill="#1e168c"/>
      <g id="Grupo_54552" data-name="Grupo 54552" transform="translate(115.382 60.66)">
        <rect id="Rectángulo_29494" data-name="Rectángulo 29494" width="48.053" height="39.12" fill="#b0c6ea"/>
        <rect id="Rectángulo_29495" data-name="Rectángulo 29495" width="48.053" height="39.12" transform="translate(24.027)" fill="#8eb4f9"/>
        <path id="Trazado_117954" data-name="Trazado 117954" d="M142.35,377.894h7.623l-.67-2.111.67-1.512H142.35Z" transform="translate(-142.33 -348.69)" fill="#a6c1f0"/>
        <path id="Trazado_117955" data-name="Trazado 117955" d="M166,361.054h7.613l-.67-2.121.67-1.5H166Z" transform="translate(-141.973 -348.944)" fill="#e5effd"/>
        <path id="Trazado_117956" data-name="Trazado 117956" d="M166.113,357.43H158.5l.67,2.111-.67,1.512h7.613Z" transform="translate(-142.086 -348.944)" fill="#a6c1f0"/>
        <path id="Trazado_117957" data-name="Trazado 117957" d="M213.463,378.25H205.84l.67,2.121-.67,1.512h7.623Z" transform="translate(-141.373 -348.631)" fill="#e5effd"/>
        <rect id="Rectángulo_29496" data-name="Rectángulo 29496" width="13.835" height="5.309" transform="translate(55.108 2.659)" fill="#fff"/>
      </g>
      <g id="Grupo_54553" data-name="Grupo 54553" transform="translate(53.707 60.66)">
        <rect id="Rectángulo_29497" data-name="Rectángulo 29497" width="48.053" height="39.12" fill="#c8d8fa"/>
        <rect id="Rectángulo_29498" data-name="Rectángulo 29498" width="48.053" height="39.12" transform="translate(24.027)" fill="#8eb4f9"/>
        <path id="Trazado_117958" data-name="Trazado 117958" d="M81.6,377.894h7.613l-.67-2.111.67-1.512H81.6Z" transform="translate(-81.57 -348.69)" fill="#a6c1f0"/>
        <path id="Trazado_117959" data-name="Trazado 117959" d="M105.24,361.054h7.613l-.67-2.121.67-1.5H105.24Z" transform="translate(-81.213 -348.944)" fill="#e5effd"/>
        <path id="Trazado_117960" data-name="Trazado 117960" d="M105.353,357.43H97.74l.67,2.111-.67,1.512h7.613Z" transform="translate(-81.326 -348.944)" fill="#a6c1f0"/>
        <path id="Trazado_117961" data-name="Trazado 117961" d="M152.7,378.25H145.08l.68,2.121-.68,1.512H152.7Z" transform="translate(-80.613 -348.631)" fill="#e5effd"/>
        <path id="Trazado_117962" data-name="Trazado 117962" d="M152.7,356.92H145.08l.68,2.111-.68,1.512H152.7Z" transform="translate(-80.613 -348.952)" fill="#e5effd"/>
        <rect id="Rectángulo_29499" data-name="Rectángulo 29499" width="22.545" height="8.658" transform="translate(28.878 26.28)" fill="#fff"/>
      </g>
      <g id="Grupo_54554" data-name="Grupo 54554" transform="translate(115.382 149.539)">
        <rect id="Rectángulo_29500" data-name="Rectángulo 29500" width="41.536" height="33.812" fill="#c8d8fa"/>
        <rect id="Rectángulo_29501" data-name="Rectángulo 29501" width="41.536" height="33.812" transform="translate(20.768)" fill="#8eb4f9"/>
        <path id="Trazado_117963" data-name="Trazado 117963" d="M142.35,461.547h6.588l-.579-1.837.579-1.3H142.35Z" transform="translate(-142.33 -436.302)" fill="#a6c1f0"/>
        <path id="Trazado_117964" data-name="Trazado 117964" d="M162.79,446.987h6.578l-.579-1.827.579-1.309H162.79Z" transform="translate(-142.022 -436.521)" fill="#e5effd"/>
        <path id="Trazado_117965" data-name="Trazado 117965" d="M162.888,443.85H156.3l.579,1.837-.579,1.3h6.588Z" transform="translate(-142.12 -436.521)" fill="#a6c1f0"/>
        <path id="Trazado_117966" data-name="Trazado 117966" d="M203.808,461.86H197.22l.589,1.827L197.22,465h6.588Z" transform="translate(-141.503 -436.25)" fill="#e5effd"/>
        <rect id="Rectángulo_29502" data-name="Rectángulo 29502" width="11.957" height="4.588" transform="translate(47.627 2.294)" fill="#fff"/>
      </g>
      <g id="Grupo_54555" data-name="Grupo 54555" transform="translate(36.491 144.23)">
        <rect id="Rectángulo_29503" data-name="Rectángulo 29503" width="48.053" height="39.12" fill="#c8d8fa"/>
        <rect id="Rectángulo_29504" data-name="Rectángulo 29504" width="48.053" height="39.12" transform="translate(24.027)" fill="#8eb4f9"/>
        <path id="Trazado_117967" data-name="Trazado 117967" d="M64.63,460.224h7.623l-.67-2.111.67-1.512H64.63Z" transform="translate(-64.61 -431.02)" fill="#3a4f92"/>
        <path id="Trazado_117968" data-name="Trazado 117968" d="M88.28,443.384h7.613l-.67-2.121.67-1.5H88.28Z" transform="translate(-64.254 -431.274)" fill="#6f8bbd"/>
        <path id="Trazado_117969" data-name="Trazado 117969" d="M88.393,439.76H80.78l.67,2.111-.67,1.512h7.613Z" transform="translate(-64.366 -431.274)" fill="#3a4f92"/>
        <path id="Trazado_117970" data-name="Trazado 117970" d="M135.743,460.58H128.12l.67,2.121-.67,1.512h7.623Z" transform="translate(-63.653 -430.961)" fill="#6f8bbd"/>
        <rect id="Rectángulo_29505" data-name="Rectángulo 29505" width="13.835" height="5.309" transform="translate(55.108 2.659)" fill="#fff"/>
      </g>
      <g id="Grupo_54556" data-name="Grupo 54556" transform="translate(50.022 30.574)">
        <rect id="Rectángulo_29506" data-name="Rectángulo 29506" width="36.745" height="29.914" fill="#c8d8fa"/>
        <rect id="Rectángulo_29507" data-name="Rectángulo 29507" width="36.745" height="29.914" transform="translate(18.362)" fill="#8eb4f9"/>
        <path id="Trazado_117971" data-name="Trazado 117971" d="M78,341.461h5.816l-.518-1.614.518-1.157H78Z" transform="translate(-77.939 -319.14)" fill="#a6c1f0"/>
        <path id="Trazado_117972" data-name="Trazado 117972" d="M96,328.591h5.826l-.518-1.624.518-1.147H96Z" transform="translate(-77.668 -319.334)" fill="#e5effd"/>
        <path id="Trazado_117973" data-name="Trazado 117973" d="M96.086,325.82H90.3l.508,1.614-.508,1.157h5.786Z" transform="translate(-77.754 -319.334)" fill="#a6c1f0"/>
        <path id="Trazado_117974" data-name="Trazado 117974" d="M132.316,341.74H126.49l.518,1.624-.518,1.147h5.826Z" transform="translate(-77.209 -319.094)" fill="#e5effd"/>
        <rect id="Rectángulo_29508" data-name="Rectángulo 29508" width="10.577" height="4.06" transform="translate(42.125 2.03)" fill="#fff"/>
      </g>
      <g id="Grupo_54557" data-name="Grupo 54557" transform="translate(115.656 30.574)">
        <rect id="Rectángulo_29509" data-name="Rectángulo 29509" width="36.745" height="29.914" fill="#c8d8fa"/>
        <rect id="Rectángulo_29510" data-name="Rectángulo 29510" width="36.745" height="29.914" transform="translate(18.373)" fill="#8eb4f9"/>
        <path id="Trazado_117975" data-name="Trazado 117975" d="M142.62,341.461h5.826l-.518-1.614.518-1.157H142.62Z" transform="translate(-142.6 -319.14)" fill="#a6c1f0"/>
        <path id="Trazado_117976" data-name="Trazado 117976" d="M160.7,328.591h5.826l-.518-1.624.518-1.147H160.7Z" transform="translate(-142.327 -319.334)" fill="#e5effd"/>
        <path id="Trazado_117977" data-name="Trazado 117977" d="M160.786,325.82H155l.518,1.614L155,328.591h5.826Z" transform="translate(-142.413 -319.334)" fill="#a6c1f0"/>
        <path id="Trazado_117978" data-name="Trazado 117978" d="M196.986,341.74H191.16l.518,1.624-.518,1.147h5.826Z" transform="translate(-141.869 -319.094)" fill="#e5effd"/>
        <rect id="Rectángulo_29511" data-name="Rectángulo 29511" width="10.577" height="4.06" transform="translate(42.135 2.03)" fill="#fff"/>
      </g>
      <g id="Grupo_54558" data-name="Grupo 54558" transform="translate(48.662 121.543)">
        <rect id="Rectángulo_29512" data-name="Rectángulo 29512" width="27.843" height="22.666" transform="translate(13.916)" fill="#d2574d"/>
        <rect id="Rectángulo_29513" data-name="Rectángulo 29513" width="27.843" height="22.666" fill="#dd7269"/>
        <path id="Trazado_117979" data-name="Trazado 117979" d="M117.8,425.751H113.39l.386-1.228-.386-.873H117.8Z" transform="translate(-76.046 -408.83)" fill="#c47235"/>
        <path id="Trazado_117980" data-name="Trazado 117980" d="M104.065,416.031H99.68l.4-1.228-.4-.873h4.385Z" transform="translate(-76.252 -408.977)" fill="#e3928e"/>
        <path id="Trazado_117981" data-name="Trazado 117981" d="M104,413.89h4.416l-.355,1.228.4.873H104Z" transform="translate(-76.187 -408.977)" fill="#c47235"/>
        <path id="Trazado_117982" data-name="Trazado 117982" d="M76.6,426h4.405l-.386,1.218.386.883H76.6Z" transform="translate(-76.6 -408.795)" fill="#e3928e"/>
        <rect id="Rectángulo_29514" data-name="Rectángulo 29514" width="8.009" height="3.076" transform="translate(1.817 1.533)" fill="#fff"/>
      </g>
    </g>
    <g id="Grupo_54566" data-name="Grupo 54566" transform="translate(245.536 239.296)">
      <rect id="Rectángulo_29517" data-name="Rectángulo 29517" width="16.353" height="210.544" fill="#1e168c"/>
      <rect id="Rectángulo_29518" data-name="Rectángulo 29518" width="15.865" height="210.544" transform="translate(193.481)" fill="#1e168c"/>
      <rect id="Rectángulo_29519" data-name="Rectángulo 29519" width="193.004" height="4.943" transform="translate(16.353)" fill="#1e168c"/>
      <rect id="Rectángulo_29520" data-name="Rectángulo 29520" width="193.004" height="5.481" transform="translate(16.353 99.791)" fill="#1e168c"/>
      <rect id="Rectángulo_29521" data-name="Rectángulo 29521" width="193.004" height="6.527" transform="translate(16.353 183.483)" fill="#1e168c"/>
      <g id="Grupo_54560" data-name="Grupo 54560" transform="translate(113.849 60.66)">
        <rect id="Rectángulo_29522" data-name="Rectángulo 29522" width="48.053" height="39.12" fill="#c8d8fa"/>
        <rect id="Rectángulo_29523" data-name="Rectángulo 29523" width="48.053" height="39.12" transform="translate(24.026)" fill="#8eb4f9"/>
        <path id="Trazado_117983" data-name="Trazado 117983" d="M391,377.894h7.613l-.67-2.111.67-1.512H391Z" transform="translate(-390.949 -348.69)" fill="#a6c1f0"/>
        <path id="Trazado_117984" data-name="Trazado 117984" d="M414.62,361.054h7.613l-.67-2.121.67-1.5H414.62Z" transform="translate(-390.594 -348.944)" fill="#e5effd"/>
        <path id="Trazado_117985" data-name="Trazado 117985" d="M414.733,357.43H407.12l.67,2.111-.67,1.512h7.613Z" transform="translate(-390.706 -348.944)" fill="#a6c1f0"/>
        <path id="Trazado_117986" data-name="Trazado 117986" d="M462.113,378.25H454.5l.67,2.121-.67,1.512h7.613Z" transform="translate(-389.993 -348.631)" fill="#e5effd"/>
        <rect id="Rectángulo_29524" data-name="Rectángulo 29524" width="13.835" height="5.309" transform="translate(55.108 2.659)" fill="#fff"/>
      </g>
      <g id="Grupo_54561" data-name="Grupo 54561" transform="translate(52.174 60.66)">
        <rect id="Rectángulo_29525" data-name="Rectángulo 29525" width="48.053" height="39.12" fill="#c8d8fa"/>
        <rect id="Rectángulo_29526" data-name="Rectángulo 29526" width="48.053" height="39.12" transform="translate(24.026)" fill="#8eb4f9"/>
        <path id="Trazado_117987" data-name="Trazado 117987" d="M330.22,377.894h7.613l-.67-2.111.67-1.512H330.22Z" transform="translate(-330.19 -348.69)" fill="#3340b1"/>
        <path id="Trazado_117988" data-name="Trazado 117988" d="M353.86,361.054h7.613l-.67-2.121.67-1.5H353.86Z" transform="translate(-329.834 -348.944)" fill="#3a4f92"/>
        <path id="Trazado_117989" data-name="Trazado 117989" d="M353.973,357.43H346.36l.67,2.111-.67,1.512h7.613Z" transform="translate(-329.946 -348.944)" fill="#3340b1"/>
        <path id="Trazado_117990" data-name="Trazado 117990" d="M401.323,378.25H393.71l.67,2.121-.67,1.512h7.613Z" transform="translate(-329.233 -348.631)" fill="#3a4f92"/>
        <rect id="Rectángulo_29527" data-name="Rectángulo 29527" width="18.555" height="7.126" transform="translate(27.833 27.803)" fill="#fff"/>
      </g>
      <g id="Grupo_54562" data-name="Grupo 54562" transform="translate(43.211 150.097)">
        <rect id="Rectángulo_29528" data-name="Rectángulo 29528" width="40.856" height="33.264" fill="#c8d8fa"/>
        <rect id="Rectángulo_29529" data-name="Rectángulo 29529" width="40.856" height="33.264" transform="translate(20.423)" fill="#8eb4f9"/>
        <path id="Trazado_117991" data-name="Trazado 117991" d="M321.38,461.686h6.476l-.579-1.8.579-1.289H321.38Z" transform="translate(-321.36 -436.857)" fill="#a6c1f0"/>
        <path id="Trazado_117992" data-name="Trazado 117992" d="M341.48,447.366h6.476l-.568-1.8.568-1.289H341.48Z" transform="translate(-321.057 -437.073)" fill="#e5effd"/>
        <path id="Trazado_117993" data-name="Trazado 117993" d="M341.576,444.28H335.1l.568,1.8-.568,1.289h6.476Z" transform="translate(-321.153 -437.073)" fill="#a6c1f0"/>
        <path id="Trazado_117994" data-name="Trazado 117994" d="M381.826,462H375.35l.579,1.8-.579,1.289h6.476Z" transform="translate(-320.547 -436.806)" fill="#e5effd"/>
        <rect id="Rectángulo_29530" data-name="Rectángulo 29530" width="11.754" height="4.517" transform="translate(46.845 2.253)" fill="#fff"/>
      </g>
      <g id="Grupo_54563" data-name="Grupo 54563" transform="translate(109.444 150.016)">
        <rect id="Rectángulo_29531" data-name="Rectángulo 29531" width="40.958" height="33.345" transform="translate(0.01)" fill="#c8d8fa"/>
        <rect id="Rectángulo_29532" data-name="Rectángulo 29532" width="40.958" height="33.345" transform="translate(20.484)" fill="#8eb4f9"/>
        <path id="Trazado_117995" data-name="Trazado 117995" d="M386.64,461.666H393.1l-.568-1.807.568-1.289H386.61Z" transform="translate(-386.61 -436.777)" fill="#a6c1f0"/>
        <path id="Trazado_117996" data-name="Trazado 117996" d="M406.79,447.306h6.486l-.568-1.8.568-1.3H406.79Z" transform="translate(-386.306 -436.993)" fill="#e5effd"/>
        <path id="Trazado_117997" data-name="Trazado 117997" d="M406.886,444.22h-6.5l.619,1.807-.579,1.289h6.5Z" transform="translate(-386.402 -436.993)" fill="#a6c1f0"/>
        <path id="Trazado_117998" data-name="Trazado 117998" d="M447.236,462h-6.5l.579,1.8-.579,1.289h6.5Z" transform="translate(-385.795 -436.725)" fill="#e5effd"/>
        <rect id="Rectángulo_29533" data-name="Rectángulo 29533" width="11.785" height="4.527" transform="translate(46.977 2.264)" fill="#fff"/>
      </g>
      <g id="Grupo_54564" data-name="Grupo 54564" transform="translate(48.459 30.807)">
        <rect id="Rectángulo_29534" data-name="Rectángulo 29534" width="36.745" height="29.914" fill="#c8d8fa"/>
        <rect id="Rectángulo_29535" data-name="Rectángulo 29535" width="36.745" height="29.914" transform="translate(18.373)" fill="#8eb4f9"/>
        <path id="Trazado_117999" data-name="Trazado 117999" d="M326.55,341.691h5.826l-.518-1.614.518-1.157H326.55Z" transform="translate(-326.53 -319.37)" fill="#a6c1f0"/>
        <path id="Trazado_118000" data-name="Trazado 118000" d="M344.63,328.821h5.816l-.508-1.614.508-1.157H344.63Z" transform="translate(-326.257 -319.564)" fill="#e5effd"/>
        <path id="Trazado_118001" data-name="Trazado 118001" d="M344.716,326.05H338.89l.518,1.614-.518,1.157h5.826Z" transform="translate(-326.344 -319.564)" fill="#a6c1f0"/>
        <path id="Trazado_118002" data-name="Trazado 118002" d="M380.906,342H375.09l.508,1.614-.508,1.157h5.816Z" transform="translate(-325.799 -319.324)" fill="#e5effd"/>
        <rect id="Rectángulo_29536" data-name="Rectángulo 29536" width="10.577" height="4.06" transform="translate(42.135 2.03)" fill="#fff"/>
      </g>
      <g id="Grupo_54565" data-name="Grupo 54565" transform="translate(110.439 38.024)">
        <rect id="Rectángulo_29537" data-name="Rectángulo 29537" width="27.843" height="22.666" transform="translate(13.927)" fill="#d2574d"/>
        <rect id="Rectángulo_29538" data-name="Rectángulo 29538" width="27.843" height="22.666" fill="#dd7269"/>
        <path id="Trazado_118003" data-name="Trazado 118003" d="M428.8,343.461H424.38l.4-1.218-.4-.873H428.8Z" transform="translate(-387.036 -326.55)" fill="#c47235"/>
        <path id="Trazado_118004" data-name="Trazado 118004" d="M415.066,333.711H410.65l.4-1.228-.4-.873h4.416Z" transform="translate(-387.243 -326.697)" fill="#e3928e"/>
        <path id="Trazado_118005" data-name="Trazado 118005" d="M415,331.61h4.405l-.386,1.218.386.883H415Z" transform="translate(-387.177 -326.697)" fill="#c47235"/>
        <path id="Trazado_118006" data-name="Trazado 118006" d="M387.59,343.67h4.416l-.386,1.228.386.883H387.59Z" transform="translate(-387.59 -326.515)" fill="#e3928e"/>
        <rect id="Rectángulo_29539" data-name="Rectángulo 29539" width="8.009" height="3.076" transform="translate(1.827 1.533)" fill="#fff"/>
      </g>
    </g>
    <g id="P297LW" transform="translate(253.616 341.493)">
      <g id="Grupo_54567" data-name="Grupo 54567">
        <path id="Trazado_118007" data-name="Trazado 118007" d="M291.834,398.821s-1.868-3.9-.4-6.293,7.278-2.538,7.278-2.538-.508.274-.528.518,1.665-.65,2.832,1.38,1.106,3.908-.132,6.71S291.834,398.821,291.834,398.821Z" transform="translate(-281.438 -389.99)" fill="#3340b1"/>
        <path id="Trazado_118008" data-name="Trazado 118008" d="M320.941,437.442a33.245,33.245,0,0,1-9.775-.477,11.167,11.167,0,0,1-1.979-.609,3.045,3.045,0,0,1-1.441-1.076,38.9,38.9,0,0,1-2.03-5.908C303.37,421.2,300,407.65,300,407.65s6.74,1.36,8.171,2.517,2.69,19.581,4.06,20.068c.2.071.538.223,1.015.436h.071l.873.436c2.781,1.411,6.831,4.06,7.867,4.527S322.575,437.077,320.941,437.442Z" transform="translate(-281.301 -389.724)" fill="#dd7269"/>
        <path id="Trazado_118009" data-name="Trazado 118009" d="M308.228,418.154a4.772,4.772,0,0,0-.091-.934c-.873-4.72-7.785-9.45-7.907-9.45h0c0,.721-1.147,2.03-2.923,2.162-2.1.142-4.679-.893-4.679-2.091,0,0-1.2,0-1.594.051a17.094,17.094,0,0,0-6.476,2.162c-1.36,1.015.558,7.461,1.756,12.018a17.651,17.651,0,0,1,.822,4.233c0,.335-.345,5.014-.629,9.257-.233,3.492-.436,6.689-.447,6.882,0,.4,2.03,1.786,5.339,2.832a24.265,24.265,0,0,0,2.659.67,28.482,28.482,0,0,0,5.8.568,12.413,12.413,0,0,0,1.969-.1C306.614,445.946,308.259,440.546,308.228,418.154Z" transform="translate(-281.54 -389.722)" fill="#dd7269"/>
        <path id="Trazado_118010" data-name="Trazado 118010" d="M320.816,437.1c-.173,0-.386.061-.68.1a35.4,35.4,0,0,1-4.06,0,22.949,22.949,0,0,1-7.106-1.218,8.831,8.831,0,0,1,4.06-5.654c1.228.6,3.187,1.614,4.943,2.6h0c1.878,1.015,3.228,2.172,3.8,2.345C322.785,435.629,322.44,436.745,320.816,437.1Z" transform="translate(-281.166 -389.382)" fill="#e3928e"/>
        <path id="Trazado_118011" data-name="Trazado 118011" d="M292.49,407.7a39.064,39.064,0,0,1,.233-5.867l7.39,1.188v4.7h0s.193,2.3-2.67,2.639S292.409,409.473,292.49,407.7Z" transform="translate(-281.414 -389.812)" fill="#e3928e"/>
        <path id="Trazado_118012" data-name="Trazado 118012" d="M298.6,503.317c-.934-.558-.386-4.75-.386-4.75s4.365-3.421,4.943-.792,4.121,3.827,6.09,4.152a2.182,2.182,0,0,1,1.939,1.441Z" transform="translate(-281.33 -388.382)" fill="#3340b1"/>
        <path id="Trazado_118013" data-name="Trazado 118013" d="M285.438,503.317c-.934-.558-.386-4.75-.386-4.75s4.365-3.421,4.954-.792,4.111,3.827,6.09,4.152a2.182,2.182,0,0,1,1.939,1.441Z" transform="translate(-281.528 -388.382)" fill="#3340b1"/>
        <path id="Trazado_118014" data-name="Trazado 118014" d="M286,442.275c0,.4,1.979,1.787,5.339,2.842l.832.244h0c.315,3.624,1.157,8.74,1.929,13.683h0c.2,1.289.386,2.558.568,3.786a76.434,76.434,0,0,1,.853,8.344h0a36.843,36.843,0,0,1-.883,3.979c0,.335-.071.711-.091,1.086a41.481,41.481,0,0,0,.071,5.268c.548,8.395,2.791,19.154,3.593,19.611,1.594.914,4.5,0,5.979-.213a1.218,1.218,0,0,0,1.066-1.218c-.721-13.947,1.35-33.375,2.893-45.312l.122-.914c.183-1.411.3-2.72.386-3.908s.1-2.03.122-2.8v-.731c0-.741-.6-5.644-.629-28.056h0a.954.954,0,0,0-.954-.944H293.349a2.4,2.4,0,0,0-2.406,2.385h0a38.3,38.3,0,0,1-.416,6.375c-.508,3.116-1.614,6.019-3.878,6.72h0l-.162.386h0c0,.568-.051,1.137-.071,1.726v.355a.68.68,0,0,0,0,.2v.964a3.28,3.28,0,0,1,0,.467,5.7,5.7,0,0,1-.051.924,1.44,1.44,0,0,1,0,.294c0,.406-.051.8-.081,1.218v1.046a1.9,1.9,0,0,1-.051.518,8.575,8.575,0,0,0-.233,1.675Z" transform="translate(-281.512 -389.583)" fill="#3a4f92"/>
        <path id="Trazado_118015" data-name="Trazado 118015" d="M294.532,481.1c.548,8.395,2.8,19.154,3.6,19.611,1.594.914,4.487,0,5.969-.213a1.208,1.208,0,0,0,1.066-1.218c-.711-13.947,1.36-33.365,2.9-45.312l.122-.914c.183-1.411.3-2.72.386-3.908-.741-4.73-4.893-4.984-8.658,4.8.467,3.248-4.487,14.607-4.487,16.8h0a34.083,34.083,0,0,1-.883,3.979c0,.335-.071.711-.091,1.1a42.949,42.949,0,0,0,.071,5.238Z" transform="translate(-281.385 -389.147)" fill="#3340b1"/>
        <path id="Trazado_118016" data-name="Trazado 118016" d="M285.917,470.467a34.009,34.009,0,0,1-1.4,3.827c-1.908,7.562-.853,25.488.091,26.2,1.462,1.117,4.456.589,5.948.568a1.218,1.218,0,0,0,1.218-1.066c1.177-14.282,6.029-33.893,9.136-45.434a53.245,53.245,0,0,0,1.8-10.09s-14.576-8.821-16.15-4.009C285.155,444.725,286.8,462.986,285.917,470.467Z" transform="translate(-281.55 -389.251)" fill="#3a4f92"/>
        <path id="Trazado_118017" data-name="Trazado 118017" d="M290.461,407.93s4.3,4.943,4.548,9.257h-2.182a20.392,20.392,0,0,0-3.786-8.963Z" transform="translate(-281.466 -389.72)" fill="#3a4f92"/>
        <path id="Trazado_118018" data-name="Trazado 118018" d="M301,407.92a21.641,21.641,0,0,1,3.441,9.268h2.182c-.183-3.39-2.314-6.994-3.512-8.76h0A20.824,20.824,0,0,0,301,407.92Z" transform="translate(-281.286 -389.72)" fill="#3a4f92"/>
        <path id="Trazado_118019" data-name="Trazado 118019" d="M287.082,434.449c.112,5.075-.528,15.145-.528,15.145h-3.045a80.186,80.186,0,0,1-1.929-14.14v-1.37c0-2.121.081-3.35.081-3.35-.579-12.871,2.03-19.763,2.852-20.7s4.578-1.817,4.578-1.817a50.354,50.354,0,0,1,1.746,6.415c.5,2.862-3.969,14.881-3.786,18.992A7.238,7.238,0,0,1,287.082,434.449Z" transform="translate(-281.578 -389.715)" fill="#dd7269"/>
        <path id="Trazado_118020" data-name="Trazado 118020" d="M286.949,442.453c-.142,3.644-.335,6.75-.335,6.75h-3.045c-.528-2.527-.914-4.74-1.218-6.628a53.019,53.019,0,0,1-.721-7.491V433.7a10.7,10.7,0,0,1,5.451.386C287.172,436.332,287.081,439.56,286.949,442.453Z" transform="translate(-281.577 -389.334)" fill="#e3928e"/>
        <path id="Trazado_118021" data-name="Trazado 118021" d="M288.723,452.743c0,.812-3.573,2.67-4.659,2.182s-1.127-3.319-.508-5.938,3.045,0,3.045,0S288.682,451.9,288.723,452.743Z" transform="translate(-281.555 -389.119)" fill="#e3928e"/>
        <path id="Trazado_118022" data-name="Trazado 118022" d="M327.674,437.129H320l1.715-1.878a8.059,8.059,0,0,0,3.268,0C326.253,434.855,327.674,437.129,327.674,437.129Z" transform="translate(-281 -389.309)" fill="#e3928e"/>
        <path id="Trazado_118023" data-name="Trazado 118023" d="M292.55,403.7s1.837,2.132,3.786,2.142a4.771,4.771,0,0,0,3.766-2.314Z" transform="translate(-281.413 -389.786)" fill="#e38383"/>
        <path id="Trazado_118024" data-name="Trazado 118024" d="M299.92,403.846a10.059,10.059,0,0,1-3.431,1.177,26.874,26.874,0,0,1-3.695-1.015c-.883-.528-.822-1.594-.873-3.045a21.712,21.712,0,0,1,0-4.141c.233-1.208,1.015-1.9,3.177-2.091,4-.335,5.664.65,5.735,1.969v1.015C301.006,401.8,300.681,403.258,299.92,403.846Z" transform="translate(-281.424 -389.92)" fill="#e3928e"/>
        <path id="Trazado_118025" data-name="Trazado 118025" d="M291.829,398.778s-.335-3.522,1.776-3.522,4.933,2.649,6.192.954,1.086,2.335,1.086,2.335l.132-5.41-8.12-.3-1.7,1.249Z" transform="translate(-281.433 -389.947)" fill="#3340b1"/>
      </g>
    </g>
    <g id="Grupo_54569" data-name="Grupo 54569" transform="translate(260.599)">
      <path id="Trazado_118027" data-name="Trazado 118027" d="M458.026,62.666H298.154a4.964,4.964,0,0,1-5-4.933h0a4.974,4.974,0,0,1,5-4.933H458.026a4.974,4.974,0,0,1,5,4.933h0a4.964,4.964,0,0,1-5,4.933Z" transform="translate(-293.15 -23.597)" fill="#fff"/>
      <rect id="Rectángulo_29544" data-name="Rectángulo 29544" width="4.994" height="29.203" transform="translate(19.987)" fill="#fff"/>
      <rect id="Rectángulo_29545" data-name="Rectángulo 29545" width="4.994" height="29.203" transform="translate(144.261)" fill="#fff"/>
    </g>
    <g id="Grupo_54570" data-name="Grupo 54570" transform="translate(497.823 0.556)">
      <path id="Trazado_118028" data-name="Trazado 118028" d="M698.727,62.666H538.844a4.953,4.953,0,0,1-4.994-4.933h0a4.964,4.964,0,0,1,4.994-4.933H698.727a4.964,4.964,0,0,1,4.994,4.933h0a4.954,4.954,0,0,1-4.994,4.933Z" transform="translate(-533.85 -23.597)" fill="#fff"/>
      <rect id="Rectángulo_29546" data-name="Rectángulo 29546" width="4.994" height="29.203" transform="translate(19.987)" fill="#fff"/>
      <rect id="Rectángulo_29547" data-name="Rectángulo 29547" width="4.994" height="29.203" transform="translate(144.25)" fill="#fff"/>
    </g>
    <g id="Grupo_54572" data-name="Grupo 54572" transform="translate(340.546 351.344)">
      <g id="Grupo_54571" data-name="Grupo 54571" transform="translate(0 23.574)">
        <rect id="Rectángulo_29548" data-name="Rectángulo 29548" width="25.234" height="20.535" transform="translate(12.617)" fill="#bf6f33"/>
        <rect id="Rectángulo_29549" data-name="Rectángulo 29549" width="25.234" height="20.535" fill="#dd7269"/>
        <path id="Trazado_118029" data-name="Trazado 118029" d="M411,438.028h-4l.345-1.106L407,436.13h3.989Z" transform="translate(-373.168 -422.721)" fill="#aa5e26"/>
        <path id="Trazado_118030" data-name="Trazado 118030" d="M398.589,429.208h-4l.355-1.106-.355-.792h4Z" transform="translate(-373.355 -422.854)" fill="#e3928e"/>
        <path id="Trazado_118031" data-name="Trazado 118031" d="M398.53,427.31h4l-.355,1.106.355.792h-4Z" transform="translate(-373.296 -422.854)" fill="#aa5e26"/>
        <path id="Trazado_118032" data-name="Trazado 118032" d="M373.67,438.24h4l-.355,1.106.355.8h-4Z" transform="translate(-373.67 -422.689)" fill="#e3928e"/>
        <rect id="Rectángulo_29550" data-name="Rectángulo 29550" width="7.258" height="2.791" transform="translate(1.655 1.391)" fill="#fff"/>
      </g>
      <path id="Trazado_118033" data-name="Trazado 118033" d="M385.5,442.306c-.609-.386-2.03-1.249-2.03-1.015a.944.944,0,0,0,.213.65,5.938,5.938,0,0,0-3.614,0,1.451,1.451,0,0,0-.944.67.64.64,0,0,0,.1.9.517.517,0,0,0,.162.091c1.015.579.721.223,2.152,1.015a4.131,4.131,0,0,0,4.131.335l1.36-.274.081-2.233S386.288,442.407,385.5,442.306Z" transform="translate(-373.59 -399.07)" fill="#e3928e"/>
      <path id="Trazado_118034" data-name="Trazado 118034" d="M420.357,419.819s-3.878,3.126-7.623.822a12.342,12.342,0,0,1-.193-3.766,3.147,3.147,0,0,1,.1-.538c.3-1.726.426-2.71.426-2.71h0c.2,0,6.649-1.36,6.608-1.157C418.692,417.119,420.357,419.819,420.357,419.819Z" transform="translate(-373.086 -399.504)" fill="#e3928e"/>
      <path id="Trazado_118035" data-name="Trazado 118035" d="M418.862,413.451a9.613,9.613,0,0,1-6.222,2.873c.3-1.726.426-2.71.426-2.71h0C413.239,413.6,419.1,413.177,418.862,413.451Z" transform="translate(-373.083 -399.49)" fill="#e38383"/>
      <path id="Trazado_118036" data-name="Trazado 118036" d="M411.869,413.366s6.435,2.812,8.12-1.177,3.695-6.3-.335-8.273-5.5-.771-6.395.416S410.235,412.533,411.869,413.366Z" transform="translate(-373.104 -399.648)" fill="#e3928e"/>
      <path id="Trazado_118037" data-name="Trazado 118037" d="M419.59,413.322c.081.081,1.441.782,5.207-4.06a4.71,4.71,0,0,0,.538-4.344c-.68-1.807-4.01-3.735-6.862-4.842s-3.878.406-4.893,1.939a9.338,9.338,0,0,1-3.431,2.639c2.284,1.878,5.735.436,6.74.964s1.015,2.253,1.015,2.8,0,1.015,1.452.782.254,2.03-.051,2.4A1.766,1.766,0,0,0,419.59,413.322Z" transform="translate(-373.121 -399.696)" fill="#934740"/>
      <path id="Trazado_118038" data-name="Trazado 118038" d="M429.162,517.83h4.152c.873,0,1.837-.853,2.081-2.426s2.03-2.436,2.416-3.725-1.594-3.106-1.594-3.106l-.345-.416-.335-.436-3.289.761s-.081.771-.132,1.756a20.875,20.875,0,0,0,0,2.253c.1,1.715-.487,3.563-2.03,3.9S429.162,517.83,429.162,517.83Z" transform="translate(-372.836 -398.069)" fill="#343d63"/>
      <path id="Trazado_118039" data-name="Trazado 118039" d="M400.7,517.769h10.993a.876.876,0,0,0,.233-.061c.741-.365.508-3.137.416-4.06a.528.528,0,0,0,0-.254s-3.867-3.045-4.4-.721a.739.739,0,0,1-.061.213h0c-.67,2.193-3.674,3.187-5.41,3.461A1.929,1.929,0,0,0,400.7,517.769Z" transform="translate(-373.263 -398.007)" fill="#343d63"/>
      <path id="Trazado_118040" data-name="Trazado 118040" d="M402.88,456.015s.589,7.237,1.279,15.936c.944,11.805,2.03,26.321,2.182,29.071.193,4.771.964,12.4.964,12.4s1.837,1.817,5.512,1.015a122.937,122.937,0,0,0,4.2-22.433,5.189,5.189,0,0,1,.051-.558c.863-11.744,2.223-36.451,2.223-36.451Z" transform="translate(-373.23 -398.863)" fill="#dd7269"/>
      <path id="Trazado_118041" data-name="Trazado 118041" d="M405,455.537s-.386,4.517,1.736,12.983c1.553,6.212,10.222,23.529,10.222,23.529v-.568c.873-11.744,2.223-36.441,2.223-36.441Z" transform="translate(-373.199 -398.862)" fill="#d2574d"/>
      <path id="Trazado_118042" data-name="Trazado 118042" d="M405,455.58s11.074,27.539,18.058,39.851,9.136,15.744,9.136,15.744,3.989-1.573,4.355-2.649c0,0-2.67-23.763-7.329-29.559-2.629-3.279-5.725-13.1-5.867-16.535s-.944-10.242-.944-10.242Z" transform="translate(-373.198 -398.905)" fill="#dd7269"/>
      <path id="Trazado_118043" data-name="Trazado 118043" d="M404.48,455.563c1.553.091,17.906-.518,17.906-1.421a132.919,132.919,0,0,1,1.512-14.383c.142-1.147.264-2.284.355-3.411a51.672,51.672,0,0,0,0-8.313c-.406-4.75-2.457-8.577-4.527-10.364-.284-.233-1.289.528-2.974,1.208s-2.8.173-4.2-.213l-1.807,1.563a16.648,16.648,0,0,0-3.867,5.349S404.348,455.563,404.48,455.563Z" transform="translate(-373.206 -399.426)" fill="#3a4f92"/>
      <path id="Trazado_118044" data-name="Trazado 118044" d="M406.93,425.49l4.466,1.015,6.151,16.434a6.091,6.091,0,0,0,5.715,3.928h0l-.538,8.12L402.88,456.46Z" transform="translate(-373.23 -399.307)" fill="#dd7269"/>
      <path id="Trazado_118045" data-name="Trazado 118045" d="M385.77,443.8c-.142-1.289.518-1.523.518-1.523s13.2-2.883,14.282-3.279,10.374-10.658,10.374-10.658,3.532-4.253,6.588-3.461a5.9,5.9,0,0,1,1.746,10.526c-4.4,2.913-13.267,8.658-15.368,9.359-4.7,1.553-17.51.782-17.51.782A4.059,4.059,0,0,1,385.77,443.8Z" transform="translate(-373.488 -399.318)" fill="#3a4f92"/>
      <path id="Trazado_118046" data-name="Trazado 118046" d="M415.917,421.872c1.015-.954,4.375-3.573,4.375-3.573l-.629-.6c-.447-.1-3.888,2.456-5.075,3.471-1.391,1.218-5.228,5.187-5.228,5.187l1.888.274S414.709,423,415.917,421.872Z" transform="translate(-373.132 -399.425)" fill="#d2574d"/>
    </g>
    <g id="Grupo_54575" data-name="Grupo 54575" transform="translate(393.048 354.262)">
      <path id="Rectángulo_29551" data-name="Rectángulo 29551" d="M653.093,501.66h34.441A1.553,1.553,0,0,1,689.1,503.2V534.67a1.553,1.553,0,0,1-1.563,1.543H653.093a1.553,1.553,0,0,1-1.563-1.543V503.2a1.553,1.553,0,0,1,1.563-1.543Z" transform="translate(-440.61 -401.078)" fill="#27385f"/>
      <path id="Trazado_118047" data-name="Trazado 118047" d="M614.007,451.089a16.238,16.238,0,0,1-2.893-.081c-.487-.193-1.817-1.015-1.634-1.858.122-.548,1.127.335,1.533.162s-.832-.284-.893-.487,1.015-.315,1.4-.376,1.512.822,2.4,1.015S614.007,451.089,614.007,451.089Z" transform="translate(-441.244 -401.879)" fill="#e3928e"/>
      <path id="Trazado_118048" data-name="Trazado 118048" d="M645.279,448.621s-3.329,3.715-7.369,4.253S627.9,454.59,626.054,454.6s-12.292-3.187-12.292-3.187a1.411,1.411,0,0,1,0-1.015,1.807,1.807,0,0,1,.741-1.015s7.166.173,10.506.629c1.38.193,10.831-5.38,12.333-8.74C637.96,439.983,645.279,448.621,645.279,448.621Z" transform="translate(-441.181 -401.989)" fill="#d2574d"/>
      <g id="Grupo_54573" data-name="Grupo 54573" transform="translate(7.126 79.378)">
        <rect id="Rectángulo_29552" data-name="Rectángulo 29552" width="66.182" height="53.879" transform="translate(33.101)" fill="#d2574d"/>
        <rect id="Rectángulo_29553" data-name="Rectángulo 29553" width="66.182" height="53.879" transform="translate(0.01)" fill="#dd7269"/>
        <path id="Trazado_118049" data-name="Trazado 118049" d="M548.686,520.463H538.2l.924-2.913-.924-2.03h10.486Z" transform="translate(-449.443 -480.247)" fill="#c47235"/>
        <path id="Trazado_118050" data-name="Trazado 118050" d="M516.156,497.274H505.64l.924-2.913-.924-2.081h10.516Z" transform="translate(-449.933 -480.597)" fill="#e3928e"/>
        <path id="Trazado_118051" data-name="Trazado 118051" d="M516,492.28h10.455l-.924,2.913.924,2.081H516Z" transform="translate(-449.777 -480.597)" fill="#c47235"/>
        <path id="Trazado_118052" data-name="Trazado 118052" d="M450.76,521h10.486l-.914,2.913.914,2.03H450.76Z" transform="translate(-450.76 -480.164)" fill="#e3928e"/>
        <rect id="Rectángulo_29554" data-name="Rectángulo 29554" width="19.043" height="7.319" transform="translate(4.344 3.654)" fill="#fff"/>
      </g>
      <g id="Grupo_54574" data-name="Grupo 54574" transform="translate(0 25.549)">
        <rect id="Rectángulo_29555" data-name="Rectángulo 29555" width="66.182" height="53.879" transform="translate(33.091)" fill="#d2574d"/>
        <rect id="Rectángulo_29556" data-name="Rectángulo 29556" width="66.182" height="53.879" fill="#dd7269"/>
        <path id="Trazado_118053" data-name="Trazado 118053" d="M541.666,467.434H531.18l.914-2.913-.914-2.081h10.486Z" transform="translate(-442.423 -427.217)" fill="#c47235"/>
        <path id="Trazado_118054" data-name="Trazado 118054" d="M509.157,444.244H498.61l.924-2.913-.924-2.091h10.547Z" transform="translate(-442.914 -427.567)" fill="#e3928e"/>
        <path id="Trazado_118055" data-name="Trazado 118055" d="M508.94,439.24h10.5l-.934,2.913.934,2.091h-10.5Z" transform="translate(-442.758 -427.567)" fill="#c47235"/>
        <path id="Trazado_118056" data-name="Trazado 118056" d="M443.74,467.93h10.486l-.924,2.913.924,2.081H443.74Z" transform="translate(-443.74 -427.135)" fill="#e3928e"/>
        <rect id="Rectángulo_29557" data-name="Rectángulo 29557" width="19.043" height="7.319" transform="translate(4.334 3.654)" fill="#fff"/>
      </g>
      <rect id="Rectángulo_29558" data-name="Rectángulo 29558" width="17.55" height="136.81" transform="translate(117.92)" fill="#27385f"/>
      <path id="Rectángulo_29559" data-name="Rectángulo 29559" d="M621.285,482.83h54.336a1.015,1.015,0,0,1,1.015,1.015V504.6a1.015,1.015,0,0,1-1.015,1.015H621.285a1.015,1.015,0,0,1-1.015-1.015V483.845A1.015,1.015,0,0,1,621.285,482.83Z" transform="translate(-441.081 -401.361)" fill="#7a9bea"/>
      <path id="Trazado_118057" data-name="Trazado 118057" d="M582.958,523.09l71.45,2.862V496.83l-72.628,1.188Z" transform="translate(-441.661 -401.15)" fill="#344980"/>
      <ellipse id="Elipse_4152" data-name="Elipse 4152" cx="22.118" cy="21.844" rx="22.118" ry="21.844" transform="translate(122.873 106.602)" fill="#3a4f92"/>
      <path id="Trazado_118058" data-name="Trazado 118058" d="M574,529.3a12.749,12.749,0,1,1,12.749,12.577h0A12.668,12.668,0,0,1,574,529.3Z" transform="translate(-441.778 -400.856)" fill="#27385f"/>
      <path id="Trazado_118059" data-name="Trazado 118059" d="M667,533.921a17.327,17.327,0,1,1,5.136,12.242A17.439,17.439,0,0,1,667,533.921Z" transform="translate(-440.377 -400.857)" fill="#3a4f92"/>
      <path id="Trazado_118060" data-name="Trazado 118060" d="M674.23,533.811a10.049,10.049,0,1,1,10.049,9.917,10.049,10.049,0,0,1-10.049-9.917Z" transform="translate(-440.268 -400.747)" fill="#27385f"/>
      <path id="Trazado_118061" data-name="Trazado 118061" d="M672.6,478.39v13H654.164L610.1,519.987v21.255h43.6a8.2,8.2,0,0,0,8.252-8.12v-4.8a15.774,15.774,0,0,1,6.923-13.074h0a14.668,14.668,0,0,1,8.283-2.558h13.906a6.77,6.77,0,0,0,6.821-6.73V485.607a7.258,7.258,0,0,0-7.3-7.217Z" transform="translate(-441.234 -401.428)" fill="#dd7269"/>
      <path id="Trazado_118062" data-name="Trazado 118062" d="M583.25,506.284l-6.09-.67,33.984-79.52A28.31,28.31,0,0,1,637.333,409h28.513a12.658,12.658,0,0,1,12.739,12.577v70.882h-5.8V421.546a6.913,6.913,0,0,0-6.943-6.862H637.333a22.544,22.544,0,0,0-20.809,13.6Z" transform="translate(-441.73 -402.473)" fill="#27385f"/>
      <path id="Trazado_118063" data-name="Trazado 118063" d="M612.521,542.445a1.563,1.563,0,0,1-1.584-1.553V524.884a20.129,20.129,0,0,0-20.24-19.976h-.183c-.122,0-12.526-1.34-22.017,5.958a1.594,1.594,0,0,1-2.213-.264,1.543,1.543,0,0,1,.274-2.193c10.151-7.836,22.89-6.75,24.23-6.618a23.275,23.275,0,0,1,23.346,23.1V540.9a1.563,1.563,0,0,1-1.614,1.543Z" transform="translate(-441.899 -401.077)" fill="#27385f"/>
      <rect id="Rectángulo_29560" data-name="Rectángulo 29560" width="115.961" height="4.182" transform="translate(1.959 132.628)" fill="#27385f"/>
      <rect id="Rectángulo_29561" data-name="Rectángulo 29561" width="3.949" height="48.936" transform="translate(113.971 87.884)" fill="#27385f"/>
      <path id="Trazado_118064" data-name="Trazado 118064" d="M660.753,457.041l-2.091,26.2H625.754s-1.736-7.319,3.725-7.643,18.535-2.264,18.535-2.264-.64-16.241,9.43-18.982a2.639,2.639,0,0,1,3.228,1.827,2.5,2.5,0,0,1,.081.863Z" transform="translate(-441.003 -401.791)" fill="#3a4f92"/>
      <path id="Trazado_118065" data-name="Trazado 118065" d="M642.541,439.689a11.856,11.856,0,0,1-7.034,1.452s-.721-.183-.365-1.015a10.843,10.843,0,0,1-.335-1.117,15.873,15.873,0,0,1-.416-1.827l2.03-2.152,1.969-2.03a8.628,8.628,0,0,0,4.152,6.689Z" transform="translate(-440.868 -402.112)" fill="#e3928e"/>
      <path id="Trazado_118066" data-name="Trazado 118066" d="M638.756,434.81a8.04,8.04,0,0,1-3.938,4.162c-.315-1.157-.528-2.355-.528-2.355L636.472,435Z" transform="translate(-440.87 -402.084)" fill="#da8282"/>
      <path id="Trazado_118067" data-name="Trazado 118067" d="M632.131,437.154s6.436.792,6.882-3.116,1.594-6.425-2.5-7.105-5.075.731-5.542,2.03S630.467,436.86,632.131,437.154Z" transform="translate(-440.924 -402.206)" fill="#e3928e"/>
      <path id="Trazado_118068" data-name="Trazado 118068" d="M641.087,426.359c.051-.071.183-.122.477-.152a1.2,1.2,0,0,0-.558-.142,1.512,1.512,0,0,0-1.015-1.269.914.914,0,0,1,.457.619c-.863-.8-2.649-1.34-7.542-.782-6.436.741-4.152,4.75-3.3,5.207s2.913-.954,4.476-.893,1.939,2.274,2.477,2.558.315-.244,1.015-.589.822.812.639,1.583.843,1.736.843,1.736l.954-1.1c.954-1.086,1.715-5.593,1.228-6.527Z" transform="translate(-440.957 -402.241)" fill="#343d63"/>
      <path id="Trazado_118069" data-name="Trazado 118069" d="M649.038,463.57s-29.356,1.3-33.355,4.162-11.013,27.082-11.013,27.082,1.421,1.218,5.644,0c0,0,5.928-7.461,8.2-12.577,2.03-4.537,2.731-6.831,3.593-6.6,1.827.5,20.656,1.137,26.219-2.406C651.88,470.939,648.571,463.56,649.038,463.57Z" transform="translate(-441.316 -401.651)" fill="#27385f"/>
      <path id="Trazado_118070" data-name="Trazado 118070" d="M642.6,439s3.756,3.045,4.943,12.181,2.517,17.155,1.787,17.479c-5.146,2.284-18.982-.051-18.647-5.481s1.624-21.519,4.882-22.94A17.541,17.541,0,0,1,642.6,439Z" transform="translate(-440.924 -402.021)" fill="#dd7269"/>
      <path id="Trazado_118071" data-name="Trazado 118071" d="M616.115,464.028h0a1.228,1.228,0,0,1-1.573-.64l-6.09-14.414a1.188,1.188,0,0,1,.639-1.553h0a1.2,1.2,0,0,1,1.573.639l6.09,14.414a1.188,1.188,0,0,1-.64,1.553Z" transform="translate(-441.261 -401.896)" fill="#27385f"/>
      <path id="Trazado_118072" data-name="Trazado 118072" d="M615.712,455.811a14.844,14.844,0,0,1-2.832.538c-.518-.091-2.03-.568-2.03-1.462,0-.558,1.167.081,1.523-.162s-.873-.091-1.015-.284.934-.528,1.289-.67,1.655.487,2.568.528S615.712,455.811,615.712,455.811Z" transform="translate(-441.223 -401.799)" fill="#e3928e"/>
      <path id="Trazado_118073" data-name="Trazado 118073" d="M645.69,446.814s-2.446,4.355-6.273,5.725-9.4,3.806-11.166,4.212-12.7-.5-12.7-.5a1.4,1.4,0,0,1-.193-1.015,1.706,1.706,0,0,1,.507-1.127s7.024-1.35,10.394-1.614c1.4-.112,9.42-7.562,10.151-11.166C636.646,439.9,645.69,446.814,645.69,446.814Z" transform="translate(-441.155 -401.989)" fill="#dd7269"/>
      <path id="Trazado_118074" data-name="Trazado 118074" d="M609.9,493.552s.335,3.786-.487,4.182H599.04s0-1.188,1.665-1.452,4.6-1.228,5.075-3.37S609.9,493.552,609.9,493.552Z" transform="translate(-441.401 -401.222)" fill="#27385f"/>
      <path id="Trazado_118075" data-name="Trazado 118075" d="M604.349,453.75h4.71a2.9,2.9,0,0,1,2.71,1.888l1.35,3.746a2.832,2.832,0,0,1-.162,2.294l-.731,1.462a11.653,11.653,0,0,1-9.45,6.09l-5.766.416,4.608-13.927a2.883,2.883,0,0,1,2.73-1.969Z" transform="translate(-441.431 -401.799)" fill="#27385f"/>
    </g>
    <g id="Grupo_54582" data-name="Grupo 54582" transform="translate(0 364.823)">
      <g id="Grupo_54579" data-name="Grupo 54579">
        <g id="Grupo_54578" data-name="Grupo 54578" transform="translate(55.34 52.353)">
          <rect id="Rectángulo_29562" data-name="Rectángulo 29562" width="3.431" height="59.716" transform="translate(9.004 2.162)" fill="#dd7269"/>
          <path id="Trazado_118076" data-name="Trazado 118076" d="M71.938,469.5h8.537A2.507,2.507,0,0,0,83,467.037h0a2.507,2.507,0,0,0-2.528-2.487H71.938a2.507,2.507,0,0,0-2.528,2.487h0a2.507,2.507,0,0,0,2.528,2.5Z" transform="translate(-69.41 -464.55)" fill="#3a4f92"/>
          <path id="Trazado_118077" data-name="Trazado 118077" d="M81.675,496.11c.416,0,18.525,10.607,18.525,10.607v15.419H81.36Z" transform="translate(-69.23 -464.075)" fill="#dd7269"/>
          <g id="Grupo_54576" data-name="Grupo 54576" transform="translate(107.871 57.524)">
            <path id="Trazado_118078" data-name="Trazado 118078" d="M185.831,526.3a5.075,5.075,0,1,0-1.5,3.607A5.075,5.075,0,0,0,185.831,526.3Z" transform="translate(-175.68 -521.22)" fill="#3a4f92"/>
            <ellipse id="Elipse_4153" data-name="Elipse 4153" cx="3.208" cy="3.167" rx="3.208" ry="3.167" transform="translate(1.817 1.908)" fill="#2b4077"/>
          </g>
          <rect id="Rectángulo_29563" data-name="Rectángulo 29563" width="111.159" height="4.547" transform="translate(9.004 57.331)" fill="#dd7269"/>
          <g id="Grupo_54577" data-name="Grupo 54577" transform="translate(4.294 51.555)">
            <ellipse id="Elipse_4154" data-name="Elipse 4154" cx="8.151" cy="8.049" rx="8.151" ry="8.049" fill="#3a4f92"/>
            <ellipse id="Elipse_4155" data-name="Elipse 4155" cx="5.106" cy="5.045" rx="5.106" ry="5.045" transform="translate(3.045 3.005)" fill="#2b4077"/>
          </g>
        </g>
        <path id="Trazado_118079" data-name="Trazado 118079" d="M74.468,461.67s3.928,1.543,4.141,2.264.2,3.492-.832,3.492-2.132-2.375-2.609-2.375-1.766-.365-1.918-.924S74.468,461.67,74.468,461.67Z" transform="translate(-14.012 -412.241)" fill="#e3928e"/>
        <path id="Trazado_118080" data-name="Trazado 118080" d="M75.015,463.2c.568-1.167,0-1.614,0-1.614s-11.47-6.994-12.394-7.735S56.4,440.421,56.4,440.421s-1.918-5.167-5.075-5.42a5.684,5.684,0,0,0-5.481,2.974,5.613,5.613,0,0,0,.335,6.395c3.2,4.192,9.643,12.5,11.4,13.835,3.908,3.045,16.241,6.435,16.241,6.435a4.06,4.06,0,0,0,1.208-1.441Z" transform="translate(-14.437 -412.643)" fill="#304579"/>
        <path id="Trazado_118081" data-name="Trazado 118081" d="M52.074,530.448H41.081a.878.878,0,0,1-.233-.061c-.731-.365-.508-3.137-.416-4.06v-.244s3.867-3.045,4.405-.721a1.622,1.622,0,0,0,.051.213h0c.68,2.193,3.675,3.177,5.42,3.461a1.868,1.868,0,0,1,1.766,1.411Z" transform="translate(-14.508 -411.295)" fill="#343d63"/>
        <path id="Trazado_118082" data-name="Trazado 118082" d="M45,431.1s2.619,4.213,6.923,3.258a12.181,12.181,0,0,0,1.441-3.492,1.664,1.664,0,0,1,.091-.548c.284-1.726.5-2.67.5-2.67h0c-.183-.112-5.826-3.451-5.857-3.248C47.507,429.069,45,431.1,45,431.1Z" transform="translate(-14.437 -412.802)" fill="#e3928e"/>
        <path id="Trazado_118083" data-name="Trazado 118083" d="M48.52,425.541a9.491,9.491,0,0,0,4.923,4.73c.284-1.736.5-2.68.5-2.68h0C53.758,427.5,48.378,425.2,48.52,425.541Z" transform="translate(-14.384 -412.785)" fill="#e38383"/>
        <path id="Trazado_118084" data-name="Trazado 118084" d="M55.233,427.721s-7.014.558-7.3-3.756-1.391-7.156,3.045-7.684,5.451,1.015,5.908,2.467S57.05,427.468,55.233,427.721Z" transform="translate(-14.398 -412.926)" fill="#e3928e"/>
        <path id="Trazado_118085" data-name="Trazado 118085" d="M48.055,425.181c-.1,0-1.624.264-3.553-5.573a4.74,4.74,0,0,1,.944-4.284c1.259-1.482,5.075-2.223,8.12-2.345s3.522,1.644,3.969,3.411A9.136,9.136,0,0,0,59.9,420c-2.781,1.015-5.563-1.462-6.689-1.289s-1.756,1.787-1.918,2.3-.335.954-1.624.274-.893,1.8-.751,2.274C48.877,423.587,48.877,424.8,48.055,425.181Z" transform="translate(-14.447 -412.974)" fill="#3a4f92"/>
        <path id="Trazado_118086" data-name="Trazado 118086" d="M23.579,530.51H19.437c-.873,0-1.837-.853-2.081-2.426s-2.03-2.436-2.416-3.725,1.594-3.106,1.594-3.106l.335-.416.345-.436,3.279.761s.081.771.132,1.756a20.86,20.86,0,0,1,0,2.253c-.091,1.715.5,3.563,2.03,3.9S23.579,530.51,23.579,530.51Z" transform="translate(-14.891 -411.356)" fill="#343d63"/>
        <path id="Trazado_118087" data-name="Trazado 118087" d="M49.964,468.685s-.589,7.237-1.279,15.936c-.934,11.805-2.03,26.321-2.172,29.071-.193,4.771-1.015,12.4-1.015,12.4s-1.837,1.817-5.512,1.015a123.716,123.716,0,0,1-4.213-22.423c0-.193,0-.376,0-.568C34.9,492.376,33.55,467.68,33.55,467.68Z" transform="translate(-14.61 -412.15)" fill="#dd7269"/>
        <path id="Trazado_118088" data-name="Trazado 118088" d="M47,470.116s1.157,2.609-.954,11.074c-1.553,6.212-10.222,23.529-10.222,23.529v-.568C34.95,492.407,33.6,467.7,33.6,467.7Z" transform="translate(-14.609 -412.15)" fill="#d2574d"/>
        <path id="Trazado_118089" data-name="Trazado 118089" d="M48.038,468.25S36.953,495.789,29.99,508.1s-9.136,15.744-9.136,15.744-3.989-1.573-4.355-2.649c0,0,2.659-23.763,7.319-29.559,2.639-3.279,5.735-13.1,5.877-16.535s.944-10.242.944-10.242Z" transform="translate(-14.867 -412.193)" fill="#dd7269"/>
        <path id="Trazado_118090" data-name="Trazado 118090" d="M48.364,470.035c-1.492-.416-16.728-6.314-16.434-7.166,1.015-2.964,2.1-7.978,3.39-14.069.233-1.137.508-2.253.8-3.35a51.33,51.33,0,0,1,2.741-7.846c1.969-4.355,5.177-7.3,7.735-8.3.345-.122,1.015.914,2.406,2.1s2.588,1.076,4.06,1.167l1.177,2.03a16.636,16.636,0,0,1,1.868,6.314S48.506,470.075,48.364,470.035Z" transform="translate(-14.634 -412.728)" fill="#3a4f92"/>
        <path id="Trazado_118091" data-name="Trazado 118091" d="M56.1,440.777l-4.558-.487L40.256,453.821a6.141,6.141,0,0,1-6.71,1.847h0L30.43,465.24l19.154,6.09Z" transform="translate(-14.657 -412.563)" fill="#dd7269"/>
        <path id="Trazado_118092" data-name="Trazado 118092" d="M48.534,434.457c-.68-1.238-2.934-4.791-2.934-4.791l.792-.365c.447.051,2.852,3.593,3.6,4.913.893,1.6,3.2,6.6,3.2,6.6l-1.878-.355S49.315,435.928,48.534,434.457Z" transform="translate(-14.428 -412.728)" fill="#d2574d"/>
        <path id="Trazado_118093" data-name="Trazado 118093" d="M69.668,463.07s3.928,1.543,4.131,2.264.213,3.492-.832,3.492-2.132-2.355-2.6-2.416-1.766-.355-1.929-.924S69.668,463.07,69.668,463.07Z" transform="translate(-14.085 -412.22)" fill="#e3928e"/>
        <path id="Trazado_118094" data-name="Trazado 118094" d="M70.086,465.079c.558-1.167,0-1.614,0-1.614s-11.47-6.994-12.394-7.735S51.459,442.3,51.459,442.3s-1.908-5.167-5.075-5.42a5.7,5.7,0,0,0-5.491,2.974,5.613,5.613,0,0,0,.345,6.395c3.2,4.192,9.633,12.485,11.389,13.835,3.918,3.045,16.241,6.425,16.241,6.425A3.989,3.989,0,0,0,70.086,465.079Z" transform="translate(-14.512 -412.614)" fill="#3a4f92"/>
      </g>
      <g id="Grupo_54581" data-name="Grupo 54581" transform="translate(95.263 50.059)">
        <rect id="Rectángulo_29564" data-name="Rectángulo 29564" width="46.48" height="37.841" transform="translate(23.286 22.281)" fill="#7a9bea"/>
        <rect id="Rectángulo_29565" data-name="Rectángulo 29565" width="46.48" height="37.841" transform="translate(0.041 22.281)" fill="#8fb2fb"/>
        <path id="Trazado_118095" data-name="Trazado 118095" d="M177.559,512.122H170.19l.65-2.03-.65-1.462h7.369Z" transform="translate(-107.814 -461.592)" fill="#a6c1f0"/>
        <path id="Trazado_118096" data-name="Trazado 118096" d="M154.689,495.832H147.32l.66-2.03-.66-1.462h7.369Z" transform="translate(-108.159 -461.837)" fill="#e5effd"/>
        <path id="Trazado_118097" data-name="Trazado 118097" d="M154.58,492.32h7.369l-.66,2.03.66,1.462H154.58Z" transform="translate(-108.05 -461.838)" fill="#a6c1f0"/>
        <path id="Trazado_118098" data-name="Trazado 118098" d="M108.781,512.47h7.329l-.65,2.03.65,1.462H108.74Z" transform="translate(-108.74 -461.534)" fill="#e5effd"/>
        <rect id="Rectángulo_29566" data-name="Rectángulo 29566" width="13.379" height="5.136" transform="translate(3.086 24.839)" fill="#fff"/>
        <g id="Grupo_54580" data-name="Grupo 54580" transform="translate(23.286)">
          <rect id="Rectángulo_29567" data-name="Rectángulo 29567" width="27.843" height="22.666" fill="#d2574d"/>
          <rect id="Rectángulo_29568" data-name="Rectángulo 29568" width="27.843" height="22.666" transform="translate(13.927)" fill="#dd7269"/>
          <path id="Trazado_118099" data-name="Trazado 118099" d="M131.7,479.031h4.365l-.386-1.228.386-.873H131.7Z" transform="translate(-131.68 -462.07)" fill="#c47235"/>
          <path id="Trazado_118100" data-name="Trazado 118100" d="M145.4,469.231h4.416l-.4-1.228.4-.873H145.4Z" transform="translate(-131.473 -462.217)" fill="#e3928e"/>
          <path id="Trazado_118101" data-name="Trazado 118101" d="M145.466,467.13H141.05l.4,1.228-.4.873h4.416Z" transform="translate(-131.539 -462.217)" fill="#c47235"/>
          <path id="Trazado_118102" data-name="Trazado 118102" d="M172.9,479.2H168.49l.386,1.228-.386.873H172.9Z" transform="translate(-131.126 -462.035)" fill="#e3928e"/>
          <rect id="Rectángulo_29569" data-name="Rectángulo 29569" width="8.009" height="3.076" transform="translate(31.934 1.543)" fill="#fff"/>
        </g>
      </g>
    </g>
  </g>
</svg>
