<svg xmlns="http://www.w3.org/2000/svg" width="109.819" height="109.819" viewBox="0 0 109.819 109.819">
  <g id="Grupo_55595" data-name="Grupo 55595" transform="translate(0 0)">
    <ellipse id="Elipse_4232" data-name="Elipse 4232" cx="42.149" cy="42.149" rx="42.149" ry="42.149" transform="translate(0 31.715) rotate(-22.1)" fill="#91b3fa"/>
    <g id="shipment" transform="translate(22.745 20.682)">
      <path id="Trazado_137080" data-name="Trazado 137080" d="M50,49a3,3,0,1,0,3,3A3,3,0,0,0,50,49Zm0,4a1,1,0,1,1,1-1A1,1,0,0,1,50,53Z" fill="#fff"/>
      <path id="Trazado_137081" data-name="Trazado 137081" d="M18,49a3,3,0,1,0,3,3A3,3,0,0,0,18,49Zm0,4a1,1,0,1,1,1-1A1,1,0,0,1,18,53Z" fill="#fff"/>
      <path id="Trazado_137082" data-name="Trazado 137082" d="M60.236,36,58.9,35.333l-1.359-8.154A4.984,4.984,0,0,0,52.611,23H42a4.977,4.977,0,0,0-3.974,2H35V15H29V5H15V15H9V25H3V35a2,2,0,0,0-2,2v2a2,2,0,0,0,2,2v9a3,3,0,0,0,3,3h5.08a6.991,6.991,0,0,0,13.84,0H43.08a6.991,6.991,0,0,0,13.84,0H60a3,3,0,0,0,3-3V40.472A4.974,4.974,0,0,0,60.236,36ZM61,45.382l-2-1V43h2ZM21,27h2v2H21Zm4,4V27h2v8H17V27h2v4Zm12,4H29V27h2v4h6Zm0-7v1H33V27h4.1a5,5,0,0,0-.1,1Zm-4-3H23V17h2v4h6V17h2Zm-6-8h2v2H27ZM21,7h2V9H21ZM17,7h2v4h6V7h2v8H17ZM15,17h2v2H15Zm-4,0h2v4h6V17h2v8H11ZM9,27h2v2H9ZM5,27H7v4h6V27h2v8H5ZM3,37H37v2H3Zm2,8H8.719l-.5,2H5Zm0,5V49H9.781l1.5-6H5V41H37V51H24.92a6.991,6.991,0,0,0-13.84,0H6A1,1,0,0,1,5,50Zm13,7a5,5,0,1,1,5-5A5.006,5.006,0,0,1,18,57ZM49,35h4v2H51A2,2,0,0,1,49,35Zm0-2a2,2,0,0,0-2,2,3.959,3.959,0,0,0,.556,2H43V29h9.046l.749,4Zm-6,6H53v6.685A6.974,6.974,0,0,0,43.08,51H43Zm7,18a5,5,0,1,1,5-5A5.006,5.006,0,0,1,50,57Zm10-6H56.92A6.977,6.977,0,0,0,55,47.111V34l-.987-5.366A2,2,0,0,0,52.047,27H43a2,2,0,0,0-2,2V51H39V28a3,3,0,0,1,3-3H52.611a2.991,2.991,0,0,1,2.959,2.507l1.527,9.16,2.244,1.122A2.985,2.985,0,0,1,61,40.472V41H57v4.618l4,2V50A1,1,0,0,1,60,51Z" fill="#fff"/>
    </g>
  </g>
</svg>
