<svg xmlns="http://www.w3.org/2000/svg" width="473" height="338.466" viewBox="0 0 473 338.466">
  <g id="img10" transform="translate(-908 -12441.328)">
    <rect id="Rect치ngulo_31203" data-name="Rect치ngulo 31203" width="473" height="336" rx="18" transform="translate(908 12441.328)" fill="#fff"/>
    <g id="ventajas-1-01" transform="translate(901.179 12451.801)">
      <g id="Grupo_61274" data-name="Grupo 61274" transform="translate(247.735 83.948)" opacity="0.8">
        <path id="Trazado_140389" data-name="Trazado 140389" d="M1290.738,507.81a56.228,56.228,0,0,1-4.516,9.275c-14.369,23.593-44.2,33.946-70.918,24.608-22.58-7.9-37.086-27.7-38.631-49.38a53.657,53.657,0,0,1,.075-8.64,55.593,55.593,0,0,1,8.877-25.446c.024-.041.051-.076.075-.117A58.831,58.831,0,0,1,1219.258,434q2.154-.595,4.363-1.03a60.732,60.732,0,0,1,31.9,2.265q2.114.737,4.124,1.614a58.009,58.009,0,0,1,23.859,18.951h0a55.834,55.834,0,0,1,9.415,20.553q.54,2.374.873,4.8a54.357,54.357,0,0,1-3.064,26.656Z" transform="translate(-1176.533 -431.816)" fill="#d7e5ff"/>
        <path id="Trazado_140390" data-name="Trazado 140390" d="M1261.5,462.871c-3.48,2.592-2.556,9.526-8.578,5.617s-9.8-6.027-11.506-2.623,3.637,5.278,2.223,9-4.262,4.11-7.275,1.058-3.1-5.99-7.98-5.893-6.962-1.833-6.723-5.358a4.764,4.764,0,0,0-.162-1.633c.024-.041.05-.076.075-.117a58.829,58.829,0,0,1,33.559-24.107q2.154-.595,4.363-1.03a7.581,7.581,0,0,1,4.492,4.722c2.124,5.955,5.567,4.553,2.643,9.542s-1.722,6.221,1.471,7.127,6.87,2.2,6.374,4.633S1264.979,460.279,1261.5,462.871Z" transform="translate(-1212.413 -436.621)" fill="#aec3ff"/>
        <path id="Trazado_140391" data-name="Trazado 140391" d="M1577.84,693.358a56.228,56.228,0,0,1-4.516,9.275A57.194,57.194,0,0,1,1556.876,720a6.863,6.863,0,0,1-4.381-1.66c-5.9-5.068,1.918-10.451,6.032-13.07s-3.524-3.488-7.376-8.591,5.165-12.011-.628-12.4-12.844-.735-14.024-6.707,4.916-4.744,3.85-9.775,3.975-5.974,9.368-4.537,6.062-2.391,12.745-.653,3.536,9.652,10.912,11.632,6.453,3.458,6.453,3.458a3.587,3.587,0,0,1,1.384.826,54.961,54.961,0,0,1-3.371,14.837Z" transform="translate(-1463.636 -617.365)" fill="#aec3ff"/>
        <path id="Trazado_140392" data-name="Trazado 140392" d="M1637.723,574.719c-7.022.708-6.547-7.726-12.509-7.226-6.012.5-3.435-3.608-6.416-7.856s-13.012-1.944-10.971-6.241,7.641-.935,10.268-4.024,8.178-.144,8.178-.144a4.34,4.34,0,0,1,1.158.14h0a55.832,55.832,0,0,1,9.415,20.553Q1637.389,572.295,1637.723,574.719Z" transform="translate(-1520.455 -525.381)" fill="#aec3ff"/>
        <path id="Trazado_140393" data-name="Trazado 140393" d="M1482.939,475.622s4.769-3.249.285-6.266-5.024-1.308-8.738-3.056-6.319.6-4.607,4.753,1.778,11,5.614,8.708S1479.742,474.854,1482.939,475.622Z" transform="translate(-1410.171 -459.125)" fill="#aec3ff"/>
      </g>
      <path id="Trazado_140394" data-name="Trazado 140394" d="M170.679,1592.553h20.529c1.1-.9-.76-2.936-2.706-3.074a12.475,12.475,0,0,0-3.134.358c-.281-3.61-1.9-19.84-7.976-19.186-6.836.729,0,7.147,1.934,10.945a90.47,90.47,0,0,1,3.637,8.749c-.556.115-1.13.229-1.716.332-.907-2.677-4.278-11.68-8.566-11.157-5.036.614-3.011,4.224.558,6.369,2.617,1.575,5.832,3.814,7.36,4.9a22.7,22.7,0,0,1-4.015.309C173.062,1591.021,171.348,1592.018,170.679,1592.553Z" transform="translate(-125.395 -1265.286)" fill="#a8d29f"/>
      <path id="Trazado_140395" data-name="Trazado 140395" d="M1715.086,1599.012h-19.07c-1.023-.832.707-2.722,2.514-2.854a11.527,11.527,0,0,1,2.91.33c.263-3.354,1.762-18.426,7.41-17.822,6.349.678,0,6.639-1.8,10.168a81.861,81.861,0,0,0-3.373,8.13c.515.109,1.049.214,1.594.309.841-2.487,3.973-10.848,7.956-10.362,4.676.571,2.8,3.925-.517,5.914-2.425,1.464-5.418,3.544-6.836,4.549a20.983,20.983,0,0,0,3.728.288C1712.873,1597.589,1714.468,1598.514,1715.086,1599.012Z" transform="translate(-1343.061 -1271.745)" fill="#a8d29f"/>
      <path id="Trazado_140396" data-name="Trazado 140396" d="M1840.5,1047.418s.455-4.343-1.906-4.193-2.987,1.19-2.722,2.026a23.668,23.668,0,0,0,2.558,3.595Z" transform="translate(-1454.858 -840.409)" fill="#ffb27d"/>
      <path id="Trazado_140397" data-name="Trazado 140397" d="M1884.424,1070.64a38.243,38.243,0,0,1-8.233,6.363c-.534.323-1.089.649-1.677.972a63.42,63.42,0,0,1-7.7,3.643c-.325.128-.707.27-1.136.42-3.369,1.167-9.564,2.829-13.406,2.976-.333.014-.651.014-.946,0-5.844-.226-6.557-22.05-6.557-22.05s.651-2.183,3.654-1.633c0,0,4.561,12.324,6.194,13.329,1.453.892,9.8-11.276,16.974-12.125C1876.432,1061.973,1884.424,1070.64,1884.424,1070.64Z" transform="translate(-1461.998 -854.928)" fill="#739af0"/>
      <path id="Trazado_140398" data-name="Trazado 140398" d="M1907.5,1649.294s.43,4.8-.624,5.3l-13.509-.027s0-1.5,2.17-1.833,5.982-1.555,6.626-4.277S1907.5,1649.294,1907.5,1649.294Z" transform="translate(-1500.778 -1327.158)" fill="#1c3154"/>
      <path id="Trazado_140399" data-name="Trazado 140399" d="M1914.069,1295.55c.067,3.142.222,6.382.529,9.295,1.459,13.819,1.972,30.522,2.182,33.734.364,5.587,1.511,14.515,1.511,14.515s2.276,2.078,6.711,1.085a140.256,140.256,0,0,0,4.5-26.395c.014-.222.026-.445.038-.669.095-1.789.2-3.836.3-6.042.677-14.775,1.414-36.743,1.414-36.743L1914.3,1280.5S1913.9,1287.719,1914.069,1295.55Z" transform="translate(-1517.261 -1031.56)" fill="#2a4e96"/>
      <path id="Trazado_140400" data-name="Trazado 140400" d="M1914.068,1295.549c4.3,7.131,12.484,20.269,15.762,25.522.677-14.775,1.415-36.744,1.415-36.744l-16.952-3.828S1913.9,1287.719,1914.068,1295.549Z" transform="translate(-1517.26 -1031.56)" fill="#233862"/>
      <path id="Trazado_140401" data-name="Trazado 140401" d="M1895.316,1145.675c-3.369,1.167-9.565,2.829-13.406,2.976.588-.1,4.864-.919,6.444-2.757,1.7-1.975,4.559-7.337,6.832-5.15C1896.26,1141.778,1895.944,1143.813,1895.316,1145.675Z" transform="translate(-1491.633 -918.559)" fill="#6385db"/>
      <path id="Trazado_140402" data-name="Trazado 140402" d="M2074.241,1345.009s1.053,3.97.881,4.86a16.856,16.856,0,0,1-1.841,4.611c-.641.743-.667-3.223-1.093-3.845s-.2,1.479-.536,1.652-.911-1.592-1.164-2.218.909-2.8,1.01-4.365S2074.241,1345.009,2074.241,1345.009Z" transform="translate(-1642.075 -1083.335)" fill="#ffb27d"/>
      <path id="Trazado_140403" data-name="Trazado 140403" d="M2095.444,1624.769s2.4,2.111,1.934,3.612-2.639,2.5-2.932,4.331-1.465,2.835-2.522,2.835h-5.032s-.776-1.291,1.1-1.68,2.585-2.543,2.468-4.543a33.933,33.933,0,0,1,.176-4.666l3.987-.889Z" transform="translate(-1655.066 -1308.094)" fill="#1c3154"/>
      <path id="Trazado_140404" data-name="Trazado 140404" d="M1928.55,1281.378s15.869,32.661,24.314,47,11.084,18.331,11.084,18.331,4.838-1.833,5.278-3.083c0,0-3.233-27.668-8.891-34.411-3.195-3.81-6.95-15.248-7.125-19.247s-3.882-13.546-3.882-13.546Z" transform="translate(-1528.848 -1028.273)" fill="#2a4e96"/>
      <path id="Trazado_140405" data-name="Trazado 140405" d="M1913.825,1108a27.781,27.781,0,0,0,13.944,6.965c3.854.71,11.676,1.4,13.616-1.244.457-.62.459-1.538.358-2.969-.261-3.725-1.235-10.922,3.16-25.388a23.96,23.96,0,0,0,.847-3.867c.958-7.4.855-12.986-5.82-15.971-10-4.471-14.1-.793-14.1-.793a16.338,16.338,0,0,0-7.75,9.359C1913.221,1088.03,1913.825,1108,1913.825,1108Z" transform="translate(-1517.08 -856.594)" fill="#739af0"/>
      <path id="Trazado_140406" data-name="Trazado 140406" d="M1983.2,1028.554a7.674,7.674,0,0,1-7.477.471c-.218-.105-.19-1.542-.135-2.953s.19-2.745.19-2.745l3.559-2.247,3.4-2.139C1982.33,1026.306,1983.961,1028.031,1983.2,1028.554Z" transform="translate(-1566.349 -820.849)" fill="#ffb27d"/>
      <path id="Trazado_140407" data-name="Trazado 140407" d="M1982.325,1030.784a10.886,10.886,0,0,1-6.545,4.083c.052-1.386.2-2.916.2-2.916l3.54-2.08Z" transform="translate(-1566.534 -829.654)" fill="#ed985f"/>
      <path id="Trazado_140408" data-name="Trazado 140408" d="M1957.325,981.444s8.609,3.089,10.524-2.012,4.316-8.142-1.1-10.331-7.22-.609-8.3.945S1955.124,980.507,1957.325,981.444Z" transform="translate(-1551.065 -779.833)" fill="#ffb27d"/>
      <path id="Trazado_140409" data-name="Trazado 140409" d="M1968.979,955.72c.1-.072.3-.109.719-.053a1.731,1.731,0,0,0-.732-.358,2.022,2.022,0,0,0-1.01-2.037,1.2,1.2,0,0,1,.426.972c-.917-1.361-3.209-2.648-10.132-3.426-9.126-1.026-7.3,5.072-6.275,5.953s4.329-.371,6.467.206,1.928,3.669,2.578,4.221.511-.231,1.595-.476.853,1.361.353,2.333.588,2.6.588,2.6l1.675-1.167c1.675-1.166,4.221-6.983,3.86-8.395A2.971,2.971,0,0,1,1968.979,955.72Z" transform="translate(-1546.844 -765.878)" fill="#2c3a64"/>
      <path id="Trazado_140410" data-name="Trazado 140410" d="M2031.038,1185c-.261-3.725-1.235-10.922,3.161-25.388a23.949,23.949,0,0,0,.847-3.867h0c-3.266-1.036-9.215,1.268-9.215,1.268S2024.43,1176.14,2031.038,1185Z" transform="translate(-1606.371 -930.846)" fill="#6385db"/>
      <path id="Trazado_140411" data-name="Trazado 140411" d="M1995.4,1079.68s4.02,1.406,6.582,11.641c1.693,6.761,4.811,16.7,5.163,19.83s-3.565,21.41-3.565,21.41a2.624,2.624,0,0,1-1.905.126,3.162,3.162,0,0,1-1.9-1.093s-.936-12.187-.7-17.942c.1-2.391-11.5-17.51-17.769-19.458C1978.857,1093.425,1995.4,1079.68,1995.4,1079.68Z" transform="translate(-1570.749 -869.781)" fill="#739af0"/>
      <path id="Trazado_140412" data-name="Trazado 140412" d="M1773.9,935.329a138.856,138.856,0,0,1,25.017,2.057l1.4-3.394,1.534-3.719S1788.4,924.7,1780.31,916.94Z" transform="translate(-1405.45 -738.679)" fill="#aec3ff"/>
      <path id="Trazado_140413" data-name="Trazado 140413" d="M1775.177,915.509l-6.669,18.935h0a1.759,1.759,0,0,1-1.078-.861,1.648,1.648,0,0,1-.092-1.345l5.86-15.91a1.433,1.433,0,0,1,.8-.821,1.518,1.518,0,0,1,1.169,0Z" transform="translate(-1400.133 -737.431)" fill="#f99746"/>
      <path id="Trazado_140414" data-name="Trazado 140414" d="M1830.4,1019.225h0a2.411,2.411,0,0,0,2.829-1.814l2.3-11.052a2.326,2.326,0,0,0-1.887-2.722h0a2.409,2.409,0,0,0-2.829,1.816l-2.287,11.05A2.322,2.322,0,0,0,1830.4,1019.225Z" transform="translate(-1448.992 -808.485)" fill="#f99746"/>
      <path id="Trazado_140415" data-name="Trazado 140415" d="M1773.9,1002.526a138.855,138.855,0,0,1,25.017,2.057l1.4-3.394C1787.724,998.714,1773.9,1002.526,1773.9,1002.526Z" transform="translate(-1405.45 -805.876)" fill="#739af0"/>
      <path id="Trazado_140416" data-name="Trazado 140416" d="M1879.36,983.96l3.637.614c-.056,0,3.371.64,4.494-2.281a2.263,2.263,0,0,0,.214-.632c.873-3.641-1.213-4.312-1.213-4.312l-4.67-1.75-1.485,5.055v.018Z" transform="translate(-1489.599 -785.935)" fill="#f99746"/>
      <path id="Trazado_140417" data-name="Trazado 140417" d="M1879.36,1004.889l3.637.614c-.056,0,3.371.64,4.494-2.28-2.053-1.437-7.145-1.643-7.145-1.643v.017Z" transform="translate(-1489.599 -806.864)" fill="#ed7d2b"/>
      <path id="Trazado_140418" data-name="Trazado 140418" d="M1833.316,1028.6s1.776.68,1.451,1.433-2.583,1.787-2.94,1.194S1832.192,1027.958,1833.316,1028.6Z" transform="translate(-1451.597 -828.549)" fill="#ffb27d"/>
      <path id="Trazado_140419" data-name="Trazado 140419" d="M1857.067,1044.58a22.908,22.908,0,0,0,.356-2.549c.022-.8.119-1.458-.077-1.481s-.339.125-.42.389-.386,1.859-.386,1.859l.154,1.555Z" transform="translate(-1471.39 -838.256)" fill="#ffb27d"/>
      <path id="Trazado_140420" data-name="Trazado 140420" d="M950.182,1050.919,940.122,1165.97s-1.053,6.973,4.339,6.987c8.867.019,44.13,0,44.13,0s-6.669-1.452-6.592-4.718c.1-3.851,11.755-118.409,11.755-118.409Z" transform="translate(-740.094 -845.734)" fill="#7599ea"/>
      <path id="Trazado_140421" data-name="Trazado 140421" d="M1003.385,1162.264c-1.744,0-35.883.06-44.518-.047-3.763-.045-4.421-3.219-4.446-5.272a9.765,9.765,0,0,1,.115-1.713l.261-2.99.667-7.623.588-6.732.758-8.653.637-7.3,7.148-81.753,43.572-1.087s-4.911,47.941-8.384,82.84c-.388,3.888-.756,7.617-1.1,11.1q-.168,1.668-.321,3.256c-.321,3.305-.606,6.334-.873,9.011-.133,1.409-.259,2.722-.372,3.923-.443,4.7-.7,7.71-.705,8.282a4.514,4.514,0,0,0,.085.931C997.2,1162.1,1002.731,1162.264,1003.385,1162.264Z" transform="translate(-751.569 -837.082)" fill="#90aff4"/>
      <path id="Trazado_140422" data-name="Trazado 140422" d="M466.57,733.39l24.5,94.674,3.354,12.967,11.411,44.1H717.823L675.766,733.39Z" transform="translate(-362.303 -590.813)" fill="#aec3ff"/>
      <path id="Trazado_140423" data-name="Trazado 140423" d="M453.155,733.39l-3.395,1.089L487.906,888.42l4.514-3.293Z" transform="translate(-348.89 -590.813)" fill="#90aff4"/>
      <path id="Trazado_140424" data-name="Trazado 140424" d="M638.53,1517.183H849.215l5.818-3.293H643.044Z" transform="translate(-499.514 -1219.576)" fill="#7599ea"/>
      <rect id="Rect치ngulo_36676" data-name="Rect치ngulo 36676" width="45.617" height="2.086" transform="translate(258.619 327.266) rotate(180)" fill="#aec3ff"/>
      <path id="Trazado_140425" data-name="Trazado 140425" d="M1002.686,1530.82l-.236,1.6-42.9,8.336.588-6.733.281-3.2Z" transform="translate(-755.662 -1233.215)" fill="#5888dd"/>
      <path id="Trazado_140426" data-name="Trazado 140426" d="M1003.394,1618.607c-1.744,0-35.883.06-44.518-.047-3.763-.045-4.422-3.22-4.446-5.272l42.7-7.728c-.443,4.7-.7,7.71-.705,8.282a4.515,4.515,0,0,0,.085.931C997.212,1618.44,1002.739,1618.607,1003.394,1618.607Z" transform="translate(-751.577 -1293.425)" fill="#5888dd" opacity="0.4"/>
      <path id="Trazado_140427" data-name="Trazado 140427" d="M466.56,733.39h209.2L709.7,855.337H498.117Z" transform="translate(-362.295 -590.813)" fill="#aec3ff"/>
      <path id="Trazado_140428" data-name="Trazado 140428" d="M734.049,877.121H538.176l-7-26.825-2.708-10.38-1.105-4.232-7.194-27.567-.372-1.437L516,792.11l-1.7-6.521-1.451-5.562-3.4-13.037H702.49l3.736,13.037,1.592,5.562,1.867,6.521,12.309,42.953v0l1.045,3.639.485,1.689,8.5,29.655Z" transform="translate(-396.51 -617.881)" fill="#739af0"/>
      <path id="Trazado_140429" data-name="Trazado 140429" d="M706.234,780.029H512.851l-3.4-13.039H702.5Z" transform="translate(-396.518 -617.881)" fill="#607cf4"/>
      <path id="Trazado_140430" data-name="Trazado 140430" d="M548.792,790.549a1.241,1.241,0,0,1,1.271-1.629,2.3,2.3,0,0,1,2.118,1.629,1.243,1.243,0,0,1-1.273,1.629A2.3,2.3,0,0,1,548.792,790.549Z" transform="translate(-427.868 -635.547)" fill="#e9f3fe"/>
      <path id="Trazado_140431" data-name="Trazado 140431" d="M576.622,790.549a1.241,1.241,0,0,1,1.271-1.629,2.3,2.3,0,0,1,2.116,1.629,1.241,1.241,0,0,1-1.271,1.629A2.3,2.3,0,0,1,576.622,790.549Z" transform="translate(-450.074 -635.547)" fill="#e9f3fe"/>
      <path id="Trazado_140432" data-name="Trazado 140432" d="M606.615,790.549a1.243,1.243,0,0,1,1.273-1.629A2.3,2.3,0,0,1,610,790.549a1.242,1.242,0,0,1-1.271,1.629,2.3,2.3,0,0,1-2.118-1.629Z" transform="translate(-474.007 -635.547)" fill="#e9f3fe"/>
      <path id="Trazado_140433" data-name="Trazado 140433" d="M1229.529,73.307c7.915-8.943,20.125-26.9,28.344-36.1a2.829,2.829,0,0,0,.452-3.121,3.041,3.041,0,0,0-2.762-1.694h-14.954L1254.714,1.7a1.241,1.241,0,0,0-2.146-1.205l-34.111,43.921a1.76,1.76,0,0,0-.12,2,1.911,1.911,0,0,0,1.864.89l16.932-2.006L1227.06,71.917A1.444,1.444,0,0,0,1229.529,73.307Z" transform="translate(-961.951 0)" fill="#fe7062"/>
      <path id="Trazado_140434" data-name="Trazado 140434" d="M852.83,419.186c1.78-8.8,2.906-25.112,4.8-34.179a2.184,2.184,0,0,0-.914-2.236,2.388,2.388,0,0,0-2.493-.132l-9.93,5.381-2.572-25.456a.958.958,0,0,0-1.893-.029l-5.579,41.438a1.368,1.368,0,0,0,.7,1.37,1.486,1.486,0,0,0,1.584-.08l10.466-7.424,3.66,21.307A1.116,1.116,0,0,0,852.83,419.186Z" transform="translate(-655.668 -291.412)" fill="#aec3ff"/>
      <path id="Trazado_140435" data-name="Trazado 140435" d="M918.243,625.1l-170.2,13.8c-12.923,1.048-22.275-11.628-16.975-23.018l72.106-155.25c5.47-11.779,22.285-13.142,29.728-2.411L930.986,599.67C938.182,610.056,931.166,624.057,918.243,625.1Z" transform="translate(-572.149 -363.269)" fill="#e6efff"/>
      <path id="Trazado_140436" data-name="Trazado 140436" d="M893.4,605.531l-170.2,13.8a23.862,23.862,0,0,1-21.133-9.44,21.884,21.884,0,0,1-2.292-22.307l72.106-155.252a23.174,23.174,0,0,1,19.48-13.3,23.527,23.527,0,0,1,21.519,9.981l98.091,141.454a21.876,21.876,0,0,1,1.616,22.364,23.509,23.509,0,0,1-19.2,12.708ZM792.437,431.412a10.427,10.427,0,0,0-8.768,5.988L711.563,592.65a9.85,9.85,0,0,0,1.031,10.04,10.739,10.739,0,0,0,9.512,4.249l170.2-13.8a10.579,10.579,0,0,0,8.639-5.72,9.844,9.844,0,0,0-.729-10.064L802.122,435.9A10.587,10.587,0,0,0,792.437,431.412Z" transform="translate(-546.751 -337.502)" fill="#fe7062"/>
      <path id="Trazado_140437" data-name="Trazado 140437" d="M1112.174,766.811a14.432,14.432,0,0,1,.661-5.947,13.612,13.612,0,0,1,2.914-4.921,15.254,15.254,0,0,1,4.888-3.488,19.663,19.663,0,0,1,6.7-1.654,20.264,20.264,0,0,1,6.939.548,15.461,15.461,0,0,1,5.48,2.648,13.862,13.862,0,0,1,3.726,4.382,14.592,14.592,0,0,1,1.688,5.756,14.14,14.14,0,0,1-.667,5.9,13.706,13.706,0,0,1-2.916,4.874,15.149,15.149,0,0,1-4.941,3.5,20.121,20.121,0,0,1-6.747,1.658,19.724,19.724,0,0,1-6.889-.554,15.462,15.462,0,0,1-5.428-2.652,13.952,13.952,0,0,1-3.72-4.345A14.2,14.2,0,0,1,1112.174,766.811Zm26.313-29.622-24.516,1.987-10.53-80.3,31.462-2.551Z" transform="translate(-870.475 -528.726)" fill="#fe7062"/>
      <path id="Trazado_140438" data-name="Trazado 140438" d="M623.66,1082.959s.533-1.155.879-1.7,1.819-2.139,2.073-1.787,1.257,2.8.723,3.488.034,1.872-2.627,2.594Z" transform="translate(-487.649 -869.572)" fill="#ffb27d"/>
      <path id="Trazado_140439" data-name="Trazado 140439" d="M477.59,1060.12s13.6,10.918,18.9,9.915c4.147-.789,10.7-2.79,10.7-2.79s1.73,1.583,1.241,3.48c0,0-8.35,7.559-14.3,7.609-9.3.076-13.685-4.434-13.685-4.434Z" transform="translate(-371.096 -854.023)" fill="#e46255"/>
      <path id="Trazado_140440" data-name="Trazado 140440" d="M359.58,1644.408s.4,6.126,1.627,6.221c.164.012,6.248.012,6.248.012l7.768-.043a2.459,2.459,0,0,0-2.322-2.181c-2.269-.381-6.062-1.915-7.447-4.8C364.008,1640.57,359.58,1644.408,359.58,1644.408Z" transform="translate(-276.934 -1323.135)" fill="#113c68"/>
      <path id="Trazado_140441" data-name="Trazado 140441" d="M357.37,1341.367a16.738,16.738,0,0,0,4.2.76,16.024,16.024,0,0,0,3.926-.538,99.973,99.973,0,0,1,2.89-13.249c1.283-4.775,3.114-10.916,5.719-18.547,7.206-21.09,9.4-33.427,9.6-34.6.01-.062.014-.093.014-.093l-.024-.01-22.156-9.355s2.738,29.066-.756,40.221a45.577,45.577,0,0,0-1.267,5.346C357.317,1323.425,357.37,1341.367,357.37,1341.367Z" transform="translate(-275.17 -1019.669)" fill="#2a4e96"/>
      <path id="Trazado_140442" data-name="Trazado 140442" d="M381.785,1328.34c1.283-4.775,3.114-10.916,5.719-18.547,7.206-21.09,9.4-33.427,9.6-34.6a.912.912,0,0,0-.01-.1l-22.156-9.355s2.738,29.066-.756,40.221C373.7,1307.521,381.785,1328.34,381.785,1328.34Z" transform="translate(-288.566 -1019.669)" fill="#233862"/>
      <path id="Trazado_140443" data-name="Trazado 140443" d="M445.19,1644.408s.394,6.126,1.627,6.221c.164.012,6.248.012,6.248.012l7.766-.043a2.455,2.455,0,0,0-2.32-2.181c-2.269-.381-6.062-1.915-7.447-4.8C449.618,1640.57,445.19,1644.408,445.19,1644.408Z" transform="translate(-345.244 -1323.135)" fill="#15447c"/>
      <path id="Trazado_140444" data-name="Trazado 140444" d="M414.348,1269.26a292.132,292.132,0,0,1-3.1,41.962c-3.387,23.127-2.239,32.943-2.239,32.943a23.8,23.8,0,0,1-3.266.8,15.163,15.163,0,0,1-4.85-.54s-4.85-23.135-3.458-34.71-6.636-39.726-6.636-39.726Z" transform="translate(-301.845 -1022.504)" fill="#2a4e96"/>
      <path id="Trazado_140445" data-name="Trazado 140445" d="M429.61,1003.936l4.324,2.722,3.939-1.071c.719-.988.909-2.893.919-4.543a26.907,26.907,0,0,0-.154-3.025l-5.834-2.477-2.176-.922c0,.033.17,1.719.2,1.966A13.918,13.918,0,0,1,429.61,1003.936Z" transform="translate(-332.812 -801.257)" fill="#ffb27d"/>
      <path id="Trazado_140446" data-name="Trazado 140446" d="M400.041,1085.305c-5.381,5-25.747,4.158-27-1.349s1.368-46.882,10.561-49.481c1.908-.539,12.107,2.632,12.107,2.632a60.254,60.254,0,0,1,2.649,9.155c.2,1,.8,11.571,1.243,21.463.2,4.625.384,9.1.473,12.384A34.568,34.568,0,0,1,400.041,1085.305Z" transform="translate(-287.438 -833.314)" fill="#fe7062"/>
      <path id="Trazado_140447" data-name="Trazado 140447" d="M437.1,1000.509c1.184,1.925,5.337,3.608,7.536,4.38a26.909,26.909,0,0,0-.154-3.025l-5.834-2.477C437.354,999.372,436.578,999.65,437.1,1000.509Z" transform="translate(-338.659 -805.097)" fill="#fca56b"/>
      <path id="Trazado_140448" data-name="Trazado 140448" d="M433.42,948.7s-9.4,2.821-11.135-2.838-4.118-9.094,1.8-11.144,7.762-.214,8.819,1.54S435.818,947.815,433.42,948.7Z" transform="translate(-325.392 -752.269)" fill="#ffb27d"/>
      <path id="Trazado_140449" data-name="Trazado 140449" d="M416.376,922.919s-.606,6.585-2.021,6.3-2.973-.9-2.766,1.087-1.376,5.387-3.417,5.379c-4.377-.017-9.132-10.823-7.934-12.872C403.7,916.9,421.373,915.707,416.376,922.919Z" transform="translate(-309.226 -739.481)" fill="#163560"/>
      <path id="Trazado_140450" data-name="Trazado 140450" d="M436.067,1023.956c-.121-.049-7-3.015-7.8-2.761s-1.807,2.619-1.807,2.619l12.107,2.632A5.885,5.885,0,0,0,436.067,1023.956Z" transform="translate(-330.299 -822.654)" fill="#ed7d2b"/>
      <path id="Trazado_140451" data-name="Trazado 140451" d="M519.409,1185.6,480.866,1220.5c-.754.684-1.708.9-2.116.486l-1.3-1.33c-.4-.418-.125-1.32.63-2l38.536-34.91c.756-.682,1.708-.9,2.118-.484l1.3,1.33C520.456,1184.009,520.162,1184.911,519.409,1185.6Z" transform="translate(-370.836 -952.248)" fill="#1f4d84"/>
      <path id="Trazado_140452" data-name="Trazado 140452" d="M497.78,1289.25l-16.914,15.318c-.754.684-1.708.9-2.116.486l-1.3-1.33c-.4-.418-.125-1.32.63-2l16.914-15.32Z" transform="translate(-370.836 -1036.312)" fill="#739af0"/>
      <path id="Trazado_140453" data-name="Trazado 140453" d="M636.807,976.95a30.009,30.009,0,0,0,27.037,20.535A30.361,30.361,0,0,0,693.3,980.3a28.263,28.263,0,0,0-6.427-32.558c-.154-.148-.313-.3-.475-.439a31.129,31.129,0,0,0-36.638-3.512A28.551,28.551,0,0,0,636.807,976.95Zm8.635-26.829a28.606,28.606,0,0,1,39.335-1.155,26.06,26.06,0,0,1,1.2,37.842,28.606,28.606,0,0,1-39.335,1.151,26.027,26.027,0,0,1-1.2-37.832Z" transform="translate(-497.09 -756.784)" fill="#1f4d84"/>
      <g id="Grupo_61275" data-name="Grupo 61275" transform="translate(140.779 184.916)" opacity="0.5">
        <path id="Trazado_140454" data-name="Trazado 140454" d="M695.349,996.281a28.606,28.606,0,0,1-39.336,1.159,26.06,26.06,0,0,1-1.2-37.843,28.606,28.606,0,0,1,39.336-1.151,25.957,25.957,0,0,1,1.2,37.836Z" transform="translate(-647.253 -951.17)" fill="#b3cff9"/>
      </g>
      <path id="Trazado_140455" data-name="Trazado 140455" d="M430.978,1128.635c-21.236-14.559-19.47-33.985-19.47-33.985,7.762,4.211,15.463,13.523,19,21.6C430.708,1120.876,430.883,1125.355,430.978,1128.635Z" transform="translate(-318.34 -881.84)" fill="#ed7d2b"/>
      <path id="Trazado_140456" data-name="Trazado 140456" d="M601.652,1228.672a5.814,5.814,0,0,0,2.712-1.612s.639.043-.105,1.361c-.061.109-.2.389-.3.583a.122.122,0,0,0,0,.12.132.132,0,0,0,.107.062,14.6,14.6,0,0,1,3.4.068c.23.047.3.583.287.8a1.993,1.993,0,0,1-.447,1.4,7.46,7.46,0,0,1-2.684,1.351,8.409,8.409,0,0,1-4.153-.5l-1.358-.607.42-2.43.342.068C600.415,1229.443,601.086,1228.8,601.652,1228.672Z" transform="translate(-468.06 -988.509)" fill="#ffb27d"/>
      <path id="Trazado_140457" data-name="Trazado 140457" d="M416.46,1048.27s-19.08,3.5,5.614,30.079c3.951,4.252,25.288,9.789,25.288,9.789s2.164-1.773,1.073-3.208c0,0-14.691-10.263-17.924-11.894-1.453-.735-5.644-16.383-8.014-20.152A10.676,10.676,0,0,0,416.46,1048.27Z" transform="translate(-316.708 -844.477)" fill="#e46255"/>
      <path id="Trazado_140458" data-name="Trazado 140458" d="M626.22,1080.756a9.152,9.152,0,0,0,.746-1.75,9.538,9.538,0,0,1,1.233-2.681c.129-.125.556.037.606.571a3.037,3.037,0,0,1-.305,1.167,12.783,12.783,0,0,0-.4,2.308C627.792,1081.285,626.22,1080.756,626.22,1080.756Z" transform="translate(-489.691 -867.046)" fill="#ffb27d"/>
      <path id="Trazado_140459" data-name="Trazado 140459" d="M662.625,823.794a1.074,1.074,0,0,0-.2,1.184h0a7.424,7.424,0,0,0,2.425,2.553c.145.113.275.216.388.311l.087.076.067.056c1.063.943.663,1.167,2.57,3.072,2.176,2.179,3.674,2.22,4.1,2.022.362-.169-.372-1.326-1.182-2.625l-.119-.194-.321-.523c-.952-1.555-.707-2.3-.481-4.623.184-1.89,3.061-10.56,3.061-10.56l-4.171-.692s-1.259,6.9-2.643,7.971a15.811,15.811,0,0,1-2.281.993l-.148.089A5.5,5.5,0,0,0,662.625,823.794Z" transform="translate(-518.502 -655.631)" fill="#ffb27d"/>
      <path id="Trazado_140460" data-name="Trazado 140460" d="M662.625,861.319a1.074,1.074,0,0,0-.2,1.184h0a8.628,8.628,0,0,0,2.425,2.545c.143.115.271.22.384.319l.087.076.067.056c1.063.943.663,1.166,2.57,3.072,2.176,2.179,3.674,2.22,4.1,2.022.362-.169-.372-1.326-1.182-2.625a9.264,9.264,0,0,1-3.88-2.751c-1.261-1.555-2.12-3.529-2.979-4.742l-.245-.045A5.509,5.509,0,0,0,662.625,861.319Z" transform="translate(-518.502 -693.155)" fill="#233862"/>
      <path id="Trazado_140461" data-name="Trazado 140461" d="M817.092,816.335c.259,1.24,2.094,1.034,4.145.552s1.562.091,4.482-.218,3.8-1.361,3.892-1.775c.079-.369-1.362-.5-2.91-.673l-.586-.068c-1.746-.212-3.031-1.295-4.609-2.187-1.5-.844-3.742-4.277-3.742-4.277l-4,.3s2.1,3.07,2.91,4.4a4.47,4.47,0,0,1,.392,2.625A4.788,4.788,0,0,0,817.092,816.335Z" transform="translate(-639.333 -650.668)" fill="#ffb27d"/>
      <path id="Trazado_140462" data-name="Trazado 140462" d="M834.118,843.955c2.051-.48,1.562.091,4.482-.218s3.8-1.361,3.892-1.775c.079-.369-1.362-.5-2.91-.673l-.014.029a8.472,8.472,0,0,1-4.189,1.248c-1.978.045-4.076-.5-5.444-.48a4.787,4.787,0,0,0,.03,1.316C830.233,844.644,832.067,844.438,834.118,843.955Z" transform="translate(-652.215 -677.736)" fill="#233862"/>
      <path id="Trazado_140463" data-name="Trazado 140463" d="M700.149,699.928l-3.747,9.684-4.888,12.637a8.24,8.24,0,0,1-2.595-.227,11.7,11.7,0,0,1-2.51-1.166s1.362-13.58,3.894-21.373a13.662,13.662,0,0,1,2.178-4.53C696.407,690.5,700.149,699.928,700.149,699.928Z" transform="translate(-537.718 -558.885)" fill="#233862"/>
      <path id="Trazado_140464" data-name="Trazado 140464" d="M592.688,638.306c-2.13-.663-7.679-.014-13.715,1.034a4.15,4.15,0,0,1-4.219-1.835h0l-15.168-1.145s-5.01,10.677-2.273,17.483a2.667,2.667,0,0,0,2.651,1.645h0s9.166.016,12.1.017c7.544,0,15.964-4.985,17.055-5.193,1.782-.342,2.5,3.089,4.278,6.692s16.752,15.959,16.752,15.959a13.629,13.629,0,0,0,3.254-.321,3.21,3.21,0,0,0,1.4-.848S598.225,640.023,592.688,638.306Z" transform="translate(-434.056 -512.646)" fill="#2a4e96"/>
      <path id="Trazado_140465" data-name="Trazado 140465" d="M541.445,418.229a5.561,5.561,0,0,0-2.9-.727,8.2,8.2,0,0,1-1.4-.082c-5.79-.818-9.279,7.271-9.484,9.721-.378,4.489-2.845,5.171-6.319,7.98-6.968,5.638-4.927,12.184-1.12,14.618,2.283,1.46,6.313,0,6.313,0,.057.037,11.017-5.891,16.419-8.748C551.048,439.88,544.678,420.093,541.445,418.229Z" transform="translate(-402.334 -336.224)" fill="#233862"/>
      <path id="Trazado_140466" data-name="Trazado 140466" d="M594.842,492.473c.024.016-2.657.894-4.446.13-1.687-.717-2.964-3.389-2.938-3.39.766-.033,1.617-.678,2.259-4.913l.327.113,5.493,1.9s-.4,1.7-.657,3.3C594.669,490.982,594.551,492.281,594.842,492.473Z" transform="translate(-458.762 -390.148)" fill="#ffb27d"/>
      <path id="Trazado_140467" data-name="Trazado 140467" d="M605.773,486.783s-.22.916-.54,2.625a6.09,6.09,0,0,1-4.953-4.528Z" transform="translate(-468.993 -390.616)" fill="#ed975d"/>
      <path id="Trazado_140468" data-name="Trazado 140468" d="M604.421,450.619s-7.517-.972-6.814-5.467.2-7.644,5.032-7.215,5.49,2.28,5.636,3.836S606.393,450.749,604.421,450.619Z" transform="translate(-466.823 -352.768)" fill="#ffb27d"/>
      <path id="Trazado_140469" data-name="Trazado 140469" d="M599.5,437.668s-4.813,3.987-8.083,4.308-4.512-.69-4.512-.69a12.335,12.335,0,0,0,3.092-4.026,2.294,2.294,0,0,1,1.9-1.3C594.223,435.761,598.655,435.673,599.5,437.668Z" transform="translate(-458.317 -351.125)" fill="#233862"/>
      <path id="Trazado_140470" data-name="Trazado 140470" d="M634.35,439.736a11.262,11.262,0,0,1,2.116,2.609A8.43,8.43,0,0,1,636.71,447s2.51-4.691,1.089-6.972C636.3,437.609,634.35,439.736,634.35,439.736Z" transform="translate(-496.178 -353.551)" fill="#233862"/>
      <path id="Trazado_140471" data-name="Trazado 140471" d="M575.7,522.753c-.232,14.637-.067,11.579-1.73,12.967a6.628,6.628,0,0,1-3.013.628c-4.666.3-12.866-.447-13.178-1.275-1.075-2.872-.315-3.762-1.212-8.165-.093-.466-.2-.972-.346-1.524-.746-3.017-1.475-4.044,1.182-8.892,2.411-4.39,4.915-7.955,5.139-7.825,6.353,3.63,6.871.583,6.871.583S575.816,515.614,575.7,522.753Z" transform="translate(-433.288 -409.774)" fill="#fe7062"/>
      <path id="Trazado_140472" data-name="Trazado 140472" d="M696.4,733.331l-4.888,12.637a8.243,8.243,0,0,1-2.595-.227,11.692,11.692,0,0,1-2.51-1.166s1.362-13.579,3.894-21.373Z" transform="translate(-537.718 -582.604)" fill="#2a4e96"/>
      <path id="Trazado_140473" data-name="Trazado 140473" d="M624.21,511.7s6.537,1.069,7.305,3.777,3.288,19.147,3.288,19.147-1.845,1.732-3.379.255-4.832-15.384-4.832-15.384Z" transform="translate(-488.088 -412.221)" fill="#e46255"/>
      <path id="Trazado_140474" data-name="Trazado 140474" d="M575.05,586.7c-4.666.3-12.866-.447-13.178-1.275-1.075-2.872-.315-3.762-1.213-8.165l2.253-6.095s-.376,6.789,1.706,8.575,8.518,3.449,9.53,4.94a5.368,5.368,0,0,1,.9,2.02Z" transform="translate(-437.38 -460.122)" fill="#ed7d2b"/>
      <path id="Trazado_140475" data-name="Trazado 140475" d="M605.42,633.556s4.6-.984,5.345-.583a10.856,10.856,0,0,1,2.785,2.323c.226.5-1.653-.379-2.265-.537a5.531,5.531,0,0,0-1.954.412,6.736,6.736,0,0,1-3.5.336Z" transform="translate(-473.095 -509.84)" fill="#ffb27d"/>
      <path id="Trazado_140476" data-name="Trazado 140476" d="M531.3,508.7s-6.18.364-8.32,3.235c-3.015,4.04-8.995,21.259-5.571,23.557,3.856,2.589,17.549.682,17.549.682s.457-2.047-.178-3.039-10.935-2.6-11.4-3.054,5.947-8.92,5.949-10.292S531.3,508.7,531.3,508.7Z" transform="translate(-402.053 -409.805)" fill="#e46255"/>
      <path id="Trazado_140477" data-name="Trazado 140477" d="M633,639.67a8.708,8.708,0,0,0,1.281,1.339.972.972,0,0,0,.519.109l-.649-1.126Z" transform="translate(-495.101 -515.313)" fill="#ffb27d"/>
      <path id="Trazado_140478" data-name="Trazado 140478" d="M631.87,633.33l2.8,1.31a.509.509,0,0,1-.465.173,6.95,6.95,0,0,1-1.212-.321Z" transform="translate(-494.2 -510.206)" fill="#ffb27d"/>
      <path id="Trazado_140479" data-name="Trazado 140479" d="M634.7,649.17l-29.287-.01,0,.622,29.031.01Z" transform="translate(-473.087 -522.958)" fill="#233862"/>
      <path id="Trazado_140480" data-name="Trazado 140480" d="M639.31,586.239l22.18.008,6.677-15.959-22.146-.008Z" transform="translate(-500.136 -459.413)" fill="#233862"/>
      <path id="Trazado_140481" data-name="Trazado 140481" d="M712.862,607.137a.745.745,0,0,0-.752-1.017,1.5,1.5,0,0,0-1.36,1.017.744.744,0,0,0,.754,1.015A1.5,1.5,0,0,0,712.862,607.137Z" transform="translate(-557.105 -488.285)" fill="#fff"/>
      <path id="Trazado_140482" data-name="Trazado 140482" d="M1410.115,960.476a6.573,6.573,0,0,0-5.052.251c-8.6.34-8.924,8.824-7.913,11.981,1.414,4.433-3.6,7.93,1.966,9.721,6.466,2.082,11.876-.389,11.506.684C1431.042,984.663,1416.91,962.646,1410.115,960.476Z" transform="translate(-1104.25 -773.455)" fill="#163560"/>
      <path id="Trazado_140483" data-name="Trazado 140483" d="M1369.824,1101.348a21.63,21.63,0,0,1-2.3,3.348c-1.786,2.152-11.167-2.959-10.359-3.348s5.521-13.451,6.642-15.094,4.949-2.494,4.949-2.494Z" transform="translate(-1072.889 -873.068)" fill="#f99746"/>
      <path id="Trazado_140484" data-name="Trazado 140484" d="M1539.639,1622.977s2.589,2.272,2.083,3.888-2.841,2.691-3.156,4.666-1.578,3.05-2.716,3.05h-5.418s-.837-1.39,1.184-1.808,2.783-2.739,2.655-4.891a36.338,36.338,0,0,1,.19-5.025l4.294-.957Z" transform="translate(-1211.045 -1306.588)" fill="#1f447f"/>
      <path id="Trazado_140485" data-name="Trazado 140485" d="M1409.992,1632.4s.932,9.629-.2,10.167l-14.55-.029s0-1.614,2.336-1.973,6.44-1.674,7.135-4.606S1409.992,1632.4,1409.992,1632.4Z" transform="translate(-1103.309 -1315.047)" fill="#1c3154"/>
      <path id="Trazado_140486" data-name="Trazado 140486" d="M1419.838,1091.7a53.732,53.732,0,0,1,0,6.468c-.145,2.333-2.6,5.473-2.952,6.246-.875,1.944-1.863,2.259-1.863,2.259l-7.636,1.8-2.686.632-8.467-2.434s-3.858-10.356-2.31-16.187a43.772,43.772,0,0,1,3.916-9.88s5.753-1.244,15.908-.55Z" transform="translate(-1101.966 -869.915)" fill="#f99746"/>
      <path id="Trazado_140487" data-name="Trazado 140487" d="M1469.728,1148.264c-.146,2.333-3.33,5.391-3.68,6.165-.875,1.944-1.863,2.259-1.863,2.259l-7.637,1.8-1.378-3.8s11.159-2.821,9.362-12.757Z" transform="translate(-1151.128 -919.929)" fill="#ed7d2b"/>
      <path id="Trazado_140488" data-name="Trazado 140488" d="M1391.817,1225.9s-4.193,12.557-4.462,16.834,8.016,60.737,8.35,62.707c.313,1.857,2.71,3.041,2.71,3.041a3.755,3.755,0,0,0,2.676.194,6.558,6.558,0,0,0,2.874-1.3s3.264-40.268,1.245-54.652a219.323,219.323,0,0,1-2.045-26.829Z" transform="translate(-1097.012 -987.566)" fill="#233862"/>
      <path id="Trazado_140489" data-name="Trazado 140489" d="M1432.674,1224s6.4,8.258,6.994,13.84.936,25.188,2.207,30.629,5.939,15.915,5.939,32.886a3.486,3.486,0,0,1-1.985,1.491,17.14,17.14,0,0,1-1.744.465,2.779,2.779,0,0,1-3.068-1.4c-3.156-6.112-13.208-25.829-13.723-29.922-.366-2.9-3.538-22.066-10.464-33.312-1.661-2.7,1.01-13.44,1.01-13.44Z" transform="translate(-1120.103 -986.043)" fill="#2a4e96"/>
      <path id="Trazado_140490" data-name="Trazado 140490" d="M1405.21,1216a9.019,9.019,0,0,0,5.028,1.345c4,.078,13.893-.972,13.893-.972a7.588,7.588,0,0,1,.422,2.43s-12.09,2.934-19.094.43A4.163,4.163,0,0,1,1405.21,1216Z" transform="translate(-1111.074 -979.599)" fill="#233862"/>
      <path id="Trazado_140491" data-name="Trazado 140491" d="M1419.109,1223.47a1.992,1.992,0,1,1,1.819-1.985A1.9,1.9,0,0,1,1419.109,1223.47Zm0-3.389a1.419,1.419,0,1,0,1.212,1.4A1.317,1.317,0,0,0,1419.109,1220.081Z" transform="translate(-1120.903 -982.419)" fill="#fff"/>
      <path id="Trazado_140492" data-name="Trazado 140492" d="M1362.453,1174.717l-18.171.163-8.942-20.217,18.171-.163Z" transform="translate(-1055.513 -930.055)" fill="#b5453c"/>
      <path id="Trazado_140493" data-name="Trazado 140493" d="M1420.98,1198.244l-1.332-1.575a4.676,4.676,0,0,0-1.556-.906c-.653-.128-2.035-.9-2.17-.681s1.063,1.75,1.063,1.75h.061c-1.372.993-4.836.117-5.254.521-.518.492.713,1.555,1.374,2.139s2.55,1.59,4.023,1.149c1.077-.323,2.77-.651,2.77-.651Z" transform="translate(-1116.417 -962.717)" fill="#ffb27d"/>
      <path id="Trazado_140494" data-name="Trazado 140494" d="M1341.638,1170.273s1.142-1.25,1.869-.649-.19,3.544-.883,3.245S1341.24,1170.638,1341.638,1170.273Z" transform="translate(-1060.446 -942.107)" fill="#ffb27d"/>
      <path id="Trazado_140495" data-name="Trazado 140495" d="M1457.037,1080.93s5.2.55,8.934,7.076c2.944,5.146,7.976,14.631,6.077,17.3-.833,1.176-8.825,5.362-24.237,2.971a4.413,4.413,0,0,1,1.487-2.741s12.969-4.007,12.947-4.8c-.041-1.507-1.752-2.809-9-9.783C1451.284,1089.064,1457.037,1080.93,1457.037,1080.93Z" transform="translate(-1145.255 -870.788)" fill="#f99746"/>
      <path id="Trazado_140496" data-name="Trazado 140496" d="M1442.637,1050.59c.178-.231-.052-.972-.337-2.333a24.623,24.623,0,0,1-.689-5.317l-.384.062-6.446,1.042s.148,1.658.152,3.221v.039c0,1.361-.38,3.408.095,3.674C1437.47,1052.355,1441.948,1051.477,1442.637,1050.59Z" transform="translate(-1134.859 -840.183)" fill="#ffb27d"/>
      <path id="Trazado_140497" data-name="Trazado 140497" d="M1434.78,1044.292s.129,2.333.133,3.9c3.607-.084,5.533-3.455,6.313-4.944Z" transform="translate(-1134.859 -840.433)" fill="#e8945b"/>
      <path id="Trazado_140498" data-name="Trazado 140498" d="M1415.381,1003.534s8.453-1.166,7.622-6.221-.3-8.6-5.731-8.078-6.159,2.613-6.309,4.365S1413.162,1003.7,1415.381,1003.534Z" transform="translate(-1115.849 -796.878)" fill="#ffb27d"/>
      <path id="Trazado_140499" data-name="Trazado 140499" d="M1423.11,986.058s3.29,5.572,6.976,5.906,5.072-.816,5.072-.816a9.832,9.832,0,0,1-4.224-5.2S1424.383,982.977,1423.11,986.058Z" transform="translate(-1125.547 -793.234)" fill="#163560"/>
      <path id="Trazado_140500" data-name="Trazado 140500" d="M1411.126,990.747a5.152,5.152,0,0,0-2.114,2.187,7.962,7.962,0,0,0-.372,4.812s-2.407-3.762-.829-6.34C1409.483,988.672,1411.126,990.747,1411.126,990.747Z" transform="translate(-1112.912 -797.529)" fill="#163560"/>
    </g>
  </g>
</svg>
