<svg xmlns="http://www.w3.org/2000/svg" width="393.978" height="270.177" viewBox="0 0 393.978 270.177">
  <g id="Grupo_61275" data-name="Grupo 61275" transform="translate(-176 -821.245)">
    <g id="Image_Place_Holder" data-name="Image Place Holder" transform="translate(176 821.245)" opacity="0.13">
      <rect id="Image_Place_Holder-2" data-name="Image Place Holder" width="393.978" height="266.693" rx="10" fill="#57dbd8"/>
    </g>
    <g id="productos-01" transform="translate(238 821.242)">
      <rect id="Rectángulo_32913" data-name="Rectángulo 32913" width="270" height="270" transform="translate(0 0.18)" fill="none"/>
      <g id="Grupo_58793" data-name="Grupo 58793" transform="translate(17.761 58.059)">
        <path id="Trazado_130841" data-name="Trazado 130841" d="M134.079,422.825a129.144,129.144,0,0,0,2.134-21.7c-.347-44.688-33.5-44.129-44.931-72.9a.1.1,0,0,0-.2.063c4.152,14.644,16.778,24.672,27.5,35.249,9.835,9.591,13.536,23.677,13.649,37.618.2,14.446-3.535,27.572-.369,26.671C132.809,427.557,133.858,423.829,134.079,422.825Z" transform="translate(-67.827 -238.442)" fill="#fae28a"/>
        <g id="Grupo_58777" data-name="Grupo 58777" transform="translate(67.259 4.002)">
          <g id="Grupo_58775" data-name="Grupo 58775">
            <path id="Trazado_130842" data-name="Trazado 130842" d="M229.315,168.279a.1.1,0,0,0,.1-.095c.612-8.191-1.684-28.081-2.008-28.3a.122.122,0,0,0-.117-.1.081.081,0,0,0-.086.1c.324.221,2.621,20.106,2.008,28.292A.113.113,0,0,0,229.315,168.279Z" transform="translate(-209.915 -138.897)" fill="#f5d77f"/>
            <path id="Trazado_130843" data-name="Trazado 130843" d="M232.938,167.886a.1.1,0,0,0,.1-.077c2.13-8.632-.761-29.652-1.153-29.891a.122.122,0,0,0-.117-.1.081.081,0,0,0-.081.1c.383.234,3.3,21.232,1.162,29.841a.1.1,0,0,0,.072.122Z" transform="translate(-212.376 -137.82)" fill="#f5d77f"/>
            <path id="Trazado_130844" data-name="Trazado 130844" d="M226.035,170.027h.031a.1.1,0,0,0,.072-.122c-.851-4.863-3.152-29.332-3.566-30.328a.122.122,0,0,0-.1-.122.081.081,0,0,0-.1.081c.41,1.022,2.639,25.311,3.571,30.413A.1.1,0,0,0,226.035,170.027Z" transform="translate(-207.257 -138.718)" fill="#f5d77f"/>
            <path id="Trazado_130845" data-name="Trazado 130845" d="M222.1,172.336a.1.1,0,0,0,.113-.1c.2-3.427-2.495-23.695-3.454-27.072a.131.131,0,0,0-.126-.095.086.086,0,0,0-.081.1c.95,3.377,3.638,23.636,3.445,27.058A.113.113,0,0,0,222.1,172.336Z" transform="translate(-205.155 -141.805)" fill="#f5d77f"/>
            <path id="Trazado_130846" data-name="Trazado 130846" d="M239.735,176.319a.081.081,0,0,0,.086-.068c2.7-8.817,1.148-23.276-.243-29.5a.977.977,0,0,0-.036-.194.122.122,0,0,0-.117-.1.09.09,0,0,0-.077.108l.04.2c1.391,6.21,2.99,20.646.27,29.418a.1.1,0,0,0,.054.131Z" transform="translate(-216.589 -142.569)" fill="#f5d77f"/>
            <path id="Trazado_130847" data-name="Trazado 130847" d="M222.566,180.822a.072.072,0,0,0,.045,0,.095.095,0,0,0,.068-.126c-.833-2.468-2.193-21.641-.648-26.973a.113.113,0,0,0-.072-.135.095.095,0,0,0-.131.05c-1.563,5.363-.2,24.64.644,27.126A.117.117,0,0,0,222.566,180.822Z" transform="translate(-206.566 -146.482)" fill="#f5d77f"/>
            <path id="Trazado_130848" data-name="Trazado 130848" d="M235.145,179.185a.09.09,0,0,0,.09-.054c2.535-5.822,1.351-18.913-.351-24.676a.113.113,0,0,0-.122-.086.086.086,0,0,0-.068.113c1.675,5.557,2.882,18.85.369,24.559a.1.1,0,0,0,.045.135Z" transform="translate(-214.029 -146.917)" fill="#f5d77f"/>
            <path id="Trazado_130849" data-name="Trazado 130849" d="M217.3,189.223a.108.108,0,0,0,.126-.09,84.651,84.651,0,0,0-.509-9.623c-.585-6.754-1.7-15.166-1.594-19.214a.122.122,0,0,0-.108-.117.1.1,0,0,0-.117.09c-.113,4.053,1,12.5,1.585,19.25a83.238,83.238,0,0,1,.509,9.6A.108.108,0,0,0,217.3,189.223Z" transform="translate(-203.257 -150.11)" fill="#f5d77f"/>
            <path id="Trazado_130850" data-name="Trazado 130850" d="M242.906,190.667a.089.089,0,0,0,.081-.072c1.824-7.142,2.7-22.132,2.224-29.341a.117.117,0,0,0-.095-.1.086.086,0,0,0-.081.1c.5,7.2-.369,22.164-2.2,29.269a.1.1,0,0,0,.054.122Z" transform="translate(-218.503 -150.645)" fill="#f5d77f"/>
            <path id="Trazado_130851" data-name="Trazado 130851" d="M230.327,175.012a.1.1,0,0,0,.1-.117c-.829-4.9-1.351-20.651-.77-26.306a.122.122,0,0,0-.086-.126.086.086,0,0,0-.117.068c-.581,5.674-.063,21.479.775,26.4A.1.1,0,0,0,230.327,175.012Z" transform="translate(-211.018 -143.667)" fill="#f5d77f"/>
            <path id="Trazado_130852" data-name="Trazado 130852" d="M240.557,198.546a.077.077,0,0,0,.063-.032c3.922-4.125,4.413-29.972,4.2-31.071a.108.108,0,0,0-.086-.1.089.089,0,0,0-.081.1c.225.279-.221,26.878-4.138,30.949a.117.117,0,0,0,0,.14A.081.081,0,0,0,240.557,198.546Z" transform="translate(-217.217 -154.047)" fill="#f5d77f"/>
            <path id="Trazado_130853" data-name="Trazado 130853" d="M217.165,193.313a.108.108,0,0,0,.081-.023.1.1,0,0,0,0-.144c-2.3-2.535-5.471-19.088-4.242-34.223a.117.117,0,0,0-.1-.117.1.1,0,0,0-.122.086c-1.31,15.441,1.891,31.746,4.3,34.376A.1.1,0,0,0,217.165,193.313Z" transform="translate(-201.818 -149.355)" fill="#f5d77f"/>
            <path id="Trazado_130854" data-name="Trazado 130854" d="M213.129,209.89a.1.1,0,0,0,.09-.032.095.095,0,0,0,0-.144c-3.458-3.206-5.525-33.552-5.782-33.871a.126.126,0,0,0-.131-.1.1.1,0,0,0-.117.1c.32,1.265,2.306,30.751,5.854,34.025A.112.112,0,0,0,213.129,209.89Z" transform="translate(-198.913 -158.664)" fill="#f5d77f"/>
            <path id="Trazado_130855" data-name="Trazado 130855" d="M242.1,213.5a.1.1,0,0,0,.05,0c3.112-2.3,4.76-23.821,4.589-28.625,0-.054-.036-.1-.077-.095a.09.09,0,0,0-.068.1c.189,4.778-1.445,26.189-4.5,28.445a.122.122,0,0,0-.032.14A.068.068,0,0,0,242.1,213.5Z" transform="translate(-218.074 -163.634)" fill="#f5d77f"/>
            <path id="Trazado_130856" data-name="Trazado 130856" d="M240.671,213.651a.1.1,0,0,0,.077-.045c3.1-4.881,5.061-23.015,4.053-32.1,0-.054-.05-.1-.09-.09a.1.1,0,0,0-.068.113c1.018,9.051-.941,27.108-4.053,31.971a.113.113,0,0,0,0,.14Z" transform="translate(-217.26 -161.786)" fill="#f5d77f"/>
            <path id="Trazado_130857" data-name="Trazado 130857" d="M209.129,224.7a.144.144,0,0,0,.072,0,.1.1,0,0,0,.032-.144c-2.886-4.053-6.966-24.4-5.052-33.426a.117.117,0,0,0-.108-.122.126.126,0,0,0-.153.077c-1.945,9.06,2.206,29.531,5.124,33.592A.153.153,0,0,0,209.129,224.7Z" transform="translate(-196.839 -167.052)" fill="#f5d77f"/>
            <path id="Trazado_130858" data-name="Trazado 130858" d="M240.119,231.18a.081.081,0,0,0,.077-.05c3.391-6.133,5.561-19.7,5.692-29.562,0-.054-.027-.108-.063-.1a.1.1,0,0,0-.068.1c-.113,9.835-2.306,23.352-5.7,29.454a.113.113,0,0,0,0,.14A.05.05,0,0,0,240.119,231.18Z" transform="translate(-216.968 -172.807)" fill="#f5d77f"/>
            <path id="Trazado_130859" data-name="Trazado 130859" d="M204.561,238.64a.14.14,0,0,0,.059,0,.095.095,0,0,0,.054-.135c-2.787-5.5-5.822-23.114-6.124-31.832,0-.054-.059-.1-.14-.1s-.14.041-.14.095c.293,8.943,3.319,26.311,6.2,31.935A.122.122,0,0,0,204.561,238.64Z" transform="translate(-194.009 -175.612)" fill="#f5d77f"/>
            <path id="Trazado_130860" data-name="Trazado 130860" d="M240.988,244.1a.081.081,0,0,0,.072-.045c4.5-6.813,5.8-24.388,6.165-28.369,0-.059,0-.1-.05-.108s-.059.045-.063.1c-.41,5.327-1.941,21.966-6.174,28.247a.108.108,0,0,0,0,.14.09.09,0,0,0,.05.036Z" transform="translate(-217.45 -180.564)" fill="#f5d77f"/>
            <path id="Trazado_130861" data-name="Trazado 130861" d="M202.988,237.5a.144.144,0,0,0,.09-.032.1.1,0,0,0,0-.144c-2.49-2.8-10.213-24.811-8.5-37.082a.131.131,0,0,0-.126-.117.135.135,0,0,0-.162.086c-1.734,12.316,6.12,34.443,8.628,37.262A.09.09,0,0,0,202.988,237.5Z" transform="translate(-191.684 -172.066)" fill="#f5d77f"/>
            <path id="Trazado_130862" data-name="Trazado 130862" d="M198.831,259.148a.1.1,0,0,0,.05,0,.1.1,0,0,0,.068-.131c-.077-.2-.167-.428-.266-.671-1.486-4.129-6.241-13.883-7.97-27.747,0-.054-.077-.095-.158-.1s-.144.045-.135.1c1.752,13.9,6.552,23.677,8.051,27.819l.266.671a.108.108,0,0,0,.095.054Z" transform="translate(-189.693 -188.766)" fill="#f5d77f"/>
            <path id="Trazado_130863" data-name="Trazado 130863" d="M235.447,257.966a.081.081,0,0,0,.072-.027c5.4-5.264,7.655-23.51,7.678-30.949,0-.054-.027-.095-.059-.09s-.059.05-.063.108c0,7.4-2.306,25.563-7.655,30.787a.117.117,0,0,0,0,.144A.072.072,0,0,0,235.447,257.966Z" transform="translate(-214.417 -186.787)" fill="#f5d77f"/>
            <path id="Trazado_130864" data-name="Trazado 130864" d="M205.8,264.728a.108.108,0,0,0,.086-.027.1.1,0,0,0,0-.144c-5.007-5.286-6.205-22-3.512-35.033a.117.117,0,0,0-.113-.117.135.135,0,0,0-.153.081c-2.7,13.059-1.436,29.877,3.6,35.213A.09.09,0,0,0,205.8,264.728Z" transform="translate(-195.355 -188.163)" fill="#f5d77f"/>
            <path id="Trazado_130865" data-name="Trazado 130865" d="M238.567,238.4a.09.09,0,0,0,.072-.031c5.1-6.174,6.165-19.291,6.809-26.5,0-.059,0-.1-.054-.108a.1.1,0,0,0-.068.095c-.635,7.2-1.72,20.263-6.8,26.383a.117.117,0,0,0,0,.14.068.068,0,0,0,.045.018Z" transform="translate(-216.123 -178.465)" fill="#f5d77f"/>
            <path id="Trazado_130866" data-name="Trazado 130866" d="M233.572,277.283a.1.1,0,0,0,.05,0c5.025-2.783,7.979-19.169,8.812-26.117,0-.054,0-.108-.041-.117s-.063.032-.068.086c-.847,6.9-3.828,23.217-8.781,25.955a.108.108,0,0,0-.045.135A.09.09,0,0,0,233.572,277.283Z" transform="translate(-213.37 -200.061)" fill="#f5d77f"/>
            <path id="Trazado_130867" data-name="Trazado 130867" d="M197.761,280.532a.108.108,0,0,0,.1-.162c-2.886-3.994-7.741-18.575-8.772-25.811,0-.059-.077-.1-.153-.1s-.14.045-.131.1c1.049,7.263,5.975,21.916,8.88,25.933A.086.086,0,0,0,197.761,280.532Z" transform="translate(-188.808 -201.937)" fill="#f5d77f"/>
            <path id="Trazado_130868" data-name="Trazado 130868" d="M230.3,286.624a.054.054,0,0,0,.045,0c1.945-.824,4.476-5.093,6.363-11.451a65.9,65.9,0,0,0,2.7-16.049c0-.059-.027-.1-.063-.095s-.063.049-.063.108c.167,8.141-4.553,25.59-9.006,27.3a.113.113,0,0,0-.063.135A.085.085,0,0,0,230.3,286.624Z" transform="translate(-211.567 -204.449)" fill="#f5d77f"/>
          </g>
          <g id="Grupo_58776" data-name="Grupo 58776" transform="translate(3.961 24.087)">
            <path id="Trazado_130869" data-name="Trazado 130869" d="M230.693,200.654c-1.184-.081-2.675-2.2-1.4-5.336,1.4-3.548,1.635-4.008,1.648-4.008a25.721,25.721,0,0,1,1.45,4.215C233.349,198.825,231.976,200.739,230.693,200.654Z" transform="translate(-214.754 -191.31)" fill="#f2c041"/>
            <path id="Trazado_130870" data-name="Trazado 130870" d="M232.368,215.783s-1.684-3.787,1.022-5.912c1.932-1.567,1.842-2.724,1.842-4.611.041,0,2.31,4.616.617,7.826C234.529,215.585,233.525,214.279,232.368,215.783Z" transform="translate(-216.429 -198.978)" fill="#f2c041"/>
            <path id="Trazado_130871" data-name="Trazado 130871" d="M220.715,221.165c2.414,1.8.608,6.511.612,6.516-1.351-.608-2.972-.374-4.345-2.7-1.806-3.125,1.067-8.979,1.031-8.979C218.243,218.112,218.315,219.4,220.715,221.165Z" transform="translate(-207.928 -204.882)" fill="#f2c041"/>
            <path id="Trazado_130872" data-name="Trazado 130872" d="M230.07,231.171c-.032,0-1.774-5.926,2.6-7.232,2.346-.743,2.832-2.8,3.269-4.859,0,0,1.072,6.106-.707,8.754S231.741,228.734,230.07,231.171Z" transform="translate(-215.248 -206.575)" fill="#f2c041"/>
            <path id="Trazado_130873" data-name="Trazado 130873" d="M217.687,237.458c5.638,2.36,1.986,8.556,2.044,8.556-.581-2.5-2.81-1.351-5.534-3.918-3.1-2.864-.964-9.456-.95-9.456A6.63,6.63,0,0,0,217.687,237.458Z" transform="translate(-205.802 -214.029)" fill="#f2c041"/>
            <path id="Trazado_130874" data-name="Trazado 130874" d="M236.273,244.06a4.337,4.337,0,0,1-3.688,1.211s-.671-5.458,2.166-6.3c2.288-.707,3.076-2.351,3.539-4.147C238.273,234.825,238.89,241.8,236.273,244.06Z" transform="translate(-216.796 -215.228)" fill="#f2c041"/>
            <path id="Trazado_130875" data-name="Trazado 130875" d="M215.26,255.254c4.408.36,1.572,6.25,1.6,6.255-.747-1.351-2.414-.928-4.183-1.977-3.193-1.878-1.837-8.362-1.8-8.362C211.365,252.791,212.63,255.043,215.26,255.254Z" transform="translate(-204.725 -224.215)" fill="#f2c041"/>
            <path id="Trazado_130876" data-name="Trazado 130876" d="M232.612,262.2c-1.855,1.5-3.305-.482-4.8,2.378-.063,0-1.432-7.007,3.792-7.84a4.1,4.1,0,0,0,3.6-2.913C235.2,253.82,235.139,260.111,232.612,262.2Z" transform="translate(-214.098 -225.672)" fill="#f2c041"/>
            <path id="Trazado_130877" data-name="Trazado 130877" d="M213.725,270.083c5.4.766,1.963,7.988,2,7.993-.531-2.062-2.841-1.531-5.219-3.8-2.49-2.342-1.058-7.88-1.04-7.88A5.345,5.345,0,0,0,213.725,270.083Z" transform="translate(-203.893 -232.587)" fill="#f2c041"/>
            <path id="Trazado_130878" data-name="Trazado 130878" d="M231.778,277.391c-1.977.644-2.7-.2-4.179,1.13,0,0-.1-5.6,2.9-5.512a4.138,4.138,0,0,0,3.877-2.769C234.354,270.24,234.359,276.531,231.778,277.391Z" transform="translate(-214.093 -234.698)" fill="#f2c041"/>
            <path id="Trazado_130879" data-name="Trazado 130879" d="M209.847,299.027c4.35.45,2.013,7.02,2.035,7.02-.766-1.711-2.985-.973-5.061-3.1-2.166-2.2-.729-7.389-.716-7.385A4.506,4.506,0,0,0,209.847,299.027Z" transform="translate(-202.014 -248.616)" fill="#f2c041"/>
            <path id="Trazado_130880" data-name="Trazado 130880" d="M226.083,306.572c-2,.576-2.99-.05-4.453,1.18,0,0,.293-5.426,3.233-5.3A4.241,4.241,0,0,0,229,300.29S228.736,305.8,226.083,306.572Z" transform="translate(-210.811 -251.216)" fill="#f2c041"/>
            <path id="Trazado_130881" data-name="Trazado 130881" d="M228.051,292.4c-2.251,1.8-3.413-.14-5.327,1.54-.036,0-.707-6.178,3.891-6.237,1.9-.027,3.6-.847,4.152-2.139C230.748,285.56,230.546,290.333,228.051,292.4Z" transform="translate(-211.383 -243.119)" fill="#f2c041"/>
            <path id="Trazado_130882" data-name="Trazado 130882" d="M209.792,290.231c-2.612-2.008-1.166-6.791-1.148-6.791.734,3.026,3.571,2.229,4.737,3.332,1.734,1.63.266,5.917.27,5.921C213.052,290.7,211.638,291.671,209.792,290.231Z" transform="translate(-203.444 -241.954)" fill="#f2c041"/>
            <path id="Trazado_130883" data-name="Trazado 130883" d="M225.513,207.167c1.617,2.679-.144,3.544.311,6.259-1.729-.874-3.7-2.143-3.724-6.223a5.746,5.746,0,0,1,2.328-4.323A6.164,6.164,0,0,0,225.513,207.167Z" transform="translate(-211.07 -197.67)" fill="#f2c041"/>
            <path id="Trazado_130884" data-name="Trazado 130884" d="M224,319.323c-1.72.779-3.314-.752-4.309-.356,0-2.342,1.121-3.535,3.346-3.386a3.96,3.96,0,0,0,3.571-1.351S226.449,318.2,224,319.323Z" transform="translate(-209.745 -258.879)" fill="#f2c041"/>
            <path id="Trazado_130885" data-name="Trazado 130885" d="M209.571,313.815c1.563.68,1.351,3.229,1.351,3.233-1.351-.347-2.337.847-4.129.23-2.972-1.013-1.824-6.588-1.8-6.588C205.928,313.766,208.512,313.356,209.571,313.815Z" transform="translate(-201.535 -256.933)" fill="#f2c041"/>
            <path id="Trazado_130886" data-name="Trazado 130886" d="M205.825,325.868c1.729-.477,3.021,1.063,1.513,3.764a5.733,5.733,0,0,0-.648,1.837c-5.084,30.683-10.3,61.371-6.61,92.653a.509.509,0,0,1-.518.558.788.788,0,0,1-.657-.608c-.171,0-2.252-17.67-.77-38.005,1-20.367,5.5-43.413,7.16-54.977.216-1.31-.09-2.112-1.085-1.9-2.675.585-3.305-2.868-2.922-4.255C202.074,326.1,203.123,326.593,205.825,325.868Z" transform="translate(-197.604 -264.767)" fill="#f2c041"/>
            <path id="Trazado_130887" data-name="Trazado 130887" d="M225.927,325.35c-.2,1.8-.932,4.5-4.917,4.471a3.984,3.984,0,0,0,.378-3.882A3.45,3.45,0,0,0,225.927,325.35Z" transform="translate(-210.47 -264.992)" fill="#f2c041"/>
          </g>
        </g>
        <g id="Grupo_58780" data-name="Grupo 58780" transform="translate(0 36.997)">
          <g id="Grupo_58778" data-name="Grupo 58778">
            <path id="Trazado_130888" data-name="Trazado 130888" d="M65.44,231.485a.086.086,0,0,0-.027-.126c-6.151-5.3-23.641-14.41-23.987-14.207a.09.09,0,0,0-.131.036.1.1,0,0,0,.059.117c.351-.189,17.814,8.9,23.956,14.189a.09.09,0,0,0,.131-.009Z" transform="translate(-40.458 -214.416)" fill="#f5d77f"/>
            <path id="Trazado_130889" data-name="Trazado 130889" d="M66.43,228.489a.1.1,0,0,0,0-.117c-5.8-6.754-24.856-16.1-25.217-15.855a.1.1,0,0,0-.126.036.108.108,0,0,0,.063.122c.356-.248,19.363,9.069,25.145,15.81a.1.1,0,0,0,.131,0Z" transform="translate(-40.345 -211.87)" fill="#f5d77f"/>
            <path id="Trazado_130890" data-name="Trazado 130890" d="M65.662,235.032a.1.1,0,0,0-.05-.144c-4.1-2.454-24.892-14.036-26.023-14.1a.1.1,0,0,0-.135,0,.086.086,0,0,0,.036.122c1.144.09,21.749,11.582,26.068,14.126a.1.1,0,0,0,.1,0Z" transform="translate(-39.442 -216.41)" fill="#f5d77f"/>
            <path id="Trazado_130891" data-name="Trazado 130891" d="M66.112,239.081a.09.09,0,0,0-.027-.131c-2.513-2.274-19.863-11.42-23.078-12.262a.09.09,0,0,0-.122.045.1.1,0,0,0,.063.117c3.211.842,20.534,9.974,23.042,12.244a.09.09,0,0,0,.122-.014Z" transform="translate(-41.333 -219.662)" fill="#f5d77f"/>
            <path id="Trazado_130892" data-name="Trazado 130892" d="M76.312,227.888a.09.09,0,0,0,0-.108C70.765,220.2,57.4,213.4,51.487,211.182l-.185-.077a.09.09,0,0,0-.126.041.1.1,0,0,0,.068.122l.185.077c5.885,2.215,19.214,9.006,24.735,16.526a.1.1,0,0,0,.135.036Z" transform="translate(-45.891 -211.094)" fill="#f5d77f"/>
            <path id="Trazado_130893" data-name="Trazado 130893" d="M73.264,242.658a.041.041,0,0,0,0-.032.1.1,0,0,0-.068-.117c-2.179-1.094-17.746-10.6-21.758-14.41a.1.1,0,0,0-.135,0,.081.081,0,0,0,0,.126c4.053,3.837,19.669,13.392,21.857,14.5a.081.081,0,0,0,.1-.063Z" transform="translate(-45.946 -220.428)" fill="#f5d77f"/>
            <path id="Trazado_130894" data-name="Trazado 130894" d="M76.79,233.094a.081.081,0,0,0,0-.1c-3.283-5.435-14.9-11.991-20.435-13.743a.09.09,0,0,0-.117.05.1.1,0,0,0,.072.117c5.341,1.68,17.111,8.317,20.326,13.653a.1.1,0,0,0,.131.045.054.054,0,0,0,.023-.022Z" transform="translate(-48.674 -215.575)" fill="#f5d77f"/>
            <path id="Trazado_130895" data-name="Trazado 130895" d="M77.668,251.482a.1.1,0,0,0,0-.131,72.806,72.806,0,0,0-7.52-5.223c-5.4-3.463-12.5-7.133-15.76-9.24a.082.082,0,1,0-.095.126c3.278,2.112,10.357,5.782,15.783,9.24a72.793,72.793,0,0,1,7.475,5.228.1.1,0,0,0,.117,0Z" transform="translate(-47.58 -225.259)" fill="#f5d77f"/>
            <path id="Trazado_130896" data-name="Trazado 130896" d="M90.994,231.168a.09.09,0,0,0,0-.113c-4.444-6.02-16.814-15.58-23.555-18.953a.089.089,0,1,0-.081.153c6.727,3.364,19.066,12.892,23.492,18.913a.1.1,0,0,0,.135.032Z" transform="translate(-54.755 -211.641)" fill="#f5d77f"/>
            <path id="Trazado_130897" data-name="Trazado 130897" d="M71.453,234.173a.108.108,0,0,0-.045-.144c-4.21-2.355-17.111-10.672-21.772-14.162a.1.1,0,0,0-.14,0,.086.086,0,0,0,0,.126c4.688,3.521,17.625,11.834,21.826,14.2A.1.1,0,0,0,71.453,234.173Z" transform="translate(-44.954 -215.902)" fill="#f5d77f"/>
            <path id="Trazado_130898" data-name="Trazado 130898" d="M97.377,235.692a.072.072,0,0,0,0-.068c-.356-2.792-5.593-8.61-11.32-13.279a99.1,99.1,0,0,0-12.23-8.641.113.113,0,0,0-.135.023.1.1,0,0,0,.05.126A101.03,101.03,0,0,1,85.7,222.26c5.8,4.692,11.181,10.6,11.532,13.36a.113.113,0,0,0,.108.095.086.086,0,0,0,.041-.023Z" transform="translate(-58.265 -212.521)" fill="#f5d77f"/>
            <path id="Trazado_130899" data-name="Trazado 130899" d="M80.853,253.937a.081.081,0,0,0,0-.063.1.1,0,0,0-.1-.095c-3.062-.252-16.283-8.105-28.22-16.251a.083.083,0,1,0-.1.126c12.158,8.326,25.163,16.044,28.342,16.292A.108.108,0,0,0,80.853,253.937Z" transform="translate(-46.56 -225.61)" fill="#f5d77f"/>
            <path id="Trazado_130900" data-name="Trazado 130900" d="M92.036,265.894a.09.09,0,0,0,.023-.077.1.1,0,0,0-.108-.086c-2.134.072-8.583-4.48-15-8.385-6.345-4.012-12.653-7.376-12.775-7.461a.09.09,0,0,0-.122.032.1.1,0,0,0,.041.122c.513.288,6.813,3.692,13.059,7.655,6.336,3.864,12.64,8.29,14.815,8.213a.1.1,0,0,0,.072-.014Z" transform="translate(-52.965 -232.411)" fill="#f5d77f"/>
            <path id="Trazado_130901" data-name="Trazado 130901" d="M111.276,242.549a.094.094,0,0,0,0-.05c.775-4.215-16-19.322-20.714-21.484a.09.09,0,0,0-.131,0,.1.1,0,0,0,.05.126c4.7,2.152,21.385,17.138,20.628,21.286a.117.117,0,0,0,.086.117A.086.086,0,0,0,111.276,242.549Z" transform="translate(-67.467 -216.533)" fill="#f5d77f"/>
            <path id="Trazado_130902" data-name="Trazado 130902" d="M109.952,244.615a.09.09,0,0,0,0-.086c-1.351-5.723-15.008-19.106-23.83-22.965A.09.09,0,0,0,86,221.6a.1.1,0,0,0,.063.122c8.781,3.846,22.389,17.147,23.713,22.835a.117.117,0,0,0,.117.081.086.086,0,0,0,.063-.023Z" transform="translate(-65.031 -216.843)" fill="#f5d77f"/>
            <path id="Trazado_130903" data-name="Trazado 130903" d="M101.633,276.172a.072.072,0,0,0,.027-.054.1.1,0,0,0-.081-.108c-4.341-1.229-19.966-11.361-26.41-16.792a.094.094,0,0,0-.131,0,.09.09,0,0,0,0,.126c6.466,5.444,22.15,15.607,26.514,16.846A.09.09,0,0,0,101.633,276.172Z" transform="translate(-58.995 -237.534)" fill="#f5d77f"/>
            <path id="Trazado_130904" data-name="Trazado 130904" d="M125.523,253.675a.09.09,0,0,0,.023-.09c-2.062-6.651-11.1-18.012-19.84-23.708-.05-.036-.117-.036-.135,0a.108.108,0,0,0,.041.131c8.713,5.669,17.706,16.981,19.759,23.6a.108.108,0,0,0,.117.077Z" transform="translate(-75.789 -221.404)" fill="#f5d77f"/>
            <path id="Trazado_130905" data-name="Trazado 130905" d="M109.727,286.97a.067.067,0,0,0,.027-.041.1.1,0,0,0-.063-.117c-5.192-2.3-18.242-11.708-24.87-16.026a.086.086,0,0,0-.126,0,.1.1,0,0,0,.027.126c6.782,4.467,19.615,13.725,24.92,16.053A.081.081,0,0,0,109.727,286.97Z" transform="translate(-64.311 -243.892)" fill="#f5d77f"/>
            <path id="Trazado_130906" data-name="Trazado 130906" d="M137.355,260.278a.09.09,0,0,0,.027-.086c-1.3-8.263-14.225-21.808-17.706-24.235a.1.1,0,0,0-.135,0,.1.1,0,0,0,.027.131C124.152,239.456,136,252.605,137.2,260.2a.108.108,0,0,0,.108.09A.067.067,0,0,0,137.355,260.278Z" transform="translate(-83.464 -224.747)" fill="#f5d77f"/>
            <path id="Trazado_130907" data-name="Trazado 130907" d="M108.5,287.335a.09.09,0,0,0,.027-.068.1.1,0,0,0-.095-.1c-3.6-.666-20.948-10.983-29.522-17.9a.09.09,0,0,0-.126,0,.081.081,0,0,0,0,.122c8.605,6.948,26.045,17.3,29.657,17.962A.127.127,0,0,0,108.5,287.335Z" transform="translate(-61.055 -243.059)" fill="#f5d77f"/>
            <path id="Trazado_130908" data-name="Trazado 130908" d="M121.722,302.079a.09.09,0,0,0,.027-.032.1.1,0,0,0-.045-.122l-.585-.324a180.069,180.069,0,0,1-21.894-13.631.09.09,0,0,0-.122,0,.1.1,0,0,0,.027.126,181.239,181.239,0,0,0,21.916,13.658l.581.32A.09.09,0,0,0,121.722,302.079Z" transform="translate(-72.231 -253.341)" fill="#f5d77f"/>
            <path id="Trazado_130909" data-name="Trazado 130909" d="M145.283,272.514a.081.081,0,0,0,.032-.068c.41-7.232-11.257-22.772-17.913-27.121a.095.095,0,0,0-.135,0,.1.1,0,0,0,.041.135c6.6,4.327,18.228,19.768,17.823,26.946a.117.117,0,0,0,.095.113A.081.081,0,0,0,145.283,272.514Z" transform="translate(-87.714 -229.895)" fill="#f5d77f"/>
            <path id="Trazado_130910" data-name="Trazado 130910" d="M128.745,301.757a.072.072,0,0,0,.032-.063.1.1,0,0,0-.081-.1c-6.5-1.283-16.954-11.951-25.343-20.772a.09.09,0,0,0-.126,0,.081.081,0,0,0,0,.122c8.412,8.844,18.913,19.547,25.455,20.84a.076.076,0,0,0,.063-.023Z" transform="translate(-74.49 -249.408)" fill="#f5d77f"/>
            <path id="Trazado_130911" data-name="Trazado 130911" d="M131.52,257.962a.086.086,0,0,0,.027-.072c-.793-7.97-10.15-18.3-16.134-23.055a.088.088,0,1,0-.113.131c5.957,4.728,15.274,15.008,16.062,22.916a.122.122,0,0,0,.1.1.072.072,0,0,0,.054-.018Z" transform="translate(-81.119 -224.129)" fill="#f5d77f"/>
            <path id="Trazado_130912" data-name="Trazado 130912" d="M160.232,285.575a.067.067,0,0,0,.027-.041c1.842-4.953-7.2-19.813-12.158-25.379a.1.1,0,0,0-.135-.031.09.09,0,0,0,0,.131c4.908,5.548,13.919,20.317,12.109,25.194a.113.113,0,0,0,.059.131A.081.081,0,0,0,160.232,285.575Z" transform="translate(-99.082 -238.039)" fill="#f5d77f"/>
            <path id="Trazado_130913" data-name="Trazado 130913" d="M135.275,316.223a.077.077,0,0,0,.036-.054.1.1,0,0,0-.072-.113c-5.93-1.95-20.781-12.946-20.781-12.946-.18.225,14.936,11.208,20.75,13.122A.072.072,0,0,0,135.275,316.223Z" transform="translate(-80.678 -261.675)" fill="#f5d77f"/>
            <path id="Trazado_130914" data-name="Trazado 130914" d="M164.5,294.649a.059.059,0,0,0,.027-.032c.824-1.657-.095-6.4-3.058-12.5-2.747-5.705-6.714-11.1-9.69-13.73a.09.09,0,1,0-.108.135c6.709,5.525,14.77,22.47,12.694,25.991a.113.113,0,0,0,.045.135A.077.077,0,0,0,164.5,294.649Z" transform="translate(-101.105 -242.565)" fill="#f5d77f"/>
          </g>
          <g id="Grupo_58779" data-name="Grupo 58779" transform="translate(21.081 13.484)">
            <path id="Trazado_130915" data-name="Trazado 130915" d="M93.6,246.623c-.662.8-2.963.567-4.877-2.1-2.2-3.017-2.481-3.476-2.468-3.481a26.544,26.544,0,0,1,4.089,1.351C93.509,243.539,94.315,245.768,93.6,246.623Z" transform="translate(-86.259 -241.04)" fill="#dba335"/>
            <path id="Trazado_130916" data-name="Trazado 130916" d="M107.241,253.051s-3.8-1.076-4.089-4.273c-.225-2.378-1.189-3.044-2.7-4.138,0-.027,5.1.824,6.664,4.165C108.285,251.38,106.687,251.326,107.241,253.051Z" transform="translate(-94.06 -243.018)" fill="#dba335"/>
            <path id="Trazado_130917" data-name="Trazado 130917" d="M104.838,265.609c2.576-.486,5.246,3.566,5.219,3.566-1.171.5-1.8,1.6-4.125.968-3.026-.829-6.192-5.9-6.232-5.9C101.411,265.33,102.366,266.077,104.838,265.609Z" transform="translate(-93.648 -253.793)" fill="#dba335"/>
            <path id="Trazado_130918" data-name="Trazado 130918" d="M120.078,261.21c0-.041-5.462-2.391-4.084-6.273.788-2.211-.5-3.949-1.914-5.548,0-.041,5.7,2.8,6.574,5.966S119.159,258.58,120.078,261.21Z" transform="translate(-101.552 -245.629)" fill="#dba335"/>
            <path id="Trazado_130919" data-name="Trazado 130919" d="M115.222,277.642c4.778-2.13,7.493,4.156,7.434,4.147-2.179-1.238-2.634.9-5.782.775-3.463-.117-7.169-5.237-7.2-5.232A5.813,5.813,0,0,0,115.222,277.642Z" transform="translate(-99.128 -260.918)" fill="#dba335"/>
            <path id="Trazado_130920" data-name="Trazado 130920" d="M133.934,265.046a4.125,4.125,0,0,1-1.495,3.431c0-.027-4.5-2.972-3.458-5.534a5.23,5.23,0,0,0-.9-5.453C128.089,257.445,134.109,261.457,133.934,265.046Z" transform="translate(-109.248 -250.082)" fill="#dba335"/>
            <path id="Trazado_130921" data-name="Trazado 130921" d="M126.578,289.828c2.679-2.409,5.4,3.116,5.354,3.125-1.414-.45-2.053.8-3.71,1.076-2.9.45-6.655-4.341-6.691-4.332C122.9,290.417,125.042,291.2,126.578,289.828Z" transform="translate(-105.648 -267.524)" fill="#dba335"/>
            <path id="Trazado_130922" data-name="Trazado 130922" d="M145.872,277.937c-.216,2.333-2.585,1.918-1.45,4.751,0-.054-5.984-3.6-3.35-7.655a4.2,4.2,0,0,0,.315-4.683C141.405,270.309,146.183,274.668,145.872,277.937Z" transform="translate(-116.022 -257.151)" fill="#dba335"/>
            <path id="Trazado_130923" data-name="Trazado 130923" d="M136.2,299.992c3.688-2.643,6.8,4.242,6.754,4.246-1.756-1.108-2.832.558-5.651.279s-5.818-4.62-5.854-4.616A4.489,4.489,0,0,0,136.2,299.992Z" transform="translate(-111.101 -273.114)" fill="#dba335"/>
            <path id="Trazado_130924" data-name="Trazado 130924" d="M155.645,289.609c-.946,1.743-2.008,1.594-2.035,3.4,0,0-4.053-3.706-2.049-5.57a4.014,4.014,0,0,0,.711-4.629C152.29,282.778,156.937,287.25,155.645,289.609Z" transform="translate(-121.85 -264.001)" fill="#dba335"/>
            <path id="Trazado_130925" data-name="Trazado 130925" d="M153.344,322.026c3.053-2.013,5.9,3.954,5.854,3.963-1.612-.851-2.612.824-5.228.333s-5.025-4.782-5.07-4.782C149.985,322.31,151.858,322.99,153.344,322.026Z" transform="translate(-120.693 -285.291)" fill="#dba335"/>
            <path id="Trazado_130926" data-name="Trazado 130926" d="M171.766,313.759c-1.027,1.54-2.107,1.608-2.288,3.278,0,0-3.382-4.053-1.351-5.624a3.683,3.683,0,0,0,1.45-4.053C169.618,307.337,173.175,311.7,171.766,313.759Z" transform="translate(-130.905 -277.496)" fill="#dba335"/>
            <path id="Trazado_130927" data-name="Trazado 130927" d="M163.6,301.632c-.338,2.652-2.459,1.918-2.576,4.174,0-.036-4.683-3.855-1.725-6.637,1.265-1.18,1.968-2.922,1.432-4.219C160.745,294.932,163.991,298.575,163.6,301.632Z" transform="translate(-125.873 -270.674)" fill="#dba335"/>
            <path id="Trazado_130928" data-name="Trazado 130928" d="M147.5,315.768c-2.8-.063-5.061-4.012-5.084-4.012,2.373,1.657,3.463-.365,4.926-.27,2.188.144,4.17,3.963,4.152,3.963C149.791,314.381,149.539,315.822,147.5,315.768Z" transform="translate(-117.131 -279.762)" fill="#dba335"/>
            <path id="Trazado_130929" data-name="Trazado 130929" d="M96.546,253.867c2.873.45,2.7,2.179,5.007,3.49-1.567.657-3.386,1.09-6.5-1.247a6.21,6.21,0,0,1-2.351-3.99A6.84,6.84,0,0,0,96.546,253.867Z" transform="translate(-89.8 -247.13)" fill="#dba335"/>
            <path id="Trazado_130930" data-name="Trazado 130930" d="M177.528,324.862c-.716,1.495-2.783,1.144-3.206,1.95-1.481-1.738-1.522-3.179.108-4.269a3.238,3.238,0,0,0,1.617-3S178.554,322.71,177.528,324.862Z" transform="translate(-134.055 -284.191)" fill="#dba335"/>
            <path id="Trazado_130931" data-name="Trazado 130931" d="M162.393,332.56c1.463-.311,2.94,1.7,2.936,1.7-1.126.423-1.054,1.8-2.616,2.22-2.558.684-5.156-3.85-5.183-3.841C159.993,334.343,161.407,332.776,162.393,332.56Z" transform="translate(-125.437 -291.331)" fill="#dba335"/>
            <path id="Trazado_130932" data-name="Trazado 130932" d="M170.132,338.5c.865-1.216,2.747-.711,3.359,2.1a6.039,6.039,0,0,0,.662,1.725,151.886,151.886,0,0,1,19.5,87.853.608.608,0,0,1-.549.554.572.572,0,0,1-.45-.608c-.2.207,2.035-17.845-1.711-37.325-3.013-19.638-12.018-40.7-17.976-50.1-.639-1.1-1.351-1.562-1.891-.9-1.5,1.707-3.94-.549-4.5-1.734C167.759,340.511,168.763,340.384,170.132,338.5Z" transform="translate(-130.406 -294.274)" fill="#dba335"/>
            <path id="Trazado_130933" data-name="Trazado 130933" d="M181.152,329.82c1.027,1.508,2.17,4.053-.635,5.939a4.346,4.346,0,0,0-2.157-3.152C179.819,332.5,181.291,331.608,181.152,329.82Z" transform="translate(-136.887 -289.842)" fill="#dba335"/>
          </g>
        </g>
        <g id="Grupo_58783" data-name="Grupo 58783" transform="translate(156.307 56.601)">
          <g id="Grupo_58781" data-name="Grupo 58781" transform="translate(20.781)">
            <path id="Trazado_130934" data-name="Trazado 130934" d="M511.263,272.572a.077.077,0,0,1,.027-.113c5.62-4.611,21.466-12.388,21.776-12.212a.081.081,0,0,1,.113.036.086.086,0,0,1-.054.108c-.311-.18-16.134,7.588-21.745,12.19A.086.086,0,0,1,511.263,272.572Z" transform="translate(-475.882 -257.712)" fill="#f5d77f"/>
            <path id="Trazado_130935" data-name="Trazado 130935" d="M509.089,269.876a.085.085,0,0,1,0-.1c5.354-5.935,22.6-13.887,22.916-13.662a.077.077,0,1,1,.05.144c-.311-.225-17.526,7.709-22.839,13.622a.09.09,0,0,1-.122,0Z" transform="translate(-474.686 -255.44)" fill="#f5d77f"/>
            <path id="Trazado_130936" data-name="Trazado 130936" d="M508.738,275.762a.1.1,0,0,1,.045-.131c3.724-2.112,22.582-12.032,23.6-12.064a.077.077,0,1,1,.086.126c-1.027.054-19.719,9.907-23.632,12.086A.077.077,0,0,1,508.738,275.762Z" transform="translate(-474.498 -259.533)" fill="#f5d77f"/>
            <path id="Trazado_130937" data-name="Trazado 130937" d="M511.552,279.367a.081.081,0,0,1,.027-.117c2.3-1.981,18.012-9.8,20.921-10.487a.086.086,0,0,1,.108.041.1.1,0,0,1-.059.108c-2.891.684-18.593,8.493-20.885,10.469a.086.086,0,0,1-.113-.013Z" transform="translate(-476.042 -262.395)" fill="#f5d77f"/>
            <path id="Trazado_130938" data-name="Trazado 130938" d="M500.509,269.134a.081.081,0,0,1,0-.1c5.129-6.669,17.242-12.464,22.573-14.328l.167-.068a.081.081,0,0,1,.113.041.09.09,0,0,1-.063.108l-.167.063c-5.313,1.86-17.39,7.655-22.492,14.27a.1.1,0,0,1-.122.027Z" transform="translate(-469.97 -254.629)" fill="#f5d77f"/>
            <path id="Trazado_130939" data-name="Trazado 130939" d="M506.387,282.387a.036.036,0,0,1,0-.027.09.09,0,0,1,.063-.1c1.972-.932,16.107-9.119,19.782-12.455a.09.09,0,0,1,.122,0,.077.077,0,0,1,0,.113c-3.688,3.35-17.89,11.568-19.872,12.509a.068.068,0,0,1-.095-.036Z" transform="translate(-473.209 -262.956)" fill="#f5d77f"/>
            <path id="Trazado_130940" data-name="Trazado 130940" d="M504.983,273.735a.081.081,0,0,1,0-.09c3.058-4.8,13.6-10.415,18.584-11.865a.072.072,0,0,1,.1.045.09.09,0,0,1-.068.1c-4.814,1.387-15.49,7.083-18.462,11.789a.09.09,0,0,1-.117.036A.045.045,0,0,1,504.983,273.735Z" transform="translate(-472.431 -258.555)" fill="#f5d77f"/>
            <path id="Trazado_130941" data-name="Trazado 130941" d="M500.672,290.242a.081.081,0,0,1,0-.113,65.684,65.684,0,0,1,6.84-4.5c4.917-2.981,11.347-6.115,14.319-7.934a.071.071,0,1,1,.081.113c-2.981,1.8-9.407,4.953-14.324,7.939a65.077,65.077,0,0,0-6.818,4.5A.086.086,0,0,1,500.672,290.242Z" transform="translate(-470.056 -267.295)" fill="#f5d77f"/>
            <path id="Trazado_130942" data-name="Trazado 130942" d="M488.767,271.755a.081.081,0,0,1,0-.1c4.111-5.3,15.4-13.59,21.493-16.467a.078.078,0,1,1,.068.14c-6.093,2.868-17.336,11.136-21.43,16.418a.09.09,0,0,1-.117,0Z" transform="translate(-463.514 -254.927)" fill="#f5d77f"/>
            <path id="Trazado_130943" data-name="Trazado 130943" d="M508.2,274.905a.095.095,0,0,1,.045-.126c3.814-2.017,15.544-9.186,19.786-12.217a.1.1,0,0,1,.126,0,.076.076,0,0,1,0,.113c-4.255,3.031-16.013,10.222-19.84,12.244a.081.081,0,0,1-.117-.013Z" transform="translate(-474.201 -258.978)" fill="#f5d77f"/>
            <path id="Trazado_130944" data-name="Trazado 130944" d="M482.891,275.67a.063.063,0,0,1,0-.059c.378-2.495,5.187-7.592,10.415-11.649a89.8,89.8,0,0,1,11.163-7.475.1.1,0,0,1,.122.023.09.09,0,0,1-.045.113,90.094,90.094,0,0,0-10.893,7.295c-5.314,4.053-10.235,9.231-10.609,11.708a.1.1,0,0,1-.1.086A.076.076,0,0,1,482.891,275.67Z" transform="translate(-460.29 -255.645)" fill="#f5d77f"/>
            <path id="Trazado_130945" data-name="Trazado 130945" d="M492.233,292.362a.081.081,0,0,1,0-.059.1.1,0,0,1,.095-.081c2.742-.162,14.743-6.908,25.6-13.959a.09.09,0,0,1,.117,0,.085.085,0,0,1-.027.113c-11.068,7.2-22.866,13.829-25.717,13.959a.077.077,0,0,1-.072.027Z" transform="translate(-465.427 -267.609)" fill="#f5d77f"/>
            <path id="Trazado_130946" data-name="Trazado 130946" d="M482.492,302.795a.085.085,0,0,1,0-.068.1.1,0,0,1,.095-.077c1.909.113,7.781-3.828,13.613-7.2,5.764-3.454,11.483-6.331,11.591-6.408a.079.079,0,1,1,.072.14c-.45.248-6.178,3.152-11.87,6.583-5.755,3.323-11.487,7.151-13.432,7.034a.081.081,0,0,1-.068,0Z" transform="translate(-460.071 -273.539)" fill="#f5d77f"/>
            <path id="Trazado_130947" data-name="Trazado 130947" d="M473.419,281.522a.05.05,0,0,1,0-.041c-.6-3.792,14.738-16.958,19.012-18.791a.081.081,0,0,1,.117.022.086.086,0,0,1-.045.113c-4.246,1.824-19.507,14.887-18.913,18.615a.1.1,0,0,1-.077.1.063.063,0,0,1-.095-.018Z" transform="translate(-455.078 -259.052)" fill="#f5d77f"/>
            <path id="Trazado_130948" data-name="Trazado 130948" d="M471.128,283.41a.077.077,0,0,1,0-.077c1.315-5.1,13.838-16.787,21.817-20.056a.081.081,0,0,1,.113.036.094.094,0,0,1-.059.108c-7.943,3.256-20.4,14.86-21.709,19.935a.112.112,0,0,1-.108.072Z" transform="translate(-453.822 -259.378)" fill="#f5d77f"/>
            <path id="Trazado_130949" data-name="Trazado 130949" d="M475.133,311.816a.167.167,0,0,1-.023-.05.1.1,0,0,1,.077-.095c3.913-1,18.116-9.744,24-14.468a.078.078,0,1,1,.108.113c-5.9,4.737-20.16,13.509-24.091,14.518A.086.086,0,0,1,475.133,311.816Z" transform="translate(-456.017 -278.02)" fill="#f5d77f"/>
            <path id="Trazado_130950" data-name="Trazado 130950" d="M461.346,291.17a.077.077,0,0,1,0-.081c1.986-5.908,10.312-15.9,18.264-20.8.045-.027.1-.027.117,0a.09.09,0,0,1-.04.117c-7.916,4.886-16.211,14.824-18.183,20.714a.1.1,0,0,1-.108.068Z" transform="translate(-448.445 -263.224)" fill="#f5d77f"/>
            <path id="Trazado_130951" data-name="Trazado 130951" d="M469.4,321.3a.072.072,0,0,1-.023-.036.1.1,0,0,1,.059-.1c4.7-1.945,16.58-10.073,22.6-13.815a.072.072,0,0,1,.108,0,.077.077,0,0,1-.027.108c-6.165,3.873-17.845,11.879-22.646,13.86A.077.077,0,0,1,469.4,321.3Z" transform="translate(-452.866 -283.597)" fill="#f5d77f"/>
            <path id="Trazado_130952" data-name="Trazado 130952" d="M452.926,296.8a.063.063,0,0,1,0-.072c1.351-7.371,13.194-19.219,16.359-21.317a.081.081,0,0,1,.122,0,.086.086,0,0,1-.027.117c-4.174,2.918-15.053,14.437-16.292,21.209a.1.1,0,0,1-.1.081A.054.054,0,0,1,452.926,296.8Z" transform="translate(-443.816 -266.035)" fill="#f5d77f"/>
            <path id="Trazado_130953" data-name="Trazado 130953" d="M465.317,321.66a.077.077,0,0,1-.027-.063.1.1,0,0,1,.086-.086c3.224-.518,18.989-9.384,26.806-15.391a.077.077,0,0,1,.113,0,.072.072,0,0,1,0,.108c-7.844,6.021-23.677,14.918-26.919,15.445a.072.072,0,0,1-.059-.013Z" transform="translate(-450.619 -282.92)" fill="#f5d77f"/>
            <path id="Trazado_130954" data-name="Trazado 130954" d="M461.052,334.571v-.027a.09.09,0,0,1,.041-.113l.531-.275a161.392,161.392,0,0,0,19.885-11.744.076.076,0,0,1,.108,0,.081.081,0,0,1-.023.108,162.031,162.031,0,0,1-19.912,11.762l-.527.275A.081.081,0,0,1,461.052,334.571Z" transform="translate(-448.286 -291.878)" fill="#f5d77f"/>
            <path id="Trazado_130955" data-name="Trazado 130955" d="M445.259,307.614a.067.067,0,0,1-.022-.059c-.216-6.484,10.577-20.146,16.611-23.9a.075.075,0,1,1,.081.117c-6,3.737-16.738,17.309-16.53,23.744a.1.1,0,0,1-.081.1A.086.086,0,0,1,445.259,307.614Z" transform="translate(-439.594 -270.572)" fill="#f5d77f"/>
            <path id="Trazado_130956" data-name="Trazado 130956" d="M451.391,334.141a.072.072,0,0,1-.031-.054.1.1,0,0,1,.081-.095c5.854-1.009,15.423-10.357,23.123-18.052a.08.08,0,1,1,.113.113c-7.723,7.736-17.336,17.111-23.231,18.111a.054.054,0,0,1-.054-.023Z" transform="translate(-442.962 -288.318)" fill="#f5d77f"/>
            <path id="Trazado_130957" data-name="Trazado 130957" d="M459.99,294.879a.063.063,0,0,1,0-.063c.878-7.119,9.456-16.17,14.932-20.295a.1.1,0,0,1,.126,0,.1.1,0,0,1-.027.122c-5.435,4.1-13.991,13.108-14.86,20.169a.1.1,0,0,1-.095.086A.063.063,0,0,1,459.99,294.879Z" transform="translate(-447.701 -265.55)" fill="#f5d77f"/>
            <path id="Trazado_130958" data-name="Trazado 130958" d="M437.74,318.988a.072.072,0,0,1-.027-.036c-1.54-4.471,6.872-17.562,11.406-22.461a.1.1,0,0,1,.126-.027.086.086,0,0,1,0,.117c-4.5,4.863-12.892,17.895-11.375,22.3a.1.1,0,0,1-.054.113A.077.077,0,0,1,437.74,318.988Z" transform="translate(-435.358 -277.618)" fill="#f5d77f"/>
            <path id="Trazado_130959" data-name="Trazado 130959" d="M450.6,346.953a.081.081,0,0,1-.032-.045.1.1,0,0,1,.068-.1c5.354-1.617,18.877-11.145,18.877-11.145.158.207-13.608,9.713-18.854,11.307A.063.063,0,0,1,450.6,346.953Z" transform="translate(-442.527 -299.172)" fill="#f5d77f"/>
            <path id="Trazado_130960" data-name="Trazado 130960" d="M432.957,327.032l-.023-.027c-.7-1.5.221-5.723,3-11.131,2.58-5.048,6.246-9.789,8.97-12.082a.086.086,0,0,1,.117,0,.1.1,0,0,1-.023.122c-6.129,4.8-13.7,19.813-11.919,23a.1.1,0,0,1-.04.122.077.077,0,0,1-.086,0Z" transform="translate(-432.71 -281.641)" fill="#f5d77f"/>
          </g>
          <g id="Grupo_58782" data-name="Grupo 58782" transform="translate(0 11.735)">
            <path id="Trazado_130961" data-name="Trazado 130961" d="M504.1,285.535c.576.729,2.639.567,4.408-1.779,2.031-2.657,2.3-3.062,2.283-3.067a30.126,30.126,0,0,0-3.688,1.108C504.252,282.775,503.5,284.752,504.1,285.535Z" transform="translate(-451.067 -280.69)" fill="#f2c041"/>
            <path id="Trazado_130962" data-name="Trazado 130962" d="M492.26,290.984s3.427-.9,3.751-3.742c.248-2.121,1.13-2.7,2.526-3.643,0-.022-4.579.63-6.056,3.6C491.36,289.476,492.792,289.462,492.26,290.984Z" transform="translate(-444.542 -282.289)" fill="#f2c041"/>
            <path id="Trazado_130963" data-name="Trazado 130963" d="M490.606,302.3c-2.292-.491-4.769,3.08-4.746,3.08,1.036.473,1.567,1.472,3.67.955,2.729-.68,5.669-5.151,5.705-5.151C493.677,302.117,492.808,302.765,490.606,302.3Z" transform="translate(-441.145 -291.953)" fill="#f2c041"/>
            <path id="Trazado_130964" data-name="Trazado 130964" d="M480.909,298.035c0-.041,4.953-2.031,3.792-5.534-.657-1.99.527-3.521,1.833-4.922,0-.036-5.16,2.387-6.016,5.2S481.792,295.7,480.909,298.035Z" transform="translate(-438.095 -284.477)" fill="#f2c041"/>
            <path id="Trazado_130965" data-name="Trazado 130965" d="M478.184,312.647c-4.233-2.008-6.795,3.562-6.754,3.557,1.977-1.063,2.337.847,5.156.815,3.1-.032,6.529-4.535,6.565-4.53A5.187,5.187,0,0,1,478.184,312.647Z" transform="translate(-433.213 -298.017)" fill="#f2c041"/>
            <path id="Trazado_130966" data-name="Trazado 130966" d="M469.429,301.172a3.682,3.682,0,0,0,1.265,3.1c0-.027,4.111-2.567,3.211-4.881a4.667,4.667,0,0,1,.928-4.863C474.823,294.489,469.348,297.952,469.429,301.172Z" transform="translate(-432.113 -288.297)" fill="#f2c041"/>
            <path id="Trazado_130967" data-name="Trazado 130967" d="M470.618,323.347c-2.346-2.215-4.895,2.675-4.859,2.679,1.274-.378,1.8.761,3.3,1.045,2.589.477,6.052-3.747,6.084-3.733C473.892,323.95,471.965,324.6,470.618,323.347Z" transform="translate(-430.096 -303.822)" fill="#f2c041"/>
            <path id="Trazado_130968" data-name="Trazado 130968" d="M458.871,312.425c.144,2.089,2.274,1.77,1.2,4.282,0-.05,5.435-3.1,3.152-6.79a3.772,3.772,0,0,1-.18-4.2C463.037,305.688,458.664,309.489,458.871,312.425Z" transform="translate(-426.306 -294.449)" fill="#f2c041"/>
            <path id="Trazado_130969" data-name="Trazado 130969" d="M460.529,332.234c-3.242-2.445-6.174,3.656-6.12,3.661,1.6-.955,2.526.558,5.057.369s5.309-4,5.332-4A4.049,4.049,0,0,1,460.529,332.234Z" transform="translate(-423.857 -308.706)" fill="#f2c041"/>
            <path id="Trazado_130970" data-name="Trazado 130970" d="M450.6,322.639c.811,1.581,1.761,1.468,1.752,3.085,0-.022,3.71-3.229,1.945-4.953a3.6,3.6,0,0,1-.536-4.161C453.738,316.6,449.487,320.505,450.6,322.639Z" transform="translate(-421.659 -300.435)" fill="#f2c041"/>
            <path id="Trazado_130971" data-name="Trazado 130971" d="M446.056,351.693c-2.7-1.864-5.368,3.413-5.327,3.427,1.459-.729,2.319.793,4.67.41s4.625-4.179,4.647-4.174C449.06,352.018,447.367,352.589,446.056,351.693Z" transform="translate(-416.337 -319.501)" fill="#f2c041"/>
            <path id="Trazado_130972" data-name="Trazado 130972" d="M435.922,343.918c.9,1.4,1.851,1.486,1.977,2.986,0,0,3.116-3.562,1.319-5.007A3.3,3.3,0,0,1,438,338.24C437.989,338.217,434.711,342.027,435.922,343.918Z" transform="translate(-413.547 -312.325)" fill="#f2c041"/>
            <path id="Trazado_130973" data-name="Trazado 130973" d="M442.717,333.231c.248,2.382,2.161,1.77,2.22,3.792,0-.032,4.273-3.355,1.68-5.908-1.108-1.081-1.7-2.652-1.189-3.805C445.419,327.292,442.433,330.489,442.717,333.231Z" transform="translate(-417.419 -306.317)" fill="#f2c041"/>
            <path id="Trazado_130974" data-name="Trazado 130974" d="M452.771,346.176c2.508,0,4.616-3.481,4.634-3.481-2.157,1.432-3.094-.4-4.4-.347-1.959.086-3.814,3.458-3.8,3.463C450.753,344.893,450.947,346.176,452.771,346.176Z" transform="translate(-420.993 -314.583)" fill="#f2c041"/>
            <path id="Trazado_130975" data-name="Trazado 130975" d="M499.917,291.931c-2.585.351-2.459,1.9-4.557,3.022,1.387.617,3.008,1.045,5.854-.982a5.6,5.6,0,0,0,2.193-3.521A6.164,6.164,0,0,1,499.917,291.931Z" transform="translate(-446.368 -286.055)" fill="#f2c041"/>
            <path id="Trazado_130976" data-name="Trazado 130976" d="M430.629,353.734c.608,1.351,2.468,1.081,2.828,1.8,1.351-1.522,1.427-2.814,0-3.823a2.914,2.914,0,0,1-1.387-2.7S429.756,351.784,430.629,353.734Z" transform="translate(-410.677 -318.246)" fill="#f2c041"/>
            <path id="Trazado_130977" data-name="Trazado 130977" d="M440.541,360.866c-1.3-.306-2.666,1.459-2.661,1.459,1,.4.9,1.63,2.3,2.04,2.251.666,4.7-3.337,4.719-3.328C442.653,362.515,441.419,361.083,440.541,360.866Z" transform="translate(-414.771 -324.744)" fill="#f2c041"/>
            <path id="Trazado_130978" data-name="Trazado 130978" d="M409.791,366.038c-.747-1.112-2.445-.7-3.053,1.8a5.319,5.319,0,0,1-.63,1.527,136.031,136.031,0,0,0-19.313,78.23.549.549,0,0,0,.477.509.518.518,0,0,0,.414-.536c.18.189-1.441-16.017,2.328-33.376,3.121-17.512,11.636-36.177,17.156-44.462.59-.973,1.229-1.351,1.711-.784,1.3,1.563,3.535-.405,4.08-1.454C411.871,367.884,410.975,367.749,409.791,366.038Z" transform="translate(-386.56 -327.285)" fill="#f2c041"/>
            <path id="Trazado_130979" data-name="Trazado 130979" d="M428.015,358.08c-.946,1.328-2.026,3.575.45,5.332a3.832,3.832,0,0,1,1.995-2.769A2.419,2.419,0,0,1,428.015,358.08Z" transform="translate(-408.761 -323.231)" fill="#f2c041"/>
          </g>
        </g>
        <path id="Trazado_130980" data-name="Trazado 130980" d="M116.822,430.3c-4.548-4.156-8.137-2.877-10.064,2.409-1.959,5.566-1.95,14.374-1.472,20.3a.18.18,0,0,0,.356,0c.153-5.174.806-20.372,5.318-22.965a1.347,1.347,0,0,0,.225-.077,4.248,4.248,0,0,1,.7-.108h-.081c6.457.549,19.917,25.816,19.021,49.267-.095,1.4-.081,4.674,1.288,4.129C136.023,481.72,132.326,444.484,116.822,430.3Z" transform="translate(-75.49 -293.239)" fill="#f2c041"/>
        <path id="Trazado_130981" data-name="Trazado 130981" d="M133.793,442.006c12.568-14.13,17.854-60.061-7.556-89.785a.236.236,0,0,0-.369.293c1.563,2.085,1.653,2.251,2.967,4.188,11.874,18.967,14.927,39.563,10.974,61.02-3.1,15.184-10.393,24.811-7.466,25.266C132.919,443.078,133.388,442.447,133.793,442.006Z" transform="translate(-86.923 -251.625)" fill="#dba335"/>
        <path id="Trazado_130982" data-name="Trazado 130982" d="M212.651,459.523c-1.153-10.181-5.809-41.427,7.286-58.138,5.854-6.7,14.117-9.236,22.542-6.079a26.441,26.441,0,0,1,7.628,4.5.171.171,0,0,0,.243-.234,23.152,23.152,0,0,0-13.536-7.421c-7.106-1.031-14.076,2.148-19.007,7.407-13.153,15.382-12.649,48.322-6.381,61.412a.7.7,0,0,0,.932.329C212.894,461.045,212.759,460.536,212.651,459.523Z" transform="translate(-131.639 -273.519)" fill="#dba335"/>
        <path id="Trazado_130983" data-name="Trazado 130983" d="M266.142,377.755c-.18-36.186-6.777-70.742-27.176-100.655a.108.108,0,0,1,.167-.131c30.584,38.762,34.182,98.1,27.792,120.563a.576.576,0,0,1-.707.392C265.246,397.649,266.3,397.262,266.142,377.755Z" transform="translate(-149.115 -210.294)" fill="#fae28a"/>
        <path id="Trazado_130984" data-name="Trazado 130984" d="M375.888,408.718c-2.179-22.128.261-39.842,6.669-57.449.932-2.544,2.621-6.3,3.008-7.043,1.8-3.5,1.855-3.981,2.251-3.783a.257.257,0,0,1,.122.329,109.579,109.579,0,0,0-8.069,28.86,141.692,141.692,0,0,0-.937,33.556c.176,1.414.027.2.617,5.066,1.617,13.658,7.7,26.2,4.381,26.081C381.566,434.254,377.207,421.75,375.888,408.718Z" transform="translate(-223.958 -245.18)" fill="#fae28a"/>
        <g id="Grupo_58786" data-name="Grupo 58786" transform="translate(99.024 11.747)">
          <g id="Grupo_58784" data-name="Grupo 58784">
            <path id="Trazado_130985" data-name="Trazado 130985" d="M288.278,184.3a.081.081,0,0,1-.09-.09c-.5-7.822,4.652-26.9,5.282-27.117a.153.153,0,0,1,.131-.1c.054,0,.077.045.059.1-.626.221-5.777,19.286-5.282,27.108A.1.1,0,0,1,288.278,184.3Z" transform="translate(-275.184 -156.103)" fill="#f5d77f"/>
            <path id="Trazado_130986" data-name="Trazado 130986" d="M285.211,183.853a.081.081,0,0,1-.09-.077c-2.062-8.267,4.017-28.423,4.724-28.657a.176.176,0,0,1,.135-.1.068.068,0,0,1,.054.1c-.707.234-6.777,20.367-4.724,28.612a.1.1,0,0,1-.081.117Z" transform="translate(-273.283 -155.02)" fill="#f5d77f"/>
            <path id="Trazado_130987" data-name="Trazado 130987" d="M289.414,186.028a.087.087,0,0,1-.09-.117c.716-2.328,1.536-9.308,3.121-15.873,1.436-6.552,3.638-12.689,3.737-13.158a.149.149,0,0,1,.117-.113.068.068,0,0,1,.081.081c-.1.477-2.279,6.579-3.71,13.122-1.581,6.552-2.414,13.549-3.152,15.986A.1.1,0,0,1,289.414,186.028Z" transform="translate(-275.824 -155.98)" fill="#f5d77f"/>
            <path id="Trazado_130988" data-name="Trazado 130988" d="M293.2,188.326a.086.086,0,0,1-.095-.095c-.356-3.26,4.264-22.641,6.237-25.9a.149.149,0,0,1,.131-.095c.054,0,.077.054.054.108-1.977,3.251-6.583,22.627-6.232,25.9a.1.1,0,0,1-.095.077Z" transform="translate(-277.895 -158.989)" fill="#f5d77f"/>
            <path id="Trazado_130989" data-name="Trazado 130989" d="M278.086,191.845a.09.09,0,0,1-.095-.063c-2.81-8.439.829-22.308,3.49-28.283.027-.063.05-.126.077-.185a.14.14,0,0,1,.131-.095.072.072,0,0,1,.054.108c-.027.059-.05.122-.077.185-2.652,5.966-6.3,19.813-3.49,28.207a.095.095,0,0,1-.063.122Z" transform="translate(-269.039 -159.528)" fill="#f5d77f"/>
            <path id="Trazado_130990" data-name="Trazado 130990" d="M294.731,196.451h-.036a.09.09,0,0,1-.054-.122c.491-2.324,3.26-20.655,3.152-25.834a.135.135,0,0,1,.086-.126c.054-.023.1,0,.108.05.108,5.205-2.675,23.636-3.152,25.978A.113.113,0,0,1,294.731,196.451Z" transform="translate(-278.745 -163.453)" fill="#f5d77f"/>
            <path id="Trazado_130991" data-name="Trazado 130991" d="M283.019,194.68a.09.09,0,0,1-.09-.059c-2.495-5.588.059-18.129,2.765-23.641a.135.135,0,0,1,.131-.081.077.077,0,0,1,.049.113c-2.634,5.323-5.223,18.048-2.765,23.528a.1.1,0,0,1-.054.131Z" transform="translate(-271.753 -163.749)" fill="#f5d77f"/>
            <path id="Trazado_130992" data-name="Trazado 130992" d="M298.192,204.63a.1.1,0,0,1-.1-.095,63.592,63.592,0,0,1,.693-9.173c.761-6.43,2.7-14.486,3.382-18.386a.135.135,0,0,1,.113-.108.072.072,0,0,1,.081.086c-.662,3.918-2.625,11.978-3.386,18.417a63.945,63.945,0,0,0-.689,9.155A.1.1,0,0,1,298.192,204.63Z" transform="translate(-280.639 -167.03)" fill="#f5d77f"/>
            <path id="Trazado_130993" data-name="Trazado 130993" d="M273.8,177.349a.135.135,0,0,1,.122-.1.068.068,0,0,1,.068.095c-2.08,6.935-2.369,21.277-.2,28.081a.1.1,0,0,1-.068.117C272.83,205.817,270.529,188.232,273.8,177.349Z" transform="translate(-266.359 -167.24)" fill="#f5d77f"/>
            <path id="Trazado_130994" data-name="Trazado 130994" d="M288.291,190.728a.092.092,0,0,1-.095-.117c.833-4.661,2.85-19.741,3.494-25.217a.158.158,0,0,1,.1-.122.068.068,0,0,1,.095.068c-.648,5.48-2.675,20.619-3.5,25.3A.117.117,0,0,1,288.291,190.728Z" transform="translate(-275.205 -160.653)" fill="#f5d77f"/>
            <path id="Trazado_130995" data-name="Trazado 130995" d="M269.881,197.081a67.788,67.788,0,0,1,1.22-13.838.153.153,0,0,1,.117-.1.077.077,0,0,1,.077.095,67.485,67.485,0,0,0-1.2,13.509c0,6.894,1.463,14.2,3.6,16.161a.1.1,0,0,1,0,.14C273.281,213.508,269.931,208.438,269.881,197.081Z" transform="translate(-265.135 -170.478)" fill="#f5d77f"/>
            <path id="Trazado_130996" data-name="Trazado 130996" d="M295.7,208.5a.1.1,0,0,1,0-.14c2.022-2.369,4.053-18.052,6.007-32.642a.135.135,0,0,1,.108-.113.072.072,0,0,1,.086.081c-1.95,14.9-3.94,30.346-6.052,32.8a.1.1,0,0,1-.149.009Z" transform="translate(-279.319 -166.337)" fill="#f5d77f"/>
            <path id="Trazado_130997" data-name="Trazado 130997" d="M298.192,224.459a.095.095,0,0,1,0-.14c1.648-1.5,2.1-9.429,3.206-17.075.941-7.655,2.531-14.99,2.594-15.139a.131.131,0,0,1,.117-.095.081.081,0,0,1,.072.1c-.171.6-1.707,7.97-2.63,15.522-1.076,7.56-1.54,15.31-3.224,16.832A.1.1,0,0,1,298.192,224.459Z" transform="translate(-280.685 -175.353)" fill="#f5d77f"/>
            <path id="Trazado_130998" data-name="Trazado 130998" d="M270.418,227.383c-4.17-2.184-5.674-22.74-4.183-27.378a.117.117,0,0,1,.113-.095.077.077,0,0,1,.077.1c-1.477,4.62,0,25.064,4.089,27.212a.1.1,0,0,1,.041.131A.1.1,0,0,1,270.418,227.383Z" transform="translate(-262.826 -179.696)" fill="#f5d77f"/>
            <path id="Trazado_130999" data-name="Trazado 130999" d="M272.167,227.471c-3.967-4.661-6.2-21.966-3.265-30.706a.113.113,0,0,1,.117-.086.081.081,0,0,1,.068.108c-2.918,8.709-.711,25.942,3.229,30.571a.095.095,0,0,1,0,.135.1.1,0,0,1-.149-.023Z" transform="translate(-263.864 -177.92)" fill="#f5d77f"/>
            <path id="Trazado_131000" data-name="Trazado 131000" d="M302.51,238.685a.1.1,0,0,1-.036-.135c2.2-3.769,4.1-23.024,3.963-31.742a.108.108,0,0,1,.09-.113.081.081,0,0,1,.1.077c.126,8.754-1.774,28.1-3.985,31.895A.1.1,0,0,1,302.51,238.685Z" transform="translate(-283.048 -183.425)" fill="#f5d77f"/>
            <path id="Trazado_131001" data-name="Trazado 131001" d="M263.714,216.054a.1.1,0,0,1,.1-.095.086.086,0,0,1,.086.1c-1.13,9.456,2.436,22.294,6.6,28.126a.09.09,0,0,1,0,.131C269.748,244.8,262.052,229.78,263.714,216.054Z" transform="translate(-261.62 -188.519)" fill="#f5d77f"/>
            <path id="Trazado_131002" data-name="Trazado 131002" d="M306.563,252.143a.108.108,0,0,1-.059-.131c1.977-5.165,2.814-21.808,3.638-30.138a.095.095,0,0,1,.1-.095.086.086,0,0,1,.09.095c-.82,8.556-1.612,24.951-3.643,30.229a.09.09,0,0,1-.126.041Z" transform="translate(-285.268 -191.718)" fill="#f5d77f"/>
            <path id="Trazado_131003" data-name="Trazado 131003" d="M267.748,256.7c-5.98-6.493-8.646-23.2-8.38-27.018a.1.1,0,0,1,.194,0c-.221,5.12,2.841,20.925,8.331,26.919a.1.1,0,0,1,0,.135A.108.108,0,0,1,267.748,256.7Z" transform="translate(-259.35 -196.02)" fill="#f5d77f"/>
            <path id="Trazado_131004" data-name="Trazado 131004" d="M305.45,250.945c2.346-2.625,5.48-23.276,5.377-35.078a.1.1,0,0,1,.09-.108.086.086,0,0,1,.1.086c.1,11.847-3.053,32.6-5.4,35.245C305.522,251.175,305.364,251.035,305.45,250.945Z" transform="translate(-284.678 -188.408)" fill="#f5d77f"/>
            <path id="Trazado_131005" data-name="Trazado 131005" d="M310.466,271.72a108.769,108.769,0,0,0,4.116-26.77.1.1,0,0,1,.1-.09.095.095,0,0,1,.09.1,109.284,109.284,0,0,1-4.12,26.833C310.623,271.914,310.434,271.837,310.466,271.72Z" transform="translate(-287.446 -204.405)" fill="#f5d77f"/>
            <path id="Trazado_131006" data-name="Trazado 131006" d="M272.488,269.89c-6.205-5.057-11.091-22.362-10.357-29.49a.1.1,0,0,1,.1-.09.095.095,0,0,1,.09.1c-.739,7.1,4.111,24.316,10.267,29.341a.085.085,0,0,1-.1.135Z" transform="translate(-260.838 -201.904)" fill="#f5d77f"/>
            <path id="Trazado_131007" data-name="Trazado 131007" d="M308.977,276.751c4.251-4.931,2.648-20.714.626-33.21a.1.1,0,1,1,.189-.032c2.031,12.55,3.629,28.4-.657,33.376C309.058,276.977,308.905,276.837,308.977,276.751Z" transform="translate(-286.62 -203.618)" fill="#f5d77f"/>
            <path id="Trazado_131008" data-name="Trazado 131008" d="M270.051,251.2c-7.975-7.552-9.092-25.347-8.524-25.383a.09.09,0,0,1,.1.09c0,6.908,2.369,19.3,8.556,25.167a.095.095,0,0,1,0,.135A.1.1,0,0,1,270.051,251.2Z" transform="translate(-260.478 -193.939)" fill="#f5d77f"/>
            <path id="Trazado_131009" data-name="Trazado 131009" d="M272.925,288.345c-6.412-3.242-13-24.843-12.383-24.947a.108.108,0,0,1,.117.077c1.445,6.565,7.056,22.038,12.334,24.7a.108.108,0,0,1,.059.131.086.086,0,0,1-.126.036Z" transform="translate(-259.983 -214.596)" fill="#f5d77f"/>
            <path id="Trazado_131010" data-name="Trazado 131010" d="M312.4,292.057c2.5-3.746,4.408-17.436,4.381-24.267a.09.09,0,0,1,.095-.09.108.108,0,0,1,.1.1c.032,6.858-1.887,20.606-4.4,24.375C312.507,292.277,312.34,292.151,312.4,292.057Z" transform="translate(-288.506 -216.96)" fill="#f5d77f"/>
            <path id="Trazado_131011" data-name="Trazado 131011" d="M277.252,297.217c-4.368-1.765-12.036-17.823-12.3-26.2,0-.126.189-.117.194,0,.108,7.75,7.831,24.316,12.158,26.009a.117.117,0,0,1,.077.126.086.086,0,0,1-.126.063Z" transform="translate(-262.428 -218.734)" fill="#f5d77f"/>
          </g>
          <g id="Grupo_58785" data-name="Grupo 58785" transform="translate(5.83 23.118)">
            <path id="Trazado_131012" data-name="Trazado 131012" d="M284.662,215.3c1.166-.059,2.576-2.049,1.59-5.079-1.085-3.413-1.279-3.859-1.292-3.859a24.009,24.009,0,0,0-1.734,4.012C281.992,213.506,283.388,215.357,284.662,215.3Z" transform="translate(-278.042 -206.36)" fill="#dba335"/>
            <path id="Trazado_131013" data-name="Trazado 131013" d="M281.32,229.681s1.729-3.6-.9-5.656c-1.932-1.527-1.837-2.63-1.711-4.435,0,0-2.868,4.4-1.036,7.475C279.114,229.474,280.186,228.245,281.32,229.681Z" transform="translate(-274.916 -213.633)" fill="#dba335"/>
            <path id="Trazado_131014" data-name="Trazado 131014" d="M291.69,235.074c-2.252,1.68-.567,6.2-.549,6.2,1.265-.554,2.7-.3,3.773-2.5,1.4-2.9-.847-8.556-.815-8.556C293.852,232.237,293.843,233.467,291.69,235.074Z" transform="translate(-282.314 -219.476)" fill="#dba335"/>
            <path id="Trazado_131015" data-name="Trazado 131015" d="M280.826,244.4c-.027,0,1.77-5.624-2.621-6.93-2.5-.734-3.116-2.7-3.526-4.67-.032,0-1.549,5.827.6,8.362S279.146,242.054,280.826,244.4Z" transform="translate(-273.304 -220.894)" fill="#dba335"/>
            <path id="Trazado_131016" data-name="Trazado 131016" d="M291.476,250.8c-5.259,2.148-1.729,8.132-1.707,8.132.5-2.378,2.7-1.247,4.854-3.6,2.387-2.652.473-8.956.509-8.961A5.554,5.554,0,0,1,291.476,250.8Z" transform="translate(-281.253 -228.354)" fill="#dba335"/>
            <path id="Trazado_131017" data-name="Trazado 131017" d="M274.834,256.657a5.572,5.572,0,0,0,4.075,1.189s.653-5.192-2.36-6.03a5.539,5.539,0,0,1-4.143-3.976C272.366,247.845,271.592,254.491,274.834,256.657Z" transform="translate(-272.297 -229.162)" fill="#dba335"/>
            <path id="Trazado_131018" data-name="Trazado 131018" d="M295.547,267.742c-4.03.257-1.225,5.917-1.2,5.917.648-1.288,2.211-.838,3.665-1.8,2.553-1.711,1.018-7.907,1.045-7.907C298.717,265.486,297.857,267.575,295.547,267.742Z" transform="translate(-283.883 -238.017)" fill="#dba335"/>
            <path id="Trazado_131019" data-name="Trazado 131019" d="M276.712,273.948c2.17,1.445,3.575-.428,5.178,2.319-.027,0,1.288-6.651-4.183-7.511-2.427-.378-3.544-1.351-4.309-2.8C273.371,265.978,273.668,271.949,276.712,273.948Z" transform="translate(-272.902 -239.122)" fill="#dba335"/>
            <path id="Trazado_131020" data-name="Trazado 131020" d="M296.994,281.839c-4.989.626-1.454,7.561-1.427,7.561.4-1.95,2.643-1.409,4.53-3.508,1.936-2.166.293-7.461.311-7.461A4.05,4.05,0,0,1,296.994,281.839Z" transform="translate(-284.407 -245.977)" fill="#dba335"/>
            <path id="Trazado_131021" data-name="Trazado 131021" d="M279.355,288.427c2.2.626,2.882-.162,4.444,1.121,0,0-.108-5.327-3.229-5.277a5.21,5.21,0,0,1-4.5-2.67C276.036,281.6,276.392,287.584,279.355,288.427Z" transform="translate(-274.369 -247.72)" fill="#dba335"/>
            <path id="Trazado_131022" data-name="Trazado 131022" d="M303.428,309.45c-4.053.356-1.427,6.628-1.418,6.628.617-1.612,2.8-.874,4.5-2.85,1.747-2.049-.04-7-.027-7A3.533,3.533,0,0,1,303.428,309.45Z" transform="translate(-288.166 -261.259)" fill="#dba335"/>
            <path id="Trazado_131023" data-name="Trazado 131023" d="M286.458,316.217c2.085.572,3.013,0,4.5,1.184,0,0-.612-5.16-3.548-5.093a5.135,5.135,0,0,1-4.5-2.1S283.658,315.447,286.458,316.217Z" transform="translate(-278.131 -263.447)" fill="#dba335"/>
            <path id="Trazado_131024" data-name="Trazado 131024" d="M282.463,302.715c2.481,1.743,3.535-.09,5.507,1.536,0,0,.4-5.854-4.246-5.984-1.968-.049-3.976-.842-4.674-2.076C279.027,296.19,279.635,300.729,282.463,302.715Z" transform="translate(-276.009 -255.74)" fill="#dba335"/>
            <path id="Trazado_131025" data-name="Trazado 131025" d="M303.711,301.091c2.139-1.851.45-6.417.45-6.421-.356,2.855-2.927,2.044-3.958,3.071-1.536,1.522.117,5.62.126,5.62C300.766,301.474,302.171,302.424,303.711,301.091Z" transform="translate(-287.278 -254.904)" fill="#dba335"/>
            <path id="Trazado_131026" data-name="Trazado 131026" d="M289.219,221.626c-1.617,2.531.027,3.386-.45,5.971,1.68-.806,3.337-1.972,3.472-5.854a5.4,5.4,0,0,0-1.846-4.183,6.3,6.3,0,0,1-1.175,4.066Z" transform="translate(-281.198 -212.517)" fill="#dba335"/>
            <path id="Trazado_131027" data-name="Trazado 131027" d="M290.192,328.33c1.779.77,3.215-.662,4.206-.266-.162-2.224-1.319-3.382-3.517-3.274a4.664,4.664,0,0,1-3.751-1.351S287.652,327.232,290.192,328.33Z" transform="translate(-280.451 -270.719)" fill="#dba335"/>
            <path id="Trazado_131028" data-name="Trazado 131028" d="M305.479,323.487c-1.436.617-1.04,3.048-1.04,3.048,1.27-.306,2.306.842,3.94.293,2.7-.9,1.067-6.219,1.072-6.219C308.888,323.514,306.465,323.078,305.479,323.487Z" transform="translate(-289.938 -269.163)" fill="#dba335"/>
            <path id="Trazado_131029" data-name="Trazado 131029" d="M304.692,334.934c-1.693-.482-2.841.959-1.18,3.548a5.855,5.855,0,0,1,.761,1.756c7.2,29.238,14.612,58.462,4.953,88.533a.4.4,0,0,0,.374.545.95.95,0,0,0,.743-.576c.329,0,5.683-16.981,4.5-36.407-.257-19.471-7.056-41.4-9.258-52.4-.306-1.247-.072-2.008.9-1.8,2.612.6,2.891-2.661,2.4-3.985C308.262,335.226,307.339,335.677,304.692,334.934Z" transform="translate(-289.011 -276.606)" fill="#dba335"/>
            <path id="Trazado_131030" data-name="Trazado 131030" d="M291.24,334.09a4.869,4.869,0,0,0,5.192,4.323,3.835,3.835,0,0,1-.657-3.692A3.638,3.638,0,0,1,291.24,334.09Z" transform="translate(-282.71 -276.573)" fill="#dba335"/>
          </g>
        </g>
        <g id="Grupo_58789" data-name="Grupo 58789" transform="translate(132.27 29.117)">
          <g id="Grupo_58787" data-name="Grupo 58787" transform="translate(19.695)">
            <path id="Trazado_131031" data-name="Trazado 131031" d="M464.667,215.293a.095.095,0,0,1,.022-.135c6.277-5.71,24.316-15.715,24.663-15.526a.095.095,0,0,1,.135.036.1.1,0,0,1-.059.126c-.369-.189-18.359,9.8-24.627,15.5a.094.094,0,0,1-.135,0Z" transform="translate(-425.144 -196.904)" fill="#f5d77f"/>
            <path id="Trazado_131032" data-name="Trazado 131032" d="M462.072,212.2a.1.1,0,0,1,0-.126c5.854-7.236,25.514-17.53,25.888-17.282a.1.1,0,0,1,.135.036.1.1,0,0,1-.063.126c-.374-.248-19.975,10.028-25.82,17.237a.108.108,0,0,1-.14,0Z" transform="translate(-423.716 -194.246)" fill="#f5d77f"/>
            <path id="Trazado_131033" data-name="Trazado 131033" d="M461.9,219.018a.117.117,0,0,1,.049-.153c4.215-2.7,25.613-15.369,26.788-15.468a.1.1,0,0,1,.14,0,.09.09,0,0,1-.032.131c-1.193.126-22.4,12.734-26.833,15.508A.1.1,0,0,1,461.9,219.018Z" transform="translate(-423.625 -198.968)" fill="#f5d77f"/>
            <path id="Trazado_131034" data-name="Trazado 131034" d="M465.28,223.259a.1.1,0,0,1,.027-.14c2.562-2.445,20.43-12.491,23.767-13.464a.09.09,0,0,1,.126.041.1.1,0,0,1-.059.126c-3.332.973-21.164,11.005-23.731,13.446a.1.1,0,0,1-.131-.009Z" transform="translate(-425.483 -202.417)" fill="#f5d77f"/>
            <path id="Trazado_131035" data-name="Trazado 131035" d="M452.077,211.852a.094.094,0,0,1,0-.113c5.579-8.078,19.363-15.558,25.464-18.048l.194-.086a.095.095,0,0,1,.131.041.113.113,0,0,1-.068.131l-.189.081c-6.088,2.481-19.813,9.938-25.374,17.971a.108.108,0,0,1-.14.041Z" transform="translate(-418.224 -193.594)" fill="#f5d77f"/>
            <path id="Trazado_131036" data-name="Trazado 131036" d="M459.588,227.159a.114.114,0,0,1,0-.032.117.117,0,0,1,.072-.126c2.252-1.207,18.237-11.586,22.321-15.693a.113.113,0,0,1,.144-.027.086.086,0,0,1,0,.131c-4.1,4.125-20.169,14.549-22.425,15.76A.086.086,0,0,1,459.588,227.159Z" transform="translate(-422.362 -203.308)" fill="#f5d77f"/>
            <path id="Trazado_131037" data-name="Trazado 131037" d="M457.419,217.254a.094.094,0,0,1,0-.108c3.278-5.768,15.234-12.946,20.961-14.936a.095.095,0,0,1,.126.05.113.113,0,0,1-.072.126c-5.53,1.9-17.643,9.173-20.849,14.86a.122.122,0,0,1-.135.05A.441.441,0,0,1,457.419,217.254Z" transform="translate(-421.161 -198.325)" fill="#f5d77f"/>
            <path id="Trazado_131038" data-name="Trazado 131038" d="M453.413,236.411a76.343,76.343,0,0,1,7.7-5.674c5.561-3.769,12.865-7.808,16.211-10.1a.1.1,0,0,1,.135,0,.095.095,0,0,1-.031.131c-3.368,2.3-10.672,6.336-16.211,10.109a75.537,75.537,0,0,0-7.687,5.669.091.091,0,1,1-.122-.135Z" transform="translate(-418.952 -208.445)" fill="#f5d77f"/>
            <path id="Trazado_131039" data-name="Trazado 131039" d="M438.694,215.7a.09.09,0,0,1,0-.117c4.467-6.421,17.111-16.756,24.073-20.471a.1.1,0,0,1,.14.022.108.108,0,0,1-.054.135c-6.921,3.706-19.529,14.009-24,20.408a.1.1,0,0,1-.14.036Z" transform="translate(-410.865 -194.417)" fill="#f5d77f"/>
            <path id="Trazado_131040" data-name="Trazado 131040" d="M461.232,218.283a.108.108,0,0,1,.041-.149c4.327-2.58,17.562-11.636,22.348-15.418a.108.108,0,0,1,.144,0,.086.086,0,0,1,0,.131c-4.778,3.792-18.062,12.87-22.4,15.454a.086.086,0,0,1-.131-.018Z" transform="translate(-423.258 -198.593)" fill="#f5d77f"/>
            <path id="Trazado_131041" data-name="Trazado 131041" d="M432.271,220.6a.081.081,0,0,1,0-.068c.293-2.927,5.6-9.159,11.451-14.2a104.31,104.31,0,0,1,12.554-9.366.113.113,0,0,1,.14,0,.1.1,0,0,1-.045.135,105.015,105.015,0,0,0-12.253,9.123c-5.93,5.066-11.384,11.4-11.672,14.288a.122.122,0,0,1-.108.1.09.09,0,0,1-.068-.018Z" transform="translate(-407.342 -195.437)" fill="#f5d77f"/>
            <path id="Trazado_131042" data-name="Trazado 131042" d="M443.74,239.139s5.957-1.13,29.13-17.881a.1.1,0,0,1,.135,0,.1.1,0,0,1-.027.131C453.669,235.419,443.681,240.1,443.74,239.139Z" transform="translate(-413.65 -208.786)" fill="#f5d77f"/>
            <path id="Trazado_131043" data-name="Trazado 131043" d="M433.081,251.807c2.251,0,8.844-4.926,15.441-9.186,6.516-4.372,13.014-8.069,13.14-8.159a.09.09,0,0,1,.126.027.095.095,0,0,1-.041.131c-.527.315-7.011,4.053-13.446,8.376C441.79,247.214,435.332,252,433.054,252,432.932,252.01,432.959,251.807,433.081,251.807Z" transform="translate(-407.733 -216.05)" fill="#f5d77f"/>
            <path id="Trazado_131044" data-name="Trazado 131044" d="M421.5,228.162a.072.072,0,0,1-.023-.05c-.932-4.381,16.175-20.646,21.051-23.037a.1.1,0,0,1,.14,0,.108.108,0,0,1-.05.135c-4.845,2.378-21.857,18.512-20.948,22.821a.126.126,0,0,1-.086.126A.09.09,0,0,1,421.5,228.162Z" transform="translate(-401.392 -199.889)" fill="#f5d77f"/>
            <path id="Trazado_131045" data-name="Trazado 131045" d="M419.068,230.282a.09.09,0,0,1-.022-.09c1.229-6.016,15.139-20.389,24.244-24.672a.095.095,0,0,1,.135.032.117.117,0,0,1-.063.135c-9.065,4.264-22.9,18.552-24.127,24.528a.122.122,0,0,1-.122.09A.085.085,0,0,1,419.068,230.282Z" transform="translate(-400.074 -200.141)" fill="#f5d77f"/>
            <path id="Trazado_131046" data-name="Trazado 131046" d="M425.105,262.859c4.5-1.409,20.538-12.437,27.117-18.291a.1.1,0,0,1,.131,0,.09.09,0,0,1,0,.131c-6.6,5.854-22.7,16.936-27.225,18.354C425.015,263.071,424.984,262.882,425.105,262.859Z" transform="translate(-403.364 -221.6)" fill="#f5d77f"/>
            <path id="Trazado_131047" data-name="Trazado 131047" d="M408.191,240.2a.081.081,0,0,1,0-.095c1.963-7.007,11.077-19.142,20.056-25.334.049-.036.117-.036.14,0a.108.108,0,0,1-.04.14c-8.943,6.169-18.012,18.246-19.971,25.217a.121.121,0,0,1-.126.086A.09.09,0,0,1,408.191,240.2Z" transform="translate(-394.101 -205.218)" fill="#f5d77f"/>
            <path id="Trazado_131048" data-name="Trazado 131048" d="M418.914,274.365c5.363-2.549,18.732-12.725,25.532-17.449a.09.09,0,0,1,.131,0,.1.1,0,0,1-.023.131c-6.962,4.859-20.106,14.9-25.581,17.481C418.847,274.59,418.788,274.419,418.914,274.365Z" transform="translate(-399.965 -228.386)" fill="#f5d77f"/>
            <path id="Trazado_131049" data-name="Trazado 131049" d="M398.73,247.392a.1.1,0,0,1-.032-.086c1.121-8.673,14.243-23.19,17.814-25.825a.1.1,0,0,1,.144,0,.1.1,0,0,1-.027.14c-4.7,3.647-16.7,17.724-17.737,25.694a.131.131,0,0,1-.113.1A.081.081,0,0,1,398.73,247.392Z" transform="translate(-388.891 -208.907)" fill="#f5d77f"/>
            <path id="Trazado_131050" data-name="Trazado 131050" d="M414.3,274.7c3.728-.8,21.578-12.068,30.341-19.538a.09.09,0,1,1,.122.131c-8.785,7.484-26.716,18.791-30.467,19.6C414.178,274.905,414.178,274.711,414.3,274.7Z" transform="translate(-397.417 -227.418)" fill="#f5d77f"/>
            <path id="Trazado_131051" data-name="Trazado 131051" d="M409.738,290.644a.1.1,0,0,1,.045-.131c.18-.113.383-.23.6-.356A188.311,188.311,0,0,0,432.87,275.3a.09.09,0,1,1,.108.144,189.184,189.184,0,0,1-22.515,14.891l-.6.351a.086.086,0,0,1-.126-.041Z" transform="translate(-394.955 -238.497)" fill="#f5d77f"/>
            <path id="Trazado_131052" data-name="Trazado 131052" d="M390.606,260.439a.072.072,0,0,1-.036-.068c-.63-7.542,11.14-24.113,17.949-28.846a.1.1,0,0,1,.14,0,.1.1,0,0,1-.036.14c-6.754,4.715-18.485,21.164-17.863,28.666a.117.117,0,0,1-.09.117A.076.076,0,0,1,390.606,260.439Z" transform="translate(-384.41 -214.429)" fill="#f5d77f"/>
            <path id="Trazado_131053" data-name="Trazado 131053" d="M398.987,290.348c6.754-1.522,17.372-12.964,25.888-22.42a.1.1,0,0,1,.135,0,.09.09,0,0,1,0,.131c-8.556,9.456-19.2,20.957-26.009,22.515A.115.115,0,0,1,398.987,290.348Z" transform="translate(-389.003 -234.44)" fill="#f5d77f"/>
            <path id="Trazado_131054" data-name="Trazado 131054" d="M406.721,244.84a.09.09,0,0,1-.031-.072c.6-8.349,10.087-19.412,16.211-24.546a.095.095,0,0,1,.14,0,.108.108,0,0,1-.022.14c-6.093,5.106-15.531,16.112-16.134,24.4a.117.117,0,0,1-.1.1.068.068,0,0,1-.059-.023Z" transform="translate(-393.284 -208.215)" fill="#f5d77f"/>
            <path id="Trazado_131055" data-name="Trazado 131055" d="M382.274,274.508a.068.068,0,0,1-.027-.041c-2.08-5.1,6.966-20.9,11.964-26.865a.113.113,0,0,1,.14-.036.1.1,0,0,1,0,.14c-4.953,5.935-13.959,21.614-11.937,26.667a.117.117,0,0,1-.059.135A.081.081,0,0,1,382.274,274.508Z" transform="translate(-379.68 -223.257)" fill="#f5d77f"/>
            <path id="Trazado_131056" data-name="Trazado 131056" d="M398.31,305.526c6.723-2.418,23.834-16.148,21.335-13.986-5.124,4.255-16.661,12.5-21.3,14.171C398.229,305.746,398.188,305.58,398.31,305.526Z" transform="translate(-388.637 -247.308)" fill="#f5d77f"/>
            <path id="Trazado_131057" data-name="Trazado 131057" d="M377.266,284.059c-.9-1.711-.081-6.691,2.841-13.158,2.7-6.039,6.7-11.784,9.735-14.617a.1.1,0,0,1,.14,0,.108.108,0,0,1-.022.144c-6.858,5.962-14.8,23.9-12.527,27.518a.122.122,0,0,1-.041.144.086.086,0,0,1-.126-.032Z" transform="translate(-376.919 -228.039)" fill="#f5d77f"/>
          </g>
          <g id="Grupo_58788" data-name="Grupo 58788" transform="translate(0 14.534)">
            <path id="Trazado_131058" data-name="Trazado 131058" d="M456.488,231.913c.711.815,3.112.509,5.039-2.337,2.206-3.215,2.49-3.7,2.477-3.706a28.3,28.3,0,0,0-4.233,1.508C456.5,228.689,455.723,231.039,456.488,231.913Z" transform="translate(-400.814 -225.87)" fill="#dba335"/>
            <path id="Trazado_131059" data-name="Trazado 131059" d="M443.073,239.033c0-.023,3.94-1.238,4.152-4.584.167-2.49,1.157-3.215,2.729-4.4,0-.027-5.3,1-6.845,4.539C441.92,237.308,443.6,237.232,443.073,239.033Z" transform="translate(-393.37 -228.167)" fill="#dba335"/>
            <path id="Trazado_131060" data-name="Trazado 131060" d="M441.759,252.082c-2.7-.45-5.4,3.873-5.35,3.873,1.234.486,1.914,1.621,4.336.9,3.152-.955,6.3-6.345,6.345-6.345C445.329,251.69,444.357,252.5,441.759,252.082Z" transform="translate(-389.925 -239.414)" fill="#dba335"/>
            <path id="Trazado_131061" data-name="Trazado 131061" d="M430.349,247.907c0-.045,5.642-2.657,4.093-6.673-.9-2.288.405-4.138,1.842-5.854,0-.036-5.854,3.094-6.7,6.426S431.24,245.115,430.349,247.907Z" transform="translate(-386.076 -231.097)" fill="#dba335"/>
            <path id="Trazado_131062" data-name="Trazado 131062" d="M427.884,265.112c-5.052-2.094-7.709,4.553-7.655,4.544,2.251-1.351,2.778.847,6.065.644,3.6-.221,7.34-5.674,7.385-5.669A6.088,6.088,0,0,1,427.884,265.112Z" transform="translate(-381.031 -247.176)" fill="#dba335"/>
            <path id="Trazado_131063" data-name="Trazado 131063" d="M417.168,252.31a4.311,4.311,0,0,0,1.657,3.544c0-.032,4.643-3.238,3.454-5.881a5.45,5.45,0,0,1,.792-5.723C423.058,244.2,416.88,248.563,417.168,252.31Z" transform="translate(-379.343 -235.973)" fill="#dba335"/>
            <path id="Trazado_131064" data-name="Trazado 131064" d="M419.631,278.271c-2.868-2.445-5.552,3.409-5.512,3.413,1.468-.518,2.17.779,3.909,1.018,3.048.41,6.831-4.724,6.872-4.71C423.486,278.757,421.27,279.622,419.631,278.271Z" transform="translate(-377.673 -254.347)" fill="#dba335"/>
            <path id="Trazado_131065" data-name="Trazado 131065" d="M405.519,266.149c.293,2.427,2.76,1.927,1.653,4.922,0-.059,6.151-3.94,3.283-8.105a4.376,4.376,0,0,1-.45-4.886C409.977,258.044,405.105,262.736,405.519,266.149Z" transform="translate(-372.932 -243.575)" fill="#dba335"/>
            <path id="Trazado_131066" data-name="Trazado 131066" d="M408.485,289.108c-3.927-2.657-6.98,4.629-6.917,4.629,1.8-1.207,2.976.5,5.912.135,3-.383,5.948-5,5.975-4.994A4.69,4.69,0,0,1,408.485,289.108Z" transform="translate(-370.773 -260.312)" fill="#dba335"/>
            <path id="Trazado_131067" data-name="Trazado 131067" d="M396.386,278.64c1.04,1.8,2.143,1.6,2.224,3.494,0-.027,4.138-3.99,1.977-5.881a4.193,4.193,0,0,1-.869-4.814C399.7,271.4,394.968,276.195,396.386,278.64Z" transform="translate(-367.779 -250.919)" fill="#dba335"/>
            <path id="Trazado_131068" data-name="Trazado 131068" d="M392.721,312.395c-3.247-2.017-6.057,4.3-6.011,4.309,1.657-.937,2.751.784,5.471.2s5.147-5.142,5.169-5.142C396.238,312.6,394.3,313.359,392.721,312.395Z" transform="translate(-362.605 -273.084)" fill="#dba335"/>
            <path id="Trazado_131069" data-name="Trazado 131069" d="M380.532,304.355c1.121,1.581,2.251,1.617,2.486,3.359-.023,0,3.418-4.332,1.238-5.912a3.857,3.857,0,0,1-1.635-4.192C382.585,297.587,378.992,302.221,380.532,304.355Z" transform="translate(-358.999 -265.305)" fill="#dba335"/>
            <path id="Trazado_131070" data-name="Trazado 131070" d="M387.849,291.461c.45,2.765,2.625,1.936,2.814,4.291,0-.036,4.782-4.161,1.608-6.984-1.351-1.2-2.134-2.995-1.612-4.368C390.65,284.377,387.358,288.272,387.849,291.461Z" transform="translate(-363.205 -258.044)" fill="#dba335"/>
            <path id="Trazado_131071" data-name="Trazado 131071" d="M400.2,305.873c2.927-.144,5.174-4.336,5.2-4.336-2.427,1.8-3.6-.279-5.151-.144-2.283.216-4.246,4.264-4.224,4.264C397.771,304.481,398.078,305.981,400.2,305.873Z" transform="translate(-367.723 -267.381)" fill="#dba335"/>
            <path id="Trazado_131072" data-name="Trazado 131072" d="M452.019,239.537c-2.985.563-2.747,2.36-5.129,3.792,1.653.644,3.566,1.045,6.754-1.486a6.516,6.516,0,0,0,2.346-4.233A7.164,7.164,0,0,1,452.019,239.537Z" transform="translate(-395.687 -232.323)" fill="#dba335"/>
            <path id="Trazado_131073" data-name="Trazado 131073" d="M374.85,316.156c.788,1.54,2.936,1.112,3.4,1.945,1.5-1.86,1.5-3.368-.234-4.458a3.413,3.413,0,0,1-1.8-3.094S373.715,313.932,374.85,316.156Z" transform="translate(-355.924 -272.419)" fill="#dba335"/>
            <path id="Trazado_131074" data-name="Trazado 131074" d="M386.667,323.815c-1.536-.284-3.021,1.855-3.017,1.86,1.189.405,1.153,1.842,2.8,2.251,2.7.644,5.282-4.165,5.309-4.156C389.211,325.607,387.7,324.013,386.667,323.815Z" transform="translate(-360.924 -279.686)" fill="#dba335"/>
            <path id="Trazado_131075" data-name="Trazado 131075" d="M356.119,330.245c-.937-1.247-2.891-.666-3.449,2.288-.644,3.458-24.514,39.536-18.525,94.171a.639.639,0,0,0,.59.563.6.6,0,0,0,.45-.648c.221.207-2.634-18.588.734-39.05,2.6-20.6,11.42-42.868,17.364-52.852.63-1.171,1.351-1.671,1.945-1.018,1.617,1.747,4.1-.684,4.674-1.936C358.654,332.276,357.6,332.173,356.119,330.245Z" transform="translate(-333.181 -282.905)" fill="#dba335"/>
            <path id="Trazado_131076" data-name="Trazado 131076" d="M371.987,321.42c-1.031,1.608-2.152,4.291.833,6.192a4.529,4.529,0,0,1,2.161-3.35C373.455,324.185,371.888,323.293,371.987,321.42Z" transform="translate(-353.913 -278.394)" fill="#dba335"/>
          </g>
        </g>
        <g id="Grupo_58792" data-name="Grupo 58792" transform="translate(127.184)">
          <g id="Grupo_58790" data-name="Grupo 58790" transform="translate(5.07)">
            <path id="Trazado_131077" data-name="Trazado 131077" d="M395.207,159.1a.1.1,0,0,1-.036-.14c3.9-7.912,16.121-25.244,16.422-25.3a.1.1,0,0,1,.144-.027.108.108,0,0,1,0,.149c-.3.054-12.514,17.368-16.4,25.271a.108.108,0,0,1-.126.045Z" transform="translate(-367.233 -131.507)" fill="#f5d77f"/>
            <path id="Trazado_131078" data-name="Trazado 131078" d="M392.179,156.539a.113.113,0,0,1-.045-.126C394.953,147.2,408.489,129,408.8,128.976a.1.1,0,0,1,.144-.023.1.1,0,0,1,0,.149c-.315.023-13.824,18.192-16.634,27.369a.1.1,0,0,1-.131.072Z" transform="translate(-365.569 -128.932)" fill="#f5d77f"/>
            <path id="Trazado_131079" data-name="Trazado 131079" d="M394.094,162.732a.045.045,0,0,1-.023,0,.1.1,0,0,1,0-.149c3.319-4.084,17.872-25.419,18.665-26.153a.113.113,0,0,1,.14-.05.1.1,0,0,1,.041.14c-.8.761-15.207,21.943-18.705,26.207A.1.1,0,0,1,394.094,162.732Z" transform="translate(-366.62 -133.022)" fill="#f5d77f"/>
            <path id="Trazado_131080" data-name="Trazado 131080" d="M398.3,167.08a.108.108,0,0,1-.036-.144c1.662-3.292,14.333-20.484,16.823-23a.1.1,0,0,1,.144,0,.113.113,0,0,1,0,.149c-2.49,2.517-15.148,19.692-16.805,22.965A.1.1,0,0,1,398.3,167.08Z" transform="translate(-368.933 -137.163)" fill="#f5d77f"/>
            <path id="Trazado_131081" data-name="Trazado 131081" d="M382.445,160.421a.1.1,0,0,1-.05-.113c2.089-9.938,11.739-22.641,16.143-27.707l.135-.162a.095.095,0,0,1,.144,0,.1.1,0,0,1,0,.149l-.135.162c-4.39,5.052-14.018,17.719-16.094,27.608a.113.113,0,0,1-.122.09Z" transform="translate(-360.216 -130.842)" fill="#f5d77f"/>
            <path id="Trazado_131082" data-name="Trazado 131082" d="M395.5,174a.086.086,0,0,1-.032-.027.117.117,0,0,1,0-.149c1.887-1.945,12.978-18.62,14.612-24.447a.113.113,0,0,1,.126-.086.095.095,0,0,1,.072.122c-1.644,5.854-12.788,22.614-14.684,24.573A.1.1,0,0,1,395.5,174Z" transform="translate(-367.39 -140.121)" fill="#f5d77f"/>
            <path id="Trazado_131083" data-name="Trazado 131083" d="M388.477,165.92a.1.1,0,0,1-.05-.1c.779-6.872,9.006-18.552,13.392-22.965a.1.1,0,0,1,.149,0,.108.108,0,0,1,0,.149c-4.237,4.237-12.572,16.08-13.333,22.821a.117.117,0,0,1-.113.1S388.486,165.929,388.477,165.92Z" transform="translate(-363.533 -136.566)" fill="#f5d77f"/>
            <path id="Trazado_131084" data-name="Trazado 131084" d="M393.315,184.93a.1.1,0,0,1-.041-.14,95.569,95.569,0,0,1,5.323-8.556c3.913-5.881,9.164-12.9,11.257-16.594a.1.1,0,0,1,.14-.045.1.1,0,0,1,.036.14c-2.107,3.71-7.353,10.726-11.257,16.611a97.433,97.433,0,0,0-5.314,8.533.1.1,0,0,1-.144.05Z" transform="translate(-366.192 -145.782)" fill="#f5d77f"/>
            <path id="Trazado_131085" data-name="Trazado 131085" d="M371.874,170.208a.1.1,0,0,1-.05-.117c1.878-7.853,9.479-22.677,14.121-29.152a.108.108,0,0,1,.144-.036.113.113,0,0,1,0,.153c-4.629,6.453-12.212,21.241-14.09,29.085a.113.113,0,0,1-.126.086Z" transform="translate(-354.405 -135.505)" fill="#f5d77f"/>
            <path id="Trazado_131086" data-name="Trazado 131086" d="M393.07,164.636a.108.108,0,0,1-.022-.162c3.3-4.125,11.991-18.377,14.441-24.122a.108.108,0,0,1,.135-.068.095.095,0,0,1,.054.131c-2.459,5.768-11.172,20.061-14.486,24.195A.1.1,0,0,1,393.07,164.636Z" transform="translate(-366.059 -135.169)" fill="#f5d77f"/>
            <path id="Trazado_131087" data-name="Trazado 131087" d="M368.7,177.539a.108.108,0,0,1-.054-.063c-2.211-6.237,11.955-31.246,12.991-32.057a.122.122,0,0,1,.144-.041.108.108,0,0,1,.027.149c-.549.027-15.175,25.708-12.964,31.872a.113.113,0,0,1-.144.14Z" transform="translate(-352.531 -137.968)" fill="#f5d77f"/>
            <path id="Trazado_131088" data-name="Trazado 131088" d="M385.627,188.726a.1.1,0,0,1-.054-.059.113.113,0,0,1,.063-.14c3.152-1.414,13.554-15.044,20.948-29.058a.113.113,0,0,1,.14-.05.1.1,0,0,1,.041.14c-7.534,14.306-17.791,27.707-21.06,29.166A.113.113,0,0,1,385.627,188.726Z" transform="translate(-361.962 -145.687)" fill="#f5d77f"/>
            <path id="Trazado_131089" data-name="Trazado 131089" d="M379.446,205.83a.108.108,0,0,1-.059-.068.113.113,0,0,1,.077-.131c4.192-1.765,20.813-28.22,21.452-28.184a.1.1,0,1,1,.162.117c-1.193.766-17.264,26.5-21.565,28.27A.113.113,0,0,1,379.446,205.83Z" transform="translate(-358.563 -155.577)" fill="#f5d77f"/>
            <path id="Trazado_131090" data-name="Trazado 131090" d="M360.372,190.3a.1.1,0,0,1-.045-.041c-2.472-3.99,7.561-25.883,10.893-30.17a.1.1,0,0,1,.144-.036.113.113,0,0,1,0,.153c-3.31,4.255-13.311,26-10.875,29.922a.122.122,0,0,1-.041.153.1.1,0,0,1-.077.018Z" transform="translate(-347.874 -146.03)" fill="#f5d77f"/>
            <path id="Trazado_131091" data-name="Trazado 131091" d="M359.831,191.8a.094.094,0,0,1-.059-.081c-.955-6.367,6.831-25.217,13.432-32.966a.1.1,0,0,1,.144,0,.113.113,0,0,1,0,.153c-6.57,7.718-14.324,26.464-13.378,32.791a.117.117,0,0,1-.09.126.077.077,0,0,1-.049-.023Z" transform="translate(-347.739 -145.307)" fill="#f5d77f"/>
            <path id="Trazado_131092" data-name="Trazado 131092" d="M375.827,220.588a.081.081,0,0,1-.05-.045.113.113,0,0,1,.045-.144c4.3-2.751,16.476-19.723,20.191-28.337a.095.095,0,0,1,.122-.068.1.1,0,0,1,.054.131c-3.728,8.641-15.959,25.667-20.286,28.45A.1.1,0,0,1,375.827,220.588Z" transform="translate(-356.575 -163.595)" fill="#f5d77f"/>
            <path id="Trazado_131093" data-name="Trazado 131093" d="M352.788,207.3a.1.1,0,0,1-.063-.09c-.536-7.61,3.751-22.515,9.672-31.841a.095.095,0,0,1,.144-.041.1.1,0,0,1,.023.149c-5.894,9.308-10.168,24.132-9.636,31.706a.108.108,0,0,1-.095.122.072.072,0,0,1-.045,0Z" transform="translate(-343.884 -154.425)" fill="#f5d77f"/>
            <path id="Trazado_131094" data-name="Trazado 131094" d="M373.174,235.244a.067.067,0,0,1-.041-.032.108.108,0,0,1,0-.149c4.832-4.183,14.783-19.223,19.48-26.716a.1.1,0,1,1,.176.1c-4.809,7.7-14.594,22.515-19.534,26.784A.1.1,0,0,1,373.174,235.244Z" transform="translate(-355.111 -172.559)" fill="#f5d77f"/>
            <path id="Trazado_131095" data-name="Trazado 131095" d="M345.577,218.547a.1.1,0,0,1-.063-.077c-1.8-8.965,5.48-27.468,7.7-31.359a.1.1,0,0,1,.14-.054.1.1,0,0,1,.036.144c-2.9,5.264-9.348,22.965-7.682,31.215a.117.117,0,0,1-.081.135A.072.072,0,0,1,345.577,218.547Z" transform="translate(-339.789 -160.879)" fill="#f5d77f"/>
            <path id="Trazado_131096" data-name="Trazado 131096" d="M369.342,234.911a.09.09,0,0,1-.059-.063.108.108,0,0,1,.063-.135c3.751-1.8,18.278-19.363,23.627-30.566a.1.1,0,0,1,.185.081c-5.368,11.217-19.971,28.878-23.749,30.679A.117.117,0,0,1,369.342,234.911Z" transform="translate(-353.007 -170.244)" fill="#f5d77f"/>
            <path id="Trazado_131097" data-name="Trazado 131097" d="M368.22,255.945l-.036-.023a.108.108,0,0,1,0-.149l.518-.54a128.114,128.114,0,0,0,18.012-22.74.1.1,0,0,1,.14-.032.1.1,0,0,1,.032.14,128.407,128.407,0,0,1-18.012,22.776c-.185.2-.36.374-.518.54a.1.1,0,0,1-.135.027Z" transform="translate(-352.39 -185.835)" fill="#f5d77f"/>
            <path id="Trazado_131098" data-name="Trazado 131098" d="M342.279,234.049a.1.1,0,0,1-.059-.059c-3.066-7.416,2.7-27.329,7.331-34.353a.1.1,0,1,1,.167.113c-4.6,6.984-10.357,26.788-7.308,34.151a.117.117,0,0,1-.059.144A.1.1,0,0,1,342.279,234.049Z" transform="translate(-337.661 -167.761)" fill="#f5d77f"/>
            <path id="Trazado_131099" data-name="Trazado 131099" d="M359.51,258.091a.113.113,0,0,1,.05-.14c6.754-3.373,14.171-18.539,18.913-31.264a.1.1,0,1,1,.189.063c-4.764,12.77-12.208,27.986-19.03,31.395A.1.1,0,0,1,359.51,258.091Z" transform="translate(-347.634 -182.631)" fill="#f5d77f"/>
            <path id="Trazado_131100" data-name="Trazado 131100" d="M351.952,214.066a.108.108,0,0,1-.059-.068c-2.418-8.533,2.675-22.461,6.367-29.688a.117.117,0,0,1,.144-.059.113.113,0,0,1,.036.149c-3.679,7.2-8.749,21.056-6.349,29.526a.126.126,0,0,1-.072.14A.086.086,0,0,1,351.952,214.066Z" transform="translate(-343.107 -159.338)" fill="#f5d77f"/>
            <path id="Trazado_131101" data-name="Trazado 131101" d="M336.845,252.827c-3.719-4.638.126-22.884,2.666-30.368a.113.113,0,0,1,.131-.081.108.108,0,0,1,.063.135c-2.526,7.448-6.363,25.6-2.7,30.17a.113.113,0,0,1,0,.153.095.095,0,0,1-.158-.009Z" transform="translate(-334.33 -180.298)" fill="#f5d77f"/>
            <path id="Trazado_131102" data-name="Trazado 131102" d="M360.424,275.97a.108.108,0,0,1,.041-.144c4.449-2.877,13.892-14.909,17.562-21.124a.1.1,0,1,1,.171.1c-3.67,6.232-13.158,18.309-17.634,21.2a.09.09,0,0,1-.14-.036Z" transform="translate(-348.134 -198.038)" fill="#f5d77f"/>
            <path id="Trazado_131103" data-name="Trazado 131103" d="M334.832,263.687c-1.5-1.513-2.152-6.754-1.319-14.036.766-6.795,2.724-13.68,4.728-17.427a.1.1,0,0,1,.144-.05.108.108,0,0,1,.032.149c-4.526,8.029-6.836,28.072-3.44,31.2a.122.122,0,0,1,0,.153.1.1,0,0,1-.144.009Z" transform="translate(-333.146 -185.678)" fill="#f5d77f"/>
          </g>
          <g id="Grupo_58791" data-name="Grupo 58791" transform="translate(0 22.275)">
            <path id="Trazado_131104" data-name="Trazado 131104" d="M388.539,187.226c1.076.545,3.377-.662,4-4.215.72-4.021.752-4.611.743-4.611a32.619,32.619,0,0,0-3.512,3.116C387.111,184.029,387.386,186.627,388.539,187.226Z" transform="translate(-358.066 -178.4)" fill="#f2c041"/>
            <path id="Trazado_131105" data-name="Trazado 131105" d="M378.478,199.482s3.494-2.643,2.224-6.048c-.937-2.526-.27-3.6.766-5.354,0,0-4.841,2.949-4.868,6.98C376.591,198.171,378.239,197.5,378.478,199.482Z" transform="translate(-351.963 -183.721)" fill="#f2c041"/>
            <path id="Trazado_131106" data-name="Trazado 131106" d="M382.567,211.416c-2.931.531-3.9,5.759-3.877,5.755,1.468.068,2.63.977,4.827-.608,2.859-2.071,3.773-8.659,3.8-8.673C386.034,209.741,385.395,210.9,382.567,211.416Z" transform="translate(-353.111 -194.611)" fill="#f2c041"/>
            <path id="Trazado_131107" data-name="Trazado 131107" d="M369.816,213.038c0-.027,4.733-4.6,1.427-8.069-1.869-1.963-1.351-4.242-.662-6.448,0-.023-4.575,5.115-4.053,8.686S369.6,209.957,369.816,213.038Z" transform="translate(-346.404 -189.46)" fill="#f2c041"/>
            <path id="Trazado_131108" data-name="Trazado 131108" d="M373.293,228.235c-6.029-.374-6.174,7.128-6.138,7.11,1.8-2.094,3.211-.036,6.552-1.351,3.7-1.427,5.332-8.285,5.359-8.295A6.439,6.439,0,0,1,373.293,228.235Z" transform="translate(-346.769 -204.401)" fill="#f2c041"/>
            <path id="Trazado_131109" data-name="Trazado 131109" d="M358.186,222.255a5.056,5.056,0,0,0,3.107,3.012s3.535-4.773,1.22-7.02a5.79,5.79,0,0,1-1.567-5.957C360.933,212.263,356.434,218.621,358.186,222.255Z" transform="translate(-341.618 -197.029)" fill="#f2c041"/>
            <path id="Trazado_131110" data-name="Trazado 131110" d="M369.265,245.855c-3.9-1.536-4.5,5.214-4.476,5.205,1.351-.977,2.558.122,4.467-.185,3.364-.545,5.359-7.056,5.4-7.056C373.48,245.108,371.5,246.729,369.265,245.855Z" transform="translate(-345.47 -214.361)" fill="#f2c041"/>
            <path id="Trazado_131111" data-name="Trazado 131111" d="M351.329,240.352c1.207,2.351,3.6,1.1,3.539,4.462,0-.036,4.994-5.908.383-9.186a4.826,4.826,0,0,1-2.4-4.728C352.838,230.882,349.641,237.069,351.329,240.352Z" transform="translate(-337.801 -207.259)" fill="#f2c041"/>
            <path id="Trazado_131112" data-name="Trazado 131112" d="M362.035,260.17c-5.061-1.477-5.683,6.795-5.647,6.781,1.49-1.752,3.319-.347,6.3-1.612,3.053-1.3,4.467-6.975,4.5-6.98A5.236,5.236,0,0,1,362.035,260.17Z" transform="translate(-340.851 -222.354)" fill="#f2c041"/>
            <path id="Trazado_131113" data-name="Trazado 131113" d="M345.795,255.973c1.725,1.509,2.823,1,3.571,2.886,0,0,2.945-5.273,0-6.529a4.621,4.621,0,0,1-2.7-4.571C346.619,247.746,343.467,253.947,345.795,255.973Z" transform="translate(-334.558 -216.527)" fill="#f2c041"/>
            <path id="Trazado_131114" data-name="Trazado 131114" d="M353.028,288.823c-4.093-1.148-5.07,6.048-5.039,6.043,1.482-1.391,3.188.09,5.912-1.252,2.8-1.373,3.819-6.754,3.837-6.754C356.837,288.035,355.023,289.377,353.028,288.823Z" transform="translate(-336.235 -238.021)" fill="#f2c041"/>
            <path id="Trazado_131115" data-name="Trazado 131115" d="M337.418,286.775c1.7,1.315,2.913,1.058,3.715,2.778,0,0,2.252-5.35-.581-6.363a4.322,4.322,0,0,1-3.13-3.8C337.4,279.381,335.135,285.01,337.418,286.775Z" transform="translate(-329.865 -233.914)" fill="#f2c041"/>
            <path id="Trazado_131116" data-name="Trazado 131116" d="M341.219,271.629c1.382,2.7,3.436,1.238,4.408,3.6,0,0,3.688-5.6-.657-7.552-1.846-.82-3.3-2.414-3.242-3.94C341.719,263.713,339.643,268.558,341.219,271.629Z" transform="translate(-332.189 -225.311)" fill="#f2c041"/>
            <path id="Trazado_131117" data-name="Trazado 131117" d="M358.636,280.559c3.071-.986,4.008-5.984,4.026-5.989-1.941,2.58-3.931.8-5.494,1.391-2.328.9-3.058,5.557-3.048,5.552C355.6,279.825,356.416,281.275,358.636,280.559Z" transform="translate(-339.605 -231.265)" fill="#f2c041"/>
            <path id="Trazado_131118" data-name="Trazado 131118" d="M387.853,195.833c-2.769,1.662-1.743,3.355-3.553,5.642,1.954.05,4.093-.239,6.219-3.958a6.534,6.534,0,0,0,.45-5.1,6.98,6.98,0,0,1-3.116,3.413Z" transform="translate(-356.195 -186.107)" fill="#f2c041"/>
            <path id="Trazado_131119" data-name="Trazado 131119" d="M334.653,300.442c1.31,1.373,3.481.4,4.237,1.13,1.04-2.288.563-3.837-1.626-4.5a3.847,3.847,0,0,1-2.873-2.679S332.775,298.47,334.653,300.442Z" transform="translate(-328.406 -242.16)" fill="#f2c041"/>
            <path id="Trazado_131120" data-name="Trazado 131120" d="M348.986,303.118c-1.729.117-2.666,2.7-2.666,2.7,1.4.117,1.8,1.608,3.674,1.594,3.094,0,4.386-5.714,4.408-5.714C352.277,304.3,350.152,303.046,348.986,303.118Z" transform="translate(-335.318 -246.178)" fill="#f2c041"/>
            <path id="Trazado_131121" data-name="Trazado 131121" d="M333.524,313.322c-1.382-1.04-3.292.04-3.035,3.206a6.075,6.075,0,0,1-.176,2.022,273.7,273.7,0,0,0-6.624,98.755.666.666,0,0,0,.657.567.635.635,0,0,0,.5-.671c.176.077-2.571-18.827-1.486-40.527.6-21.718,5.039-46.223,8.407-58.061.347-1.351.977-2.049,1.8-1.522,2.251,1.409,4.219-1.729,4.458-3.184C336.847,314.768,335.69,314.934,333.524,313.322Z" transform="translate(-321.886 -252.356)" fill="#f2c041"/>
            <path id="Trazado_131122" data-name="Trazado 131122" d="M332.778,306.71c-.6,1.887-1.022,4.881,2.738,6.111a4.44,4.44,0,0,1,1.351-3.963C335.187,309.164,333.247,308.642,332.778,306.71Z" transform="translate(-327.657 -248.932)" fill="#f2c041"/>
          </g>
        </g>
        <path id="Trazado_131123" data-name="Trazado 131123" d="M367.067,323.047c7.655-10.078,25.194-24.019,31.111-43.787a.086.086,0,1,1,.167.04c-3.364,15.252-12.833,25.987-25.446,40.621C348.06,348.9,360.6,387.26,360.461,398.6c0,1.139.032,2.206-.811,2.08C357.8,400.413,344.642,352.276,367.067,323.047Z" transform="translate(-212.431 -211.532)" fill="#f2c041"/>
        <path id="Trazado_131124" data-name="Trazado 131124" d="M252.675,445.4c9.614-18.372,23.141-55.166,22.366-76.551-.153-1.779-.315-2.229,0-2.251a.194.194,0,0,1,.207.162c4.053,23.663-8.362,58.872-21.749,79.122a.482.482,0,0,1-.824-.482Z" transform="translate(-156.637 -259.578)" fill="#dba335"/>
        <path id="Trazado_131125" data-name="Trazado 131125" d="M410.251,421.424c2.823-4.5,7.259-9.222,12.667-6.3,6.579,3.692,10.1,17.152,11.257,23.524.036.2-.333.248-.392.054-1.914-6.349-8.628-25.532-15.625-22.339-8.105,3.674-17.6,30.791-9.907,54.153a12.566,12.566,0,0,1,.7,2.8c.1.788.194,1.7-.824,1.6C404.23,474.528,396.746,443.178,410.251,421.424Z" transform="translate(-239.026 -285.755)" fill="#f2c041"/>
        <path id="Trazado_131126" data-name="Trazado 131126" d="M227.274,444.119c1.351-21.659,3.373-58.66-13.288-72.8-.077-.059.077.049-.023,0-6.1-4.354-12.086-5.633-19.1-2.067a27.883,27.883,0,0,0-7.907,6.147.167.167,0,0,1-.266-.194c1.729-2.648,7.007-8.448,14.41-9.731a19.653,19.653,0,0,1,14.626,4.053c17.44,13.7,19.214,58.665,12.833,76.1a.68.68,0,0,1-.874.405C227.08,445.817,227.215,445.231,227.274,444.119Z" transform="translate(-120.374 -258.854)" fill="#f2c041"/>
      </g>
    </g>
  </g>
</svg>
