<svg xmlns="http://www.w3.org/2000/svg" xmlns:xlink="http://www.w3.org/1999/xlink" width="396" height="302" viewBox="0 0 396 302">
  <defs>
    <linearGradient id="linear-gradient" x1="1.131" y1="1.295" x2="0.236" y2="0.19" gradientUnits="objectBoundingBox">
      <stop offset="0" stop-color="#dae3fe"/>
      <stop offset="1" stop-color="#e9effd"/>
    </linearGradient>
    <radialGradient id="radial-gradient" cx="0.503" cy="0.057" r="1.823" gradientTransform="translate(0.422) scale(0.157 1)" gradientUnits="objectBoundingBox">
      <stop offset="0" stop-color="#ffcf84"/>
      <stop offset="0.98" stop-color="#ffb88b"/>
    </radialGradient>
    <radialGradient id="radial-gradient-2" cx="0.503" cy="0.057" r="1.043" gradientTransform="translate(0.348) scale(0.303 1)" gradientUnits="objectBoundingBox">
      <stop offset="0.02" stop-color="#ff9468"/>
      <stop offset="1" stop-color="#e28466"/>
    </radialGradient>
    <linearGradient id="linear-gradient-2" y1="0.5" x2="1" y2="0.5" gradientUnits="objectBoundingBox">
      <stop offset="0.02" stop-color="#ffb88b"/>
      <stop offset="1" stop-color="#ffcf84"/>
    </linearGradient>
    <radialGradient id="radial-gradient-3" cx="0.503" cy="0.057" r="3.427" gradientTransform="translate(0.46) scale(0.081 1)" xlink:href="#radial-gradient-2"/>
    <radialGradient id="radial-gradient-4" cx="0.503" cy="0.056" r="2.644" gradientTransform="translate(0.447) scale(0.106 1)" xlink:href="#linear-gradient-2"/>
    <linearGradient id="linear-gradient-3" x1="0.5" y1="1" x2="0.5" y2="0" xlink:href="#linear-gradient-2"/>
    <radialGradient id="radial-gradient-5" cx="0.503" cy="0.056" r="2.548" gradientTransform="translate(0.445) scale(0.11 1)" xlink:href="#linear-gradient-2"/>
    <radialGradient id="radial-gradient-6" cx="0.503" cy="0.5" r="0.356" gradientTransform="translate(-3.668) scale(8.335 1)" xlink:href="#radial-gradient-2"/>
    <linearGradient id="linear-gradient-4" x1="0.499" y1="1" x2="0.499" gradientUnits="objectBoundingBox">
      <stop offset="0" stop-color="#e5b8c0"/>
      <stop offset="1" stop-color="#fff"/>
    </linearGradient>
    <linearGradient id="linear-gradient-5" y1="0.5" x2="1" y2="0.5" gradientUnits="objectBoundingBox">
      <stop offset="0" stop-color="#fff"/>
      <stop offset="1" stop-color="#e5b8c0"/>
    </linearGradient>
    <linearGradient id="linear-gradient-6" x1="0" y1="0.5" y2="0.5" xlink:href="#linear-gradient-5"/>
    <radialGradient id="radial-gradient-7" cx="0.503" cy="0.056" r="2.86" gradientTransform="translate(0.451) scale(0.097 1)" xlink:href="#radial-gradient-2"/>
    <linearGradient id="linear-gradient-7" x1="0.5" y1="1" x2="0.5" y2="0" xlink:href="#linear-gradient-5"/>
    <linearGradient id="linear-gradient-8" x1="0" y1="0.499" y2="0.499" xlink:href="#linear-gradient-5"/>
    <linearGradient id="linear-gradient-9" y1="0.501" x2="1" y2="0.501" gradientUnits="objectBoundingBox">
      <stop offset="0" stop-color="#d3b8d6"/>
      <stop offset="1" stop-color="#fff"/>
    </linearGradient>
    <linearGradient id="linear-gradient-10" x1="0.5" y1="1" x2="0.5" gradientUnits="objectBoundingBox">
      <stop offset="0.03" stop-color="#ecc5c4"/>
      <stop offset="1" stop-color="#fff2e3"/>
    </linearGradient>
  </defs>
  <g id="img13" transform="translate(-596 -4521.901)">
    <rect id="Rectángulo_30447" data-name="Rectángulo 30447" width="396" height="302" rx="18" transform="translate(596 4521.901)" fill="#f6f6f6"/>
    <path id="Trazado_130198" data-name="Trazado 130198" d="M691.214,674.843A84.814,84.814,0,0,1,678.224,685.8c-42.374,30.453-92.514,21.576-103.17,19.408-15.736-3.2-46.153-9.389-68.144-35.291-33.269-39.187-28.089-100.927-2.282-141.684,4.721-7.455,29.655-48.831,80.335-55.466,30.671-4.016,66.423,4.083,92.315,25.811C731.625,544.178,727.756,636.31,691.214,674.843Z" transform="translate(198.981 4102.147)" fill="url(#linear-gradient)"/>
    <g id="Grupo_58527" data-name="Grupo 58527" transform="translate(598.331 4612.126)">
      <path id="Trazado_130023" data-name="Trazado 130023" d="M95.461,12.221,35.55,47.616l262.534,1.716L233.591,8.17Z" transform="translate(0 2.368)" fill-rule="evenodd" fill="url(#radial-gradient)"/>
      <path id="Trazado_130024" data-name="Trazado 130024" d="M35.55,30.47s5.979,50.978,15.248,79.6H285.755s14.292-42.806,12.276-77.936Z" transform="translate(0 19.514)" fill-rule="evenodd" fill="url(#radial-gradient-2)"/>
      <path id="Trazado_130025" data-name="Trazado 130025" d="M117.327,37.091,108.2,9.78l69.534-1.61,64.493,36.881L142.091,41.46Z" transform="translate(55.857 2.368)" fill-rule="evenodd" fill="url(#linear-gradient-2)"/>
      <path id="Trazado_130026" data-name="Trazado 130026" d="M232.552,11.04l1.185,3.379-80.005,6.014-12.1,2.848-85.9,2.246L54.57,22.414l84.87-1.008,13.514-3.325Z" transform="translate(14.624 4.575)" fill-rule="evenodd" fill="url(#radial-gradient-3)"/>
      <path id="Trazado_130027" data-name="Trazado 130027" d="M232.552,14.269,217.747,6.84,149.434,8.149,138.891,9.9,80.608,11.545,54.57,25.643,136.5,24.67l16.45-3.361Z" transform="translate(14.624 1.346)" fill-rule="evenodd" fill="url(#radial-gradient-4)"/>
      <path id="Trazado_130028" data-name="Trazado 130028" d="M35.55,49.984,92.26,10.538l35.908-2.353,25.348-3.1,4.67,45.69Z" transform="translate(0)" fill-rule="evenodd" fill="url(#linear-gradient-3)"/>
      <path id="Trazado_130029" data-name="Trazado 130029" d="M35.55,42.257l28.5-27.117,19.316,3.29L167.6,20.217,172.424,36.1l125.66,7.871Z" transform="translate(0 7.727)" fill-rule="evenodd" fill="url(#radial-gradient-5)"/>
      <path id="Trazado_130030" data-name="Trazado 130030" d="M115.367,35.171,109.76,16.7l1.539-.354L116.128,30.8Z" transform="translate(57.057 8.657)" fill="#b14858" fill-rule="evenodd"/>
      <path id="Trazado_130031" data-name="Trazado 130031" d="M103.79,19.044l11.338.088-.778-2.583Z" transform="translate(52.467 8.811)" fill="#a23b58" fill-rule="evenodd"/>
      <path id="Trazado_130032" data-name="Trazado 130032" d="M102.24,5.09l1.026,1.787,1.716,20.979-.407.088Z" transform="translate(51.275)" fill-rule="evenodd" fill="url(#radial-gradient-6)"/>
      <path id="Trazado_130033" data-name="Trazado 130033" d="M110.63,18.964h26.321l53.685-6.014Z" transform="translate(57.726 6.043)" fill="#791b40" fill-rule="evenodd" opacity="0.65"/>
      <path id="Trazado_130034" data-name="Trazado 130034" d="M112.183,7.58l3.52,13.16-11.515,2.706L103.02,9.154Z" transform="translate(51.875 1.914)" fill-rule="evenodd" opacity="0.5" fill="url(#linear-gradient-4)"/>
      <path id="Trazado_130035" data-name="Trazado 130035" d="M122.129,17.151l-.743-2.441-6.191.548L103.68,17.965l.195,2.494,12.1-2.848Z" transform="translate(52.382 7.396)" fill="#791b40" fill-rule="evenodd" opacity="0.36"/>
      <path id="Trazado_130036" data-name="Trazado 130036" d="M112.767,6.84l14.345,17.176,13.744,2.494L55.58,24.369,76.859,9.193Z" transform="translate(15.4 1.346)" fill-rule="evenodd" opacity="0.5" fill="url(#linear-gradient-5)"/>
      <path id="Trazado_130037" data-name="Trazado 130037" d="M135.48,18.01l-30.513,3.166L77.32,33.894,227.2,41.5l38.773.265-125.66-7.871Z" transform="translate(32.115 9.934)" fill-rule="evenodd" opacity="0.5" fill="url(#linear-gradient-6)"/>
      <path id="Trazado_130038" data-name="Trazado 130038" d="M238.59,36.76l-99.251-5.466L112.93,28.889l.761-4.369,24.764,4.369L238.59,32.48Z" transform="translate(59.494 14.939)" fill-rule="evenodd" fill="url(#radial-gradient-7)"/>
      <path id="Trazado_130039" data-name="Trazado 130039" d="M116.172,27.14l-2.812,2.388,124.9,5.218L139.008,29.28Z" transform="translate(59.825 16.953)" fill="#791b40" fill-rule="evenodd" opacity="0.65"/>
      <path id="Trazado_130040" data-name="Trazado 130040" d="M140.223,35.171,136.951,16.35H110.63L115.459,30.8Z" transform="translate(57.726 8.657)" fill-rule="evenodd" opacity="0.5" fill="url(#linear-gradient-7)"/>
      <path id="Trazado_130041" data-name="Trazado 130041" d="M76.9,18.43,43.96,29.556,57.58,15.14Z" transform="translate(6.466 7.727)" fill-rule="evenodd" opacity="0.5" fill="url(#linear-gradient-8)"/>
      <path id="Trazado_130042" data-name="Trazado 130042" d="M44.17,77.81s150.8-11.957,235.01,0Z" transform="translate(6.628 51.825)" fill-rule="evenodd" opacity="0.5" fill="url(#linear-gradient-9)"/>
      <path id="Trazado_130043" data-name="Trazado 130043" d="M90.14,46.683l2.193,22.358h70.206l-.672-24.092Z" transform="translate(41.972 30.647)" fill-rule="evenodd" fill="url(#linear-gradient-10)"/>
      <g id="Grupo_58522" data-name="Grupo 58522" transform="translate(261.362 109.223)">
        <g id="Grupo_58520" data-name="Grupo 58520" transform="translate(8.101)">
          <path id="Trazado_130044" data-name="Trazado 130044" d="M168.42,73.95h2.653V66.68h-2.017Z" transform="translate(-167.306 -61.869)" fill="#5a4153"/>
          <path id="Trazado_130045" data-name="Trazado 130045" d="M167.79,69.567H173.4l-2.812-5.607Z" transform="translate(-167.79 -63.96)" fill="#5a4153"/>
        </g>
        <g id="Grupo_58521" data-name="Grupo 58521">
          <path id="Trazado_130046" data-name="Trazado 130046" d="M163.84,73.95h2.653V66.68h-2Z" transform="translate(-162.726 -61.869)" fill="#5a4153"/>
          <path id="Trazado_130047" data-name="Trazado 130047" d="M163.21,69.567h5.607L166,63.96Z" transform="translate(-163.21 -63.96)" fill="#5a4153"/>
        </g>
      </g>
      <g id="Grupo_58523" data-name="Grupo 58523" transform="translate(247.176 110.355)">
        <path id="Trazado_130048" data-name="Trazado 130048" d="M155.19,64.6H162.5s0,5.537-3.662,5.7S155.19,64.6,155.19,64.6Z" transform="translate(-155.19 -64.6)" fill="#5a4153"/>
        <path id="Trazado_130049" data-name="Trazado 130049" d="M157.639,67.4l.672,4.245L155.87,73.1h5.024l-1.981-1.45v-3.5Z" transform="translate(-154.667 -62.447)" fill="#5a4153"/>
      </g>
      <path id="Trazado_130050" data-name="Trazado 130050" d="M128.27,72.551l2.282-30.071h6.527l-2.795,31.7Z" transform="translate(71.288 28.748)" fill="#8f3455" fill-rule="evenodd" opacity="0.56"/>
      <path id="Trazado_130051" data-name="Trazado 130051" d="M97.406,74.178l-3.237-31.7L87.66,43.948l4.387,30.23Z" transform="translate(40.065 28.748)" fill="#8f3455" fill-rule="evenodd" opacity="0.56"/>
      <path id="Trazado_130052" data-name="Trazado 130052" d="M99.93,48.405l39.729-.955-.513,1.733-39.216.955Z" transform="translate(49.499 32.569)" fill="#c1748d" fill-rule="evenodd" opacity="0.5"/>
      <path id="Trazado_130053" data-name="Trazado 130053" d="M99.93,51.29h39.216l-.778,9.216H100.991Z" transform="translate(49.499 35.521)" fill="#c1748d" fill-rule="evenodd" opacity="0.5"/>
      <g id="Grupo_58524" data-name="Grupo 58524" transform="translate(58.139 59.588)" opacity="0.5">
        <path id="Trazado_130054" data-name="Trazado 130054" d="M48.337,46.474c.354,1.769,1.291,2.83,3.538,2.388a2.423,2.423,0,0,0,1.946-2.936,3.1,3.1,0,0,0-3.272-2.512A2.812,2.812,0,0,0,48.337,46.474Z" transform="translate(-48.32 -30.13)" fill="#e3d9d2" fill-rule="evenodd"/>
        <path id="Trazado_130055" data-name="Trazado 130055" d="M56.771,59.443a4.316,4.316,0,0,1,4.139-3.432,6.492,6.492,0,0,1,4.245,1.1,3.166,3.166,0,0,1,1.663,3.821,6.756,6.756,0,0,1-1.274,2c-.672.531-2.034.177-2.795,0a4.776,4.776,0,0,1-2.866-1.61C58.946,60.611,56.7,61.318,56.771,59.443Z" transform="translate(-41.824 -20.458)" fill="#e3d9d2" fill-rule="evenodd"/>
        <path id="Trazado_130056" data-name="Trazado 130056" d="M50.1,50.005c1.185-2.07,3.343.3,1.946,1.486a1.344,1.344,0,0,1-2.176-1.026Z" transform="translate(-47.129 -25.684)" fill="#e3d9d2" fill-rule="evenodd"/>
        <path id="Trazado_130057" data-name="Trazado 130057" d="M51.879,45.431c.778-1.4,2.229.195,1.291.973a.884.884,0,0,1-1.45-.672Z" transform="translate(-45.706 -28.998)" fill="#e3d9d2" fill-rule="evenodd"/>
        <path id="Trazado_130058" data-name="Trazado 130058" d="M169.318,46.88c-1.875,2.529,1.557,5.5,2.919,2.441.725-1.645-.672-3.644-2.264-2.441Z" transform="translate(44.289 -27.741)" fill="#e3d9d2" fill-rule="evenodd"/>
        <path id="Trazado_130059" data-name="Trazado 130059" d="M172.678,51.432c-.248-.478-.478-.354-.743,0s-.159.619.159,1.026c.708.867,1.327.849,2.282.23s2.052-1.769.672-2.529a2.423,2.423,0,0,0-2.211.584Z" transform="translate(46.606 -24.988)" fill="#e3d9d2" fill-rule="evenodd"/>
        <path id="Trazado_130060" data-name="Trazado 130060" d="M170.584,51.6c-.142-1.238,1.769.371.9,1.044s-1.132-.619-.9-1.114Z" transform="translate(45.623 -24.18)" fill="#e3d9d2" fill-rule="evenodd"/>
        <path id="Trazado_130061" data-name="Trazado 130061" d="M172.7,49.457c.513.831,1.574-.336,1.2-.884s-1.114.407-1.291.725Z" transform="translate(47.241 -26.285)" fill="#e3d9d2" fill-rule="evenodd"/>
        <path id="Trazado_130062" data-name="Trazado 130062" d="M161.968,57.52c.3-1.026,1.574,0,1.769.584a1.946,1.946,0,0,1-1.557,2.211c-1.5.142-1.91-2.193-.566-2.724Z" transform="translate(38.16 -19.613)" fill="#e3d9d2" fill-rule="evenodd"/>
        <path id="Trazado_130063" data-name="Trazado 130063" d="M169.47,58.725c-.884,1.309,2.14,1.592,2.1.106,0-1.167-1.769-1.167-2.1-.177Z" transform="translate(44.702 -18.961)" fill="#e3d9d2" fill-rule="evenodd"/>
        <path id="Trazado_130064" data-name="Trazado 130064" d="M162.572,44.81a1.221,1.221,0,0,1,1.15-1.857c1.238.177,1.256,1.893.849,2.724a1.362,1.362,0,1,1-2.406-1.185Z" transform="translate(39.006 -30.482)" fill="#e3d9d2" fill-rule="evenodd"/>
        <path id="Trazado_130065" data-name="Trazado 130065" d="M172.557,42.574c-1.079,2.565,3.1,1.663,3.325-.389C176.166,39.69,172.858,40.345,172.557,42.574Z" transform="translate(47.063 -32.297)" fill="#e3d9d2" fill-rule="evenodd"/>
        <path id="Trazado_130066" data-name="Trazado 130066" d="M115.3,68.349c-2.724-1.592-5.307,2.158-2.1,3.184,1.769.548,3.538-1.079,2.176-2.529Z" transform="translate(0.419 -11.25)" fill="#e3d9d2" fill-rule="evenodd"/>
        <path id="Trazado_130067" data-name="Trazado 130067" d="M110.681,72.194c.46-.3.3-.513,0-.743s-.637,0-1.008.265c-.8.8-.69,1.4,0,2.282s2.07,1.857,2.583.389a2.335,2.335,0,0,0-.814-2.1Z" transform="translate(-1.578 -8.639)" fill="#e3d9d2" fill-rule="evenodd"/>
        <path id="Trazado_130068" data-name="Trazado 130068" d="M109.751,70.182c1.22-.283-.177,1.769-.937,1.008s.5-1.185,1.026-1.026Z" transform="translate(-1.993 -9.581)" fill="#e3d9d2" fill-rule="evenodd"/>
        <path id="Trazado_130069" data-name="Trazado 130069" d="M111.993,72.046c-.761.6.513,1.539,1.008,1.1s-.531-1.061-.849-1.2Z" transform="translate(0.453 -8.19)" fill="#e3d9d2" fill-rule="evenodd"/>
        <path id="Trazado_130070" data-name="Trazado 130070" d="M103.579,62.236c1.061.195.248,1.557-.389,1.769A1.963,1.963,0,0,1,100.8,62.7c-.3-1.468,1.981-2.123,2.653-.867Z" transform="translate(-7.99 -16.476)" fill="#e3d9d2" fill-rule="evenodd"/>
        <path id="Trazado_130071" data-name="Trazado 130071" d="M102.621,69.831c-1.4-.743-1.344,2.3.124,2.1,1.167-.142.973-1.875,0-2.123Z" transform="translate(-7.35 -9.902)" fill="#e3d9d2" fill-rule="evenodd"/>
        <path id="Trazado_130072" data-name="Trazado 130072" d="M116.447,61.381a1.221,1.221,0,0,1,1.981.937c0,1.238-1.769,1.45-2.618,1.132a1.344,1.344,0,1,1,.92-2.512Z" transform="translate(2.791 -16.753)" fill="#e3d9d2" fill-rule="evenodd"/>
        <path id="Trazado_130073" data-name="Trazado 130073" d="M119.72,71.043c-2.653-.778-1.309,3.272.778,3.272C122.993,74.351,121.985,71.132,119.72,71.043Z" transform="translate(5.443 -8.956)" fill="#e3d9d2" fill-rule="evenodd"/>
        <path id="Trazado_130074" data-name="Trazado 130074" d="M62.478,55.342c-1.769,2.335,2.759,3.538,3.131.531a2.37,2.37,0,0,0-3.608-.3Z" transform="translate(-37.803 -21.31)" fill="#e3d9d2" fill-rule="evenodd"/>
        <path id="Trazado_130075" data-name="Trazado 130075" d="M49,73.29c3.768-4.811,11.038-6.7,16.22-3.166,1.362.92,3.29,2.6,1.68,4.121s-8.154,0-10.029,0A18.945,18.945,0,0,1,49,73.29Z" transform="translate(-47.798 -10.991)" fill="#e3d9d2" fill-rule="evenodd"/>
        <path id="Trazado_130076" data-name="Trazado 130076" d="M62.66,69.323c.3,2.158,4.1,1.415,3.538-.371-.371-1.185-2.459-1.486-2.83-.354Z" transform="translate(-37.295 -11.305)" fill="#e3d9d2" fill-rule="evenodd"/>
        <path id="Trazado_130077" data-name="Trazado 130077" d="M69,70.662c.637-3.432,4.369,1.769.761,1.415a2.264,2.264,0,0,0-.283-.672Z" transform="translate(-32.421 -10.078)" fill="#e3d9d2" fill-rule="evenodd"/>
        <path id="Trazado_130078" data-name="Trazado 130078" d="M64.024,59.093c-.5,2.317,2.459,1.769,2.441,0,0-1.557-2.017-2.087-2.441-.478Z" transform="translate(-36.289 -19.187)" fill="#e3d9d2" fill-rule="evenodd"/>
        <path id="Trazado_130079" data-name="Trazado 130079" d="M175.367,36.643a1.663,1.663,0,0,1,.955-.743c1.521,2.016-1.769,3.379-.955.991Z" transform="translate(49.26 -35.9)" fill="#e3d9d2" fill-rule="evenodd"/>
        <path id="Trazado_130080" data-name="Trazado 130080" d="M67.056,54.7c-5.307,4.493,6.156,3.149.973.637Z" transform="translate(-35.022 -21.445)" fill="#e3d9d2" fill-rule="evenodd"/>
        <path id="Trazado_130081" data-name="Trazado 130081" d="M53.882,61.54c-1.327,1.344-.814,4.139,1.539,3.131,1.769-.778,1.38-3.909-.814-2.883Z" transform="translate(-44.596 -16.187)" fill="#e3d9d2" fill-rule="evenodd"/>
        <path id="Trazado_130082" data-name="Trazado 130082" d="M59.63,66.157c.425-1.486,2.3-1.5,2.211,0s-1.327,1.114-1.769.248Z" transform="translate(-39.625 -13.498)" fill="#e3d9d2" fill-rule="evenodd"/>
        <path id="Trazado_130083" data-name="Trazado 130083" d="M75.19,58.479A3.538,3.538,0,0,0,76.5,57.205c-.867-.761-.92-.177-1.309.548Z" transform="translate(-27.661 -19.794)" fill="#e3d9d2" fill-rule="evenodd"/>
      </g>
      <g id="Grupo_58526" data-name="Grupo 58526" transform="translate(48.02 56.688)">
        <path id="Trazado_130084" data-name="Trazado 130084" d="M44.316,50.852,42.6,34.26l33.767.973.248,16.044Z" transform="translate(-42.6 -34.26)" fill="#ffffce" fill-rule="evenodd" opacity="0.5"/>
        <g id="Grupo_58525" data-name="Grupo 58525" transform="translate(2.812 1.946)" opacity="0.5">
          <path id="Trazado_130085" data-name="Trazado 130085" d="M72.987,49.475l-27.364-.354L44.19,35.36H72.775ZM46.33,48.22l25.825.336-.177-12.382H45.092Z" transform="translate(-44.19 -35.36)" fill="#c1748d"/>
        </g>
        <path id="Trazado_130086" data-name="Trazado 130086" d="M46.91,36.7H64.581l.212,2.07H47.122Z" transform="translate(-39.286 -32.384)" fill="#c1748d" fill-rule="evenodd" opacity="0.5"/>
        <path id="Trazado_130087" data-name="Trazado 130087" d="M47.14,38.93H64.811l.106,1.044H47.246Z" transform="translate(-39.109 -30.669)" fill="#c1748d" fill-rule="evenodd" opacity="0.5"/>
      </g>
      <path id="Trazado_130088" data-name="Trazado 130088" d="M55.07,30.6l50.872,2.441,45.442-1.822Z" transform="translate(15.008 19.614)" fill="#ffae6f" fill-rule="evenodd"/>
    </g>
  </g>
</svg>
