<svg xmlns="http://www.w3.org/2000/svg" width="315.87" height="332.689" viewBox="0 0 315.87 332.689">
  <g id="img17" transform="translate(-73.76 -61.811)">
    <path id="Trazado_143370" data-name="Trazado 143370" d="M105.61,119.06a1.72,1.72,0,0,1-1.25-2.9,164.729,164.729,0,0,1,13.85-13.09,1.721,1.721,0,0,1,2.22,2.63,162.8,162.8,0,0,0-13.57,12.82,1.71,1.71,0,0,1-1.25.54Zm28.81-24.24A1.74,1.74,0,0,1,133,94a1.72,1.72,0,0,1,.49-2.38,165.859,165.859,0,0,1,16.47-9.59,1.72,1.72,0,0,1,1.55,3.07,165.1,165.1,0,0,0-16.12,9.39A1.74,1.74,0,0,1,134.42,94.82Zm33.57-17a1.73,1.73,0,0,1-.6-3.34,165.111,165.111,0,0,1,18.23-5.55,1.72,1.72,0,1,1,.81,3.34,160.263,160.263,0,0,0-17.84,5.44,1.81,1.81,0,0,1-.59.07Zm36.58-8.87a1.72,1.72,0,0,1-.21-3.43,165.459,165.459,0,0,1,19-1.21h0a1.72,1.72,0,0,1,0,3.44,163,163,0,0,0-18.62,1.19Z" fill="#003887"/>
    <path id="Trazado_143371" data-name="Trazado 143371" d="M224.73,394.5h-.95a1.72,1.72,0,0,1,0-3.44h.95a160.815,160.815,0,0,0,17.7-1,1.721,1.721,0,0,1,.38,3.42,165.136,165.136,0,0,1-18.08,1.02ZM205,393.32h-.21A166.244,166.244,0,0,1,186,390a1.722,1.722,0,1,1,.8-3.35,163.839,163.839,0,0,0,18.37,3.29,1.72,1.72,0,0,1-.2,3.43Zm-36.63-8.76a1.7,1.7,0,0,1-.59-.1,165.139,165.139,0,0,1-17.49-7.58,1.72,1.72,0,1,1,1.55-3.07,160.171,160.171,0,0,0,17.12,7.41,1.72,1.72,0,0,1-.59,3.34ZM134.7,367.62a1.68,1.68,0,0,1-.95-.29,166.744,166.744,0,0,1-15.27-11.39,1.72,1.72,0,1,1,2.21-2.63,163.56,163.56,0,0,0,15,11.15,1.72,1.72,0,0,1-1,3.16Z" fill="#003887"/>
    <path id="Trazado_143372" data-name="Trazado 143372" d="M372.11,301.34a1.78,1.78,0,0,1-.74-.17,1.73,1.73,0,0,1-.82-2.29,160.9,160.9,0,0,0,7-17.29,1.722,1.722,0,0,1,3.26,1.11,164.717,164.717,0,0,1-7.18,17.65A1.72,1.72,0,0,1,372.11,301.34Zm12.13-35.65a1.55,1.55,0,0,1-.37,0,1.72,1.72,0,0,1-1.32-2A164.478,164.478,0,0,0,385.34,246l.09-.87a1.72,1.72,0,0,1,3.42.34l-.08.88a171.478,171.478,0,0,1-2.85,17.95,1.73,1.73,0,0,1-1.68,1.39Zm3.67-37.48a1.72,1.72,0,0,1-1.72-1.69,160.622,160.622,0,0,0-1.38-18.6,1.72,1.72,0,0,1,3.41-.46,165.325,165.325,0,0,1,1.41,19,1.71,1.71,0,0,1-1.69,1.75Zm-5-37.31a1.73,1.73,0,0,1-1.67-1.3,161.068,161.068,0,0,0-5.63-17.79,1.723,1.723,0,1,1,3.22-1.23,165.813,165.813,0,0,1,5.75,18.17,1.72,1.72,0,0,1-1.24,2.09,1.651,1.651,0,0,1-.4.06Zm-13.43-35.18a1.7,1.7,0,0,1-1.52-.93,163.234,163.234,0,0,0-9.57-16,1.721,1.721,0,1,1,2.85-1.93A167,167,0,0,1,371,153.2a1.73,1.73,0,0,1-.73,2.33,1.77,1.77,0,0,1-.76.19Z" fill="#003887"/>
    <rect id="Rectángulo_37680" data-name="Rectángulo 37680" width="105.49" height="201.81" transform="translate(81.32 134.93)" fill="#fff"/>
    <rect id="Rectángulo_37681" data-name="Rectángulo 37681" width="11.67" height="201.81" transform="translate(75.48 134.93)" fill="#7ab1ff"/>
    <path id="Trazado_143373" data-name="Trazado 143373" d="M87.16,338.45H75.48a1.72,1.72,0,0,1-1.72-1.72V134.93a1.72,1.72,0,0,1,1.72-1.72H87.16a1.72,1.72,0,0,1,1.72,1.72v201.8a1.72,1.72,0,0,1-1.72,1.72Zm-10-3.44h8.23V136.65H77.21Z" fill="#003887"/>
    <rect id="Rectángulo_37682" data-name="Rectángulo 37682" width="11.67" height="201.81" transform="translate(178.09 134.93)" fill="#7ab1ff"/>
    <path id="Trazado_143374" data-name="Trazado 143374" d="M189.77,338.45H178.09a1.72,1.72,0,0,1-1.72-1.72V134.93a1.72,1.72,0,0,1,1.72-1.72h11.68a1.72,1.72,0,0,1,1.72,1.72v201.8a1.72,1.72,0,0,1-1.72,1.72Zm-10-3.44H188V136.65h-8.23Z" fill="#003887"/>
    <path id="Trazado_143375" data-name="Trazado 143375" d="M178.09,329.74H87.16a1.72,1.72,0,1,1,0-3.44h90.93a1.72,1.72,0,1,1,0,3.44Z" fill="#003887"/>
    <path id="Trazado_143376" data-name="Trazado 143376" d="M178.09,296H87.16a1.72,1.72,0,1,1,0-3.44h90.93a1.72,1.72,0,1,1,0,3.44Z" fill="#003887"/>
    <path id="Trazado_143377" data-name="Trazado 143377" d="M178.09,262.29H87.16a1.72,1.72,0,1,1,0-3.44h90.93a1.72,1.72,0,1,1,0,3.44Z" fill="#003887"/>
    <rect id="Rectángulo_37683" data-name="Rectángulo 37683" width="24.86" height="25.37" transform="translate(128.61 268.8)" fill="#fff"/>
    <path id="Trazado_143378" data-name="Trazado 143378" d="M153.47,295.89H128.61a1.72,1.72,0,0,1-1.72-1.72V268.8a1.72,1.72,0,0,1,1.72-1.72h24.86a1.72,1.72,0,0,1,1.72,1.72v25.37a1.72,1.72,0,0,1-1.72,1.72Zm-23.14-3.44h21.42V270.52H130.33Z" fill="#003887"/>
    <path id="Trazado_143379" data-name="Trazado 143379" d="M147.73,290.12a1.7,1.7,0,0,1-1.23-.52L127.38,270a1.72,1.72,0,0,1,2.46-2.4L149,287.2a1.71,1.71,0,0,1-1.23,2.92Z" fill="#003887"/>
    <path id="Trazado_143380" data-name="Trazado 143380" d="M128.51,295a1.71,1.71,0,0,1-1.23-2.92l8.28-8.45A1.72,1.72,0,1,1,138,286l-8.28,8.45a1.74,1.74,0,0,1-1.21.55Z" fill="#003887"/>
    <path id="Trazado_143381" data-name="Trazado 143381" d="M144,279.11a1.7,1.7,0,0,1-1.2-.49,1.73,1.73,0,0,1,0-2.44l8.43-8.59a1.72,1.72,0,1,1,2.45,2.41l-8.42,8.59A1.68,1.68,0,0,1,144,279.11Z" fill="#003887"/>
    <rect id="Rectángulo_37684" data-name="Rectángulo 37684" width="41.35" height="17.89" transform="translate(87.16 276.41)" fill="#fe7062"/>
    <path id="Trazado_143382" data-name="Trazado 143382" d="M128.51,296H87.16a1.72,1.72,0,0,1-1.72-1.72V276.41a1.72,1.72,0,0,1,1.72-1.72h41.35a1.72,1.72,0,0,1,1.72,1.72V294.3a1.72,1.72,0,0,1-1.72,1.7Zm-39.63-3.44h37.91V278.13H88.88Z" fill="#003887"/>
    <rect id="Rectángulo_37685" data-name="Rectángulo 37685" width="19.17" height="27.28" transform="translate(87.16 300.74)" fill="#fe7062"/>
    <path id="Trazado_143383" data-name="Trazado 143383" d="M106.33,329.74H87.16A1.72,1.72,0,0,1,85.44,328V300.74A1.72,1.72,0,0,1,87.16,299h19.17a1.72,1.72,0,0,1,1.72,1.72V328a1.72,1.72,0,0,1-1.72,1.74ZM88.88,326.3h15.73V302.46H88.88Z" fill="#003887"/>
    <rect id="Rectángulo_37686" data-name="Rectángulo 37686" width="20.94" height="21.37" transform="translate(106.47 306.65)" fill="#fff"/>
    <path id="Trazado_143384" data-name="Trazado 143384" d="M127.4,329.74H106.47a1.72,1.72,0,0,1-1.72-1.72V306.65a1.72,1.72,0,0,1,1.72-1.72H127.4a1.72,1.72,0,0,1,1.73,1.72V328a1.72,1.72,0,0,1-1.73,1.74Zm-19.21-3.44h17.49V308.37H108.19Z" fill="#003887"/>
    <path id="Trazado_143385" data-name="Trazado 143385" d="M122.57,324.88a1.71,1.71,0,0,1-1.23-.52l-16.11-16.51a1.722,1.722,0,1,1,2.47-2.4L123.81,322a1.72,1.72,0,0,1-1.24,2.92Z" fill="#003887"/>
    <path id="Trazado_143386" data-name="Trazado 143386" d="M106.38,329a1.72,1.72,0,0,1-1.23-2.93l7-7.11a1.72,1.72,0,1,1,2.46,2.4l-7,7.12A1.68,1.68,0,0,1,106.38,329Z" fill="#003887"/>
    <path id="Trazado_143387" data-name="Trazado 143387" d="M119.47,315.6a1.71,1.71,0,0,1-1.23-2.92l7.09-7.24a1.722,1.722,0,1,1,2.46,2.41l-7.09,7.24A1.74,1.74,0,0,1,119.47,315.6Z" fill="#003887"/>
    <path id="Trazado_143388" data-name="Trazado 143388" d="M178.09,228.57H87.16a1.72,1.72,0,0,1,0-3.44h90.93a1.72,1.72,0,1,1,0,3.44Z" fill="#003887"/>
    <path id="Trazado_143389" data-name="Trazado 143389" d="M178.09,194.85H87.16a1.72,1.72,0,1,1,0-3.44h90.93a1.72,1.72,0,1,1,0,3.44Z" fill="#003887"/>
    <path id="Trazado_143390" data-name="Trazado 143390" d="M178.09,161.13H87.16a1.73,1.73,0,0,1,0-3.45h90.93a1.73,1.73,0,1,1,0,3.45Z" fill="#003887"/>
    <rect id="Rectángulo_37687" data-name="Rectángulo 37687" width="19.17" height="27.28" transform="translate(127.41 300.74)" fill="#fe7062"/>
    <path id="Trazado_143391" data-name="Trazado 143391" d="M146.58,329.74H127.4a1.72,1.72,0,0,1-1.72-1.72V300.74A1.72,1.72,0,0,1,127.4,299h19.18a1.72,1.72,0,0,1,1.72,1.72V328a1.72,1.72,0,0,1-1.72,1.74Zm-17.45-3.44h15.73V302.46H129.13Z" fill="#003887"/>
    <rect id="Rectángulo_37688" data-name="Rectángulo 37688" width="14.52" height="19.55" transform="translate(146.58 308.48)" fill="#fe7062"/>
    <path id="Trazado_143392" data-name="Trazado 143392" d="M161.1,329.74H146.58a1.72,1.72,0,0,1-1.72-1.72V308.47a1.72,1.72,0,0,1,1.72-1.72H161.1a1.72,1.72,0,0,1,1.72,1.72V328a1.72,1.72,0,0,1-1.72,1.74Zm-12.8-3.44h11.08V310.19H148.3Z" fill="#003887"/>
    <rect id="Rectángulo_37689" data-name="Rectángulo 37689" width="16.99" height="27.28" transform="translate(161.1 300.74)" fill="#fe7062"/>
    <path id="Trazado_143393" data-name="Trazado 143393" d="M178.09,329.74h-17a1.72,1.72,0,0,1-1.72-1.72V300.74A1.72,1.72,0,0,1,161.1,299h17a1.73,1.73,0,0,1,1.73,1.72V328a1.73,1.73,0,0,1-1.74,1.74Zm-15.27-3.44h13.55V302.46H162.82Z" fill="#003887"/>
    <rect id="Rectángulo_37690" data-name="Rectángulo 37690" width="26.62" height="25.02" transform="translate(87.16 235.35)" fill="#fe7062"/>
    <path id="Trazado_143394" data-name="Trazado 143394" d="M113.78,262.09H87.16a1.72,1.72,0,0,1-1.72-1.72v-25a1.72,1.72,0,0,1,1.72-1.72h26.62a1.72,1.72,0,0,1,1.72,1.72v25A1.72,1.72,0,0,1,113.78,262.09Zm-24.9-3.44h23.18V237.07H88.88Z" fill="#003887"/>
    <rect id="Rectángulo_37691" data-name="Rectángulo 37691" width="25.51" height="26.36" transform="translate(113.88 234.01)" fill="#fff"/>
    <path id="Trazado_143395" data-name="Trazado 143395" d="M139.39,262.09H113.88a1.72,1.72,0,0,1-1.72-1.72V234a1.72,1.72,0,0,1,1.72-1.72h25.51a1.72,1.72,0,0,1,1.72,1.72v26.36a1.72,1.72,0,0,1-1.72,1.73Zm-23.79-3.44h22.07V235.74H115.6Z" fill="#003887"/>
    <path id="Trazado_143396" data-name="Trazado 143396" d="M133.5,256.1a1.73,1.73,0,0,1-1.24-.53l-19.62-20.36a1.722,1.722,0,0,1,2.48-2.39l19.62,20.36a1.72,1.72,0,0,1-.05,2.44,1.7,1.7,0,0,1-1.19.48Z" fill="#003887"/>
    <path id="Trazado_143397" data-name="Trazado 143397" d="M113.78,261.12a1.71,1.71,0,0,1-1.24-2.91l8.5-8.78a1.72,1.72,0,0,1,2.47,2.39L115,260.6a1.68,1.68,0,0,1-1.22.52Z" fill="#003887"/>
    <path id="Trazado_143398" data-name="Trazado 143398" d="M129.72,244.65a1.71,1.71,0,0,1-1.24-2.91l8.64-8.93a1.72,1.72,0,0,1,2.43,0,1.7,1.7,0,0,1,0,2.43L131,244.13A1.68,1.68,0,0,1,129.72,244.65Z" fill="#003887"/>
    <rect id="Rectángulo_37692" data-name="Rectángulo 37692" width="17.85" height="19.46" transform="translate(139.37 240.91)" fill="#fe7062"/>
    <path id="Trazado_143399" data-name="Trazado 143399" d="M157.22,262.09H139.37a1.72,1.72,0,0,1-1.72-1.72V240.91a1.72,1.72,0,0,1,1.72-1.72h17.85a1.72,1.72,0,0,1,1.72,1.72v19.46A1.72,1.72,0,0,1,157.22,262.09Zm-16.13-3.44h14.4v-16h-14.4Z" fill="#003887"/>
    <rect id="Rectángulo_37693" data-name="Rectángulo 37693" width="20.88" height="27.16" transform="translate(157.22 233.21)" fill="#fe7062"/>
    <path id="Trazado_143400" data-name="Trazado 143400" d="M178.09,262.09H157.22a1.72,1.72,0,0,1-1.73-1.72V233.21a1.72,1.72,0,0,1,1.73-1.72h20.87a1.73,1.73,0,0,1,1.73,1.72v27.16A1.73,1.73,0,0,1,178.09,262.09Zm-19.15-3.44h17.43V234.93H158.94Z" fill="#003887"/>
    <path id="Trazado_143401" data-name="Trazado 143401" d="M274.8,85.86v66.32h66.92V85.86Z" fill="#57dbd8"/>
    <path id="Trazado_143402" data-name="Trazado 143402" d="M341.72,153.9H274.8a1.73,1.73,0,0,1-1.73-1.72V85.87a1.73,1.73,0,0,1,1.73-1.73h66.92a1.73,1.73,0,0,1,1.73,1.73v66.31A1.73,1.73,0,0,1,341.72,153.9Zm-65.2-3.44H340V87.59H276.52Z" fill="#003887"/>
    <rect id="Rectángulo_37694" data-name="Rectángulo 37694" width="67.69" height="67.69" transform="translate(287.15 144.35)" fill="#fff"/>
    <path id="Trazado_143403" data-name="Trazado 143403" d="M354.85,213.76h-67.7a1.72,1.72,0,0,1-1.72-1.72V144.35a1.72,1.72,0,0,1,1.72-1.72h67.7a1.72,1.72,0,0,1,1.72,1.72V212a1.72,1.72,0,0,1-1.72,1.76Zm-66-3.44h64.26V146.07H288.87Z" fill="#003887"/>
    <path id="Trazado_143404" data-name="Trazado 143404" d="M287.38,144.35,345,202.22Z" fill="#fff"/>
    <path id="Trazado_143405" data-name="Trazado 143405" d="M345,203.94a1.72,1.72,0,0,1-1.22-.5l-57.65-57.88a1.72,1.72,0,0,1,2.44-2.42L346.25,201a1.72,1.72,0,0,1,0,2.43,1.69,1.69,0,0,1-1.25.51Z" fill="#003887"/>
    <path id="Trazado_143406" data-name="Trazado 143406" d="M312.21,185.65l-25.06,25.06Z" fill="#fff"/>
    <path id="Trazado_143407" data-name="Trazado 143407" d="M287.15,212.43a1.72,1.72,0,0,1-1.21-2.94L311,184.44a1.722,1.722,0,0,1,2.44,2.43l-25.06,25.06a1.75,1.75,0,0,1-1.23.5Z" fill="#003887"/>
    <path id="Trazado_143408" data-name="Trazado 143408" d="M353.51,144.35,327.66,170.2Z" fill="#fff"/>
    <path id="Trazado_143409" data-name="Trazado 143409" d="M327.66,171.92a1.71,1.71,0,0,1-1.21-.5,1.73,1.73,0,0,1,0-2.44l25.85-25.85a1.722,1.722,0,0,1,2.43,2.44l-25.85,25.85a1.75,1.75,0,0,1-1.22.5Z" fill="#003887"/>
    <path id="Trazado_143410" data-name="Trazado 143410" d="M238.4,63.57v75.96h35.9V63.57Z" fill="#57dbd8"/>
    <path id="Trazado_143411" data-name="Trazado 143411" d="M274.3,141.25H238.4a1.72,1.72,0,0,1-1.72-1.72v-76a1.72,1.72,0,0,1,1.72-1.72h35.9a1.72,1.72,0,0,1,1.7,1.76v76A1.72,1.72,0,0,1,274.3,141.25Zm-34.18-3.44h32.46V65.29H240.12Z" fill="#003887"/>
    <rect id="Rectángulo_37695" data-name="Rectángulo 37695" width="66.98" height="106.51" transform="translate(220.17 105.54)" fill="#fff"/>
    <path id="Trazado_143412" data-name="Trazado 143412" d="M287.15,213.76h-67a1.72,1.72,0,0,1-1.72-1.72V105.54a1.72,1.72,0,0,1,1.72-1.72h67a1.72,1.72,0,0,1,1.72,1.72V212a1.72,1.72,0,0,1-1.72,1.76Zm-65.25-3.44h63.53V107.26H221.9Z" fill="#003887"/>
    <path id="Trazado_143413" data-name="Trazado 143413" d="M257.28,116.73v9c0,4.19,4.07,7.58,9.1,7.58s9.1-3.39,9.1-7.58v-9Z" fill="#fff"/>
    <path id="Trazado_143414" data-name="Trazado 143414" d="M266.38,135c-6,0-10.82-4.17-10.82-9.3v-9a1.72,1.72,0,0,1,1.72-1.72h18.2a1.72,1.72,0,0,1,1.72,1.72v9C277.2,130.82,272.35,135,266.38,135ZM259,118.45v7.24c0,3.23,3.31,5.86,7.38,5.86s7.38-2.63,7.38-5.86v-7.24Z" fill="#003887"/>
    <path id="Trazado_143415" data-name="Trazado 143415" d="M266.38,148.78a1.72,1.72,0,0,1-1.72-1.72V134.93a1.72,1.72,0,1,1,3.44,0v12.13A1.72,1.72,0,0,1,266.38,148.78Z" fill="#003887"/>
    <path id="Trazado_143416" data-name="Trazado 143416" d="M272.45,148.78H260.31a1.72,1.72,0,0,1,0-3.44h12.14a1.72,1.72,0,0,1,0,3.44Z" fill="#003887"/>
    <rect id="Rectángulo_37696" data-name="Rectángulo 37696" width="27.01" height="126.66" transform="translate(228.6 249.97)" fill="#fff"/>
    <rect id="Rectángulo_37697" data-name="Rectángulo 37697" width="26.9" height="22.26" transform="translate(228.6 298.17)" fill="#fe7062"/>
    <path id="Trazado_143417" data-name="Trazado 143417" d="M255.5,322.16H228.6a1.72,1.72,0,0,1-1.72-1.73V298.17a1.72,1.72,0,0,1,1.72-1.72h26.9a1.72,1.72,0,0,1,1.72,1.72v22.26a1.72,1.72,0,0,1-1.72,1.73Zm-25.18-3.45h23.46V299.89H230.32Z" fill="#003887"/>
    <path id="Trazado_143418" data-name="Trazado 143418" d="M228.6,378.35a1.72,1.72,0,0,1-1.72-1.72V250a1.72,1.72,0,1,1,3.44,0V376.63A1.72,1.72,0,0,1,228.6,378.35Z" fill="#003887"/>
    <path id="Trazado_143419" data-name="Trazado 143419" d="M255.61,378.35a1.72,1.72,0,0,1-1.72-1.72V250a1.72,1.72,0,1,1,3.44,0V376.63a1.72,1.72,0,0,1-1.72,1.72Z" fill="#003887"/>
    <path id="Trazado_143420" data-name="Trazado 143420" d="M255.55,367.11a1.73,1.73,0,0,1-1.52-.91l-26.89-50.08a1.76,1.76,0,0,1,0-1.61l10.33-19.81,6.72-13.15,9.7-19.56a1.72,1.72,0,0,1,3.08,1.52l-9.7,19.59-6.74,13.18-9.91,19,26.46,49.27a1.72,1.72,0,0,1-.71,2.33,1.69,1.69,0,0,1-.82.23Z" fill="#003887"/>
    <path id="Trazado_143421" data-name="Trazado 143421" d="M228.66,367.11a1.691,1.691,0,0,1-.81-.21,1.72,1.72,0,0,1-.71-2.33L253.6,315.3l-9.9-19L237,283.12l-9.72-19.61a1.722,1.722,0,1,1,3.09-1.52l9.7,19.58,6.72,13.15,10.32,19.79a1.73,1.73,0,0,1,0,1.61L230.18,366.2a1.73,1.73,0,0,1-1.52.91Z" fill="#003887"/>
    <path id="Trazado_143422" data-name="Trazado 143422" d="M255.5,367.11H228.71a1.72,1.72,0,1,1,0-3.44H255.5a1.72,1.72,0,1,1,0,3.44Z" fill="#003887"/>
    <path id="Trazado_143423" data-name="Trazado 143423" d="M255.5,322.16H228.71a1.73,1.73,0,0,1,0-3.45H255.5a1.73,1.73,0,0,1,0,3.45Z" fill="#003887"/>
    <path id="Trazado_143424" data-name="Trazado 143424" d="M255.5,277.2H228.71a1.72,1.72,0,0,1,0-3.44H255.5a1.72,1.72,0,1,1,0,3.44Z" fill="#003887"/>
    <rect id="Rectángulo_37698" data-name="Rectángulo 37698" width="27.01" height="126.66" transform="translate(281.69 249.97)" fill="#fff"/>
    <rect id="Rectángulo_37699" data-name="Rectángulo 37699" width="26.9" height="22.26" transform="translate(281.74 343.12)" fill="#fe7062"/>
    <path id="Trazado_143425" data-name="Trazado 143425" d="M308.64,367.11h-26.9a1.72,1.72,0,0,1-1.72-1.72V343.12a1.72,1.72,0,0,1,1.72-1.72h26.9a1.73,1.73,0,0,1,1.73,1.72v22.27a1.73,1.73,0,0,1-1.73,1.72Zm-25.17-3.44h23.45V344.84H283.47Z" fill="#003887"/>
    <path id="Trazado_143426" data-name="Trazado 143426" d="M281.69,378.35a1.72,1.72,0,0,1-1.72-1.72V250a1.72,1.72,0,1,1,3.44,0V376.63A1.72,1.72,0,0,1,281.69,378.35Z" fill="#003887"/>
    <path id="Trazado_143427" data-name="Trazado 143427" d="M308.7,378.35a1.72,1.72,0,0,1-1.72-1.72V250a1.72,1.72,0,1,1,3.44,0V376.63A1.72,1.72,0,0,1,308.7,378.35Z" fill="#003887"/>
    <path id="Trazado_143428" data-name="Trazado 143428" d="M308.64,367.11a1.73,1.73,0,0,1-1.52-.91l-26.89-50.08a1.73,1.73,0,0,1,0-1.61l10.33-19.81,6.72-13.15L307,262a1.722,1.722,0,0,1,3.09,1.52l-9.71,19.59-6.73,13.18-9.91,19,26.45,49.27a1.73,1.73,0,0,1-1.51,2.54Z" fill="#003887"/>
    <path id="Trazado_143429" data-name="Trazado 143429" d="M281.75,367.11a1.691,1.691,0,0,1-.81-.21,1.72,1.72,0,0,1-.71-2.33l26.46-49.27-9.9-19-6.74-13.17-9.71-19.61a1.72,1.72,0,0,1,3.08-1.52l9.71,19.58,6.72,13.15,10.31,19.79a1.7,1.7,0,0,1,0,1.61L283.27,366.2a1.73,1.73,0,0,1-1.52.91Z" fill="#003887"/>
    <path id="Trazado_143430" data-name="Trazado 143430" d="M308.59,367.11H281.8a1.72,1.72,0,0,1,0-3.44h26.79a1.72,1.72,0,0,1,0,3.44Z" fill="#003887"/>
    <path id="Trazado_143431" data-name="Trazado 143431" d="M308.59,322.16H281.8a1.73,1.73,0,0,1,0-3.45h26.79a1.73,1.73,0,0,1,0,3.45Z" fill="#003887"/>
    <path id="Trazado_143432" data-name="Trazado 143432" d="M308.59,277.2H281.8a1.72,1.72,0,0,1,0-3.44h26.79a1.72,1.72,0,1,1,0,3.44Z" fill="#003887"/>
    <rect id="Rectángulo_37700" data-name="Rectángulo 37700" width="27.01" height="126.66" transform="translate(334.78 249.97)" fill="#fff"/>
    <path id="Trazado_143433" data-name="Trazado 143433" d="M334.78,378.35a1.72,1.72,0,0,1-1.72-1.72V250a1.72,1.72,0,1,1,3.44,0V376.63A1.72,1.72,0,0,1,334.78,378.35Z" fill="#003887"/>
    <path id="Trazado_143434" data-name="Trazado 143434" d="M361.79,378.35a1.72,1.72,0,0,1-1.72-1.72V250a1.72,1.72,0,1,1,3.44,0V376.63A1.72,1.72,0,0,1,361.79,378.35Z" fill="#003887"/>
    <path id="Trazado_143435" data-name="Trazado 143435" d="M361.73,367.11a1.73,1.73,0,0,1-1.52-.91l-26.89-50.08a1.73,1.73,0,0,1,0-1.61l10.33-19.81,6.72-13.15L360.05,262a1.722,1.722,0,0,1,3.09,1.52l-9.71,19.59-6.73,13.18-9.91,19,26.45,49.27a1.73,1.73,0,0,1-1.51,2.54Z" fill="#003887"/>
    <path id="Trazado_143436" data-name="Trazado 143436" d="M334.84,367.11a1.66,1.66,0,0,1-.81-.21,1.72,1.72,0,0,1-.71-2.33l26.46-49.27-9.9-19-6.74-13.17-9.71-19.61a1.72,1.72,0,0,1,3.08-1.52l9.71,19.58,6.71,13.15,10.32,19.79a1.7,1.7,0,0,1,0,1.61L336.36,366.2a1.74,1.74,0,0,1-1.52.91Z" fill="#003887"/>
    <path id="Trazado_143437" data-name="Trazado 143437" d="M361.68,367.11H334.89a1.72,1.72,0,0,1,0-3.44h26.79a1.72,1.72,0,1,1,0,3.44Z" fill="#003887"/>
    <path id="Trazado_143438" data-name="Trazado 143438" d="M361.68,322.16H334.89a1.73,1.73,0,0,1,0-3.45h26.79a1.73,1.73,0,0,1,0,3.45Z" fill="#003887"/>
    <path id="Trazado_143439" data-name="Trazado 143439" d="M361.68,277.2H334.89a1.72,1.72,0,0,1,0-3.44h26.79a1.72,1.72,0,1,1,0,3.44Z" fill="#003887"/>
  </g>
</svg>
