<svg xmlns="http://www.w3.org/2000/svg" width="393.978" height="266.693" viewBox="0 0 393.978 266.693">
  <g id="img16" transform="translate(-597 -7055.103)">
    <g id="Image_Place_Holder" data-name="Image Place Holder" transform="translate(597 7055.103)">
      <rect id="Image_Place_Holder-2" data-name="Image Place Holder" width="393.978" height="266.693" rx="10" fill="#f2f6fe"/>
    </g>
    <g id="empaques-02" transform="translate(643.49 6958.237)">
      <path id="Trazado_130496" data-name="Trazado 130496" d="M217.855,331.585l-88.18,10.8L128.01,174.843l88.18-10.793Z" transform="translate(-9.346 -3.803)" fill="#d6c753"/>
      <path id="Trazado_130497" data-name="Trazado 130497" d="M94.175,333.125l26.154,9.666-1.665-167.542L92.51,165.59Z" transform="translate(0 -4.208)" fill="#bfb03d"/>
      <path id="Trazado_130498" data-name="Trazado 130498" d="M101.571,279.708,116,285.042l-.914-92.5-14.44-5.334Z" transform="translate(-2.143 -9.9)" fill="#97922a"/>
      <path id="Trazado_130499" data-name="Trazado 130499" d="M116.523,338.059l.317,32.254-14.425-5.341-.324-32.232Z" transform="translate(-2.522 -48.212)" fill="#e6e6e6"/>
      <path id="Trazado_130500" data-name="Trazado 130500" d="M92.51,161.994l26.154,9.659,88.18-10.793-29.971-8.929Z" transform="translate(0 -0.612)" fill="#ebdc6b"/>
      <path id="Trazado_130501" data-name="Trazado 130501" d="M192.044,157.116H191.9l-11.316-2.475.059,6.248c0,2.019,5.157,3.6,11.4,3.544s11.346-1.753,11.331-3.772l-.066-6.24Z" transform="translate(-23.185 -1.267)" fill="#ccc"/>
      <path id="Trazado_130502" data-name="Trazado 130502" d="M203.3,153.153c0,2.019-5.047,3.684-11.324,3.772s-11.375-1.532-11.4-3.551,5.054-3.684,11.324-3.765S203.286,151.134,203.3,153.153Z" transform="translate(-23.185)" fill="#fff"/>
      <path id="Trazado_130503" data-name="Trazado 130503" d="M163.024,173.54l1.223,123.338-20.091,1.967L142.94,176Z" transform="translate(-13.276 -6.301)" fill="#f8f7f3"/>
      <g id="Grupo_58697" data-name="Grupo 58697" transform="translate(131.026 169.796)">
        <path id="Trazado_130504" data-name="Trazado 130504" d="M204.432,282.606a9.349,9.349,0,0,1-4.1-.9,11.655,11.655,0,0,1-5.6-15.471.737.737,0,0,1,1.024-.376.781.781,0,0,1,.368,1.024,10.108,10.108,0,0,0,4.862,13.46,7.957,7.957,0,0,0,10.6-3.846,6.181,6.181,0,0,0-2.947-8.244,4.811,4.811,0,0,0-6.395,2.306,3.684,3.684,0,0,0,1.776,4.914,2.807,2.807,0,0,0,3.728-1.348,2.085,2.085,0,0,0-1-2.77,1.474,1.474,0,0,0-2.011.737.771.771,0,0,1-1.4-.648,3.065,3.065,0,0,1,4.059-1.473,3.625,3.625,0,0,1,1.739,4.826,4.325,4.325,0,0,1-5.761,2.078,5.216,5.216,0,0,1-2.512-6.947,6.233,6.233,0,0,1,3.507-3.249,6.306,6.306,0,0,1,4.855.221,7.728,7.728,0,0,1,3.684,10.314A9.482,9.482,0,0,1,204.432,282.606Z" transform="translate(-157.648 -200.379)" fill="#97922a"/>
        <path id="Trazado_130505" data-name="Trazado 130505" d="M192.192,296.192a5.842,5.842,0,0,1-5.658-4.207,4.818,4.818,0,0,1,3.3-5.953,4.008,4.008,0,0,1,4.951,2.741,3.352,3.352,0,0,1-2.3,4.155.767.767,0,0,1-.427-1.473A1.812,1.812,0,0,0,193.3,289.2a2.461,2.461,0,0,0-3.043-1.68,3.19,3.19,0,0,0-1.96,1.518,3.234,3.234,0,0,0-.287,2.49,4.3,4.3,0,0,0,5.3,2.947,5.562,5.562,0,0,0,3.8-6.866,7.227,7.227,0,0,0-1.532-2.785.737.737,0,0,1,.059-1.083.781.781,0,0,1,1.09.059,8.642,8.642,0,0,1,1.864,3.389,7.1,7.1,0,0,1-4.855,8.76,5.959,5.959,0,0,1-1.547.243Z" transform="translate(-155.73 -205.057)" fill="#97922a"/>
        <g id="Grupo_58694" data-name="Grupo 58694" transform="translate(12.429 0)">
          <path id="Trazado_130506" data-name="Trazado 130506" d="M202.9,191.8l2.947,1.783-2.21,2.306,10.977,11.316-4.037,2.159L215,219.616l-5.194-1.724,5.592,12.075-1.356-.538-10.992-4.42,2,5.157-10.476-3.89-1.938,4.148-11.884-10.314-2.21,2.3-1.945-2.844-6.277,9.195-2.778-14.337-5.857,3.61a25.139,25.139,0,0,0,1.643-12.23c-.663-7.463,12.893-12.93,12.893-12.93l.125-.361c.8-2.159,5.312-13.438,12.09-13.2a25.223,25.223,0,0,0,12.134-2.3l-3.3,6.041,14.47,2.011Z" transform="translate(-161.665 -177.01)" fill="#97922a"/>
          <path id="Trazado_130507" data-name="Trazado 130507" d="M176.343,198l37.677,36.94-10.992-4.42,2,5.157-10.476-3.89-1.938,4.148L180.727,225.62l-2.21,2.3-1.945-2.844-6.277,9.195-2.778-14.337-5.857,3.61a25.139,25.139,0,0,0,1.643-12.23c-.663-7.463,12.893-12.93,12.893-12.93Z" transform="translate(-161.66 -182.536)" fill="#8f871c"/>
        </g>
        <path id="Trazado_130508" data-name="Trazado 130508" d="M182.86,219.41a1.473,1.473,0,0,1-1.473,1.525h0a1.51,1.51,0,0,1-1.518-1.473l-.2-20.054a1.473,1.473,0,0,1,1.473-1.518h0a1.473,1.473,0,0,1,1.525,1.473Z" transform="translate(-153.972 -182.507)" fill="#8d5c3e"/>
        <g id="Grupo_58696" data-name="Grupo 58696" transform="translate(0 25.358)">
          <path id="Trazado_130509" data-name="Trazado 130509" d="M174.688,222.567c.059,6.049-3.89,11-8.841,11.051s-8.988-4.818-9.047-10.867,3.9-11,8.841-11.051S174.629,216.511,174.688,222.567Z" transform="translate(-147.951 -211.5)" fill="#d53d33"/>
          <path id="Trazado_130510" data-name="Trazado 130510" d="M200.508,222.3c.059,6.056-3.89,11-8.841,11.051s-8.988-4.818-9.047-10.874,3.9-10.992,8.841-11.051S200.449,216.27,200.508,222.3Z" transform="translate(-154.748 -211.429)" fill="#d53d33"/>
          <path id="Trazado_130511" data-name="Trazado 130511" d="M162.685,235.724c.059,6.056-3.9,11-8.841,11.051s-9-4.818-9.055-10.874,3.9-10.992,8.841-11.051S162.626,229.675,162.685,235.724Z" transform="translate(-144.789 -214.962)" fill="#b51f18"/>
          <path id="Trazado_130512" data-name="Trazado 130512" d="M188.505,235.477c.059,6.049-3.9,11-8.841,11.051s-8.988-4.818-9.055-10.867,3.9-11,8.841-11.051S188.439,229.428,188.505,235.477Z" transform="translate(-151.586 -214.899)" fill="#b51f18"/>
          <path id="Trazado_130513" data-name="Trazado 130513" d="M213.958,235.217c.059,6.056-3.9,11-8.841,11.051s-8.981-4.818-9.047-10.867,3.9-11,8.841-11.051S213.9,229.168,213.958,235.217Z" transform="translate(-158.289 -214.831)" fill="#b51f18"/>
          <path id="Trazado_130514" data-name="Trazado 130514" d="M175.008,254.657c.059,6.056-3.9,11-8.841,11.051s-8.988-4.818-9.047-10.867,3.89-11,8.841-11.051S174.942,248.608,175.008,254.657Z" transform="translate(-148.035 -219.948)" fill="#d53d33"/>
          <path id="Trazado_130515" data-name="Trazado 130515" d="M202.018,254.4c.059,6.049-3.9,11-8.841,11.051s-8.988-4.818-9.047-10.867,3.89-11,8.841-11.051S201.959,248.341,202.018,254.4Z" transform="translate(-155.146 -219.88)" fill="#d53d33"/>
          <g id="Grupo_58695" data-name="Grupo 58695" transform="translate(19.17 37.78)">
            <path id="Trazado_130516" data-name="Trazado 130516" d="M188.7,273.577c.059,6.049-3.9,11-8.841,11.051s-8.988-4.818-9.047-10.867,3.9-11,8.841-11.051S188.632,267.521,188.7,273.577Z" transform="translate(-170.809 -262.709)" fill="#f55d51"/>
            <path id="Trazado_130517" data-name="Trazado 130517" d="M188.639,270.1c0,1.967-.818,3.558-1.871,3.573s-1.916-1.569-1.938-3.536.818-3.551,1.871-3.566S188.639,268.139,188.639,270.1Z" transform="translate(-174.5 -263.726)" fill="#fff"/>
          </g>
          <path id="Trazado_130518" data-name="Trazado 130518" d="M174.559,251.039c0,1.96-.818,3.558-1.864,3.566s-1.923-1.569-1.945-3.529.818-3.558,1.871-3.566S174.544,249.079,174.559,251.039Z" transform="translate(-151.623 -220.928)" fill="#fff"/>
          <path id="Trazado_130519" data-name="Trazado 130519" d="M201.161,250.739c0,1.96-.81,3.551-1.864,3.566s-1.916-1.569-1.938-3.529.818-3.558,1.871-3.566S201.147,248.809,201.161,250.739Z" transform="translate(-158.629 -220.849)" fill="#fff"/>
          <path id="Trazado_130520" data-name="Trazado 130520" d="M213.639,233.079c0,1.96-.818,3.558-1.871,3.566s-1.916-1.569-1.938-3.529.818-3.551,1.871-3.566S213.639,231.119,213.639,233.079Z" transform="translate(-161.912 -216.2)" fill="#fff"/>
          <path id="Trazado_130521" data-name="Trazado 130521" d="M187.7,233.339c0,1.96-.81,3.558-1.864,3.566s-1.916-1.569-1.938-3.529.818-3.558,1.864-3.566S187.657,231.379,187.7,233.339Z" transform="translate(-155.085 -216.268)" fill="#fff"/>
          <path id="Trazado_130522" data-name="Trazado 130522" d="M162.122,232.289c0,1.96-.818,3.558-1.864,3.573s-1.923-1.577-1.938-3.536.81-3.558,1.864-3.566S162.107,230.329,162.122,232.289Z" transform="translate(-148.351 -215.992)" fill="#fff"/>
          <path id="Trazado_130523" data-name="Trazado 130523" d="M172.841,218.609c0,1.96-.818,3.558-1.864,3.573s-1.916-1.577-1.938-3.536.818-3.551,1.864-3.566S172.819,216.649,172.841,218.609Z" transform="translate(-151.173 -212.39)" fill="#fff"/>
          <path id="Trazado_130524" data-name="Trazado 130524" d="M199.7,218.349c0,1.96-.825,3.551-1.871,3.566s-1.916-1.569-1.938-3.529.818-3.558,1.871-3.566S199.655,216.426,199.7,218.349Z" transform="translate(-158.242 -212.322)" fill="#fff"/>
        </g>
      </g>
      <rect id="Rect치ngulo_32901" data-name="Rect치ngulo 32901" width="71.228" height="4.833" transform="translate(130.674 299.438) rotate(-6.62)" fill="#f8f7f3"/>
      <rect id="Rect치ngulo_32902" data-name="Rect치ngulo 32902" width="71.228" height="9.666" transform="translate(130.492 306.629) rotate(-6.62)" fill="#8f871c"/>
      <g id="Grupo_58698" data-name="Grupo 58698" transform="translate(169.676 227.703)">
        <path id="Trazado_130525" data-name="Trazado 130525" d="M225.246,335.011c0,.943-6.248,2.461-14,3.374s-14,.9-14-.059,6.255-2.475,14-3.382S225.239,334.076,225.246,335.011Z" transform="translate(-197.25 -276.322)" fill="#ceebe9"/>
        <path id="Trazado_130526" data-name="Trazado 130526" d="M216.817,325.163a1.208,1.208,0,0,1-1.054,1.179h0a.921.921,0,0,1-1.068-.928l-.295-29.138a1.208,1.208,0,0,1,1.054-1.179h0a.936.936,0,0,1,1.068.943Z" transform="translate(-201.765 -266.003)" fill="#ceebe9"/>
        <path id="Trazado_130527" data-name="Trazado 130527" d="M223.74,264.922c0,.737,0,1.473-.059,2.21h0c-.6,10.263-5.894,18.794-12.48,19.524a8.1,8.1,0,0,1-2.21-.059,10.6,10.6,0,0,1-6.756-4.774,24.5,24.5,0,0,1-3.883-11.928h-.081l-.111-11.663,25.41-2.623.066,7.087C223.7,263.419,223.732,264.156,223.74,264.922Z" transform="translate(-197.49 -255.61)" fill="#dff5f4"/>
        <path id="Trazado_130528" data-name="Trazado 130528" d="M220.144,263.264c0,.737,0,1.429-.059,2.129h0c-.575,9.74-5.614,17.822-11.832,18.5a7.522,7.522,0,0,1-2.078-.059,8.428,8.428,0,0,1-3.942-1.842,24.5,24.5,0,0,1-3.883-11.965h-.081l-.111-11.663L220,256.11l.052,5.047A16.452,16.452,0,0,1,220.144,263.264Z" transform="translate(-197.49 -255.742)" fill="#ceebe9"/>
        <path id="Trazado_130529" data-name="Trazado 130529" d="M222.213,268.421c0,.611,0,1.216-.052,1.812h0c-.486,8.3-4.789,15.206-10.1,15.781a6.16,6.16,0,0,1-1.768-.044,8.556,8.556,0,0,1-5.467-3.861,19.73,19.73,0,0,1-3.146-9.7h-.066l-.074-7.6,20.548-2.151v3.927A13.957,13.957,0,0,1,222.213,268.421Z" transform="translate(-198.379 -257.466)" fill="#b51f18"/>
        <path id="Trazado_130530" data-name="Trazado 130530" d="M221.029,265.028c0,.737,0,1.429-.059,2.129h0c-.575,9.74-5.614,17.822-11.832,18.5h-.125a9.3,9.3,0,0,1-4.207-3.514,19.73,19.73,0,0,1-3.146-9.7h-.066l-.074-7.6,19.406-2.033v.14A13.531,13.531,0,0,1,221.029,265.028Z" transform="translate(-198.374 -257.505)" fill="#f55d51"/>
        <path id="Trazado_130531" data-name="Trazado 130531" d="M228.1,268.9a1.12,1.12,0,0,1-.987,1.105h0a.9.9,0,0,1-1.017-.891l-.066-7.073a1.105,1.105,0,0,1,.987-1.1h0a.877.877,0,0,1,1.009.884Z" transform="translate(-204.827 -257.012)" fill="#fff"/>
        <path id="Trazado_130532" data-name="Trazado 130532" d="M223.512,336.507a.619.619,0,0,1-.538.611l-4.192.494a.479.479,0,0,1-.553-.479h0a.619.619,0,0,1,.545-.6l4.185-.5a.479.479,0,0,1,.553.479Z" transform="translate(-202.773 -276.779)" fill="#fff"/>
      </g>
    </g>
  </g>
</svg>
