<svg xmlns="http://www.w3.org/2000/svg" width="708" height="345" viewBox="0 0 708 345">
  <g id="img1" transform="translate(-700 -3317)">
    <rect id="Rectángulo_30529" data-name="Rectángulo 30529" width="708" height="345" rx="18" transform="translate(700 3317)" fill="#f2f6fe"/>
    <g id="maquinaria-01" transform="translate(887.04 3357.83)">
      <g id="Grupo_60777" data-name="Grupo 60777" transform="translate(0 51.731)">
        <g id="Grupo_60768" data-name="Grupo 60768" transform="translate(12.586 46.01)">
          <path id="Trazado_138808" data-name="Trazado 138808" d="M22.175,55.43,18.5,53.28l.069,35.4,3.71,2.15Z" transform="translate(-1.719 -32.269)" fill="#2b2b2b"/>
          <path id="Trazado_138809" data-name="Trazado 138809" d="M22.2,54.61l-3.71-2.15.035,2.843,3.675,2.15Z" transform="translate(-1.743 -34.292)" fill="#babbbb"/>
          <path id="Trazado_138810" data-name="Trazado 138810" d="M22.19,50.6l-3.71-2.15.035,13.9,3.71,2.15Z" transform="translate(-1.768 -44.185)" fill="#2b2b2b"/>
          <path id="Trazado_138811" data-name="Trazado 138811" d="M32.316,54.61l-3.71-2.15L14.39,60.192l3.675,2.15Z" transform="translate(-11.859 -34.292)" fill="#2b2b2b"/>
          <path id="Trazado_138812" data-name="Trazado 138812" d="M18.065,56.84,14.39,54.69v2.843l3.71,2.15Z" transform="translate(-11.859 -28.79)" fill="#babbbb"/>
          <path id="Trazado_138813" data-name="Trazado 138813" d="M15.45,60.812l.035,2.843L29.7,55.923V53.08Z" transform="translate(-9.244 -32.762)" fill="#231f20"/>
          <path id="Trazado_138814" data-name="Trazado 138814" d="M17.335,52.385,13.66,50.27l.139,54.99,3.71,2.15Z" transform="translate(-13.66 -39.695)" fill="#414042"/>
          <path id="Trazado_138815" data-name="Trazado 138815" d="M14.72,58.405l.173,55.025,2.462-1.422-.069-35.4-.035-2.843-.035-13.938,14.25-7.7.035,13.9v2.843l.1,35.4,2.462-1.422L33.929,47.83Z" transform="translate(-11.045 -45.715)" fill="#231f20"/>
          <path id="Trazado_138816" data-name="Trazado 138816" d="M36.544,49.335l-3.71-2.115L13.66,57.8l3.675,2.115Z" transform="translate(-13.66 -47.22)" fill="#414042"/>
        </g>
        <g id="Grupo_60776" data-name="Grupo 60776">
          <g id="Grupo_60769" data-name="Grupo 60769">
            <path id="Trazado_138817" data-name="Trazado 138817" d="M29.759,103.47,10.169,92.063,10.03,38.39,29.62,49.763Z" transform="translate(-10.03 -22.996)" fill="#e6e7e8"/>
            <path id="Trazado_138818" data-name="Trazado 138818" d="M29.62,60.717,10.03,49.344,36.658,33.95l19.59,11.407Z" transform="translate(-10.03 -33.95)" fill="#f1f2f2"/>
            <path id="Trazado_138819" data-name="Trazado 138819" d="M42.308,37.24l.173,53.673L15.819,106.307,15.68,52.6Z" transform="translate(3.91 -25.833)" fill="#d5d7e3"/>
          </g>
          <g id="Grupo_60775" data-name="Grupo 60775" transform="translate(1.268 27.911)">
            <g id="Grupo_60771" data-name="Grupo 60771">
              <g id="Grupo_60770" data-name="Grupo 60770" transform="translate(2.095)">
                <path id="Trazado_138820" data-name="Trazado 138820" d="M21.144,50.044V49.7h0v-.347a.52.52,0,0,1,0-.243h0v-.485h0a.832.832,0,0,0,0-.277h0v-.52h0v-.208h0v-.243a.866.866,0,0,0,0-.243h0v-.451h0v-.52h0l-.312-.416h0l-.208-.312-.208-.208h0l-.173-.243-.208-.208h0l-.208-.173h0l-.208-.208h-.208L16.6,42H13.274L11.54,43.006H13.9l.485.208h0l.485.243.485.312h0l.416.312h0l.416.347h0l.416.416h0l.381.451h0l.381.52h0l.347.485a1.422,1.422,0,0,1,.173.312,1.214,1.214,0,0,1,.173.277h0a1.872,1.872,0,0,1,.243.451h0l.277.555h0a.559.559,0,0,0,.243.555h0l.208.589h0a4.3,4.3,0,0,1,0,.555h0v.555h0V50.7h0v1.075h0v.485h0a.936.936,0,0,1,0,.416h0v.347h0a1.075,1.075,0,0,1,0,.347,1.387,1.387,0,0,1-.347.416h0L18.3,54.1l1.734-1.04a.936.936,0,0,0,.416-.312h0l.347-.416h0v-.347h0a.485.485,0,0,0,0-.208h0a.832.832,0,0,1,0-.277v-.451h0v-.52h0Z" transform="translate(-9.668 -42)" fill="#262626"/>
                <path id="Trazado_138821" data-name="Trazado 138821" d="M15.889,42.717a10.818,10.818,0,0,1,4.854,8.425c0,3.086-2.219,4.334-4.889,2.774A10.575,10.575,0,0,1,11,45.526C11,42.405,13.184,41.192,15.889,42.717Z" transform="translate(-11 -41.85)" fill="#2b2b2b"/>
              </g>
              <path id="Trazado_138822" data-name="Trazado 138822" d="M20.951,50.764a4.577,4.577,0,0,1-.277,1.63h0a6.206,6.206,0,0,1-2.115,1.56,5.894,5.894,0,0,1-8.148-5.86A6.31,6.31,0,0,1,12.63,43.24a5.617,5.617,0,0,1,1.352-.867,3.71,3.71,0,0,1,2.5.555,9.882,9.882,0,0,1,4.473,7.836Z" transform="translate(-10.396 -41.16)" fill="#fe5236"/>
            </g>
            <g id="Grupo_60772" data-name="Grupo 60772" transform="translate(4.141 17.021)">
              <path id="Trazado_138823" data-name="Trazado 138823" d="M17.1,50.779v-.312h0v-.312h0v-.312h0V49.6h0v-.277h0v-.277h0v-.173h0a1.492,1.492,0,0,0,0-.243H15.371L11.8,47h2.046l.208.173h.208l.208.208h0l.208.243h0l.208.243h0a1.214,1.214,0,0,1,0,.277h0v.243h0V48.7h0v.312h0v.312h0l1.075,1.144h0v.277h0v.312h0v.555h0v.243h0v.208h0v.173h0l-.208.243h-.208l.936-.555.208-.173h0l.173-.208h0v-.208h0v-.243h0v-.243h0Z" transform="translate(-11.072 -46.684)" fill="#262626"/>
              <path id="Trazado_138824" data-name="Trazado 138824" d="M14.156,47.225a5.548,5.548,0,0,1,2.531,4.4c0,1.63-1.144,2.288-2.566,1.491a5.756,5.756,0,0,1-2.531-4.438A1.589,1.589,0,0,1,14.156,47.225Z" transform="translate(-11.59 -46.909)" fill="#2b2b2b"/>
            </g>
            <g id="Grupo_60773" data-name="Grupo 60773" transform="translate(4.522 26.272)">
              <path id="Trazado_138825" data-name="Trazado 138825" d="M15.34,51.772h0v-.243h0v-.243h0v-.312h0v-.208h0v-.173h0a1.491,1.491,0,0,1,0-.243H13.606l-.936.52h2.046a.624.624,0,0,1,.243.173h0l.208.208h0l.208.243h0l.208.243h0l.208.277h0l.173.243h0a.867.867,0,0,1,0,.243h0v.277h0v.277h0a.9.9,0,0,1,0,.277h0a.659.659,0,0,0,0,.277h0v.312h0v.312h0V52.6h0a.52.52,0,0,0,0,.243h0a.451.451,0,0,1,0,.208h0v.173h0l-.173.208h-.208l.9-.52.208-.173h0V52.5h0v-.208h0V51.91h0Z" transform="translate(-9.307 -47.671)" fill="#262626"/>
              <path id="Trazado_138826" data-name="Trazado 138826" d="M14.266,49.934A5.617,5.617,0,0,1,16.8,54.51c0,1.63-1.144,2.288-2.566,1.456a5.513,5.513,0,0,1-2.531-4.4C11.7,49.76,12.74,49.1,14.266,49.934Z" transform="translate(-11.7 -49.577)" fill="#2b2b2b"/>
            </g>
            <g id="Grupo_60774" data-name="Grupo 60774" transform="translate(4.522 35.547)">
              <path id="Trazado_138827" data-name="Trazado 138827" d="M15.34,54.822h0v-.277h0V53.99h0v-.243h0V53.3h0v-.173h0a1.492,1.492,0,0,0,0-.243H13.606l-.936.52h2.046l.243.173h.208l.208.208h0l.208.243h0l.208.243h0l.173.243h0a1.234,1.234,0,1,1-2.15-1.214h0a1.248,1.248,0,0,0,0,.312h0v.312h0a1.109,1.109,0,0,1,0,.312h0a1.075,1.075,0,0,0,0,.277h0v.277h0v.277h0v.589h0a.693.693,0,0,0,0,.243h0a.451.451,0,0,1,0,.208h0a.485.485,0,0,0,0,.208h0a.624.624,0,0,1,0,.451h0v.347l.9-.555h.208v-.208h0V56.1h0v-.243h0Z" transform="translate(-9.307 -50.703)" fill="#262626"/>
              <path id="Trazado_138828" data-name="Trazado 138828" d="M14.266,52.591A5.756,5.756,0,0,1,16.8,57.029c0,1.595-1.144,2.254-2.566,1.456A5.652,5.652,0,0,1,11.7,54.048C11.7,52.453,12.74,51.794,14.266,52.591Z" transform="translate(-11.7 -52.252)" fill="#2b2b2b"/>
            </g>
          </g>
        </g>
      </g>
      <g id="Grupo_60782" data-name="Grupo 60782" transform="translate(18.792 40.948)">
        <g id="Grupo_60778" data-name="Grupo 60778" transform="translate(0 138.55)">
          <path id="Trazado_138829" data-name="Trazado 138829" d="M16.5,81.269l4.715-2.739L21.075,123.6l-4.715,2.739Z" transform="translate(-13.205 -51.728)" fill="#d5d7e3"/>
          <path id="Trazado_138830" data-name="Trazado 138830" d="M16.4,80.219l4.715-2.739v3.641L16.4,83.86Z" transform="translate(-13.106 -54.319)" fill="#babbbb"/>
          <path id="Trazado_138831" data-name="Trazado 138831" d="M16.469,75.109,21.15,72.37l-.035,17.718L16.4,92.827Z" transform="translate(-13.106 -66.926)" fill="#d5d7e3"/>
          <path id="Trazado_138832" data-name="Trazado 138832" d="M16.4,80.219l4.715-2.739,51.038,29.471-4.681,2.739Z" transform="translate(-13.106 -54.319)" fill="#d5d7e3"/>
          <path id="Trazado_138833" data-name="Trazado 138833" d="M31.155,88.719l4.681-2.739v3.641L31.12,92.36Z" transform="translate(23.212 -33.347)" fill="#babbbb"/>
          <path id="Trazado_138834" data-name="Trazado 138834" d="M67.472,107.741l-.035,3.641L16.4,81.911V78.27Z" transform="translate(-13.106 -52.37)" fill="#f8fbff"/>
          <path id="Trazado_138835" data-name="Trazado 138835" d="M32.173,83.089l4.715-2.739-.208,70.073L32,153.127Z" transform="translate(25.383 -47.238)" fill="#d5d7e3"/>
          <path id="Trazado_138836" data-name="Trazado 138836" d="M73.006,104.7l-.173,70.038-3.155-1.8.1-45.074.035-3.641.035-17.718L18.813,77.034l-.069,17.718v3.641l-.139,45.074-3.155-1.838.208-70.038Z" transform="translate(-15.45 -68.851)" fill="#f8fbff"/>
          <path id="Trazado_138837" data-name="Trazado 138837" d="M15.51,73.539,20.225,70.8l57.348,33.112-4.715,2.739Z" transform="translate(-15.302 -70.8)" fill="#d0d1d1"/>
        </g>
        <g id="Grupo_60779" data-name="Grupo 60779" transform="translate(80.371 92.367)">
          <path id="Trazado_138838" data-name="Trazado 138838" d="M39.679,67.949l4.715-2.739-.139,45.074-4.715,2.739Z" transform="translate(-36.385 -38.408)" fill="#d5d7e3"/>
          <path id="Trazado_138839" data-name="Trazado 138839" d="M39.58,66.9,44.3,64.16V67.8L39.58,70.54Z" transform="translate(-36.286 -40.999)" fill="#babbbb"/>
          <path id="Trazado_138840" data-name="Trazado 138840" d="M39.649,61.789,44.33,59.05,44.3,76.768,39.58,79.507Z" transform="translate(-36.286 -53.606)" fill="#babbbb"/>
          <path id="Trazado_138841" data-name="Trazado 138841" d="M39.58,66.9,44.3,64.16,95.333,93.631l-4.715,2.739Z" transform="translate(-36.286 -40.999)" fill="#d5d7e3"/>
          <path id="Trazado_138842" data-name="Trazado 138842" d="M54.3,75.4l4.715-2.739V76.3L54.3,79.04Z" transform="translate(0.032 -20.027)" fill="#babbbb"/>
          <path id="Trazado_138843" data-name="Trazado 138843" d="M90.618,94.421v3.641L39.58,68.591V64.95Z" transform="translate(-36.286 -39.05)" fill="#f8fbff"/>
          <path id="Trazado_138844" data-name="Trazado 138844" d="M55.378,69.769l4.715-2.739L59.885,137.1l-4.715,2.7Z" transform="translate(2.178 -33.918)" fill="#d5d7e3"/>
          <path id="Trazado_138845" data-name="Trazado 138845" d="M96.186,91.382l-.208,70.038-3.155-1.8.139-45.074V110.9l.069-17.718L41.993,63.714l-.069,17.718v3.641l-.139,45.074-3.155-1.838.208-70.038Z" transform="translate(-38.63 -55.531)" fill="#f8fbff"/>
          <path id="Trazado_138846" data-name="Trazado 138846" d="M38.69,60.219l4.715-2.739,57.348,33.112-4.715,2.739Z" transform="translate(-38.482 -57.48)" fill="#d0d1d1"/>
        </g>
        <g id="Grupo_60780" data-name="Grupo 60780" transform="translate(160.741 46.183)">
          <path id="Trazado_138847" data-name="Trazado 138847" d="M62.859,54.629l4.681-2.739-.1,45.074L62.72,99.7Z" transform="translate(-59.565 -25.088)" fill="#d5d7e3"/>
          <path id="Trazado_138848" data-name="Trazado 138848" d="M62.76,53.579l4.715-2.739-.035,3.641L62.76,57.22Z" transform="translate(-59.466 -27.679)" fill="#babbbb"/>
          <path id="Trazado_138849" data-name="Trazado 138849" d="M62.795,48.469,67.51,45.73l-.035,17.718L62.76,66.187Z" transform="translate(-59.466 -40.286)" fill="#babbbb"/>
          <path id="Trazado_138850" data-name="Trazado 138850" d="M62.76,53.579l4.715-2.739,51.038,29.471L113.8,83.051Z" transform="translate(-59.466 -27.679)" fill="#d5d7e3"/>
          <path id="Trazado_138851" data-name="Trazado 138851" d="M77.48,62.079,82.2,59.34l-.035,3.641-4.681,2.7Z" transform="translate(-23.148 -6.707)" fill="#babbbb"/>
          <path id="Trazado_138852" data-name="Trazado 138852" d="M113.8,81.1v3.606L62.76,55.271V51.63Z" transform="translate(-59.466 -25.73)" fill="#f8fbff"/>
          <path id="Trazado_138853" data-name="Trazado 138853" d="M78.558,56.449l4.715-2.739-.208,70.073-4.715,2.7Z" transform="translate(-21.002 -20.598)" fill="#d5d7e3"/>
          <path id="Trazado_138854" data-name="Trazado 138854" d="M119.366,78.062l-.208,70.038L116,146.3l.139-45.109V97.583l.069-17.718L65.139,50.394,65.1,68.111v3.641l-.139,45.074-3.155-1.838.208-70.038Z" transform="translate(-61.81 -42.211)" fill="#f8fbff"/>
          <path id="Trazado_138855" data-name="Trazado 138855" d="M61.87,46.9l4.681-2.739,57.383,33.112-4.715,2.739Z" transform="translate(-61.662 -44.16)" fill="#d0d1d1"/>
        </g>
        <g id="Grupo_60781" data-name="Grupo 60781" transform="translate(241.112)">
          <path id="Trazado_138856" data-name="Trazado 138856" d="M86,41.309l4.715-2.739-.139,45.074L85.9,86.383Z" transform="translate(-82.745 -11.768)" fill="#d5d7e3"/>
          <path id="Trazado_138857" data-name="Trazado 138857" d="M85.965,40.259l4.681-2.739v3.641L85.93,43.9Z" transform="translate(-82.671 -14.359)" fill="#babbbb"/>
          <path id="Trazado_138858" data-name="Trazado 138858" d="M85.975,35.149,90.69,32.41l-.069,17.718L85.94,52.867Z" transform="translate(-82.646 -26.966)" fill="#babbbb"/>
          <path id="Trazado_138859" data-name="Trazado 138859" d="M85.94,40.259l4.681-2.739,51.072,29.471-4.715,2.739Z" transform="translate(-82.646 -14.359)" fill="#d5d7e3"/>
          <path id="Trazado_138860" data-name="Trazado 138860" d="M100.66,48.759l4.715-2.739-.035,3.641-4.681,2.7Z" transform="translate(-46.328 6.613)" fill="#babbbb"/>
          <path id="Trazado_138861" data-name="Trazado 138861" d="M137,67.781v3.606L85.93,41.951l.035-3.641Z" transform="translate(-82.671 -12.41)" fill="#f8fbff"/>
          <path id="Trazado_138862" data-name="Trazado 138862" d="M101.738,43.129l4.681-2.739-.173,70.038-4.715,2.739Z" transform="translate(-44.182 -7.278)" fill="#d5d7e3"/>
          <path id="Trazado_138863" data-name="Trazado 138863" d="M142.546,64.742l-.208,70.038-3.155-1.8.139-45.109V84.263l.035-17.718L88.319,37.074l-.035,17.718-.035,3.641-.1,45.074-3.155-1.838L85.2,31.63Z" transform="translate(-84.99 -28.891)" fill="#f8fbff"/>
          <path id="Trazado_138864" data-name="Trazado 138864" d="M85.05,33.579l4.681-2.739,57.348,33.112L142.4,66.691Z" transform="translate(-84.842 -30.84)" fill="#d0d1d1"/>
        </g>
      </g>
      <g id="Grupo_60783" data-name="Grupo 60783" transform="translate(0.867 26.455)">
        <path id="Trazado_138865" data-name="Trazado 138865" d="M82.433,216.283,10.28,174.364,268.208,26.66l72.119,41.919Z" transform="translate(-10.28 -26.66)" fill="#e6e7e8"/>
        <path id="Trazado_138866" data-name="Trazado 138866" d="M82.433,115.34,10.28,73.421V69.26l72.153,41.919Z" transform="translate(-10.28 78.444)" fill="#d5d7e3"/>
        <path id="Trazado_138867" data-name="Trazado 138867" d="M31.09,186.454,288.984,38.75v4.161L31.09,190.615Z" transform="translate(41.063 3.169)" fill="#d5d7e3"/>
      </g>
      <g id="Grupo_60809" data-name="Grupo 60809" transform="translate(5.599 1.942)">
        <path id="Trazado_138868" data-name="Trazado 138868" d="M333.287,63.879a5.172,5.172,0,0,0,0-.728s0-.347,0-.52V61.036a10.645,10.645,0,0,0-4.334-9.708L275.939,20.4a10.4,10.4,0,0,1,4.334,9.708v3.155l-.208,1.179v.8l-.208.728a1.488,1.488,0,0,1-.277,1.04,2.914,2.914,0,0,1-.173.589,11.723,11.723,0,0,1-.381,1.179v.485c-.208.52-.416,1.075-.659,1.595v.173c-.208.485-.451.971-.659,1.422l-.243.451-.693,1.283v.277l-.936,1.491a2.876,2.876,0,0,1-.277.416l-.728,1.04-.381.555-.659.832c-.208.243-.381.485-.589.693l-1.318.728-.971,1.04-.589.624-.52.451-.8.728-.52.416-.9.693-.451.312-1.387.867L23.628,195.044c-.451.277-.9.485-1.318.693h-.347l-.728.312-1.006.347H15.341a5.373,5.373,0,0,1-.8-.208H14.3l-.971-.451h0l53.222,31.309h0l.728.381H67.9a1.736,1.736,0,0,0,.451,0h4.715l1.526-.381h1.04a9.531,9.531,0,0,0,1.318-.693l242.152-139.8,1.387-.867.277-.8.9-.659.485-.416.832-.728.485-.451.312-.277.312-.347.971-1.04.312-.312.243-.312.589-.693a5.081,5.081,0,0,0,.347-.451,2.631,2.631,0,0,0,.277-.381l.416-.555.451-.312.451-.659.277-.416h0c.277-.416.52-.832.763-1.248h0a1.04,1.04,0,0,1,0-.277l.485-.867.208-.416a6.929,6.929,0,0,0,.416-.832l.485-1.04a.589.589,0,0,1,0-.173h0l.52-1.283V70.5a2.7,2.7,0,0,1,0-.485l.208-.659v-.52a2.913,2.913,0,0,0,0-.589v-1.04a5.526,5.526,0,0,0,0-.728.834.834,0,0,0,0-.277v-.52l.208-1.179S333.287,64.087,333.287,63.879Z" transform="translate(-7.487 -17.592)" fill="#231f20"/>
        <g id="Grupo_60808" data-name="Grupo 60808" transform="translate(19.539 15.186)">
          <g id="Grupo_60787" data-name="Grupo 60787" transform="translate(25.692 124.82)">
            <path id="Trazado_138869" data-name="Trazado 138869" d="M66.115,92.476,28.044,70.32,26.9,67.72,64.97,89.841Z" transform="translate(-19.237 -40.849)" fill="#6d6e71"/>
            <path id="Trazado_138870" data-name="Trazado 138870" d="M75.595,83.571,37.455,61.45a5.582,5.582,0,0,1,2.323,5.062,9.708,9.708,0,0,1,0,1.387v1.768a3.469,3.469,0,0,1,0,.589v.312l-.208.624v.277a9.02,9.02,0,0,1-.347.867h0c0,.243-.243.485-.347.763v.243l-.381.693h0c0,.277-.312.555-.485.8l-.173.243-.381.555-.208.312-.381.451-.312.381-.277.347-.52.555-.277.243a9.676,9.676,0,0,1-1.11.971h-.208c-.381.277-.8.589-1.214.832l-1.006.485h-.277l-.555.208H29.758a1.144,1.144,0,0,1-.485,0H28.267l-1.907.277L64.5,102.814h0l.381.208h3.155l.555-.208h0l.971-.485a9.4,9.4,0,0,0,1.214-.832h.208a9.675,9.675,0,0,0,1.11-.971h.173l.52-.555V99.8l.312-.381.208-.243.173-.208.208-.312h0l.243-.381.173-.243h0l.416-.659h0l.277-.485v-.659l.243-.555h0l.277-.693h0a.832.832,0,0,1,0-.277,3.467,3.467,0,0,0,0-.347s0-.173,0-.277V92.794h0v-.936h0a9.708,9.708,0,0,0,0-1.387,5.582,5.582,0,0,0,.277-6.9Z" transform="translate(-20.57 -56.319)" fill="#767d84"/>
            <path id="Trazado_138871" data-name="Trazado 138871" d="M67.66,84.495,29.59,62.374l3.017-2.254,38.07,22.121Z" transform="translate(-12.601 -59.6)" fill="#e6e7e8"/>
            <g id="Grupo_60784" data-name="Grupo 60784" transform="translate(0.104 21.427)">
              <path id="Trazado_138872" data-name="Trazado 138872" d="M65.425,93.116,27.355,70.995,24.72,67.25,62.79,89.406Z" transform="translate(-24.72 -63.436)" fill="#6d6e71"/>
              <path id="Trazado_138873" data-name="Trazado 138873" d="M62.79,92.12,24.72,69.964l1.872-3.814,38.07,22.121Z" transform="translate(-24.72 -66.15)" fill="#a8a9ac"/>
            </g>
            <path id="Trazado_138874" data-name="Trazado 138874" d="M65.312,84.953c.277-.312.52-.624.832-.936L28.04,62l-.485.555-.312.381-.277.312v.173l-.555.8h0L64.55,86.34c.243-.381.52-.728.8-1.109Z" transform="translate(-20.446 -54.962)" fill="#bec0c2"/>
            <g id="Grupo_60785" data-name="Grupo 60785" transform="translate(7.628)">
              <path id="Trazado_138875" data-name="Trazado 138875" d="M69.116,82.891h0L30.976,60.77H29L67.14,82.718h1.075Z" transform="translate(-21.684 -57.996)" fill="#a0a2a4"/>
              <path id="Trazado_138876" data-name="Trazado 138876" d="M65.305,85.107,27.2,62.987l5.27-3.017,38.07,22.121Z" transform="translate(-26.125 -59.97)" fill="#e6e7e8"/>
              <path id="Trazado_138877" data-name="Trazado 138877" d="M64.96,86.879,26.89,64.758l1.075-3.918L66.07,82.961Z" transform="translate(-26.89 -57.824)" fill="#939598"/>
            </g>
            <g id="Grupo_60786" data-name="Grupo 60786" transform="translate(0 9.292)">
              <path id="Trazado_138878" data-name="Trazado 138878" d="M64.7,90.043V88.725L62.83,87.1,24.69,64.94,26.6,66.6a8.047,8.047,0,0,0,0,1.283v1.248l38.14,22.121C64.7,90.875,64.7,90.459,64.7,90.043Z" transform="translate(-24.69 -57)" fill="#737477"/>
              <path id="Trazado_138879" data-name="Trazado 138879" d="M63.565,86.019,25.46,63.864l3.051-1.214,38.07,22.121Z" transform="translate(-22.79 -62.65)" fill="#f1f2f2"/>
              <path id="Trazado_138880" data-name="Trazado 138880" d="M62.815,91.882,24.71,69.726,27.31,63,65.415,85.156Z" transform="translate(-24.641 -61.786)" fill="#9ea0a2"/>
            </g>
            <path id="Trazado_138881" data-name="Trazado 138881" d="M47.142,90.145a17.336,17.336,0,0,0,7.871-13.626c0-4.993-3.467-6.934-7.905-4.507A17.336,17.336,0,0,0,39.237,85.6c0,5.027,3.467,6.934,7.905,4.542Zm9.292-14.632V76.8l1.907,1.664-2.6,6.726-3.016,1.248a25.7,25.7,0,0,1-1.907,2.358L49.638,92.85,44.4,95.9l-1.144-2.635a5.755,5.755,0,0,1-1.907,0l-3.017,2.254L35.7,91.809l1.872-3.849V85.43L35.7,83.8l2.6-6.934,3.016-1.214a17.719,17.719,0,0,1,1.907-2.358L44.3,69.377l5.27-3.016,1.11,2.6a5.686,5.686,0,0,1,1.907.173L55.6,66.88l2.635,3.71-1.872,3.849C56.4,74.785,56.434,75.2,56.434,75.513Z" transform="translate(2.474 -44.204)" fill="#d5d7e3"/>
          </g>
          <g id="Grupo_60791" data-name="Grupo 60791" transform="translate(0 140.076)">
            <path id="Trazado_138882" data-name="Trazado 138882" d="M58.715,96.876,20.644,74.755,19.5,72.12,57.57,94.241Z" transform="translate(-11.803 -45.249)" fill="#6d6e71"/>
            <path id="Trazado_138883" data-name="Trazado 138883" d="M67.948,87.971,29.808,65.85a5.513,5.513,0,0,1,2.323,5.062,8.877,8.877,0,0,1,0,1.352,1.075,1.075,0,0,1,0,.347v.624a2.044,2.044,0,0,0,0,.451v.381l-.173.589v.312a2.219,2.219,0,0,1-.208.624s0,0,0,.277-.243.555-.347.867h0l-.347.763v.243l-.381.693h0a6.1,6.1,0,0,1-.485.8l-.173.243-.381.555-.208.312-.381.451a2.633,2.633,0,0,1-.277.381l-.312.347-.52.555-.277.243a9.675,9.675,0,0,1-1.872,1.387h-.208c-.381.277-.8.589-1.214.832l-.971.485h-.312l-.555.208H19.545a2.116,2.116,0,0,1-.485-.243L57.2,107.11h0l.381.208h3.051l.555-.208H61.4l.971-.485a9.393,9.393,0,0,0,1.214-.832h.208a9.671,9.671,0,0,0,1.11-.971h0l.52-.555h0l.312-.381v-.451l.208-.312h0l.243-.381.173-.243h0a6.932,6.932,0,0,0,.381-.693h0s.173-.312.243-.485v-.659a3.848,3.848,0,0,0,.243-.555h0l.277-.693h0a.832.832,0,0,0,0-.277,1.04,1.04,0,0,0,0-.347V98.2a.486.486,0,0,0,0-.208v-.763h0v-.936a1.49,1.49,0,0,0,0-.173h0a9.706,9.706,0,0,0,0-1.387,5.513,5.513,0,0,0,.451-6.761Z" transform="translate(-12.888 -60.718)" fill="#767d84"/>
            <path id="Trazado_138884" data-name="Trazado 138884" d="M60.236,88.895,22.2,66.774l2.982-2.254L63.287,86.641Z" transform="translate(-5.141 -64)" fill="#e6e7e8"/>
            <g id="Grupo_60788" data-name="Grupo 60788" transform="translate(0.139 21.427)">
              <path id="Trazado_138885" data-name="Trazado 138885" d="M58.025,97.516,19.955,75.36,17.32,71.65,55.39,93.771Z" transform="translate(-17.32 -67.836)" fill="#6d6e71"/>
              <path id="Trazado_138886" data-name="Trazado 138886" d="M55.39,96.485,17.32,74.364l1.907-3.814L57.3,92.671Z" transform="translate(-17.32 -70.55)" fill="#a8a9ac"/>
            </g>
            <path id="Trazado_138887" data-name="Trazado 138887" d="M57.937,89.407l.832-.936L20.63,66.35l-.52.555-.312.381-.243.312h-.173L19,68.6h0L57.14,90.725c.277-.381.52-.728.832-1.11Z" transform="translate(-13.036 -59.485)" fill="#bec0c2"/>
            <g id="Grupo_60789" data-name="Grupo 60789" transform="translate(7.663)">
              <path id="Trazado_138888" data-name="Trazado 138888" d="M61.627,87.3h0L23.488,65.179h-.971a3.744,3.744,0,0,0-.624,0H21.65L59.79,87.3h1.04A3.466,3.466,0,0,1,61.627,87.3Z" transform="translate(-14.161 -62.405)" fill="#a0a2a4"/>
              <path id="Trazado_138889" data-name="Trazado 138889" d="M57.88,89.507,19.81,67.386l5.236-3.016,38.07,22.121Z" transform="translate(-18.7 -64.37)" fill="#e6e7e8"/>
              <path id="Trazado_138890" data-name="Trazado 138890" d="M57.56,91.279,19.49,69.158,20.6,65.24,58.67,87.361Z" transform="translate(-19.49 -62.224)" fill="#939598"/>
            </g>
            <g id="Grupo_60790" data-name="Grupo 60790" transform="translate(0 9.292)">
              <path id="Trazado_138891" data-name="Trazado 138891" d="M57.327,94.443a8.39,8.39,0,0,1,0-1.318L55.42,91.5,17.28,69.34,19.152,71v1.283a7.143,7.143,0,0,0,0,1.248l38.14,22.121A7,7,0,0,0,57.327,94.443Z" transform="translate(-17.28 -61.4)" fill="#737477"/>
              <path id="Trazado_138892" data-name="Trazado 138892" d="M56.14,90.384,18.07,68.264l3.017-1.214,38.07,22.121Z" transform="translate(-15.331 -67.05)" fill="#f1f2f2"/>
              <path id="Trazado_138893" data-name="Trazado 138893" d="M55.39,96.247,17.32,74.126l2.6-6.726,38.07,22.121Z" transform="translate(-17.181 -66.186)" fill="#9ea0a2"/>
            </g>
            <path id="Trazado_138894" data-name="Trazado 138894" d="M39.6,94.792a17.336,17.336,0,0,0,7.871-13.626c0-4.993-3.467-6.934-7.905-4.507A17.336,17.336,0,0,0,31.7,90.25c0,5.027,3.467,6.934,7.905,4.542Zm9.431-14.528a7.973,7.973,0,0,1,0,1.283l1.907,1.664-2.6,6.726-3.016,1.248a20.976,20.976,0,0,1-1.907,2.358l-1.11,3.883-5.236,3.051-1.144-2.635a5.755,5.755,0,0,1-1.907,0L31,100.1l-2.7-3.987,1.907-3.849V91.047a8.388,8.388,0,0,1,0-1.318L28.3,88.1l2.6-6.934,3.017-1.214a20.979,20.979,0,0,1,1.907-2.358l1.11-3.918,5.236-3.016,1.144,2.6a5.756,5.756,0,0,1,1.907,0l2.843-1.768,2.808,3.814-1.907,3.849A9.452,9.452,0,0,1,49.034,80.264Z" transform="translate(9.909 -48.851)" fill="#d5d7e3"/>
          </g>
          <g id="Grupo_60795" data-name="Grupo 60795" transform="translate(133.662 61.821)">
            <path id="Trazado_138895" data-name="Trazado 138895" d="M97.24,74.306,59.17,52.185,58.06,49.55,96.13,71.706Z" transform="translate(-50.328 -22.679)" fill="#6d6e71"/>
            <path id="Trazado_138896" data-name="Trazado 138896" d="M106.656,65.4,68.516,43.28A5.478,5.478,0,0,1,70.8,48.342c0,.451,0,.9,0,1.387a.971.971,0,0,0,0,.312,5.611,5.611,0,0,1,0,.659,1.734,1.734,0,0,1,0,.416V52.4l-.208.659V53.3a9.021,9.021,0,0,1-.347.867h0l-.381.763v.243c0,.243-.243.485-.381.693h0l-.52.832v.208l-.381.555-.243.312a5.1,5.1,0,0,1-.347.451l-.312.381-.312.347-.52.555-.243.277-1.11.971h-.208a12.618,12.618,0,0,1-1.214.832l-1.005.485H58.08l-.52-.243L95.7,83.951h0a2.322,2.322,0,0,0,.416.208h2.947l.555-.173h.208a6.653,6.653,0,0,0,1.006-.485,12.621,12.621,0,0,0,1.213-.832h.208l1.11-.971h0v-.173l.52-.555h.173V80.8l.312-.381.208-.243v-.208l.243-.277v-.208l.243-.381v-.208h0l.416-.659h0l.277-.451v-.693l.277-.555h0a.793.793,0,0,1,.277-.693h0v-.243a1.7,1.7,0,0,1,0-.381,1.075,1.075,0,0,1,0-.277v-.312a.486.486,0,0,1,0-.208v-.763h0v-.9h0V71.365A5.548,5.548,0,0,0,106.656,65.4Z" transform="translate(-51.562 -38.149)" fill="#767d84"/>
            <path id="Trazado_138897" data-name="Trazado 138897" d="M98.82,66.325,60.75,44.2l3.017-2.254,38.07,22.121Z" transform="translate(-43.691 -41.43)" fill="#e6e7e8"/>
            <g id="Grupo_60792" data-name="Grupo 60792" transform="translate(0.173 21.427)">
              <path id="Trazado_138898" data-name="Trazado 138898" d="M96.585,74.921,58.515,52.8,55.88,49.09,93.95,71.211Z" transform="translate(-55.88 -45.241)" fill="#6d6e71"/>
              <path id="Trazado_138899" data-name="Trazado 138899" d="M93.95,73.95,55.88,51.829l1.872-3.849L95.823,70.1Z" transform="translate(-55.88 -47.98)" fill="#a8a9ac"/>
            </g>
            <path id="Trazado_138900" data-name="Trazado 138900" d="M96.5,66.857l.8-.936L59.086,43.8l-.347.693-.312.381-.277.312v.208l-.589.763h0L95.7,68.279a12.308,12.308,0,0,1,.8-1.075Z" transform="translate(-51.562 -36.866)" fill="#bec0c2"/>
            <g id="Grupo_60793" data-name="Grupo 60793" transform="translate(7.663)">
              <path id="Trazado_138901" data-name="Trazado 138901" d="M100.177,64.741h0L62.038,42.62H60.2L98.34,64.741h1.838Z" transform="translate(-52.711 -39.777)" fill="#a0a2a4"/>
              <path id="Trazado_138902" data-name="Trazado 138902" d="M96.43,66.972,58.36,44.851,63.63,41.8,101.7,63.921Z" transform="translate(-57.25 -41.8)" fill="#e6e7e8"/>
              <path id="Trazado_138903" data-name="Trazado 138903" d="M96.11,68.684,58.04,46.563l1.11-3.883L97.22,64.8Z" transform="translate(-58.04 -39.629)" fill="#939598"/>
            </g>
            <g id="Grupo_60794" data-name="Grupo 60794" transform="translate(0 9.292)">
              <path id="Trazado_138904" data-name="Trazado 138904" d="M95.877,71.838V70.555L93.97,68.891,55.83,46.77l1.907,1.63v2.531l38.14,22.121C95.911,72.7,95.877,72.289,95.877,71.838Z" transform="translate(-55.83 -38.83)" fill="#737477"/>
              <path id="Trazado_138905" data-name="Trazado 138905" d="M94.69,67.849,56.62,45.728l3.017-1.248L97.742,66.6Z" transform="translate(-53.881 -44.48)" fill="#f1f2f2"/>
              <path id="Trazado_138906" data-name="Trazado 138906" d="M93.94,73.687,55.87,51.566l2.6-6.726,38.07,22.121Z" transform="translate(-55.731 -43.592)" fill="#9ea0a2"/>
            </g>
            <path id="Trazado_138907" data-name="Trazado 138907" d="M78.287,71.9a17.336,17.336,0,0,0,7.836-13.626c0-4.993-3.467-6.934-7.905-4.507a17.336,17.336,0,0,0-7.836,13.626C70.381,72.387,73.849,74.328,78.287,71.9Zm9.431-14.528v1.318l1.907,1.63-2.635,6.726L83.973,68.3A20.8,20.8,0,0,1,82.1,70.653l-1.11,3.883-5.27,3.051L74.4,74.952a5.686,5.686,0,0,1-1.907,0L69.48,77.206,66.845,73.5l1.872-3.849v-2.5L66.81,65.487l2.6-6.726,3.051-1.248a20.8,20.8,0,0,1,1.872-2.358l1.109-3.883,5.27-3.051,1.11,2.635a5.687,5.687,0,0,1,1.907,0L86.747,48.6l2.635,3.71L87.509,56.16a2.892,2.892,0,0,1,.208,1.214Z" transform="translate(-28.74 -25.96)" fill="#d5d7e3"/>
          </g>
          <g id="Grupo_60799" data-name="Grupo 60799" transform="translate(241.112)">
            <path id="Trazado_138908" data-name="Trazado 138908" d="M128.19,56.451,90.12,34.33l-1.11-2.6,38.07,22.121Z" transform="translate(-81.417 -4.824)" fill="#6d6e71"/>
            <path id="Trazado_138909" data-name="Trazado 138909" d="M137.7,47.581,99.565,25.46a5.443,5.443,0,0,1,2.288,5.027v1.734a3.917,3.917,0,0,1,0,.624,1.731,1.731,0,0,1,0,.416v1.318l-.208.624v.243a6.447,6.447,0,0,1-.347.867h0c0,.277-.243.52-.381.763v.243c0,.243-.243.485-.381.693h0c0,.277-.312.555-.485.832v.208l-.416.589-.208.277a5.094,5.094,0,0,1-.347.451l-.312.381-1.526.451-.52.555-.243.277L95.37,43h-.208a12.624,12.624,0,0,1-1.214.832,8.772,8.772,0,0,1-1.006.485h-.312l-.555.173H89.3l-.832.173,38.14,22.121h3.363l.555-.173h.208a8.775,8.775,0,0,0,1.005-.485,12.624,12.624,0,0,0,1.214-.832h.208l1.11-.971h0l.173-.208.52-.555v-.173h0l.312-.347.208-.243v-.243l.243-.277v-.208a2.112,2.112,0,0,1,.243-.347,1.492,1.492,0,0,1,0-.243h0l.416-.659h0l.243-.451a.867.867,0,0,0,0-.243v-.451a.749.749,0,0,1,.277-.555h0l.312-.728h0V57.185a.484.484,0,0,1,0-.208,1.521,1.521,0,0,1,0-.347v-.416h0a.762.762,0,0,0,0-.277,1.977,1.977,0,0,0,0-.624v-1.56a5.443,5.443,0,0,0,.485-6.172Z" transform="translate(-82.749 -20.294)" fill="#767d84"/>
            <path id="Trazado_138910" data-name="Trazado 138910" d="M129.77,48.529,91.7,26.374l3.017-2.254,38.07,22.121Z" transform="translate(-74.78 -23.6)" fill="#e6e7e8"/>
            <g id="Grupo_60796" data-name="Grupo 60796" transform="translate(0.035 21.427)">
              <path id="Trazado_138911" data-name="Trazado 138911" d="M127.535,57.091,89.465,34.97,86.83,31.26,124.9,53.381Z" transform="translate(-86.83 -27.411)" fill="#6d6e71"/>
              <path id="Trazado_138912" data-name="Trazado 138912" d="M124.9,56.12,86.83,34,88.7,30.15l38.07,22.156Z" transform="translate(-86.83 -30.15)" fill="#a8a9ac"/>
            </g>
            <path id="Trazado_138913" data-name="Trazado 138913" d="M127.422,48.988a10.785,10.785,0,0,1,.8-.971L90.184,26l-.485.555-.347.381a2.977,2.977,0,0,1-.243.347.347.347,0,0,0,0,.173l-.589.763h0L126.66,50.34l.832-1.075Z" transform="translate(-82.626 -18.962)" fill="#bec0c2"/>
            <g id="Grupo_60797" data-name="Grupo 60797" transform="translate(7.524)">
              <path id="Trazado_138914" data-name="Trazado 138914" d="M131.177,46.891h0L93.037,24.77H91.13l38.14,22.121h1.907Z" transform="translate(-83.71 -21.996)" fill="#a0a2a4"/>
              <path id="Trazado_138915" data-name="Trazado 138915" d="M127.38,49.142,89.31,27.021l5.236-3.051,38.1,22.121Z" transform="translate(-88.2 -23.97)" fill="#e6e7e8"/>
              <path id="Trazado_138916" data-name="Trazado 138916" d="M127.06,50.854,88.99,28.733,90.1,24.85l38.07,22.121Z" transform="translate(-88.99 -21.799)" fill="#939598"/>
            </g>
            <g id="Grupo_60798" data-name="Grupo 60798" transform="translate(0 9.292)">
              <path id="Trazado_138917" data-name="Trazado 138917" d="M126.728,53.895V52.612l-1.907-1.664L86.82,29l1.907,1.664v2.5l38.14,22.156A7.523,7.523,0,0,1,126.728,53.895Z" transform="translate(-86.82 -20.852)" fill="#737477"/>
              <path id="Trazado_138918" data-name="Trazado 138918" d="M125.64,50.019,87.57,27.9l3.017-1.248,38.07,22.121Z" transform="translate(-84.97 -26.65)" fill="#f1f2f2"/>
              <path id="Trazado_138919" data-name="Trazado 138919" d="M124.89,55.857,86.82,33.736l2.6-6.726,38.07,22.121Z" transform="translate(-86.82 -25.762)" fill="#9ea0a2"/>
            </g>
            <path id="Trazado_138920" data-name="Trazado 138920" d="M109.138,54.022A17.336,17.336,0,0,0,116.974,40.4c0-4.993-3.467-6.934-7.905-4.507A17.336,17.336,0,0,0,101.2,49.514c0,4.993,3.467,6.934,7.94,4.507Zm9.431-14.632v1.318l1.907,1.63L117.841,49.1l-3.017,1.214a25.418,25.418,0,0,1-1.872,2.358l-1.179,4.057-5.27,3.016-1.109-2.6a5.686,5.686,0,0,1-1.907,0L100.47,59.4l-2.635-3.71,1.872-3.814V49.341L97.8,47.677l2.6-6.726,3.017-1.248a20.972,20.972,0,0,1,1.907-2.358l1.11-3.883,5.236-3.051,1.144,2.635a5.755,5.755,0,0,1,1.907,0l3.017-2.254,2.635,3.71-1.907,3.849A6.933,6.933,0,0,1,118.569,39.39Z" transform="translate(-59.73 -8.081)" fill="#d5d7e3"/>
          </g>
          <g id="Grupo_60803" data-name="Grupo 60803" transform="translate(107.207 77.735)">
            <path id="Trazado_138921" data-name="Trazado 138921" d="M89.635,78.861,51.564,56.74l-1.144-2.6L88.49,76.261Z" transform="translate(-42.723 -27.269)" fill="#6d6e71"/>
            <path id="Trazado_138922" data-name="Trazado 138922" d="M98.927,69.991,60.788,47.87a5.513,5.513,0,0,1,2.323,5.062,8.874,8.874,0,0,1,0,1.352,1.075,1.075,0,0,1,0,.347v2.011a1.526,1.526,0,0,0,0,.347,4.646,4.646,0,0,1-.243.624.832.832,0,0,1,0,.277c0,.277-.243.555-.347.867h0a7.929,7.929,0,0,1-.347.8v.208a7.355,7.355,0,0,1-.381.728h0c0,.277-.312.52-.485.8l-.173.243-1.352.659-.208.312-.381.451-.277.347-.312.347-.52.555a2.078,2.078,0,0,1-.277.277c-.347.347-.728.659-1.11.971l-.208.173-1.214.8a6.621,6.621,0,0,1-.971.52h-.312l-.555.208H50.455a2.113,2.113,0,0,1-.485-.243L88.11,89.026h0l.381.208h1.283a1.421,1.421,0,0,0,.381,0h1.526l.555-.208h.208l.971-.485c.416-.243.832-.555,1.248-.832h0a9.678,9.678,0,0,0,1.11-.971h0l.52-.555.173-.208h0l.312-.381.173-.243v-.208l.208-.312v-.208a2.112,2.112,0,0,0,.243-.347v-.243h0a6.939,6.939,0,0,0,.381-.693h0a.644.644,0,0,1,.243-.485V82.2l.243-.555h0a6.236,6.236,0,0,0,.277-.728h0a.832.832,0,0,0,0-.277,1.457,1.457,0,0,0,0-.347v-.277a1,1,0,0,0,0-.312.485.485,0,0,0,0-.208v-.763h0v-1.11h0a8.876,8.876,0,0,0,0-1.352A5.582,5.582,0,0,0,98.927,69.991Z" transform="translate(-43.833 -42.739)" fill="#767d84"/>
            <path id="Trazado_138923" data-name="Trazado 138923" d="M91.19,70.915,53.12,48.794,56.1,46.54,94.207,68.661Z" transform="translate(-36.061 -46.02)" fill="#e6e7e8"/>
            <g id="Grupo_60800" data-name="Grupo 60800" transform="translate(0.139 21.427)">
              <path id="Trazado_138924" data-name="Trazado 138924" d="M88.945,79.536,50.875,57.38,48.24,53.67,86.31,75.791Z" transform="translate(-48.24 -49.856)" fill="#6d6e71"/>
              <path id="Trazado_138925" data-name="Trazado 138925" d="M86.31,78.5,48.24,56.384l1.907-3.814,38.07,22.121Z" transform="translate(-48.24 -52.57)" fill="#a8a9ac"/>
            </g>
            <path id="Trazado_138926" data-name="Trazado 138926" d="M88.98,71.407l.832-.936L51.673,48.35l-.52.555-.312.381L50.6,49.6h-.173l-.555.8h0L88.01,72.517l.832-1.11Z" transform="translate(-44.08 -41.554)" fill="#bec0c2"/>
            <g id="Grupo_60801" data-name="Grupo 60801" transform="translate(7.663)">
              <path id="Trazado_138927" data-name="Trazado 138927" d="M92.6,69.328h0L54.457,47.207a1.214,1.214,0,0,0-.485,0H52.55L90.69,69.328a4.232,4.232,0,0,1,.936,0H92.6Z" transform="translate(-45.13 -44.434)" fill="#a0a2a4"/>
              <path id="Trazado_138928" data-name="Trazado 138928" d="M88.8,71.527,50.73,49.406l5.236-3.016,38.07,22.121Z" transform="translate(-49.62 -46.39)" fill="#e6e7e8"/>
              <path id="Trazado_138929" data-name="Trazado 138929" d="M88.48,73.3,50.41,51.178l1.11-3.918L89.59,69.381Z" transform="translate(-50.41 -44.244)" fill="#939598"/>
            </g>
            <g id="Grupo_60802" data-name="Grupo 60802" transform="translate(0 9.258)">
              <path id="Trazado_138930" data-name="Trazado 138930" d="M88.247,76.428a8.186,8.186,0,0,1,0-1.283L86.34,73.481,48.2,51.36l1.872,1.664v2.531l38.14,22.121A7.3,7.3,0,0,0,88.247,76.428Z" transform="translate(-48.2 -43.385)" fill="#737477"/>
              <path id="Trazado_138931" data-name="Trazado 138931" d="M87.06,72.429,48.99,50.308l3.017-1.248,38.07,22.156Z" transform="translate(-46.251 -49.06)" fill="#f1f2f2"/>
              <path id="Trazado_138932" data-name="Trazado 138932" d="M86.31,78.267,48.24,56.146l2.6-6.726,38.07,22.121Z" transform="translate(-48.101 -48.172)" fill="#9ea0a2"/>
            </g>
            <path id="Trazado_138933" data-name="Trazado 138933" d="M70.474,76.59a17.336,17.336,0,0,0,7.871-13.626c0-4.993-3.467-6.934-7.905-4.507a17.336,17.336,0,0,0-7.871,13.592c0,4.993,3.467,6.934,7.905,4.542ZM79.9,62.027a8.4,8.4,0,0,1,0,1.318l1.907,1.664-2.6,6.726-3.017,1.214a18.272,18.272,0,0,1-1.907,2.358l-1.11,3.918-5.236,3.016-1.144-2.6a4.715,4.715,0,0,1-1.872-.173l-3.051,2.254-2.635-3.71L61.147,74.2V72.949a8.18,8.18,0,0,1,0-1.283L59.24,70l2.635-6.726,3.017-1.214A20.979,20.979,0,0,1,66.8,59.7l1.11-3.918,5.236-3.016,1.144,2.6a5.756,5.756,0,0,1,1.907,0l3.017-2.254,2.531,3.918-1.907,3.814a7.139,7.139,0,0,1,.069,1.179Z" transform="translate(-20.962 -30.649)" fill="#d5d7e3"/>
          </g>
          <g id="Grupo_60807" data-name="Grupo 60807" transform="translate(216.321 14.84)">
            <path id="Trazado_138934" data-name="Trazado 138934" d="M121.095,60.721,83.024,38.6,81.88,36l38.07,22.121Z" transform="translate(-74.217 -9.129)" fill="#6d6e71"/>
            <path id="Trazado_138935" data-name="Trazado 138935" d="M130.377,51.851,92.238,29.73a5.513,5.513,0,0,1,2.323,5.062,8.873,8.873,0,0,1,0,1.352v1.422a1.5,1.5,0,0,1,0,.381c0,.208,0,.381,0,.555v.347l-.208.624a.833.833,0,0,0,0,.277c0,.277-.243.555-.381.867h0c0,.277-.243.52-.347.8v.208a7.343,7.343,0,0,1-.381.728h0c0,.277-.312.555-.485.8v.243l-.381.555-1.318.589-.381.451-.312.381-.277.312-.52.589-.277.243a9.675,9.675,0,0,1-1.109.971l-.208.173-1.214.8-.971.52h-.312l-.555.208H81.94l-.52-.243,38.14,22.121h0l.381.208h2.774l.555-.208h.173l.971-.485c.416-.243.832-.555,1.214-.832h.208a9.672,9.672,0,0,0,1.11-.971h0l.52-.555v-.208h0l.277-.381.208-.243.173-.208.208-.312v-.208a2.112,2.112,0,0,0,.243-.347l1.318-.971h0a7.349,7.349,0,0,0,.416-.693h0a3.469,3.469,0,0,0,.277-.485V63.5c0-.208.173-.381.243-.555h0a6.242,6.242,0,0,0,.277-.728h0v-.277a1.456,1.456,0,0,0,0-.347.831.831,0,0,0,0-.277V61a.484.484,0,0,0,0-.208v-.381a1.246,1.246,0,0,0,0-.381h0v-1.11h0a8.874,8.874,0,0,0,0-1.352,5.513,5.513,0,0,0-.728-5.721Z" transform="translate(-75.352 -24.599)" fill="#767d84"/>
            <path id="Trazado_138936" data-name="Trazado 138936" d="M122.64,52.775,84.57,30.654,87.587,28.4l38.07,22.121Z" transform="translate(-67.581 -27.88)" fill="#e6e7e8"/>
            <g id="Grupo_60804" data-name="Grupo 60804" transform="translate(0.104 21.427)">
              <path id="Trazado_138937" data-name="Trazado 138937" d="M120.405,61.361,82.335,39.24,79.7,35.53l38.07,22.121Z" transform="translate(-79.7 -31.716)" fill="#6d6e71"/>
              <path id="Trazado_138938" data-name="Trazado 138938" d="M117.77,60.365,79.7,38.244l1.907-3.814,38.07,22.121Z" transform="translate(-79.7 -34.43)" fill="#a8a9ac"/>
            </g>
            <path id="Trazado_138939" data-name="Trazado 138939" d="M120.342,53.307c.277-.312.52-.624.832-.936L83.034,30.25l-.52.555-.312.381-.277.312v.173l-.555.8h0L119.51,54.59a12.851,12.851,0,0,1,.8-1.11Z" transform="translate(-75.476 -23.316)" fill="#bec0c2"/>
            <g id="Grupo_60805" data-name="Grupo 60805" transform="translate(7.593)">
              <path id="Trazado_138940" data-name="Trazado 138940" d="M124.047,51.19h0L85.907,29.069a1.075,1.075,0,0,0-.451,0h-.381a1.872,1.872,0,0,0-.624,0H84L122.14,51.19a4.23,4.23,0,0,1,.936,0h0a3.225,3.225,0,0,1,.971,0Z" transform="translate(-76.58 -26.295)" fill="#a0a2a4"/>
              <path id="Trazado_138941" data-name="Trazado 138941" d="M120.26,53.387,82.19,31.266l5.236-3.016L125.5,50.371Z" transform="translate(-81.046 -28.25)" fill="#e6e7e8"/>
              <path id="Trazado_138942" data-name="Trazado 138942" d="M119.965,55.159,81.86,33.038,83,29.12l38.07,22.121Z" transform="translate(-81.86 -26.104)" fill="#939598"/>
            </g>
            <g id="Grupo_60806" data-name="Grupo 60806" transform="translate(0 9.292)">
              <path id="Trazado_138943" data-name="Trazado 138943" d="M119.682,58.288V57.005l-1.872-1.664L79.67,33.22l1.872,1.664v1.283a7.137,7.137,0,0,0,0,1.248l38.14,22.121a7.14,7.14,0,0,1,0-1.248Z" transform="translate(-79.67 -25.28)" fill="#737477"/>
              <path id="Trazado_138944" data-name="Trazado 138944" d="M118.52,54.264,80.45,32.144l3.017-1.214,38.07,22.121Z" transform="translate(-77.746 -30.93)" fill="#f1f2f2"/>
              <path id="Trazado_138945" data-name="Trazado 138945" d="M117.8,60.127,79.69,38.006l2.635-6.726L120.4,53.4Z" transform="translate(-79.621 -30.066)" fill="#9ea0a2"/>
            </g>
            <path id="Trazado_138946" data-name="Trazado 138946" d="M101.934,58.45A17.336,17.336,0,0,0,109.8,44.824c0-4.993-3.467-6.934-7.905-4.507a17.336,17.336,0,0,0-7.871,13.592c0,5.027,3.467,6.934,7.905,4.542Zm9.431-14.528v1.283l1.907,1.664-2.6,6.726-3.017,1.248a17.925,17.925,0,0,1-1.907,2.323l-1.11,3.918L99.4,64.1l-1.144-2.6a4.958,4.958,0,0,1-1.907-.173l-3.016,2.288L90.7,59.871l1.907-3.814a7.14,7.14,0,0,1,0-1.248V53.526l-1.872-1.664,2.6-6.726,3.017-1.214a20.976,20.976,0,0,1,1.907-2.358l1.109-3.918L104.6,34.63l1.144,2.6a5.548,5.548,0,0,1,1.872,0l3.016-2.254,2.635,3.71L111.3,42.847A7.9,7.9,0,0,1,111.365,43.922Z" transform="translate(-52.456 -12.509)" fill="#d5d7e3"/>
          </g>
        </g>
        <path id="Trazado_138947" data-name="Trazado 138947" d="M285.482,30.614c9.119-5.27,16.573-1.04,16.608,9.431a36.441,36.441,0,0,1-16.5,28.709L43.468,208.621c-9.119,5.27-16.573,1.04-16.608-9.431a36.441,36.441,0,0,1,16.469-28.917ZM300.113,41.57c0-9.6-6.588-13.349-14.632-8.7L43.364,172.527a32,32,0,0,0-14.528,25.137c0,9.6,6.588,13.349,14.6,8.7l242.152-139.8a32.107,32.107,0,0,0,14.528-25.137Z" transform="translate(25.895 2.013)" fill="#767d84"/>
        <path id="Trazado_138948" data-name="Trazado 138948" d="M281.588,20.006h0a4.646,4.646,0,0,0-.832-.416h-6.8a3.06,3.06,0,0,0-1.144.416H272.4l-.416.173H271.6c-.485.243-1.005.485-1.526.8L27.682,160.949c-.555.312-1.075.659-1.595,1.006l-.485.347-1.04.8-.555.451-.936.832-.555.52-.347.277-.347.416-1.075,1.144-.347.347-.312.381-.624.763a4.649,4.649,0,0,0-.381.485l-.381.52-.451.589-.277.381c-.208.277-.381.589-.589.9a3.469,3.469,0,0,0-.277.381h0c-.312.451-.589.9-.867,1.387h0l-.208.416-.451.8-.312.624a2.116,2.116,0,0,0-.243.485l-.173.312c-.243.485-.451.971-.659,1.456h0l-.52,1.283a1.248,1.248,0,0,1,0,.381l-.208.589-.589,1.283a.892.892,0,0,1-.243.728l-.208.659v.347a6.307,6.307,0,0,0-.243.867l-.208.867v.208a3.917,3.917,0,0,0,0,.624,10.766,10.766,0,0,1-.277,1.456c-.069.485,0,.208,0,.347V188.1a18.065,18.065,0,0,0,0,1.907,11.65,11.65,0,0,0,4.854,10.61l53.188,30.893a11.581,11.581,0,0,1-4.819-10.4v-3.745a3.22,3.22,0,0,1,.243-1.456c.243-.485,0-.555,0-.832l.208-.867.312-1.214.208-.693a4.249,4.249,0,0,1,.451-1.318l.208-.589c.208-.555.416-1.11.659-1.664h0c.277-.624.555-1.214.867-1.8l.208-.485.763-1.422a2.6,2.6,0,0,0,.243-.416c.347-.555.659-1.144,1.04-1.7a1.526,1.526,0,0,1,.277-.381c.277-.451.555-.867.867-1.283a3.78,3.78,0,0,1,.451-.589l.763-1.005.624-.763.659-.728a11.308,11.308,0,0,1,1.075-1.144,6.559,6.559,0,0,1,.693-.693l.555-.52.936-.832.555-.451,1.04-.8.485-.347c.52-.381,1.04-.693,1.56-1.006L323.022,52.217a16.089,16.089,0,0,1,1.526-.8l.381-.173.8-.312,1.179-.416.728-.208H331a6.934,6.934,0,0,1,1.214.173h.312l.9.243h.277a5.131,5.131,0,0,1,1.075.52Z" transform="translate(-11.645 -19.59)" fill="#353435"/>
      </g>
      <g id="Grupo_60823" data-name="Grupo 60823" transform="translate(117.089 38.59)">
        <g id="Grupo_60820" data-name="Grupo 60820">
          <g id="Grupo_60810" data-name="Grupo 60810">
            <path id="Trazado_138949" data-name="Trazado 138949" d="M43.8,36.12l.1,39.145L79.513,95.93l-.139-39.11Z" transform="translate(-43.8 -15.455)" fill="#f5bc6f"/>
            <path id="Trazado_138950" data-name="Trazado 138950" d="M54.06,56.819,54.2,95.93,90.015,75.265l-.1-39.145Z" transform="translate(-18.486 -15.455)" fill="#ffcf7a"/>
            <path id="Trazado_138951" data-name="Trazado 138951" d="M43.8,50.825l35.574,20.7,35.851-20.7L79.617,30.16Z" transform="translate(-43.8 -30.16)" fill="#fcd495"/>
          </g>
          <g id="Grupo_60818" data-name="Grupo 60818" transform="translate(52.702 53.257)">
            <g id="Grupo_60812" data-name="Grupo 60812" transform="translate(6.518 2.6)">
              <path id="Trazado_138952" data-name="Trazado 138952" d="M62.3,50.5h0a2.982,2.982,0,0,0,1.352-2.323V46.27L60.88,47.865v1.872C60.915,50.569,61.539,50.916,62.3,50.5Z" transform="translate(-60.88 -46.27)" fill="#cf9975"/>
              <g id="Grupo_60811" data-name="Grupo 60811" transform="translate(0.004 3.224)">
                <path id="Trazado_138953" data-name="Trazado 138953" d="M61.292,50.875a.243.243,0,0,0,0-.208V47.2h0a.243.243,0,0,0,0,.208v3.467Z" transform="translate(-59.944 -47.2)" fill="#cf9975"/>
                <path id="Trazado_138954" data-name="Trazado 138954" d="M60.912,49.6l2.635-1.56h0l-2.635,1.526a.277.277,0,0,0,0,.208S60.843,49.635,60.912,49.6Z" transform="translate(-60.881 -45.128)" fill="#cf9975"/>
              </g>
            </g>
            <g id="Grupo_60813" data-name="Grupo 60813" transform="translate(0 5.906)">
              <path id="Trazado_138955" data-name="Trazado 138955" d="M63.438,48.945a.8.8,0,0,1,.659,0c0-1.56-1.179-2.184-2.6-1.352A5.617,5.617,0,0,0,59,51.927a2.046,2.046,0,0,1,.728-.8.753.753,0,0,1,.936,0,2.219,2.219,0,0,1,.971-1.248c.416-.243.763,0,.936,0A2.289,2.289,0,0,1,63.438,48.945Z" transform="translate(-59 -47.223)" fill="#cf9975"/>
              <path id="Trazado_138956" data-name="Trazado 138956" d="M60.6,51.714l.416-.243a.277.277,0,0,0,0-.208h0l-.416.243a.447.447,0,0,1-.728-.416V47.9h0a.312.312,0,0,0,0,.173V51.3C59.529,51.714,59.98,52.061,60.6,51.714Z" transform="translate(-57.137 -45.554)" fill="#cf9975"/>
            </g>
            <g id="Grupo_60817" data-name="Grupo 60817" transform="translate(10.055)">
              <g id="Grupo_60814" data-name="Grupo 60814" transform="translate(3.294 1.942)">
                <path id="Trazado_138957" data-name="Trazado 138957" d="M63.07,48.126l.312-1.734,1.352-.312-.312.347.451.624a.208.208,0,0,1,0,.277l-.659,1.7-.867-1.248Z" transform="translate(-62.307 -46.08)" fill="#cf9975"/>
                <path id="Trazado_138958" data-name="Trazado 138958" d="M63.856,46.68l.728,1.04L62.85,48.726V47.269Z" transform="translate(-62.85 -44.6)" fill="#cf9975"/>
              </g>
              <g id="Grupo_60815" data-name="Grupo 60815" transform="translate(0 4.022)">
                <path id="Trazado_138959" data-name="Trazado 138959" d="M63.644,47.347V47l1.04.52-1.04,1.7v-.381l-.867.52h-.208l-.659-.936Z" transform="translate(-61.875 -45.89)" fill="#cf9975"/>
                <path id="Trazado_138960" data-name="Trazado 138960" d="M61.9,48.934l.9-2.254,1.075.1L63.391,48.1Z" transform="translate(-61.9 -46.68)" fill="#cf9975"/>
              </g>
              <g id="Grupo_60816" data-name="Grupo 60816" transform="translate(1.352)">
                <path id="Trazado_138961" data-name="Trazado 138961" d="M62.567,47.68l.451-1.11a.347.347,0,0,1,.208-.277l1.318-.763-.867,2.254h.277L62.6,49.032l-.312-1.387Z" transform="translate(-62.29 -45.495)" fill="#cf9975"/>
                <path id="Trazado_138962" data-name="Trazado 138962" d="M63.508,45.52l.9,1.214L63.3,48.086l-.52-.693Z" transform="translate(-61.081 -45.52)" fill="#cf9975"/>
              </g>
            </g>
          </g>
          <g id="Grupo_60819" data-name="Grupo 60819" transform="translate(15.741 9.119)">
            <path id="Trazado_138963" data-name="Trazado 138963" d="M84.434,32.79l2.635,1.526-36.094,20.8L48.34,53.593Z" transform="translate(-48.34 -32.79)" fill="#cf9975"/>
            <path id="Trazado_138964" data-name="Trazado 138964" d="M48.34,44.848l2.635,1.491V40.306L48.34,38.78Z" transform="translate(-48.34 -18.011)" fill="#cf9975"/>
          </g>
        </g>
        <g id="Grupo_60822" data-name="Grupo 60822" transform="translate(21.532 36.267)">
          <path id="Trazado_138965" data-name="Trazado 138965" d="M50.01,51.368l10.3,5.964V46.584L50.01,40.62Z" transform="translate(-50.01 -40.62)" fill="#f1f2f2"/>
          <g id="Grupo_60821" data-name="Grupo 60821" transform="translate(0.832 1.872)">
            <path id="Trazado_138966" data-name="Trazado 138966" d="M50.27,44.419l.555.312V41.472l-.555-.312Z" transform="translate(-50.201 -41.16)" fill="#6d6e71"/>
            <path id="Trazado_138967" data-name="Trazado 138967" d="M50.58,44.6l.555.312V41.652l-.555-.312Z" transform="translate(-49.436 -40.716)" fill="#6d6e71"/>
            <path id="Trazado_138968" data-name="Trazado 138968" d="M50.9,44.779l.52.312V41.832l-.52-.312Z" transform="translate(-48.646 -40.272)" fill="#6d6e71"/>
            <path id="Trazado_138969" data-name="Trazado 138969" d="M51.21,45.618l.555.312V42.012L51.21,41.7Z" transform="translate(-47.881 -39.828)" fill="#6d6e71"/>
            <path id="Trazado_138970" data-name="Trazado 138970" d="M51.53,45.174l.52.312V42.192l-.52-.312Z" transform="translate(-47.092 -39.384)" fill="#6d6e71"/>
            <path id="Trazado_138971" data-name="Trazado 138971" d="M51.84,45.354l.555.312V42.372l-.555-.312Z" transform="translate(-46.327 -38.94)" fill="#6d6e71"/>
            <path id="Trazado_138972" data-name="Trazado 138972" d="M52.15,46.158l.555.312V42.552l-.555-.312Z" transform="translate(-45.562 -38.495)" fill="#6d6e71"/>
            <path id="Trazado_138973" data-name="Trazado 138973" d="M52.47,45.714l.52.312V42.767l-.52-.347Z" transform="translate(-44.773 -38.051)" fill="#6d6e71"/>
            <path id="Trazado_138974" data-name="Trazado 138974" d="M50.25,43.682,58.537,48.5v-.312L50.25,43.37Z" transform="translate(-50.25 -35.707)" fill="#6d6e71"/>
            <path id="Trazado_138975" data-name="Trazado 138975" d="M50.25,43.322l8.287,4.785v-.277L50.25,43.01Z" transform="translate(-50.25 -36.596)" fill="#6d6e71"/>
            <path id="Trazado_138976" data-name="Trazado 138976" d="M50.25,42.962l8.287,4.819v-.347L50.25,42.65Z" transform="translate(-50.25 -37.484)" fill="#6d6e71"/>
          </g>
        </g>
      </g>
      <g id="Grupo_60836" data-name="Grupo 60836" transform="translate(208.832 0)">
        <g id="Grupo_60824" data-name="Grupo 60824">
          <path id="Trazado_138977" data-name="Trazado 138977" d="M70.26,28.13l.069,28.431L92.242,69.286l-.1-28.431Z" transform="translate(-70.26 3.422)" fill="#f5bc6f"/>
          <path id="Trazado_138978" data-name="Trazado 138978" d="M76.57,54.252l.1,28.431,54.644-31.552L131.248,22.7Z" transform="translate(-54.692 -9.975)" fill="#ffcf7a"/>
          <path id="Trazado_138979" data-name="Trazado 138979" d="M70.26,50.582,92.138,63.307l54.678-31.552L124.938,19.03Z" transform="translate(-70.26 -19.03)" fill="#fcd495"/>
        </g>
        <g id="Grupo_60826" data-name="Grupo 60826" transform="translate(62.792 16.608)">
          <path id="Trazado_138980" data-name="Trazado 138980" d="M100.263,36.2,88.37,43.063V30.685l11.893-6.865Z" transform="translate(-88.37 -23.82)" fill="#f1f2f2"/>
          <g id="Grupo_60825" data-name="Grupo 60825" transform="translate(1.352 2.115)">
            <path id="Trazado_138981" data-name="Trazado 138981" d="M91.944,28.209l-.624.381V24.811l.624-.381Z" transform="translate(-82.444 -24.43)" fill="#6d6e71"/>
            <path id="Trazado_138982" data-name="Trazado 138982" d="M91.584,28.419l-.624.381V25.021l.624-.381Z" transform="translate(-83.332 -23.912)" fill="#6d6e71"/>
            <path id="Trazado_138983" data-name="Trazado 138983" d="M91.249,28.629l-.659.381V25.231l.659-.381Z" transform="translate(-84.245 -23.394)" fill="#6d6e71"/>
            <path id="Trazado_138984" data-name="Trazado 138984" d="M90.854,29.567l-.624.347V25.407l.624-.347Z" transform="translate(-85.133 -22.876)" fill="#6d6e71"/>
            <path id="Trazado_138985" data-name="Trazado 138985" d="M90.494,29.049l-.624.347V25.617l.624-.347Z" transform="translate(-86.021 -22.358)" fill="#6d6e71"/>
            <path id="Trazado_138986" data-name="Trazado 138986" d="M90.134,29.259l-.624.347V25.827l.624-.347Z" transform="translate(-86.91 -21.839)" fill="#6d6e71"/>
            <path id="Trazado_138987" data-name="Trazado 138987" d="M89.774,30.163l-.624.381V26.037l.624-.347Z" transform="translate(-87.798 -21.321)" fill="#6d6e71"/>
            <path id="Trazado_138988" data-name="Trazado 138988" d="M89.439,29.679l-.659.347V26.247l.659-.347Z" transform="translate(-88.711 -20.803)" fill="#6d6e71"/>
            <path id="Trazado_138989" data-name="Trazado 138989" d="M98.33,27.337l-9.57,5.548V32.5l9.57-5.513Z" transform="translate(-88.76 -18.114)" fill="#6d6e71"/>
            <path id="Trazado_138990" data-name="Trazado 138990" d="M98.33,26.951l-9.57,5.513v-.347l9.57-5.548Z" transform="translate(-88.76 -19.15)" fill="#6d6e71"/>
            <path id="Trazado_138991" data-name="Trazado 138991" d="M98.33,26.507l-9.57,5.548v-.381l9.57-5.513Z" transform="translate(-88.76 -20.162)" fill="#6d6e71"/>
          </g>
        </g>
        <g id="Grupo_60834" data-name="Grupo 60834" transform="translate(24.548 50.899)">
          <g id="Grupo_60828" data-name="Grupo 60828" transform="translate(7.597 3.051)">
            <path id="Trazado_138992" data-name="Trazado 138992" d="M81.135,39.479h0a3.467,3.467,0,0,0,1.56-2.7V34.59L79.54,36.428v2.184A1,1,0,0,0,81.135,39.479Z" transform="translate(-79.509 -34.59)" fill="#cf9975"/>
            <g id="Grupo_60827" data-name="Grupo 60827" transform="translate(0 3.537)">
              <path id="Trazado_138993" data-name="Trazado 138993" d="M80.014,39.979a.277.277,0,0,0,0-.208V35.61h0a.277.277,0,0,0,0,.208v4.161Z" transform="translate(-78.389 -35.61)" fill="#cf9975"/>
              <path id="Trazado_138994" data-name="Trazado 138994" d="M79.562,38.571,82.613,36.8a.277.277,0,0,0,0-.243h0l-3.051,1.768a.347.347,0,0,0,0,.243S79.493,38.606,79.562,38.571Z" transform="translate(-79.531 -33.266)" fill="#cf9975"/>
            </g>
          </g>
          <g id="Grupo_60829" data-name="Grupo 60829" transform="translate(0 6.865)">
            <path id="Trazado_138995" data-name="Trazado 138995" d="M82.541,37.667a.9.9,0,0,1,.763,0c0-1.8-1.352-2.5-2.982-1.56a6.553,6.553,0,0,0-2.982,5.1,2.392,2.392,0,0,1,.867-.9.875.875,0,0,1,1.075.173,2.635,2.635,0,0,1,1.075-1.422c.485-.277.9-.208,1.11.173A2.5,2.5,0,0,1,82.541,37.667Z" transform="translate(-77.34 -35.69)" fill="#cf9975"/>
            <path id="Trazado_138996" data-name="Trazado 138996" d="M79.127,40.923l.52-.277a.312.312,0,0,0,0-.243h0l-.52.277a.509.509,0,0,1-.832-.451V36.45h0a.277.277,0,0,0,0,.208v3.71C78.017,40.992,78.537,41.269,79.127,40.923Z" transform="translate(-75.174 -33.814)" fill="#cf9975"/>
          </g>
          <g id="Grupo_60833" data-name="Grupo 60833" transform="translate(11.685)">
            <g id="Grupo_60830" data-name="Grupo 60830" transform="translate(3.779 2.254)">
              <path id="Trazado_138997" data-name="Trazado 138997" d="M82.05,36.752l.381-2.046,1.56-.347-.347.416.52.728a.485.485,0,0,1,0,.312L83.4,37.758,82.4,36.336Z" transform="translate(-81.183 -34.36)" fill="#cf9975"/>
              <path id="Trazado_138998" data-name="Trazado 138998" d="M82.979,35.05l.832,1.214L81.8,37.442v-1.7Z" transform="translate(-81.8 -32.658)" fill="#cf9975"/>
            </g>
            <g id="Grupo_60831" data-name="Grupo 60831" transform="translate(0 4.681)">
              <path id="Trazado_138999" data-name="Trazado 138999" d="M82.731,35.861V35.41L83.91,36l-1.179,1.976v-.52l-1.006.589h-.243L80.72,36.97Z" transform="translate(-80.685 -34.196)" fill="#cf9975"/>
              <path id="Trazado_139000" data-name="Trazado 139000" d="M80.71,37.66l1.006-2.6,1.283.1-.589,1.526Z" transform="translate(-80.71 -35.06)" fill="#cf9975"/>
            </g>
            <g id="Grupo_60832" data-name="Grupo 60832" transform="translate(1.526)">
              <path id="Trazado_139001" data-name="Trazado 139001" d="M81.5,36.226l.52-1.318a.555.555,0,0,1,.243-.312l1.526-.867-1.006,2.6h.312l-1.56,1.422-.381-1.595Z" transform="translate(-81.15 -33.661)" fill="#cf9975"/>
              <path id="Trazado_139002" data-name="Trazado 139002" d="M82.587,33.71l1.006,1.422-1.248,1.56-.624-.8Z" transform="translate(-79.744 -33.71)" fill="#cf9975"/>
            </g>
          </g>
        </g>
        <g id="Grupo_60835" data-name="Grupo 60835" transform="translate(9.431 5.721)">
          <path id="Trazado_139003" data-name="Trazado 139003" d="M128.144,20.68l3.017,1.734L76,54.1,72.98,52.37Z" transform="translate(-72.98 -20.68)" fill="#cf9975"/>
          <path id="Trazado_139004" data-name="Trazado 139004" d="M72.98,36.789,76,38.523V31.554L72.98,29.82Z" transform="translate(-72.98 1.87)" fill="#cf9975"/>
        </g>
      </g>
      <g id="Grupo_60849" data-name="Grupo 60849" transform="translate(59.082 111.263)">
        <g id="Grupo_60837" data-name="Grupo 60837">
          <path id="Trazado_139005" data-name="Trazado 139005" d="M27.07,54.78l.069,18.064,21.878,12.69L48.948,67.5Z" transform="translate(-27.07 -42.09)" fill="#f5bc6f"/>
          <path id="Trazado_139006" data-name="Trazado 139006" d="M33.38,67.5l.069,18.03,22.017-12.69L55.432,54.78Z" transform="translate(-11.502 -42.09)" fill="#ffcf7a"/>
          <path id="Trazado_139007" data-name="Trazado 139007" d="M27.07,63.81,48.948,76.535,71,63.81,49.087,51.12Z" transform="translate(-27.07 -51.12)" fill="#fcd495"/>
        </g>
        <g id="Grupo_60839" data-name="Grupo 60839" transform="translate(8.807 21.809)">
          <path id="Trazado_139008" data-name="Trazado 139008" d="M29.61,67.534l9.708,5.582V62.992L29.61,57.41Z" transform="translate(-29.61 -57.41)" fill="#f1f2f2"/>
          <g id="Grupo_60838" data-name="Grupo 60838" transform="translate(0.797 1.734)">
            <path id="Trazado_139009" data-name="Trazado 139009" d="M29.85,61l.52.277V58.187l-.52-.277Z" transform="translate(-29.815 -57.91)" fill="#6d6e71"/>
            <path id="Trazado_139010" data-name="Trazado 139010" d="M30.15,61.166l.52.312V58.392l-.52-.312Z" transform="translate(-29.075 -57.491)" fill="#6d6e71"/>
            <path id="Trazado_139011" data-name="Trazado 139011" d="M30.44,61.336l.52.312V58.562l-.52-.312Z" transform="translate(-28.36 -57.071)" fill="#6d6e71"/>
            <path id="Trazado_139012" data-name="Trazado 139012" d="M30.74,62.1l.52.312V58.732l-.52-.312Z" transform="translate(-27.619 -56.652)" fill="#6d6e71"/>
            <path id="Trazado_139013" data-name="Trazado 139013" d="M31.04,61.676l.485.312V58.9l-.485-.312Z" transform="translate(-26.879 -56.232)" fill="#6d6e71"/>
            <path id="Trazado_139014" data-name="Trazado 139014" d="M31.33,61.846l.52.312V59.072l-.52-.312Z" transform="translate(-26.164 -55.813)" fill="#6d6e71"/>
            <path id="Trazado_139015" data-name="Trazado 139015" d="M31.63,62.605l.485.312V59.242l-.485-.312Z" transform="translate(-25.424 -55.393)" fill="#6d6e71"/>
            <path id="Trazado_139016" data-name="Trazado 139016" d="M31.92,62.186l.52.312V59.412l-.52-.312Z" transform="translate(-24.708 -54.974)" fill="#6d6e71"/>
            <path id="Trazado_139017" data-name="Trazado 139017" d="M29.84,60.277l7.8,4.507v-.277L29.84,60Z" transform="translate(-29.84 -52.753)" fill="#6d6e71"/>
            <path id="Trazado_139018" data-name="Trazado 139018" d="M29.84,59.937l7.8,4.507v-.277l-7.8-4.507Z" transform="translate(-29.84 -53.592)" fill="#6d6e71"/>
            <path id="Trazado_139019" data-name="Trazado 139019" d="M29.84,59.6l7.8,4.507v-.277l-7.8-4.507Z" transform="translate(-29.84 -54.431)" fill="#6d6e71"/>
          </g>
        </g>
        <g id="Grupo_60847" data-name="Grupo 60847" transform="translate(30.546 25.727)">
          <g id="Grupo_60841" data-name="Grupo 60841" transform="translate(4.847 1.942)">
            <path id="Trazado_139020" data-name="Trazado 139020" d="M38.326,62.221h0a2.184,2.184,0,0,0,1.005-1.734V59.1l-2.046,1.179v1.387a.624.624,0,0,0,1.04.555Z" transform="translate(-37.278 -59.1)" fill="#cf9975"/>
            <g id="Grupo_60840" data-name="Grupo 60840" transform="translate(0.011 2.392)">
              <path id="Trazado_139021" data-name="Trazado 139021" d="M37.592,62.46h0V59.79h0v2.67Z" transform="translate(-36.59 -59.79)" fill="#cf9975"/>
              <path id="Trazado_139022" data-name="Trazado 139022" d="M37.312,61.52l1.942-1.109-1.942,1.144h0S37.243,61.554,37.312,61.52Z" transform="translate(-37.281 -58.26)" fill="#cf9975"/>
            </g>
          </g>
          <g id="Grupo_60842" data-name="Grupo 60842" transform="translate(0 4.353)">
            <path id="Trazado_139023" data-name="Trazado 139023" d="M39.209,61.094a.52.52,0,0,1,.485,0c0-1.179-.867-1.63-1.907-1.04a4.161,4.161,0,0,0-1.907,3.294,1.734,1.734,0,0,1,.52-.589.914.914,0,0,1,.693,0,1.8,1.8,0,0,1,.728-.936h.693a1.629,1.629,0,0,1,.693-.728Z" transform="translate(-35.88 -59.796)" fill="#cf9975"/>
            <path id="Trazado_139024" data-name="Trazado 139024" d="M37.04,63.044l.312-.208h0l-.312.173c-.312,0-.555,0-.555-.312V60.34h0v2.288C36.311,63.079,36.623,63.252,37.04,63.044Z" transform="translate(-34.508 -58.452)" fill="#cf9975"/>
          </g>
          <g id="Grupo_60846" data-name="Grupo 60846" transform="translate(7.489)">
            <g id="Grupo_60843" data-name="Grupo 60843" transform="translate(2.392 1.352)">
              <path id="Trazado_139025" data-name="Trazado 139025" d="M38.89,60.525l.381-1.352,1.006-.243-.208.277.312.451a.208.208,0,0,1,0,.208L39.9,61.114l-.624-.832Z" transform="translate(-38.335 -58.93)" fill="#cf9975"/>
              <path id="Trazado_139026" data-name="Trazado 139026" d="M39.493,59.4l.52.763-1.283.728V59.816Z" transform="translate(-38.73 -57.77)" fill="#cf9975"/>
            </g>
            <g id="Grupo_60844" data-name="Grupo 60844" transform="translate(0 2.982)">
              <path id="Trazado_139027" data-name="Trazado 139027" d="M39.224,59.907V59.63l.763.381-.763,1.248v-.347l-.659.381L38.08,60.6Z" transform="translate(-37.941 -58.833)" fill="#cf9975"/>
              <path id="Trazado_139028" data-name="Trazado 139028" d="M38.04,61.064l.624-1.664.832.069-.381.971Z" transform="translate(-38.04 -59.4)" fill="#cf9975"/>
            </g>
            <g id="Grupo_60845" data-name="Grupo 60845" transform="translate(0.832)">
              <path id="Trazado_139029" data-name="Trazado 139029" d="M38.627,60.135l.347-.832a.312.312,0,0,1,0-.208l.971-.555L39.32,60.2h.208l-1.006.936L38.28,60.1Z" transform="translate(-38.28 -58.54)" fill="#cf9975"/>
              <path id="Trazado_139030" data-name="Trazado 139030" d="M39.21,58.54l.659.9-.8,1.006-.381-.52Z" transform="translate(-37.268 -58.54)" fill="#cf9975"/>
            </g>
          </g>
        </g>
        <g id="Grupo_60848" data-name="Grupo 60848" transform="translate(9.639 5.513)">
          <path id="Trazado_139031" data-name="Trazado 139031" d="M55.126,65.4,52.11,67.134,29.85,54.444,32.9,52.71Z" transform="translate(-29.85 -52.71)" fill="#cf9975"/>
          <path id="Trazado_139032" data-name="Trazado 139032" d="M39.321,63.339,36.27,65.073V58.138l3.051-1.768Z" transform="translate(-14.01 -43.68)" fill="#cf9975"/>
        </g>
      </g>
    </g>
  </g>
</svg>
