<svg xmlns="http://www.w3.org/2000/svg" width="393.978" height="267.177" viewBox="0 0 393.978 267.177">
  <g id="Grupo_61276" data-name="Grupo 61276" transform="translate(-593 -821.245)">
    <g id="Image_Place_Holder" data-name="Image Place Holder" transform="translate(593 821.245)">
      <rect id="Image_Place_Holder-2" data-name="Image Place Holder" width="393.978" height="266.693" rx="10" fill="#57dbd8" opacity="0.13"/>
    </g>
    <g id="productos-02" transform="translate(656.609 821.79)">
      <rect id="Rectángulo_32914" data-name="Rectángulo 32914" width="267" height="267" transform="translate(-0.609 -0.368)" fill="none"/>
      <g id="Grupo_58797" data-name="Grupo 58797" transform="translate(43.098 18.777)">
        <g id="Grupo_58794" data-name="Grupo 58794" transform="translate(98.86)">
          <path id="Trazado_131127" data-name="Trazado 131127" d="M346.623,81.553c-4.261,6.709-6.922,5.765-13.525,17.316-12.217,21.414-13.827,27.05-11.813,37.732,1.889,10.013,8,9.556,12.115,5.991,9.175-7.982,21.8-29.608,24.363-37.759,2.12-6.749-1.814-11.587,1.086-18.691,2.133-5.233,11.973-19.542,14.727-25.187,5.193-10.554,4.013-15.9-1.774-18.358-4.78-2.027-11.157,3.007-14.634,13.516C354.352,64.485,350.374,75.633,346.623,81.553Z" transform="translate(-320.555 -42.155)" fill="#e89a23"/>
          <path id="Trazado_131128" data-name="Trazado 131128" d="M346.723,155.945c-4.279-2.053-9.459,1.468-16.239,14.354-4.638,8.78-9.707,18.948-7.694,28.034-.049.962-.16,1.845-.191,2.727,2.182,8.514,7.889,7.938,11.791,4.554C333.837,189.558,360,162.353,346.723,155.945Z" transform="translate(-321.547 -105.183)" fill="#ba6707"/>
          <path id="Trazado_131129" data-name="Trazado 131129" d="M344.109,168.623c-4.936,1.774-10.962,12.5-15.565,22.78-2.332,5.206-6.306,13.716-5.694,16.829.98,4.984,4.261,8.252,8.966,6.332a10.518,10.518,0,0,0,2.825-1.774c-.408-11.764,13.361-28.988,15.786-40.8C349.852,170.733,347.892,167.292,344.109,168.623Z" transform="translate(-321.798 -112.375)" fill="#d48115"/>
          <path id="Trazado_131130" data-name="Trazado 131130" d="M383.573,86.646c2.133-5.233,11.973-19.542,14.727-25.187,5.193-10.554,4.013-15.9-1.774-18.358,4.106,3.352.887,15.414-7.445,26.824-8.931,12.243-11.286,16.363-10.456,21.17.807,4.7,3.991,8.714-2.838,24.833-4.434,10.483-8.425,16.545-10.807,19.684,7.694-9.867,15.56-24.017,17.52-30.26C384.607,98.588,380.673,93.75,383.573,86.646Z" transform="translate(-345.28 -42.681)" fill="#d48115"/>
        </g>
        <path id="Trazado_131131" data-name="Trazado 131131" d="M134.372,199.975c8.159-2.275,12.332,2.186,12.332,2.186-1.725-11.9,8.638-20.008,17.995-14.106-2.173-16.651,25.445-27.121,36.149-8.47,3.41-9.37,16.514-5.641,16.243,1.419,2.763-10,24.039-7.055,23.316,7.915,0,0,10.643-12.589,16.8,1.206,0,0,9.676-.8,10.492,8.425S268.85,225.4,220,229.468s-102.594-8.146-100.692-13.028S129.787,201.257,134.372,199.975Z" transform="translate(-109.662 -113.13)" fill="#f7eac3"/>
        <path id="Trazado_131132" data-name="Trazado 131132" d="M263.7,376.5s6.55-10.141,8.377-26.389-3.641-20.252-3.641-20.252,5.818-9.476,3.641-20.044S261.518,282,261.518,282c-49.865,21.516-90.763,23.343-148.721,4.523-8.017,17.126-15.565,25.768-15.166,52.676.395,27.156,7.1,40.6,11.529,42.788,0,0-9.268,15.671-5.153,20.771s20.514-3.991,25.981-4.736,11.294,7.1,24.389,6.279a51.47,51.47,0,0,0,22.957-7.374s7.29,6.208,23.325,5.831,32.429-9.108,39.719-8.381,26.234,12.58,34.979,5.2S263.7,376.5,263.7,376.5Z" transform="translate(-97.616 -175.643)" fill="#e3a56f"/>
        <g id="Grupo_58795" data-name="Grupo 58795" transform="translate(0.015 118.866)">
          <path id="Trazado_131133" data-name="Trazado 131133" d="M263.722,392.2s4.807-7.45,7.33-19.8c-6.377,18.15-21.6,20.4-21.6,20.4s12.084,8.492,6.4,10.443-10.008-3.259-22.731-3.747-20.553,8.425-37.143,6.825c-21.467-2.1-4.878-17.192-4.878-17.192s-15.52,3.676-24.5,8.833c-15.742,9.02-32.393.931-39.71-8.368-9.9-12.58-5.366-46.517,5.889-74.4l-23.9-4.98c-6.368,12.518-11.529,22.265-11.215,44.668.395,27.156,7.1,40.6,11.529,42.788,0,0-9.268,15.671-5.153,20.771s20.514-3.991,25.981-4.736,11.294,7.1,24.389,6.279a51.47,51.47,0,0,0,22.957-7.374s7.29,6.208,23.325,5.831,32.429-9.108,39.719-8.381,26.234,12.58,34.979,5.2S263.722,392.2,263.722,392.2Z" transform="translate(-97.649 -310.21)" fill="#d18f56"/>
          <path id="Trazado_131134" data-name="Trazado 131134" d="M452.713,389.93c-9.015,11.915-24,19.569-24,19.569a70.966,70.966,0,0,0,27.657-10.864C455.387,391.9,452.713,389.93,452.713,389.93Z" transform="translate(-281.904 -354.579)" fill="#d18f56"/>
        </g>
        <path id="Trazado_131135" data-name="Trazado 131135" d="M247.78,214.03c5.1-2.74,22.549-3.055,25.861,13.636,3.14,15.831,3.406,30.238-2.421,34.247s-26.1,14.416-54.046,18.407c-50.88,7.272-106.523-1.064-112.926-6.785-4.794-4.3.333-37.865,4.962-42.162,7.9-7.357,15.738-7.5,15.738-7.5s-12.017,6.377-3.991,12.926,26.748,12.35,68.334,9.463c49.377-3.406,62.6-17.445,65.549-24.669C257.2,215.817,247.78,214.03,247.78,214.03Z" transform="translate(-100.237 -137.025)" fill="#edb482"/>
        <g id="Grupo_58796" data-name="Grupo 58796" transform="translate(49.942 75.97)">
          <path id="Trazado_131136" data-name="Trazado 131136" d="M325.268,227.375c-2.421-7.831-10.935-9.609-18.123-5.72,0-5.321-3.938-8.461-9.175-8.159,2.865.355,6.031,2.013,7.046,4.567.949,2.137.39,4.749.12,6.59,2.572-1.255,9.49-5.406,15.472-.887,2.505,2.519,2.568,3.175,3.822,7.33,1.494-1.849,3.454-5.636,10.381-3.321a14.141,14.141,0,0,1,4.279,2.594C334.434,224.794,328.239,224.794,325.268,227.375Z" transform="translate(-259.067 -213.475)" fill="#f2c041"/>
          <path id="Trazado_131137" data-name="Trazado 131137" d="M223.88,238.7c-4.261-2.062-11.56-.656-13.64,6.026,2.395-2.989,3.747-3.924,7.02-4.727,4.359-.616,5.578.443,8.492,2.04-.031-3.224-.257-3.428,1.481-5.765a7.243,7.243,0,0,1,2.08-1.716,5.924,5.924,0,0,1,3.437-.723C228.421,232.063,224.572,235.934,223.88,238.7Z" transform="translate(-210.24 -224.558)" fill="#f2c041"/>
        </g>
      </g>
    </g>
  </g>
</svg>
