<svg xmlns="http://www.w3.org/2000/svg" width="708" height="345" viewBox="0 0 708 345">
  <g id="img3" transform="translate(-700 -4079)">
    <rect id="Rectángulo_30531" data-name="Rectángulo 30531" width="708" height="345" rx="18" transform="translate(700 4079)" fill="#f2f6fe"/>
    <g id="maquinaria-02" transform="translate(943 4128)">
      <g id="Grupo_60854" data-name="Grupo 60854" transform="translate(192.338 209.803)">
        <g id="Grupo_60852" data-name="Grupo 60852" transform="translate(2.244 9.006)">
          <g id="Grupo_60850" data-name="Grupo 60850" transform="translate(5.64)">
            <path id="Trazado_139033" data-name="Trazado 139033" d="M82.216,91.69V89.9a.728.728,0,0,1,0-.243,1.761,1.761,0,0,1,0-.425v-.182a.618.618,0,0,0-.243-.576h0a3.941,3.941,0,0,1-.243-.515h0l-.273-.515h0a5.274,5.274,0,0,0-.334-.546h0l-.273-.394a.546.546,0,0,1,0-.212l-.243-.3-1.243-.819h-.212l-.364-.394-.152-.394h-.182l-.3-.273h-.182l-.334-.273h-.182l-.515-.3a7.237,7.237,0,0,0-.667-.364H76.06l-.455-.637H73.877a.516.516,0,0,0-.3,0H73.21l3.608-2.092h2.638a3.642,3.642,0,0,1,.7.334l.515.334.364.243h.182l.3.273.182.182h0l.364.394h0a.818.818,0,0,1,.212.243l.152.182h0l.152.212h0a1.7,1.7,0,0,1,0,.243h0l.273.455h0l.182.334a.243.243,0,0,1,0,.152h0v.364h0l.182.485h0v.849h0v.546h0v.212a1.786,1.786,0,0,1,0,.425h0v.273a.394.394,0,0,0,0,.182v.606A4.124,4.124,0,0,1,82,91.2l-.364.243-3.578,2.092a3.821,3.821,0,0,0,1.577-3.487,4.062,4.062,0,0,0,0-.606,1.709,1.709,0,0,0,2.577,2.244Z" transform="translate(-71.421 -80.44)" fill="#231f20"/>
            <path id="Trazado_139034" data-name="Trazado 139034" d="M78.048,81.822c-3.032-1.728-5.428-.364-5.428,3.032a11.826,11.826,0,0,0,5.4,9.37c3.032,1.728,5.458.334,5.458-3.032A11.947,11.947,0,0,0,78.048,81.822Z" transform="translate(-72.62 -79.154)" fill="#2b2b2b"/>
          </g>
          <g id="Grupo_60851" data-name="Grupo 60851" transform="translate(0 3.972)">
            <path id="Trazado_139035" data-name="Trazado 139035" d="M80.4,92.545v-.819a1.092,1.092,0,0,0,0-.3.88.88,0,0,0,0-.273V89.907a4.668,4.668,0,0,1-.243-.576h0l-.273-.546h0l-.273-.485h0a3.578,3.578,0,0,0-.334-.576v-.152L79,87.178V87a2.3,2.3,0,0,1-.243-.334l-.212-.243-.212-.243L76.97,85.54l-.243-.212-.182-.182-.3-.273-.182-.152-.334-.243h-.182l-.515-.334-.667-.334H71.33l3.578-2.062h2.517l.7.334.515.334h0L79,82.66h.182l.3.273.182.182h0l.364.394h0l.212.243.152.182h0l.152.182h0a1.694,1.694,0,0,0,0,.243v.152h0l.273.455h0L81,85.3h0l.182.394h0l.182.485h0v.455a.575.575,0,0,1,0,.212h0a.94.94,0,0,0,0,.243.881.881,0,0,0,0,.273h0a.516.516,0,0,0,0,.212,2.061,2.061,0,0,1,0,.425h0v.455a4.272,4.272,0,0,1,0,.606A4.063,4.063,0,0,1,80.154,92.3l2.3,2.335L78.85,96.729a3.79,3.79,0,0,0,1.607-3.487v-.606Z" transform="translate(-69.602 -81.75)" fill="#231f20"/>
            <path id="Trazado_139036" data-name="Trazado 139036" d="M76.188,82.979c-3.032-1.728-5.428-.334-5.428,3.032a11.826,11.826,0,0,0,5.4,9.37c3.032,1.759,5.428.364,5.458-3.032A11.947,11.947,0,0,0,76.188,82.979Z" transform="translate(-70.76 -80.765)" fill="#2b2b2b"/>
          </g>
        </g>
        <g id="Grupo_60853" data-name="Grupo 60853">
          <path id="Trazado_139037" data-name="Trazado 139037" d="M70.02,79.39l.03,9.916,13.767,8.005-.03-9.916Z" transform="translate(-70.02 -73.568)" fill="#e67e22"/>
          <path id="Trazado_139038" data-name="Trazado 139038" d="M74.56,85.932l.03,9.916L84.718,90l-.03-9.885Z" transform="translate(-60.793 -72.105)" fill="#ffa800"/>
          <path id="Trazado_139039" data-name="Trazado 139039" d="M70.02,83.292,83.787,91.3l10.128-5.822L80.148,77.47Z" transform="translate(-70.02 -77.47)" fill="#dcb102"/>
        </g>
      </g>
      <g id="Grupo_60859" data-name="Grupo 60859" transform="translate(140.031 240.095)">
        <g id="Grupo_60857" data-name="Grupo 60857" transform="translate(2.244 9.643)">
          <g id="Grupo_60855" data-name="Grupo 60855" transform="translate(5.64)">
            <path id="Trazado_139040" data-name="Trazado 139040" d="M64.956,101.253v-.394a2.062,2.062,0,0,0,0-.425v-.3a.879.879,0,0,1,0-.273v-.394a.576.576,0,0,0,0-.212,2.667,2.667,0,0,0,0-.455v-.182a4.672,4.672,0,0,0-.243-.576h0a4.31,4.31,0,0,0-.243-.546h0l-.243-.485h0l-.334-.576-.273-.394v-.182a2.307,2.307,0,0,0-.243-.334l-1.274-.758-.212-.243-.364-.394-.212-.212-.182-.182-.3-.273h-.212l-.334-.243h0l-.515-.334-.7-.334H56.344l-.364.152,3.608-2.062h2.547l.667.334.515.334H63.5l.334.243.182.152.3.273.182.182h0l.364.394h0a.819.819,0,0,0,.212.243v.182h0l.152.182h0l.182.243v.152h0l.273.455h0l.182.334h0l.182.394h0a.7.7,0,0,0,.212.485h0v.273a.425.425,0,0,0,0,.182.576.576,0,0,0,0,.212h0a1.351,1.351,0,1,1,1.91,1.91.879.879,0,0,1,0,.273h0a.516.516,0,0,1,0,.212v.7a.394.394,0,0,1,0,.182,4.275,4.275,0,0,1,0,.607,4.063,4.063,0,0,1-1.243,3.244l-.334.243-3.608,2.092a3.821,3.821,0,0,0,2.153-3.305,4.063,4.063,0,0,0,0-.606Z" transform="translate(-54.13 -90.64)" fill="#231f20"/>
            <path id="Trazado_139041" data-name="Trazado 139041" d="M60.828,91.809c-3.032-1.728-5.458-.334-5.458,3.032a11.947,11.947,0,0,0,5.428,9.37c3.032,1.759,5.428.364,5.428-3.032A11.826,11.826,0,0,0,60.828,91.809Z" transform="translate(-55.37 -89.777)" fill="#2b2b2b"/>
          </g>
          <g id="Grupo_60856" data-name="Grupo 60856" transform="translate(0 3.487)">
            <path id="Trazado_139042" data-name="Trazado 139042" d="M63.157,102.433v-1.122a.879.879,0,0,1,0-.273,1.516,1.516,0,0,1,0-.394v-.819a5.06,5.06,0,0,0-.243-.606h0a1.154,1.154,0,0,0-.243-.515v-.182l-.273-.485h0l-.364-.546v-.182l-.273-.364v-.212l-.243-.3-.212-.273-.212-.243L59.7,95.459l-.212-.243-.182-.182-.334-.243-.182-.152-.334-.273H58.3l-.515-.334-.7-.334H54.454l-.364.182L57.7,91.79H60.64l.667.334.515.334H62l.334.273h.182l.3.273H63l.364.394h0l.212.273h0v.152l.152.212h0l.182.273v.152h0l.3.455h0l.182.334h0v.182h0l.182.394h0l.182.485h0v.819h0v.243a.879.879,0,0,1,0,.273h0a.4.4,0,0,1,0,.182v.424h0a.849.849,0,0,1,0,.273v.788a4.063,4.063,0,0,1-1.243,3.245l-.364.243-3.578,2.092a3.76,3.76,0,0,0,1.577-3.487,3.672,3.672,0,0,0,0-.576Z" transform="translate(-52.331 -91.79)" fill="#231f20"/>
            <path id="Trazado_139043" data-name="Trazado 139043" d="M58.968,92.969C55.936,91.24,53.51,92.635,53.51,96a12.129,12.129,0,0,0,5.4,9.37c3.032,1.728,5.458.334,5.458-3.032a11.947,11.947,0,0,0-5.4-9.37Z" transform="translate(-53.51 -90.907)" fill="#2b2b2b"/>
          </g>
        </g>
        <g id="Grupo_60858" data-name="Grupo 60858">
          <path id="Trazado_139044" data-name="Trazado 139044" d="M52.77,89.38,52.8,99.3,66.567,107.3l-.03-9.916Z" transform="translate(-52.77 -83.558)" fill="#e67e22"/>
          <path id="Trazado_139045" data-name="Trazado 139045" d="M57.31,95.922l.03,9.916,10.128-5.852-.03-9.885Z" transform="translate(-43.543 -82.095)" fill="#ffa800"/>
          <path id="Trazado_139046" data-name="Trazado 139046" d="M52.77,93.282l13.767,8.005,10.128-5.822L62.9,87.46Z" transform="translate(-52.77 -87.46)" fill="#dcb102"/>
        </g>
      </g>
      <g id="Grupo_60864" data-name="Grupo 60864" transform="translate(15.768 136.392)">
        <g id="Grupo_60861" data-name="Grupo 60861">
          <path id="Trazado_139047" data-name="Trazado 139047" d="M34.51,53.26V58.2l13.615,7.914V61.174Z" transform="translate(34.384 -53.26)" fill="#c59e02"/>
          <path id="Trazado_139048" data-name="Trazado 139048" d="M33.76,65.027,33.79,70l15.859-9.188V55.87Z" transform="translate(32.859 -47.956)" fill="#896e01"/>
          <path id="Trazado_139049" data-name="Trazado 139049" d="M21.51,80.358l.03,4.943L58.686,63.863l-.03-4.973Z" transform="translate(7.964 -41.818)" fill="#eaa61f"/>
          <path id="Trazado_139050" data-name="Trazado 139050" d="M16.29,75.1V80.07l15.859-9.157-.03-4.943Z" transform="translate(-2.645 -27.43)" fill="#896e01"/>
          <path id="Trazado_139051" data-name="Trazado 139051" d="M11.79,93.043l13.645,7.884L41.264,91.8,78.409,70.332,94.3,61.174,80.684,53.26Z" transform="translate(-11.79 -53.26)" fill="#ffe24e"/>
          <path id="Trazado_139052" data-name="Trazado 139052" d="M36.034,53.26l13.615,7.914-15.889,9.1,117.471,68.317c6.065,3.548,14.494,4.366,18.83,1.85s3.032-7.49-3.032-11.007Z" transform="translate(32.859 -53.26)" fill="#ffe24e"/>
          <g id="Grupo_60860" data-name="Grupo 60860" transform="translate(66.619 17.072)">
            <path id="Trazado_139053" data-name="Trazado 139053" d="M151.231,127.146v4.973L33.79,63.863l-.03-4.973Z" transform="translate(-33.76 -58.89)" fill="#ffa800"/>
            <path id="Trazado_139054" data-name="Trazado 139054" d="M74.8,84.005l.819.3,1.637.606a26.563,26.563,0,0,0,3.032.758,18.594,18.594,0,0,0,2.214.334h0a20.444,20.444,0,0,0,2.335,0h.182a13.82,13.82,0,0,0,2.274-.182h0a12.551,12.551,0,0,0,1.971-.424h.243a8.4,8.4,0,0,0,1.668-.728A4.579,4.579,0,0,0,93.817,80.7v4.973a4.579,4.579,0,0,1-2.638,3.942,8.005,8.005,0,0,1-1.152.546,3.853,3.853,0,0,1-.546.182H89l-.91.212H82.628a4.932,4.932,0,0,1-1.971-.273h-.243a22.556,22.556,0,0,1-3.032-.758h0a4.642,4.642,0,0,1-1.486-.546l-.849-.334a20.863,20.863,0,0,1-2.547-.97V82.823a20.62,20.62,0,0,0,2.3,1.183Z" transform="translate(44.971 -14.566)" fill="#ffa800"/>
          </g>
        </g>
        <g id="Grupo_60863" data-name="Grupo 60863" transform="translate(0 38.631)">
          <g id="Grupo_60862" data-name="Grupo 60862" transform="translate(0 1.152)">
            <path id="Trazado_139055" data-name="Trazado 139055" d="M25.435,74.264l117.653,68.378v4.973L25.435,79.237,11.82,71.323l-.03-4.943Z" transform="translate(-11.79 -66.38)" fill="#ffa800"/>
            <path id="Trazado_139056" data-name="Trazado 139056" d="M57.3,94.135a6.521,6.521,0,0,0,.819.3l1.607.606a22.553,22.553,0,0,0,3.032.758L65,96.167h2.547a13.832,13.832,0,0,0,2.274-.182h0A9.854,9.854,0,0,0,71.8,95.53h.243a8.4,8.4,0,0,0,1.668-.728,4.579,4.579,0,0,0,2.638-3.972V95.8a4.579,4.579,0,0,1-2.638,3.942,7.674,7.674,0,0,1-1.122.546l-.576.182h-.455l-.91.243H65.066l-1.971-.273h-.243a26.686,26.686,0,0,1-3.032-.788h0l-1.486-.576-.849-.334a20.865,20.865,0,0,1-2.335-1.152V92.953A15.313,15.313,0,0,0,57.3,94.135Z" transform="translate(76.33 -16.691)" fill="#ffa800"/>
          </g>
          <path id="Trazado_139057" data-name="Trazado 139057" d="M16.29,75.1l117.653,68.347c6.065,3.548,14.525,4.366,18.83,1.88s3.032-7.49-3.032-11.007L32.119,66Z" transform="translate(-2.645 -66)" fill="#ffe24e"/>
        </g>
      </g>
      <g id="Grupo_60869" data-name="Grupo 60869" transform="translate(0 0)">
        <g id="Grupo_60867" data-name="Grupo 60867">
          <g id="Grupo_60865" data-name="Grupo 60865" transform="translate(21.954 42.573)">
            <path id="Trazado_139058" data-name="Trazado 139058" d="M17.2,23.783,13.83,22.6,31.023,139.646l3.336,1.183Z" transform="translate(-13.83 -21.751)" fill="#333233"/>
            <path id="Trazado_139059" data-name="Trazado 139059" d="M18.742,23.5,15.376,22.32l-1.546.849L17.2,24.352Z" transform="translate(-13.83 -22.32)" fill="#363537"/>
            <path id="Trazado_139060" data-name="Trazado 139060" d="M14.94,23.559,32.1,140.6l1.577-.849L16.486,22.71Z" transform="translate(-11.574 -21.527)" fill="#262527"/>
          </g>
          <g id="Grupo_60866" data-name="Grupo 60866">
            <path id="Trazado_139061" data-name="Trazado 139061" d="M9.71,52.421a8.431,8.431,0,0,0,1.516.334h0a7.126,7.126,0,0,0,1.607,0h0a12.4,12.4,0,0,0,1.7-.394h0A9.1,9.1,0,0,0,16.32,51.6L37.546,39.928A12.585,12.585,0,0,0,39.608,38.5h0a17.164,17.164,0,0,0,1.819-1.819h0a19.466,19.466,0,0,0,1.455-1.971l.364-.637c.334-.576.667-1.152.97-1.789l.212-.425c.334-.788.637-1.607.91-2.426v-.212a20.681,20.681,0,0,0,.606-2.638h0a21.226,21.226,0,0,0,.243-2.759h0a21.226,21.226,0,0,0-.182-2.759l-1.274-8.551a4.124,4.124,0,0,0-.3-1.092h0a3.79,3.79,0,0,0-.455-.849h0a2.274,2.274,0,0,0-.03-.849l-.182-.182A2.577,2.577,0,0,0,43,9.15h0L46.34,10.3a2.578,2.578,0,0,1,.758.394l.182.182.364.334v.152h0a.667.667,0,0,1,.152.243.91.91,0,0,1,0,.243v.243h0a.243.243,0,0,1,0,.152.425.425,0,0,1,0,.212.425.425,0,0,1,0,.212,1.942,1.942,0,0,1,0,.212v.212h0l1.274,8.551v.3a3.729,3.729,0,0,1,0,.576v1.941a2.79,2.79,0,0,1,0,.485,4.485,4.485,0,0,1,0,.637,4.549,4.549,0,0,1,0,.667v.97h0v.425l-.182.788a1.444,1.444,0,0,1-.212.91,3.3,3.3,0,0,1,0,.515v.212a1.091,1.091,0,0,1,0,.334,14.008,14.008,0,0,1-.7,1.88V32.5a2.76,2.76,0,0,0-.212.425c-.152.334-.3.667-.485,1l-.485.788-.364.637a3.03,3.03,0,0,1-.243.334,11.765,11.765,0,0,1-.7,1,4.942,4.942,0,0,1-.515.606h0l-.546.606-.485,1.122-.485.455-.182.152h0l-.243.212-.485.364-.455.334-.485.273-.394.243L19.989,52.724h0l-.455.243-.455.212-.485.182H14.349l-.879-.212h0Z" transform="translate(-0.249 -6.512)" fill="#222122"/>
            <path id="Trazado_139062" data-name="Trazado 139062" d="M47.324,9.2c3.457-1.88,6.762,0,7.4,4.366L56,22.205C57.33,31.059,52.63,41.4,45.5,45.311L24.278,56.955c-7.1,3.912-13.949,0-15.161-8.945L7.843,39.459A11.614,11.614,0,0,1,12.816,28.27ZM11.239,46.676c1.092,7.338,6.732,10.643,12.645,7.429L45.11,42.43a19.8,19.8,0,0,0,8.672-19.1l-1.274-8.551c-.425-2.759-2.577-4-4.761-2.79L13.21,30.938a7.429,7.429,0,0,0-3.245,7.217Z" transform="translate(-4.265 -7.893)" fill="#262627"/>
            <path id="Trazado_139063" data-name="Trazado 139063" d="M6.59,36.965h0V33.721h0v-.182a9.1,9.1,0,0,1,.394-1.092s0,0,0-.152a.91.91,0,0,0,0-.243l.273-.576c0-.152.212-.3.3-.485l.212-.364v-.182L8.2,29.87l.3-.394h0l.334-.364.3-.3.3-.273h0l.3-.212.273-.182.273-.182h.243L46.313,8.432h0l.273-.152H50.1l3.336,1.152-.91-.212H51.5a3.942,3.942,0,0,0-1,.212h0l-1.031.455L15.141,28.657a6.7,6.7,0,0,0-1.213.849H13.9a8.763,8.763,0,0,0-1.061,1.061h0c-.3.364-.576.758-.849,1.152l-.212.364a11.826,11.826,0,0,0-.576,1.061v.243a11.522,11.522,0,0,0-.546,1.425h0a14.252,14.252,0,0,0-.364,1.546h0a15.162,15.162,0,0,0,0,1.607h0a9.915,9.915,0,0,0,0,1.637l1.274,8.551a16.1,16.1,0,0,0,.364,1.819h0c.152.546.334,1.061.515,1.577h0l.637,1.395h0a10.552,10.552,0,0,0,.7,1.152l.273.394.455.515a11.158,11.158,0,0,0,1.637,1.546l.273.182a9.1,9.1,0,0,0,2.032,1.031l-3.336-1.152a9.1,9.1,0,0,1-2.032-1.031l-.364.364A9.734,9.734,0,0,1,11.078,54.4l-.152-.152a2.85,2.85,0,0,1-.273-.364l-.3-.364a1.061,1.061,0,0,0,0-.243l-.515-.819h0l-.273-.546-.3-.728h0l-.182-.455a.941.941,0,0,0-.212-.7c-.212-.243,0-.273,0-.425v-.94a5.155,5.155,0,0,1,0-.667s0-.243,0-.334L7.591,39.118V38.6a1.365,1.365,0,0,1,0-.334,1.486,1.486,0,0,0,0-.364v-.425Z" transform="translate(-6.59 -8.28)" fill="#2f2e30"/>
          </g>
        </g>
        <g id="Grupo_60868" data-name="Grupo 60868" transform="translate(21.165 105.523)">
          <path id="Trazado_139064" data-name="Trazado 139064" d="M46.137,51.535,37.252,46.35,13.57,107.481l8.885,5.185Z" transform="translate(-13.57 -36.434)" fill="#eaa61f"/>
          <path id="Trazado_139065" data-name="Trazado 139065" d="M47.458,48.235,38.573,43.08,21.38,53l8.885,5.185Z" transform="translate(2.302 -43.08)" fill="#ffe24e"/>
          <path id="Trazado_139066" data-name="Trazado 139066" d="M40.182,54.726,16.5,115.857,81.33,78.438,57.375,44.78Z" transform="translate(-7.615 -39.625)" fill="#fdd506"/>
        </g>
      </g>
    </g>
  </g>
</svg>
