<svg xmlns="http://www.w3.org/2000/svg" width="393.978" height="267.177" viewBox="0 0 393.978 267.177">
  <g id="Image_Place_Holder" data-name="Image Place Holder" transform="translate(0.021)">
    <rect id="Image_Place_Holder-2" data-name="Image Place Holder" width="393.978" height="266.693" rx="10" transform="translate(-0.021)" fill="#57dbd8" opacity="0.13"/>
    <g id="productos-03" transform="translate(64.83 0.545)">
      <rect id="Rectángulo_32915" data-name="Rectángulo 32915" width="267" height="267" transform="translate(-0.852 -0.368)" fill="none"/>
      <g id="Grupo_58804" data-name="Grupo 58804" transform="translate(9.325 93.628)">
        <g id="Grupo_58799" data-name="Grupo 58799" transform="translate(79.193)">
          <path id="Trazado_131138" data-name="Trazado 131138" d="M348.331,227.2c-24.465-15.543-38.97-15.587-79.087-8.119-47.985,8.931-73.558,9.84-62.082,32.083,0,0-2.709,46.473,1.605,53.656,5.3,8.829,47.665,21.205,61.789,20.842S352.1,311.7,357.4,307.109c6.124-5.321,8.722-31.3,8.483-51.377C365.86,255.75,378.339,246.265,348.331,227.2Z" transform="translate(-202.434 -212.776)" fill="#e89a23"/>
          <path id="Trazado_131139" data-name="Trazado 131139" d="M269.857,267.4s85.806-9.592,93.486-13.476c6.248-3.162,11.121-12.039-14.864-29.267-14.944-9.906-29.373-14.718-47.679-13.529-27.937,1.809-66.995,8.754-83.185,13.272-15.742,4.395-23.258,14.048-12.993,24.935C210.676,255.76,269.857,267.4,269.857,267.4Z" transform="translate(-199.916 -210.95)" fill="#d48115"/>
          <path id="Trazado_131140" data-name="Trazado 131140" d="M355.691,224.657c-14.944-9.906-29.373-14.718-47.679-13.529-27.937,1.809-66.995,8.754-83.185,13.272a42.572,42.572,0,0,0-8.678,3.423c-6.124,4.656-4.514,13.6,12.19,19.7,21.525,7.871,30.185,9.707,89.633,1.437,27.3-3.8,46.034-7.237,54.441-9.831C369.5,235.14,364.289,230.355,355.691,224.657Z" transform="translate(-207.128 -210.95)" fill="#ba6707"/>
          <path id="Trazado_131141" data-name="Trazado 131141" d="M279.257,282.5c0-17.76-31.165-25.236-52.423-27.05-14.035-1.206-17.476,7.946-12.314,17.959-.514,8.731-2.16,47.275,1.14,52.769,4.3,7.175,41.927,19.733,56.2,19.4,2.523-.062,4.656,0,5.428-4.723,2.43-14.753-.563-48.734-.563-48.734A24.006,24.006,0,0,0,279.257,282.5Z" transform="translate(-206.779 -235.655)" fill="#f7eac3"/>
          <g id="Grupo_58798" data-name="Grupo 58798" transform="translate(43.583 64.002)">
            <ellipse id="Elipse_4306" data-name="Elipse 4306" cx="1.011" cy="1.011" rx="1.011" ry="1.011" transform="translate(10.465 31.861)" fill="#e89a23"/>
            <path id="Trazado_131142" data-name="Trazado 131142" d="M299.193,361.14a.989.989,0,1,0,.7.29.993.993,0,0,0-.7-.29Z" transform="translate(-298.2 -358.541)" fill="#e89a23"/>
            <path id="Trazado_131143" data-name="Trazado 131143" d="M306.919,411a1.3,1.3,0,1,0,1.3,1.3,1.3,1.3,0,0,0-1.3-1.3Z" transform="translate(-302.33 -386.292)" fill="#e89a23"/>
            <path id="Trazado_131144" data-name="Trazado 131144" d="M325.074,381.8a1.02,1.02,0,1,0,.724.3A1.024,1.024,0,0,0,325.074,381.8Z" transform="translate(-312.587 -370.04)" fill="#e89a23"/>
            <path id="Trazado_131145" data-name="Trazado 131145" d="M317.259,355.28a1.3,1.3,0,1,0,1.3,1.3A1.3,1.3,0,0,0,317.259,355.28Z" transform="translate(-308.085 -355.28)" fill="#e89a23"/>
            <path id="Trazado_131146" data-name="Trazado 131146" d="M320.311,400.67a1.432,1.432,0,1,0,1.014.421A1.437,1.437,0,0,0,320.311,400.67Z" transform="translate(-309.704 -380.542)" fill="#e89a23"/>
            <path id="Trazado_131147" data-name="Trazado 131147" d="M302.085,384.73a1.645,1.645,0,1,0,1.645,1.641A1.645,1.645,0,0,0,302.085,384.73Z" transform="translate(-299.447 -371.671)" fill="#e89a23"/>
          </g>
          <path id="Trazado_131148" data-name="Trazado 131148" d="M409.685,258.579c-26.105,3.845-39.546,5.884-35.75,10.532,2.018,2.474,18.265-.585,38.788-3.8,25.72-4.035,34.291-3.885,34.145-6.873C446.589,253.537,433.609,255.058,409.685,258.579Z" transform="translate(-296.416 -235.644)" fill="#d48115"/>
        </g>
        <g id="Grupo_58801" data-name="Grupo 58801" transform="translate(0 77.886)">
          <path id="Trazado_131149" data-name="Trazado 131149" d="M55.887,411.709c-18.531,0-35.183-2.528-34.54,14.212C22.172,447.4,36.158,441.7,36.158,441.7s5.627,1.33,29.746,1.33c38.726,0,43.1,1.4,43.32-1.06s1.432-28.185-.443-28.633C103.574,412.1,68.911,411.709,55.887,411.709Z" transform="translate(-21.329 -400.495)" fill="#ba6707"/>
          <g id="Grupo_58800" data-name="Grupo 58800" transform="translate(0)">
            <path id="Trazado_131150" data-name="Trazado 131150" d="M57.407,389.29c-18.531,0-29.569,2.5-32.69,17.157-4.177,19.613,12.962,12.838,12.962,12.838s4.182,2.581,28.3,2.59c38.73,0,41.032,1.082,41.24-1.375s4.958-29.121,3.091-29.564C105.095,389.689,70.431,389.29,57.407,389.29Z" transform="translate(-22.85 -388.093)" fill="#f7eac3"/>
            <path id="Trazado_131151" data-name="Trazado 131151" d="M98.342,421.8c-2.08,0-4.732-.031-8.111-.071-6.022-.071-14.274-.164-25.79-.169-20.079,0-26.549-1.774-28.354-2.5-1.774.612-7.982,2.381-11.84-.86-2.878-2.434-3.632-6.984-2.239-13.516,3.242-15.219,14.4-18.1,33.861-18.1,9.161,0,47.421.3,53.182,1.676,1.7.408,2.35,1.69-1.472,26.163-.364,2.324-.647,4.155-.7,4.669-.186,2.08-1.867,2.4-3.57,2.563C102.214,421.773,100.626,421.8,98.342,421.8Zm-62.082-5.352.51.31c.151.084,4.687,2.408,27.671,2.412,11.529,0,19.791.1,25.817.173,8.589.1,13.4.155,14.226-.319a1.2,1.2,0,0,0,0-.137c.053-.59.315-2.27.714-4.82.887-5.738,3.215-20.562,2.767-23.578-6.151-1.06-36.566-1.5-52.078-1.5-18.624,0-28.6,2.505-31.52,16.208-1.193,5.605-.71,9.365,1.437,11.188,3.335,2.825,9.853.315,9.915.288Z" transform="translate(-21.33 -386.59)" fill="#ba6707"/>
          </g>
        </g>
        <g id="Grupo_58803" data-name="Grupo 58803" transform="translate(20.894 63.551)">
          <path id="Trazado_131152" data-name="Trazado 131152" d="M238.985,391.152c2.115,2.851,3.84,7.139,3.623,8.425-.656,3.933-11.086,30.855-14.243,31.041s-9.787-20.132-9.787-20.132C218.4,410.739,235.26,386.132,238.985,391.152Z" transform="translate(-152.004 -374.418)" fill="#d48115"/>
          <path id="Trazado_131153" data-name="Trazado 131153" d="M84.3,362.89c-8.913,5.414-13.747,7.264-15.662,21.125-1.273,9.268,4.049,15.5,12.917,13.654,0,0,12.86,2.151,29.507,6.155,16.314,3.9,31.156,11.441,33.75,11.441,1.109,0,.2-6.851-4.74-22.172C135.08,377.572,84.3,362.89,84.3,362.89Z" transform="translate(-68.448 -359.065)" fill="#e89a23"/>
          <path id="Trazado_131154" data-name="Trazado 131154" d="M157.069,373.355c-.022-2.5-12.026-9.556-34.739-13.747-25.414-4.692-34.752-3.188-42.929,5.8-9.787,10.753-5.947,16.691-2.4,19.205,4.621,3.273,8.31,1.109,8.31,1.109s14,4.47,32.34,9.042c18.873,4.7,26.292,8.346,28.5,8.159C147.991,402.768,157.091,376.548,157.069,373.355Z" transform="translate(-71.085 -355.792)" fill="#f7eac3"/>
          <path id="Trazado_131155" data-name="Trazado 131155" d="M120.66,359.255c21.285,3.924,31.041,10.159,34.766,13.9a21.821,21.821,0,0,0,.652-2.661c-3.02-3.911-15.813-10.066-34.983-13.6-25.516-4.709-35.391-3.326-44.034,6.164-15.139,16.633.058,25.356,6.94,22.38,2.47.559,60.5,20.137,61.008,15.751-.568.08-1.14.093-4.4-1.193-7.317-2.882-56.947-17.064-56.947-17.064-4.292,2.412-10.2-1.37-10.687-6.062-.368-3.406,1.6-7.507,5.858-12.186C86.776,355.951,96.16,354.736,120.66,359.255Z" transform="translate(-69.632 -354.263)" fill="#e89a23"/>
          <g id="Grupo_58802" data-name="Grupo 58802" transform="translate(48.58 22.016)">
            <path id="Trazado_131156" data-name="Trazado 131156" d="M232.888,421.11a1.007,1.007,0,1,0,.641-.434A1.011,1.011,0,0,0,232.888,421.11Z" transform="translate(-208.455 -413.231)" fill="#d48115"/>
            <path id="Trazado_131157" data-name="Trazado 131157" d="M189.893,423.385a.989.989,0,1,0,.63-.423A.989.989,0,0,0,189.893,423.385Z" transform="translate(-184.527 -414.504)" fill="#d48115"/>
            <path id="Trazado_131158" data-name="Trazado 131158" d="M210.935,427.4a1.3,1.3,0,1,0,1.8-.359A1.3,1.3,0,0,0,210.935,427.4Z" transform="translate(-196.208 -416.661)" fill="#d48115"/>
            <path id="Trazado_131159" data-name="Trazado 131159" d="M178.217,406.72a1.295,1.295,0,1,0,.825-.556A1.3,1.3,0,0,0,178.217,406.72Z" transform="translate(-178 -405.151)" fill="#d48115"/>
            <path id="Trazado_131160" data-name="Trazado 131160" d="M202.819,404.55a1.432,1.432,0,1,0,1.987-.4A1.432,1.432,0,0,0,202.819,404.55Z" transform="translate(-191.68 -403.912)" fill="#d48115"/>
          </g>
        </g>
      </g>
    </g>
  </g>
</svg>
