<svg xmlns="http://www.w3.org/2000/svg" xmlns:xlink="http://www.w3.org/1999/xlink" width="329.611" height="266.315" viewBox="0 0 329.611 266.315">
  <defs>
    <linearGradient id="linear-gradient" y1="0.5" x2="1" y2="0.5" gradientUnits="objectBoundingBox">
      <stop offset="0" stop-color="#dae3fe"/>
      <stop offset="1" stop-color="#e9effd"/>
    </linearGradient>
    <linearGradient id="linear-gradient-2" x1="0.613" y1="-7.73" x2="0.533" y2="-1.918" gradientUnits="objectBoundingBox">
      <stop offset="0" stop-color="#09005d"/>
      <stop offset="1" stop-color="#1a0f91"/>
    </linearGradient>
    <linearGradient id="linear-gradient-3" x1="7.605" y1="53.93" x2="7.986" y2="44.031" xlink:href="#linear-gradient-2"/>
    <linearGradient id="linear-gradient-4" x1="7.566" y1="62.083" x2="7.952" y2="51.292" xlink:href="#linear-gradient-2"/>
    <linearGradient id="linear-gradient-5" x1="-9.952" y1="-0.137" x2="-7.221" y2="0.033" xlink:href="#linear-gradient-2"/>
    <linearGradient id="linear-gradient-6" x1="14.037" y1="0.059" x2="10.43" y2="0.179" xlink:href="#linear-gradient-2"/>
    <linearGradient id="linear-gradient-7" x1="-0.439" y1="1.771" x2="1.817" y2="-1.305" gradientUnits="objectBoundingBox">
      <stop offset="0" stop-color="#fe7062"/>
      <stop offset="1" stop-color="#ff928e"/>
    </linearGradient>
    <linearGradient id="linear-gradient-8" x1="-1258.006" y1="-0.167" x2="-1275.986" y2="3.361" xlink:href="#linear-gradient-2"/>
    <linearGradient id="linear-gradient-9" x1="-1597.956" y1="-0.086" x2="-1620.798" y2="3.378" xlink:href="#linear-gradient-2"/>
    <linearGradient id="linear-gradient-10" x1="-1415.324" y1="-0.016" x2="-1435.55" y2="3.449" xlink:href="#linear-gradient-2"/>
    <linearGradient id="linear-gradient-11" x1="-963.028" y1="0.12" x2="-976.78" y2="3.389" xlink:href="#linear-gradient-2"/>
    <linearGradient id="linear-gradient-12" x1="-2255.057" y1="0.174" x2="-2287.238" y2="3.702" xlink:href="#linear-gradient-2"/>
    <linearGradient id="linear-gradient-13" x1="-1438.601" y1="0.231" x2="-1459.129" y2="3.733" xlink:href="#linear-gradient-2"/>
    <linearGradient id="linear-gradient-14" x1="-838.45" y1="-0.199" x2="-850.442" y2="2.964" xlink:href="#linear-gradient-2"/>
    <linearGradient id="linear-gradient-15" x1="-1.03" y1="2.576" x2="1.226" y2="-0.5" gradientUnits="objectBoundingBox">
      <stop offset="0" stop-color="#ff928e"/>
      <stop offset="1" stop-color="#feb3b1"/>
    </linearGradient>
    <linearGradient id="linear-gradient-16" x1="-1258.022" y1="-0.165" x2="-1276.003" y2="3.358" xlink:href="#linear-gradient-2"/>
    <linearGradient id="linear-gradient-17" x1="-1597.983" y1="-0.087" x2="-1620.825" y2="3.377" xlink:href="#linear-gradient-2"/>
    <linearGradient id="linear-gradient-18" x1="-1415.324" y1="-0.016" x2="-1435.55" y2="3.445" xlink:href="#linear-gradient-2"/>
    <linearGradient id="linear-gradient-19" x1="-957.062" y1="0.125" x2="-970.729" y2="3.379" xlink:href="#linear-gradient-2"/>
    <linearGradient id="linear-gradient-20" x1="-2250.426" y1="0.177" x2="-2282.541" y2="3.689" xlink:href="#linear-gradient-2"/>
    <linearGradient id="linear-gradient-21" x1="-1433.122" y1="0.231" x2="-1453.582" y2="3.732" xlink:href="#linear-gradient-2"/>
    <linearGradient id="linear-gradient-22" x1="-838.27" y1="-0.19" x2="-850.259" y2="2.95" xlink:href="#linear-gradient-2"/>
    <linearGradient id="linear-gradient-23" x1="0.162" y1="0.952" x2="2.418" y2="-2.124" xlink:href="#linear-gradient-7"/>
    <linearGradient id="linear-gradient-24" x1="-1268.6" y1="-0.164" x2="-1286.732" y2="3.352" xlink:href="#linear-gradient-2"/>
    <linearGradient id="linear-gradient-25" x1="-1597.954" y1="-0.083" x2="-1620.785" y2="3.377" xlink:href="#linear-gradient-2"/>
    <linearGradient id="linear-gradient-26" x1="-1415.344" y1="-0.012" x2="-1435.56" y2="3.448" xlink:href="#linear-gradient-2"/>
    <linearGradient id="linear-gradient-27" x1="-960.265" y1="0.12" x2="-973.977" y2="3.389" xlink:href="#linear-gradient-2"/>
    <linearGradient id="linear-gradient-28" x1="-2255.113" y1="0.178" x2="-2287.294" y2="3.702" xlink:href="#linear-gradient-2"/>
    <linearGradient id="linear-gradient-29" x1="-1419.112" y1="0.234" x2="-1439.362" y2="3.736" xlink:href="#linear-gradient-2"/>
    <linearGradient id="linear-gradient-30" x1="-834.252" y1="-0.181" x2="-846.189" y2="2.934" xlink:href="#linear-gradient-2"/>
    <linearGradient id="linear-gradient-31" x1="0.012" y1="0.887" x2="3.642" y2="-2.068" xlink:href="#linear-gradient-15"/>
    <linearGradient id="linear-gradient-32" x1="-1258.689" y1="-0.177" x2="-1276.688" y2="3.358" xlink:href="#linear-gradient-2"/>
    <linearGradient id="linear-gradient-33" x1="-1581.498" y1="-0.09" x2="-1604.094" y2="3.373" xlink:href="#linear-gradient-2"/>
    <linearGradient id="linear-gradient-34" x1="-1415.314" y1="-0.025" x2="-1435.53" y2="3.459" xlink:href="#linear-gradient-2"/>
    <linearGradient id="linear-gradient-35" x1="-957.046" y1="0.121" x2="-970.719" y2="3.393" xlink:href="#linear-gradient-2"/>
    <linearGradient id="linear-gradient-36" x1="-2221.454" y1="0.167" x2="-2253.17" y2="3.71" xlink:href="#linear-gradient-2"/>
    <linearGradient id="linear-gradient-37" x1="-1419.639" y1="0.227" x2="-1439.896" y2="3.73" xlink:href="#linear-gradient-2"/>
    <linearGradient id="linear-gradient-38" x1="-838.129" y1="-0.19" x2="-850.116" y2="2.95" xlink:href="#linear-gradient-2"/>
    <linearGradient id="linear-gradient-39" x1="-0.718" y1="1.481" x2="2.912" y2="-1.474" xlink:href="#linear-gradient-7"/>
    <linearGradient id="linear-gradient-40" x1="-1258.706" y1="-0.174" x2="-1276.696" y2="3.361" xlink:href="#linear-gradient-2"/>
    <linearGradient id="linear-gradient-41" x1="-1581.203" y1="-0.086" x2="-1603.794" y2="3.376" xlink:href="#linear-gradient-2"/>
    <linearGradient id="linear-gradient-42" x1="-1415.303" y1="-0.021" x2="-1435.52" y2="3.462" xlink:href="#linear-gradient-2"/>
    <linearGradient id="linear-gradient-43" x1="-957.203" y1="0.125" x2="-970.872" y2="3.384" xlink:href="#linear-gradient-2"/>
    <linearGradient id="linear-gradient-44" x1="-2254.036" y1="0.176" x2="-2286.218" y2="3.695" xlink:href="#linear-gradient-2"/>
    <linearGradient id="linear-gradient-45" x1="-1419.629" y1="0.231" x2="-1439.896" y2="3.733" xlink:href="#linear-gradient-2"/>
    <linearGradient id="linear-gradient-46" x1="-838.282" y1="-0.19" x2="-850.271" y2="2.95" xlink:href="#linear-gradient-2"/>
    <linearGradient id="linear-gradient-47" x1="-1.447" y1="2.074" x2="2.183" y2="-0.881" xlink:href="#linear-gradient-15"/>
    <linearGradient id="linear-gradient-48" x1="-1247.468" y1="-0.165" x2="-1265.297" y2="3.354" xlink:href="#linear-gradient-2"/>
    <linearGradient id="linear-gradient-49" x1="-1669.777" y1="-0.086" x2="-1693.634" y2="3.377" xlink:href="#linear-gradient-2"/>
    <linearGradient id="linear-gradient-50" x1="-1415.345" y1="-0.016" x2="-1435.571" y2="3.449" xlink:href="#linear-gradient-2"/>
    <linearGradient id="linear-gradient-51" x1="-963.019" y1="0.121" x2="-976.77" y2="3.394" xlink:href="#linear-gradient-2"/>
    <linearGradient id="linear-gradient-52" x1="-2254.587" y1="0.175" x2="-2286.762" y2="3.699" xlink:href="#linear-gradient-2"/>
    <linearGradient id="linear-gradient-53" x1="-1437.391" y1="0.231" x2="-1457.902" y2="3.732" xlink:href="#linear-gradient-2"/>
    <linearGradient id="linear-gradient-54" x1="-834.255" y1="-0.181" x2="-846.187" y2="2.935" xlink:href="#linear-gradient-2"/>
    <linearGradient id="linear-gradient-55" x1="-2.154" y1="2.65" x2="1.476" y2="-0.304" xlink:href="#linear-gradient-15"/>
    <linearGradient id="linear-gradient-56" x1="-1267.914" y1="-0.165" x2="-1286.036" y2="3.358" xlink:href="#linear-gradient-2"/>
    <linearGradient id="linear-gradient-57" x1="-1597.207" y1="-0.087" x2="-1620.027" y2="3.377" xlink:href="#linear-gradient-2"/>
    <linearGradient id="linear-gradient-59" x1="-963.038" y1="0.121" x2="-976.79" y2="3.389" xlink:href="#linear-gradient-2"/>
    <linearGradient id="linear-gradient-60" x1="-2255.213" y1="0.175" x2="-2287.396" y2="3.699" xlink:href="#linear-gradient-2"/>
    <linearGradient id="linear-gradient-61" x1="-1433.094" y1="0.231" x2="-1453.543" y2="3.732" xlink:href="#linear-gradient-2"/>
    <linearGradient id="linear-gradient-62" x1="-834.521" y1="-0.182" x2="-846.462" y2="2.933" xlink:href="#linear-gradient-2"/>
    <linearGradient id="linear-gradient-63" x1="-2.851" y1="3.218" x2="0.779" y2="0.263" xlink:href="#linear-gradient-15"/>
    <linearGradient id="linear-gradient-64" x1="-1257.997" y1="-0.165" x2="-1275.977" y2="3.358" xlink:href="#linear-gradient-2"/>
    <linearGradient id="linear-gradient-65" x1="-1597.93" y1="-0.087" x2="-1620.772" y2="3.377" xlink:href="#linear-gradient-2"/>
    <linearGradient id="linear-gradient-66" x1="-1415.283" y1="-0.016" x2="-1435.499" y2="3.445" xlink:href="#linear-gradient-2"/>
    <linearGradient id="linear-gradient-68" x1="-2255.109" y1="0.175" x2="-2287.29" y2="3.699" xlink:href="#linear-gradient-2"/>
    <linearGradient id="linear-gradient-69" x1="-1433.165" y1="0.231" x2="-1453.625" y2="3.732" xlink:href="#linear-gradient-2"/>
    <linearGradient id="linear-gradient-70" x1="-838.515" y1="-0.19" x2="-850.508" y2="2.95" xlink:href="#linear-gradient-2"/>
    <linearGradient id="linear-gradient-71" x1="-0.138" y1="1.411" x2="0.581" y2="0.373" xlink:href="#linear-gradient-15"/>
    <linearGradient id="linear-gradient-73" x1="-1581.203" y1="-0.087" x2="-1603.794" y2="3.376" xlink:href="#linear-gradient-2"/>
    <linearGradient id="linear-gradient-74" x1="-1415.303" y1="-0.021" x2="-1435.52" y2="3.458" xlink:href="#linear-gradient-2"/>
    <linearGradient id="linear-gradient-75" x1="-957.062" y1="0.125" x2="-970.729" y2="3.379" xlink:href="#linear-gradient-2"/>
    <linearGradient id="linear-gradient-76" x1="-2255.094" y1="0.175" x2="-2287.29" y2="3.699" xlink:href="#linear-gradient-2"/>
    <linearGradient id="linear-gradient-77" x1="-1419.649" y1="0.227" x2="-1439.917" y2="3.746" xlink:href="#linear-gradient-2"/>
    <linearGradient id="linear-gradient-78" x1="-838.434" y1="-0.191" x2="-850.425" y2="2.95" xlink:href="#linear-gradient-2"/>
    <linearGradient id="linear-gradient-79" x1="0.324" y1="0.763" x2="1.066" y2="-0.384" xlink:href="#linear-gradient-7"/>
    <linearGradient id="linear-gradient-80" x1="-1257.981" y1="-0.165" x2="-1275.961" y2="3.358" xlink:href="#linear-gradient-2"/>
    <linearGradient id="linear-gradient-81" x1="-1597.157" y1="-0.086" x2="-1619.988" y2="3.378" xlink:href="#linear-gradient-2"/>
    <linearGradient id="linear-gradient-82" x1="-1415.951" y1="-0.016" x2="-1436.186" y2="3.449" xlink:href="#linear-gradient-2"/>
    <linearGradient id="linear-gradient-83" x1="-957.179" y1="0.116" x2="-970.848" y2="3.405" xlink:href="#linear-gradient-2"/>
    <linearGradient id="linear-gradient-84" x1="-2255.083" y1="0.174" x2="-2287.264" y2="3.702" xlink:href="#linear-gradient-2"/>
    <linearGradient id="linear-gradient-85" x1="-1438.65" y1="0.229" x2="-1459.178" y2="3.739" xlink:href="#linear-gradient-2"/>
    <linearGradient id="linear-gradient-86" x1="-838.104" y1="-0.186" x2="-850.09" y2="2.954" xlink:href="#linear-gradient-2"/>
    <linearGradient id="linear-gradient-87" x1="0.183" y1="0.98" x2="0.924" y2="-0.167" xlink:href="#linear-gradient-7"/>
    <linearGradient id="linear-gradient-88" x1="3.693" y1="-3.189" x2="3.69" y2="-1.41" xlink:href="#linear-gradient-2"/>
    <linearGradient id="linear-gradient-89" x1="4.649" y1="-0.593" x2="4.632" y2="1.119" xlink:href="#linear-gradient-2"/>
    <linearGradient id="linear-gradient-90" x1="5.285" y1="-1.492" x2="5.269" y2="1.872" xlink:href="#linear-gradient-2"/>
    <linearGradient id="linear-gradient-91" x1="1.565" y1="-0.22" x2="0.897" y2="0.282" xlink:href="#linear-gradient-2"/>
    <linearGradient id="linear-gradient-92" x1="52.436" y1="-1.121" x2="51.518" y2="0.823" xlink:href="#linear-gradient-2"/>
    <linearGradient id="linear-gradient-93" x1="129.65" y1="-1.006" x2="127.364" y2="0.938" xlink:href="#linear-gradient-2"/>
    <linearGradient id="linear-gradient-94" x1="129.58" y1="-0.944" x2="127.295" y2="0.999" xlink:href="#linear-gradient-2"/>
    <linearGradient id="linear-gradient-95" x1="129.507" y1="-0.883" x2="127.222" y2="1.061" xlink:href="#linear-gradient-2"/>
    <linearGradient id="linear-gradient-96" x1="-49.444" y1="-30.6" x2="-49.306" y2="-30.6" xlink:href="#linear-gradient-2"/>
    <linearGradient id="linear-gradient-97" x1="-38.591" y1="-24.549" x2="-38.328" y2="-24.549" xlink:href="#linear-gradient-2"/>
    <linearGradient id="linear-gradient-98" x1="-367.982" y1="-37.396" x2="-370.288" y2="-36.419" gradientUnits="objectBoundingBox">
      <stop offset="0" stop-color="#4042e2"/>
      <stop offset="1" stop-color="#4f52ff"/>
    </linearGradient>
    <linearGradient id="linear-gradient-99" x1="-91.493" y1="-61.724" x2="-90.493" y2="-61.724" xlink:href="#linear-gradient-98"/>
    <linearGradient id="linear-gradient-100" x1="-56.329" y1="-40.363" x2="-56.285" y2="-40.684" xlink:href="#linear-gradient-2"/>
    <linearGradient id="linear-gradient-101" x1="-45.072" y1="-32.368" x2="-43.865" y2="-32.368" xlink:href="#linear-gradient-2"/>
    <linearGradient id="linear-gradient-102" x1="-80.646" y1="-60.627" x2="-80.777" y2="-59.807" xlink:href="#linear-gradient-98"/>
    <linearGradient id="linear-gradient-103" x1="-111.391" y1="-77.907" x2="-110.391" y2="-77.907" xlink:href="#linear-gradient-98"/>
    <linearGradient id="linear-gradient-104" x1="82.371" y1="-18.671" x2="83.413" y2="-18.671" xlink:href="#linear-gradient-2"/>
    <linearGradient id="linear-gradient-105" x1="178.545" y1="-29.655" x2="176.912" y2="-28.105" xlink:href="#linear-gradient-98"/>
    <linearGradient id="linear-gradient-106" x1="771.956" y1="-45.063" x2="777.934" y2="-46.889" xlink:href="#linear-gradient-2"/>
    <linearGradient id="linear-gradient-107" x1="179.935" y1="-38" x2="178.581" y2="-38.02" xlink:href="#linear-gradient-98"/>
    <linearGradient id="linear-gradient-108" x1="190.254" y1="-42.761" x2="188.825" y2="-42.784" xlink:href="#linear-gradient-98"/>
    <linearGradient id="linear-gradient-109" x1="336.415" y1="-49.27" x2="337.113" y2="-49.27" xlink:href="#linear-gradient-2"/>
    <linearGradient id="linear-gradient-110" x1="4.354" y1="-1.258" x2="3.05" y2="-0.664" xlink:href="#linear-gradient-2"/>
    <linearGradient id="linear-gradient-111" x1="0.476" y1="-3.128" x2="0.488" y2="-1.345" xlink:href="#linear-gradient-2"/>
    <linearGradient id="linear-gradient-112" x1="0.499" y1="0.53" x2="0.377" y2="4.689" xlink:href="#linear-gradient-98"/>
    <linearGradient id="linear-gradient-113" x1="0.589" y1="-0.288" x2="0.421" y2="1.468" gradientUnits="objectBoundingBox">
      <stop offset="0" stop-color="#fe7062"/>
      <stop offset="0.53" stop-color="#fe7164"/>
      <stop offset="0.72" stop-color="#fe776b"/>
      <stop offset="0.86" stop-color="#fe8076"/>
      <stop offset="0.97" stop-color="#ff8d87"/>
      <stop offset="1" stop-color="#ff928e"/>
    </linearGradient>
    <linearGradient id="linear-gradient-114" x1="1734.989" y1="0.499" x2="1735.997" y2="0.499" xlink:href="#linear-gradient-2"/>
    <linearGradient id="linear-gradient-115" x1="2169.11" y1="0.5" x2="2170.11" y2="0.5" xlink:href="#linear-gradient-2"/>
    <linearGradient id="linear-gradient-116" x1="1923.201" y1="0.503" x2="1924.186" y2="0.503" xlink:href="#linear-gradient-2"/>
    <linearGradient id="linear-gradient-117" x1="1322.447" y1="0.499" x2="1323.45" y2="0.499" xlink:href="#linear-gradient-2"/>
    <linearGradient id="linear-gradient-118" x1="3031.813" y1="0.503" x2="3032.798" y2="0.503" xlink:href="#linear-gradient-2"/>
    <linearGradient id="linear-gradient-119" x1="1961.687" y1="0.499" x2="1962.697" y2="0.499" xlink:href="#linear-gradient-2"/>
    <linearGradient id="linear-gradient-120" x1="1144.751" y1="0.5" x2="1145.751" y2="0.5" xlink:href="#linear-gradient-2"/>
    <linearGradient id="linear-gradient-121" x1="0.444" y1="0.588" x2="1.074" y2="-0.16" xlink:href="#linear-gradient-7"/>
    <linearGradient id="linear-gradient-122" x1="1886.573" y1="0.499" x2="1887.572" y2="0.499" xlink:href="#linear-gradient-2"/>
    <linearGradient id="linear-gradient-123" x1="2378.809" y1="0.5" x2="2379.797" y2="0.5" xlink:href="#linear-gradient-2"/>
    <linearGradient id="linear-gradient-124" x1="2139.969" y1="0.5" x2="2140.968" y2="0.5" xlink:href="#linear-gradient-2"/>
    <linearGradient id="linear-gradient-125" x1="1440.688" y1="0.499" x2="1441.685" y2="0.499" xlink:href="#linear-gradient-2"/>
    <linearGradient id="linear-gradient-126" x1="3431.43" y1="0.499" x2="3432.446" y2="0.499" xlink:href="#linear-gradient-2"/>
    <linearGradient id="linear-gradient-127" x1="2141.653" y1="0.499" x2="2142.658" y2="0.499" xlink:href="#linear-gradient-2"/>
    <linearGradient id="linear-gradient-128" x1="1255.423" y1="0.5" x2="1256.422" y2="0.5" xlink:href="#linear-gradient-2"/>
    <linearGradient id="linear-gradient-129" x1="67.408" y1="0.07" x2="66.271" y2="0.631" gradientUnits="objectBoundingBox">
      <stop offset="0" stop-color="#a22b25"/>
      <stop offset="1" stop-color="#c0423c"/>
    </linearGradient>
    <linearGradient id="linear-gradient-130" x1="218.389" y1="0.447" x2="214.656" y2="1.666" xlink:href="#linear-gradient-129"/>
    <linearGradient id="linear-gradient-131" x1="-30.33" y1="-3.339" x2="-29.566" y2="-12.957" xlink:href="#linear-gradient-98"/>
    <linearGradient id="linear-gradient-132" x1="946.863" y1="0.501" x2="947.869" y2="0.501" xlink:href="#linear-gradient-15"/>
    <linearGradient id="linear-gradient-133" x1="271.29" y1="0.859" x2="269.922" y2="2.23" xlink:href="#linear-gradient-2"/>
    <linearGradient id="linear-gradient-134" x1="-69.826" y1="-3.626" x2="-67.934" y2="-14.889" xlink:href="#linear-gradient-98"/>
    <linearGradient id="linear-gradient-135" x1="1091.167" y1="0.497" x2="1092.167" y2="0.497" xlink:href="#linear-gradient-15"/>
    <linearGradient id="linear-gradient-136" x1="218.981" y1="0.821" x2="217.876" y2="2.175" xlink:href="#linear-gradient-2"/>
    <linearGradient id="linear-gradient-137" x1="81.915" y1="0.49" x2="80.961" y2="1.767" xlink:href="#linear-gradient-98"/>
    <linearGradient id="linear-gradient-138" x1="314.896" y1="1.454" x2="316.396" y2="-0.217" xlink:href="#linear-gradient-129"/>
    <linearGradient id="linear-gradient-139" x1="25.174" y1="0.459" x2="26.551" y2="0.658" xlink:href="#linear-gradient-129"/>
    <linearGradient id="linear-gradient-140" x1="-282.827" y1="-53.991" x2="-282.593" y2="-52.851" xlink:href="#linear-gradient-2"/>
    <linearGradient id="linear-gradient-141" x1="81.724" y1="-0.088" x2="86.205" y2="0.874" xlink:href="#linear-gradient-129"/>
    <linearGradient id="linear-gradient-142" x1="221.417" y1="-0.01" x2="225.081" y2="5.421" xlink:href="#linear-gradient-98"/>
    <linearGradient id="linear-gradient-143" x1="226.35" y1="-1.612" x2="230.098" y2="12.827" xlink:href="#linear-gradient-98"/>
    <linearGradient id="linear-gradient-144" x1="176.543" y1="0.468" x2="174.485" y2="3.286" xlink:href="#linear-gradient-98"/>
    <linearGradient id="linear-gradient-145" x1="141.239" y1="-1.694" x2="132.968" y2="3.791" xlink:href="#linear-gradient-2"/>
    <linearGradient id="linear-gradient-146" x1="161.674" y1="-1.496" x2="152.6" y2="4.145" xlink:href="#linear-gradient-2"/>
    <linearGradient id="linear-gradient-147" x1="35.484" y1="-0.201" x2="32.759" y2="4.529" xlink:href="#linear-gradient-2"/>
    <linearGradient id="linear-gradient-148" x1="37.635" y1="-4.017" x2="36.618" y2="5.492" xlink:href="#linear-gradient-2"/>
    <linearGradient id="linear-gradient-149" x1="206.431" y1="0.5" x2="207.431" y2="0.5" xlink:href="#linear-gradient-129"/>
    <linearGradient id="linear-gradient-150" x1="662.889" y1="0.499" x2="663.889" y2="0.499" xlink:href="#linear-gradient-129"/>
  </defs>
  <g id="Illustration" transform="translate(-21.867)">
    <g id="Grupo_54826" data-name="Grupo 54826" transform="translate(21.867 0)">
      <path id="Trazado_118739" data-name="Trazado 118739" d="M276.558,27.149c-8.577,3.743-17.054,8.364-25.757,11.518-7.971,2.88-16.732,2.183-25.006,1.681-17.527-1.051-34.891-5-51.957-10.306-23.37-7.279-46.62-20.961-70.785-22.005-15.538-.67-28.764,3.476-39.615,18.925a45.9,45.9,0,0,0-7.15,14.733c-2.83,10.869.253,24.778,2.754,35.291,3.423,14.378,10.346,35.291.5,47.908-8.211,10.534-17.818,17-23.945,30.329-5.463,11.86-8.249,25.836-8.622,39.7-.411,15.864,2.122,31.595,6.038,46.522,3.689,14.063,8.521,22.769,19.207,28.93,10.163,5.846,24.039,3.127,34.808,3.127H235.238c22.625,0,45.975,2.136,68.505-.67,10.984-1.38,22.3-4.44,31.309-13.2,9.3-9.047,14.856-23.914,15.266-38.9.549-20.411-9.474-38.526-9.9-58.382-.215-10.554,3.322-23.217,5.192-33.483q3.038-16.688,6.91-33.088c1.857-7.869,3.872-15.818,4.017-24.041.328-18.195-9-35.224-21.336-43.863s-27.115-9.784-40.916-6.7a98.05,98.05,0,0,0-17.723,5.967Z" transform="translate(-26.931 -7.969)" fill="url(#linear-gradient)"/>
      <rect id="Rectángulo_29565" data-name="Rectángulo 29565" width="241.113" height="215.485" transform="translate(22.58 28.488)" fill="#91b3fa"/>
      <g id="Grupo_54801" data-name="Grupo 54801" transform="translate(16.841 11.425)">
        <g id="Grupo_54778" data-name="Grupo 54778" transform="translate(0)">
          <rect id="Rectángulo_29566" data-name="Rectángulo 29566" width="238.703" height="7.527" transform="translate(240.725 193.092) rotate(180)" fill="url(#linear-gradient-2)"/>
          <rect id="Rectángulo_29567" data-name="Rectángulo 29567" width="242.955" height="7.219" transform="translate(244.977 117.225) rotate(180)" fill="url(#linear-gradient-3)"/>
          <rect id="Rectángulo_29568" data-name="Rectángulo 29568" width="240.551" height="6.623" transform="translate(242.573 59.065) rotate(180)" fill="url(#linear-gradient-4)"/>
          <path id="Trazado_118740" data-name="Trazado 118740" d="M.033,0H7.614V248.165h0A7.614,7.614,0,0,1,0,240.551V0Z" transform="translate(7.614 248.165) rotate(180)" fill="url(#linear-gradient-5)"/>
          <path id="Trazado_118741" data-name="Trazado 118741" d="M0,0H8.4V240.457a8.4,8.4,0,0,1-8.4,8.4H0Z" transform="translate(246.899 249.893) rotate(180)" fill="url(#linear-gradient-6)"/>
        </g>
        <g id="Grupo_54800" data-name="Grupo 54800" transform="translate(8.558 16.908)">
          <g id="Grupo_54780" data-name="Grupo 54780" transform="translate(59.004 57.025)">
            <path id="Trazado_118742" data-name="Trazado 118742" d="M188.232,171.338a5.5,5.5,0,0,1-5.612-5.5v-24.49a5.88,5.88,0,0,1,5.806-5.873c9.657-.1,29.572-.107,45.872,1.266a4.406,4.406,0,0,1,4.018,4.239l1.52,23.679a5.6,5.6,0,0,1-5.491,5.806Z" transform="translate(-182.62 -135.432)" fill="url(#linear-gradient-7)"/>
            <path id="Trazado_118743" data-name="Trazado 118743" d="M190.991,147.308c-.047,2.083,0,5.391.067,7.527a1.889,1.889,0,0,0,2.109,1.828l7.949-.931a1.889,1.889,0,0,0,1.641-2.156l-.971-6.509a1.888,1.888,0,0,0-1.868-1.607h-7.065a1.888,1.888,0,0,0-1.862,1.848Z" transform="translate(-185.379 -138.744)" fill="#fff"/>
            <path id="Trazado_118744" data-name="Trazado 118744" d="M221.343,156.373l6.63.717a1.487,1.487,0,0,0,1.647-1.594l-1.446-19.722c-2.779-.087-5.518-.154-8.163-.194v19.306a1.493,1.493,0,0,0,1.333,1.487Z" transform="translate(-194.971 -135.481)" fill="#fff" opacity="0.37"/>
            <path id="Trazado_118745" data-name="Trazado 118745" d="M225.5,153a.67.67,0,0,0,.67.629h.04a.67.67,0,0,0,.623-.71l-1-17.21H224.5Z" transform="translate(-196.454 -135.524)" fill="#fff"/>
            <g id="Grupo_54779" data-name="Grupo 54779" transform="translate(7.326 8.689)">
              <path id="Trazado_118746" data-name="Trazado 118746" d="M196.172,154.6a.221.221,0,0,1-.221-.208l-.342-5.418a.221.221,0,0,1,.208-.234.214.214,0,0,1,.234.208l.348,5.418a.221.221,0,0,1-.208.234Z" transform="translate(-194.237 -148.516)" fill="url(#linear-gradient-8)"/>
              <path id="Trazado_118747" data-name="Trazado 118747" d="M197.312,154.546a.214.214,0,0,1-.221-.214l-.181-5.525a.221.221,0,0,1,.214-.228.208.208,0,0,1,.228.214l.181,5.525a.221.221,0,0,1-.214.228Z" transform="translate(-194.667 -148.463)" fill="url(#linear-gradient-9)"/>
              <path id="Trazado_118748" data-name="Trazado 118748" d="M198.692,154.547a.214.214,0,0,1-.221-.208c-.047-.911-.261-5.444-.261-5.538a.221.221,0,0,1,.442,0c0,.121.174,3.663.261,5.518a.214.214,0,0,1-.214.228Zm-.04-5.746Z" transform="translate(-195.096 -148.464)" fill="url(#linear-gradient-10)"/>
              <path id="Trazado_118749" data-name="Trazado 118749" d="M200.848,154.717a.442.442,0,0,1-.442-.429c-.188-5.357-.154-5.478-.134-5.558a.442.442,0,0,1,.542-.308.449.449,0,0,1,.328.489c0,.321.08,3.435.147,5.357a.442.442,0,0,1-.429.462Z" transform="translate(-195.772 -148.406)" fill="url(#linear-gradient-11)"/>
              <path id="Trazado_118750" data-name="Trazado 118750" d="M202.471,154.6a.221.221,0,0,1-.221-.221v-5.418a.221.221,0,1,1,.442,0v5.418A.221.221,0,0,1,202.471,154.6Z" transform="translate(-196.431 -148.517)" fill="url(#linear-gradient-12)"/>
              <path id="Trazado_118751" data-name="Trazado 118751" d="M203.5,154.578a.214.214,0,0,1-.221-.214c-.04-1.882-.141-4.962-.234-5.357a.234.234,0,0,1,0-.228.221.221,0,0,1,.308-.067c.121.08.234.154.355,5.612a.214.214,0,0,1-.214.228Z" transform="translate(-196.684 -148.496)" fill="url(#linear-gradient-13)"/>
              <path id="Trazado_118752" data-name="Trazado 118752" d="M194.3,155.006a.435.435,0,0,1-.442-.422l-.3-5.692a.449.449,0,0,1,.891-.047l.295,5.692a.442.442,0,0,1-.422.469Z" transform="translate(-193.56 -148.427)" fill="url(#linear-gradient-14)"/>
            </g>
          </g>
          <g id="Grupo_54782" data-name="Grupo 54782" transform="translate(117.52 57.001)">
            <path id="Trazado_118753" data-name="Trazado 118753" d="M275.572,171.293A5.5,5.5,0,0,1,270,165.8v-24.49a5.866,5.866,0,0,1,5.8-5.873c9.657-.107,29.572-.114,45.872,1.266a4.407,4.407,0,0,1,4.018,4.239l1.5,23.653a5.605,5.605,0,0,1-5.491,5.813Z" transform="translate(-270 -135.397)" fill="url(#linear-gradient-15)"/>
            <path id="Trazado_118754" data-name="Trazado 118754" d="M278.292,147.272c-.04,2.089,0,5.357.067,7.527a1.889,1.889,0,0,0,2.109,1.828l7.949-.931a1.888,1.888,0,0,0,1.647-2.15l-.978-6.509a1.888,1.888,0,0,0-1.868-1.607h-7.045a1.882,1.882,0,0,0-1.882,1.842Z" transform="translate(-272.734 -138.711)" fill="#fff"/>
            <path id="Trazado_118755" data-name="Trazado 118755" d="M308.653,156.34l6.63.717a1.493,1.493,0,0,0,1.647-1.6l-1.446-19.715c-2.779-.087-5.518-.154-8.163-.2v19.313a1.493,1.493,0,0,0,1.333,1.487Z" transform="translate(-282.328 -135.444)" fill="#fff" opacity="0.37"/>
            <path id="Trazado_118756" data-name="Trazado 118756" d="M312.875,152.954a.67.67,0,0,0,.67.623h.04a.67.67,0,0,0,.629-.7l-1-17.21-1.339-.033Z" transform="translate(-283.831 -135.474)" fill="#fff"/>
            <g id="Grupo_54781" data-name="Grupo 54781" transform="translate(7.292 8.659)">
              <path id="Trazado_118757" data-name="Trazado 118757" d="M283.509,154.566a.228.228,0,0,1-.228-.208l-.341-5.424a.221.221,0,1,1,.442-.027l.348,5.424a.221.221,0,0,1-.208.234Z" transform="translate(-281.567 -148.45)" fill="url(#linear-gradient-16)"/>
              <path id="Trazado_118758" data-name="Trazado 118758" d="M284.642,154.516a.221.221,0,0,1-.221-.214l-.181-5.525a.221.221,0,0,1,.214-.228.208.208,0,0,1,.228.214l.181,5.525a.221.221,0,0,1-.214.228Z" transform="translate(-281.996 -148.4)" fill="url(#linear-gradient-17)"/>
              <path id="Trazado_118759" data-name="Trazado 118759" d="M286.022,154.517a.221.221,0,0,1-.221-.214c-.047-.9-.261-5.444-.261-5.531a.221.221,0,1,1,.442,0c0,.121.174,3.663.261,5.518a.221.221,0,0,1-.214.234Zm-.04-5.746Z" transform="translate(-282.426 -148.401)" fill="url(#linear-gradient-18)"/>
              <path id="Trazado_118760" data-name="Trazado 118760" d="M288.178,154.664a.442.442,0,0,1-.442-.429c-.188-5.357-.154-5.471-.134-5.552a.444.444,0,0,1,.871.174c0,.321.087,3.435.154,5.357a.449.449,0,0,1-.429.462Z" transform="translate(-283.102 -148.327)" fill="url(#linear-gradient-19)"/>
              <path id="Trazado_118761" data-name="Trazado 118761" d="M289.8,154.556a.221.221,0,0,1-.221-.221v-5.444a.221.221,0,0,1,.442,0v5.424a.221.221,0,0,1-.221.241Z" transform="translate(-283.76 -148.44)" fill="url(#linear-gradient-20)"/>
              <path id="Trazado_118762" data-name="Trazado 118762" d="M290.833,154.547a.214.214,0,0,1-.221-.214c-.04-1.888-.141-4.962-.228-5.357a.228.228,0,0,1,0-.234.221.221,0,0,1,.308-.06c.12.08.234.154.355,5.612a.221.221,0,0,1-.214.228Z" transform="translate(-284.015 -148.431)" fill="url(#linear-gradient-21)"/>
              <path id="Trazado_118763" data-name="Trazado 118763" d="M281.633,154.953a.449.449,0,0,1-.442-.422l-.3-5.692a.455.455,0,0,1,.422-.469.449.449,0,0,1,.469.422l.295,5.692a.442.442,0,0,1-.422.469Z" transform="translate(-280.89 -148.341)" fill="url(#linear-gradient-22)"/>
            </g>
          </g>
          <g id="Grupo_54784" data-name="Grupo 54784" transform="translate(0.328 58.053)">
            <path id="Trazado_118764" data-name="Trazado 118764" d="M100.618,172.87a5.5,5.5,0,0,1-5.618-5.5v-24.49a5.866,5.866,0,0,1,5.806-5.873c9.657-.107,29.572-.114,45.865,1.259a4.42,4.42,0,0,1,4.018,4.246l1.52,23.673a5.612,5.612,0,0,1-5.5,5.813Z" transform="translate(-95 -136.967)" fill="url(#linear-gradient-23)"/>
            <path id="Trazado_118765" data-name="Trazado 118765" d="M103.352,148.842c-.04,2.083,0,5.391.074,7.527a1.888,1.888,0,0,0,2.109,1.828l7.942-.931a1.882,1.882,0,0,0,1.647-2.156l-.971-6.5A1.9,1.9,0,0,0,112.286,147h-7.045A1.888,1.888,0,0,0,103.352,148.842Z" transform="translate(-97.754 -140.281)" fill="#fff"/>
            <path id="Trazado_118766" data-name="Trazado 118766" d="M133.719,157.91l6.63.717a1.5,1.5,0,0,0,1.647-1.6l-1.447-19.715c-2.779-.094-5.525-.154-8.17-.2v19.347A1.493,1.493,0,0,0,133.719,157.91Z" transform="translate(-107.348 -137.014)" fill="#fff" opacity="0.37"/>
            <path id="Trazado_118767" data-name="Trazado 118767" d="M137.934,154.518a.67.67,0,0,0,.67.63h.04a.67.67,0,0,0,.623-.7l-1-17.21-1.339-.033Z" transform="translate(-108.851 -137.044)" fill="#fff"/>
            <g id="Grupo_54783" data-name="Grupo 54783" transform="translate(7.334 8.635)">
              <path id="Trazado_118768" data-name="Trazado 118768" d="M108.573,156.113a.228.228,0,0,1-.221-.208l-.342-5.424a.221.221,0,0,1,.442,0l.342,5.424a.214.214,0,0,1-.208.234Z" transform="translate(-106.631 -149.993)" fill="url(#linear-gradient-24)"/>
              <path id="Trazado_118769" data-name="Trazado 118769" d="M109.712,156.053a.214.214,0,0,1-.221-.214l-.181-5.525a.228.228,0,0,1,.214-.234.208.208,0,0,1,.228.221l.181,5.525a.221.221,0,0,1-.214.228Z" transform="translate(-107.061 -149.933)" fill="url(#linear-gradient-25)"/>
              <path id="Trazado_118770" data-name="Trazado 118770" d="M111.092,156.057a.228.228,0,0,1-.228-.214c-.04-.9-.254-5.444-.254-5.531a.221.221,0,0,1,.442,0c0,.121.174,3.663.261,5.518a.221.221,0,0,1-.214.234Zm-.04-5.746Z" transform="translate(-107.49 -149.937)" fill="url(#linear-gradient-26)"/>
              <path id="Trazado_118771" data-name="Trazado 118771" d="M113.247,156.247a.442.442,0,0,1-.442-.429c-.188-5.357-.161-5.471-.134-5.552a.435.435,0,0,1,.542-.315.449.449,0,0,1,.328.489c0,.321.08,3.435.147,5.357a.442.442,0,0,1-.429.462Z" transform="translate(-108.165 -149.886)" fill="url(#linear-gradient-27)"/>
              <path id="Trazado_118772" data-name="Trazado 118772" d="M114.891,156.106a.221.221,0,0,1-.221-.221v-5.424a.221.221,0,0,1,.442,0v5.424A.221.221,0,0,1,114.891,156.106Z" transform="translate(-108.831 -149.986)" fill="url(#linear-gradient-28)"/>
              <path id="Trazado_118773" data-name="Trazado 118773" d="M115.9,156.087a.221.221,0,0,1-.221-.221c-.047-1.882-.147-4.956-.234-5.357a.214.214,0,0,1,0-.228.221.221,0,0,1,.308-.06c.121.074.241.154.362,5.612a.228.228,0,0,1-.214.228Z" transform="translate(-109.076 -149.968)" fill="url(#linear-gradient-29)"/>
              <path id="Trazado_118774" data-name="Trazado 118774" d="M106.7,156.5a.455.455,0,0,1-.449-.422l-.295-5.692a.449.449,0,1,1,.891-.047l.295,5.692a.435.435,0,0,1-.422.462Z" transform="translate(-105.951 -149.861)" fill="url(#linear-gradient-30)"/>
            </g>
          </g>
          <g id="Grupo_54786" data-name="Grupo 54786" transform="translate(0 1.092)">
            <path id="Trazado_118775" data-name="Trazado 118775" d="M98.9,87.817c-2.411.054-4.386-2.424-4.386-5.5V57.822c0-3.221,2.009-5.839,4.54-5.873,7.547-.107,23.117-.107,35.854,1.266,1.741.187,3.094,2.009,3.154,4.239l1.192,23.673c.087,3.134-1.848,5.752-4.3,5.813Z" transform="translate(-94.51 -51.908)" fill="url(#linear-gradient-31)"/>
            <path id="Trazado_118776" data-name="Trazado 118776" d="M99.262,63.782c-.04,2.089,0,5.357.074,7.527a1.882,1.882,0,0,0,2.1,1.828l7.949-.931a1.888,1.888,0,0,0,1.647-2.15l-.978-6.509A1.882,1.882,0,0,0,108.2,61.94h-7.045A1.888,1.888,0,0,0,99.262,63.782Z" transform="translate(-96.075 -55.222)" fill="#fff"/>
            <path id="Trazado_118777" data-name="Trazado 118777" d="M129.623,72.85l6.63.717a1.5,1.5,0,0,0,1.654-1.594l-1.453-19.722c-2.779-.087-5.518-.154-8.163-.2V71.363A1.493,1.493,0,0,0,129.623,72.85Z" transform="translate(-105.669 -51.955)" fill="#fff" opacity="0.37"/>
            <path id="Trazado_118778" data-name="Trazado 118778" d="M133.848,69.487a.67.67,0,0,0,.67.623h.04a.67.67,0,0,0,.629-.67l-1-17.21H132.85Z" transform="translate(-107.175 -52.014)" fill="#fff"/>
            <g id="Grupo_54785" data-name="Grupo 54785" transform="translate(4.948 8.685)">
              <path id="Trazado_118779" data-name="Trazado 118779" d="M104.479,71.129a.221.221,0,0,1-.221-.208L103.91,65.5a.228.228,0,0,1,.449,0l.342,5.424a.221.221,0,0,1-.208.234Z" transform="translate(-102.563 -65.019)" fill="url(#linear-gradient-32)"/>
              <path id="Trazado_118780" data-name="Trazado 118780" d="M105.618,71.056a.228.228,0,0,1-.228-.214l-.181-5.525a.228.228,0,0,1,.221-.228.208.208,0,0,1,.228.214l.181,5.525a.228.228,0,0,1-.214.228Z" transform="translate(-102.993 -64.947)" fill="url(#linear-gradient-33)"/>
              <path id="Trazado_118781" data-name="Trazado 118781" d="M106.992,71.073a.228.228,0,0,1-.221-.214c-.04-.9-.261-5.438-.261-5.531a.228.228,0,0,1,.449,0c0,.121.167,3.656.254,5.511a.221.221,0,0,1-.208.234ZM106.992,65.327Z" transform="translate(-103.422 -64.963)" fill="url(#linear-gradient-34)"/>
              <path id="Trazado_118782" data-name="Trazado 118782" d="M109.155,71.187a.449.449,0,0,1-.449-.429c-.188-5.357-.154-5.471-.134-5.552a.445.445,0,0,1,.871.174c0,.321.087,3.435.154,5.357a.442.442,0,0,1-.429.455Z" transform="translate(-104.098 -64.877)" fill="url(#linear-gradient-35)"/>
              <path id="Trazado_118783" data-name="Trazado 118783" d="M110.771,71.122a.221.221,0,0,1-.221-.221V65.477a.228.228,0,0,1,.449,0V70.9a.228.228,0,0,1-.228.221Z" transform="translate(-104.757 -65.013)" fill="url(#linear-gradient-36)"/>
              <path id="Trazado_118784" data-name="Trazado 118784" d="M111.809,71.089a.228.228,0,0,1-.228-.214c-.04-1.888-.141-4.962-.228-5.357a.217.217,0,0,1,.308-.295c.121.08.234.154.362,5.612a.228.228,0,0,1-.221.228Z" transform="translate(-105.011 -64.979)" fill="url(#linear-gradient-37)"/>
              <path id="Trazado_118785" data-name="Trazado 118785" d="M102.636,71.463a.449.449,0,0,1-.442-.422l-.295-5.692a.442.442,0,0,1,.422-.469.449.449,0,0,1,.462.422l.3,5.692a.449.449,0,0,1-.422.469Z" transform="translate(-101.899 -64.878)" fill="url(#linear-gradient-38)"/>
            </g>
          </g>
          <g id="Grupo_54788" data-name="Grupo 54788" transform="translate(45.845)">
            <path id="Trazado_118786" data-name="Trazado 118786" d="M167.356,86.187c-2.411.054-4.386-2.424-4.386-5.5V56.192c0-3.221,2.009-5.839,4.54-5.873,7.547-.107,23.117-.107,35.854,1.266,1.741.188,3.094,2.009,3.154,4.239L207.71,79.5c.087,3.127-1.848,5.746-4.3,5.806Z" transform="translate(-162.97 -50.278)" fill="url(#linear-gradient-39)"/>
            <path id="Trazado_118787" data-name="Trazado 118787" d="M167.722,62.142c-.04,2.089,0,5.357.074,7.527a1.882,1.882,0,0,0,2.116,1.808l7.949-.931a1.888,1.888,0,0,0,1.647-2.15l-.978-6.509a1.889,1.889,0,0,0-1.868-1.607h-7.052A1.882,1.882,0,0,0,167.722,62.142Z" transform="translate(-164.535 -53.582)" fill="#fff"/>
            <path id="Trazado_118788" data-name="Trazado 118788" d="M198.083,71.22l6.63.717a1.493,1.493,0,0,0,1.654-1.594l-1.453-19.722c-2.779-.087-5.518-.154-8.163-.2V69.733a1.493,1.493,0,0,0,1.333,1.487Z" transform="translate(-174.129 -50.325)" fill="#fff" opacity="0.37"/>
            <path id="Trazado_118789" data-name="Trazado 118789" d="M202.3,67.851a.67.67,0,0,0,.67.623h.04a.67.67,0,0,0,.629-.67l-1-17.21L201.3,50.56Z" transform="translate(-175.632 -50.371)" fill="#fff"/>
            <g id="Grupo_54787" data-name="Grupo 54787" transform="translate(4.928 8.658)">
              <path id="Trazado_118790" data-name="Trazado 118790" d="M172.939,69.469a.214.214,0,0,1-.221-.208l-.348-5.424a.228.228,0,0,1,.449,0l.342,5.424a.221.221,0,0,1-.208.234Z" transform="translate(-171.003 -63.353)" fill="url(#linear-gradient-40)"/>
              <path id="Trazado_118791" data-name="Trazado 118791" d="M174.072,69.4a.228.228,0,0,1-.221-.214l-.181-5.525a.221.221,0,0,1,.214-.228.208.208,0,0,1,.234.214l.181,5.525a.228.228,0,0,1-.214.228Z" transform="translate(-171.432 -63.28)" fill="url(#linear-gradient-41)"/>
              <path id="Trazado_118792" data-name="Trazado 118792" d="M175.452,69.413a.221.221,0,0,1-.221-.214c-.04-.9-.261-5.438-.261-5.531a.228.228,0,0,1,.449,0c0,.121.167,3.656.254,5.511a.221.221,0,0,1-.208.234ZM175.419,63.667Z" transform="translate(-171.862 -63.297)" fill="url(#linear-gradient-42)"/>
              <path id="Trazado_118793" data-name="Trazado 118793" d="M177.608,69.544a.442.442,0,0,1-.442-.429c-.188-5.357-.154-5.471-.134-5.552a.444.444,0,1,1,.871.174c0,.321.087,3.435.154,5.357a.449.449,0,0,1-.429.455Z" transform="translate(-172.538 -63.207)" fill="url(#linear-gradient-43)"/>
              <path id="Trazado_118794" data-name="Trazado 118794" d="M179.228,69.443a.221.221,0,0,1-.228-.228V63.791a.221.221,0,0,1,.442,0v5.424a.221.221,0,0,1-.214.228Z" transform="translate(-173.193 -63.327)" fill="url(#linear-gradient-44)"/>
              <path id="Trazado_118795" data-name="Trazado 118795" d="M180.263,69.429a.221.221,0,0,1-.221-.214c-.04-1.888-.141-4.962-.228-5.357a.217.217,0,0,1,.308-.295c.12.08.234.154.362,5.612a.228.228,0,0,1-.221.228Z" transform="translate(-173.451 -63.313)" fill="url(#linear-gradient-45)"/>
              <path id="Trazado_118796" data-name="Trazado 118796" d="M171.066,69.833a.449.449,0,0,1-.442-.422l-.295-5.692a.442.442,0,0,1,.415-.469.449.449,0,0,1,.469.422l.3,5.692a.455.455,0,0,1-.422.469Z" transform="translate(-170.329 -63.221)" fill="url(#linear-gradient-46)"/>
            </g>
          </g>
          <g id="Grupo_54790" data-name="Grupo 54790" transform="translate(92.374)">
            <path id="Trazado_118797" data-name="Trazado 118797" d="M236.836,86.187c-2.411.054-4.386-2.424-4.386-5.5V56.192c0-3.221,2.009-5.839,4.534-5.873,7.554-.107,23.124-.107,35.861,1.266,1.741.188,3.087,2.009,3.154,4.239L277.19,79.5c.087,3.127-1.848,5.746-4.3,5.806Z" transform="translate(-232.45 -50.278)" fill="url(#linear-gradient-47)"/>
            <path id="Trazado_118798" data-name="Trazado 118798" d="M237.161,62.142c-.047,2.089,0,5.357.067,7.527a1.888,1.888,0,0,0,2.109,1.808l7.949-.931a1.875,1.875,0,0,0,1.641-2.15l-.971-6.509a1.888,1.888,0,0,0-1.868-1.607h-7.031A1.882,1.882,0,0,0,237.161,62.142Z" transform="translate(-234 -53.582)" fill="#fff"/>
            <path id="Trazado_118799" data-name="Trazado 118799" d="M267.523,71.22l6.63.717a1.487,1.487,0,0,0,1.647-1.594l-1.447-19.722c-2.779-.087-5.518-.154-8.163-.2V69.733a1.493,1.493,0,0,0,1.333,1.487Z" transform="translate(-243.595 -50.325)" fill="#fff" opacity="0.37"/>
            <path id="Trazado_118800" data-name="Trazado 118800" d="M271.745,67.851a.67.67,0,0,0,.67.623h.04a.67.67,0,0,0,.623-.67l-1-17.21-1.339-.033Z" transform="translate(-245.098 -50.371)" fill="#fff"/>
            <g id="Grupo_54789" data-name="Grupo 54789" transform="translate(4.889 8.634)">
              <path id="Trazado_118801" data-name="Trazado 118801" d="M242.372,69.446a.221.221,0,0,1-.221-.208l-.342-5.424a.221.221,0,1,1,.442-.027l.355,5.431a.221.221,0,0,1-.214.234Z" transform="translate(-240.431 -63.306)" fill="url(#linear-gradient-48)"/>
              <path id="Trazado_118802" data-name="Trazado 118802" d="M243.512,69.4a.214.214,0,0,1-.221-.214l-.181-5.525a.221.221,0,0,1,.214-.228.208.208,0,0,1,.228.214l.154,5.525a.221.221,0,0,1-.214.228Z" transform="translate(-240.861 -63.256)" fill="url(#linear-gradient-49)"/>
              <path id="Trazado_118803" data-name="Trazado 118803" d="M244.892,69.4a.221.221,0,0,1-.221-.214c-.047-.9-.261-5.438-.261-5.531a.221.221,0,1,1,.442,0c0,.121.174,3.656.261,5.511a.221.221,0,0,1-.214.234Zm-.04-5.746Z" transform="translate(-241.29 -63.257)" fill="url(#linear-gradient-50)"/>
              <path id="Trazado_118804" data-name="Trazado 118804" d="M247.048,69.557a.442.442,0,0,1-.442-.429c-.188-5.357-.154-5.471-.134-5.552a.442.442,0,0,1,.542-.315.449.449,0,0,1,.328.489c0,.321.08,3.435.147,5.357a.435.435,0,0,1-.429.455Z" transform="translate(-241.966 -63.196)" fill="url(#linear-gradient-51)"/>
              <path id="Trazado_118805" data-name="Trazado 118805" d="M248.671,69.446a.221.221,0,0,1-.221-.221V63.8a.221.221,0,1,1,.442,0v5.418a.221.221,0,0,1-.221.228Z" transform="translate(-242.625 -63.306)" fill="url(#linear-gradient-52)"/>
              <path id="Trazado_118806" data-name="Trazado 118806" d="M249.7,69.427a.214.214,0,0,1-.221-.214c-.04-1.888-.141-4.962-.234-5.357a.241.241,0,0,1,0-.234.221.221,0,0,1,.308-.06c.121.08.234.154.355,5.612a.221.221,0,0,1-.214.228Z" transform="translate(-242.877 -63.287)" fill="url(#linear-gradient-53)"/>
              <path id="Trazado_118807" data-name="Trazado 118807" d="M240.5,69.807a.442.442,0,0,1-.442-.422l-.3-5.692a.449.449,0,1,1,.891-.047l.295,5.692a.442.442,0,0,1-.422.469Z" transform="translate(-239.751 -63.171)" fill="url(#linear-gradient-54)"/>
            </g>
          </g>
          <g id="Grupo_54792" data-name="Grupo 54792" transform="translate(139.257 2.604)">
            <path id="Trazado_118808" data-name="Trazado 118808" d="M306.84,90.09c-2.4.054-4.38-2.424-4.38-5.5v-24.5c0-3.221,2.009-5.839,4.534-5.873,7.547-.107,23.117-.114,35.861,1.259,1.734.188,3.087,2.009,3.154,4.246L347.2,83.386c.087,3.134-1.848,5.752-4.3,5.813Z" transform="translate(-302.46 -54.167)" fill="url(#linear-gradient-55)"/>
            <path id="Trazado_118809" data-name="Trazado 118809" d="M307.251,66.092c-.047,2.083,0,5.357.067,7.527a1.889,1.889,0,0,0,2.109,1.828l7.942-.931a1.875,1.875,0,0,0,1.647-2.15l-.971-6.509a1.9,1.9,0,0,0-1.868-1.607h-7.045a1.882,1.882,0,0,0-1.882,1.842Z" transform="translate(-304.036 -57.497)" fill="#fff"/>
            <path id="Trazado_118810" data-name="Trazado 118810" d="M337.613,75.13l6.63.717a1.5,1.5,0,0,0,1.647-1.6l-1.446-19.715c-2.779-.094-5.518-.154-8.163-.2V73.643A1.487,1.487,0,0,0,337.613,75.13Z" transform="translate(-313.632 -54.221)" fill="#fff" opacity="0.37"/>
            <path id="Trazado_118811" data-name="Trazado 118811" d="M341.835,71.771a.67.67,0,0,0,.67.629h.04a.67.67,0,0,0,.623-.67l-1-17.21H340.83Z" transform="translate(-315.135 -54.283)" fill="#fff"/>
            <g id="Grupo_54791" data-name="Grupo 54791" transform="translate(4.97 8.655)">
              <path id="Trazado_118812" data-name="Trazado 118812" d="M312.462,73.356a.228.228,0,0,1-.221-.208l-.342-5.424a.221.221,0,1,1,.442-.027l.342,5.424a.214.214,0,0,1-.208.234Z" transform="translate(-310.548 -67.223)" fill="url(#linear-gradient-56)"/>
              <path id="Trazado_118813" data-name="Trazado 118813" d="M313.6,73.306a.214.214,0,0,1-.221-.214l-.181-5.525a.214.214,0,0,1,.214-.228.208.208,0,0,1,.228.214l.181,5.525a.221.221,0,0,1-.214.228Z" transform="translate(-310.977 -67.173)" fill="url(#linear-gradient-57)"/>
              <path id="Trazado_118814" data-name="Trazado 118814" d="M314.982,73.307a.214.214,0,0,1-.221-.214c-.047-.9-.261-5.444-.261-5.531a.221.221,0,0,1,.442,0c0,.121.174,3.663.261,5.518a.221.221,0,0,1-.214.234Zm-.04-5.746Z" transform="translate(-311.407 -67.173)" fill="url(#linear-gradient-18)"/>
              <path id="Trazado_118815" data-name="Trazado 118815" d="M317.138,73.467a.442.442,0,0,1-.442-.429c-.187-5.357-.154-5.471-.134-5.552a.442.442,0,0,1,.542-.315.449.449,0,0,1,.328.489c0,.321.08,3.435.147,5.357a.442.442,0,0,1-.429.462Z" transform="translate(-312.083 -67.113)" fill="url(#linear-gradient-59)"/>
              <path id="Trazado_118816" data-name="Trazado 118816" d="M318.761,73.356a.221.221,0,0,1-.221-.221V67.711a.221.221,0,1,1,.442,0v5.424A.221.221,0,0,1,318.761,73.356Z" transform="translate(-312.741 -67.223)" fill="url(#linear-gradient-60)"/>
              <path id="Trazado_118817" data-name="Trazado 118817" d="M319.759,73.337a.214.214,0,0,1-.221-.214c-.047-1.888-.141-4.962-.234-5.357a.228.228,0,0,1,0-.234.221.221,0,0,1,.308-.06c.121.074.234.154.355,5.612a.221.221,0,0,1-.214.228Z" transform="translate(-312.983 -67.204)" fill="url(#linear-gradient-61)"/>
              <path id="Trazado_118818" data-name="Trazado 118818" d="M310.63,73.727a.455.455,0,0,1-.449-.422l-.295-5.692a.449.449,0,1,1,.891-.047l.295,5.692a.449.449,0,0,1-.422.469Z" transform="translate(-309.881 -67.091)" fill="url(#linear-gradient-62)"/>
            </g>
          </g>
          <g id="Grupo_54794" data-name="Grupo 54794" transform="translate(184.908 4.399)">
            <path id="Trazado_118819" data-name="Trazado 118819" d="M375.016,92.756c-2.411.054-4.386-2.424-4.386-5.5V62.762c0-3.221,2.009-5.839,4.534-5.873,7.554-.107,23.124-.114,35.861,1.259,1.741.188,3.094,2.009,3.154,4.246l1.192,23.673c.087,3.134-1.848,5.752-4.3,5.813Z" transform="translate(-370.63 -56.847)" fill="url(#linear-gradient-63)"/>
            <path id="Trazado_118820" data-name="Trazado 118820" d="M375.382,68.722c-.04,2.089,0,5.391.067,7.527a1.888,1.888,0,0,0,2.109,1.828l7.949-.931A1.889,1.889,0,0,0,387.175,75l-.978-6.509a1.888,1.888,0,0,0-1.868-1.607h-7.058A1.882,1.882,0,0,0,375.382,68.722Z" transform="translate(-372.194 -60.161)" fill="#fff"/>
            <path id="Trazado_118821" data-name="Trazado 118821" d="M405.743,77.79l6.63.717a1.5,1.5,0,0,0,1.654-1.6l-1.453-19.715c-2.779-.087-5.518-.154-8.163-.2V76.3A1.493,1.493,0,0,0,405.743,77.79Z" transform="translate(-381.789 -56.894)" fill="#fff" opacity="0.37"/>
            <path id="Trazado_118822" data-name="Trazado 118822" d="M409.978,74.438a.67.67,0,0,0,.67.623h.04a.67.67,0,0,0,.629-.67l-.978-17.277L409,57.08Z" transform="translate(-383.305 -56.924)" fill="#fff"/>
            <g id="Grupo_54793" data-name="Grupo 54793" transform="translate(4.922 8.659)">
              <path id="Trazado_118823" data-name="Trazado 118823" d="M380.589,76.016a.234.234,0,0,1-.228-.208L380,70.384a.221.221,0,1,1,.442-.027l.348,5.424a.221.221,0,0,1-.208.234Z" transform="translate(-378.647 -69.9)" fill="url(#linear-gradient-64)"/>
              <path id="Trazado_118824" data-name="Trazado 118824" d="M381.732,75.966a.221.221,0,0,1-.221-.214l-.181-5.525a.221.221,0,0,1,.214-.228.214.214,0,0,1,.234.214l.174,5.525a.221.221,0,0,1-.214.228Z" transform="translate(-379.086 -69.85)" fill="url(#linear-gradient-65)"/>
              <path id="Trazado_118825" data-name="Trazado 118825" d="M383.112,75.967a.221.221,0,0,1-.221-.214c-.047-.9-.261-5.444-.261-5.531a.221.221,0,0,1,.442,0c0,.121.174,3.663.261,5.518a.221.221,0,0,1-.208.234Zm-.04-5.746Z" transform="translate(-379.516 -69.851)" fill="url(#linear-gradient-66)"/>
              <path id="Trazado_118826" data-name="Trazado 118826" d="M385.268,76.114a.442.442,0,0,1-.442-.429c-.187-5.357-.154-5.471-.134-5.552a.444.444,0,0,1,.871.174c0,.321.087,3.435.154,5.357a.449.449,0,0,1-.429.462Z" transform="translate(-380.192 -69.777)" fill="url(#linear-gradient-19)"/>
              <path id="Trazado_118827" data-name="Trazado 118827" d="M386.891,76.016a.221.221,0,0,1-.221-.221V70.371a.221.221,0,1,1,.442,0V75.8a.221.221,0,0,1-.221.221Z" transform="translate(-380.85 -69.9)" fill="url(#linear-gradient-68)"/>
              <path id="Trazado_118828" data-name="Trazado 118828" d="M387.923,76a.214.214,0,0,1-.221-.214c-.04-1.888-.141-4.962-.228-5.357a.228.228,0,0,1,0-.234.221.221,0,0,1,.308-.06c.121.074.234.154.355,5.612a.221.221,0,0,1-.214.228Z" transform="translate(-381.105 -69.881)" fill="url(#linear-gradient-69)"/>
              <path id="Trazado_118829" data-name="Trazado 118829" d="M378.723,76.4a.449.449,0,0,1-.442-.422l-.3-5.692a.455.455,0,0,1,.422-.469.449.449,0,0,1,.469.422l.295,5.692a.449.449,0,0,1-.422.469Z" transform="translate(-377.98 -69.791)" fill="url(#linear-gradient-70)"/>
            </g>
          </g>
          <g id="Grupo_54796" data-name="Grupo 54796" transform="translate(60.196 112.791)">
            <path id="Trazado_118830" data-name="Trazado 118830" d="M190.005,275.436c-3.08.094-5.605-3.831-5.605-8.706V228.044c0-5.083,2.585-9.215,5.8-9.275,9.657-.161,29.572-.174,45.872,2.009,2.223.3,3.951,3.181,4.018,6.7l1.527,37.407c.114,4.949-2.364,9.081-5.5,9.174Z" transform="translate(-184.4 -218.706)" fill="url(#linear-gradient-71)"/>
            <path id="Trazado_118831" data-name="Trazado 118831" d="M192.742,230.582c-.04,2.083,0,5.357.074,7.527a1.882,1.882,0,0,0,2.1,1.828l7.949-.931a1.888,1.888,0,0,0,1.647-2.15l-.978-6.509a1.888,1.888,0,0,0-1.868-1.607h-7.038a1.882,1.882,0,0,0-1.888,1.842Z" transform="translate(-187.15 -222.021)" fill="#fff"/>
            <path id="Trazado_118832" data-name="Trazado 118832" d="M223.116,239.65l6.63.717a1.5,1.5,0,0,0,1.654-1.6l-1.426-19.715c-2.779-.094-5.518-.154-8.163-.2v19.313A1.493,1.493,0,0,0,223.116,239.65Z" transform="translate(-196.758 -218.754)" fill="#fff" opacity="0.37"/>
            <path id="Trazado_118833" data-name="Trazado 118833" d="M227.325,236.258a.67.67,0,0,0,.67.629h.04a.67.67,0,0,0,.63-.7l-1-17.21-1.339-.033Z" transform="translate(-198.248 -218.783)" fill="#fff"/>
            <g id="Grupo_54795" data-name="Grupo 54795" transform="translate(7.332 8.659)">
              <path id="Trazado_118834" data-name="Trazado 118834" d="M197.959,237.9a.221.221,0,0,1-.221-.208l-.348-5.424a.228.228,0,0,1,.449,0l.342,5.424a.221.221,0,0,1-.208.234Z" transform="translate(-196.023 -231.783)" fill="url(#linear-gradient-40)"/>
              <path id="Trazado_118835" data-name="Trazado 118835" d="M199.092,237.826a.228.228,0,0,1-.221-.214l-.181-5.525a.221.221,0,0,1,.214-.228.208.208,0,0,1,.234.214l.181,5.525a.228.228,0,0,1-.214.228Z" transform="translate(-196.453 -231.71)" fill="url(#linear-gradient-73)"/>
              <path id="Trazado_118836" data-name="Trazado 118836" d="M200.472,237.843a.228.228,0,0,1-.221-.214c-.04-.9-.261-5.444-.261-5.531a.228.228,0,0,1,.449,0c0,.121.167,3.663.254,5.518a.221.221,0,0,1-.208.234ZM200.439,232.1Z" transform="translate(-196.882 -231.727)" fill="url(#linear-gradient-74)"/>
              <path id="Trazado_118837" data-name="Trazado 118837" d="M202.628,237.974a.442.442,0,0,1-.442-.429c-.187-5.357-.154-5.471-.134-5.552a.444.444,0,1,1,.871.174c0,.321.087,3.435.154,5.357a.449.449,0,0,1-.429.462Z" transform="translate(-197.558 -231.637)" fill="url(#linear-gradient-75)"/>
              <path id="Trazado_118838" data-name="Trazado 118838" d="M204.251,237.876a.221.221,0,0,1-.221-.221v-5.424a.221.221,0,0,1,.442,0v5.424A.221.221,0,0,1,204.251,237.876Z" transform="translate(-198.217 -231.76)" fill="url(#linear-gradient-76)"/>
              <path id="Trazado_118839" data-name="Trazado 118839" d="M205.283,237.872a.221.221,0,0,1-.221-.221c-.04-1.882-.141-4.956-.228-5.324a.217.217,0,0,1,.308-.295c.121.074.234.154.362,5.612A.234.234,0,0,1,205.283,237.872Z" transform="translate(-198.471 -231.756)" fill="url(#linear-gradient-77)"/>
              <path id="Trazado_118840" data-name="Trazado 118840" d="M196.086,238.264a.449.449,0,0,1-.442-.422l-.295-5.692a.443.443,0,0,1,.884-.047l.3,5.692a.455.455,0,0,1-.422.469Z" transform="translate(-195.349 -231.653)" fill="url(#linear-gradient-78)"/>
            </g>
          </g>
          <g id="Grupo_54798" data-name="Grupo 54798" transform="translate(0.435 113.819)">
            <path id="Trazado_118841" data-name="Trazado 118841" d="M100.772,277.269c-3.08.094-5.612-3.851-5.612-8.706V229.629c0-5.11,2.592-9.268,5.806-9.322,9.657-.167,29.572-.174,45.872,2.009,2.223.3,3.951,3.194,4.018,6.737l1.52,37.6c.114,4.976-2.357,9.134-5.491,9.228Z" transform="translate(-95.16 -220.242)" fill="url(#linear-gradient-79)"/>
            <path id="Trazado_118842" data-name="Trazado 118842" d="M103.512,232.088c-.04,2.083,0,5.391.067,7.527a1.888,1.888,0,0,0,2.109,1.828l7.949-.931a1.888,1.888,0,0,0,1.641-2.156l-.971-6.509a1.888,1.888,0,0,0-1.868-1.607h-7.045a1.882,1.882,0,0,0-1.882,1.849Z" transform="translate(-97.914 -223.545)" fill="#fff"/>
            <path id="Trazado_118843" data-name="Trazado 118843" d="M133.873,241.183l6.63.717a1.487,1.487,0,0,0,1.647-1.594L140.7,220.584c-2.779-.087-5.518-.154-8.163-.194V239.7a1.493,1.493,0,0,0,1.333,1.487Z" transform="translate(-107.508 -220.291)" fill="#fff" opacity="0.37"/>
            <path id="Trazado_118844" data-name="Trazado 118844" d="M138.094,237.814a.67.67,0,0,0,.67.629h.04a.67.67,0,0,0,.623-.7l-1-17.21H137.09Z" transform="translate(-109.011 -220.337)" fill="#fff"/>
            <g id="Grupo_54797" data-name="Grupo 54797" transform="translate(7.332 8.657)">
              <path id="Trazado_118845" data-name="Trazado 118845" d="M108.722,239.406a.221.221,0,0,1-.221-.208l-.342-5.418a.228.228,0,0,1,.208-.241.221.221,0,0,1,.234.214l.348,5.418a.221.221,0,0,1-.208.234Z" transform="translate(-106.786 -233.292)" fill="url(#linear-gradient-80)"/>
              <path id="Trazado_118846" data-name="Trazado 118846" d="M109.862,239.356a.221.221,0,0,1-.221-.214l-.181-5.525a.221.221,0,0,1,.214-.228.208.208,0,0,1,.228.214l.181,5.525a.214.214,0,0,1-.214.228Z" transform="translate(-107.216 -233.242)" fill="url(#linear-gradient-81)"/>
              <path id="Trazado_118847" data-name="Trazado 118847" d="M111.242,239.357a.214.214,0,0,1-.221-.208c-.047-.911-.261-5.444-.261-5.538a.221.221,0,1,1,.442,0c0,.121.174,3.656.261,5.518a.221.221,0,0,1-.214.228Zm-.04-5.746Z" transform="translate(-107.646 -233.242)" fill="url(#linear-gradient-82)"/>
              <path id="Trazado_118848" data-name="Trazado 118848" d="M113.388,239.543a.449.449,0,0,1-.462-.429c-.188-5.357-.154-5.471-.134-5.552a.449.449,0,0,1,.871.174c0,.321.087,3.442.154,5.357a.449.449,0,0,1-.429.455Z" transform="translate(-108.312 -233.201)" fill="url(#linear-gradient-83)"/>
              <path id="Trazado_118849" data-name="Trazado 118849" d="M115.021,239.41a.221.221,0,0,1-.221-.221v-5.418a.221.221,0,0,1,.442,0v5.438A.221.221,0,0,1,115.021,239.41Z" transform="translate(-108.98 -233.295)" fill="url(#linear-gradient-84)"/>
              <path id="Trazado_118850" data-name="Trazado 118850" d="M116.064,239.4a.214.214,0,0,1-.194-.2c-.04-1.882-.141-4.962-.234-5.357a.234.234,0,0,1,0-.228.221.221,0,0,1,.308-.067c.121.08.234.154.355,5.612a.214.214,0,0,1-.214.228Z" transform="translate(-109.246 -233.281)" fill="url(#linear-gradient-85)"/>
              <path id="Trazado_118851" data-name="Trazado 118851" d="M106.853,239.753a.442.442,0,0,1-.442-.422l-.3-5.692a.449.449,0,0,1,.422-.469.455.455,0,0,1,.469.422l.295,5.692a.442.442,0,0,1-.422.469Z" transform="translate(-106.109 -233.17)" fill="url(#linear-gradient-86)"/>
            </g>
          </g>
          <g id="Grupo_54799" data-name="Grupo 54799" transform="translate(3.871 176.615)">
            <path id="Trazado_118852" data-name="Trazado 118852" d="M105.158,363.52c-2.679.08-4.868-3.348-4.868-7.587V322.168c0-4.44,2.243-8.036,5.036-8.1,8.384-.147,25.675-.154,39.825,1.741,1.929.254,3.429,2.772,3.5,5.846l1.339,32.646c.1,4.319-2.049,7.929-4.768,8.036Z" transform="translate(-100.29 -314.013)" fill="url(#linear-gradient-87)"/>
            <path id="Trazado_118853" data-name="Trazado 118853" d="M133.889,332.207l5.759.623a1.3,1.3,0,0,0,1.433-1.359l-1.259-17.123c-2.411-.074-4.795-.127-7.092-.167v16.742A1.339,1.339,0,0,0,133.889,332.207Z" transform="translate(-111.006 -314.068)" fill="#fff" opacity="0.37"/>
          </g>
        </g>
      </g>
      <g id="Grupo_54813" data-name="Grupo 54813" transform="translate(106.499 75.686)">
        <g id="Grupo_54803" data-name="Grupo 54803" transform="translate(23.656 123.815)">
          <path id="Trazado_118854" data-name="Trazado 118854" d="M337.655,362H252.32a1.38,1.38,0,1,0,0,2.759h85.336a1.38,1.38,0,1,0,0-2.759Z" transform="translate(-250.94 -324.418)" fill="url(#linear-gradient-88)"/>
          <path id="Trazado_118855" data-name="Trazado 118855" d="M330.559,341.07H269.4a3.348,3.348,0,0,0-3.348,3.348v10.715h67.837V344.418A3.348,3.348,0,0,0,330.559,341.07Z" transform="translate(-255.931 -317.504)" fill="url(#linear-gradient-89)"/>
          <path id="Trazado_118856" data-name="Trazado 118856" d="M328.272,332.16H276.158a3.348,3.348,0,0,0-3.348,3.348v2.632H331.6v-2.632a3.348,3.348,0,0,0-3.328-3.348Z" transform="translate(-258.164 -314.561)" fill="url(#linear-gradient-90)"/>
          <path id="Trazado_118857" data-name="Trazado 118857" d="M301.758,305.88H316.2a8.478,8.478,0,0,1,8.478,8.478v9.121H293.28v-9.121A8.478,8.478,0,0,1,301.758,305.88Z" transform="translate(-264.926 -305.88)" fill="url(#linear-gradient-91)"/>
          <g id="Grupo_54802" data-name="Grupo 54802" transform="translate(18.71 26.479)">
            <rect id="Rectángulo_29569" data-name="Rectángulo 29569" width="5.485" height="11.13" fill="url(#linear-gradient-92)"/>
            <rect id="Rectángulo_29570" data-name="Rectángulo 29570" width="2.203" height="11.13" transform="translate(7.44)" fill="url(#linear-gradient-93)"/>
            <rect id="Rectángulo_29571" data-name="Rectángulo 29571" width="2.203" height="11.13" transform="translate(10.541)" fill="url(#linear-gradient-94)"/>
            <rect id="Rectángulo_29572" data-name="Rectángulo 29572" width="2.203" height="11.13" transform="translate(13.648)" fill="url(#linear-gradient-95)"/>
          </g>
        </g>
        <g id="Grupo_54806" data-name="Grupo 54806" transform="translate(11.854 56.164)">
          <g id="Grupo_54804" data-name="Grupo 54804">
            <path id="Trazado_118858" data-name="Trazado 118858" d="M239.963,229.858a1.929,1.929,0,0,0-.154,2.679l42.966,50.171a1.929,1.929,0,0,0,2.752.154l3.656-3.348L241.872,228.13Z" transform="translate(-235.307 -212.546)" fill="url(#linear-gradient-96)"/>
            <path id="Trazado_118859" data-name="Trazado 118859" d="M243.853,206.051a3.884,3.884,0,0,0-5.431-.167l-3.851,3.549a3.877,3.877,0,0,0-.281,5.424l51.263,58.455,10.715-9.9a2.1,2.1,0,0,0,.094-3.013Z" transform="translate(-233.317 -204.858)" fill="url(#linear-gradient-97)"/>
            <rect id="Rectángulo_29573" data-name="Rectángulo 29573" width="6.69" height="46.08" rx="3.345" transform="matrix(0.736, -0.677, 0.677, 0.736, 11.55, 15.887)" fill="url(#linear-gradient-98)"/>
            <rect id="Rectángulo_29574" data-name="Rectángulo 29574" width="1.547" height="46.08" transform="matrix(0.736, -0.677, 0.677, 0.736, 13.441, 14.132)" fill="#7d97f4"/>
          </g>
          <g id="Grupo_54805" data-name="Grupo 54805" transform="translate(41.946 49.609)">
            <ellipse id="Elipse_4167" data-name="Elipse 4167" cx="13.695" cy="13.695" rx="13.695" ry="13.695" transform="translate(0 27.366) rotate(-87.64)" fill="url(#linear-gradient-99)"/>
            <ellipse id="Elipse_4168" data-name="Elipse 4168" cx="10.46" cy="10.46" rx="10.46" ry="10.46" transform="matrix(0.914, -0.406, 0.406, 0.914, 0.451, 8.952)" fill="#fff" opacity="0.39"/>
          </g>
        </g>
        <g id="Grupo_54809" data-name="Grupo 54809" transform="translate(0 10.087)">
          <g id="Grupo_54807" data-name="Grupo 54807" transform="translate(8.741)">
            <path id="Trazado_118860" data-name="Trazado 118860" d="M239.39,192.77l2.679,2.94a1.547,1.547,0,0,0,2.217.054l37.7-37.3a1.547,1.547,0,0,0,.054-2.156l-1.406-1.527Z" transform="translate(-232.21 -142.239)" fill="url(#linear-gradient-100)"/>
            <path id="Trazado_118861" data-name="Trazado 118861" d="M279.236,137.062l2.853,3.094a3.121,3.121,0,0,1-.141,4.359L237.08,187.9l-7.962-8.625a1.694,1.694,0,0,1,.127-2.424l45.638-40.019a3.107,3.107,0,0,1,4.353.228Z" transform="translate(-228.668 -136.053)" fill="url(#linear-gradient-101)"/>
            <path id="Trazado_118862" data-name="Trazado 118862" d="M272.173,152.87,247.5,175.578a2.687,2.687,0,1,0,3.643,3.951l24.664-22.708a2.685,2.685,0,1,0-3.636-3.951Z" transform="translate(-234.604 -141.374)" fill="url(#linear-gradient-102)"/>
            <rect id="Rectángulo_29575" data-name="Rectángulo 29575" width="38.908" height="1.239" transform="matrix(0.736, -0.677, 0.677, 0.736, 12.323, 37.531)" fill="#7d97f4"/>
          </g>
          <g id="Grupo_54808" data-name="Grupo 54808" transform="translate(0 33.653)">
            <circle id="Elipse_4169" data-name="Elipse 4169" cx="10.996" cy="10.996" r="10.996" transform="translate(0 20.466) rotate(-68.53)" fill="url(#linear-gradient-103)"/>
            <path id="Trazado_118863" data-name="Trazado 118863" d="M227.076,197.284a8.4,8.4,0,1,0,11.873.489A8.4,8.4,0,0,0,227.076,197.284Z" transform="translate(-218.507 -189.199)" fill="#7d97f4"/>
          </g>
        </g>
        <g id="Grupo_54812" data-name="Grupo 54812" transform="translate(48.877 0)">
          <path id="Trazado_118864" data-name="Trazado 118864" d="M336.438,153.824l-1.714,2.819a2.22,2.22,0,0,1-2.813,1.152l-32.211-18.2,4.788-7.869a1.185,1.185,0,0,1,1.567-.6L336.19,150.8A2.247,2.247,0,0,1,336.438,153.824Z" transform="translate(-292.268 -124.305)" fill="url(#linear-gradient-104)"/>
          <g id="Grupo_54810" data-name="Grupo 54810" transform="translate(0)">
            <circle id="Elipse_4170" data-name="Elipse 4170" cx="8.632" cy="8.632" r="8.632" transform="translate(0 8.52) rotate(-29.57)" fill="url(#linear-gradient-105)"/>
            <circle id="Elipse_4171" data-name="Elipse 4171" cx="6.596" cy="6.596" r="6.596" transform="translate(2.667 13.845) rotate(-58.02)" fill="#7d97f4"/>
          </g>
          <g id="Grupo_54811" data-name="Grupo 54811" transform="translate(39.052 25.418)">
            <rect id="Rectángulo_29576" data-name="Rectángulo 29576" width="3.958" height="11.331" rx="1.979" transform="matrix(0.856, 0.516, -0.516, 0.856, 5.851, 0)" fill="url(#linear-gradient-106)"/>
            <path id="Trazado_118865" data-name="Trazado 118865" d="M366.75,165.07l7.206-5.21,10,12.154L382.44,173.8l-9.04-9.69-5.578,4.085Z" transform="translate(-353.469 -159.248)" fill="url(#linear-gradient-107)"/>
            <path id="Trazado_118866" data-name="Trazado 118866" d="M359.342,178.843l-1.112,8.826,15.456,2.94.844-2.19-12.837-3.281.911-6.857Z" transform="translate(-350.655 -165.333)" fill="url(#linear-gradient-108)"/>
            <path id="Trazado_118867" data-name="Trazado 118867" d="M356.41,174.129a5.583,5.583,0,1,0,5.826-9.409Z" transform="translate(-350.054 -160.853)" fill="url(#linear-gradient-109)"/>
            <path id="Trazado_118868" data-name="Trazado 118868" d="M351.183,170.518l-.911,1.513a.6.6,0,0,0,.228.81l2.806,1.694a.609.609,0,0,0,.83-.174l7.273-12.054a.589.589,0,0,0-.234-.81l-2.8-1.694a.609.609,0,0,0-.83.174l-.837,1.386Z" transform="translate(-348.001 -159.198)" fill="url(#linear-gradient-110)"/>
          </g>
        </g>
      </g>
      <g id="Grupo_54816" data-name="Grupo 54816" transform="translate(99.726 226.027)">
        <path id="Trazado_118869" data-name="Trazado 118869" d="M206.585,364.991v-.67l-1.085-.04a20.035,20.035,0,0,1,.308-2.826l1.065.194a18.154,18.154,0,0,1,.429-1.828l-1.038-.3a19.6,19.6,0,0,1,1-2.679l.984.449a17.124,17.124,0,0,1,.871-1.668l-.931-.549a19.152,19.152,0,0,1,1.621-2.337l.837.67a17.779,17.779,0,0,1,1.252-1.4l-.763-.757a19.016,19.016,0,0,1,2.143-1.875l.67.864a18.7,18.7,0,0,1,1.56-1.051l-.556-.924a19.6,19.6,0,0,1,2.538-1.286l.415.991c.576-.234,1.165-.449,1.768-.63l-.308-1.031a19.529,19.529,0,0,1,2.772-.623l.161,1.065c.609-.087,1.239-.147,1.868-.174l-.047-1.078H406.735v1.071h1.882V345.49a19.962,19.962,0,0,1,2.833.248l-.174,1.065a18.746,18.746,0,0,1,1.842.4l.275-1.045a19.142,19.142,0,0,1,2.679.944l-.435.984a18.032,18.032,0,0,1,1.688.844l.529-.944a19.152,19.152,0,0,1,2.371,1.574l-.67.85c.5.388.978.8,1.426,1.225l.75-.784a19.589,19.589,0,0,1,1.909,2.1l-.85.67a18.664,18.664,0,0,1,1.092,1.587l.917-.576a20.02,20.02,0,0,1,1.339,2.511l-.984.435a17.88,17.88,0,0,1,.67,1.755l1.031-.335a20.813,20.813,0,0,1,.67,2.766l-1.065.181a18.75,18.75,0,0,1,.214,1.868l1.078-.074q.04.67.04,1.286a13.334,13.334,0,0,1-.06,1.554l-1.078-.08a17.069,17.069,0,0,1-.241,1.862l1.065.194a20.261,20.261,0,0,1-.717,2.725l-1.025-.348c-.208.6-.435,1.179-.67,1.748l.978.455a19.512,19.512,0,0,1-1.339,2.484l-.9-.589a17.69,17.69,0,0,1-1.1,1.527l.837.67a19.635,19.635,0,0,1-1.942,2.076l-.79-.79a16.167,16.167,0,0,1-1.446,1.205l.67.857a19.9,19.9,0,0,1-2.391,1.54l-.516-.944c-.549.295-1.118.569-1.7.81l.415.991a18.98,18.98,0,0,1-2.679.9l-.268-1.045a18.686,18.686,0,0,1-1.842.368l.154,1.065c-.844.121-154.606.194-183.743.2h-4.735v-.134a20.086,20.086,0,0,1-2.746-.529l.275-1.045a16.4,16.4,0,0,1-1.788-.583l-.382,1.011a19.2,19.2,0,0,1-2.578-1.205l.529-.944a18.748,18.748,0,0,1-1.594-1l-.623.884a20.125,20.125,0,0,1-2.2-1.8l.743-.784c-.455-.435-.884-.891-1.292-1.339l-.824.7a18.748,18.748,0,0,1-1.688-2.284l.911-.576a18.763,18.763,0,0,1-.924-1.641l-.964.482a19.557,19.557,0,0,1-1.078-2.632l1.025-.335a18.079,18.079,0,0,1-.489-1.815l-1.051.228a18.921,18.921,0,0,1-.4-2.819l1.078-.067A8.837,8.837,0,0,1,206.585,364.991Z" transform="translate(-205.5 -345.49)" fill="url(#linear-gradient-111)"/>
        <path id="Trazado_118870" data-name="Trazado 118870" d="M410.836,381.892a14.371,14.371,0,1,0,0-28.742H227.521a14.371,14.371,0,0,0,0,28.742Z" transform="translate(-208.027 -348.02)" fill="url(#linear-gradient-112)"/>
        <g id="Grupo_54814" data-name="Grupo 54814" transform="translate(188.596 5.107)">
          <ellipse id="Elipse_4172" data-name="Elipse 4172" cx="9.73" cy="9.73" rx="9.73" ry="9.73" transform="translate(0 16.46) rotate(-57.76)" fill="#7d97f4"/>
          <circle id="Elipse_4173" data-name="Elipse 4173" cx="7.366" cy="7.366" r="7.366" transform="translate(3.854 17.533) rotate(-67.98)" fill="#91b3fa"/>
        </g>
        <g id="Grupo_54815" data-name="Grupo 54815" transform="translate(8.119 5.828)">
          <ellipse id="Elipse_4174" data-name="Elipse 4174" cx="9.73" cy="9.73" rx="9.73" ry="9.73" transform="translate(0 7.447) rotate(-22.5)" fill="#7d97f4"/>
          <circle id="Elipse_4175" data-name="Elipse 4175" cx="7.366" cy="7.366" r="7.366" transform="translate(2.296 12.715) rotate(-45)" fill="#91b3fa"/>
        </g>
      </g>
      <g id="Grupo_54821" data-name="Grupo 54821" transform="translate(163.856 177.684)">
        <g id="Grupo_54818" data-name="Grupo 54818" transform="translate(62.634)">
          <path id="Trazado_118871" data-name="Trazado 118871" d="M449.061,319.641V278.905a5.558,5.558,0,0,0-5.5-5.565c-9.161-.1-28.046-.107-43.495,1.192a4.185,4.185,0,0,0-3.824,4.018L394.8,318.516a5.317,5.317,0,0,0,5.217,5.5l43.729.83a5.217,5.217,0,0,0,5.317-5.21Z" transform="translate(-394.795 -273.301)" fill="url(#linear-gradient-113)"/>
          <path id="Trazado_118872" data-name="Trazado 118872" d="M462.39,284.558c.04,1.976,0,5.11-.067,7.139a1.788,1.788,0,0,1-2.009,1.734l-7.534-.884a1.788,1.788,0,0,1-1.56-2.042l.924-6.174a1.788,1.788,0,0,1,1.768-1.52h6.7a1.781,1.781,0,0,1,1.781,1.748Z" transform="translate(-413.428 -276.442)" fill="#fff"/>
          <path id="Trazado_118873" data-name="Trazado 118873" d="M434.633,293.148l-6.288.67a1.42,1.42,0,0,1-1.567-1.513l1.379-18.7c2.632-.08,5.23-.141,7.741-.188v18.315A1.413,1.413,0,0,1,434.633,293.148Z" transform="translate(-405.359 -273.34)" fill="#fff" opacity="0.37"/>
          <path id="Trazado_118874" data-name="Trazado 118874" d="M434.038,289.913a.629.629,0,0,1-.629.6h-.04a.629.629,0,0,1-.589-.67l.944-16.32H435Z" transform="translate(-407.342 -273.373)" fill="#fff"/>
          <g id="Grupo_54817" data-name="Grupo 54817" transform="translate(40.652 8.236)">
            <path id="Trazado_118875" data-name="Trazado 118875" d="M462.607,291.474a.214.214,0,0,0,.208-.2l.328-5.136a.214.214,0,0,0-.194-.228.208.208,0,0,0-.228.2l-.322,5.136a.208.208,0,0,0,.194.221Z" transform="translate(-457.779 -285.701)" fill="url(#linear-gradient-114)"/>
            <path id="Trazado_118876" data-name="Trazado 118876" d="M461.6,291.425a.208.208,0,0,0,.208-.208l.174-5.237a.221.221,0,0,0-.208-.221.194.194,0,0,0-.214.208l-.174,5.237a.221.221,0,0,0,.208.221Z" transform="translate(-457.445 -285.652)" fill="url(#linear-gradient-115)"/>
            <path id="Trazado_118877" data-name="Trazado 118877" d="M460.251,291.4a.208.208,0,0,1-.2-.214c.08-1.761.241-5.116.248-5.23a.214.214,0,1,1,.422,0c0,.087-.208,4.386-.248,5.25a.221.221,0,0,1-.214.2Zm.04-5.444Z" transform="translate(-457.003 -285.634)" fill="url(#linear-gradient-116)"/>
            <path id="Trazado_118878" data-name="Trazado 118878" d="M458.062,291.583a.422.422,0,0,0,.415-.408c.181-5.076.147-5.19.127-5.264a.422.422,0,0,0-.824.167c0,.3-.08,3.255-.141,5.069a.415.415,0,0,0,.4.435Z" transform="translate(-456.206 -285.602)" fill="url(#linear-gradient-117)"/>
            <path id="Trazado_118879" data-name="Trazado 118879" d="M456.8,291.456a.214.214,0,0,0,.214-.214v-5.136a.214.214,0,1,0-.422,0v5.136A.214.214,0,0,0,456.8,291.456Z" transform="translate(-455.858 -285.683)" fill="url(#linear-gradient-118)"/>
            <path id="Trazado_118880" data-name="Trazado 118880" d="M455.7,291.469a.221.221,0,0,0,.214-.208c.04-1.788.134-4.688.214-5.056a.2.2,0,0,0,0-.221.214.214,0,0,0-.288-.06c-.121.08-.228.147-.342,5.324a.208.208,0,0,0,.2.221Z" transform="translate(-455.499 -285.696)" fill="url(#linear-gradient-119)"/>
            <path id="Trazado_118881" data-name="Trazado 118881" d="M464.192,291.834a.422.422,0,0,0,.422-.4l.281-5.4a.422.422,0,0,0-.4-.442.428.428,0,0,0-.449.4l-.281,5.4a.422.422,0,0,0,.4.442Z" transform="translate(-458.231 -285.599)" fill="url(#linear-gradient-120)"/>
          </g>
        </g>
        <g id="Grupo_54820" data-name="Grupo 54820">
          <path id="Trazado_118882" data-name="Trazado 118882" d="M355.531,319.641V278.905a5.558,5.558,0,0,0-5.5-5.565c-9.154-.1-28.039-.107-43.488,1.192a4.185,4.185,0,0,0-3.824,4.018l-1.447,39.966a5.317,5.317,0,0,0,5.21,5.5l43.736.83a5.217,5.217,0,0,0,5.317-5.21Z" transform="translate(-301.265 -273.301)" fill="url(#linear-gradient-121)"/>
          <path id="Trazado_118883" data-name="Trazado 118883" d="M368.857,284.558c.04,1.976,0,5.11-.067,7.139a1.795,1.795,0,0,1-2.009,1.734l-7.534-.884a1.795,1.795,0,0,1-1.567-2.042l.931-6.174a1.781,1.781,0,0,1,1.768-1.52h6.7A1.788,1.788,0,0,1,368.857,284.558Z" transform="translate(-319.895 -276.442)" fill="#fff"/>
          <path id="Trazado_118884" data-name="Trazado 118884" d="M341.123,293.148l-6.288.67a1.42,1.42,0,0,1-1.567-1.513l1.373-18.7c2.638-.08,5.237-.141,7.741-.188v18.315a1.406,1.406,0,0,1-1.259,1.413Z" transform="translate(-311.836 -273.34)" fill="#fff" opacity="0.37"/>
          <path id="Trazado_118885" data-name="Trazado 118885" d="M340.506,289.913a.67.67,0,0,1-.629.6h-.04a.67.67,0,0,1-.6-.67l.951-16.32h1.266Z" transform="translate(-313.809 -273.373)" fill="#fff"/>
          <g id="Grupo_54819" data-name="Grupo 54819" transform="translate(40.645 8.232)">
            <path id="Trazado_118886" data-name="Trazado 118886" d="M369.074,291.475a.214.214,0,0,0,.208-.2l.328-5.136a.214.214,0,0,0-.2-.228.208.208,0,0,0-.221.2l-.328,5.136a.208.208,0,0,0,.2.221Z" transform="translate(-364.239 -285.698)" fill="url(#linear-gradient-122)"/>
            <path id="Trazado_118887" data-name="Trazado 118887" d="M368.074,291.425a.221.221,0,0,0,.208-.208l.174-5.237a.228.228,0,0,0-.208-.221.194.194,0,0,0-.214.208l-.174,5.237a.214.214,0,0,0,.2.221Z" transform="translate(-363.909 -285.648)" fill="url(#linear-gradient-123)"/>
            <path id="Trazado_118888" data-name="Trazado 118888" d="M366.721,291.419a.2.2,0,0,1-.2-.214c.08-1.761.241-5.116.241-5.23a.221.221,0,0,1,.214-.214.208.208,0,0,1,.208.214c0,.087-.2,4.386-.241,5.25a.221.221,0,0,1-.214.2ZM366.761,285.974Z" transform="translate(-363.466 -285.649)" fill="url(#linear-gradient-124)"/>
            <path id="Trazado_118889" data-name="Trazado 118889" d="M364.522,291.583a.422.422,0,0,0,.422-.409c.181-5.076.147-5.19.127-5.264a.422.422,0,0,0-.824.167c0,.3-.08,3.255-.147,5.069a.422.422,0,0,0,.409.435Z" transform="translate(-362.667 -285.599)" fill="url(#linear-gradient-125)"/>
            <path id="Trazado_118890" data-name="Trazado 118890" d="M363.268,291.478a.214.214,0,0,0,.208-.214v-5.136a.208.208,0,1,0-.415,0v5.136A.214.214,0,0,0,363.268,291.478Z" transform="translate(-362.323 -285.702)" fill="url(#linear-gradient-126)"/>
            <path id="Trazado_118891" data-name="Trazado 118891" d="M362.168,291.469a.208.208,0,0,0,.208-.208c.04-1.788.134-4.688.221-5.056a.208.208,0,0,0-.295-.281c-.114.08-.221.147-.342,5.324a.221.221,0,0,0,.208.221Z" transform="translate(-361.96 -285.692)" fill="url(#linear-gradient-127)"/>
            <path id="Trazado_118892" data-name="Trazado 118892" d="M370.661,291.833a.422.422,0,0,0,.422-.4l.281-5.4a.423.423,0,1,0-.844-.047l-.281,5.4a.415.415,0,0,0,.4.442Z" transform="translate(-364.695 -285.594)" fill="url(#linear-gradient-128)"/>
          </g>
        </g>
      </g>
      <g id="Grupo_54825" data-name="Grupo 54825" transform="translate(22.806 146.696)">
        <g id="Grupo_54822" data-name="Grupo 54822" transform="translate(27.183 20.117)">
          <path id="Trazado_118893" data-name="Trazado 118893" d="M170.827,262l-2.8,1.507a24.556,24.556,0,0,1-9.081,3.563c-8.458,1.266-13.963-4.065-18.081-7.3-5.418-4.272-9.636-2.2-9.636-2.2l5.779,11.036c8.639,8.136,17.485,6.328,23.07,3.69a25.859,25.859,0,0,0,5.779-3.69C172.214,264.79,170.827,262,170.827,262Z" transform="translate(-131.23 -257.067)" fill="url(#linear-gradient-129)"/>
          <path id="Trazado_118894" data-name="Trazado 118894" d="M196.886,266.98a2.076,2.076,0,0,0-1.212-1.339l-5.692-2.284s-.08-.73,1.205-1.225a1.721,1.721,0,0,0,.984-1.942s-1.755.8-4.333,2.076a6.027,6.027,0,0,0-2.739,2.98l1.467,1.929a26.116,26.116,0,0,0,10.634.837Z" transform="translate(-149.025 -258.099)" fill="url(#linear-gradient-130)"/>
        </g>
        <path id="Trazado_118895" data-name="Trazado 118895" d="M129.047,390.41s-.429,2.451-.67,4.882a1.674,1.674,0,0,0,1.6,1.808c3.234.134,10.145.4,12.63.288a.542.542,0,0,0,.475-.743h0a1.2,1.2,0,0,0-.623-.67l-11.384-5.25Z" transform="translate(-103.103 -280.998)" fill="url(#linear-gradient-131)"/>
        <path id="Trazado_118896" data-name="Trazado 118896" d="M128.85,388.035l.348,2.933s2.009.931,3.348-.121l-.83-3.268Z" transform="translate(-103.261 -280.063)" fill="url(#linear-gradient-132)"/>
        <path id="Trazado_118897" data-name="Trazado 118897" d="M123.92,303c-.147.79.268,41.593,4.272,58.991.067.288.482.844.335,1.092-.342.589-2.9.422-4.346.475-.449,0-.67-.509-.81-.951-1.145-4.018-6.63-24.269-7.366-43.6-.8-21.59,0-.737,0-.737l-.355-13.681Z" transform="translate(-98.9 -252.124)" fill="url(#linear-gradient-133)"/>
        <path id="Trazado_118898" data-name="Trazado 118898" d="M109.1,392.32a17.692,17.692,0,0,0-1.339,4.527,1.025,1.025,0,0,0,.9,1.225c1.071.1,2.679.234,4.018.228a1.018,1.018,0,0,0,1.011-1.132,8.605,8.605,0,0,0-2.009-4.688Z" transform="translate(-96.287 -281.629)" fill="url(#linear-gradient-134)"/>
        <path id="Trazado_118899" data-name="Trazado 118899" d="M108.86,386.6l.817,4.433a2.873,2.873,0,0,0,2.391.167l-.388-4.775Z" transform="translate(-96.657 -279.683)" fill="url(#linear-gradient-135)"/>
        <path id="Trazado_118900" data-name="Trazado 118900" d="M105.3,304.426c-3.268,20.626.469,52.562,1.815,58.5a.891.891,0,0,0,.717.7,5.646,5.646,0,0,0,2.558-.1.85.85,0,0,0,.589-.784c.181-4.8-.147-34.294,2.906-45.946a2.679,2.679,0,0,1,.978-1.46l5.023-4.092.094-8.82Z" transform="translate(-95.049 -251.935)" fill="url(#linear-gradient-136)"/>
        <path id="Trazado_118901" data-name="Trazado 118901" d="M124.368,256a80.9,80.9,0,0,0-18.155,2.264c-2.116,12.375-1.266,26.083-.824,30.6.087.924-.408,1.9.516,2.049a41.906,41.906,0,0,0,13.815-.67c.8-.234.67-1.092.837-1.915,1.487-7.105,5.719-22.769,5.719-22.769,2.049,2.645,4.949,6.335,9.228,7.319-2.183-2.525,2.009-7.828,1.56-9.737C133.168,258.816,127,256.037,124.368,256Z" transform="translate(-95.33 -236.595)" fill="url(#linear-gradient-137)"/>
        <path id="Trazado_118902" data-name="Trazado 118902" d="M119.547,245.54l-2.746,7.936a.288.288,0,0,0,.127.348,6.462,6.462,0,0,0,6.7-.449,1.393,1.393,0,0,0,.623-.964l.884-6.871Z" transform="translate(-99.275 -233.143)" fill="url(#linear-gradient-138)"/>
        <g id="Grupo_54823" data-name="Grupo 54823" transform="translate(16.863 2.567)">
          <path id="Trazado_118903" data-name="Trazado 118903" d="M126.368,234.55s3.013,5.679,2.625,7.969-4.118,2.13-7.366.268l-2.277-6.127Z" transform="translate(-116.986 -232.079)" fill="url(#linear-gradient-139)"/>
          <path id="Trazado_118904" data-name="Trazado 118904" d="M120.588,238.561a.234.234,0,0,0,.1-.342,6.134,6.134,0,0,1-.837-1.781s-.542-.348,1.38-.81c1.045-.248,2.9-.455,3.717-1.212s-.77-2.431-1.48-2.859a4.092,4.092,0,0,0-3.121-.609,5.753,5.753,0,0,0-1.42.67,5.88,5.88,0,0,0-2.056,1.688,5.358,5.358,0,0,0-.67,1.614,7.915,7.915,0,0,0-.382,2.458c.1,2.223,2.679,4.206,4.788,4.453a.234.234,0,0,0,.248-.315l-.85-2.484a.228.228,0,0,1,.127-.288Z" transform="translate(-115.82 -230.86)" fill="url(#linear-gradient-140)"/>
          <path id="Trazado_118905" data-name="Trazado 118905" d="M122.309,242.521s-2.143-1.473-2.3-.228,1.935,1.795,2.967,1.339Z" transform="translate(-117.2 -234.472)" fill="url(#linear-gradient-141)"/>
        </g>
        <path id="Trazado_118906" data-name="Trazado 118906" d="M125.6,230.679c-4.406-8.324-15.824-.763-10.507,6.248C119.049,234.295,123.509,230.391,125.6,230.679Z" transform="translate(-98.261 -227.027)" fill="url(#linear-gradient-142)"/>
        <path id="Trazado_118907" data-name="Trazado 118907" d="M121.147,235.9l7.915-.248a.576.576,0,0,0,.482-.288,5.357,5.357,0,0,1,3.04-2.545.161.161,0,0,0-.047-.308l-4.848-.335h0c-2.418.188-4.56,1.641-6.6,3.549a.1.1,0,0,0,.054.174Z" transform="translate(-100.688 -228.729)" fill="url(#linear-gradient-143)"/>
        <path id="Trazado_118908" data-name="Trazado 118908" d="M102.572,272c4.775-5.357,4.353-9.5-.911-12.5a.355.355,0,0,0-.382,0c-1.286.924-8.98,6.7-10.34,13.8a21.335,21.335,0,0,1,7.855,2.109C99.465,271.751,102.572,272,102.572,272Z" transform="translate(-90.738 -237.736)" fill="url(#linear-gradient-144)"/>
        <path id="Trazado_118909" data-name="Trazado 118909" d="M127.13,269.375l2.752.261L131.1,255.66l-2.8.074Z" transform="translate(-102.693 -236.486)" fill="url(#linear-gradient-145)"/>
        <path id="Trazado_118910" data-name="Trazado 118910" d="M109.288,271.317l2.638.194-.784-13.581-2.833.563Z" transform="translate(-96.476 -237.235)" fill="url(#linear-gradient-146)"/>
        <path id="Trazado_118911" data-name="Trazado 118911" d="M106.86,295.485c3.844,1.761,9.174,1.547,14.163.154l2.042-18.958a1.574,1.574,0,0,0-1.56-1.741H108.293a1.393,1.393,0,0,0-1.279,1.306Z" transform="translate(-95.997 -242.854)" fill="url(#linear-gradient-147)"/>
        <path id="Trazado_118912" data-name="Trazado 118912" d="M120.534,304.654a34.643,34.643,0,0,1-15.074-.054l-.06,2.551a.161.161,0,0,0,.114.154,27.034,27.034,0,0,0,14.913.161.455.455,0,0,0,.342-.442v-2.156a.208.208,0,0,0-.234-.214Z" transform="translate(-95.515 -252.652)" fill="url(#linear-gradient-148)"/>
        <path id="Trazado_118913" data-name="Trazado 118913" d="M112.979,284.419s-10.145,5.732-13.567.837a3.817,3.817,0,0,1-.71-2.987,21.335,21.335,0,0,0-7.855-2.109,10.715,10.715,0,0,0,1.172,7.366c6.027,10.969,22.3-.6,22.3-.6Z" transform="translate(-90.638 -244.579)" fill="url(#linear-gradient-149)"/>
        <g id="Grupo_54824" data-name="Grupo 54824" transform="translate(21.092 24.273)">
          <path id="Trazado_118914" data-name="Trazado 118914" d="M122.158,287.02l5.538-19.333a.556.556,0,0,1,.475-.408c1-.114,3.911-.442,7.266-.73a82.627,82.627,0,0,1,11.545-.382.569.569,0,0,1,.462.817c-1.6,3.228-8.157,16.353-11.445,20.659a.576.576,0,0,1-.455.221l-12.831-.121a.563.563,0,0,1-.556-.723Z" transform="translate(-122.135 -264.201)" fill="#91b3fa"/>
          <path id="Trazado_118915" data-name="Trazado 118915" d="M142.622,263.948l4.018-.67a.288.288,0,0,1,.321.375l-.4,1.205a.281.281,0,0,1-.234.194l-3.864.516a.288.288,0,0,1-.321-.348l.248-1.051A.3.3,0,0,1,142.622,263.948Z" transform="translate(-128.743 -263.274)" fill="#7d97f4"/>
          <path id="Trazado_118916" data-name="Trazado 118916" d="M138.367,267.935l.328-1.721a.4.4,0,0,1,.355-.321l8.1-.824a.4.4,0,0,1,.429.489l-.516,2.15a.4.4,0,0,1-.368.308l-7.922.4a.4.4,0,0,1-.408-.475Z" transform="translate(-127.494 -263.866)" fill="#7d97f4"/>
          <path id="Trazado_118917" data-name="Trazado 118917" d="M123.905,287.127s-.777-3.174-.462-4.3.911-2.571,2.92-2.25a29.564,29.564,0,0,1,4.38,1.165,1.152,1.152,0,0,1-1.647,1l.951.73s-.134,1.172-1.426.549l.884.971a1.031,1.031,0,0,1-1.507.348C127.046,284.716,126.59,287.542,123.905,287.127Z" transform="translate(-122.542 -268.975)" fill="url(#linear-gradient-150)"/>
        </g>
      </g>
    </g>
  </g>
</svg>
