<svg xmlns="http://www.w3.org/2000/svg" width="623" height="345" viewBox="0 0 623 345">
  <g id="Grupo_61276" data-name="Grupo 61276" transform="translate(-742 -6172)">
    <rect id="Rectángulo_30400" data-name="Rectángulo 30400" width="623" height="345" rx="18" transform="translate(742 6172)" fill="#f2f6fe"/>
    <g id="slider-2-01" transform="translate(818.196 6179.279)">
      <g id="Grupo_55500" data-name="Grupo 55500" transform="translate(50.626 15.408)">
        <g id="Grupo_55473" data-name="Grupo 55473" transform="translate(-104.983 -1)">
          <g id="Grupo_55382" data-name="Grupo 55382" transform="translate(91.814 32.779)">
            <path id="Trazado_120655" data-name="Trazado 120655" d="M149.6,81.4l32.091-2.276-5.027,7.889-32.125.977Z" transform="translate(-144.532 -79.12)" fill="#e68173"/>
            <g id="Grupo_55381" data-name="Grupo 55381" transform="translate(0 7.914)">
              <path id="Trazado_120656" data-name="Trazado 120656" d="M144.53,89.357l32.125-.917,8.314,21.068-32.957-4.764Z" transform="translate(-144.53 -88.44)" fill="#f2977c"/>
              <g id="Grupo_55380" data-name="Grupo 55380" transform="translate(3.84 3.142)">
                <g id="Grupo_55373" data-name="Grupo 55373" transform="translate(22.956)">
                  <path id="Trazado_120657" data-name="Trazado 120657" d="M183.25,107.789l.3.034c.594.076.926-.246.739-.713l-2.267-5.562a1.787,1.787,0,0,0-1.435-.951l-.3-.017c-.586-.034-.892.323-.7.8l2.259,5.452A1.869,1.869,0,0,0,183.25,107.789Z" transform="translate(-176.604 -93.412)" fill="#ad8079"/>
                  <path id="Trazado_120658" data-name="Trazado 120658" d="M178.951,97.312l.3.017c.594.025.909-.348.713-.849l-1.4-3.422a1.654,1.654,0,0,0-1.444-.917h-.3c-.577,0-.875.408-.671.9l1.384,3.346A1.7,1.7,0,0,0,178.951,97.312Z" transform="translate(-176.084 -92.14)" fill="#ad8079"/>
                </g>
                <g id="Grupo_55374" data-name="Grupo 55374" transform="translate(14.072 0.009)">
                  <path id="Trazado_120659" data-name="Trazado 120659" d="M172.5,106.569l.255.034c.5.059.764-.238.577-.671l-2.225-5.129a1.6,1.6,0,0,0-1.257-.866l-.246-.017c-.493-.034-.73.3-.543.739l2.208,5.036A1.712,1.712,0,0,0,172.5,106.569Z" transform="translate(-166.131 -93.321)" fill="#ad8079"/>
                  <path id="Trazado_120660" data-name="Trazado 120660" d="M168.287,96.905l.246.008a.519.519,0,0,0,.552-.781l-1.359-3.142a1.5,1.5,0,0,0-1.265-.841h-.246a.536.536,0,0,0-.518.824l1.35,3.083A1.55,1.55,0,0,0,168.287,96.905Z" transform="translate(-165.622 -92.15)" fill="#ad8079"/>
                </g>
                <g id="Grupo_55375" data-name="Grupo 55375" transform="translate(18.318 0.008)">
                  <path id="Trazado_120661" data-name="Trazado 120661" d="M171.555,92.15h-.272a.581.581,0,0,0-.594.858l2.327,5.443a1.655,1.655,0,0,0,1.316.892l.272.017c.543.034.832-.314.628-.781L172.9,93.025A1.547,1.547,0,0,0,171.555,92.15Z" transform="translate(-170.623 -92.15)" fill="#ad8079"/>
                  <path id="Trazado_120662" data-name="Trazado 120662" d="M176.1,102.865l-.272-.025c-.535-.042-.815.289-.62.739l1.3,3.049a1.774,1.774,0,0,0,1.316.917l.272.034c.543.068.841-.238.654-.688l-1.308-3.108A1.731,1.731,0,0,0,176.1,102.865Z" transform="translate(-171.305 -93.762)" fill="#ad8079"/>
                </g>
                <g id="Grupo_55376" data-name="Grupo 55376" transform="translate(10.14 0.017)">
                  <path id="Trazado_120663" data-name="Trazado 120663" d="M161.755,92.16h-.229c-.45,0-.654.357-.459.79l2.259,5.027a1.527,1.527,0,0,0,1.172.824l.229.017c.459.034.688-.3.493-.73l-2.276-5.121A1.42,1.42,0,0,0,161.755,92.16Z" transform="translate(-160.993 -92.16)" fill="#ad8079"/>
                  <path id="Trazado_120664" data-name="Trazado 120664" d="M166.181,102.057l-.229-.017c-.459-.034-.671.272-.484.688l1.274,2.828a1.616,1.616,0,0,0,1.163.841l.229.025c.467.059.7-.229.51-.645l-1.282-2.879A1.541,1.541,0,0,0,166.181,102.057Z" transform="translate(-161.657 -93.65)" fill="#ad8079"/>
                </g>
                <g id="Grupo_55377" data-name="Grupo 55377" transform="translate(6.518 0.025)">
                  <path id="Trazado_120665" data-name="Trazado 120665" d="M163.32,105.523l.212.025c.433.051.637-.229.459-.628l-2.165-4.755a1.455,1.455,0,0,0-1.121-.8l-.212-.017c-.425-.025-.611.28-.425.688l2.148,4.679A1.581,1.581,0,0,0,163.32,105.523Z" transform="translate(-157.22 -93.253)" fill="#ad8079"/>
                  <path id="Trazado_120666" data-name="Trazado 120666" d="M159.218,96.56l.212.009c.425.017.62-.306.433-.722l-1.325-2.9a1.377,1.377,0,0,0-1.121-.773h-.212c-.416,0-.594.34-.4.764l1.316,2.853A1.385,1.385,0,0,0,159.218,96.56Z" transform="translate(-156.727 -92.17)" fill="#ad8079"/>
                </g>
                <g id="Grupo_55378" data-name="Grupo 55378" transform="translate(0 0.025)">
                  <path id="Trazado_120667" data-name="Trazado 120667" d="M155.389,104.619l.187.025c.374.042.535-.221.357-.594l-2.106-4.433a1.365,1.365,0,0,0-1-.739l-.187-.009c-.365-.025-.509.263-.331.645l2.089,4.365A1.455,1.455,0,0,0,155.389,104.619Z" transform="translate(-149.531 -93.18)" fill="#ad8079"/>
                  <path id="Trazado_120668" data-name="Trazado 120668" d="M151.411,96.263l.187.008c.365.017.518-.289.331-.679l-1.282-2.7a1.265,1.265,0,0,0-1.011-.722h-.187c-.365,0-.5.323-.314.713l1.274,2.658A1.357,1.357,0,0,0,151.411,96.263Z" transform="translate(-149.052 -92.17)" fill="#ad8079"/>
                </g>
                <g id="Grupo_55379" data-name="Grupo 55379" transform="translate(3.146 0.025)">
                  <path id="Trazado_120669" data-name="Trazado 120669" d="M153.388,92.17h-.2c-.391,0-.543.331-.357.739l2.191,4.662a1.411,1.411,0,0,0,1.045.756l.2.017c.4.025.569-.28.382-.679l-2.208-4.747A1.3,1.3,0,0,0,153.388,92.17Z" transform="translate(-152.757 -92.17)" fill="#ad8079"/>
                  <path id="Trazado_120670" data-name="Trazado 120670" d="M157.673,101.357l-.2-.017c-.391-.034-.56.255-.382.645l1.24,2.632a1.5,1.5,0,0,0,1.045.781l.2.025c.4.051.586-.221.408-.611l-1.248-2.675A1.416,1.416,0,0,0,157.673,101.357Z" transform="translate(-153.399 -93.552)" fill="#ad8079"/>
                </g>
              </g>
            </g>
            <path id="Trazado_120671" data-name="Trazado 120671" d="M194.52,99.269l-3.847,8.84L182.36,87.04l5.044-7.88Z" transform="translate(-150.235 -79.126)" fill="#d86757"/>
          </g>
          <g id="Grupo_55392" data-name="Grupo 55392" transform="translate(0 31.403)">
            <path id="Trazado_120672" data-name="Trazado 120672" d="M39.419,88.743,69.557,77.5l-2.59,8.984L36.43,96.5Z" transform="translate(-36.413 -77.5)" fill="#fc9486"/>
            <g id="Grupo_55391" data-name="Grupo 55391" transform="translate(0 9.01)">
              <path id="Trazado_120673" data-name="Trazado 120673" d="M36.41,98.063,66.964,88.11l13.918,17.858-32.957,4.747Z" transform="translate(-36.41 -88.11)" fill="#f2977c"/>
              <g id="Grupo_55390" data-name="Grupo 55390" transform="translate(4.395 4.179)">
                <g id="Grupo_55383" data-name="Grupo 55383" transform="translate(22.08)">
                  <path id="Trazado_120674" data-name="Trazado 120674" d="M78.737,106.363l.3-.051c.594-.1.824-.5.5-.892l-3.745-4.7a1.766,1.766,0,0,0-1.647-.5l-.289.068c-.569.127-.764.56-.442.96l3.7,4.594A1.875,1.875,0,0,0,78.737,106.363Z" transform="translate(-68.442 -94.11)" fill="#ad8079"/>
                  <path id="Trazado_120675" data-name="Trazado 120675" d="M71.649,97.522l.289-.068c.577-.144.773-.594.442-1.011l-2.3-2.887a1.659,1.659,0,0,0-1.647-.467l-.28.085c-.552.161-.73.637-.391,1.053l2.276,2.819A1.7,1.7,0,0,0,71.649,97.522Z" transform="translate(-67.587 -93.031)" fill="#ad8079"/>
                </g>
                <g id="Grupo_55384" data-name="Grupo 55384" transform="translate(13.537 2.58)">
                  <path id="Trazado_120676" data-name="Trazado 120676" d="M68.066,108.236l.246-.042c.5-.085.662-.442.365-.807l-3.584-4.3a1.614,1.614,0,0,0-1.452-.476l-.246.059c-.484.11-.62.493-.306.858l3.541,4.2A1.674,1.674,0,0,0,68.066,108.236Z" transform="translate(-58.34 -97.052)" fill="#ad8079"/>
                  <path id="Trazado_120677" data-name="Trazado 120677" d="M61.3,100.163l.246-.059a.52.52,0,0,0,.306-.909l-2.191-2.632a1.508,1.508,0,0,0-1.452-.45l-.238.068a.541.541,0,0,0-.263.943L59.873,99.7A1.546,1.546,0,0,0,61.3,100.163Z" transform="translate(-57.526 -96.069)" fill="#ad8079"/>
                </g>
                <g id="Grupo_55385" data-name="Grupo 55385" transform="translate(17.625 1.342)">
                  <path id="Trazado_120678" data-name="Trazado 120678" d="M63.1,94.661l-.255.076a.58.58,0,0,0-.323.994l3.762,4.56a1.666,1.666,0,0,0,1.52.484l.263-.059c.535-.119.7-.535.382-.926L64.633,95.12A1.576,1.576,0,0,0,63.1,94.661Z" transform="translate(-62.34 -94.611)" fill="#ad8079"/>
                  <path id="Trazado_120679" data-name="Trazado 120679" d="M70.477,103.675l-.263.059c-.526.11-.7.5-.382.883l2.114,2.556a1.781,1.781,0,0,0,1.52.51l.272-.042c.543-.093.739-.467.433-.849l-2.131-2.616A1.772,1.772,0,0,0,70.477,103.675Z" transform="translate(-63.446 -95.974)" fill="#ad8079"/>
                </g>
                <g id="Grupo_55386" data-name="Grupo 55386" transform="translate(9.754 3.722)">
                  <path id="Trazado_120680" data-name="Trazado 120680" d="M53.69,97.453l-.221.068c-.433.127-.526.527-.212.892l3.592,4.178a1.508,1.508,0,0,0,1.35.459l.229-.051a.466.466,0,0,0,.263-.832l-3.635-4.271A1.43,1.43,0,0,0,53.69,97.453Z" transform="translate(-53.071 -97.414)" fill="#ad8079"/>
                  <path id="Trazado_120681" data-name="Trazado 120681" d="M60.722,105.705l-.229.051a.448.448,0,0,0-.272.8l2.021,2.352a1.615,1.615,0,0,0,1.35.476l.229-.042c.467-.076.6-.425.306-.764l-2.038-2.395A1.5,1.5,0,0,0,60.722,105.705Z" transform="translate(-54.125 -98.661)" fill="#ad8079"/>
                </g>
                <g id="Grupo_55387" data-name="Grupo 55387" transform="translate(6.262 4.787)">
                  <path id="Trazado_120682" data-name="Trazado 120682" d="M58.958,109.839l.212-.034c.433-.068.552-.4.255-.73L56,105.126a1.49,1.49,0,0,0-1.3-.45l-.212.051c-.416.093-.51.442-.212.781l3.388,3.881A1.593,1.593,0,0,0,58.958,109.839Z" transform="translate(-49.735 -99.571)" fill="#ad8079"/>
                  <path id="Trazado_120683" data-name="Trazado 120683" d="M52.5,102.406l.2-.051c.416-.1.51-.467.2-.815L50.82,99.128a1.377,1.377,0,0,0-1.3-.425l-.2.059c-.4.119-.476.5-.17.849l2.064,2.369A1.512,1.512,0,0,0,52.5,102.406Z" transform="translate(-48.959 -98.668)" fill="#ad8079"/>
                </g>
                <g id="Grupo_55388" data-name="Grupo 55388" transform="translate(0 6.662)">
                  <path id="Trazado_120684" data-name="Trazado 120684" d="M51.109,111.216l.187-.034c.374-.059.459-.365.178-.671l-3.269-3.66a1.364,1.364,0,0,0-1.172-.425l-.178.042c-.357.085-.416.4-.136.713l3.235,3.592A1.384,1.384,0,0,0,51.109,111.216Z" transform="translate(-42.333 -101.71)" fill="#ad8079"/>
                  <path id="Trazado_120685" data-name="Trazado 120685" d="M44.918,104.327l.178-.042c.357-.085.416-.425.127-.747l-2-2.225a1.275,1.275,0,0,0-1.172-.408l-.178.051c-.348.1-.391.45-.1.773l1.97,2.191A1.409,1.409,0,0,0,44.918,104.327Z" transform="translate(-41.585 -100.876)" fill="#ad8079"/>
                </g>
                <g id="Grupo_55389" data-name="Grupo 55389" transform="translate(3.027 5.75)">
                  <path id="Trazado_120686" data-name="Trazado 120686" d="M45.659,99.834l-.187.059c-.374.11-.433.467-.127.807l3.422,3.855a1.411,1.411,0,0,0,1.214.433l.2-.042c.391-.085.467-.425.178-.756l-3.465-3.932A1.311,1.311,0,0,0,45.659,99.834Z" transform="translate(-45.149 -99.803)" fill="#ad8079"/>
                  <path id="Trazado_120687" data-name="Trazado 120687" d="M52.372,107.437l-.2.042c-.391.076-.467.408-.187.73l1.928,2.174a1.491,1.491,0,0,0,1.223.45l.2-.034c.4-.068.5-.382.212-.7L53.6,107.879A1.467,1.467,0,0,0,52.372,107.437Z" transform="translate(-46.156 -100.952)" fill="#ad8079"/>
                </g>
              </g>
            </g>
            <path id="Trazado_120688" data-name="Trazado 120688" d="M87.506,94.811l-1.2,9.562L72.39,86.514l2.616-8.984Z" transform="translate(-41.836 -77.505)" fill="#ad8079"/>
          </g>
          <g id="Grupo_55402" data-name="Grupo 55402" transform="translate(17.485 31.327)">
            <path id="Trazado_120689" data-name="Trazado 120689" d="M102.493,99.055,73.4,112.778l1.834-9.171L104.828,91.09Z" transform="translate(-59.473 -79.473)" fill="#b35548"/>
            <g id="Grupo_55401" data-name="Grupo 55401" transform="translate(0.391)">
              <path id="Trazado_120690" data-name="Trazado 120690" d="M102.45,89.052,72.822,101.518,57.46,84.874,89.916,77.41Z" transform="translate(-57.46 -77.41)" fill="#fca990"/>
              <g id="Grupo_55400" data-name="Grupo 55400" transform="translate(6.918 2.354)">
                <g id="Grupo_55393" data-name="Grupo 55393" transform="translate(0 5.841)">
                  <path id="Trazado_120691" data-name="Trazado 120691" d="M66.493,87.111l-.289.076c-.577.144-.773.56-.425.934l4.127,4.373a1.774,1.774,0,0,0,1.681.365l.28-.093c.56-.178.713-.62.357-.994L68.149,87.5A1.89,1.89,0,0,0,66.493,87.111Z" transform="translate(-65.606 -87.061)" fill="#ad8079"/>
                  <path id="Trazado_120692" data-name="Trazado 120692" d="M74.572,95.606l-.28.093c-.56.187-.722.654-.357,1.044l2.539,2.683a1.661,1.661,0,0,0,1.681.331l.272-.11c.543-.212.671-.7.306-1.078l-2.505-2.624A1.732,1.732,0,0,0,74.572,95.606Z" transform="translate(-66.833 -88.338)" fill="#ad8079"/>
                </g>
                <g id="Grupo_55394" data-name="Grupo 55394" transform="translate(9.112 3.59)">
                  <path id="Trazado_120693" data-name="Trazado 120693" d="M77.061,84.452l-.246.059c-.493.127-.628.5-.3.832l3.923,3.983a1.62,1.62,0,0,0,1.486.357l.238-.076c.467-.153.577-.543.238-.883l-3.881-3.9A1.655,1.655,0,0,0,77.061,84.452Z" transform="translate(-76.336 -84.41)" fill="#ad8079"/>
                  <path id="Trazado_120694" data-name="Trazado 120694" d="M84.75,92.188l-.238.076a.517.517,0,0,0-.229.926l2.4,2.437a1.494,1.494,0,0,0,1.486.323l.229-.093a.541.541,0,0,0,.187-.96l-2.378-2.386A1.562,1.562,0,0,0,84.75,92.188Z" transform="translate(-77.504 -85.573)" fill="#ad8079"/>
                </g>
                <g id="Grupo_55395" data-name="Grupo 55395" transform="translate(4.75 4.674)">
                  <path id="Trazado_120695" data-name="Trazado 120695" d="M83.071,97.477l.255-.093a.581.581,0,0,0,.238-1.019l-4.136-4.229a1.667,1.667,0,0,0-1.554-.357l-.263.085c-.518.161-.662.594-.306.96l4.186,4.331A1.615,1.615,0,0,0,83.071,97.477Z" transform="translate(-72.091 -86.596)" fill="#ad8079"/>
                  <path id="Trazado_120696" data-name="Trazado 120696" d="M75.293,89.468l.263-.076c.518-.153.654-.56.314-.909l-2.318-2.369A1.772,1.772,0,0,0,72,85.732l-.263.068c-.535.136-.7.526-.357.883l2.344,2.429A1.736,1.736,0,0,0,75.293,89.468Z" transform="translate(-71.2 -85.686)" fill="#ad8079"/>
                </g>
                <g id="Grupo_55396" data-name="Grupo 55396" transform="translate(13.133 2.587)">
                  <path id="Trazado_120697" data-name="Trazado 120697" d="M92.309,94l.212-.085c.416-.161.484-.569.136-.909L88.734,89.14a1.506,1.506,0,0,0-1.384-.34l-.221.068c-.442.136-.535.518-.2.858l3.974,3.949A1.413,1.413,0,0,0,92.309,94Z" transform="translate(-81.925 -84.061)" fill="#ad8079"/>
                  <path id="Trazado_120698" data-name="Trazado 120698" d="M84.909,86.686l.221-.068a.446.446,0,0,0,.2-.815l-2.208-2.174a1.643,1.643,0,0,0-1.393-.365l-.229.059c-.459.119-.569.467-.246.79l2.233,2.216A1.581,1.581,0,0,0,84.909,86.686Z" transform="translate(-81.072 -83.229)" fill="#ad8079"/>
                </g>
                <g id="Grupo_55397" data-name="Grupo 55397" transform="translate(16.883 1.662)">
                  <path id="Trazado_120699" data-name="Trazado 120699" d="M86.084,82.174l-.212.051c-.425.11-.509.442-.2.756l3.736,3.652a1.49,1.49,0,0,0,1.333.34l.2-.068c.408-.127.467-.484.144-.8L87.4,82.522A1.549,1.549,0,0,0,86.084,82.174Z" transform="translate(-85.487 -82.139)" fill="#ad8079"/>
                  <path id="Trazado_120700" data-name="Trazado 120700" d="M93.412,89.281l-.2.068c-.408.136-.467.51-.136.832l2.284,2.233a1.369,1.369,0,0,0,1.325.314l.2-.076c.391-.153.433-.535.1-.858l-2.259-2.182A1.418,1.418,0,0,0,93.412,89.281Z" transform="translate(-86.599 -83.209)" fill="#ad8079"/>
                </g>
                <g id="Grupo_55398" data-name="Grupo 55398" transform="translate(23.575)">
                  <path id="Trazado_120701" data-name="Trazado 120701" d="M93.871,80.206l-.187.042c-.365.093-.425.4-.119.688l3.567,3.371a1.357,1.357,0,0,0,1.206.331l.178-.059c.348-.11.382-.433.076-.722l-3.524-3.312A1.5,1.5,0,0,0,93.871,80.206Z" transform="translate(-93.369 -80.182)" fill="#ad8079"/>
                  <path id="Trazado_120702" data-name="Trazado 120702" d="M100.858,86.783l-.178.059c-.348.119-.382.459-.068.756l2.174,2.055a1.256,1.256,0,0,0,1.2.306l.17-.068c.34-.127.348-.476.034-.773l-2.148-2.013A1.291,1.291,0,0,0,100.858,86.783Z" transform="translate(-94.428 -81.171)" fill="#ad8079"/>
                </g>
                <g id="Grupo_55399" data-name="Grupo 55399" transform="translate(20.35 0.8)">
                  <path id="Trazado_120703" data-name="Trazado 120703" d="M100.191,91.035l.187-.068c.365-.144.391-.5.068-.815l-3.728-3.558a1.409,1.409,0,0,0-1.248-.331l-.187.059c-.382.119-.433.467-.11.773l3.779,3.626A1.273,1.273,0,0,0,100.191,91.035Z" transform="translate(-90.383 -81.893)" fill="#ad8079"/>
                  <path id="Trazado_120704" data-name="Trazado 120704" d="M93.162,84.305l.2-.059c.382-.11.433-.442.119-.739l-2.106-2a1.5,1.5,0,0,0-1.257-.348l-.2.051c-.391.1-.467.425-.153.713L91.9,83.965A1.4,1.4,0,0,0,93.162,84.305Z" transform="translate(-89.571 -81.124)" fill="#ad8079"/>
                </g>
              </g>
            </g>
            <path id="Trazado_120705" data-name="Trazado 120705" d="M57,95.838l.391-9.638,15.362,16.644L70.9,112.015Z" transform="translate(-57 -78.736)" fill="#e68173"/>
          </g>
          <g id="Grupo_55412" data-name="Grupo 55412" transform="translate(16.126 12.543)">
            <path id="Trazado_120706" data-name="Trazado 120706" d="M102.921,73.81,77.4,93.4l-.153-9.35L103.507,65.53Z" transform="translate(-58.695 -56.834)" fill="#d86757"/>
            <g id="Grupo_55411" data-name="Grupo 55411">
              <path id="Trazado_120707" data-name="Trazado 120707" d="M100.237,64,73.946,82.481,55.4,69.488l30.121-14.2Z" transform="translate(-55.4 -55.29)" fill="#fca990"/>
              <g id="Grupo_55410" data-name="Grupo 55410" transform="translate(7.038 2.534)">
                <g id="Grupo_55403" data-name="Grupo 55403" transform="translate(0 10.578)">
                  <path id="Trazado_120708" data-name="Trazado 120708" d="M64.437,70.917l-.272.136c-.535.263-.637.713-.221,1l4.959,3.4a1.76,1.76,0,0,0,1.715,0l.255-.144c.51-.289.569-.756.136-1.044l-4.891-3.3A1.8,1.8,0,0,0,64.437,70.917Z" transform="translate(-63.688 -70.731)" fill="#ad8079"/>
                  <path id="Trazado_120709" data-name="Trazado 120709" d="M74.139,77.5l-.255.153c-.51.306-.569.8-.127,1.1l3.049,2.089a1.646,1.646,0,0,0,1.707-.034l.246-.161c.484-.323.51-.824.068-1.121l-3.006-2.03A1.7,1.7,0,0,0,74.139,77.5Z" transform="translate(-65.162 -71.717)" fill="#ad8079"/>
                </g>
                <g id="Grupo_55404" data-name="Grupo 55404" transform="translate(8.403 6.494)">
                  <path id="Trazado_120710" data-name="Trazado 120710" d="M74.192,66.073l-.229.11c-.459.229-.51.62-.11.875l4.679,3.057a1.6,1.6,0,0,0,1.529.025l.221-.127a.5.5,0,0,0,.042-.917L75.7,66.116A1.742,1.742,0,0,0,74.192,66.073Z" transform="translate(-73.583 -65.921)" fill="#ad8079"/>
                  <path id="Trazado_120711" data-name="Trazado 120711" d="M83.354,72.007l-.212.127a.523.523,0,0,0-.025.96l2.87,1.868a1.479,1.479,0,0,0,1.52,0l.2-.136a.538.538,0,0,0-.025-.977l-2.828-1.826A1.551,1.551,0,0,0,83.354,72.007Z" transform="translate(-74.975 -66.811)" fill="#ad8079"/>
                </g>
                <g id="Grupo_55405" data-name="Grupo 55405" transform="translate(4.384 8.457)">
                  <path id="Trazado_120712" data-name="Trazado 120712" d="M82.842,77.523l.221-.144a.58.58,0,0,0,.017-1.044l-4.934-3.261a1.686,1.686,0,0,0-1.6-.017l-.238.136c-.476.272-.518.722-.093,1l5.01,3.346A1.591,1.591,0,0,0,82.842,77.523Z" transform="translate(-69.918 -68.931)" fill="#ad8079"/>
                  <path id="Trazado_120713" data-name="Trazado 120713" d="M73.538,71.355l.238-.127c.476-.263.518-.688.11-.96l-2.768-1.826a1.782,1.782,0,0,0-1.6-.042l-.246.119c-.493.246-.569.662-.161.934l2.8,1.877A1.712,1.712,0,0,0,73.538,71.355Z" transform="translate(-68.851 -68.233)" fill="#ad8079"/>
                </g>
                <g id="Grupo_55406" data-name="Grupo 55406" transform="translate(12.13 4.688)">
                  <path id="Trazado_120714" data-name="Trazado 120714" d="M91.123,72.176l.187-.127c.374-.246.348-.654-.059-.917L86.6,68.185a1.541,1.541,0,0,0-1.427-.042l-.2.119a.469.469,0,0,0-.008.875l4.721,3.015A1.42,1.42,0,0,0,91.123,72.176Z" transform="translate(-78.981 -64.427)" fill="#ad8079"/>
                  <path id="Trazado_120715" data-name="Trazado 120715" d="M82.344,66.6l.2-.11a.448.448,0,0,0,.025-.841l-2.615-1.656a1.609,1.609,0,0,0-1.435-.059l-.212.1c-.425.212-.45.577-.068.824l2.658,1.7A1.55,1.55,0,0,0,82.344,66.6Z" transform="translate(-77.973 -63.794)" fill="#ad8079"/>
                </g>
                <g id="Grupo_55407" data-name="Grupo 55407" transform="translate(15.569 3.011)">
                  <path id="Trazado_120716" data-name="Trazado 120716" d="M82.521,61.947l-.2.093c-.391.2-.408.543-.034.773l4.433,2.777a1.49,1.49,0,0,0,1.376.051l.187-.11c.365-.212.357-.569-.025-.807l-4.373-2.717A1.578,1.578,0,0,0,82.521,61.947Z" transform="translate(-82.022 -61.819)" fill="#ad8079"/>
                  <path id="Trazado_120717" data-name="Trazado 120717" d="M91.19,67.334l-.187.11c-.365.221-.348.594.042.841l2.709,1.69A1.38,1.38,0,0,0,95.122,70l.178-.119c.348-.229.306-.611-.085-.858l-2.666-1.656A1.479,1.479,0,0,0,91.19,67.334Z" transform="translate(-83.337 -62.628)" fill="#ad8079"/>
                </g>
                <g id="Grupo_55408" data-name="Grupo 55408" transform="translate(21.747)">
                  <path id="Trazado_120718" data-name="Trazado 120718" d="M89.716,58.381l-.17.085c-.34.17-.331.484.025.7l4.2,2.539a1.387,1.387,0,0,0,1.248.068l.161-.093c.314-.187.28-.51-.076-.722l-4.153-2.488A1.4,1.4,0,0,0,89.716,58.381Z" transform="translate(-89.297 -58.274)" fill="#ad8079"/>
                  <path id="Trazado_120719" data-name="Trazado 120719" d="M97.933,63.318l-.161.093c-.314.187-.28.527.093.747l2.556,1.546a1.294,1.294,0,0,0,1.24.051l.153-.1c.3-.2.238-.543-.136-.764l-2.522-1.512A1.308,1.308,0,0,0,97.933,63.318Z" transform="translate(-90.543 -59.015)" fill="#ad8079"/>
                </g>
                <g id="Grupo_55409" data-name="Grupo 55409" transform="translate(18.775 1.454)">
                  <path id="Trazado_120720" data-name="Trazado 120720" d="M98.185,67.607l.161-.11c.323-.212.272-.577-.11-.807l-4.4-2.683a1.4,1.4,0,0,0-1.291-.059l-.17.1c-.348.2-.323.543.051.781l4.458,2.743A1.316,1.316,0,0,0,98.185,67.607Z" transform="translate(-86.753 -60.563)" fill="#ad8079"/>
                  <path id="Trazado_120721" data-name="Trazado 120721" d="M89.884,62.528l.178-.093c.348-.187.331-.526-.034-.747l-2.48-1.512a1.492,1.492,0,0,0-1.3-.076l-.178.093c-.365.178-.365.51,0,.73l2.514,1.546A1.411,1.411,0,0,0,89.884,62.528Z" transform="translate(-85.798 -59.985)" fill="#ad8079"/>
                </g>
              </g>
            </g>
            <path id="Trazado_120722" data-name="Trazado 120722" d="M57.064,81.5,55.4,72.01,73.946,85l.136,9.358Z" transform="translate(-55.4 -57.812)" fill="#e68173"/>
          </g>
          <g id="Grupo_55422" data-name="Grupo 55422" transform="translate(38.001 20.678)">
            <path id="Trazado_120723" data-name="Trazado 120723" d="M127.629,76.679l-17.434,27.038L106.9,94.962,125.4,68.68Z" transform="translate(-85.042 -65.445)" fill="#d86757"/>
            <g id="Grupo_55421" data-name="Grupo 55421">
              <path id="Trazado_120724" data-name="Trazado 120724" d="M121.539,68.122,103,94.371,81.16,88.384,104.742,64.87Z" transform="translate(-81.16 -64.87)" fill="#fca990"/>
              <g id="Grupo_55420" data-name="Grupo 55420" transform="translate(6.55 2.431)">
                <g id="Grupo_55413" data-name="Grupo 55413" transform="translate(0 17.036)">
                  <path id="Trazado_120725" data-name="Trazado 120725" d="M89.355,88.368l-.2.212c-.416.433-.357.892.127,1.019l5.808,1.529a1.778,1.778,0,0,0,1.622-.577l.2-.229c.382-.442.28-.909-.221-1.036l-5.715-1.461A1.9,1.9,0,0,0,89.355,88.368Z" transform="translate(-88.873 -87.794)" fill="#ad8079"/>
                  <path id="Trazado_120726" data-name="Trazado 120726" d="M100.718,91.3l-.187.229c-.374.459-.263.943.255,1.078l3.575.934a1.665,1.665,0,0,0,1.6-.6l.178-.238c.348-.467.2-.943-.314-1.078l-3.516-.9A1.725,1.725,0,0,0,100.718,91.3Z" transform="translate(-90.598 -88.231)" fill="#ad8079"/>
                </g>
                <g id="Grupo_55414" data-name="Grupo 55414" transform="translate(6.489 10.472)">
                  <path id="Trazado_120727" data-name="Trazado 120727" d="M96.91,80.545l-.178.187c-.348.365-.272.756.187.866l5.435,1.3a1.624,1.624,0,0,0,1.452-.493l.161-.187a.492.492,0,0,0-.263-.875l-5.35-1.248A1.682,1.682,0,0,0,96.91,80.545Z" transform="translate(-96.514 -80.065)" fill="#ad8079"/>
                  <path id="Trazado_120728" data-name="Trazado 120728" d="M107.531,83.05l-.161.2a.519.519,0,0,0,.3.909l3.329.8a1.5,1.5,0,0,0,1.435-.51l.144-.2a.538.538,0,0,0-.348-.909l-3.278-.764A1.522,1.522,0,0,0,107.531,83.05Z" transform="translate(-98.125 -80.438)" fill="#ad8079"/>
                </g>
                <g id="Grupo_55415" data-name="Grupo 55415" transform="translate(3.377 13.625)">
                  <path id="Trazado_120729" data-name="Trazado 120729" d="M108.913,88.4l.161-.212a.577.577,0,0,0-.331-.985l-5.749-1.4a1.655,1.655,0,0,0-1.5.518l-.178.2c-.357.416-.246.849.246.977l5.842,1.461A1.578,1.578,0,0,0,108.913,88.4Z" transform="translate(-94.094 -84.078)" fill="#ad8079"/>
                  <path id="Trazado_120730" data-name="Trazado 120730" d="M98.064,85.733l.178-.2c.357-.4.255-.824-.221-.934L94.8,83.8a1.784,1.784,0,0,0-1.52.5l-.187.2c-.382.4-.314.815.161.934l3.269.815A1.7,1.7,0,0,0,98.064,85.733Z" transform="translate(-92.849 -83.777)" fill="#ad8079"/>
                </g>
                <g id="Grupo_55416" data-name="Grupo 55416" transform="translate(9.35 7.554)">
                  <path id="Trazado_120731" data-name="Trazado 120731" d="M114.9,80.6l.136-.187c.272-.365.11-.739-.365-.841l-5.375-1.206a1.521,1.521,0,0,0-1.359.442l-.153.178a.473.473,0,0,0,.289.832l5.46,1.248A1.445,1.445,0,0,0,114.9,80.6Z" transform="translate(-101.051 -76.886)" fill="#ad8079"/>
                  <path id="Trazado_120732" data-name="Trazado 120732" d="M104.746,78.3l.153-.17a.445.445,0,0,0-.263-.8l-3.023-.679a1.623,1.623,0,0,0-1.376.425l-.161.17c-.323.34-.229.7.212.8l3.066.7A1.584,1.584,0,0,0,104.746,78.3Z" transform="translate(-99.884 -76.628)" fill="#ad8079"/>
                </g>
                <g id="Grupo_55417" data-name="Grupo 55417" transform="translate(12.015 4.851)">
                  <path id="Trazado_120733" data-name="Trazado 120733" d="M103.352,73.865l-.153.153c-.306.314-.2.645.229.739l5.1,1.121a1.485,1.485,0,0,0,1.308-.416l.136-.161c.272-.323.136-.654-.3-.756l-5.036-1.078A1.575,1.575,0,0,0,103.352,73.865Z" transform="translate(-103.022 -73.445)" fill="#ad8079"/>
                  <path id="Trazado_120734" data-name="Trazado 120734" d="M113.331,76.031l-.136.161c-.272.331-.127.679.323.781l3.117.688a1.361,1.361,0,0,0,1.291-.433l.127-.17c.246-.331.085-.679-.374-.781l-3.074-.662A1.376,1.376,0,0,0,113.331,76.031Z" transform="translate(-104.536 -73.768)" fill="#ad8079"/>
                </g>
                <g id="Grupo_55418" data-name="Grupo 55418" transform="translate(16.79)">
                  <path id="Trazado_120735" data-name="Trazado 120735" d="M108.912,68.1l-.127.136c-.263.272-.144.56.263.645l4.815.977a1.379,1.379,0,0,0,1.2-.357l.119-.144c.238-.28.093-.569-.314-.654l-4.747-.943A1.431,1.431,0,0,0,108.912,68.1Z" transform="translate(-108.645 -67.732)" fill="#ad8079"/>
                  <path id="Trazado_120736" data-name="Trazado 120736" d="M118.319,69.982l-.119.144c-.238.289-.085.586.34.671l2.93.594a1.27,1.27,0,0,0,1.18-.374l.11-.144c.212-.289.042-.594-.382-.679l-2.887-.577A1.34,1.34,0,0,0,118.319,69.982Z" transform="translate(-110.069 -68.014)" fill="#ad8079"/>
                </g>
                <g id="Grupo_55419" data-name="Grupo 55419" transform="translate(14.491 2.345)">
                  <path id="Trazado_120737" data-name="Trazado 120737" d="M120.013,73.935l.119-.153c.229-.314.059-.637-.374-.722l-5.053-1.044a1.411,1.411,0,0,0-1.231.382l-.127.153c-.263.306-.119.628.314.713l5.129,1.078A1.339,1.339,0,0,0,120.013,73.935Z" transform="translate(-107.035 -70.72)" fill="#ad8079"/>
                  <path id="Trazado_120738" data-name="Trazado 120738" d="M110.483,71.943l.136-.153c.263-.3.136-.6-.289-.688l-2.845-.586a1.5,1.5,0,0,0-1.248.365l-.144.144c-.28.289-.17.6.246.688l2.887.611A1.429,1.429,0,0,0,110.483,71.943Z" transform="translate(-105.938 -70.493)" fill="#ad8079"/>
                </g>
              </g>
            </g>
            <path id="Trazado_120739" data-name="Trazado 120739" d="M85.924,100.941,81.16,92.56,103,98.547l3.278,8.764Z" transform="translate(-81.16 -69.046)" fill="#fc9486"/>
          </g>
          <g id="Grupo_55432" data-name="Grupo 55432" transform="translate(40.676)">
            <path id="Trazado_120740" data-name="Trazado 120740" d="M129.8,62.174,100.7,75.9l1.834-9.171,29.6-12.526Z" transform="translate(-86.782 -42.583)" fill="#b35548"/>
            <g id="Grupo_55431" data-name="Grupo 55431" transform="translate(0.391)">
              <path id="Trazado_120741" data-name="Trazado 120741" d="M129.751,52.171l-29.62,12.458L84.77,47.993l32.447-7.473Z" transform="translate(-84.77 -40.52)" fill="#fca990"/>
              <g id="Grupo_55430" data-name="Grupo 55430" transform="translate(6.918 2.359)">
                <g id="Grupo_55423" data-name="Grupo 55423" transform="translate(0 5.844)">
                  <path id="Trazado_120742" data-name="Trazado 120742" d="M93.8,50.231l-.289.076c-.577.144-.773.569-.425.934l4.127,4.373a1.774,1.774,0,0,0,1.681.365l.28-.093c.56-.178.713-.62.357-.994l-4.076-4.271A1.865,1.865,0,0,0,93.8,50.231Z" transform="translate(-92.916 -50.18)" fill="#ad8079"/>
                  <path id="Trazado_120743" data-name="Trazado 120743" d="M101.882,58.726l-.28.093c-.56.187-.722.654-.357,1.045l2.539,2.683a1.661,1.661,0,0,0,1.681.331l.272-.11c.543-.212.671-.7.306-1.078l-2.505-2.624A1.732,1.732,0,0,0,101.882,58.726Z" transform="translate(-94.143 -51.456)" fill="#ad8079"/>
                </g>
                <g id="Grupo_55424" data-name="Grupo 55424" transform="translate(9.112 3.589)">
                  <path id="Trazado_120744" data-name="Trazado 120744" d="M104.371,47.563l-.246.059c-.493.127-.628.5-.3.832l3.923,3.983a1.62,1.62,0,0,0,1.486.357l.238-.076c.467-.153.577-.543.238-.883l-3.881-3.9A1.68,1.68,0,0,0,104.371,47.563Z" transform="translate(-103.646 -47.524)" fill="#ad8079"/>
                  <path id="Trazado_120745" data-name="Trazado 120745" d="M112.06,55.309l-.238.076a.517.517,0,0,0-.229.926l2.4,2.437a1.494,1.494,0,0,0,1.486.323l.229-.093a.541.541,0,0,0,.187-.96l-2.378-2.386A1.562,1.562,0,0,0,112.06,55.309Z" transform="translate(-104.814 -48.688)" fill="#ad8079"/>
                </g>
                <g id="Grupo_55425" data-name="Grupo 55425" transform="translate(4.75 4.678)">
                  <path id="Trazado_120746" data-name="Trazado 120746" d="M110.381,60.587l.255-.093a.581.581,0,0,0,.238-1.019l-4.136-4.229a1.667,1.667,0,0,0-1.554-.357l-.263.085c-.518.161-.662.594-.306.96l4.187,4.331A1.591,1.591,0,0,0,110.381,60.587Z" transform="translate(-99.401 -49.714)" fill="#ad8079"/>
                  <path id="Trazado_120747" data-name="Trazado 120747" d="M102.6,52.588l.263-.076c.518-.153.654-.56.314-.909l-2.318-2.369a1.772,1.772,0,0,0-1.554-.382l-.263.068c-.535.136-.7.527-.357.883l2.344,2.429A1.73,1.73,0,0,0,102.6,52.588Z" transform="translate(-98.51 -48.806)" fill="#ad8079"/>
                </g>
                <g id="Grupo_55426" data-name="Grupo 55426" transform="translate(13.133 2.591)">
                  <path id="Trazado_120748" data-name="Trazado 120748" d="M119.609,57.118l.212-.085c.416-.161.484-.569.136-.909l-3.923-3.864a1.506,1.506,0,0,0-1.384-.34l-.221.068c-.442.136-.535.518-.2.858l3.974,3.949A1.458,1.458,0,0,0,119.609,57.118Z" transform="translate(-109.234 -47.181)" fill="#ad8079"/>
                  <path id="Trazado_120749" data-name="Trazado 120749" d="M112.219,49.806l.221-.068a.446.446,0,0,0,.2-.815l-2.208-2.174a1.643,1.643,0,0,0-1.393-.365l-.229.059c-.459.119-.569.467-.246.79l2.233,2.216A1.575,1.575,0,0,0,112.219,49.806Z" transform="translate(-108.382 -46.349)" fill="#ad8079"/>
                </g>
                <g id="Grupo_55427" data-name="Grupo 55427" transform="translate(16.874 1.665)">
                  <path id="Trazado_120750" data-name="Trazado 120750" d="M113.384,45.294l-.212.051c-.425.11-.51.442-.2.756l3.736,3.652a1.49,1.49,0,0,0,1.333.34l.2-.068c.408-.127.467-.484.144-.8L114.7,45.642A1.542,1.542,0,0,0,113.384,45.294Z" transform="translate(-112.787 -45.259)" fill="#ad8079"/>
                  <path id="Trazado_120751" data-name="Trazado 120751" d="M120.712,52.4l-.2.068c-.408.136-.467.51-.136.832l2.284,2.233a1.369,1.369,0,0,0,1.325.314l.2-.076c.391-.153.433-.535.1-.858l-2.259-2.182A1.4,1.4,0,0,0,120.712,52.4Z" transform="translate(-113.899 -46.328)" fill="#ad8079"/>
                </g>
                <g id="Grupo_55428" data-name="Grupo 55428" transform="translate(23.575)">
                  <path id="Trazado_120752" data-name="Trazado 120752" d="M121.181,43.325l-.187.042c-.365.093-.425.4-.119.688l3.567,3.371a1.357,1.357,0,0,0,1.206.331l.178-.059c.348-.11.382-.433.076-.722l-3.524-3.312A1.452,1.452,0,0,0,121.181,43.325Z" transform="translate(-120.679 -43.298)" fill="#ad8079"/>
                  <path id="Trazado_120753" data-name="Trazado 120753" d="M128.158,49.9l-.178.059c-.348.119-.382.459-.068.756l2.174,2.055a1.256,1.256,0,0,0,1.2.306l.17-.068c.34-.127.348-.476.034-.773l-2.148-2.013A1.285,1.285,0,0,0,128.158,49.9Z" transform="translate(-121.737 -44.287)" fill="#ad8079"/>
                </g>
                <g id="Grupo_55429" data-name="Grupo 55429" transform="translate(20.342 0.804)">
                  <path id="Trazado_120754" data-name="Trazado 120754" d="M127.5,54.155l.187-.068c.365-.144.391-.5.068-.815l-3.728-3.558a1.409,1.409,0,0,0-1.248-.331l-.187.059c-.382.119-.433.467-.11.773l3.779,3.626A1.293,1.293,0,0,0,127.5,54.155Z" transform="translate(-117.685 -45.013)" fill="#ad8079"/>
                  <path id="Trazado_120755" data-name="Trazado 120755" d="M120.462,47.425l.2-.059c.382-.11.433-.442.119-.739l-2.106-2a1.5,1.5,0,0,0-1.257-.348l-.2.051c-.391.1-.467.425-.153.713l2.131,2.047A1.442,1.442,0,0,0,120.462,47.425Z" transform="translate(-116.871 -44.244)" fill="#ad8079"/>
                </g>
              </g>
            </g>
            <path id="Trazado_120756" data-name="Trazado 120756" d="M84.31,58.958,84.7,49.32l15.362,16.636-1.851,9.18Z" transform="translate(-84.31 -41.847)" fill="#e68173"/>
          </g>
          <g id="Grupo_55442" data-name="Grupo 55442" transform="translate(82.133 11.778)">
            <path id="Trazado_120757" data-name="Trazado 120757" d="M133.16,71.665l24.049,21.374.824-9.324L133.168,63.36Z" transform="translate(-133.135 -55.743)" fill="#ad8079"/>
            <g id="Grupo_55441" data-name="Grupo 55441">
              <path id="Trazado_120758" data-name="Trazado 120758" d="M133.13,62.033l24.907,20.3,19.429-11.625L148.441,54.39Z" transform="translate(-133.13 -54.39)" fill="#fca990"/>
              <g id="Grupo_55440" data-name="Grupo 55440" transform="translate(4.567 2.556)">
                <g id="Grupo_55433" data-name="Grupo 55433" transform="translate(18.277 12.058)">
                  <path id="Trazado_120759" data-name="Trazado 120759" d="M175,71.855l.255.153c.518.306.586.764.144,1.019l-5.189,3.032a1.781,1.781,0,0,1-1.715-.127l-.246-.161c-.484-.323-.51-.8-.068-1.053L173.3,71.77A1.851,1.851,0,0,1,175,71.855Z" transform="translate(-161.213 -71.6)" fill="#ad8079"/>
                  <path id="Trazado_120760" data-name="Trazado 120760" d="M165.21,77.718l.238.17c.484.34.51.832.051,1.1l-3.193,1.86A1.679,1.679,0,0,1,160.6,80.7l-.229-.178c-.458-.357-.45-.858.017-1.121l3.142-1.809A1.714,1.714,0,0,1,165.21,77.718Z" transform="translate(-160.031 -72.478)" fill="#ad8079"/>
                </g>
                <g id="Grupo_55434" data-name="Grupo 55434" transform="translate(11.193 7.408)">
                  <path id="Trazado_120761" data-name="Trazado 120761" d="M165.729,66.333l.221.127c.433.255.459.654.051.883l-4.891,2.709a1.606,1.606,0,0,1-1.529-.085l-.2-.136c-.408-.28-.4-.688.025-.917l4.823-2.641A1.68,1.68,0,0,1,165.729,66.333Z" transform="translate(-152.803 -66.123)" fill="#ad8079"/>
                  <path id="Trazado_120762" data-name="Trazado 120762" d="M156.5,71.588l.2.144a.517.517,0,0,1-.042.951l-3,1.664a1.5,1.5,0,0,1-1.512-.1l-.2-.153a.537.537,0,0,1,.093-.968l2.947-1.613A1.53,1.53,0,0,1,156.5,71.588Z" transform="translate(-151.688 -66.912)" fill="#ad8079"/>
                </g>
                <g id="Grupo_55435" data-name="Grupo 55435" transform="translate(14.589 9.641)">
                  <path id="Trazado_120763" data-name="Trazado 120763" d="M156.2,77.123l-.212-.161a.58.58,0,0,1,.059-1.044l5.155-2.9a1.657,1.657,0,0,1,1.588.093l.229.153c.45.306.467.756.025,1L157.8,77.25A1.563,1.563,0,0,1,156.2,77.123Z" transform="translate(-155.688 -69.373)" fill="#ad8079"/>
                  <path id="Trazado_120764" data-name="Trazado 120764" d="M166.327,71.638l-.229-.144c-.45-.289-.467-.722-.042-.96l2.887-1.622a1.748,1.748,0,0,1,1.6.076l.238.136c.476.28.518.7.093.943l-2.93,1.664A1.709,1.709,0,0,1,166.327,71.638Z" transform="translate(-157.205 -68.754)" fill="#ad8079"/>
                </g>
                <g id="Grupo_55436" data-name="Grupo 55436" transform="translate(8.072 5.346)">
                  <path id="Trazado_120765" data-name="Trazado 120765" d="M148.427,71.2l-.178-.136c-.357-.272-.3-.679.119-.909l4.857-2.607a1.516,1.516,0,0,1,1.427.059l.2.127a.47.47,0,0,1-.051.875l-4.925,2.666A1.434,1.434,0,0,1,148.427,71.2Z" transform="translate(-148.014 -64.255)" fill="#ad8079"/>
                  <path id="Trazado_120766" data-name="Trazado 120766" d="M157.956,66.272l-.2-.127a.448.448,0,0,1,.034-.841l2.734-1.461a1.612,1.612,0,0,1,1.435.042l.2.119c.408.238.408.611.008.824l-2.768,1.5A1.569,1.569,0,0,1,157.956,66.272Z" transform="translate(-149.442 -63.695)" fill="#ad8079"/>
                </g>
                <g id="Grupo_55437" data-name="Grupo 55437" transform="translate(5.175 3.434)">
                  <path id="Trazado_120767" data-name="Trazado 120767" d="M157.81,61.619l.187.11c.374.221.365.569-.025.781l-4.62,2.454a1.484,1.484,0,0,1-1.376-.051l-.178-.119c-.348-.238-.314-.594.085-.807l4.56-2.395A1.52,1.52,0,0,1,157.81,61.619Z" transform="translate(-145.651 -61.443)" fill="#ad8079"/>
                  <path id="Trazado_120768" data-name="Trazado 120768" d="M149.092,66.375l.178.119c.348.246.306.62-.1.841l-2.819,1.495a1.393,1.393,0,0,1-1.367-.068l-.17-.127c-.331-.255-.263-.637.144-.849l2.777-1.461A1.422,1.422,0,0,1,149.092,66.375Z" transform="translate(-144.602 -62.157)" fill="#ad8079"/>
                </g>
                <g id="Grupo_55438" data-name="Grupo 55438">
                  <path id="Trazado_120769" data-name="Trazado 120769" d="M150.975,57.544l.161.093c.323.2.3.5-.076.688l-4.373,2.233a1.37,1.37,0,0,1-1.248-.025l-.153-.1c-.306-.2-.246-.527.127-.713l4.314-2.182A1.458,1.458,0,0,1,150.975,57.544Z" transform="translate(-139.501 -57.4)" fill="#ad8079"/>
                  <path id="Trazado_120770" data-name="Trazado 120770" d="M142.722,61.88l.153.1c.306.212.238.543-.144.739l-2.666,1.359a1.276,1.276,0,0,1-1.24-.042l-.144-.11c-.289-.221-.2-.56.187-.756l2.624-1.333A1.358,1.358,0,0,1,142.722,61.88Z" transform="translate(-138.508 -58.05)" fill="#ad8079"/>
                </g>
                <g id="Grupo_55439" data-name="Grupo 55439" transform="translate(2.498 1.651)">
                  <path id="Trazado_120771" data-name="Trazado 120771" d="M141.79,66.143l-.153-.119c-.306-.238-.229-.594.17-.8l4.586-2.361a1.408,1.408,0,0,1,1.291.034l.161.11c.331.221.289.569-.11.773l-4.645,2.42A1.349,1.349,0,0,1,141.79,66.143Z" transform="translate(-141.449 -59.854)" fill="#ad8079"/>
                  <path id="Trazado_120772" data-name="Trazado 120772" d="M150.79,61.676l-.17-.11c-.331-.212-.289-.543.093-.747l2.582-1.333a1.484,1.484,0,0,1,1.3.017l.178.1c.348.2.331.535-.051.73l-2.615,1.359A1.437,1.437,0,0,1,150.79,61.676Z" transform="translate(-142.799 -59.344)" fill="#ad8079"/>
                </g>
              </g>
            </g>
            <path id="Trazado_120773" data-name="Trazado 120773" d="M179.411,82.96l2.335-9.35L162.317,85.235l-.807,9.324Z" transform="translate(-137.41 -57.289)" fill="#b35548"/>
          </g>
          <g id="Grupo_55452" data-name="Grupo 55452" transform="translate(68.997 10.538)">
            <path id="Trazado_120774" data-name="Trazado 120774" d="M141.038,100.665l-23.378-22.1,9.205-1.639,22.444,23Z" transform="translate(-117.66 -56.549)" fill="#b35548"/>
            <g id="Grupo_55451" data-name="Grupo 55451" transform="translate(9.231)">
              <path id="Trazado_120775" data-name="Trazado 120775" d="M150.932,96.341,128.53,73.3l9.893-20.372,18.784,27.5Z" transform="translate(-128.53 -52.93)" fill="#f2977c"/>
              <g id="Grupo_55450" data-name="Grupo 55450" transform="translate(4.814 6.919)">
                <g id="Grupo_55443" data-name="Grupo 55443">
                  <path id="Trazado_120776" data-name="Trazado 120776" d="M141.992,61.708l-.17-.246c-.348-.484-.807-.518-1.028-.059l-2.565,5.435a1.781,1.781,0,0,0,.272,1.7l.187.229c.365.45.841.442,1.053-.025l2.488-5.35A1.872,1.872,0,0,0,141.992,61.708Z" transform="translate(-134.79 -61.078)" fill="#ad8079"/>
                  <path id="Trazado_120777" data-name="Trazado 120777" d="M137.181,72.342l-.187-.229c-.382-.45-.875-.433-1.1.051L134.31,75.5a1.665,1.665,0,0,0,.306,1.681l.2.212a.632.632,0,0,0,1.121-.11L137.461,74A1.723,1.723,0,0,0,137.181,72.342Z" transform="translate(-134.199 -62.693)" fill="#ad8079"/>
                </g>
                <g id="Grupo_55444" data-name="Grupo 55444" transform="translate(6.214 7.631)">
                  <path id="Trazado_120778" data-name="Trazado 120778" d="M148.4,70.57l-.144-.2c-.3-.416-.7-.4-.883.025l-2.276,5.1a1.614,1.614,0,0,0,.212,1.512l.161.2c.314.382.713.34.909-.1l2.216-5.036A1.718,1.718,0,0,0,148.4,70.57Z" transform="translate(-142.041 -70.064)" fill="#ad8079"/>
                  <path id="Trazado_120779" data-name="Trazado 120779" d="M144.127,80.56l-.161-.2a.521.521,0,0,0-.951.127l-1.393,3.125a1.5,1.5,0,0,0,.238,1.5l.17.178a.54.54,0,0,0,.96-.178l1.35-3.083A1.526,1.526,0,0,0,144.127,80.56Z" transform="translate(-141.517 -71.579)" fill="#ad8079"/>
                </g>
                <g id="Grupo_55445" data-name="Grupo 55445" transform="translate(3.238 3.974)">
                  <path id="Trazado_120780" data-name="Trazado 120780" d="M138.392,80.931l.178.2a.582.582,0,0,0,1.036-.144l2.437-5.392a1.652,1.652,0,0,0-.238-1.571l-.17-.212c-.34-.425-.79-.4-1,.059l-2.514,5.477A1.576,1.576,0,0,0,138.392,80.931Z" transform="translate(-138.012 -66.926)" fill="#ad8079"/>
                  <path id="Trazado_120781" data-name="Trazado 120781" d="M143.22,70.761l.17.212c.331.425.756.4.96-.042l1.367-3.023a1.791,1.791,0,0,0-.212-1.588l-.161-.221c-.323-.45-.747-.459-.951-.008l-1.4,3.066A1.722,1.722,0,0,0,143.22,70.761Z" transform="translate(-138.746 -65.757)" fill="#ad8079"/>
                </g>
                <g id="Grupo_55446" data-name="Grupo 55446" transform="translate(8.96 11.017)">
                  <path id="Trazado_120782" data-name="Trazado 120782" d="M145.064,88.249l.153.17c.306.331.7.238.892-.2l2.174-5.061a1.51,1.51,0,0,0-.187-1.418l-.144-.178a.468.468,0,0,0-.866.127l-2.233,5.138A1.427,1.427,0,0,0,145.064,88.249Z" transform="translate(-144.75 -75.147)" fill="#ad8079"/>
                  <path id="Trazado_120783" data-name="Trazado 120783" d="M149.36,78.7l.144.187a.444.444,0,0,0,.832-.11l1.223-2.845a1.607,1.607,0,0,0-.17-1.427l-.136-.187c-.272-.382-.645-.357-.824.059l-1.257,2.887A1.575,1.575,0,0,0,149.36,78.7Z" transform="translate(-145.403 -74.052)" fill="#ad8079"/>
                </g>
                <g id="Grupo_55447" data-name="Grupo 55447" transform="translate(11.485 14.128)">
                  <path id="Trazado_120784" data-name="Trazado 120784" d="M153.861,78.135l-.127-.178c-.255-.357-.6-.314-.773.093l-2.038,4.815a1.472,1.472,0,0,0,.17,1.367l.136.17c.263.331.62.255.79-.153l1.987-4.747A1.554,1.554,0,0,0,153.861,78.135Z" transform="translate(-148.191 -77.715)" fill="#ad8079"/>
                  <path id="Trazado_120785" data-name="Trazado 120785" d="M150.03,87.555l-.136-.161c-.272-.331-.645-.246-.824.178l-1.248,2.938a1.358,1.358,0,0,0,.187,1.35l.144.153c.28.306.654.2.832-.221l1.214-2.9A1.416,1.416,0,0,0,150.03,87.555Z" transform="translate(-147.723 -79.144)" fill="#ad8079"/>
                </g>
                <g id="Grupo_55448" data-name="Grupo 55448" transform="translate(16.02 19.746)">
                  <path id="Trazado_120786" data-name="Trazado 120786" d="M158.576,84.678l-.11-.153c-.221-.306-.526-.246-.679.136l-1.843,4.552a1.343,1.343,0,0,0,.136,1.24l.119.144c.229.289.543.2.7-.2l1.8-4.492A1.413,1.413,0,0,0,158.576,84.678Z" transform="translate(-153.485 -84.33)" fill="#ad8079"/>
                  <path id="Trazado_120787" data-name="Trazado 120787" d="M155.116,93.576,155,93.431c-.238-.28-.56-.187-.722.212l-1.121,2.768a1.272,1.272,0,0,0,.153,1.231l.127.136c.246.263.569.153.73-.255l1.1-2.734A1.317,1.317,0,0,0,155.116,93.576Z" transform="translate(-153.064 -85.678)" fill="#ad8079"/>
                </g>
                <g id="Grupo_55449" data-name="Grupo 55449" transform="translate(13.837 17.048)">
                  <path id="Trazado_120788" data-name="Trazado 120788" d="M150.754,94.507l.136.144c.263.289.611.178.781-.238l1.953-4.772a1.413,1.413,0,0,0-.144-1.282l-.127-.153c-.246-.314-.594-.238-.764.178l-2,4.84A1.332,1.332,0,0,0,150.754,94.507Z" transform="translate(-150.493 -82.188)" fill="#ad8079"/>
                  <path id="Trazado_120789" data-name="Trazado 120789" d="M154.618,85.507l.119.161c.246.314.569.238.73-.153l1.1-2.692a1.465,1.465,0,0,0-.136-1.291l-.119-.161c-.238-.331-.56-.28-.722.119l-1.129,2.726A1.465,1.465,0,0,0,154.618,85.507Z" transform="translate(-151.08 -81.153)" fill="#ad8079"/>
                </g>
              </g>
            </g>
            <path id="Trazado_120790" data-name="Trazado 120790" d="M127.675,56.08l9.112-3.15L126.894,73.3l-9.214,1.613Z" transform="translate(-117.663 -52.93)" fill="#e68173"/>
          </g>
          <g id="Grupo_55462" data-name="Grupo 55462" transform="translate(69.515 33.526)">
            <path id="Trazado_120791" data-name="Trazado 120791" d="M163.762,101.645l-29.1,13.723,1.834-9.171L166.1,93.68Z" transform="translate(-120.742 -82.063)" fill="#d86757"/>
            <g id="Grupo_55461" data-name="Grupo 55461" transform="translate(0.391)">
              <path id="Trazado_120792" data-name="Trazado 120792" d="M163.711,91.642l-29.62,12.466L118.73,87.464,151.177,80Z" transform="translate(-118.73 -80)" fill="#fca990"/>
              <g id="Grupo_55460" data-name="Grupo 55460" transform="translate(6.918 2.35)">
                <g id="Grupo_55453" data-name="Grupo 55453" transform="translate(0 5.845)">
                  <path id="Trazado_120793" data-name="Trazado 120793" d="M127.763,89.7l-.289.076c-.577.144-.773.56-.425.934l4.127,4.373a1.774,1.774,0,0,0,1.681.365l.28-.093c.56-.178.713-.62.357-.994l-4.076-4.271A1.89,1.89,0,0,0,127.763,89.7Z" transform="translate(-126.876 -89.651)" fill="#ad8079"/>
                  <path id="Trazado_120794" data-name="Trazado 120794" d="M135.842,98.2l-.28.093c-.56.187-.722.654-.357,1.045l2.539,2.683a1.661,1.661,0,0,0,1.681.331l.272-.11c.543-.212.671-.7.306-1.078L137.5,98.536A1.732,1.732,0,0,0,135.842,98.2Z" transform="translate(-128.103 -90.928)" fill="#ad8079"/>
                </g>
                <g id="Grupo_55454" data-name="Grupo 55454" transform="translate(9.112 3.59)">
                  <path id="Trazado_120795" data-name="Trazado 120795" d="M138.331,87.033l-.246.059c-.493.127-.628.5-.3.832l3.923,3.983a1.594,1.594,0,0,0,1.486.348l.238-.076c.467-.153.577-.543.238-.883l-3.881-3.9A1.73,1.73,0,0,0,138.331,87.033Z" transform="translate(-137.606 -86.995)" fill="#ad8079"/>
                  <path id="Trazado_120796" data-name="Trazado 120796" d="M146.02,94.779l-.238.076a.517.517,0,0,0-.229.926l2.4,2.437a1.494,1.494,0,0,0,1.486.323l.229-.093a.541.541,0,0,0,.187-.96L147.481,95.1A1.562,1.562,0,0,0,146.02,94.779Z" transform="translate(-138.774 -88.159)" fill="#ad8079"/>
                </g>
                <g id="Grupo_55455" data-name="Grupo 55455" transform="translate(4.75 4.678)">
                  <path id="Trazado_120797" data-name="Trazado 120797" d="M144.341,100.067l.255-.093a.581.581,0,0,0,.238-1.019L140.7,94.726a1.667,1.667,0,0,0-1.554-.357l-.263.085c-.518.161-.662.594-.306.96l4.187,4.331A1.615,1.615,0,0,0,144.341,100.067Z" transform="translate(-133.361 -89.186)" fill="#ad8079"/>
                  <path id="Trazado_120798" data-name="Trazado 120798" d="M136.563,92.058l.263-.076c.518-.153.654-.56.314-.909L134.822,88.7a1.772,1.772,0,0,0-1.554-.382l-.263.068c-.535.136-.7.527-.357.883l2.344,2.429A1.73,1.73,0,0,0,136.563,92.058Z" transform="translate(-132.47 -88.276)" fill="#ad8079"/>
                </g>
                <g id="Grupo_55456" data-name="Grupo 55456" transform="translate(13.133 2.591)">
                  <path id="Trazado_120799" data-name="Trazado 120799" d="M153.569,96.588l.212-.085c.416-.161.484-.569.136-.909l-3.923-3.864a1.506,1.506,0,0,0-1.384-.34l-.221.068c-.442.136-.535.518-.2.858l3.974,3.949A1.418,1.418,0,0,0,153.569,96.588Z" transform="translate(-143.194 -86.651)" fill="#ad8079"/>
                  <path id="Trazado_120800" data-name="Trazado 120800" d="M146.179,89.276l.221-.068a.446.446,0,0,0,.2-.815L144.4,86.219A1.643,1.643,0,0,0,143,85.854l-.229.059c-.459.119-.569.467-.246.79l2.233,2.216A1.581,1.581,0,0,0,146.179,89.276Z" transform="translate(-142.342 -85.819)" fill="#ad8079"/>
                </g>
                <g id="Grupo_55457" data-name="Grupo 55457" transform="translate(16.883 1.665)">
                  <path id="Trazado_120801" data-name="Trazado 120801" d="M147.354,84.764l-.212.051c-.425.11-.51.442-.2.756l3.736,3.652a1.49,1.49,0,0,0,1.333.34l.2-.068c.408-.127.467-.484.144-.8l-3.694-3.584A1.55,1.55,0,0,0,147.354,84.764Z" transform="translate(-146.757 -84.729)" fill="#ad8079"/>
                  <path id="Trazado_120802" data-name="Trazado 120802" d="M154.672,91.871l-.2.068c-.408.136-.467.51-.136.832L156.616,95a1.369,1.369,0,0,0,1.325.314l.2-.076c.391-.153.433-.535.1-.858L155.979,92.2A1.418,1.418,0,0,0,154.672,91.871Z" transform="translate(-147.867 -85.799)" fill="#ad8079"/>
                </g>
                <g id="Grupo_55458" data-name="Grupo 55458" transform="translate(23.575)">
                  <path id="Trazado_120803" data-name="Trazado 120803" d="M155.141,82.8l-.187.042c-.365.093-.425.4-.119.688L158.4,86.9a1.363,1.363,0,0,0,1.206.331l.178-.059c.348-.11.382-.433.076-.722l-3.524-3.312A1.452,1.452,0,0,0,155.141,82.8Z" transform="translate(-154.639 -82.768)" fill="#ad8079"/>
                  <path id="Trazado_120804" data-name="Trazado 120804" d="M162.119,89.373l-.17.059c-.348.119-.382.459-.068.756l2.174,2.055a1.256,1.256,0,0,0,1.2.306l.17-.068c.34-.127.348-.476.034-.773L163.308,89.7A1.307,1.307,0,0,0,162.119,89.373Z" transform="translate(-155.698 -83.757)" fill="#ad8079"/>
                </g>
                <g id="Grupo_55459" data-name="Grupo 55459" transform="translate(20.342 0.804)">
                  <path id="Trazado_120805" data-name="Trazado 120805" d="M161.461,93.625l.187-.068c.365-.144.391-.5.068-.815l-3.728-3.558a1.409,1.409,0,0,0-1.248-.331l-.187.059c-.382.119-.433.467-.11.773l3.779,3.626A1.273,1.273,0,0,0,161.461,93.625Z" transform="translate(-151.645 -84.483)" fill="#ad8079"/>
                  <path id="Trazado_120806" data-name="Trazado 120806" d="M154.422,86.9l.2-.059c.382-.11.433-.442.119-.739l-2.106-2a1.5,1.5,0,0,0-1.257-.348l-.2.051c-.391.1-.467.425-.153.713l2.131,2.047A1.417,1.417,0,0,0,154.422,86.9Z" transform="translate(-150.831 -83.714)" fill="#ad8079"/>
                </g>
              </g>
            </g>
            <path id="Trazado_120807" data-name="Trazado 120807" d="M118.27,98.428l.391-9.638,15.362,16.644-1.851,9.171Z" transform="translate(-118.27 -81.326)" fill="#e68173"/>
          </g>
          <g id="Grupo_55472" data-name="Grupo 55472" transform="translate(28.388 60.802)">
            <path id="Trazado_120808" data-name="Trazado 120808" d="M117.634,128.965,94.094,150.9l-1.044-9.3,24.38-20.941Z" transform="translate(-73.34 -113.408)" fill="#b35548"/>
            <g id="Grupo_55471" data-name="Grupo 55471">
              <path id="Trazado_120809" data-name="Trazado 120809" d="M113.955,119.4l-24.414,20.89-19.7-11.158L98.466,112.12Z" transform="translate(-69.84 -112.12)" fill="#fca990"/>
              <g id="Grupo_55470" data-name="Grupo 55470" transform="translate(6.99 2.558)">
                <g id="Grupo_55463" data-name="Grupo 55463" transform="translate(0 12.534)">
                  <path id="Trazado_120810" data-name="Trazado 120810" d="M78.749,130.171l-.255.161c-.51.314-.569.773-.127,1.019l5.256,2.9a1.769,1.769,0,0,0,1.707-.161l.238-.17c.476-.34.493-.807.042-1.053l-5.18-2.819A1.786,1.786,0,0,0,78.749,130.171Z" transform="translate(-78.071 -129.893)" fill="#ad8079"/>
                  <path id="Trazado_120811" data-name="Trazado 120811" d="M89.043,135.794l-.238.178c-.476.348-.493.849-.017,1.1l3.235,1.783a1.653,1.653,0,0,0,1.7-.2l.229-.187c.45-.365.433-.866-.042-1.121l-3.184-1.732A1.741,1.741,0,0,0,89.043,135.794Z" transform="translate(-79.635 -130.735)" fill="#ad8079"/>
                </g>
                <g id="Grupo_55464" data-name="Grupo 55464" transform="translate(7.964 7.699)">
                  <path id="Trazado_120812" data-name="Trazado 120812" d="M87.993,124.429l-.212.136c-.433.272-.442.662-.025.883l4.951,2.59a1.61,1.61,0,0,0,1.529-.119l.2-.144c.4-.289.382-.7-.042-.917l-4.883-2.531A1.749,1.749,0,0,0,87.993,124.429Z" transform="translate(-87.45 -124.199)" fill="#ad8079"/>
                  <path id="Trazado_120813" data-name="Trazado 120813" d="M97.684,129.454l-.2.144a.519.519,0,0,0,.059.951l3.032,1.588a1.487,1.487,0,0,0,1.512-.144l.2-.153a.538.538,0,0,0-.119-.968l-2.989-1.546A1.575,1.575,0,0,0,97.684,129.454Z" transform="translate(-88.92 -124.953)" fill="#ad8079"/>
                </g>
                <g id="Grupo_55465" data-name="Grupo 55465" transform="translate(4.153 10.022)">
                  <path id="Trazado_120814" data-name="Trazado 120814" d="M97.7,135l.212-.17a.581.581,0,0,0-.085-1.044l-5.223-2.768a1.664,1.664,0,0,0-1.588.136l-.221.153c-.442.314-.45.764,0,1l5.307,2.853A1.573,1.573,0,0,0,97.7,135Z" transform="translate(-84.093 -127.529)" fill="#ad8079"/>
                  <path id="Trazado_120815" data-name="Trazado 120815" d="M87.843,129.742l.229-.153c.442-.306.45-.73.017-.96l-2.93-1.554a1.78,1.78,0,0,0-1.6.11l-.229.144c-.467.289-.5.713-.068.951l2.972,1.6A1.725,1.725,0,0,0,87.843,129.742Z" transform="translate(-82.961 -126.935)" fill="#ad8079"/>
                </g>
                <g id="Grupo_55466" data-name="Grupo 55466" transform="translate(11.488 5.554)">
                  <path id="Trazado_120816" data-name="Trazado 120816" d="M105.429,128.889l.178-.144c.348-.28.289-.688-.144-.9l-4.917-2.488a1.517,1.517,0,0,0-1.427.093l-.187.136a.469.469,0,0,0,.076.875l4.985,2.548A1.441,1.441,0,0,0,105.429,128.889Z" transform="translate(-92.665 -122.208)" fill="#ad8079"/>
                  <path id="Trazado_120817" data-name="Trazado 120817" d="M96.16,124.176l.2-.127a.446.446,0,0,0-.059-.841l-2.768-1.4a1.615,1.615,0,0,0-1.435.076l-.2.127c-.4.246-.4.62.008.824l2.8,1.435A1.571,1.571,0,0,0,96.16,124.176Z" transform="translate(-91.599 -121.673)" fill="#ad8079"/>
                </g>
                <g id="Grupo_55467" data-name="Grupo 55467" transform="translate(14.744 3.568)">
                  <path id="Trazado_120818" data-name="Trazado 120818" d="M95.889,119.526l-.187.119c-.374.229-.357.577.042.773l4.679,2.335a1.46,1.46,0,0,0,1.376-.085l.178-.127c.348-.246.3-.6-.1-.8l-4.611-2.284A1.594,1.594,0,0,0,95.889,119.526Z" transform="translate(-95.433 -119.334)" fill="#ad8079"/>
                  <path id="Trazado_120819" data-name="Trazado 120819" d="M105.039,124.063l-.17.127c-.348.255-.289.628.119.832l2.853,1.427a1.373,1.373,0,0,0,1.359-.1l.161-.136c.323-.263.246-.637-.17-.849l-2.8-1.384A1.454,1.454,0,0,0,105.039,124.063Z" transform="translate(-96.822 -120.015)" fill="#ad8079"/>
                </g>
                <g id="Grupo_55468" data-name="Grupo 55468" transform="translate(20.596)">
                  <path id="Trazado_120820" data-name="Trazado 120820" d="M102.7,115.292l-.161.1c-.323.2-.28.51.093.688l4.424,2.131a1.343,1.343,0,0,0,1.248-.059l.153-.11c.3-.212.229-.526-.144-.713l-4.365-2.081A1.486,1.486,0,0,0,102.7,115.292Z" transform="translate(-102.325 -115.133)" fill="#ad8079"/>
                  <path id="Trazado_120821" data-name="Trazado 120821" d="M111.361,119.428l-.153.11c-.3.221-.221.552.161.739l2.692,1.3a1.3,1.3,0,0,0,1.24-.068l.144-.119c.28-.229.187-.56-.2-.747l-2.658-1.265A1.268,1.268,0,0,0,111.361,119.428Z" transform="translate(-103.637 -115.753)" fill="#ad8079"/>
                </g>
                <g id="Grupo_55469" data-name="Grupo 55469" transform="translate(17.778 1.723)">
                  <path id="Trazado_120822" data-name="Trazado 120822" d="M112.025,123.674l.153-.127c.3-.246.212-.6-.187-.8l-4.637-2.25a1.407,1.407,0,0,0-1.291.068l-.161.119c-.323.229-.272.577.127.773l4.7,2.3A1.329,1.329,0,0,0,112.025,123.674Z" transform="translate(-100.014 -117.647)" fill="#ad8079"/>
                  <path id="Trazado_120823" data-name="Trazado 120823" d="M103.281,119.411l.161-.11c.331-.221.28-.552-.11-.739l-2.616-1.274a1.482,1.482,0,0,0-1.3.051l-.17.11c-.348.212-.314.543.068.73l2.649,1.3A1.488,1.488,0,0,0,103.281,119.411Z" transform="translate(-99.006 -117.162)" fill="#ad8079"/>
                </g>
              </g>
            </g>
            <path id="Trazado_120824" data-name="Trazado 120824" d="M72.4,141.44l-2.565-9.29,19.7,11.158,1.027,9.307Z" transform="translate(-69.84 -115.141)" fill="#e68173"/>
          </g>
        </g>
        <g id="Grupo_55475" data-name="Grupo 55475" transform="translate(173.842 20.326)">
          <g id="Grupo_55474" data-name="Grupo 55474" transform="translate(0)">
            <path id="Trazado_120825" data-name="Trazado 120825" d="M322.989,47.457a12.5,12.5,0,0,0-8.942-1.011,24.229,24.229,0,0,0-13.052,9.027c-7.311,9.672-47.3,46.485-63.8,51.325-13.128,3.847,18.894,13.171,39.012,9.137s31.9,8.059,50.994,6.989,29.331-12.661,39.233-11.821c25.314,2.148,29.569-2.038,25.374-4.433-20.211-11.557-22.546-14.462-38.417-29.7C340.915,64.993,331.387,51.669,322.989,47.457Z" transform="translate(-234.127 -46.032)" fill="#f5b659"/>
            <path id="Trazado_120826" data-name="Trazado 120826" d="M398.935,106.662C378.724,95.1,376.389,92.2,360.517,76.966c-12.483-11.974-22.011-25.306-30.409-29.509a12.5,12.5,0,0,0-8.942-1.011,12.74,12.74,0,0,0-7.558,9.519,16.971,16.971,0,0,1-1.953,5.29c-1.936,3.278-2.378,6.292-5.537,8.73-.858.662-2.488,1.172-1.112.994s3.8-1.664,6.216-5.358c2.08-3.176,2.386-2.361,2.429-2.072v.017a.269.269,0,0,1,.009.059v-.008c.093.543.2,1.1.348,1.664,3.626,15.116-2.216,18.945-4.637,26s2.819,14.105,1.817,16.729-16.262,4.246-29.8,8.271c.654-.1,1.3-.212,1.928-.34,20.117-4.034,31.9,8.059,50.994,6.989s29.331-12.661,39.233-11.821C398.867,113.244,403.13,109.057,398.935,106.662Z" transform="translate(-241.255 -46.032)" fill="#f59259"/>
            <path id="Trazado_120827" data-name="Trazado 120827" d="M287.978,81.464a132.926,132.926,0,0,1-10.19,9.248c-3.448,2.514,1.554.289,6.658-4.458s6.165-6.963,9.732-9.783S292.479,76.793,287.978,81.464Z" transform="translate(-240.54 -50.462)" fill="#f5a459"/>
            <path id="Trazado_120828" data-name="Trazado 120828" d="M308.051,98.772c-1.342.858-6.14,3.889-6.437.951a12.187,12.187,0,0,1,.645-3.906c2.047-5.961,6.53-9.621,5.69-19.727.866,11.26-7.235,18.19-15.09,23.022-6.445,3.966-9.409,1.945-15.048,7.184s-26.062,9.137-22.436,1.011c3.465-7.77-6.929-1.571-7.855-1.011-.025.017-.042.025-.068.042h-.008a45.531,45.531,0,0,1-10.25,4.993c-13.128,3.847,18.894,13.171,39.012,9.137-.628.127-1.274.238-1.928.34,13.536-4.025,28.787-5.647,29.8-8.271.459-1.189-.374-3.295-1.189-5.893-.093-1.036.255-2.59,2.327-4.322,3.694-3.091,4.543-4.543,5.24-6.25C311.261,94.1,309.529,97.829,308.051,98.772Z" transform="translate(-234.127 -50.565)" fill="#f5a459"/>
            <path id="Trazado_120829" data-name="Trazado 120829" d="M400.294,104h0c-16.084-9.451-19.251-13.052-33.832-27.038C353.98,64.993,344.452,51.66,336.053,47.457a12.5,12.5,0,0,0-8.942-1.011,11.445,11.445,0,0,0-3.414,2.148c-.025.025-5.6,5.019-1.18,12.789,4.433,7.8,18.538,9,22.571,11.821,1.639,1.146,3.762,4.178,5.706,7.931.849,1.979,1.953,6.717-2.717,13.1-6.25,8.526-7.558,9.333-8.967,12.356s.569-.7,1.41-1.41,7.592-7.923,9.035-9.842c1.427-1.894,5.146-5.511,5.808-2.208.008.051.026.093.034.144a2.076,2.076,0,0,0,.068.289,23.412,23.412,0,0,1,.637,5.044c0,8.322,3.9,9.536,14.912,5.1S411.835,113.982,400.294,104Z" transform="translate(-247.2 -46.032)" fill="#f5a459"/>
          </g>
          <path id="Trazado_120830" data-name="Trazado 120830" d="M263.869,123.086c2.556-1.41,10.479-4.569,4.772-2.683s-11.49,5.707-18.877,4.908S236.16,122,235.184,120.4c-.586-.951.1-1.792,1.138-2.463-9.655,3.618,14.665,11.124,33.925,9.647h-.008C255.318,128.1,261.313,124.5,263.869,123.086Z" transform="translate(-234.128 -56.877)" fill="#f59259"/>
          <path id="Trazado_120831" data-name="Trazado 120831" d="M332.19,134.117a44.845,44.845,0,0,0,9.8.552c11.175-.628,19.319-4.857,26.129-8.093h0c-15.464,5.808-15.769,3.252-14.088,1.112,2.115-2.692,4.671-4.874,2.25-3.193s-5.409,6.148-12.457,8.636A25.856,25.856,0,0,1,332.19,134.117Z" transform="translate(-248.916 -57.777)" fill="#f5a459"/>
        </g>
        <g id="Grupo_55486" data-name="Grupo 55486" transform="translate(300.618 107.825)">
          <g id="Grupo_55476" data-name="Grupo 55476" transform="translate(64.954)">
            <path id="Trazado_120832" data-name="Trazado 120832" d="M331.379,193.164l-16.941-3.074-13.978,3.558-1.97,5.129,4.246,10.929,23.4,13.85,16.135-.442,2.853-4.085-7.719-17.57Z" transform="translate(-298.49 -190.09)" fill="#718599"/>
            <path id="Trazado_120833" data-name="Trazado 120833" d="M342.86,222.71h0l-7.362-.535-8.5-6.87-20.491-9.418-4.4-11.447,2.683-1.461-4.331,1.1-1.97,5.129,4.246,10.929,23.4,13.85,16.135-.442Z" transform="translate(-298.49 -190.526)" fill="#5c6d7f"/>
            <path id="Trazado_120834" data-name="Trazado 120834" d="M332.052,194.478l-16.483-3.108-8,2.208,10.921,5.044,14.954,1.758,4.433,2.794Z" transform="translate(-299.859 -190.283)" fill="#889db3"/>
            <path id="Trazado_120835" data-name="Trazado 120835" d="M347.34,222.12l-2.76-6.284-.73,6.675-5.384.934-8.348-6.437L313.16,210.58l16.05,7.379,8.5,6.87,7.362.535Z" transform="translate(-300.702 -193.18)" fill="#4e5966"/>
          </g>
          <g id="Grupo_55477" data-name="Grupo 55477" transform="translate(43.147 14.097)">
            <path id="Trazado_120836" data-name="Trazado 120836" d="M298.175,206.69l-13.213,3.677L272.81,225.279l1.919,6.343,11.693,4.789,22.427-4.119,5.791.442,6-5.341-7.677-19.48Z" transform="translate(-272.81 -206.69)" fill="#596c80"/>
            <path id="Trazado_120837" data-name="Trazado 120837" d="M314.3,217.473l-2.726,4.127-3.668.331-2.395,1.945-1.172,3.286-18.869,6.292-9.46-2.616-1.953-4.959.688-2.378h0l-1.936,2.378,1.919,6.343,11.693,4.789,22.427-4.119,5.791.442,6-5.341-6.828-17.315h0Z" transform="translate(-272.81 -207.292)" fill="#4e5c6b"/>
            <path id="Trazado_120838" data-name="Trazado 120838" d="M286.318,211.587l-8.628,10.8v2.225l7.906,2.505,7.566-5.341,2.845-9.129,5.783-2.955L299.4,207.8Z" transform="translate(-273.546 -206.857)" fill="#889db3"/>
            <path id="Trazado_120839" data-name="Trazado 120839" d="M309.53,208.88l7.082.442,1.265,1.087-8.169.323Z" transform="translate(-278.348 -207.02)" fill="#889db3"/>
            <path id="Trazado_120840" data-name="Trazado 120840" d="M317.977,235.143l6-5.341-2.811-7.142,1.087,6.36-4.9,4.178-6.174-2.284.671,1.894-16.924,5.061h0l17.255-3.167Z" transform="translate(-276.146 -209.098)" fill="#444f5c"/>
          </g>
          <g id="Grupo_55479" data-name="Grupo 55479" transform="translate(87.322 16.007)">
            <g id="Grupo_55478" data-name="Grupo 55478">
              <path id="Trazado_120841" data-name="Trazado 120841" d="M338.2,208.94,326.928,215.8l-2.1,15.141,3.38,4.246,7.863,3.04,13.833-1.766,4.119.459,5.418-3.677-3.974-23.667Z" transform="translate(-324.83 -208.94)" fill="#718599"/>
              <path id="Trazado_120842" data-name="Trazado 120842" d="M352.208,221.744l-11.8,6.148-5.562,8.016-6.335-.773-2.9-3.4-.527-1.817h0l-.246,1.8,3.38,4.246,7.863,3.04,13.833-1.766,4.119.459,5.418-3.677L356.1,214.11h0Z" transform="translate(-324.83 -209.72)" fill="#4e5c6b"/>
            </g>
            <path id="Trazado_120843" data-name="Trazado 120843" d="M352.568,211.38l-13.188-.96-10.47,5.9,4.416,3.278,10.742-1.223,10.606-3.94v-2.31Z" transform="translate(-325.445 -209.163)" fill="#889db3"/>
            <path id="Trazado_120844" data-name="Trazado 120844" d="M327.547,221.747,326.18,229.3l.408,2.31,1.707,2.115,3.872-11.566-4.348-3.8Z" transform="translate(-325.034 -210.359)" fill="#889db3"/>
          </g>
          <g id="Grupo_55481" data-name="Grupo 55481" transform="translate(42.791 32.159)">
            <g id="Grupo_55480" data-name="Grupo 55480">
              <path id="Trazado_120845" data-name="Trazado 120845" d="M278.852,233.522l-6.462,9.35,3.677,12.653,4.144,2.148,7.252-.374,10.258-6.242,3.405-1.087,2.964-4.789L292.652,227.96Z" transform="translate(-272.39 -227.96)" fill="#718599"/>
              <path id="Trazado_120846" data-name="Trazado 120846" d="M294.67,238.542l-7.125,8.984-1.562,8.263-5.256,1.613-3.473-1.656L276.2,254.5h0l.442,1.512,4.144,2.148,7.252-.374,10.258-6.242,3.405-1.087,2.964-4.789-9.621-14.487h0Z" transform="translate(-272.965 -228.446)" fill="#5c6d7f"/>
            </g>
            <path id="Trazado_120847" data-name="Trazado 120847" d="M290.653,230.843l-10.708,3.881-6.165,8.322,4.628,1.027,8.025-4.738,6.955-6.819-.815-1.826Z" transform="translate(-272.6 -228.372)" fill="#889db3"/>
            <path id="Trazado_120848" data-name="Trazado 120848" d="M274.477,249.058l1.579,6.411,1.138,1.673,2.072,1.061-1.011-10.445L273.5,246.29Z" transform="translate(-272.557 -230.724)" fill="#889db3"/>
          </g>
          <g id="Grupo_55482" data-name="Grupo 55482" transform="translate(100.399 34.137)">
            <path id="Trazado_120849" data-name="Trazado 120849" d="M350.089,230.29l10.318.433,13.128,11.345.671,6.471-6.581,7.235-16.839,1.265-3.864,1.758-5.851-3.677-.841-20.253Z" transform="translate(-340.23 -230.29)" fill="#718599"/>
            <path id="Trazado_120850" data-name="Trazado 120850" d="M342.157,244.884l3.185,3.278,2.649-.527,2.276,1.291,1.851,2.845,15.056,1.613,5.723-4.662-.212-5.146-1.231-2.106h0l2.1,1.809.671,6.471-6.581,7.235L350.8,258.25l-3.864,1.758-5.851-3.677-.747-18.011h0Z" transform="translate(-340.247 -231.501)" fill="#5c6d7f"/>
            <path id="Trazado_120851" data-name="Trazado 120851" d="M361.861,232.049l9.392,8.254.7,2.114-4.688,4.2-6.929-3.329-4.849-8-4.942-1.469,1.053-2.344Z" transform="translate(-341.786 -230.469)" fill="#889db3"/>
            <path id="Trazado_120852" data-name="Trazado 120852" d="M346.849,233.94,342.076,236l-.526,1.325,5.757-1.579Z" transform="translate(-340.429 -230.84)" fill="#889db3"/>
            <path id="Trazado_120853" data-name="Trazado 120853" d="M347.015,261.887l-5.851-3.677-.314-7.43,1.257,6.293,4.713,2.828,3.558-3.592.136,1.953,13.324.892h0l-12.959.977Z" transform="translate(-340.323 -233.38)" fill="#4e5c6b"/>
          </g>
          <g id="Grupo_55483" data-name="Grupo 55483" transform="translate(0 38.018)">
            <path id="Trazado_120854" data-name="Trazado 120854" d="M246.584,235.183l-7.931-.323-14.75,8.883-1.9,7.626,10.437,8.025,19.795-3.635,3.787.9,2.87-4.662-5.206-13.952Z" transform="translate(-222 -234.86)" fill="#718599"/>
            <path id="Trazado_120855" data-name="Trazado 120855" d="M254.711,244.192l-1.223,2.514-2.03-.2-1.41,1.231-.8,2.675L232.963,255.1l-8.594-4.518.807-5.808,1.86-2.123h0l-3.133,1.885-1.9,7.626,10.437,8.025,19.795-3.635,3.787.9,2.87-4.662-4.738-12.7h0Z" transform="translate(-222 -235.649)" fill="#5c6d7f"/>
            <path id="Trazado_120856" data-name="Trazado 120856" d="M239.98,235.72l-9.5,6.089-.968,2.021,6.157,3.762,7.142-3.669,2.9-5.893,3.354-.756-1.155-1.393Z" transform="translate(-223.133 -234.99)" fill="#889db3"/>
            <path id="Trazado_120857" data-name="Trazado 120857" d="M254.32,237.46l3.405,1.274.62.756-3.966-.994Z" transform="translate(-226.874 -235.252)" fill="#889db3"/>
            <path id="Trazado_120858" data-name="Trazado 120858" d="M258.867,258.658l2.87-4.662-2.191-5.876,1.18,5.053-2.4,3.422-3.974-2.785.467,1.928-13.927,4.628h0l14.19-2.607Z" transform="translate(-224.849 -236.86)" fill="#4e5966"/>
          </g>
          <g id="Grupo_55484" data-name="Grupo 55484" transform="translate(58.645 34.197)">
            <path id="Trazado_120859" data-name="Trazado 120859" d="M317.02,230.36l-15.905,5.9-10.054,10.02.9,5.341,9.078,7.125h26.783l13.451-8.458.374-4.9-15.353-11.022Z" transform="translate(-291.06 -230.36)" fill="#718599"/>
            <path id="Trazado_120860" data-name="Trazado 120860" d="M341.349,251.549h0l-6.513,3.244-10.649-1.563-22.087,2.3-9.46-7.49,1.529-2.582-3.108,3.1.9,5.341,9.078,7.125h26.783l13.451-8.458Z" transform="translate(-291.06 -232.637)" fill="#4e5c6b"/>
            <path id="Trazado_120861" data-name="Trazado 120861" d="M317.834,231.89,302.3,237.529l-5.673,5.885,11.787-1.206L321.97,236.2l5.163.144Z" transform="translate(-291.9 -230.591)" fill="#889db3"/>
            <path id="Trazado_120862" data-name="Trazado 120862" d="M344.457,247.36l-5.494-3.94,2.734,6.021-4.093,3.49L327.3,251.666l-17.6,3.066,17.3-1.809,10.649,1.563,6.513-3.244Z" transform="translate(-293.871 -232.33)" fill="#889db3"/>
          </g>
          <g id="Grupo_55485" data-name="Grupo 55485" transform="translate(137.721 49.219)">
            <path id="Trazado_120863" data-name="Trazado 120863" d="M411.116,248.661l-11.2-.611-15.735,4.535.671,4.212,10.606,3.915,15.048-1.376,4.637-2.437.7-1.24-2.165-4.161Z" transform="translate(-384.18 -248.05)" fill="#718599"/>
            <path id="Trazado_120864" data-name="Trazado 120864" d="M415.286,257.146h0l-1.919.824-2.955-.509-12.967.883-10.318-5.358,2.981-1.6-5.927,1.707.671,4.212,10.606,3.915,15.048-1.376,4.637-2.437Z" transform="translate(-384.18 -248.552)" fill="#4e5c6b"/>
            <path id="Trazado_120865" data-name="Trazado 120865" d="M412.324,249.336l-10.844-.416-7.6,2.463,11.472,1.231,7.821-.968,1.69.577Z" transform="translate(-385.643 -248.181)" fill="#889db3"/>
            <path id="Trazado_120866" data-name="Trazado 120866" d="M418.908,256.788l-.654-1.248-.484,1.18-1.919.476-2.862-.492-8.509,2,8.993-.611,2.955.51,1.919-.824Z" transform="translate(-387.241 -249.18)" fill="#5c6d7f"/>
          </g>
        </g>
        <g id="Grupo_55487" data-name="Grupo 55487" transform="translate(-75 218.04)">
          <path id="Trazado_120867" data-name="Trazado 120867" d="M113.7,324.819s-12.118,1.537-15.5,6.573-23.6,31.1-37.16,37.568-37.237,8.628-16.381,14.02,43.962.357,60.878,2.7,39.173,10.606,59.188,6.827S189.825,381.723,208,381.366s39.037,1.435,5.358-10.063-31.14-34.333-40.591-39.547-17.663-14.2-33-10.25C124.413,325.456,118.774,324.717,113.7,324.819Z" transform="translate(-36.394 -320.532)" fill="#d8e5d1"/>
          <path id="Trazado_120868" data-name="Trazado 120868" d="M218.58,381.368c18.173-.357,39.037,1.435,5.358-10.063s-31.14-34.333-40.591-39.547c-8.033-4.433-15.192-11.6-26.6-11.2,2.165.17,12.3,1.715,14.054,16.058,2.191,17.842-.756,16.542-9.205,21.569s-5.07,12.22-8.458,16.661-9.536,8.755-19.115.484-6.36-.28-4.866,2.633c1.69,3.278-4.28,4.755-15.973,4.586-4.17-.059-5.936,1.053-6.488,2.505a76.8,76.8,0,0,1,9.426.645c16.907,2.335,39.173,10.606,59.188,6.827S200.408,381.724,218.58,381.368Z" transform="translate(-46.994 -320.533)" fill="#e2ebde"/>
          <path id="Trazado_120869" data-name="Trazado 120869" d="M229.866,375.115c-22.232-7.592-28.686-20.117-33.22-29.255a65.46,65.46,0,0,0,7.7,17.094c5.265,7.906,10.9,14.139-2.259,13.179s-12.755-2-14.937-4.348c-1.07-1.146.144,2.5,1.129,3.821,2.395,3.235,8.874,5.528,5.562,9.485S165.37,400.081,146,390.544v3.779c11.532,2.369,23.752,4.17,35.233,2,20.007-3.779,25.093-10.785,43.266-11.141S263.553,386.621,229.866,375.115Z" transform="translate(-52.921 -324.352)" fill="#dbe8d4"/>
          <path id="Trazado_120870" data-name="Trazado 120870" d="M121.682,388.158c-1.69-2.743-2.913-5.019-1.5-.7s-3.524,4.721-8.033,5.3-13.035-1.707-22.9-.492-10.08-1.979-7.541-3.414,5.146-2.743.985-1.172-15.574,5.078-22.9,5.706-20.975-2.471-21.629-4.45c-.611-1.851,4.611-3.864,4.611-3.864-7.3,2.446-10.309,4.492,1.868,7.643,20.856,5.392,43.962.357,60.878,2.7,14.538,2.013,33.025,8.4,50.646,7.753-17.451-.654-23.633-5.341-26.265-6.5C127.228,395.495,123.372,390.9,121.682,388.158Z" transform="translate(-36.39 -330.262)" fill="#d8e0d4"/>
          <path id="Trazado_120871" data-name="Trazado 120871" d="M143.525,322.44h0c-13.086,3.108-18.309,2.471-23.03,2.565,0,0-12.118,1.537-15.5,6.573a205.041,205.041,0,0,1-14.674,18.147h0q-1.529,1.694-3.125,3.388c-3.405,4.017-7.94,10.564-4.56,13.757,5.07,4.8,25.552.357,35.7-6.59s15.031-1.681,24.049-2.514S169.468,316.36,143.525,322.44Z" transform="translate(-43.185 -320.726)" fill="#f2f4e1"/>
          <path id="Trazado_120872" data-name="Trazado 120872" d="M111.027,333.237s-15.854,19.99-17.561,21.739,4.229-3.083,6.7-6.293C103.724,344.064,114.331,330.519,111.027,333.237Z" transform="translate(-44.952 -322.394)" fill="#e7f0e3"/>
        </g>
        <g id="Grupo_55495" data-name="Grupo 55495" transform="translate(253.386 205.311)">
          <g id="Grupo_55492" data-name="Grupo 55492">
            <g id="Grupo_55489" data-name="Grupo 55489" transform="translate(0 3.002)">
              <path id="Trazado_120873" data-name="Trazado 120873" d="M383.988,315.735l-31.862-5.5,1.647-.79-2.548-.382L284.14,330.7l6,2.471,3.634-1.248,37.78,13.927-4.467,2.565,5.774,2.386,58.135-35.632-4.356-.654Z" transform="translate(-284.14 -309.06)" fill="#f0f0f0"/>
              <path id="Trazado_120874" data-name="Trazado 120874" d="M341.365,351.882l-.815,40.956,57.9-46.977L399.5,316.25Z" transform="translate(-292.647 -310.144)" fill="#c2b6be"/>
              <path id="Trazado_120875" data-name="Trazado 120875" d="M284.14,334.54l5.5,40.056,4.8,2.378-4.305-39.963Z" transform="translate(-284.14 -312.903)" fill="#ebe1e1"/>
              <path id="Trazado_120876" data-name="Trazado 120876" d="M334.621,355.4l-.5,40.634,5.46,2.709.815-40.956Z" transform="translate(-291.678 -316.049)" fill="#ebe1e1"/>
              <path id="Trazado_120877" data-name="Trazado 120877" d="M295.505,377.191l2.955-1.444-3.626-39.768-3.634,1.248Z" transform="translate(-285.205 -313.12)" fill="#c2b6be"/>
              <path id="Trazado_120878" data-name="Trazado 120878" d="M299.106,375.747l29.246,12.627.442-35.9,4.467-2.565L295.48,335.98Z" transform="translate(-285.85 -313.12)" fill="#dbd3d3"/>
              <path id="Trazado_120879" data-name="Trazado 120879" d="M365.847,309.51v1.07l-1.647-.28Z" transform="translate(-296.214 -309.128)" fill="#857780"/>
              <path id="Trazado_120880" data-name="Trazado 120880" d="M313.09,334.258a22.716,22.716,0,0,1,14.334-3.753c8.169.781,14.436,3.456,0,10.454l-.416-1.605s10.258-4.772,5.9-6.547-10.98-2.182-18.86,3.405Z" transform="translate(-288.506 -312.281)" fill="#e0d3dc"/>
              <g id="Grupo_55488" data-name="Grupo 55488" transform="translate(73.047 2.267)">
                <path id="Trazado_120881" data-name="Trazado 120881" d="M373.71,312.121l-2.276-.391a11.071,11.071,0,0,0-1.274.773l.654,1.342A19.334,19.334,0,0,1,373.71,312.121Z" transform="translate(-370.16 -311.73)" fill="#e0d3dc"/>
                <path id="Trazado_120882" data-name="Trazado 120882" d="M386.633,314.423l-1.529-.263a22.079,22.079,0,0,1-3.694,2.2l.289,1.1A20.671,20.671,0,0,0,386.633,314.423Z" transform="translate(-371.857 -312.097)" fill="#e0d3dc"/>
              </g>
            </g>
            <g id="Grupo_55490" data-name="Grupo 55490" transform="translate(23.557 16.039)">
              <path id="Trazado_120883" data-name="Trazado 120883" d="M326.987,340.078h-.093a1.275,1.275,0,0,1-1.18-1.367l.221-3.015a8.384,8.384,0,0,0-5.443-8.449,4.5,4.5,0,0,0-6.046,4.526l.153,2.293a1.277,1.277,0,1,1-2.548.17l-.153-2.293a7.05,7.05,0,0,1,9.477-7.091,10.95,10.95,0,0,1,7.1,11.031l-.221,3.015A1.264,1.264,0,0,1,326.987,340.078Z" transform="translate(-311.881 -324.413)" fill="#889db3"/>
            </g>
            <g id="Grupo_55491" data-name="Grupo 55491" transform="translate(72.323)">
              <path id="Trazado_120884" data-name="Trazado 120884" d="M379.653,316.238h-.059a.847.847,0,0,1-.781-.909l.153-2.072a5.8,5.8,0,0,0-3.753-5.834,3.12,3.12,0,0,0-4.2,3.134l.1,1.571a.851.851,0,1,1-1.7.119l-.1-1.571a4.816,4.816,0,0,1,6.471-4.849,7.512,7.512,0,0,1,4.866,7.558l-.153,2.072A.858.858,0,0,1,379.653,316.238Z" transform="translate(-369.307 -305.525)" fill="#889db3"/>
            </g>
          </g>
          <g id="Grupo_55493" data-name="Grupo 55493" transform="translate(16.274 36.555)">
            <path id="Trazado_120885" data-name="Trazado 120885" d="M303.309,350.328l.187,2.4a4.32,4.32,0,0,0,2.785,3.711l16.3,6.191a1.617,1.617,0,0,0,2.191-1.427l.093-1.766a4.335,4.335,0,0,0-2.751-4.271l-16.61-6.488A1.624,1.624,0,0,0,303.309,350.328Z" transform="translate(-303.304 -348.572)" fill="#9e8e99"/>
            <path id="Trazado_120886" data-name="Trazado 120886" d="M304.069,360.669l.187,2.4a4.32,4.32,0,0,0,2.785,3.711l16.3,6.191a1.617,1.617,0,0,0,2.191-1.427l.093-1.766a4.335,4.335,0,0,0-2.751-4.271l-16.61-6.488A1.632,1.632,0,0,0,304.069,360.669Z" transform="translate(-303.418 -350.132)" fill="#9e8e99"/>
            <path id="Trazado_120887" data-name="Trazado 120887" d="M304.939,371.308l.187,2.4a4.32,4.32,0,0,0,2.785,3.711l16.3,6.191a1.617,1.617,0,0,0,2.191-1.427l.093-1.766a4.335,4.335,0,0,0-2.751-4.272l-16.61-6.488A1.627,1.627,0,0,0,304.939,371.308Z" transform="translate(-303.55 -351.736)" fill="#9e8e99"/>
          </g>
          <g id="Grupo_55494" data-name="Grupo 55494" transform="translate(16.273 36.833)">
            <path id="Trazado_120888" data-name="Trazado 120888" d="M323.273,360.7l-16.3-6.191a4.334,4.334,0,0,1-2.785-3.711l-.144-1.9a1.6,1.6,0,0,0-.73,1.478l.187,2.4a4.32,4.32,0,0,0,2.785,3.711l16.3,6.191a1.617,1.617,0,0,0,2.191-1.427l.042-.781A1.587,1.587,0,0,1,323.273,360.7Z" transform="translate(-303.304 -348.9)" fill="#c2b6be"/>
            <path id="Trazado_120889" data-name="Trazado 120889" d="M324.043,371.054l-16.3-6.191a4.334,4.334,0,0,1-2.785-3.711l-.144-1.9a1.6,1.6,0,0,0-.73,1.477l.187,2.4a4.32,4.32,0,0,0,2.785,3.711l16.3,6.191a1.617,1.617,0,0,0,2.191-1.427l.042-.781A1.587,1.587,0,0,1,324.043,371.054Z" transform="translate(-303.42 -350.461)" fill="#c2b6be"/>
            <path id="Trazado_120890" data-name="Trazado 120890" d="M324.913,381.694l-16.3-6.191a4.334,4.334,0,0,1-2.785-3.711l-.144-1.9a1.6,1.6,0,0,0-.73,1.478l.187,2.4a4.32,4.32,0,0,0,2.785,3.711l16.3,6.191a1.617,1.617,0,0,0,2.191-1.427l.042-.781A1.638,1.638,0,0,1,324.913,381.694Z" transform="translate(-303.551 -352.065)" fill="#c2b6be"/>
          </g>
          <path id="Trazado_120891" data-name="Trazado 120891" d="M344.64,381.6l52.65-38.74v2.225L344.64,385Z" transform="translate(-293.264 -311.156)" fill="#9e8e99"/>
          <path id="Trazado_120892" data-name="Trazado 120892" d="M396.364,344.535v-.875L344.64,381.721v1.851Z" transform="translate(-293.264 -311.276)" fill="#857780"/>
          <path id="Trazado_120893" data-name="Trazado 120893" d="M295.505,377.191H301.8l-2.165-39.445-4.8-1.766-3.634,1.248Z" transform="translate(-285.205 -310.118)" fill="#e0d3dc"/>
          <path id="Trazado_120894" data-name="Trazado 120894" d="M340.55,392.838H356.9l52.37-49.134-10.708-1.087.943-26.367-58.135,35.632Z" transform="translate(-292.647 -307.143)" fill="#e0d3dc"/>
        </g>
        <g id="Grupo_55499" data-name="Grupo 55499" transform="translate(16.018 85.265)">
          <path id="Trazado_120895" data-name="Trazado 120895" d="M65.393,242.62a98.031,98.031,0,0,1-21.085,14.954c-11.591,5.817-10.063,8.144,2.233,9.443s32.464-.416,33.195,0S65.393,242.62,65.393,242.62Z" transform="translate(-36.411 -187.586)" fill="#9bb3cc"/>
          <path id="Trazado_120896" data-name="Trazado 120896" d="M84.58,225.713s17.366-33.976,27.836-43.563,26.155-3.066,38.893,17.417,16.084,35.42,25.4,45.737,4.84,11.974-3.354,13.57-30.724.849-36.872.849S84.58,225.713,84.58,225.713Z" transform="translate(-43.675 -177.812)" fill="#889db3"/>
          <path id="Trazado_120897" data-name="Trazado 120897" d="M123.379,177.82a15.6,15.6,0,0,0-10.963,4.331c-10.47,9.587-27.836,43.563-27.836,43.563s5.7,4.229,13.341,9.706c8.9.688,27.658,1.1,26.7-7.651-1.257-11.456,2.794-6.14,9.018-27.514C139.752,179.255,123.906,177.862,123.379,177.82Z" transform="translate(-43.675 -177.813)" fill="#9bb3cc"/>
          <path id="Trazado_120898" data-name="Trazado 120898" d="M153.871,237.515c-1.325,8.653,6.386,8.322-5.01,9.952s10.615,8.551,26.308,8.738,10.335,5.885.008,7.278a57.7,57.7,0,0,0,7.4-.756c8.195-1.6,12.661-3.252,3.354-13.57s-12.661-25.246-25.4-45.737c0,0,6.683,11.77,6.963,22.92C167.772,237.506,155.2,228.862,153.871,237.515Z" transform="translate(-52.895 -181.674)" fill="#9bb3cc"/>
          <g id="Grupo_55498" data-name="Grupo 55498" transform="translate(14.885 39.384)">
            <g id="Grupo_55496" data-name="Grupo 55496" transform="translate(6.666 15.26)">
              <path id="Trazado_120899" data-name="Trazado 120899" d="M147.872,259.195,61.79,256.4l10.887-13.111L137.1,242.16Z" transform="translate(-61.79 -242.16)" fill="#fbfaff"/>
              <path id="Trazado_120900" data-name="Trazado 120900" d="M61.79,258.93l1.792,16.78,80.885,3.456,3.405-17.442Z" transform="translate(-61.79 -244.689)" fill="#cdcadb"/>
              <path id="Trazado_120901" data-name="Trazado 120901" d="M101.21,242.991l12.143,14.98L112.131,275.1l15.107.645,1.4-17.272-16.508-15.7Z" transform="translate(-67.735 -242.252)" fill="#e68173"/>
              <path id="Trazado_120902" data-name="Trazado 120902" d="M130.578,261.171l-15.285-.5L114.07,277.8l15.107.645Z" transform="translate(-69.674 -244.952)" fill="#c45e4f"/>
              <path id="Trazado_120903" data-name="Trazado 120903" d="M66.78,262.18l.654,3.949,34.409,1.223v-3.015Z" transform="translate(-62.543 -245.179)" fill="#4e5c6b"/>
              <path id="Trazado_120904" data-name="Trazado 120904" d="M68.03,270.19l.493,4.526,15.651.688V270.19Z" transform="translate(-62.731 -246.387)" fill="#4e5c6b"/>
              <path id="Trazado_120905" data-name="Trazado 120905" d="M74.812,245.13,71.39,250.3l22.257.374-2.284-5.545Z" transform="translate(-63.238 -242.608)" fill="#e68173"/>
              <path id="Trazado_120906" data-name="Trazado 120906" d="M77.224,245.98l-2.284,3.439,14.844.255-1.52-3.694Z" transform="translate(-63.773 -242.736)" fill="#ffc942"/>
              <path id="Trazado_120907" data-name="Trazado 120907" d="M147.79,243.57l6.539,10.513h-5.443L144.24,243.57Z" transform="translate(-74.224 -242.373)" fill="#8abeb2"/>
              <path id="Trazado_120908" data-name="Trazado 120908" d="M140.993,243.57H136.9l2.683,6.87h4.042Z" transform="translate(-73.118 -242.373)" fill="#b2d4dd"/>
            </g>
            <g id="Grupo_55497" data-name="Grupo 55497">
              <path id="Trazado_120909" data-name="Trazado 120909" d="M140.031,241.225,53.94,238.431l10.9-13.111,64.419-1.129Z" transform="translate(-53.94 -224.19)" fill="#fbfaff"/>
              <path id="Trazado_120910" data-name="Trazado 120910" d="M53.94,240.96l1.8,16.78,80.877,3.456,3.414-17.442Z" transform="translate(-53.94 -226.719)" fill="#dcd8eb"/>
              <path id="Trazado_120911" data-name="Trazado 120911" d="M93.37,225.021,105.513,240l-1.223,17.128,15.107.645,1.4-17.273-16.508-15.7Z" transform="translate(-59.887 -224.282)" fill="#e68173"/>
              <path id="Trazado_120912" data-name="Trazado 120912" d="M122.738,243.2l-15.285-.5-1.223,17.128,15.107.645Z" transform="translate(-61.826 -226.981)" fill="#d86757"/>
              <path id="Trazado_120913" data-name="Trazado 120913" d="M58.94,244.21l.654,3.949L94,249.382v-3.015Z" transform="translate(-54.694 -227.209)" fill="#5c6d7f"/>
              <path id="Trazado_120914" data-name="Trazado 120914" d="M60.19,252.22l.493,4.526,15.651.688V252.22Z" transform="translate(-54.883 -228.417)" fill="#5c6d7f"/>
              <path id="Trazado_120915" data-name="Trazado 120915" d="M66.972,227.16l-3.422,5.172,22.257.374-2.284-5.545Z" transform="translate(-55.389 -224.638)" fill="#e68173"/>
              <path id="Trazado_120916" data-name="Trazado 120916" d="M69.384,228.01,67.1,231.449l14.844.255-1.529-3.694Z" transform="translate(-55.925 -224.766)" fill="#ffc942"/>
              <path id="Trazado_120917" data-name="Trazado 120917" d="M139.941,225.6l6.547,10.513h-5.443L136.4,225.6Z" transform="translate(-66.376 -224.403)" fill="#8abeb2"/>
              <path id="Trazado_120918" data-name="Trazado 120918" d="M133.152,225.6h-4.1l2.692,6.87h4.034Z" transform="translate(-65.268 -224.403)" fill="#b2d4dd"/>
            </g>
          </g>
          <path id="Trazado_120919" data-name="Trazado 120919" d="M112.168,191.08s-5.078,9.494-8.526,13.782-2.794,5.868,1.86.374,7.447-14.895,8.942-17.689S114.3,187.241,112.168,191.08Z" transform="translate(-46.221 -179.099)" fill="#bcd0e6"/>
        </g>
      </g>
    </g>
  </g>
</svg>
