<svg xmlns="http://www.w3.org/2000/svg" width="60" height="60" viewBox="0 0 60 60">
  <g id="Grupo_58719" data-name="Grupo 58719" transform="translate(-180.5 -958.323)">
    <g id="Grupo_61700" data-name="Grupo 61700">
      <circle id="Elipse_1195" data-name="Elipse 1195" cx="30" cy="30" r="30" transform="translate(180.5 958.323)" fill="#91b3fa"/>
      <path id="Trazado_144406" data-name="Trazado 144406" d="M1.611,31V9.672H9.272a10.849,10.849,0,0,1,6.262,1.509,5.02,5.02,0,0,1,2.146,4.38,5.075,5.075,0,0,1-.762,2.827,4.439,4.439,0,0,1-2.241,1.729,4.5,4.5,0,0,1,2.563,1.641,4.77,4.77,0,0,1,.894,2.93A5.647,5.647,0,0,1,16.15,29.4,9.446,9.446,0,0,1,10.269,31Zm5.142-9.067v5.112h3.369a3.2,3.2,0,0,0,2.139-.637,2.23,2.23,0,0,0,.747-1.794,2.364,2.364,0,0,0-2.651-2.681Zm0-3.369H9.434a3.808,3.808,0,0,0,2.4-.617,2.189,2.189,0,0,0,.718-1.778,2.3,2.3,0,0,0-.776-1.947,4.156,4.156,0,0,0-2.5-.595H6.753Z" transform="translate(199.5 969.323)" fill="#fff"/>
    </g>
  </g>
</svg>
