<svg xmlns="http://www.w3.org/2000/svg" width="553" height="240" viewBox="0 0 553 240">
  <g id="slyder8" transform="translate(-751 -9616.423)">
    <rect id="Rectángulo_37869" data-name="Rectángulo 37869" width="553" height="240" rx="18" transform="translate(751 9616.423)" fill="#f2f6fe"/>
    <g id="otros-06" transform="translate(934.224 9656.041)">
      <path id="Trazado_144308" data-name="Trazado 144308" d="M111.856,57A33.759,33.759,0,0,0,91.4,24.956h0s-33.531-18.1-73.64,8.82,15.739,71.7,15.739,71.7,64.249,1.9,75.693-34.52h0A37.371,37.371,0,0,0,111.856,57Z" transform="translate(-0.427 46.656)" fill="#cb6a2c"/>
      <path id="Trazado_144309" data-name="Trazado 144309" d="M80.72,25.24h0S48.937,6.231,7.08,34.06c5.855,13.61,23.875,19.009,23.875,19.009s43.682,11.177,69.116-4.6A32.353,32.353,0,0,0,80.72,25.24Z" transform="translate(10.256 46.373)" fill="#e0863e"/>
      <path id="Trazado_144310" data-name="Trazado 144310" d="M48.747,79.953S6.053,51.592,19.474,25.246c-1.141.722-.532-3.041-1.711-2.281C-22.346,50,33.5,94.666,33.5,94.666S89.008,96.3,106,67.293C83.077,80.942,48.747,79.953,48.747,79.953Z" transform="translate(-0.427 57.467)" fill="#b54f1e"/>
      <ellipse id="Elipse_4605" data-name="Elipse 4605" cx="32.999" cy="38.131" rx="32.999" ry="38.131" transform="translate(0.076 75.87)" fill="#e8a556"/>
      <ellipse id="Elipse_4606" data-name="Elipse 4606" cx="29.844" cy="33.759" rx="29.844" ry="33.759" transform="translate(2.889 80.204)" fill="#cb6a2c"/>
      <path id="Trazado_144311" data-name="Trazado 144311" d="M25.7,30.662c16.5,0,29.882,15.207,29.882,33.759a37.029,37.029,0,0,1-3.384,15.625,36.116,36.116,0,0,0,8.44-23.457c0-18.629-13.382-33.759-29.882-33.759A29.692,29.692,0,0,0,4.14,40.964,28.247,28.247,0,0,1,25.7,30.662Z" transform="translate(2.019 57.374)" fill="#b54f1e"/>
      <path id="Trazado_144312" data-name="Trazado 144312" d="M13.236,30.36a26.156,26.156,0,0,0-9.885,1.9,30.187,30.187,0,0,0,0,3.231c0,18.667,13.382,33.759,29.844,33.759a26.612,26.612,0,0,0,9.885-1.9,30.184,30.184,0,0,0,0-3.231C43.08,45.453,29.7,30.36,13.236,30.36Z" transform="translate(-0.31 78.471)" fill="#e0863e"/>
      <path id="Trazado_144313" data-name="Trazado 144313" d="M31.669,22.89l-1.141.228a29.539,29.539,0,0,0-3.155.76A28.665,28.665,0,0,0,22.7,25.817a29.882,29.882,0,0,0-5.437,3.612,34.6,34.6,0,0,0-2.737,2.585,25.928,25.928,0,0,0-2.509,3.079,30.034,30.034,0,0,0-2.243,3.422,38.475,38.475,0,0,0-1.825,3.992,38.931,38.931,0,0,0-1.293,4.372,36.23,36.23,0,0,0-.646,4.6,32.467,32.467,0,0,0,0,4.714,33.455,33.455,0,0,0,.646,4.714,31.363,31.363,0,0,0,1.331,4.562,29.122,29.122,0,0,0,1.939,4.3A30.414,30.414,0,0,0,15.435,77.1a32.81,32.81,0,0,0,3.346,2.813,28.779,28.779,0,0,0,10.8,4.9,29.351,29.351,0,0,0,6.5.684A26.307,26.307,0,0,0,41.1,85.01a27.33,27.33,0,0,0,3.193-.8l.8-.266h0l-.8.3a31.86,31.86,0,0,1-3.155.874,25.016,25.016,0,0,1-5.056.684A28.475,28.475,0,0,1,22.05,82.691a28.626,28.626,0,0,1-3.8-2.205,39.808,39.808,0,0,1-3.46-2.889,32.81,32.81,0,0,1-5.7-7.6,35.622,35.622,0,0,1-2.015-4.41,32.96,32.96,0,0,1-1.293-4.258,29.919,29.919,0,0,1-.646-4.866,40.908,40.908,0,0,1,0-4.828,38.017,38.017,0,0,1,.722-4.714,43.073,43.073,0,0,1,1.407-4.6,31.592,31.592,0,0,1,6.881-10.8,28.854,28.854,0,0,1,2.813-2.547,30.072,30.072,0,0,1,5.589-3.536,30.832,30.832,0,0,1,4.79-1.787,27.79,27.79,0,0,1,3.193-.684Z" transform="translate(4.6 57.542)" fill="#ad5615"/>
      <path id="Trazado_144314" data-name="Trazado 144314" d="M10.918,33.232a.456.456,0,0,1-.418-.38l-.494-4.562a.418.418,0,0,1,.228-.456,99.606,99.606,0,0,1,53.453-7.6.418.418,0,0,1,.342.494.456.456,0,0,1-.494.38,98.465,98.465,0,0,0-52.616,7.261l.646,4.258a.456.456,0,0,1-.38.494Z" transform="translate(18.431 47.619)" fill="#ad5615"/>
      <path id="Trazado_144315" data-name="Trazado 144315" d="M14.46,30.215h-.19a.456.456,0,0,1-.228-.57l1.939-3.8a.418.418,0,0,1,.266-.228,137.319,137.319,0,0,1,52.5-3.155.418.418,0,0,1,0,.836,136.065,136.065,0,0,0-51.932,3.117l-1.825,3.8a.418.418,0,0,1-.532,0Z" transform="translate(29.679 52.955)" fill="#ad5615"/>
      <path id="Trazado_144316" data-name="Trazado 144316" d="M17.55,31.985a.418.418,0,0,1-.532-.38.456.456,0,0,1,.266-.57l3.8-1.407h0A386.444,386.444,0,0,1,68.455,24a.38.38,0,0,1,.418.418.456.456,0,0,1-.418.456,381.091,381.091,0,0,0-47.1,5.7l-3.8,1.407Z" transform="translate(38.032 60.651)" fill="#ad5615"/>
      <path id="Trazado_144317" data-name="Trazado 144317" d="M22.791,38.028h-3.8a.437.437,0,0,1,0-.874h3.8c1.026,0,32.809-3.8,44.937-10.531a.417.417,0,0,1,.57.608c-12.394,7-44.975,10.607-45.279,10.645Z" transform="translate(42.447 67.686)" fill="#ad5615"/>
      <path id="Trazado_144318" data-name="Trazado 144318" d="M22.671,47.153H19.059a.438.438,0,0,1,0-.874h3.574c1.064,0,31.554-4.22,45.849-16.842a.418.418,0,0,1,.608,0,.38.38,0,0,1,0,.608c-14.865,13-46.039,17.108-46.381,17.108Z" transform="translate(42.643 75.517)" fill="#ad5615"/>
      <path id="Trazado_144319" data-name="Trazado 144319" d="M20.979,52.22h-.19l-3.308-1.977a.418.418,0,1,1,.418-.722l3.231,1.9c2.243,0,35.964-.684,48.51-18.7a.418.418,0,0,1,.608,0,.38.38,0,0,1,0,.57C63.368,43.209,50.29,47.848,40.52,50.015a101.888,101.888,0,0,1-19.541,2.2Z" transform="translate(38.747 84.707)" fill="#ad5615"/>
      <path id="Trazado_144320" data-name="Trazado 144320" d="M8.658,27.294a.418.418,0,0,1-.266,0L5.655,24.937a.522.522,0,0,1,.57-.874l2.737,2.4a.418.418,0,0,1,0,.608.38.38,0,0,1-.3.228Z" transform="translate(5.599 60.59)" fill="#ad5615"/>
      <path id="Trazado_144321" data-name="Trazado 144321" d="M62.011,30.765h0L13.5,29.13,6.354,30.765H3.2a.418.418,0,1,1,0-.836h3l7.185-1.559h0L61.9,29.929a.418.418,0,0,1,.418.418.38.38,0,0,1-.3.418Z" transform="translate(-1.792 72.896)" fill="#ad5615"/>
      <path id="Trazado_144322" data-name="Trazado 144322" d="M5.866,36.658H2.976a.418.418,0,0,1-.456-.418.456.456,0,0,1,.456-.456H5.751L12.4,32.21h0l51.552,1.673a.438.438,0,1,1-.038.874L12.709,33.008,6.056,36.62Z" transform="translate(-2.52 83.655)" fill="#ad5615"/>
      <path id="Trazado_144323" data-name="Trazado 144323" d="M4.446,42.718a.532.532,0,0,1-.38,0,.456.456,0,0,1,0-.608l2.623-1.9,6.805-4.486a.3.3,0,0,1,.266,0l41.819,3.041a.439.439,0,0,1-.076.874L13.988,36.6,7.3,40.665,4.674,42.6Z" transform="translate(1.485 93.41)" fill="#ad5615"/>
      <path id="Trazado_144324" data-name="Trazado 144324" d="M7.584,47.416h0a.456.456,0,0,1-.266-.57l1.445-3.8L15.377,38.6a.43.43,0,0,1,.608.608L9.371,43.5,8,47.3a.456.456,0,0,1-.418.114Z" transform="translate(10.855 101.22)" fill="#ad5615"/>
      <path id="Trazado_144325" data-name="Trazado 144325" d="M12.55,48.869a.38.38,0,0,1-.418-.38l-.532-4.41a.38.38,0,0,1,0-.342l3.8-4.3a.532.532,0,0,1,.646,0,.456.456,0,0,1,0,.608l-3.612,4.182.494,4.182a.418.418,0,0,1-.38.494Z" transform="translate(22.806 103.607)" fill="#ad5615"/>
      <path id="Trazado_144326" data-name="Trazado 144326" d="M17.853,44.542H17.51L14.621,41.31a.418.418,0,0,1,0-.3V39.6a.437.437,0,0,1,.874,0v1.255l2.775,3.079a.418.418,0,0,1,0,.608.494.494,0,0,1-.418,0Z" transform="translate(31.304 103.182)" fill="#ad5615"/>
      <path id="Trazado_144327" data-name="Trazado 144327" d="M40.991,26.923h0l-33-1.1a.408.408,0,0,1-.418-.456.38.38,0,0,1,.456-.418l33,1.1a.456.456,0,0,1,0,.874Z" transform="translate(11.625 63.28)" fill="#ad5615"/>
      <path id="Trazado_144328" data-name="Trazado 144328" d="M51.895,39.541A37.371,37.371,0,0,0,19.428,19.81a77.1,77.1,0,0,0-8.1,2.889c19.465-.836,31.212,9.885,35.888,20.111s10.417,31.592.874,46.153a38.512,38.512,0,0,1-20.415,13.762c4.03-.456,8.44-1.1,13.04-2.053C60.3,87.937,63.3,59.918,51.895,39.541Z" transform="translate(22.163 48.913)" fill="#a8846c"/>
      <path id="Trazado_144329" data-name="Trazado 144329" d="M37.387,24.835h0A37.447,37.447,0,0,0,22.18,19.17,39.31,39.31,0,0,1,47.69,41.98c7,19.009.95,40.755-11.405,51.019h0A45.621,45.621,0,0,0,49.553,81.595,44.975,44.975,0,0,0,55.1,64.563C55.407,55.819,56.51,37.532,37.387,24.835Z" transform="translate(52.562 47.12)" fill="#a8846c"/>
      <path id="Trazado_144330" data-name="Trazado 144330" d="M52.495,39.527A38.017,38.017,0,0,0,19.724,19.72c-2.661.76-5.4,1.787-8.174,2.889,19.465-.8,31.554,10,36.269,20.187s10.341,31.554.646,45.963A38.588,38.588,0,0,1,28.05,102.522c3.992-.418,8.44-1.1,13-2.053C60.859,87.885,63.786,59.866,52.495,39.527Z" transform="translate(22.78 48.661)" fill="#6e5440"/>
      <path id="Trazado_144331" data-name="Trazado 144331" d="M38.3,24.512h0A52.008,52.008,0,0,0,22.26,19.19C29.179,21.2,43.436,27.4,48.644,41.544c7.033,19.009.95,40.755-11.405,51.019h0a44.4,44.4,0,0,0,13.23-11.405,44.138,44.138,0,0,0,5.513-17.07C56.324,55.459,57.426,37.172,38.3,24.512Z" transform="translate(52.786 47.176)" fill="#6e5440"/>
      <path id="Trazado_144332" data-name="Trazado 144332" d="M47.763,42.8a68.811,68.811,0,0,1,4.03,11.671,54.565,54.565,0,0,0,6.083-.228,52.806,52.806,0,0,0-5.436-14.713A38.017,38.017,0,0,0,19.668,19.72c-2.623.8-5.322,1.749-8.1,2.889C30.959,21.849,43.048,32.608,47.763,42.8Z" transform="translate(22.836 48.661)" fill="#8e6b54"/>
      <path id="Trazado_144333" data-name="Trazado 144333" d="M41.894,37.21c-1.521.3-3.041.532-4.486.76-.342.608-.722,1.217-1.1,1.787A38.284,38.284,0,0,1,15.89,53.519h2.167c2.167-.266,4.41-.608,6.729-.988h1.9l1.026-.912h1.141A37.219,37.219,0,0,0,41.894,37.21Z" transform="translate(34.939 97.663)" fill="#513c2d"/>
      <path id="Trazado_144334" data-name="Trazado 144334" d="M48.474,41.468a46.038,46.038,0,0,1,2.4,9.39c1.483-.608,2.889-1.255,4.258-1.977a36.991,36.991,0,0,0-16.88-24.369h0a43.075,43.075,0,0,0-6.5-2.851l-.532-.19h0A58.243,58.243,0,0,0,22.28,19.19C29.009,21.167,43.266,27.326,48.474,41.468Z" transform="translate(52.842 47.176)" fill="#8e6b54"/>
      <path id="Trazado_144335" data-name="Trazado 144335" d="M26.18,49.089A44.214,44.214,0,0,0,39.448,37.683c.494-.912.988-1.9,1.521-3a63.978,63.978,0,0,1-5.817,2.927A36.8,36.8,0,0,1,26.18,49.089Z" transform="translate(63.769 90.575)" fill="#513c2d"/>
      <path id="Trazado_144336" data-name="Trazado 144336" d="M114.131,58.767a.38.38,0,0,0,0-.608.418.418,0,0,0-.342,0V56.98a37.1,37.1,0,0,0-.988-8.554h0a.38.38,0,1,0-.456-.608v-.57h0a37.1,37.1,0,0,0-1.255-3.8h0a6.083,6.083,0,0,0-.38-.874h0c-.494-1.141-1.064-2.243-1.635-3.308a.456.456,0,0,0,.19-.38.38.38,0,0,0-.418-.418h-.266v-.418c-.456-.722-.95-1.445-1.483-2.129V35.69l-.418-.532-.228-.3L106,34.322l-.266-.342-.418-.494-.342-.342a6.844,6.844,0,0,0-.722-.76,3.572,3.572,0,0,0-.38-.38l-.38-.38-.418-.38-.38-.342-.494-.456-.342-.266-.418-.342v-.19a.418.418,0,0,0-.342-.494h-.836l-.38-.228L99.3,28.5h-.342l-.722-.456h-.19l-1.293-1.635h-.3l-.684-.342h-.342l-.684-.3h-.3l-1.026-.418h0a40.869,40.869,0,0,0-6.5-2.851l-.532-.19h0a58.814,58.814,0,0,0-8.972-2.281H77.14a70.218,70.218,0,0,0-32.163,2.129h0c-2.661.76-5.4,1.787-8.174,2.889h0l-.684.3h-.19c-2.243.912-4.486,1.977-6.805,3.193A100.173,100.173,0,0,0,19.7,34.131h0a35.167,35.167,0,0,0-5.4,3.688h0a.418.418,0,0,0-.608,0,.38.38,0,0,0,0,.57,29.881,29.881,0,0,0-5.322,7.033,41.1,41.1,0,0,0-4.41,10.417h0a.427.427,0,0,0-.114.836A44.48,44.48,0,0,0,2.588,67.131a50.261,50.261,0,0,0,.342,5.436.494.494,0,0,0-.38.456.418.418,0,0,0,.456.418h0A41.515,41.515,0,0,0,8.063,88.458h0a.456.456,0,0,0,0,.608.532.532,0,0,0,.38,0h0a35.356,35.356,0,0,0,11.937,11.9h0a.456.456,0,0,0,.266.57h0a.494.494,0,0,0,.38-.228,29.2,29.2,0,0,0,14.257,3.8h1.863a.456.456,0,0,0,.418.342h0a.456.456,0,0,0,.38-.342h1.026c3.079,0,7.87-.266,13.572-.874l-.722.228c4.03-.456,8.44-1.1,13.04-2.053h0A84.1,84.1,0,0,0,94.742,91.005h0c.874-.57,1.673-1.179,2.509-1.787l.342-.266,1.1-.912.456-.342.57-.532.532-.456.76-.722.608-.608.456-.456c.266-.228.494-.494.722-.722l.456-.532a6.2,6.2,0,0,0,.646-.76,1.977,1.977,0,0,0,.38-.418l.8-1.026h0a34.482,34.482,0,0,0,5.627-9.428l.8-1.1a.38.38,0,0,0,0-.57h0a38.018,38.018,0,0,0,2.433-11.405Z" transform="translate(-2.436 46.833)" fill="#2b1f16" opacity="0.2"/>
      <path id="Trazado_144337" data-name="Trazado 144337" d="M131.523,59.157a33.607,33.607,0,0,0-20.453-32.011h0s-33.493-18.1-73.6,8.82,15.7,71.663,15.7,71.663,64.249,1.9,75.693-34.52h0A37.371,37.371,0,0,0,131.523,59.157Z" transform="translate(54.763 52.792)" fill="#cb6a2c"/>
      <path id="Trazado_144338" data-name="Trazado 144338" d="M100.382,27.424h0S68.6,8.416,26.78,36.282c5.855,13.61,23.875,19.009,23.875,19.009s43.682,11.063,69.116-4.828a32.277,32.277,0,0,0-19.389-23.039Z" transform="translate(65.45 52.514)" fill="#e0863e"/>
      <path id="Trazado_144339" data-name="Trazado 144339" d="M68.414,82.112S25.644,53.751,39.178,27.405c-1.179.722-.57-3.041-1.711-2.243-40.108,26.916,15.7,71.663,15.7,71.663s55.505,1.635,72.537-27.373C102.934,83.139,68.414,82.112,68.414,82.112Z" transform="translate(54.763 63.596)" fill="#b54f1e"/>
      <ellipse id="Elipse_4607" data-name="Elipse 4607" cx="32.999" cy="38.131" rx="32.999" ry="38.131" transform="translate(74.932 84.158)" fill="#e8a556"/>
      <ellipse id="Elipse_4608" data-name="Elipse 4608" cx="29.844" cy="33.759" rx="29.844" ry="33.759" transform="translate(77.784 88.492)" fill="#cb6a2c"/>
      <path id="Trazado_144340" data-name="Trazado 144340" d="M45.424,32.842c16.5,0,29.844,15.207,29.844,33.8a37.143,37.143,0,0,1-3.384,15.625,36.078,36.078,0,0,0,8.4-23.495c0-18.629-13.382-33.759-29.844-33.759A29.73,29.73,0,0,0,23.83,43.144a28.247,28.247,0,0,1,21.594-10.3Z" transform="translate(57.185 63.482)" fill="#b54f1e"/>
      <path id="Trazado_144341" data-name="Trazado 144341" d="M32.923,32.542A26.917,26.917,0,0,0,23,34.291v3.231c0,18.667,13.382,33.759,29.882,33.759a26.27,26.27,0,0,0,9.885-1.9V66.149C62.766,47.673,49.612,32.542,32.923,32.542Z" transform="translate(54.86 84.577)" fill="#e0863e"/>
      <path id="Trazado_144342" data-name="Trazado 144342" d="M51.575,25.08l-1.141.19a31.935,31.935,0,0,0-3.193.8,28.132,28.132,0,0,0-4.676,1.9,33.607,33.607,0,0,0-5.436,3.612,34.22,34.22,0,0,0-2.7,2.585,28.854,28.854,0,0,0-2.547,3.079,33.45,33.45,0,0,0-2.243,3.574,31.782,31.782,0,0,0-1.787,3.992,32.315,32.315,0,0,0-1.293,4.372,30.414,30.414,0,0,0-.684,4.6,31.174,31.174,0,0,0,.646,9.428,33.154,33.154,0,0,0,1.293,4.6,29.121,29.121,0,0,0,1.863,4.3,32.163,32.163,0,0,0,5.551,7.3,33.987,33.987,0,0,0,3.346,2.851A29.084,29.084,0,0,0,42.109,84.5a31.022,31.022,0,0,0,7.223,2.661,31.822,31.822,0,0,0,6.5.684,31.669,31.669,0,0,0,8.212-1.293l.836-.266h0l-.836.3a26.612,26.612,0,0,1-8.174,1.559,27.486,27.486,0,0,1-6.615-.532,26.991,26.991,0,0,1-7.6-2.585,26.232,26.232,0,0,1-3.8-2.205,27.334,27.334,0,0,1-3.46-2.889A33.424,33.424,0,0,1,25.419,63.4a34.787,34.787,0,0,1-.646-4.866,34.217,34.217,0,0,1,0-4.828,32.85,32.85,0,0,1,1.1-4.714,35.282,35.282,0,0,1,1.331-4.448,31.213,31.213,0,0,1,4.258-7.6,26,26,0,0,1,2.623-3.079A35.357,35.357,0,0,1,36.9,31.277a31.364,31.364,0,0,1,5.589-3.536,30.831,30.831,0,0,1,4.79-1.787c1.369-.342,2.471-.532,3.193-.646Z" transform="translate(59.588 63.678)" fill="#ad5615"/>
      <path id="Trazado_144343" data-name="Trazado 144343" d="M30.782,35.4a.456.456,0,0,1-.456-.342l-.684-4.6A.456.456,0,0,1,29.907,30a99.3,99.3,0,0,1,53.224-7.6.456.456,0,0,1,0,.874,97.933,97.933,0,0,0-52.616,7.3l.646,4.22a.418.418,0,0,1-.38.494Z" transform="translate(73.462 53.738)" fill="#ad5615"/>
      <path id="Trazado_144344" data-name="Trazado 144344" d="M33.995,32.394h0a.418.418,0,0,1-.19-.57l1.9-3.8a.418.418,0,0,1,.266-.228,137.433,137.433,0,0,1,52.5-3.155.427.427,0,1,1-.152.836A136.863,136.863,0,0,0,36.39,28.592l-1.825,3.8a.418.418,0,0,1-.57,0Z" transform="translate(85 59.064)" fill="#ad5615"/>
      <path id="Trazado_144345" data-name="Trazado 144345" d="M37.14,34.2a.456.456,0,0,1-.152-.874l3.8-1.407h0A382.582,382.582,0,0,1,88.046,26.18a.494.494,0,0,1,.456.418.456.456,0,0,1-.456.456,379.071,379.071,0,0,0-47.066,5.7l-3.8,1.407Z" transform="translate(93.298 66.76)" fill="#ad5615"/>
      <path id="Trazado_144346" data-name="Trazado 144346" d="M42.368,40.211H38.756a.418.418,0,0,1-.456-.418.456.456,0,0,1,.456-.456H42.33c1.026,0,32.809-3.8,44.937-10.531a.387.387,0,1,1,.418.608C75.291,36.447,42.748,40.021,42.406,40.059Z" transform="translate(97.726 73.791)" fill="#ad5615"/>
      <path id="Trazado_144347" data-name="Trazado 144347" d="M42.5,49.317H38.7a.437.437,0,0,1,0-.874h3.8c1.064,0,31.554-4.22,45.621-16.842a.532.532,0,0,1,.646,0,.456.456,0,0,1,0,.608C74.094,45.173,42.729,49.241,42.425,49.279Z" transform="translate(97.669 81.641)" fill="#ad5615"/>
      <path id="Trazado_144348" data-name="Trazado 144348" d="M40.621,54.314h-.228L37.086,52.3a.456.456,0,0,1,0-.608.418.418,0,0,1,.608,0l3.193,1.9c2.243,0,36-.684,48.548-18.667a.38.38,0,0,1,.57,0,.418.418,0,0,1,0,.608c-6.881,9.885-19.959,14.561-29.692,16.69a101.884,101.884,0,0,1-19.693,2.091Z" transform="translate(93.999 90.9)" fill="#ad5615"/>
      <path id="Trazado_144349" data-name="Trazado 144349" d="M28.327,29.31h-.3l-2.737-2.4a.456.456,0,0,1,0-.608.418.418,0,0,1,.608,0l2.737,2.357a.418.418,0,0,1,0,.608.342.342,0,0,1-.3.038Z" transform="translate(60.938 66.748)" fill="#ad5615"/>
      <path id="Trazado_144350" data-name="Trazado 144350" d="M81.674,32.981h0L33.2,31.422l-7.147,1.521H22.9a.438.438,0,0,1,0-.874h3l7.185-1.559h0L81.6,32.069a.38.38,0,0,1,.418.456.418.418,0,0,1-.342.456Z" transform="translate(53.402 78.892)" fill="#ad5615"/>
      <path id="Trazado_144351" data-name="Trazado 144351" d="M25.528,38.838H22.638a.418.418,0,0,1-.418-.418.456.456,0,0,1,.418-.456h2.775l6.653-3.574h.228l51.514,1.635a.456.456,0,0,1,.418.456.418.418,0,0,1-.456.418l-51.4-1.635-6.615,3.574Z" transform="translate(52.674 89.762)" fill="#ad5615"/>
      <path id="Trazado_144352" data-name="Trazado 144352" d="M24.119,44.735a.354.354,0,0,1-.342-.608l2.661-1.9,6.653-4.3h.266l41.819,3.041a.494.494,0,0,1,.418.456.456.456,0,0,1-.494.418L33.585,38.8l-6.577,3.954-2.623,1.9Z" transform="translate(56.668 99.681)" fill="#ad5615"/>
      <path id="Trazado_144353" data-name="Trazado 144353" d="M27.274,49.765h0a.456.456,0,0,1-.266-.57l1.445-3.8a.494.494,0,0,1,0-.228l6.615-4.448a.43.43,0,1,1,.608.608l-6.615,4.638-1.369,3.8a.456.456,0,0,1-.418,0Z" transform="translate(66.021 107.121)" fill="#ad5615"/>
      <path id="Trazado_144354" data-name="Trazado 144354" d="M32.235,51.017a.456.456,0,0,1-.418-.38l-.532-4.372a.456.456,0,0,1,0-.342l3.8-4.3a.418.418,0,0,1,.608,0,.456.456,0,0,1,0,.646l-3.612,4.144.532,4.182a.418.418,0,0,1-.38.494Z" transform="translate(77.978 109.67)" fill="#ad5615"/>
      <path id="Trazado_144355" data-name="Trazado 144355" d="M37.541,46.732a.456.456,0,0,1-.3,0L34.31,43.5a.342.342,0,0,1,0-.266V41.789a.438.438,0,0,1,.874,0v1.255L38,46.123a.456.456,0,0,1,0,.646.418.418,0,0,1-.456-.038Z" transform="translate(86.472 109.317)" fill="#ad5615"/>
      <path id="Trazado_144356" data-name="Trazado 144356" d="M60.687,29.1h0l-33-1.1a.456.456,0,0,1-.418-.456.418.418,0,0,1,.456-.418l33,1.1a.494.494,0,0,1,.418.456.418.418,0,0,1-.456.418Z" transform="translate(66.823 69.393)" fill="#ad5615"/>
      <path id="Trazado_144357" data-name="Trazado 144357" d="M71.567,41.731A37.181,37.181,0,0,0,39.1,22a76.032,76.032,0,0,0-8.06,2.851c19.427-.836,31.174,9.923,35.888,20.111s10.341,31.554.646,45.963a38.588,38.588,0,0,1-20.415,13.762c3.8-.456,8.44-1.1,13-2.053C79.93,90.089,82.9,62.07,71.567,41.731Z" transform="translate(77.386 55.049)" fill="#a8846c"/>
      <path id="Trazado_144358" data-name="Trazado 144358" d="M57.077,27.025h0A38.017,38.017,0,0,0,41.87,21.36,39.348,39.348,0,0,1,67.38,44.17c7.033,19.009.95,40.755-11.405,51.019h0A45.621,45.621,0,0,0,69.2,83.785a43.682,43.682,0,0,0,5.551-17.032C75.1,58.009,76.2,39.684,57.077,27.025Z" transform="translate(107.729 53.256)" fill="#a8846c"/>
      <path id="Trazado_144359" data-name="Trazado 144359" d="M72.175,41.717A37.789,37.789,0,0,0,39.4,21.91a77.753,77.753,0,0,0-8.174,2.851c19.465-.8,31.554,10,36.269,20.225s10.379,31.554.646,45.963A38.511,38.511,0,0,1,47.73,104.712c4.03-.456,8.44-1.141,13.04-2.091C80.577,90.037,83.58,62.056,72.175,41.717Z" transform="translate(77.918 54.797)" fill="#6e5440"/>
      <path id="Trazado_144360" data-name="Trazado 144360" d="M57.975,26.692h0A51.97,51.97,0,0,0,41.97,21.37c6.881,2.053,21.138,8.212,26.346,22.354,7.033,19.009.95,40.793-11.405,51.057h0A45.051,45.051,0,0,0,70.179,83.376a44.746,44.746,0,0,0,5.551-17.032C76,57.639,77.1,39.352,57.975,26.692Z" transform="translate(108.009 53.284)" fill="#6e5440"/>
      <path id="Trazado_144361" data-name="Trazado 144361" d="M67.481,45.063a67.137,67.137,0,0,1,4.03,11.405c2.015,0,4.03,0,6.083-.19a52.35,52.35,0,0,0-5.475-14.561A37.751,37.751,0,0,0,39.386,21.91a77.177,77.177,0,0,0-8.136,2.851C50.715,24,62.8,34.76,67.481,45.063Z" transform="translate(77.974 54.797)" fill="#8e6b54"/>
      <path id="Trazado_144362" data-name="Trazado 144362" d="M61.594,39.39l-4.524.8c-.342.608-.722,1.179-1.1,1.787A38.474,38.474,0,0,1,35.59,55.7h1.977c2.167-.266,4.41-.608,6.767-1.026h.418l1.141-.228h.418l1.141-.228h1.1A37.029,37.029,0,0,0,61.594,39.39Z" transform="translate(90.134 103.771)" fill="#513c2d"/>
      <path id="Trazado_144363" data-name="Trazado 144363" d="M68.248,43.564a48.434,48.434,0,0,1,2.433,9.428c1.445-.608,2.851-1.293,4.258-2.015a37.219,37.219,0,0,0-16.88-24.369h0A43.569,43.569,0,0,0,51.6,23.757l-.722-.076h0A67.065,67.065,0,0,0,41.94,21.4C48.783,23.263,63.04,29.422,68.248,43.564Z" transform="translate(107.925 53.368)" fill="#8e6b54"/>
      <path id="Trazado_144364" data-name="Trazado 144364" d="M45.88,51.279A45.85,45.85,0,0,0,59.148,39.873c.456-.912.988-1.9,1.483-3q-2.775,1.6-5.817,2.965A37.713,37.713,0,0,1,45.88,51.279Z" transform="translate(118.964 96.711)" fill="#513c2d"/>
      <path id="Trazado_144365" data-name="Trazado 144365" d="M123.651,39.847A33.683,33.683,0,0,0,103.2,7.8h0s-33.531-18.134-73.64,8.82,15.7,71.7,15.7,71.7,64.249,1.863,75.693-34.52h0a37.371,37.371,0,0,0,2.7-13.952Z" transform="translate(32.601 -1.461)" fill="#cb6a2c"/>
      <path id="Trazado_144366" data-name="Trazado 144366" d="M92.51,8.07h0S60.727-10.939,18.87,16.89C24.725,30.5,42.745,35.9,42.745,35.9S86.465,47.038,111.9,31.26A32.5,32.5,0,0,0,92.51,8.07Z" transform="translate(43.289 -1.733)" fill="#e0863e"/>
      <path id="Trazado_144367" data-name="Trazado 144367" d="M60.488,62.79S17.719,34.429,31.215,8.083C30.074,8.768,30.683,5,29.5,5.8-10.528,32.757,45.281,77.5,45.281,77.5s55.505,1.6,72.5-27.411C94.894,63.893,60.488,62.79,60.488,62.79Z" transform="translate(32.579 9.354)" fill="#b54f1e"/>
      <ellipse id="Elipse_4609" data-name="Elipse 4609" cx="32.999" cy="38.131" rx="32.999" ry="38.131" transform="translate(44.899 10.557)" fill="#e8a556"/>
      <ellipse id="Elipse_4610" data-name="Elipse 4610" cx="29.844" cy="33.759" rx="29.844" ry="33.759" transform="translate(47.712 14.929)" fill="#cb6a2c"/>
      <path id="Trazado_144368" data-name="Trazado 144368" d="M37.552,13.492C54.013,13.492,67.4,28.7,67.4,47.251a37.143,37.143,0,0,1-3.384,15.625,36.193,36.193,0,0,0,8.4-23.457c0-18.667-13.382-33.759-29.882-33.759A29.616,29.616,0,0,0,15.92,23.794a28.247,28.247,0,0,1,21.632-10.3Z" transform="translate(35.023 9.269)" fill="#b54f1e"/>
      <path id="Trazado_144369" data-name="Trazado 144369" d="M25.026,13.18a26.916,26.916,0,0,0-9.885,1.9,30.869,30.869,0,0,0,0,3.27c0,18.629,13.382,33.759,29.844,33.759a26.612,26.612,0,0,0,9.885-1.9,30.869,30.869,0,0,0,0-3.27C54.87,28.311,41.336,13.18,25.026,13.18Z" transform="translate(32.722 30.338)" fill="#e0863e"/>
      <path id="Trazado_144370" data-name="Trazado 144370" d="M43.571,5.72H42.43a13.949,13.949,0,0,0-3.155.8A28.666,28.666,0,0,0,34.6,8.457a29.881,29.881,0,0,0-5.436,3.8,27.942,27.942,0,0,0-2.7,2.547,28.854,28.854,0,0,0-2.547,3.079,37.752,37.752,0,0,0-2.243,3.574,43.226,43.226,0,0,0-1.825,4.03,40.755,40.755,0,0,0-1.293,4.334,37.222,37.222,0,0,0-.646,4.6,33,33,0,0,0,0,4.752,33.454,33.454,0,0,0,.646,4.714,31.366,31.366,0,0,0,1.331,4.562,29.12,29.12,0,0,0,1.939,4.3A30.414,30.414,0,0,0,27.3,60.009,29.654,29.654,0,0,0,34.219,65.1a27.943,27.943,0,0,0,7.223,2.661,29.35,29.35,0,0,0,6.5.684,29.807,29.807,0,0,0,5.018-.494,27.335,27.335,0,0,0,3.193-.8l.8-.266h0l-.8.3A22.811,22.811,0,0,1,53,68.107a31.973,31.973,0,0,1-5.056.684,31.631,31.631,0,0,1-6.577-.532,30.413,30.413,0,0,1-7.6-2.585,38.248,38.248,0,0,1-3.8-2.243,39.233,39.233,0,0,1-3.46-2.851,32.581,32.581,0,0,1-7.6-11.861,33.494,33.494,0,0,1-1.369-4.676,29.464,29.464,0,0,1-.646-4.828,40.867,40.867,0,0,1,0-4.828,38.019,38.019,0,0,1,.912-4.79,38.016,38.016,0,0,1,1.369-4.448,31.706,31.706,0,0,1,4.22-7.6,30.907,30.907,0,0,1,2.661-3.117,28.854,28.854,0,0,1,2.889-2.547,28.209,28.209,0,0,1,5.589-3.536,30.832,30.832,0,0,1,4.79-1.787,27.791,27.791,0,0,1,3.193-.684Z" transform="translate(37.52 9.437)" fill="#ad5615"/>
      <path id="Trazado_144371" data-name="Trazado 144371" d="M22.818,16.062a.456.456,0,0,1-.418-.38l-.684-4.562a.418.418,0,0,1,.228-.456A99.606,99.606,0,0,1,75.4,3.06a.418.418,0,1,1,0,.836A98.351,98.351,0,0,0,22.818,11.31l.646,4.258a.456.456,0,0,1-.38.494Z" transform="translate(51.24 -0.487)" fill="#ad5615"/>
      <path id="Trazado_144372" data-name="Trazado 144372" d="M26.251,13.048h-.19a.494.494,0,0,1-.228-.608l1.939-3.8a.342.342,0,0,1,.266,0,137.813,137.813,0,0,1,52.5-3.46.456.456,0,0,1,.342.532.418.418,0,0,1-.494.342A136.521,136.521,0,0,0,28.456,9.132l-1.825,3.8a.418.418,0,0,1-.38.114Z" transform="translate(62.709 4.846)" fill="#ad5615"/>
      <path id="Trazado_144373" data-name="Trazado 144373" d="M29.256,14.842a.429.429,0,0,1-.152-.836l3.8-1.407h0A392.8,392.8,0,0,1,80.161,6.82a.418.418,0,0,1,.418.456.38.38,0,0,1-.418.418A384.281,384.281,0,0,0,33.1,13.435l-3.8,1.369Z" transform="translate(71.148 12.519)" fill="#ad5615"/>
      <path id="Trazado_144374" data-name="Trazado 144374" d="M34.468,20.84H30.856a.456.456,0,0,1-.456-.456.418.418,0,0,1,.456-.418H34.43c1.026,0,32.809-3.8,44.937-10.569a.456.456,0,0,1,.608.19.418.418,0,0,1,0,.57C67.581,17.19,35.038,20.8,34.7,20.84Z" transform="translate(75.593 19.598)" fill="#ad5615"/>
      <path id="Trazado_144375" data-name="Trazado 144375" d="M34.46,29.945H30.848a.418.418,0,1,1,0-.836h3.574c1.064,0,31.554-4.22,45.849-16.842a.418.418,0,0,1,.608,0,.38.38,0,0,1,0,.608c-14.675,12.964-46,16.994-46.305,17.032Z" transform="translate(75.677 27.411)" fill="#ad5615"/>
      <path id="Trazado_144376" data-name="Trazado 144376" d="M32.618,35.057h0L29.2,32.89a.417.417,0,1,1,.57-.608L33,34.182c2.243,0,35.965-.646,48.51-18.667a.456.456,0,0,1,.608,0,.418.418,0,0,1,0,.608c-6.881,9.923-19.959,14.561-29.73,16.728a99.758,99.758,0,0,1-19.769,2.205Z" transform="translate(71.854 36.556)" fill="#ad5615"/>
      <path id="Trazado_144377" data-name="Trazado 144377" d="M20.381,10.141a.418.418,0,0,1-.266,0L17.377,7.556a.431.431,0,1,1,.57-.646l2.737,2.4a.418.418,0,0,1,0,.608A.494.494,0,0,1,20.381,10.141Z" transform="translate(38.698 12.467)" fill="#ad5615"/>
      <path id="Trazado_144378" data-name="Trazado 144378" d="M73.774,13.565h0L25.3,12.006l-7.147,1.559H15a.437.437,0,0,1,0-.874h3l7.185-1.521h0L73.7,12.729a.456.456,0,0,1,.418.456.418.418,0,0,1-.342.38Z" transform="translate(31.268 24.706)" fill="#ad5615"/>
      <path id="Trazado_144379" data-name="Trazado 144379" d="M17.656,19.6H14.766a.456.456,0,0,1-.456-.456.418.418,0,0,1,.456-.418h2.775L24.195,15h.342L76.05,16.673a.418.418,0,0,1,.418.418.456.456,0,0,1-.456.456l-51.476-1.6-6.653,3.574Z" transform="translate(30.513 35.437)" fill="#ad5615"/>
      <path id="Trazado_144380" data-name="Trazado 144380" d="M16.236,25.426a.494.494,0,0,1-.38,0,.456.456,0,0,1,0-.608l2.623-1.939,6.691-4.3a.3.3,0,0,1,.266,0l41.819,3.041a.456.456,0,0,1,.418.456.418.418,0,0,1-.494.38l-41.515-3-6.539,4.182L16.5,25.54a.266.266,0,0,1-.266-.114Z" transform="translate(34.518 45.388)" fill="#ad5615"/>
      <path id="Trazado_144381" data-name="Trazado 144381" d="M19.374,30.307h0a.456.456,0,0,1-.266-.57l1.445-3.8a.38.38,0,0,1,0-.19L27.167,21.3a.456.456,0,0,1,.494.722l-6.5,4.372L19.792,30a.456.456,0,0,1-.418.3Z" transform="translate(43.887 53.015)" fill="#ad5615"/>
      <path id="Trazado_144382" data-name="Trazado 144382" d="M24.344,31.717a.456.456,0,0,1-.418-.38l-.532-4.41a.342.342,0,0,1,0-.342l3.8-4.3a.444.444,0,1,1,.646.608L24.23,27.041l.532,4.22a.494.494,0,0,1-.38.494Z" transform="translate(55.835 55.482)" fill="#ad5615"/>
      <path id="Trazado_144383" data-name="Trazado 144383" d="M29.643,27.37a.342.342,0,0,1-.3,0l-2.927-3.193a.418.418,0,0,1,0-.3V22.466a.418.418,0,0,1,.418-.456.456.456,0,0,1,.456.456v1.255L30.1,26.8a.456.456,0,0,1,0,.608.418.418,0,0,1-.456-.038Z" transform="translate(64.337 55.077)" fill="#ad5615"/>
      <path id="Trazado_144384" data-name="Trazado 144384" d="M52.709,9.747h0l-33-1.1a.456.456,0,0,1,0-.874l33,1.141a.418.418,0,0,1,.418.456.456.456,0,0,1-.418.38Z" transform="translate(44.729 15.18)" fill="#ad5615"/>
      <path id="Trazado_144385" data-name="Trazado 144385" d="M63.695,22.381A37.257,37.257,0,0,0,31.228,2.65c-2.661.76-5.322,1.749-8.1,2.851,19.465-.8,31.212,9.923,35.888,20.149S69.4,57.2,59.665,71.614A38.512,38.512,0,0,1,39.249,85.376c4.03-.456,8.44-1.1,13.04-2.091C72.058,70.7,75.024,42.72,63.695,22.381Z" transform="translate(55.224 0.835)" fill="#a8846c"/>
      <path id="Trazado_144386" data-name="Trazado 144386" d="M49.207,7.665h0A37.447,37.447,0,0,0,34,2,39.538,39.538,0,0,1,59.51,24.81c7,19.009.95,40.793-11.405,51.057h0A45.051,45.051,0,0,0,61.373,64.463a44.746,44.746,0,0,0,5.551-17.032C67.113,38.611,68.216,20.324,49.207,7.665Z" transform="translate(85.679 -0.986)" fill="#a8846c"/>
      <path id="Trazado_144387" data-name="Trazado 144387" d="M64.285,22.357A38.017,38.017,0,0,0,31.514,2.55c-2.661.76-5.4,1.787-8.174,2.889C42.8,4.6,54.894,15.4,59.609,25.627s10.341,31.554.646,45.963A38.664,38.664,0,0,1,39.84,85.352c3.992-.456,8.44-1.1,13.04-2.053C72.649,70.715,75.576,42.7,64.285,22.357Z" transform="translate(55.812 0.555)" fill="#6e5440"/>
      <path id="Trazado_144388" data-name="Trazado 144388" d="M50.233,7.36h0A50.83,50.83,0,0,0,34,2c6.919,2.015,21.176,8.174,26.384,22.354,7.033,19.009.95,40.755-11.405,51.019h0a44.86,44.86,0,0,0,13.23-11.405A44.366,44.366,0,0,0,67.8,46.937C68.216,38.345,69.394,20.02,50.233,7.36Z" transform="translate(85.679 -0.986)" fill="#6e5440"/>
      <path id="Trazado_144389" data-name="Trazado 144389" d="M59.553,25.627A67.635,67.635,0,0,1,63.582,37.3l6.083-.228a52.35,52.35,0,0,0-5.436-14.713A38.017,38.017,0,0,0,31.458,2.55c-2.623.8-5.322,1.749-8.1,2.889C42.787,4.641,54.838,15.438,59.553,25.627Z" transform="translate(55.868 0.555)" fill="#8e6b54"/>
      <path id="Trazado_144390" data-name="Trazado 144390" d="M53.722,20l-4.524.76c-.342.608-.722,1.217-1.1,1.787A38.512,38.512,0,0,1,27.68,36.309h2.167q3.27-.418,6.729-1.026h.342l1.141-.19H40.72A37.333,37.333,0,0,0,53.722,20Z" transform="translate(67.972 49.445)" fill="#513c2d"/>
      <path id="Trazado_144391" data-name="Trazado 144391" d="M60.612,24.354a46.04,46.04,0,0,1,2.4,9.39,39.765,39.765,0,0,0,4.258-2.015A37.181,37.181,0,0,0,50.386,7.36h0a38.777,38.777,0,0,0-6.5-2.851h-.532A58.243,58.243,0,0,0,34,2C41,4.015,55.252,10.212,60.612,24.354Z" transform="translate(85.679 -0.986)" fill="#8e6b54"/>
      <path id="Trazado_144392" data-name="Trazado 144392" d="M38,31.891A44.4,44.4,0,0,0,51.306,20.485c.456-.874.95-1.9,1.483-2.965a63.976,63.976,0,0,1-5.817,2.927A36.8,36.8,0,0,1,38,31.891Z" transform="translate(96.886 42.497)" fill="#513c2d"/>
    </g>
  </g>
</svg>
