<svg xmlns="http://www.w3.org/2000/svg" width="553" height="240" viewBox="0 0 553 240">
  <g id="slyder6" transform="translate(-751 -9077.159)">
    <rect id="Rectángulo_37867" data-name="Rectángulo 37867" width="553" height="240" rx="18" transform="translate(751 9077.159)" fill="#f2f6fe"/>
    <g id="otros-07" transform="translate(967.495 9133.632)">
      <path id="Trazado_144393" data-name="Trazado 144393" d="M80.275,140.949l-71.087,8.72L7.82,14.59,78.907,5.87Z" transform="translate(13.254 2.68)" fill="#d6c753"/>
      <path id="Trazado_144394" data-name="Trazado 144394" d="M4.215,141.169l21.117,7.78L23.964,13.87,2.89,6.09Z" transform="translate(-2.89 3.401)" fill="#bfb03d"/>
      <path id="Trazado_144395" data-name="Trazado 144395" d="M4.747,83.683l11.67,4.275-.769-74.55L4.02,9.09Z" transform="translate(0.81 13.225)" fill="#97922a"/>
      <path id="Trazado_144396" data-name="Trazado 144396" d="M15.847,33.627l.256,25.99L4.476,55.3,4.22,29.31Z" transform="translate(1.465 79.438)" fill="#e6e6e6"/>
      <path id="Trazado_144397" data-name="Trazado 144397" d="M2.89,12.312l21.074,7.78,71.087-8.72L70.9,4.19Z" transform="translate(-2.89 -2.821)" fill="#ebdc6b"/>
      <path id="Trazado_144398" data-name="Trazado 144398" d="M24.265,6.539h0L15.16,4.573V9.745c0,1.667,4.275,2.907,9.19,2.864S33.5,11.2,33.5,9.574V4.53Z" transform="translate(37.29 -1.708)" fill="#ccc"/>
      <path id="Trazado_144399" data-name="Trazado 144399" d="M33.425,6.692c0,1.624-4.061,2.992-9.105,3.078S15.13,8.7,15.13,6.906s4.061-2.992,9.1-3.035S33.425,5.068,33.425,6.692Z" transform="translate(37.192 -3.87)" fill="#f2f2f2"/>
      <rect id="Rectángulo_38079" data-name="Rectángulo 38079" width="57.25" height="3.879" transform="matrix(0.993, -0.12, 0.12, 0.993, 31.295, 120.138)" fill="#f8f7f3"/>
      <rect id="Rectángulo_38080" data-name="Rectángulo 38080" width="57.25" height="7.758" transform="matrix(0.993, -0.12, 0.12, 0.993, 31.132, 125.888)" fill="#8f871c"/>
    </g>
  </g>
</svg>
